<svg width="161" height="59" viewBox="0 0 161 59" fill="none" xmlns="http://www.w3.org/2000/svg">
<g id="Group 466">
<g id="Logo_Gobierno">
<g id="Grupo_170">
<g id="Grupo_168">
<path id="Trazado_726" d="M4.45228 50.697C3.8158 50.9918 3.12572 51.1559 2.42559 51.1727C1.13923 51.2263 0.0538673 50.228 0.00026899 48.9417C0.00026899 48.8914 0.00026899 48.8445 0.00026899 48.7943C-0.0198304 47.404 1.08899 46.2584 2.47919 46.2383C2.53279 46.2383 2.58304 46.2383 2.63664 46.2383C3.14582 46.2651 3.65166 46.3488 4.14074 46.4962C4.20439 46.4962 4.26469 46.4795 4.31494 46.4426H4.42213V47.6653H4.26804C4.16419 46.9049 3.48416 46.3622 2.72039 46.4259C1.39048 46.4259 0.710447 47.528 0.710447 48.744C0.710447 50.2917 1.79916 50.9817 2.66679 50.9817C3.06877 50.9817 3.46741 50.8812 3.8225 50.6936V49.7423C3.8225 49.3135 3.67176 49.1661 3.21617 49.1661H2.93813V49.0287H4.97822V49.1661C4.59968 49.1895 4.44893 49.3168 4.44893 49.6418V50.6903L4.45228 50.697Z" fill="#041E5F"/>
<path id="Trazado_727" d="M7.68915 51.1727C6.2085 51.1727 4.95898 50.2213 4.95898 48.8077C4.95898 47.3069 6.1147 46.2383 7.726 46.2383C9.15306 46.2383 10.3791 47.2131 10.3791 48.5732C10.3791 50.0103 9.21335 51.1727 7.77625 51.1727C7.7461 51.1727 7.71595 51.1727 7.6858 51.1727H7.68915ZM7.53171 46.4292C6.2018 46.4292 5.67251 47.6687 5.67251 48.5765C5.67251 49.9902 6.63393 50.9851 7.84995 50.9851C9.06596 50.9851 9.67229 49.8964 9.67229 48.8244C9.67229 47.4174 8.78122 46.4292 7.53505 46.4292H7.53171Z" fill="#041E5F"/>
<path id="Trazado_728" d="M11.0923 47.1561C11.0923 46.7273 11.0387 46.4995 10.5094 46.4995H10.2447V46.3555C10.4558 46.3488 10.9784 46.3187 11.1961 46.3086C11.6115 46.2952 12.1877 46.2852 12.3317 46.2852C12.9983 46.2852 13.5779 46.3823 13.8526 46.5799C14.144 46.7575 14.3182 47.0757 14.3115 47.4174C14.2814 47.8898 13.9196 48.2783 13.4506 48.3386V48.3554C14.1608 48.5664 14.5761 49.0287 14.5761 49.6183C14.5761 50.2079 14.1608 51.0521 12.9447 51.0521H10.1777V50.908H10.3519C10.9717 50.908 11.0923 50.764 11.0923 50.2883V47.1528V47.1561ZM11.7187 48.3185H12.5428C13.2697 48.3185 13.6315 48.0305 13.6315 47.4409C13.6315 46.9116 13.3132 46.4292 12.3853 46.4292C12.2178 46.4292 11.9096 46.446 11.7187 46.4527V48.3185ZM11.7187 50.0705C11.7187 50.6467 11.9465 50.8477 12.5796 50.8477C13.5779 50.8477 13.866 50.228 13.866 49.6384C13.866 49.0488 13.4204 48.4592 12.5361 48.4592H11.7187V50.0672V50.0705Z" fill="#041E5F"/>
<path id="Trazado_729" d="M16.5486 51.0524H14.7129V50.9084C15.1819 50.885 15.279 50.7644 15.279 50.2585V47.0393C15.279 46.6306 15.135 46.5167 14.7129 46.4966V46.3525H16.5486V46.4966C16.073 46.4966 15.9055 46.6038 15.9055 47.1096V50.3121C15.9055 50.7577 16.0261 50.9084 16.5486 50.9084V51.0524Z" fill="#041E5F"/>
<path id="Trazado_730" d="M20.2272 49.354H20.0831C20.0228 48.8181 19.8788 48.7578 19.5706 48.7578H18.2943V50.3657C18.2943 50.7141 18.4216 50.7811 18.703 50.7811H19.8688C20.398 50.7811 20.5555 50.5768 20.7464 49.9269H20.8838L20.7632 51.0524H16.75V50.9084H16.961C17.564 50.9084 17.6712 50.7409 17.6712 50.2887V47.0996C17.6712 46.6775 17.5741 46.4966 17.0682 46.4966H16.9007V46.3525H20.5287L20.589 47.4044H20.4516C20.3545 46.7612 20.1635 46.6272 19.8922 46.6272H18.2977V48.4864H19.651C19.9224 48.4864 20.053 48.3591 20.0898 47.9203H20.2339V49.3574L20.2272 49.354Z" fill="#041E5F"/>
<path id="Trazado_731" d="M22.1129 50.3419C22.1129 50.7941 22.2937 50.908 22.7158 50.908H22.89V51.0521H20.7494V50.908H20.8767C21.3223 50.908 21.4797 50.7874 21.4797 50.2816V47.1025C21.4797 46.6335 21.3524 46.4995 20.9136 46.4995H20.7461V46.3555C20.927 46.3555 21.3893 46.3254 21.6975 46.3086C22.0057 46.2919 22.1564 46.2852 22.6488 46.2852C24.0457 46.2852 24.6755 46.8613 24.6755 47.6318C24.6588 48.2214 24.2467 48.7272 23.6706 48.8545C23.9754 49.0991 24.2635 49.3604 24.5315 49.6418L25.1278 50.238C25.5096 50.6735 26.0423 50.9449 26.6185 51.0018V51.1392C25.2953 51.1995 24.9569 50.9114 24.2836 50.2414L23.7845 49.7423C23.5466 49.4944 23.2853 49.2699 23.0073 49.0689C22.8197 49.0756 22.6957 49.0823 22.4947 49.0823C22.3272 49.0823 22.2301 49.0756 22.1095 49.0689V50.3452L22.1129 50.3419ZM22.1129 48.9215C22.2669 48.9383 22.4244 48.9416 22.5818 48.9349C23.4193 48.9349 23.972 48.5798 23.972 47.672C23.972 46.9685 23.6538 46.4259 22.4914 46.4259C22.3641 46.4259 22.2401 46.4259 22.1129 46.4426V48.9215Z" fill="#041E5F"/>
<path id="Trazado_732" d="M30.8789 51.1832L26.9628 47.0896V50.3323C26.9628 50.875 27.0834 50.9889 27.7266 50.9889V51.1329H25.9746V50.9889H26.0048C26.4737 50.9889 26.6245 50.8314 26.6245 50.4831V46.7647C26.4369 46.6374 26.2158 46.5737 25.988 46.5771V46.433H27.1739L30.7348 50.1414V47.1332C30.7348 46.6742 30.5975 46.5905 29.9945 46.5737V46.4297H31.7632V46.5737C31.1971 46.5737 31.0765 46.6709 31.0765 46.9657V51.1798H30.8789V51.1832Z" fill="#041E5F"/>
<path id="Trazado_733" d="M34.3142 51.1727C32.8335 51.1727 31.584 50.2213 31.584 48.8077C31.584 47.3069 32.7397 46.2383 34.351 46.2383C35.7781 46.2383 37.0041 47.2131 37.0041 48.5732C37.0041 50.0103 35.8384 51.1727 34.4012 51.1727C34.3711 51.1727 34.3409 51.1727 34.3108 51.1727H34.3142ZM34.1567 46.4292C32.8268 46.4292 32.2975 47.6687 32.2975 48.5765C32.2975 49.9902 33.2589 50.9851 34.4749 50.9851C35.691 50.9851 36.2973 49.8964 36.2973 48.8244C36.2973 47.4174 35.4062 46.4292 34.1567 46.4292Z" fill="#041E5F"/>
<path id="Trazado_734" d="M39.5595 47.1097C39.5595 46.6206 39.4322 46.4966 38.9867 46.4966H38.8359V46.3526C39.114 46.3392 39.4858 46.3224 39.9012 46.3057C40.3166 46.2889 40.7789 46.2822 41.1708 46.2822C43.1674 46.2822 44.0517 47.2939 44.0517 48.5401C44.0517 49.6824 43.1674 51.0491 41.2546 51.0491H38.8359V50.9051H38.9632C39.3719 50.9051 39.5595 50.7912 39.5595 50.3523V47.1063V47.1097ZM40.1859 50.493C40.1859 50.8012 40.2094 50.9084 40.8057 50.9084C41.8173 50.9084 42.2428 50.7644 42.7118 50.2954C43.1238 49.8532 43.3516 49.267 43.3382 48.664C43.3583 48.0644 43.1406 47.4781 42.7352 47.0393C42.3868 46.6909 41.8508 46.4263 40.7923 46.4263C40.4841 46.4263 40.2797 46.4497 40.1893 46.4564V50.493H40.1859Z" fill="#041E5F"/>
<path id="Trazado_735" d="M47.3682 49.354H47.2242C47.1639 48.8181 47.0199 48.7578 46.7117 48.7578H45.432V50.3657C45.432 50.7141 45.5593 50.7811 45.8407 50.7811H47.0065C47.5357 50.7811 47.6932 50.5768 47.8841 49.9269H48.0215L47.9009 51.0524H43.8877V50.9084H44.0987C44.7017 50.9084 44.8089 50.7409 44.8089 50.2887V47.0996C44.8089 46.6775 44.7118 46.4966 44.2059 46.4966H44.0384V46.3525H47.6664L47.7267 47.4044H47.5893C47.4922 46.7612 47.3012 46.6272 47.0299 46.6272H45.4354V48.4864H46.7887C47.06 48.4864 47.1907 48.3591 47.2275 47.9203H47.3716V49.3574L47.3682 49.354Z" fill="#041E5F"/>
</g>
<g id="Grupo_169">
<path id="Trazado_736" d="M3.56246 56.522H3.41842C3.35812 55.976 3.21072 55.9157 2.89583 55.9157H1.59942V57.5471C1.59942 57.8988 1.73007 57.9692 2.01481 57.9692H3.19732C3.73331 57.9692 3.8941 57.7615 4.08505 57.1016H4.22239L4.09844 58.2439H0.0283203V58.0965H0.242714C0.855745 58.0965 0.962942 57.929 0.962942 57.4667V54.2307C0.962942 53.8019 0.862445 53.6177 0.34991 53.6177H0.182416V53.4736H3.86395L3.92425 54.5389H3.7869C3.68641 53.8857 3.49546 53.7483 3.21742 53.7483H1.59942V55.6343H2.97288C3.24757 55.6343 3.37822 55.5037 3.41842 55.0581H3.56246V56.5153V56.522Z" fill="#041E5F"/>
<path id="Trazado_737" d="M7.91369 58.2478H4.4834V58.1004H4.73799C5.08973 58.1004 5.22038 57.9865 5.22038 57.5946V54.1978C5.22038 53.7924 5.09643 53.6216 4.61404 53.6216H4.50685V53.4775H6.77138V53.6216H6.48664C5.9875 53.6216 5.85686 53.6752 5.85686 54.1509V57.685C5.85686 57.8927 5.9406 57.9698 6.16505 57.9698H7.29396C7.7462 57.9698 7.88354 57.7922 8.36593 57.1256H8.50327L7.91369 58.2444V58.2478Z" fill="#041E5F"/>
<path id="Trazado_738" d="M10.7212 57.0817C10.8384 57.7047 11.3845 58.157 12.0176 58.1637C12.5301 58.1637 13.0762 57.8655 13.0762 57.2592C13.0762 56.1571 10.614 55.8188 10.614 54.4754C10.614 53.839 11.1969 53.3633 11.9808 53.3633C12.6239 53.3633 12.7546 53.5542 13.0226 53.5542C13.0795 53.5576 13.1331 53.5274 13.1599 53.4772H13.2839L13.4145 54.452H13.2839C13.0996 53.9261 12.6072 53.5643 12.0478 53.5475C11.5419 53.5475 11.1902 53.839 11.1902 54.2678C11.1902 55.3565 13.6524 55.6479 13.6524 57.0582C13.6524 57.8086 12.9857 58.368 12.088 58.368C11.7262 58.3312 11.3711 58.2608 11.0227 58.1603C10.959 58.1603 10.9021 58.1938 10.8686 58.2441H10.7379L10.5771 57.0783H10.7212V57.0817Z" fill="#041E5F"/>
<path id="Trazado_739" d="M15.4249 56.1299L14.9794 57.3325C14.909 57.4866 14.8588 57.6507 14.8253 57.8149C14.8253 58.0226 15.0229 58.0996 15.445 58.0996H15.569V58.247H13.7969V58.0996C14.296 58.0929 14.3798 58.0092 14.6243 57.3425L16.0212 53.5337L15.9509 53.3662H16.6175L18.2221 57.6206C18.2824 57.9455 18.5939 58.1599 18.9189 58.103V58.2504H16.8084V58.103H17.0061C17.4449 58.103 17.6057 58.0561 17.6057 57.8417C17.599 57.7311 17.5689 57.6273 17.522 57.5268L17.0061 56.1299H15.4216H15.4249ZM16.2088 54.006L15.5556 55.7915H16.8821L16.2088 54.006Z" fill="#041E5F"/>
<path id="Trazado_740" d="M22.3117 58.2478H18.8848V58.1004H19.1394C19.4911 58.1004 19.6217 57.9865 19.6217 57.5946V54.1978C19.6217 53.7924 19.4978 53.6216 19.0154 53.6216H18.9082V53.4775H21.1694V53.6216H20.8847C20.3855 53.6216 20.2549 53.6752 20.2549 54.1509V57.685C20.2549 57.8927 20.3386 57.9698 20.5631 57.9698H21.692C22.1442 57.9698 22.2816 57.7922 22.7639 57.1256H22.9013L22.3084 58.2444L22.3117 58.2478Z" fill="#041E5F"/>
<path id="Trazado_741" d="M24.0534 58.368L22.3885 54.2208C22.1975 53.7384 22.1038 53.6245 21.6348 53.6245V53.4805H23.7452V53.6245C23.0384 53.6413 22.8709 53.8021 23.0183 54.1538L24.3984 57.5874L25.6111 54.4218C25.6814 54.271 25.725 54.1102 25.7417 53.9461C25.7417 53.715 25.5508 53.6245 25.0282 53.6245V53.4805H26.807V53.6245C26.4084 53.6245 26.2007 53.8088 26.0164 54.2844L24.4353 58.3713H24.0534V58.368Z" fill="#041E5F"/>
<path id="Trazado_742" d="M27.5441 56.1299L27.0985 57.3325C27.0282 57.4866 26.9779 57.6507 26.9444 57.8149C26.9444 58.0226 27.1421 58.0996 27.5642 58.0996H27.6881V58.247H25.916V58.0996C26.4152 58.0929 26.4989 58.0092 26.7434 57.3425L28.1403 53.5337L28.07 53.3662H28.7366L30.3412 57.6206C30.4015 57.9455 30.7131 58.1599 31.038 58.103V58.2504H28.9276V58.103H29.1252C29.5641 58.103 29.7248 58.0561 29.7248 57.8417C29.7181 57.7311 29.688 57.6239 29.6411 57.5268L29.1286 56.1332H27.5407L27.5441 56.1299ZM28.3246 54.006L27.6714 55.7915H28.9979L28.3212 54.006H28.3246Z" fill="#041E5F"/>
<path id="Trazado_743" d="M31.7018 54.2443C31.7018 53.7451 31.5712 53.6245 31.1189 53.6245H30.9648V53.4805C31.2496 53.4638 31.6248 53.4504 32.0469 53.4336C32.4689 53.4169 32.9346 53.4102 33.3332 53.4102C35.3566 53.4102 36.2543 54.4386 36.2543 55.7015C36.2543 56.8605 35.3566 58.2474 33.417 58.2474H30.9648V58.1H31.0955C31.5109 58.1 31.7018 57.9861 31.7018 57.5406V54.2443ZM32.3383 57.6779C32.3383 57.9928 32.3618 58.1 32.9681 58.1C33.9965 58.1 34.4253 57.956 34.901 57.4803C35.3197 57.0314 35.5475 56.4385 35.5375 55.8254C35.5576 55.2157 35.3398 54.6228 34.9244 54.1773C34.5727 53.8255 34.0267 53.5576 32.9547 53.5576C32.6398 53.5576 32.4321 53.581 32.3417 53.5877V57.6813L32.3383 57.6779Z" fill="#041E5F"/>
<path id="Trazado_744" d="M39.3661 58.368C37.8653 58.368 36.5957 57.4033 36.5957 55.9695C36.5957 54.4453 37.7682 53.3633 39.4029 53.3633C40.8534 53.3633 42.0962 54.3515 42.0962 55.7317C42.0962 57.1889 40.9137 58.3714 39.4565 58.3714C39.4264 58.3714 39.3962 58.3714 39.3661 58.3714V58.368ZM39.2053 53.5542C37.8553 53.5542 37.3193 54.8104 37.3193 55.7317C37.3193 57.1654 38.2941 58.1771 39.5269 58.1771C40.7596 58.1771 41.376 57.075 41.376 55.9829C41.376 54.5558 40.4715 53.5509 39.2053 53.5509V53.5542Z" fill="#041E5F"/>
<path id="Trazado_745" d="M43.4163 57.5272C43.4163 57.9861 43.6005 58.1034 44.0293 58.1034H44.2069V58.2474H42.0361V58.1H42.1668C42.619 58.1 42.7798 57.9761 42.7798 57.4635V54.2376C42.7798 53.7619 42.6492 53.6245 42.2036 53.6245H42.0361V53.4805C42.2204 53.4805 42.6894 53.4504 43.0043 53.4336C43.3191 53.4169 43.4732 53.4102 43.969 53.4102C45.3894 53.4102 46.0259 53.993 46.0259 54.7736C46.0091 55.3732 45.5904 55.8824 45.0041 56.0164C45.3123 56.2643 45.6038 56.5289 45.8785 56.8137L46.4848 57.42C46.87 57.8622 47.4127 58.1369 47.9956 58.1938V58.3312C46.6523 58.3915 46.3106 58.1 45.6239 57.42L45.118 56.9141C44.8768 56.6629 44.6122 56.4351 44.3275 56.2308C44.1365 56.2375 44.0126 56.2475 43.8049 56.2475C43.6374 56.2475 43.5369 56.2408 43.4129 56.2308V57.5272H43.4163ZM43.4163 56.0867C43.5737 56.1035 43.7345 56.1068 43.892 56.1035C44.7429 56.1035 45.3023 55.7417 45.3023 54.8238C45.3023 54.1103 44.9807 53.5576 43.8015 53.5576C43.6742 53.5576 43.5469 53.5575 43.4196 53.5743V56.0901L43.4163 56.0867Z" fill="#041E5F"/>
</g>
</g>
<path id="Trazado_746" d="M24.0352 0L24.598 1.14232L25.8576 1.32656L24.9464 2.21428L25.1608 3.46714L24.0352 2.87421L22.9097 3.46379L23.1241 2.21093L22.2129 1.32321L23.4725 1.13897L24.0352 0.0033499V0Z" fill="#041E5F"/>
<path id="Trazado_747" d="M32.3204 2.11328L32.8832 3.2556L34.1427 3.43984L33.2316 4.32756L33.446 5.58043L32.3204 4.98749L31.1948 5.57708L31.4092 4.32421L30.498 3.43649L31.7576 3.25225L32.3204 2.11328Z" fill="#041E5F"/>
<path id="Trazado_748" d="M38.669 7.25293L39.2318 8.39524L40.4914 8.57949L39.5802 9.46721L39.7946 10.7201L38.669 10.1271L37.5435 10.7201L37.7579 9.46721L36.8467 8.57949L38.1062 8.39524L38.669 7.25293Z" fill="#041E5F"/>
<path id="Trazado_749" d="M42.296 14.6123L42.8588 15.7546L44.1183 15.9389L43.2071 16.8266L43.4215 18.0794L42.296 17.4865L41.1704 18.0794L41.3848 16.8266L40.4736 15.9389L41.7332 15.7546L42.296 14.6123Z" fill="#041E5F"/>
<path id="Trazado_750" d="M42.4376 23.1543L43.0004 24.2966L44.2599 24.4809L43.3487 25.3686L43.5631 26.6214L42.4376 26.0285L41.312 26.6214L41.5264 25.3686L40.6152 24.4809L41.8748 24.2966L42.4376 23.1543Z" fill="#041E5F"/>
<path id="Trazado_751" d="M38.6778 30.5479L39.2406 31.6902L40.5002 31.8744L39.589 32.7621L39.8034 34.015L38.6778 33.4221L37.5522 34.015L37.7666 32.7621L36.8555 31.8744L38.115 31.6902L38.6778 30.5479Z" fill="#041E5F"/>
<path id="Trazado_752" d="M32.3565 35.6895L32.9193 36.8318L34.1789 37.016L33.2677 37.9037L33.4821 39.1566L32.3565 38.5637L31.231 39.1566L31.4454 37.9037L30.5342 37.016L31.7937 36.8318L32.3565 35.6895Z" fill="#041E5F"/>
<path id="Trazado_753" d="M24.0333 37.499L24.5961 38.6413L25.8556 38.8256L24.9445 39.7133L25.1588 40.9662L24.0333 40.3732L22.9077 40.9662L23.1221 39.7133L22.2109 38.8256L23.4705 38.6413L24.0333 37.499Z" fill="#041E5F"/>
<path id="Trazado_754" d="M15.8917 35.6963L16.4545 36.8386L17.714 37.0228L16.8029 37.9106L17.0172 39.1634L15.8917 38.5705L14.7661 39.1634L14.9805 37.9106L14.0693 37.0228L15.3289 36.8386L15.8917 35.6996V35.6963Z" fill="#041E5F"/>
<path id="Trazado_755" d="M9.57039 30.5576L10.1332 31.6999L11.3927 31.8842L10.4816 32.7719L10.696 34.0248L9.57039 33.4318L8.44483 34.0248L8.65922 32.7719L7.74805 31.8808L9.00761 31.6966L9.57039 30.5576Z" fill="#041E5F"/>
<path id="Trazado_756" d="M5.80477 23.208L6.36755 24.3503L7.62711 24.5346L6.71594 25.4223L6.93033 26.6752L5.80477 26.0822L4.6792 26.6718L4.89359 25.4189L3.98242 24.5312L5.24198 24.347L5.80477 23.2114V23.208Z" fill="#041E5F"/>
<path id="Trazado_757" d="M5.80477 14.6123L6.36755 15.7546L7.62711 15.9389L6.71594 16.8266L6.93033 18.0794L5.80477 17.4865L4.6792 18.0794L4.89359 16.8266L3.98242 15.9389L5.24198 15.7546L5.80477 14.6123Z" fill="#041E5F"/>
<path id="Trazado_758" d="M9.37996 7.2627L9.94274 8.40501L11.2023 8.58925L10.2911 9.47698L10.5055 10.7298L9.37996 10.1369L8.2544 10.7298L8.46879 9.47698L7.55762 8.58925L8.81718 8.40501L9.38331 7.2627H9.37996Z" fill="#041E5F"/>
<path id="Trazado_759" d="M15.8819 2.11719L16.4447 3.2595L17.7043 3.44375L16.7931 4.33147L17.0075 5.58433L15.8819 4.9914L14.7563 5.58433L14.9707 4.33147L14.0596 3.44375L15.3191 3.2595L15.8819 2.12054V2.11719Z" fill="#041E5F"/>
<g id="Grupo_171">
<path id="Trazado_760" d="M33.6937 23.4428C33.6937 23.4428 33.6803 23.4428 33.677 23.4395C33.5899 23.4395 33.5195 23.5098 33.5195 23.5969C33.5195 23.684 33.5899 23.7543 33.677 23.7543C33.677 23.7543 33.6904 23.7543 33.6937 23.751C33.7004 23.751 33.7071 23.751 33.7138 23.7543C33.8009 23.7543 33.8713 23.684 33.8713 23.5969C33.8713 23.5098 33.8009 23.4395 33.7138 23.4395C33.7138 23.4395 33.7004 23.4395 33.6937 23.4428Z" fill="#041E5F"/>
<path id="Trazado_761" d="M35.4294 21.2517C35.2954 21.2752 35.1648 21.3221 35.0475 21.3958C34.9805 21.4427 34.9068 21.4728 34.8264 21.4862C34.8733 21.3924 34.8934 21.2886 34.8834 21.1847C34.8566 20.9 34.8566 20.431 34.8566 20.431C34.8566 20.431 34.7628 20.7158 34.6255 20.7861C34.4814 20.8531 34.2235 20.9503 34.1766 21.0441C34.1297 21.1378 33.9387 21.1378 33.865 21.4259C33.8483 21.5499 33.8081 21.6705 33.7478 21.7777C33.731 21.8112 33.7109 21.8447 33.6875 21.8748C33.7813 21.4628 33.8315 21.0441 33.8449 20.622C33.8449 20.555 33.8449 20.4913 33.8449 20.4277C33.9019 20.3774 33.9588 20.3272 34.0091 20.2702C34.0694 20.1697 34.7997 19.9218 34.9001 19.7242C35.0006 19.5332 35.0576 19.3993 35.1045 19.3155C35.1782 19.148 35.215 18.9671 35.2217 18.7862C35.215 18.5417 35.1882 18.2971 35.1413 18.0593C35.0274 18.1162 34.9269 18.1933 34.8432 18.2904C34.8197 18.3206 34.7929 18.3507 34.7628 18.3742C34.7628 18.3038 34.7528 18.2368 34.7293 18.1698C34.6288 17.9186 34.4714 17.587 34.4714 17.587C34.4714 17.587 34.334 17.798 34.2603 17.9253C34.1364 18.1698 34.0158 18.1899 33.9957 18.2871C33.9823 18.3876 33.8315 18.4512 33.7779 18.6489C33.7612 18.6991 33.7511 18.7527 33.7411 18.8063C33.6875 18.3842 33.6171 18.0023 33.5401 17.6573C33.5736 17.5468 33.6138 17.3056 33.7143 17.2285C33.8416 17.1046 33.9019 16.927 33.8784 16.7528C33.8751 16.6021 33.8516 16.4513 33.8114 16.3039C33.7913 16.1867 33.4295 15.6909 33.4563 15.5502C33.4563 15.5502 33.2788 15.9522 33.2118 16.1097C33.0343 15.9321 32.8333 15.778 32.6122 15.6541C32.5217 15.5 32.4313 15.3425 32.3375 15.1884C32.3408 15.1415 32.3509 15.0444 32.3676 14.9405C32.4145 14.7797 32.4212 14.6089 32.3944 14.4448C32.3475 14.3275 32.2504 14.2337 32.2035 14.0897C32.1767 13.9557 32.1097 13.8317 32.0125 13.7346C31.8953 13.6106 31.7278 13.4498 31.7278 13.4498C31.7278 13.4498 31.6809 13.6609 31.6373 13.8317C31.5971 13.8116 31.5569 13.7949 31.5168 13.7848C31.49 13.7748 31.4297 13.7413 31.3627 13.7078C31.2823 13.5972 31.2019 13.49 31.1282 13.3962C31.1717 13.3694 31.1985 13.3192 31.1985 13.2689C31.1985 13.1785 31.1315 13.1048 31.0411 13.1014C30.9506 13.1014 30.8769 13.1684 30.8736 13.2589C30.8736 13.3493 30.9406 13.423 31.031 13.4264C31.0645 13.4264 31.098 13.4197 31.1248 13.3996C31.1449 13.4331 31.2086 13.5302 31.299 13.6743C31.222 13.6341 31.1483 13.5905 31.1148 13.5671C31.0545 13.5269 31.021 13.9925 31.1617 14.2505C31.1382 14.2438 31.1148 14.2371 31.0947 14.2337C30.9171 14.1868 30.7329 14.1734 30.552 14.1868C30.619 14.1868 30.7898 14.3711 30.8099 14.4649C30.8702 14.6089 30.9674 14.7295 31.0947 14.8199C31.222 14.8936 31.3426 14.9807 31.4498 15.0846C31.634 15.1784 31.8417 15.2186 32.0494 15.2018C32.113 15.242 32.1834 15.2588 32.2571 15.2521C32.3442 15.4028 32.4313 15.5569 32.5184 15.711C32.4815 15.845 32.4648 15.979 32.4648 16.1164C32.3475 16.0963 31.9489 15.9991 31.9489 15.9991C31.9723 16.2101 32.0427 16.4111 32.1566 16.592C32.1331 16.6121 32.1164 16.6423 32.113 16.6724C32.1063 16.7227 32.1164 16.7729 32.1465 16.8165C32.2001 16.9002 32.2805 16.9639 32.371 17.0041L30.428 18.3708C30.5218 16.6992 30.4582 15.0209 30.2371 13.3594C30.4716 13.2689 30.4079 13.1651 30.4079 13.1651L30.3175 12.9339C30.3409 12.944 30.3677 12.9507 30.3945 12.9507C30.4381 12.9507 30.4783 12.9339 30.5051 12.9038C30.562 12.8301 30.552 12.7263 30.4783 12.666C30.4347 12.6224 30.3845 12.5856 30.3275 12.5588L30.6022 12.5186L30.7597 11.8486L30.1064 12.0697L30.093 12.3477C30.0629 12.2941 30.0227 12.2506 29.9758 12.2104C29.9189 12.1434 29.8184 12.1333 29.7514 12.1903C29.6844 12.2472 29.6743 12.3477 29.7313 12.4147C29.7413 12.4248 29.7514 12.4348 29.7614 12.4449C29.8284 12.5085 29.9121 12.5521 30.0026 12.5722C30.0026 12.5789 30.0093 12.5856 30.0126 12.5889L26.7532 16.18L24.5892 12.5621C24.7232 11.6844 24.2508 10.3545 24.2341 10.3009C24.2642 10.1837 24.2776 10.0631 24.2709 9.93914C24.3681 9.90899 24.4451 9.83194 24.4753 9.7348V9.72475C24.3982 9.6209 24.3145 9.53045 24.224 9.44001C24.2642 9.45006 24.3011 9.45341 24.3413 9.45341H24.3547C24.4485 9.46011 24.5289 9.38976 24.5356 9.29596C24.5289 9.20216 24.4485 9.13182 24.358 9.13852C24.2944 9.13517 24.2341 9.13852 24.1738 9.15862L24.3513 8.94087L24.0163 8.33789L23.6847 8.94087L23.8622 9.15862C23.8053 9.14187 23.7416 9.13182 23.6813 9.13852C23.6311 9.13852 23.5808 9.15862 23.544 9.19211C23.5172 9.21891 23.5004 9.25576 23.5004 9.29596C23.5004 9.33616 23.5172 9.37301 23.544 9.39981C23.5808 9.43331 23.6277 9.45341 23.6813 9.45341H23.6981C23.7316 9.45341 23.7617 9.45006 23.7919 9.44336C23.7383 9.49361 23.6646 9.574 23.6177 9.63095C23.5976 9.6477 23.5842 9.66445 23.5708 9.68455L23.5607 9.69795C23.5607 9.69795 23.5641 9.7147 23.5674 9.7214V9.7348C23.5909 9.7817 23.6244 9.8219 23.6679 9.85539C23.42 10.3143 22.8104 11.6509 23.1621 13.0445L21.2929 16.1733L18.02 12.5688C18.1172 12.5521 18.2076 12.5085 18.2813 12.4415C18.3182 12.408 18.3416 12.3578 18.345 12.3075C18.3517 12.2271 18.2914 12.1601 18.211 12.1534C18.211 12.1534 18.2076 12.1534 18.2043 12.1534C18.154 12.1534 18.1071 12.1702 18.0669 12.2037C18.02 12.2405 17.9765 12.2908 17.9463 12.3444L17.9329 12.063L17.2797 11.8419L17.4371 12.5119L17.7152 12.5521C17.6582 12.5789 17.6113 12.6124 17.5678 12.6559C17.5309 12.6894 17.5041 12.7363 17.5008 12.7899C17.5008 12.8301 17.5108 12.867 17.5376 12.8971C17.5644 12.9272 17.6013 12.944 17.6415 12.944H17.6482C17.675 12.944 17.7018 12.9373 17.7252 12.9272L17.6348 13.1584C17.6348 13.1584 17.5711 13.2656 17.8056 13.3527C17.5845 15.0142 17.5209 16.6925 17.6147 18.3641L15.6717 16.9974C15.7622 16.9605 15.8392 16.8969 15.8962 16.8131C15.923 16.7763 15.9364 16.7294 15.933 16.6858C15.9297 16.6523 15.9129 16.6188 15.8895 16.5954C16.0034 16.4145 16.0771 16.2135 16.0972 15.9991C16.0972 15.9991 15.6952 16.0929 15.5813 16.1164C15.5813 15.979 15.5612 15.8417 15.5277 15.711C15.6148 15.5569 15.7019 15.4028 15.789 15.2521C15.8627 15.2588 15.9364 15.2387 15.9967 15.2018C16.2044 15.2219 16.4121 15.1817 16.5963 15.0846C16.7035 14.9807 16.8208 14.8936 16.9514 14.8199C17.0787 14.7328 17.1792 14.6089 17.2361 14.4649C17.2562 14.3711 17.4271 14.1868 17.4941 14.1868C17.3098 14.1734 17.1289 14.1868 16.9514 14.2337C16.9313 14.2404 16.9078 14.2438 16.8844 14.2505C17.0251 13.9925 16.9916 13.5269 16.9313 13.5671C16.8978 13.5872 16.8241 13.6307 16.7471 13.6743C16.8375 13.5302 16.9011 13.4331 16.9212 13.3996C16.9447 13.4163 16.9748 13.4264 17.005 13.4264C17.0921 13.4264 17.1624 13.356 17.1624 13.2689C17.1624 13.1818 17.0921 13.1115 17.005 13.1115C16.9179 13.1115 16.8476 13.1818 16.8476 13.2689C16.8476 13.3225 16.8744 13.3694 16.9179 13.3962C16.8442 13.4867 16.7638 13.5939 16.6834 13.7078C16.6164 13.7446 16.5561 13.7748 16.5293 13.7848C16.4891 13.7949 16.4456 13.8116 16.4087 13.8317C16.3652 13.6609 16.3183 13.4498 16.3183 13.4498C16.3183 13.4498 16.1474 13.614 16.0335 13.7346C15.9364 13.8317 15.8694 13.9557 15.8426 14.0897C15.7957 14.2337 15.6985 14.3275 15.6516 14.4448C15.6248 14.6089 15.6315 14.7797 15.6784 14.9405C15.6918 15.0444 15.7019 15.1415 15.7086 15.1884C15.6148 15.3459 15.521 15.5 15.4339 15.6541C15.2162 15.7814 15.0152 15.9321 14.8343 16.1097C14.7673 15.9522 14.5897 15.5502 14.5897 15.5502C14.6165 15.6943 14.2547 16.19 14.2346 16.3039C14.1944 16.4513 14.171 16.6021 14.1676 16.7528C14.1442 16.927 14.2045 17.1046 14.3318 17.2285C14.4289 17.3089 14.4691 17.5501 14.506 17.6573C14.4256 18.0023 14.3586 18.3842 14.305 18.8063C14.2949 18.7527 14.2815 18.6991 14.2681 18.6489C14.2145 18.4512 14.0638 18.3909 14.0504 18.2871C14.0303 18.1933 13.9063 18.1698 13.7857 17.9253C13.7087 17.7946 13.5714 17.5836 13.5714 17.5836C13.5714 17.5836 13.4139 17.9152 13.3134 18.1665C13.29 18.2335 13.2766 18.3005 13.2799 18.3708C13.2498 18.3474 13.223 18.3206 13.1995 18.2871C13.1158 18.1899 13.0153 18.1129 12.9014 18.0559C12.8545 18.2971 12.8277 18.5383 12.821 18.7829C12.8243 18.9638 12.8645 19.1447 12.9382 19.3122C12.9851 19.3926 13.0387 19.5299 13.1426 19.7208C13.2431 19.9185 13.9733 20.1664 14.0336 20.2669C14.0839 20.3238 14.1408 20.3741 14.1978 20.4243C14.1978 20.488 14.1978 20.5516 14.1978 20.6186C14.2078 21.0407 14.2614 21.4594 14.3552 21.8715C14.3318 21.8413 14.3117 21.8078 14.2949 21.7743C14.2346 21.6638 14.1978 21.5432 14.1777 21.4226C14.104 21.1378 13.913 21.1378 13.8661 21.0407C13.8192 20.9436 13.558 20.8498 13.4173 20.7828C13.2799 20.7158 13.1861 20.4277 13.1861 20.4277C13.1861 20.4277 13.1861 20.8967 13.1593 21.1814C13.1493 21.2852 13.1694 21.3891 13.2163 21.4829C13.1359 21.4695 13.0622 21.436 12.9952 21.3924C12.8779 21.3221 12.7506 21.2718 12.6133 21.2484C12.6434 21.503 12.6937 21.7542 12.7573 22.0021C12.8176 22.1864 12.9148 22.3539 13.0421 22.4979C13.1091 22.5716 13.2062 22.6888 13.367 22.853C13.5379 23.0238 13.9633 23.0573 14.4356 23.2148C14.573 23.2583 14.6902 23.3454 14.7673 23.466C14.784 23.5263 14.7974 23.5799 14.8075 23.6201C14.8611 23.8278 14.9314 24.0791 15.0118 24.347C14.8443 24.1829 14.6199 24.0891 14.3854 24.0858C14.2212 24.059 13.5814 23.8948 13.5814 23.8948C13.7522 24.0992 13.8661 24.3437 13.9231 24.6016C13.6785 24.5581 13.4273 24.5581 13.1794 24.6016C13.434 24.7959 13.6517 25.0371 13.8125 25.3152C13.9063 25.5698 14.0437 25.811 14.2145 26.022C14.2882 26.0689 14.4993 26.3302 14.6433 26.4709C14.7874 26.6116 15.3501 26.5379 15.5411 26.5379C15.6918 26.5647 15.8359 26.6116 15.9732 26.6752C16.1541 26.903 16.3551 27.1107 16.5729 27.3017C16.3786 27.2213 16.201 27.1074 16.0503 26.96C15.9598 26.836 16.0637 27.3787 16.1709 27.5529C16.0268 27.5495 15.8828 27.5094 15.7588 27.4357C15.6014 27.3117 15.7387 27.8644 15.9096 28.0185C16.2747 28.3435 16.2412 28.3971 16.3015 28.4172C15.9933 28.4775 15.5645 28.5847 15.4339 28.5076C15.263 28.4138 15.6248 28.7455 15.8426 28.8259C16.1541 28.9431 16.1139 29.1441 16.4556 29.2546C16.7571 29.3853 17.0787 29.459 17.407 29.4724C17.5745 29.4154 17.7487 29.3719 17.9229 29.3417C18.1306 29.3183 18.479 29.0436 18.8776 28.9934C19.2528 29.2245 19.6347 29.4355 20.03 29.6298C20.0467 29.6365 20.0702 29.6466 20.0903 29.6566C20.0467 29.66 19.9998 29.6667 19.9563 29.6767C19.6749 29.7605 19.3801 29.7906 19.0853 29.7705C18.9546 29.7035 19.2327 30.0854 19.4069 30.2295C19.1456 30.2864 18.8776 30.3065 18.6096 30.2898C18.4187 30.2496 18.9915 30.799 19.2159 30.8592L19.2427 30.8659C19.102 30.9195 18.958 30.953 18.8072 30.9664C18.6096 30.953 19.4337 31.489 19.6581 31.4555C20.3783 31.355 21.0584 31.5996 21.3934 31.4622C21.6915 31.345 21.869 31.2646 22.0198 31.2177C22.1705 31.1641 22.2509 31.0267 22.3447 30.9597C22.4352 30.8425 22.5558 30.7453 22.6898 30.6817C22.7032 30.6884 22.7166 30.6918 22.73 30.6884C22.9846 30.7018 23.2358 30.7018 23.4904 30.6884C23.3765 30.7353 23.2727 30.799 23.1789 30.876C22.9176 30.9497 22.663 31.0401 22.4117 31.1406C21.9762 31.4254 21.5709 31.7604 21.2058 32.1322C21.2058 32.1322 21.8188 32.0853 21.9126 32.0853C22.0064 32.0853 22.2208 31.6632 22.3146 31.5895C22.3414 31.5694 22.4988 31.489 22.7266 31.3852C22.4921 31.7872 22.5725 32.2964 22.9176 32.6079C22.7534 32.4169 22.9377 32.0853 22.9377 32.0853L23.2727 32.2964C22.8539 31.5795 23.5004 31.1038 23.7148 30.9698C23.7383 30.9597 23.7584 30.953 23.7818 30.943C23.8421 31.0301 23.9393 31.0837 24.0465 31.087C24.147 31.0837 24.2408 31.0334 24.3011 30.953C24.3446 30.9698 24.3882 30.9865 24.4284 31.0033C24.6796 31.1708 25.2089 31.6331 24.8203 32.2964L25.1519 32.0853C25.1519 32.0853 25.3362 32.4169 25.172 32.6079C25.5104 32.3031 25.5941 31.8073 25.3764 31.4086C25.5774 31.5024 25.7147 31.5728 25.7382 31.5895C25.832 31.6632 26.0464 32.0853 26.1402 32.0853C26.234 32.0853 26.847 32.1322 26.847 32.1322C26.4819 31.757 26.0799 31.4254 25.641 31.1406C25.4099 31.0468 25.172 30.9631 24.9309 30.8927C24.8337 30.809 24.7198 30.7387 24.5992 30.6884C24.8538 30.7018 25.105 30.7018 25.3596 30.6884C25.363 30.6884 25.3697 30.6884 25.373 30.6884C25.5003 30.7588 25.6142 30.8492 25.708 30.9597C25.8018 31.0267 25.8856 31.1641 26.033 31.2177C26.1837 31.2646 26.3579 31.345 26.6594 31.4622C26.991 31.5996 27.6711 31.355 28.3946 31.4555C28.6191 31.489 29.4432 30.953 29.2455 30.9664C29.0981 30.953 28.9507 30.9195 28.81 30.8659L28.8368 30.8592C29.0613 30.799 29.6341 30.2462 29.4432 30.2898C29.1752 30.3065 28.9072 30.2898 28.6459 30.2295C28.8201 30.0854 29.0981 29.7035 28.9675 29.7705C28.6727 29.7906 28.3779 29.7571 28.0965 29.6767C28.053 29.6667 28.0061 29.66 27.9625 29.6566C27.986 29.6466 28.0061 29.6365 28.0228 29.6298C28.4181 29.4389 28.8033 29.2245 29.1785 28.9934C29.5772 29.0436 29.9255 29.3183 30.1332 29.3417C30.3074 29.3719 30.4816 29.4121 30.6491 29.4724C30.9774 29.459 31.299 29.3853 31.6005 29.2546C31.9388 29.1475 31.8986 28.9431 32.2135 28.8259C32.4313 28.7455 32.7931 28.4105 32.6222 28.5076C32.4916 28.5847 32.0628 28.4808 31.7546 28.4172C31.8115 28.3937 31.778 28.3435 32.1465 28.0185C32.3174 27.8611 32.4547 27.3117 32.2973 27.4357C32.1733 27.5094 32.0293 27.5495 31.8852 27.5529C31.9924 27.3754 32.0963 26.8327 32.0058 26.96C31.8551 27.1074 31.6775 27.2213 31.4833 27.3017C31.701 27.1141 31.902 26.903 32.0829 26.6752C32.2202 26.6116 32.3643 26.5647 32.515 26.5379C32.706 26.5379 33.2687 26.6116 33.4128 26.4709C33.5568 26.3302 33.7679 26.0689 33.8416 26.022C34.0124 25.8076 34.1464 25.5698 34.2436 25.3152C34.4044 25.0371 34.6188 24.7959 34.8767 24.6016C34.6322 24.5581 34.3809 24.5581 34.133 24.6016C34.1866 24.3437 34.3005 24.0992 34.468 23.8948C34.468 23.8948 33.8282 24.059 33.664 24.0858C33.4295 24.0858 33.2051 24.1796 33.0376 24.347C33.118 24.0757 33.1884 23.8245 33.2419 23.6201C33.252 23.5799 33.2654 23.5297 33.2821 23.466C33.3625 23.3488 33.4798 23.2583 33.6138 23.2148C34.0861 23.0573 34.5116 23.0238 34.6824 22.853C34.8465 22.6888 34.9403 22.575 35.0073 22.4979C35.1346 22.3539 35.2318 22.1864 35.2921 22.0021C35.3557 21.7542 35.4026 21.503 35.4328 21.2484L35.4294 21.2517ZM33.731 20.7962C33.7042 21.1211 33.6573 21.4427 33.5836 21.7576C33.5736 21.6236 33.5367 21.4929 33.4764 21.3723C33.4094 21.2283 33.3123 21.2283 33.2654 21.0876C33.2185 20.9469 33.0544 20.8967 32.9572 20.7794C32.8701 20.6856 32.773 20.5985 32.6725 20.5215C32.6055 20.8163 32.5887 21.1177 32.6256 21.4192C32.6423 21.4661 32.6557 21.513 32.6591 21.5599C32.5887 21.5331 32.5284 21.513 32.5284 21.513C32.4045 21.7911 32.5485 22.0758 32.5954 22.3338C32.639 22.451 32.6926 22.5616 32.7596 22.6687C32.8065 22.7625 32.7864 22.853 32.8333 22.9267C32.8768 22.987 32.9807 22.997 33.0879 23.0975C33.0879 23.2215 33.108 23.3488 33.1448 23.4694C33.0544 23.7742 32.9539 24.0824 32.8467 24.3906C32.8366 24.2733 32.7964 24.1628 32.7328 24.0623C32.639 23.9484 32.5686 23.8211 32.5217 23.6804C32.4279 23.4225 32.237 23.4225 32.2102 23.1645C32.17 23.3521 32.1398 23.5397 32.1231 23.7273C32.1063 23.8948 32.1231 24.0623 32.1633 24.2231C32.17 24.3303 32.1566 24.4375 32.1197 24.5413C32.1197 24.3973 32.0896 24.2566 32.0259 24.1293C31.979 24.0422 31.9623 23.9417 31.979 23.8446C31.8785 24.0188 31.7546 24.1796 31.6172 24.3236L31.5302 24.1762C32.7696 22.0055 32.4815 18.2938 32.4346 17.7846C32.6356 17.7411 32.5988 17.6406 32.5988 17.6406L32.5586 17.3994C32.5753 17.4128 32.5988 17.4228 32.6189 17.4295C32.6323 17.4329 32.649 17.4362 32.6624 17.4362C32.6926 17.4362 32.7194 17.4262 32.7462 17.4094C32.783 17.3826 32.8065 17.3424 32.8065 17.2989V17.2922C32.8735 17.3793 32.9606 17.4496 33.0611 17.4965C33.2319 17.5434 33.3726 17.6205 33.3927 17.6875C33.4999 18.133 33.5803 18.5819 33.6339 19.0375C33.4429 18.8231 33.396 18.4211 32.974 18.2067C32.984 18.3005 32.984 18.3976 32.974 18.4914C32.9472 18.612 32.9338 18.7393 32.9338 18.8633C32.8065 18.7795 32.6959 18.6723 32.6088 18.545C32.572 18.8465 32.6021 19.1547 32.7026 19.4428C32.8735 19.751 32.8735 19.9118 33.0577 19.9788C33.1616 20.0156 33.2587 20.0759 33.3424 20.1496C33.4262 20.2133 33.5233 20.2501 33.6272 20.2669C33.6506 20.2669 33.6741 20.2836 33.6875 20.3037C33.6975 20.3506 33.7109 20.4009 33.7243 20.4478C33.7277 20.5751 33.7277 20.6923 33.7243 20.7995L33.731 20.7962ZM17.2428 18.2402L18.4991 19.1246C18.4823 19.5969 18.5426 20.0659 18.6766 20.5181L17.6314 22.2668C17.4606 21.8916 17.0184 20.6655 17.2395 18.2402H17.2428ZM15.3032 17.2151C15.3501 17.1347 15.4305 17.0744 15.521 17.051C15.5277 17.1448 15.4975 17.2386 15.4372 17.3156C15.4205 17.3391 15.397 17.3558 15.3702 17.3659C15.3501 17.3726 15.3267 17.3692 15.3066 17.3558C15.2898 17.3424 15.2764 17.3223 15.2764 17.2989C15.2764 17.2687 15.2831 17.2386 15.3032 17.2151ZM19.4337 14.3041L20.4353 15.4062C20.4152 15.711 20.3716 16.659 20.6329 17.2553L19.7218 18.7762C19.504 18.334 19.0551 17.0309 19.4337 14.3007V14.3041ZM23.3363 13.5905C23.7785 13.5135 24.2341 13.5135 24.6763 13.5872L24.8203 13.825C24.2843 13.7078 23.7282 13.7111 23.1956 13.8317L23.3397 13.5905H23.3363ZM23.4502 13.3996L24.0063 12.4683L24.559 13.3962C24.1905 13.346 23.8153 13.3493 23.4468 13.3996H23.4502ZM23.0683 14.0394C23.6813 13.8686 24.3279 13.8652 24.9443 14.0327L25.0983 14.2907C24.3915 14.0461 23.621 14.0495 22.9142 14.3007L23.0683 14.0428V14.0394ZM22.7635 14.5452C23.554 14.2002 24.4485 14.1969 25.2424 14.5319L29.0881 20.957H27.6778C27.6141 20.9168 27.5505 20.8732 27.4935 20.8263C27.4734 20.8096 27.45 20.7928 27.4265 20.7761C27.3327 20.7158 27.2222 20.6923 27.1116 20.7158C27.0547 20.7292 26.9977 20.7493 26.9475 20.7761C26.8939 20.8029 26.847 20.8364 26.8001 20.8699C26.7967 20.8732 26.79 20.8799 26.7833 20.8799C26.7599 20.8699 26.7364 20.8598 26.713 20.8498C26.5891 20.7895 26.4718 20.7124 26.368 20.6253C26.3345 20.5952 26.2976 20.5717 26.2574 20.5483C26.1938 20.5148 26.1201 20.498 26.0464 20.498C25.9961 20.498 25.9459 20.5047 25.8956 20.5215C25.8253 20.5416 25.7616 20.5751 25.7013 20.6119C25.6611 20.6387 25.6209 20.6655 25.5841 20.6957C25.5807 20.699 25.5774 20.7057 25.5673 20.7057H25.5573C25.4869 20.6555 25.4099 20.6186 25.3328 20.5851C25.2625 20.555 25.1955 20.5215 25.1285 20.4813C25.0347 20.4243 24.9476 20.364 24.8672 20.2937C24.8371 20.2702 24.8069 20.2468 24.7734 20.2267C24.7064 20.1865 24.6294 20.163 24.549 20.1563C24.4954 20.153 24.4418 20.1563 24.3882 20.1664C24.3178 20.1831 24.2475 20.2066 24.1838 20.2434C24.1503 20.2635 24.1168 20.2836 24.0833 20.3071V18.0827C24.3178 18.0693 24.4987 17.9856 24.4987 17.8884C24.4987 17.7913 24.3279 17.1213 24.1034 16.9572C23.9661 16.8567 23.7785 16.8533 23.6378 16.9438C23.6378 16.9438 23.3464 17.1146 23.4937 17.3525C23.4937 17.3525 23.5239 17.4262 23.6545 17.3726C23.7081 17.3491 23.7483 17.3022 23.7584 17.2453V17.3022C23.755 17.386 23.6411 17.4295 23.6344 17.4329C23.5775 17.5803 23.5373 17.731 23.5172 17.8884C23.5172 17.9889 23.7014 18.0693 23.9359 18.0827V20.3406L23.9158 20.3272C23.8187 20.2669 23.7249 20.2032 23.6378 20.1295C23.6043 20.1027 23.5708 20.0793 23.5339 20.0558C23.4636 20.0156 23.3866 19.9888 23.3095 19.9821C23.2459 19.9754 23.1822 19.9821 23.1186 19.9922C23.0449 20.0089 22.9712 20.0357 22.9042 20.0726C22.8338 20.1094 22.7668 20.153 22.7032 20.2032C22.6998 20.2066 22.6931 20.2099 22.6864 20.2133L22.6697 20.2032C22.6395 20.1865 22.6127 20.1697 22.5826 20.153C22.5424 20.1295 22.4988 20.1094 22.4553 20.0927C22.3983 20.0726 22.3414 20.0458 22.2878 20.0156C22.1303 19.9319 21.9829 19.8314 21.8456 19.7175C21.8322 19.7074 21.8188 19.6974 21.8054 19.6873C21.7016 19.6069 21.5743 19.5567 21.4436 19.5433C21.4403 19.5433 21.4336 19.5433 21.4302 19.5399H21.3565C21.3565 19.5399 21.3465 19.5399 21.3398 19.5433C21.2527 19.55 21.1689 19.5701 21.0885 19.6036C20.9981 19.6404 20.911 19.6907 20.8272 19.7476C20.7368 19.8113 20.6497 19.885 20.5659 19.962C20.4621 20.0625 20.3649 20.1697 20.2745 20.2836C20.1874 20.3942 20.1037 20.5081 20.0266 20.6287C20.0233 20.6354 20.0199 20.6387 20.0132 20.6454C19.9563 20.7124 19.8993 20.7794 19.8357 20.8397C19.7988 20.8799 19.7553 20.9134 19.7151 20.9469H18.9312L22.7668 14.5319L22.7635 14.5452ZM28.2941 18.7762L27.383 17.2553C27.6443 16.659 27.6007 15.711 27.5806 15.4062L28.5822 14.3041C28.9608 17.0309 28.5119 18.334 28.2941 18.7795V18.7762ZM32.4916 17.0476C32.5854 17.0711 32.6624 17.1314 32.7127 17.2151C32.7294 17.2386 32.7361 17.2654 32.7361 17.2955C32.7361 17.319 32.7227 17.3391 32.706 17.3525C32.6859 17.3659 32.6624 17.3692 32.6423 17.3625C32.6155 17.3525 32.5887 17.3357 32.5753 17.3123C32.5184 17.2386 32.4882 17.1448 32.4949 17.051L32.4916 17.0476ZM30.3778 22.2601L29.3326 20.5148C29.47 20.0659 29.5303 19.5935 29.5102 19.1246L30.7664 18.2402C30.9875 20.6588 30.5486 21.8849 30.3744 22.2601H30.3778ZM16.8911 24.3638L17.8726 22.7257H29.7815C29.7815 22.7257 29.7715 22.719 29.7681 22.7156C29.748 22.7056 29.7279 22.6955 29.7078 22.6821C29.6375 22.6386 29.5705 22.5917 29.5068 22.5381C29.3896 22.4477 29.279 22.3472 29.1685 22.2467C29.011 22.0993 28.8603 21.9485 28.7095 21.7911C28.6124 21.6906 28.5152 21.5867 28.4214 21.4795C28.3812 21.4326 28.3377 21.3891 28.2941 21.3455C28.2138 21.2685 28.1267 21.2015 28.0329 21.1412C27.9927 21.1144 27.9491 21.0909 27.9056 21.0708H29.1584L31.1282 24.3604H16.8911V24.3638ZM18.8575 21.0742H19.5844C19.4437 21.1981 19.2963 21.312 19.1456 21.4159C19.1322 21.4259 19.1188 21.436 19.102 21.4427C19.0216 21.4929 18.9412 21.5465 18.8675 21.6035C18.7436 21.6973 18.6263 21.7978 18.5091 21.9016C18.3919 22.0055 18.2813 22.1127 18.1708 22.2199L18.8575 21.0708V21.0742ZM23.9761 20.6287C24.0029 20.6421 24.0297 20.6521 24.0599 20.6655C24.0934 20.6789 24.1235 20.6923 24.1537 20.7091C24.2374 20.756 24.3178 20.8096 24.3949 20.8665C24.5188 20.9637 24.6361 21.0742 24.7399 21.1948C24.9007 21.3757 25.0682 21.5532 25.2357 21.7274C25.306 21.7978 25.3764 21.8715 25.4467 21.9418C25.6243 22.1194 25.8085 22.2936 25.9995 22.4577L26.0363 22.4879L26.043 22.4946L25.1117 22.4979C25.1017 22.4979 25.0916 22.4979 25.0849 22.4879L25.0246 22.441C24.894 22.3405 24.7701 22.2333 24.6495 22.1227C24.5088 21.9954 24.3714 21.8681 24.2374 21.7341C23.9426 21.446 23.6579 21.1479 23.3799 20.8431C23.333 20.7895 23.2861 20.7359 23.2358 20.6823C23.1286 20.5684 23.0147 20.4645 22.8908 20.3674C22.8874 20.364 22.8807 20.3607 22.8774 20.3573L22.8841 20.3506C22.9444 20.3071 23.008 20.2736 23.075 20.2468C23.1119 20.2334 23.1521 20.2233 23.1923 20.2166C23.2626 20.2066 23.3363 20.2166 23.3999 20.2535C23.4301 20.2702 23.4602 20.2903 23.487 20.3104C23.5574 20.3707 23.6311 20.4243 23.7081 20.4746C23.7952 20.5315 23.8857 20.5818 23.9795 20.6253L23.9761 20.6287ZM27.728 21.2484C27.728 21.2484 27.7582 21.2618 27.7716 21.2685C27.8084 21.2819 27.8419 21.2986 27.8754 21.3187C27.9625 21.3723 28.0429 21.4326 28.12 21.503C28.1669 21.5465 28.2138 21.5934 28.2573 21.6437C28.3444 21.7408 28.4348 21.838 28.5253 21.9351C28.6057 22.0189 28.6894 22.106 28.7732 22.1897C28.8737 22.2936 28.9775 22.3907 29.0847 22.4845C29.0914 22.4879 29.0948 22.4946 29.0981 22.5013H29.0914H28.5755C28.5621 22.5013 28.5521 22.5013 28.542 22.4912C28.4449 22.4108 28.3511 22.3271 28.2573 22.2433C28.1635 22.1596 28.0764 22.0758 27.9893 21.9887C27.795 21.7978 27.6108 21.6035 27.4265 21.4025C27.3863 21.3589 27.3495 21.3187 27.3093 21.2752C27.2188 21.1814 27.1217 21.0976 27.0178 21.0239L27.0044 21.0139C27.0044 21.0139 27.0044 21.0106 27.0078 21.0072C27.0513 20.9771 27.0982 20.957 27.1485 20.9469C27.1987 20.9369 27.249 20.9469 27.2925 20.9704C27.3093 20.9804 27.326 20.9938 27.3428 21.0072C27.46 21.1043 27.5873 21.1847 27.7247 21.2484H27.728ZM27.0245 21.3154C27.0949 21.3757 27.1619 21.4427 27.2222 21.513C27.3562 21.6638 27.4935 21.8112 27.6342 21.9552C27.7615 22.0859 27.8888 22.2132 28.0228 22.3371C28.0764 22.3874 28.13 22.4343 28.1836 22.4845L28.197 22.4979C28.197 22.4979 28.1937 22.4979 28.1903 22.4979H27.4634C27.4634 22.4979 27.4567 22.4979 27.4533 22.4979C27.4433 22.4979 27.4366 22.4979 27.4299 22.4912C27.383 22.451 27.3327 22.4142 27.2858 22.3706C27.1485 22.2567 27.0178 22.1328 26.8872 22.0088C26.8135 21.9351 26.7364 21.8648 26.6627 21.7911C26.4685 21.5968 26.2809 21.3991 26.1 21.1981C26.0598 21.1546 26.0196 21.1077 25.976 21.0641C25.909 20.9938 25.8353 20.9268 25.7616 20.8665L25.7516 20.8565L25.7583 20.8498C25.8052 20.8129 25.8588 20.7828 25.9124 20.7593C25.9492 20.7459 25.9861 20.7359 26.0229 20.7325C26.0631 20.7325 26.1033 20.7392 26.1402 20.7593C26.1636 20.7727 26.1871 20.7895 26.2072 20.8062C26.3211 20.9 26.4417 20.9804 26.5723 21.0474C26.6092 21.0675 26.646 21.0809 26.6828 21.0976C26.7197 21.111 26.7532 21.1278 26.7867 21.1479C26.8704 21.1948 26.9475 21.2517 27.0212 21.3154H27.0245ZM25.8956 21.3087C25.9995 21.4259 26.1067 21.5398 26.2139 21.6537C26.311 21.7576 26.4082 21.8581 26.5087 21.9586C26.6795 22.1294 26.8537 22.2969 27.0346 22.4544C27.048 22.4678 27.0614 22.4778 27.0748 22.4912L27.0815 22.4979H27.0748H26.4216C26.4115 22.4979 26.4015 22.4979 26.3914 22.4879C26.3445 22.4477 26.2943 22.4108 26.2474 22.3706C26.0899 22.24 25.9392 22.1026 25.7951 21.9619C25.7181 21.8849 25.6377 21.8078 25.5606 21.7308C25.3529 21.5231 25.1519 21.3087 24.9543 21.0909C24.9074 21.0407 24.8639 20.9905 24.817 20.9402C24.6997 20.8163 24.5724 20.7057 24.4351 20.6086C24.3681 20.5617 24.3011 20.5215 24.2307 20.4846L24.2207 20.4779C24.2207 20.4779 24.2207 20.4746 24.224 20.4712C24.2843 20.4344 24.348 20.4042 24.4183 20.3875C24.4518 20.3808 24.4887 20.3774 24.5255 20.3808C24.5691 20.3841 24.6093 20.3975 24.6461 20.4176C24.6763 20.4344 24.7031 20.4511 24.7265 20.4746C24.8672 20.5918 25.0247 20.6923 25.1888 20.7694C25.2122 20.7794 25.2357 20.7895 25.2591 20.7995C25.2993 20.8163 25.3395 20.8364 25.3797 20.8565C25.4668 20.9067 25.5506 20.967 25.6276 21.0307C25.7248 21.111 25.8152 21.2015 25.899 21.2953L25.8956 21.3087ZM22.9879 20.766C23.0516 20.8297 23.1119 20.8967 23.1722 20.9637C23.2392 21.0374 23.3062 21.111 23.3731 21.1847C23.4971 21.3154 23.6177 21.446 23.745 21.5733C23.9694 21.8011 24.1972 22.0256 24.4351 22.2433C24.5255 22.3271 24.6193 22.4075 24.7131 22.4845L24.7299 22.4979H18.221C18.221 22.4979 18.221 22.4879 18.2244 22.4879C18.2545 22.4577 18.2847 22.4276 18.3148 22.3974C18.412 22.3003 18.5125 22.2065 18.6129 22.116C18.7369 22.0055 18.8608 21.8983 18.9915 21.7978C19.0685 21.7375 19.1523 21.6805 19.236 21.6303C19.2595 21.6169 19.2829 21.6001 19.3064 21.5834C19.5141 21.4393 19.7084 21.2819 19.8926 21.1077C19.9965 21.0106 20.097 20.9034 20.1874 20.7928C20.1941 20.7861 20.2008 20.7794 20.2041 20.7694C20.2812 20.6488 20.3649 20.5315 20.4554 20.4176C20.5291 20.3272 20.6061 20.2434 20.6865 20.1597C20.7703 20.0759 20.8641 19.9989 20.9612 19.9285C21.0249 19.885 21.0952 19.8481 21.1689 19.818C21.2192 19.7979 21.2694 19.7845 21.323 19.7778C21.4135 19.7677 21.5039 19.7845 21.5843 19.828C21.6178 19.8481 21.6513 19.8716 21.6848 19.895C21.7585 19.9553 21.8322 20.0123 21.9126 20.0659C22.003 20.1295 22.1002 20.1831 22.1973 20.2334C22.2509 20.2602 22.3045 20.2836 22.3581 20.3037C22.395 20.3171 22.4285 20.3339 22.462 20.354C22.5524 20.4042 22.6395 20.4612 22.7233 20.5248C22.8171 20.5985 22.9075 20.6756 22.9913 20.7593L22.9879 20.766ZM21.5207 24.7959C21.8355 25.0304 22.1906 25.2013 22.5692 25.3018C22.3179 25.3788 20.6798 25.811 19.2796 24.7959H21.5207ZM23.755 26.1258C23.755 26.1258 23.9125 25.3118 23.9996 24.7959C24.09 25.3085 24.2441 26.1258 24.2441 26.1258C24.281 26.4039 24.1905 26.6819 23.9996 26.8863C23.8086 26.6819 23.7182 26.4039 23.755 26.1258ZM26.4852 24.7959H28.7263C27.326 25.811 25.6879 25.3788 25.4367 25.3018C25.8152 25.2013 26.1703 25.0271 26.4852 24.7926V24.7959ZM32.1867 16.7662C32.1666 16.7394 32.1599 16.7093 32.1633 16.6791C32.1633 16.6624 32.1733 16.649 32.1867 16.6356C32.1934 16.6423 32.2001 16.6456 32.2068 16.6523C32.2872 16.7026 32.3542 16.7696 32.4045 16.85C32.4112 16.8768 32.4112 16.9069 32.4045 16.9337C32.314 16.9069 32.2336 16.8466 32.1834 16.7662H32.1867ZM30.4247 12.8435C30.3845 12.877 30.3208 12.8737 30.2873 12.8301C30.2203 12.7732 30.1734 12.6928 30.1533 12.6057C30.1533 12.6023 30.16 12.5956 30.16 12.5923C30.2505 12.599 30.3376 12.6392 30.3979 12.7062C30.4381 12.7363 30.4481 12.7966 30.4213 12.8402L30.4247 12.8435ZM30.2371 12.2003L30.4883 12.1132L30.428 12.3712L30.227 12.4013L30.2371 12.197V12.2003ZM29.7681 12.2506C29.7681 12.2506 29.8016 12.2271 29.8217 12.2271C29.8519 12.2271 29.882 12.2405 29.9054 12.264C29.9724 12.3176 30.0193 12.3946 30.0361 12.4817C30.0193 12.4817 30.0059 12.4817 29.9925 12.4951C29.9155 12.4784 29.8452 12.4415 29.7882 12.3879C29.7447 12.3578 29.7313 12.2975 29.7614 12.2506H29.7681ZM24.3111 9.20886C24.3111 9.20886 24.3279 9.20886 24.3379 9.20886C24.3848 9.19546 24.4317 9.22561 24.4418 9.27251C24.4518 9.31941 24.425 9.36631 24.3781 9.37636C24.3647 9.37971 24.348 9.37971 24.3346 9.37636C24.2408 9.37971 24.147 9.34956 24.0733 9.29261C24.1369 9.23566 24.2207 9.20216 24.3078 9.20551L24.3111 9.20886ZM24.0029 8.70973L24.1336 8.94422L24.0063 9.10167L23.8756 8.94422L24.0029 8.70973ZM23.6679 9.37971C23.6378 9.37971 23.6043 9.36966 23.5842 9.34621C23.5574 9.32276 23.554 9.27921 23.5775 9.24906C23.5775 9.24906 23.5808 9.24571 23.5842 9.24236C23.6076 9.21891 23.6411 9.20886 23.6746 9.20886C23.7684 9.19881 23.8622 9.22896 23.9326 9.29261C23.8589 9.35291 23.7617 9.37971 23.6679 9.37636V9.37971ZM23.9426 10.9341C24.0599 10.7364 24.1503 10.522 24.2039 10.3009C24.291 10.8068 24.2609 11.326 24.1168 11.8184L23.9962 11.6174L23.6009 12.2774C23.5641 11.805 23.6813 11.3327 23.9393 10.9341H23.9426ZM18.0971 12.2606C18.1205 12.2372 18.1507 12.2271 18.1808 12.2271C18.2009 12.2271 18.2177 12.2372 18.2311 12.2506C18.2445 12.264 18.2512 12.2841 18.2478 12.3042C18.2478 12.3377 18.2311 12.3678 18.2043 12.3879C18.1406 12.4516 18.0569 12.4918 17.9664 12.5018H17.953C17.9631 12.4047 18.0133 12.3176 18.0904 12.2606H18.0971ZM17.5108 12.1166L17.7621 12.2037L17.7721 12.408L17.5711 12.3779L17.5108 12.1199V12.1166ZM17.6281 12.8703C17.608 12.8703 17.5912 12.8636 17.5778 12.8469C17.5644 12.8335 17.5577 12.8134 17.5611 12.7933C17.5611 12.7598 17.5778 12.7296 17.6046 12.7095C17.6649 12.6459 17.7487 12.6057 17.8358 12.5956H17.8525C17.8358 12.6894 17.7889 12.7732 17.7152 12.8335C17.6917 12.8569 17.6616 12.867 17.6281 12.8636V12.8703ZM15.8158 16.7696C15.7655 16.85 15.6885 16.9069 15.598 16.9337C15.5947 16.9069 15.5947 16.8801 15.598 16.8533C15.6516 16.7729 15.7186 16.7026 15.799 16.6523C15.8057 16.649 15.8124 16.6423 15.8158 16.6389C15.8292 16.6523 15.8359 16.6691 15.8392 16.6892C15.8392 16.7193 15.8325 16.7461 15.8158 16.7696ZM14.2815 20.4478C14.2983 20.4009 14.3083 20.354 14.3184 20.3037C14.3318 20.2836 14.3552 20.2702 14.3787 20.2669C14.4825 20.2535 14.5797 20.2133 14.6634 20.1496C14.7472 20.0759 14.8443 20.019 14.9482 19.9788C15.1324 19.9118 15.1324 19.7476 15.3032 19.4428C15.4037 19.1547 15.4372 18.8465 15.397 18.545C15.3099 18.6723 15.2028 18.7795 15.0755 18.8633C15.0755 18.7393 15.0621 18.6154 15.0353 18.4914C15.0252 18.3976 15.0252 18.3005 15.0353 18.2067C14.6132 18.4244 14.5663 18.8264 14.3753 19.0375C14.4289 18.5852 14.5093 18.1363 14.6165 17.6908C14.6366 17.6238 14.7807 17.5468 14.9482 17.4999C15.0453 17.453 15.1291 17.386 15.1961 17.3022C15.1961 17.3491 15.2195 17.3893 15.2564 17.4161C15.2798 17.4329 15.3099 17.4429 15.3401 17.4429C15.3535 17.4429 15.3702 17.4429 15.3836 17.4362C15.4071 17.4295 15.4272 17.4195 15.4439 17.4061L15.4037 17.6473C15.4037 17.6473 15.3702 17.7511 15.5679 17.7913C15.521 18.3005 15.2296 22.0155 16.4757 24.1863L16.3886 24.3303C16.2479 24.1863 16.1273 24.0255 16.0268 23.8513C16.0436 23.9484 16.0268 24.0489 15.9799 24.136C15.9163 24.2633 15.8861 24.404 15.8861 24.548C15.8526 24.4475 15.8392 24.337 15.8426 24.2298C15.8861 24.069 15.8995 23.9015 15.8828 23.734C15.866 23.5431 15.8359 23.3555 15.7957 23.1712C15.7689 23.4292 15.5779 23.4292 15.4841 23.6871C15.4372 23.8278 15.3669 23.9551 15.2731 24.069C15.2095 24.1662 15.1693 24.2801 15.1592 24.3973C15.052 24.0891 14.9515 23.7776 14.8611 23.4761C14.8979 23.3555 14.918 23.2315 14.918 23.1042C15.0252 23.0071 15.1291 22.997 15.1726 22.9334C15.2195 22.8597 15.1994 22.7692 15.2463 22.6755C15.3133 22.5716 15.3669 22.4577 15.4104 22.3405C15.4573 22.0825 15.6014 21.7978 15.4774 21.5197C15.4774 21.5197 15.4171 21.5398 15.3468 21.5666C15.3535 21.5197 15.3635 21.4695 15.3803 21.4259C15.4171 21.1278 15.4004 20.823 15.3334 20.5282C15.2296 20.6052 15.1358 20.6923 15.0487 20.7861C14.9549 20.9034 14.7907 20.9503 14.7405 21.0943C14.6902 21.2383 14.5964 21.2383 14.5294 21.379C14.4691 21.4996 14.4323 21.6303 14.4222 21.7643C14.3485 21.446 14.3016 21.1244 14.2748 20.8029C14.2748 20.6957 14.2748 20.5751 14.2748 20.4511L14.2815 20.4478ZM24.9577 30.2462C24.7466 30.2462 24.5356 30.2998 24.348 30.4003C24.348 30.3936 24.3413 30.3869 24.3413 30.3802C24.5892 29.9581 24.8672 29.5561 25.1687 29.1709C25.3094 29.5394 25.2256 29.9581 24.9577 30.2462ZM23.6914 30.4003C23.5038 30.2998 23.2961 30.2496 23.0817 30.2462C22.8137 29.9581 22.73 29.5394 22.8707 29.1709C23.1722 29.5561 23.4502 29.9615 23.6981 30.3802C23.6981 30.3869 23.6947 30.3936 23.6914 30.4003ZM30.9741 27.4156C30.9875 27.3955 30.9975 27.372 31.0042 27.3452C31.0578 27.2012 31.0913 27.0504 31.098 26.8963C31.0712 26.7054 31.0243 26.5144 30.954 26.3335C30.887 26.1627 30.7228 25.7708 30.552 25.6937C30.552 25.6937 30.4146 26.1426 30.3677 26.3067C30.3376 26.4642 30.2806 26.6183 30.1969 26.7556C30.16 26.8126 30.1232 26.8729 30.093 26.9365C30.083 26.8327 30.0863 26.7255 30.1031 26.6216C30.1299 26.3101 29.6341 25.821 29.6341 25.821C29.6241 26.1057 29.5403 26.3804 29.3963 26.6216C29.2623 26.826 29.1752 27.0571 29.1383 27.3017C29.1216 27.4658 29.0546 27.6232 28.9474 27.7505C28.8067 27.9415 28.9641 28.7488 28.9809 28.8426C28.666 29.0369 28.3343 29.2278 28.0295 29.3819C27.9391 29.4288 27.8319 29.4724 27.7213 29.5226C27.7414 29.5025 27.7649 29.4858 27.785 29.4657C28.0061 29.2714 28.1669 29.0202 28.254 28.7388C28.4013 28.712 28.0563 28.6751 27.8553 28.6952C27.9726 28.5177 28.1334 28.2731 28.2473 28.0654C28.3343 27.8946 27.4868 28.119 27.4868 28.119C27.3964 28.1559 27.3227 28.1827 27.259 28.2061C27.3227 28.0118 27.3662 27.8108 27.3964 27.6098C27.3897 27.5428 27.0346 27.6567 26.7498 27.7807C26.5388 27.908 26.3378 28.0487 26.1502 28.2095C25.899 28.3736 25.8655 28.779 25.7482 28.9699C25.6879 29.0704 25.6377 29.1776 25.6008 29.2881C25.6008 29.1609 25.5405 29.0403 25.4333 28.9733H25.4233C25.4233 28.9733 25.4166 28.9632 25.4099 28.9632C25.3931 28.9565 25.3797 28.9532 25.363 28.9498C25.3094 28.9364 25.2223 28.923 25.0816 28.9096C24.8337 28.8594 24.5825 28.9632 24.4418 29.1742C24.3145 29.4992 24.2106 29.8342 24.1302 30.1725C24.0967 30.1591 24.0565 30.1491 24.0197 30.1491C23.9828 30.1491 23.946 30.1591 23.9091 30.1725C23.8287 29.8342 23.7249 29.4992 23.5976 29.1742C23.4602 28.9632 23.2057 28.8594 22.9578 28.9096C22.8171 28.9264 22.73 28.9398 22.6764 28.9498C22.6596 28.9498 22.6429 28.9565 22.6295 28.9632H22.6161L22.606 28.9733C22.5189 29.0168 22.4352 29.1341 22.4318 29.4121C22.405 29.2546 22.3447 29.1039 22.2543 28.9733C22.137 28.7823 22.1035 28.3736 21.8523 28.2128C21.6647 28.052 21.4671 27.908 21.2527 27.784C20.9679 27.6601 20.6128 27.5462 20.6061 27.6132C20.6363 27.8142 20.6798 28.0152 20.7435 28.2095C20.6832 28.186 20.6095 28.1592 20.5157 28.1224C20.5157 28.1224 19.6648 27.8979 19.7553 28.0688C19.8692 28.2765 20.03 28.521 20.1472 28.6986C19.9462 28.6818 19.6012 28.7187 19.7486 28.7421C19.8357 29.0235 19.9998 29.2747 20.2175 29.469C20.2376 29.4891 20.2611 29.5059 20.2812 29.526C20.1673 29.4791 20.0635 29.4322 19.973 29.3853C19.6648 29.2312 19.3365 29.0403 19.0216 28.846C19.0417 28.7555 19.1992 27.9482 19.0585 27.7539C18.9513 27.6266 18.8843 27.4692 18.8675 27.305C18.8307 27.0638 18.7436 26.8293 18.6096 26.625C18.4656 26.3804 18.3818 26.1057 18.3718 25.8244C18.3718 25.8244 17.876 26.3134 17.9028 26.625C17.9195 26.7288 17.9229 26.836 17.9128 26.9399C17.8827 26.8796 17.8458 26.8193 17.809 26.759C17.7286 26.6216 17.6683 26.4675 17.6381 26.3101C17.5912 26.1459 17.4539 25.6971 17.4539 25.6971C17.283 25.7708 17.1189 26.166 17.0519 26.3369C16.9849 26.5178 16.938 26.7087 16.9078 26.8997C16.9145 27.0538 16.948 27.2045 17.0016 27.3486C17.0083 27.372 17.0184 27.3955 17.0318 27.4189C16.6667 27.161 16.3518 26.8394 16.1005 26.4675C16.1106 26.3771 16.1441 26.29 16.201 26.2196C16.3518 26.0622 16.469 25.878 16.5561 25.677C16.5796 25.5363 16.5796 25.3889 16.5561 25.2482C16.5695 25.1075 16.593 24.9668 16.6231 24.8261L16.6164 24.7993H17.0117C17.7185 25.3219 20.2544 26.9198 23.2392 25.6167C23.2291 25.6535 23.2124 25.6904 23.1923 25.7239C23.1923 25.7239 22.5524 26.5948 23.9996 26.8896C25.4501 26.5948 24.8069 25.7239 24.8069 25.7239C24.7868 25.6904 24.7701 25.6535 24.76 25.6167C27.7448 26.9231 30.284 25.3185 30.9908 24.7993H31.3928L31.3861 24.8261C31.4163 24.9668 31.4397 25.1075 31.4531 25.2482C31.4297 25.3889 31.4297 25.5363 31.4531 25.677C31.5368 25.878 31.6574 26.0622 31.8082 26.2196C31.8651 26.29 31.8986 26.3771 31.9087 26.4675C31.6541 26.836 31.3392 27.1576 30.9741 27.4156Z" fill="#041E5F"/>
<path id="Trazado_762" d="M28.6685 28.226C28.5914 28.226 28.5278 28.283 28.5244 28.36C28.5244 28.4371 28.5847 28.5007 28.6618 28.504C28.6618 28.504 28.6651 28.504 28.6685 28.504C28.7455 28.504 28.8092 28.4404 28.8125 28.36C28.8125 28.283 28.7455 28.2227 28.6685 28.2227V28.226Z" fill="#041E5F"/>
<path id="Trazado_763" d="M29.4731 29.2109C29.3961 29.2109 29.3325 29.2746 29.3291 29.355C29.3291 29.432 29.3894 29.4957 29.4664 29.499C29.4664 29.499 29.4698 29.499 29.4731 29.499C29.5502 29.499 29.6172 29.4354 29.6172 29.355C29.6172 29.2779 29.5535 29.2143 29.4731 29.2109Z" fill="#041E5F"/>
<path id="Trazado_764" d="M31.3355 26.0986C31.2584 26.0986 31.1948 26.1623 31.1914 26.2427C31.1914 26.3197 31.2551 26.3834 31.3355 26.3867C31.4125 26.3867 31.4795 26.3231 31.4795 26.2427C31.4795 26.1656 31.4192 26.102 31.3422 26.0986C31.3422 26.0986 31.3388 26.0986 31.3355 26.0986Z" fill="#041E5F"/>
<path id="Trazado_765" d="M32.3369 26.8059C32.3369 26.893 32.4073 26.96 32.4944 26.9633C32.5781 26.9633 32.6485 26.8963 32.6518 26.8126C32.6518 26.8126 32.6518 26.8092 32.6518 26.8059C32.6518 26.7188 32.5815 26.6518 32.4944 26.6484C32.4106 26.6518 32.3403 26.7188 32.3369 26.8059Z" fill="#041E5F"/>
<path id="Trazado_766" d="M32.7024 23.4663C32.7861 23.4663 32.8565 23.3993 32.8598 23.3155C32.8598 23.3155 32.8598 23.3122 32.8598 23.3088C32.8598 23.2217 32.7895 23.1547 32.7024 23.1514C32.6186 23.1514 32.5483 23.2217 32.5449 23.3088C32.5449 23.3959 32.6153 23.4629 32.7024 23.4663Z" fill="#041E5F"/>
<path id="Trazado_767" d="M33.178 20.3271C33.0942 20.3271 33.0239 20.3908 33.0205 20.4779C33.0205 20.4779 33.0205 20.4812 33.0205 20.4846C33.0239 20.5717 33.0976 20.6387 33.1847 20.6353C33.265 20.632 33.332 20.5683 33.3354 20.4846C33.3354 20.4008 33.2684 20.3305 33.1847 20.3271C33.1847 20.3271 33.1813 20.3271 33.178 20.3271Z" fill="#041E5F"/>
<path id="Trazado_768" d="M34.0486 17.7779C34.1324 17.7779 34.2027 17.7109 34.2027 17.6238C34.2027 17.5367 34.1357 17.4697 34.0486 17.4697C33.9615 17.4697 33.8945 17.5367 33.8945 17.6238C33.8945 17.7109 33.9615 17.7779 34.0486 17.7779Z" fill="#041E5F"/>
<path id="Trazado_769" d="M32.9397 18.0629C33.0234 18.0629 33.0938 17.9959 33.0971 17.9122C33.0971 17.9122 33.0971 17.9088 33.0971 17.9055C33.0971 17.8184 33.0268 17.748 32.9397 17.748C32.8526 17.748 32.7822 17.8184 32.7822 17.9055C32.7822 17.9892 32.8492 18.0596 32.933 18.0629C32.933 18.0629 32.9363 18.0629 32.9397 18.0629Z" fill="#041E5F"/>
<path id="Trazado_770" d="M32.0088 15.5199C32.0088 15.4361 31.9385 15.3691 31.8514 15.3691C31.7676 15.3691 31.6973 15.4361 31.6973 15.5232C31.6973 15.6103 31.7643 15.6773 31.8514 15.6773C31.9351 15.6773 32.0055 15.6103 32.0088 15.5266C32.0088 15.5266 32.0088 15.5232 32.0088 15.5199Z" fill="#041E5F"/>
<path id="Trazado_771" d="M32.6819 15.0173C32.7656 15.0173 32.836 14.9536 32.8393 14.8666C32.8393 14.8666 32.8393 14.8632 32.8393 14.8599C32.836 14.7728 32.7623 14.7058 32.6752 14.7091C32.5948 14.7125 32.5278 14.7761 32.5244 14.8599C32.5244 14.9436 32.5881 15.0139 32.6752 15.0173C32.6752 15.0173 32.6785 15.0173 32.6819 15.0173Z" fill="#041E5F"/>
<path id="Trazado_772" d="M34.2471 20.5111C34.2471 20.5948 34.3208 20.6618 34.4045 20.6618C34.4883 20.6618 34.5553 20.5948 34.5553 20.5111C34.5553 20.4273 34.4883 20.3604 34.4045 20.3604C34.3208 20.3604 34.2504 20.4273 34.2471 20.5111Z" fill="#041E5F"/>
<path id="Trazado_773" d="M19.353 28.2266C19.276 28.2266 19.2123 28.2869 19.209 28.3639C19.209 28.441 19.2726 28.5046 19.353 28.508C19.4301 28.508 19.4937 28.4477 19.4971 28.3706C19.4971 28.3706 19.4971 28.3673 19.4971 28.3639C19.4971 28.2869 19.4334 28.2266 19.3564 28.2266H19.353Z" fill="#041E5F"/>
<path id="Trazado_774" d="M18.6934 29.355C18.6934 29.2779 18.6297 29.2109 18.5493 29.2109C18.4723 29.2109 18.4086 29.2746 18.4053 29.355C18.4053 29.432 18.4689 29.4957 18.5493 29.499C18.6264 29.499 18.69 29.4387 18.6934 29.3617C18.6934 29.3617 18.6934 29.3583 18.6934 29.355Z" fill="#041E5F"/>
<path id="Trazado_775" d="M16.687 26.0986C16.61 26.0986 16.5463 26.1589 16.543 26.236C16.543 26.236 16.543 26.2393 16.543 26.2427C16.543 26.3197 16.6066 26.3834 16.687 26.3867C16.7641 26.3867 16.8277 26.3231 16.8311 26.2427C16.8311 26.1656 16.7674 26.102 16.687 26.0986Z" fill="#041E5F"/>
<path id="Trazado_776" d="M15.5276 26.9604C15.6147 26.9604 15.6817 26.8901 15.685 26.803C15.6817 26.7192 15.6147 26.6489 15.5276 26.6455C15.4405 26.6455 15.3735 26.7159 15.3701 26.803C15.3701 26.8867 15.4338 26.957 15.5209 26.9604C15.5209 26.9604 15.5242 26.9604 15.5276 26.9604Z" fill="#041E5F"/>
<path id="Trazado_777" d="M15.3196 23.1543C15.2325 23.1543 15.1655 23.2246 15.1621 23.3117C15.1621 23.3955 15.2291 23.4658 15.3129 23.4692C15.3129 23.4692 15.3162 23.4692 15.3196 23.4692C15.4067 23.4692 15.4737 23.3988 15.477 23.3117C15.477 23.228 15.4067 23.1576 15.3196 23.1543Z" fill="#041E5F"/>
<path id="Trazado_778" d="M14.5024 23.5969C14.5024 23.5132 14.4354 23.4428 14.3516 23.4395C14.3516 23.4395 14.3483 23.4395 14.3449 23.4395C14.2578 23.4395 14.1875 23.5098 14.1875 23.5969C14.1875 23.684 14.2578 23.7543 14.3449 23.7543C14.4287 23.7543 14.499 23.6873 14.5024 23.6036C14.5024 23.6036 14.5024 23.6002 14.5024 23.5969Z" fill="#041E5F"/>
<path id="Trazado_779" d="M14.841 20.6384C14.9281 20.6384 14.9951 20.568 14.9985 20.4809C14.9951 20.3938 14.9214 20.3268 14.8343 20.3302C14.7539 20.3335 14.6869 20.3972 14.6836 20.4809C14.6836 20.568 14.7539 20.635 14.841 20.6384Z" fill="#041E5F"/>
<path id="Trazado_780" d="M13.9725 17.7779C14.0562 17.7779 14.1265 17.7109 14.1265 17.6238C14.1265 17.5367 14.0596 17.4697 13.9725 17.4697C13.8854 17.4697 13.8184 17.5367 13.8184 17.6238C13.8184 17.7109 13.8854 17.7779 13.9725 17.7779Z" fill="#041E5F"/>
<path id="Trazado_781" d="M15.0823 17.751C14.9952 17.751 14.9282 17.8213 14.9248 17.9084C14.9248 17.9955 14.9952 18.0659 15.0823 18.0659C15.1693 18.0659 15.2363 17.9955 15.2397 17.9084C15.2397 17.8213 15.1693 17.7543 15.0823 17.751Z" fill="#041E5F"/>
<path id="Trazado_782" d="M16.0127 15.5199C16.0127 15.6036 16.0797 15.674 16.1634 15.6773C16.1634 15.6773 16.1668 15.6773 16.1701 15.6773C16.2539 15.6773 16.3242 15.6103 16.3242 15.5232C16.3242 15.4361 16.2572 15.3691 16.1701 15.3691C16.0864 15.3691 16.016 15.4361 16.0127 15.5199Z" fill="#041E5F"/>
<path id="Trazado_783" d="M15.3401 15.0173C15.4238 15.0173 15.4942 14.9536 15.4975 14.8666C15.4975 14.8666 15.4975 14.8632 15.4975 14.8599C15.4942 14.7728 15.4205 14.7058 15.3334 14.7091C15.253 14.7125 15.186 14.7761 15.1826 14.8599C15.1826 14.9436 15.2463 15.0139 15.3334 15.0173C15.3334 15.0173 15.3367 15.0173 15.3401 15.0173Z" fill="#041E5F"/>
<path id="Trazado_784" d="M13.775 20.5111C13.775 20.4273 13.7046 20.3604 13.6175 20.3604C13.5338 20.3604 13.4668 20.4273 13.4668 20.5111C13.4668 20.5948 13.5338 20.6618 13.6175 20.6618C13.7013 20.6618 13.7716 20.5982 13.775 20.5111Z" fill="#041E5F"/>
<path id="Trazado_785" d="M22.1705 18.3204C22.2375 18.307 22.2576 18.3271 22.2877 18.3874L22.3279 18.374L22.2877 18.2802L22.5591 18.163L22.5323 18.1094L22.1504 18.2802L22.1705 18.3204Z" fill="#041E5F"/>
<path id="Trazado_786" d="M22.0829 17.8312L22.0293 17.8379L22.0762 18.0489L22.3073 18.0288L22.3006 17.9886C22.2705 17.9786 22.247 17.9518 22.2403 17.9216C22.2303 17.8714 22.2604 17.8245 22.3073 17.8144C22.3509 17.7977 22.4011 17.8211 22.4179 17.8647C22.4179 17.868 22.4179 17.8714 22.4212 17.8747C22.438 17.9116 22.4212 17.9551 22.3844 17.9719C22.381 17.9719 22.3777 17.9719 22.371 17.9752L22.3844 18.0288C22.448 18.0087 22.4849 17.9417 22.4681 17.8781C22.4681 17.8781 22.4681 17.8781 22.4681 17.8747C22.4581 17.7977 22.3877 17.7441 22.314 17.7541C22.3073 17.7541 22.3006 17.7541 22.2906 17.7575C22.2202 17.7709 22.1733 17.8379 22.1867 17.9116C22.1867 17.9149 22.1867 17.9183 22.1867 17.9216C22.1934 17.9518 22.2102 17.9786 22.2336 17.9953L22.1164 18.002L22.0762 17.8312H22.0829Z" fill="#041E5F"/>
<path id="Trazado_787" d="M22.1032 17.4928C22.1769 17.4995 22.197 17.4392 22.2104 17.4124L22.2372 17.3253C22.2573 17.2583 22.2707 17.2382 22.3176 17.2449C22.3779 17.2516 22.3846 17.3186 22.3779 17.3621C22.3712 17.4157 22.3444 17.4794 22.2707 17.4693L22.264 17.5229C22.3042 17.5296 22.3478 17.5196 22.3813 17.4894C22.4114 17.4559 22.4281 17.4124 22.4281 17.3655C22.4348 17.2918 22.4148 17.1946 22.3109 17.1879C22.2573 17.1779 22.2037 17.2147 22.1937 17.2683L22.1535 17.3923C22.1468 17.4191 22.12 17.4392 22.0932 17.4392C22.0329 17.4325 22.0262 17.3722 22.0329 17.332C22.0295 17.2817 22.0664 17.2415 22.1133 17.2382C22.1166 17.2382 22.1233 17.2382 22.1267 17.2382V17.1846C22.0798 17.1846 21.9893 17.1913 21.9759 17.342C21.9625 17.4124 22.0094 17.4827 22.0831 17.4961C22.0898 17.4961 22.0932 17.4961 22.0999 17.4961L22.1032 17.4928Z" fill="#041E5F"/>
<path id="Trazado_788" d="M22.5455 16.8402L22.4986 16.8268L22.4182 17.0713L22.2808 17.0244L22.3545 16.8067L22.3076 16.7866L22.2339 17.011L22.11 16.9708L22.1904 16.733L22.1368 16.7129L22.043 17.011L22.4517 17.1417L22.5488 16.8402H22.5455Z" fill="#041E5F"/>
<path id="Trazado_789" d="M22.6054 16.746L22.4479 16.6489L22.5149 16.535C22.5551 16.478 22.5417 16.401 22.4881 16.3608C22.4848 16.3608 22.4814 16.3541 22.4781 16.3541C22.4513 16.3373 22.4211 16.3306 22.391 16.3407C22.3575 16.3507 22.3273 16.3742 22.3072 16.4043L22.2168 16.5651L22.5752 16.7895L22.6087 16.746H22.6054ZM22.2871 16.5417L22.3508 16.4445C22.3608 16.4211 22.3876 16.4043 22.4144 16.4043C22.4245 16.4043 22.4345 16.411 22.4446 16.4177C22.4848 16.4445 22.4881 16.478 22.458 16.5216L22.4044 16.6087L22.2871 16.5417Z" fill="#041E5F"/>
<path id="Trazado_790" d="M22.5788 16.1467L22.8501 16.4047L22.8836 16.3645L22.619 16.1065L22.7194 15.9993L22.6792 15.9658L22.4414 16.2171L22.4749 16.2506L22.5754 16.1501L22.5788 16.1467Z" fill="#041E5F"/>
<path id="Trazado_791" d="M23.0745 16.2069L22.8166 15.8652L22.7764 15.8987L23.0276 16.2404L23.0745 16.2069Z" fill="#041E5F"/>
<path id="Trazado_792" d="M23.4235 16.0027L23.4034 15.9625L23.1723 16.0797L23.112 15.9558L23.3163 15.8486L23.2962 15.8017L23.0852 15.9089L23.0249 15.795L23.2493 15.6778L23.2292 15.6309L22.9512 15.7749L23.1488 16.1568L23.4269 16.006L23.4235 16.0027Z" fill="#041E5F"/>
<path id="Trazado_793" d="M23.5234 15.9753L23.4698 15.724C23.4564 15.6905 23.4463 15.657 23.443 15.6235L23.6406 15.9485L23.6942 15.9351L23.7344 15.5632C23.7445 15.5967 23.7512 15.6302 23.7545 15.6637L23.8081 15.9083L23.8617 15.9016L23.7746 15.4795L23.6942 15.4996L23.654 15.8815L23.4564 15.5565L23.376 15.5699L23.4698 15.9853L23.5234 15.9786V15.9753Z" fill="#041E5F"/>
<path id="Trazado_794" d="M24.1135 15.9049C24.2073 15.9116 24.2676 15.8614 24.2676 15.791C24.2743 15.7408 24.2408 15.6972 24.1939 15.6838C24.2308 15.6704 24.2542 15.6336 24.2542 15.5967C24.2609 15.5364 24.2241 15.4862 24.1403 15.4795H23.9527L23.9326 15.9016L24.1135 15.9083V15.9049ZM24.0164 15.5331L24.1068 15.5431C24.1671 15.5431 24.1906 15.5599 24.1906 15.6001C24.1839 15.647 24.1571 15.6604 24.1035 15.6537H24.0063L24.0164 15.5331ZM24.1068 15.7207C24.147 15.7207 24.1939 15.7341 24.1939 15.7877C24.1939 15.8279 24.1604 15.858 24.1068 15.858L23.9996 15.848V15.7106L24.1068 15.7207Z" fill="#041E5F"/>
<path id="Trazado_796" d="M24.4155 15.7683L24.5529 15.8085C24.6199 15.8286 24.6132 15.8688 24.6065 15.8989C24.5931 15.9324 24.5864 15.9659 24.5864 16.0028L24.6567 16.0229C24.6433 16.0061 24.6433 15.9961 24.6533 15.9693L24.6634 15.8956C24.6835 15.842 24.6634 15.8219 24.6433 15.8085C24.6701 15.7951 24.7136 15.785 24.727 15.7247C24.7538 15.6376 24.6935 15.5974 24.6232 15.5773L24.4323 15.5137L24.3184 15.9291L24.372 15.9425L24.4155 15.7649V15.7683ZM24.4825 15.5874L24.6065 15.6309C24.6332 15.6376 24.6768 15.6477 24.6567 15.708C24.6433 15.7616 24.6031 15.7582 24.5663 15.7515L24.449 15.718L24.4859 15.584L24.4825 15.5874Z" fill="#041E5F"/>
<path id="Trazado_797" d="M24.9671 16.2072L24.9872 16.167L24.7694 16.0363L24.8364 15.9124L25.0408 16.0296L25.0676 15.9894L24.8632 15.8655L24.9302 15.7583L25.148 15.8889L25.1748 15.842L24.9034 15.6846L24.6924 16.0531L24.9637 16.2105L24.9671 16.2072Z" fill="#041E5F"/>
<path id="Trazado_798" d="M25.2322 16.4751C25.3059 16.5521 25.4298 16.5555 25.5069 16.4784C25.5069 16.4784 25.5136 16.4717 25.5169 16.4684C25.604 16.4148 25.6308 16.3009 25.5772 16.2138C25.5739 16.2071 25.5672 16.2004 25.5638 16.1937L25.4499 16.0664L25.125 16.3344L25.2322 16.4717V16.4751ZM25.5069 16.2406C25.5538 16.2942 25.5471 16.3545 25.4734 16.4215C25.3997 16.4818 25.3293 16.4818 25.2824 16.4248L25.2188 16.3511L25.4432 16.1602L25.5069 16.2373V16.2406Z" fill="#041E5F"/>
<path id="Trazado_799" d="M25.5175 16.9402L25.5644 16.9201L25.4472 16.689L25.5778 16.6287L25.6783 16.8397L25.7252 16.8129L25.618 16.6086L25.742 16.5483L25.8492 16.7727L25.8961 16.7527L25.752 16.4746L25.3701 16.6656L25.5142 16.9436L25.5175 16.9402Z" fill="#041E5F"/>
<path id="Trazado_800" d="M25.8784 17.2148L25.5869 17.255L25.5936 17.3086L26.009 17.2483L26.0023 17.2081C25.9353 17.2014 25.9286 17.1813 25.9085 17.1143L25.8683 17.121L25.8817 17.2148H25.8784Z" fill="#041E5F"/>
<path id="Trazado_801" d="M25.9125 17.4633C25.8756 17.4633 25.8388 17.4834 25.8287 17.5203C25.8153 17.4734 25.7751 17.4399 25.7249 17.4365C25.688 17.4365 25.6512 17.4499 25.6277 17.4767C25.6043 17.5069 25.5942 17.5437 25.5942 17.5806C25.5842 17.6476 25.6277 17.7112 25.6947 17.7213C25.7014 17.7213 25.7081 17.7213 25.7148 17.7213C25.7584 17.728 25.8053 17.7045 25.822 17.6643C25.8354 17.6978 25.8689 17.7213 25.9058 17.7179C25.9594 17.7246 26.0196 17.6911 26.0196 17.594C26.0297 17.5337 25.9895 17.4734 25.9292 17.4633C25.9225 17.4633 25.9192 17.4633 25.9125 17.4633ZM25.7182 17.6643C25.6579 17.6643 25.6478 17.6141 25.6478 17.5806C25.6478 17.5437 25.6746 17.5102 25.7115 17.5069C25.7148 17.5069 25.7215 17.5069 25.7249 17.5069C25.7617 17.5069 25.7919 17.5404 25.7919 17.5772C25.7919 17.5806 25.7919 17.5873 25.7919 17.5906C25.7952 17.6275 25.7718 17.661 25.7349 17.6643C25.7282 17.6643 25.7249 17.6643 25.7182 17.6643ZM25.9125 17.6643C25.8756 17.6576 25.8488 17.6241 25.8488 17.5873C25.8488 17.5538 25.879 17.527 25.9125 17.5303C25.9393 17.5303 25.9728 17.5437 25.9661 17.5973C25.9661 17.6509 25.9326 17.6677 25.9125 17.6677V17.6643Z" fill="#041E5F"/>
<path id="Trazado_802" d="M25.8523 17.8114L25.8456 17.865C25.8724 17.8717 25.9394 17.8918 25.9193 17.9655C25.9059 18.0258 25.859 18.0392 25.8322 18.0258C25.7786 18.0191 25.7652 17.9789 25.7518 17.932L25.7384 17.8717C25.7183 17.8047 25.6647 17.7511 25.5943 17.7344L25.5273 18.0124L25.5742 18.0258L25.6278 17.8014C25.6479 17.8081 25.6747 17.8282 25.6881 17.8885L25.7015 17.9354C25.7216 18.0091 25.7417 18.066 25.8087 18.0794C25.8757 18.0962 25.9461 18.056 25.9628 17.989C25.9628 17.989 25.9628 17.989 25.9628 17.9856C25.9863 17.9119 25.9427 17.8349 25.869 17.8148C25.8623 17.8148 25.8523 17.8114 25.8456 17.8114H25.8523Z" fill="#041E5F"/>
<path id="Trazado_803" d="M25.7682 18.2066L25.728 18.2937L25.4633 18.1631L25.4365 18.2167L25.8184 18.3942L25.8318 18.354C25.7782 18.3138 25.7849 18.287 25.8117 18.2167L25.7715 18.2033L25.7682 18.2066Z" fill="#041E5F"/>
<path id="Trazado_804" d="M23.4902 19.7074L23.5371 19.7174L23.8487 18.4311C23.8487 18.4311 23.8185 18.4311 23.8018 18.4277L23.4936 19.7007V19.7107L23.4902 19.7074Z" fill="#041E5F"/>
<path id="Trazado_805" d="M23.4463 19.155L23.4898 19.1717L23.7511 18.4079C23.7511 18.4079 23.721 18.3979 23.7076 18.3945L23.4496 19.1449V19.155H23.4463Z" fill="#041E5F"/>
<path id="Trazado_806" d="M23.0014 19.6266L23.0416 19.6467L23.6446 18.3771L23.601 18.3604L23.0047 19.6166L22.998 19.6266H23.0014Z" fill="#041E5F"/>
<path id="Trazado_807" d="M22.907 19.4127L23.5635 18.334C23.5635 18.334 23.5367 18.3206 23.5233 18.3105L22.8701 19.3892L22.9103 19.4127H22.907Z" fill="#041E5F"/>
<path id="Trazado_808" d="M22.5018 19.4325L22.4951 19.4426L22.532 19.4694L23.4632 18.2801C23.4632 18.2801 23.4398 18.26 23.4264 18.25L22.5018 19.4325Z" fill="#041E5F"/>
<path id="Trazado_809" d="M22.5622 19.1375L23.3863 18.223C23.3863 18.223 23.3629 18.2029 23.3495 18.1895L22.5254 19.1073L22.5589 19.1375H22.5622Z" fill="#041E5F"/>
<path id="Trazado_810" d="M23.3159 18.156C23.3159 18.156 23.2958 18.1325 23.2858 18.1191L22.0664 19.1945L22.0966 19.228L23.3126 18.156H23.3159Z" fill="#041E5F"/>
<path id="Trazado_811" d="M23.2488 18.073C23.2488 18.073 23.2287 18.0495 23.2187 18.0361L22.5755 18.4917L22.5654 18.4984L22.5922 18.5353L23.2488 18.073Z" fill="#041E5F"/>
<path id="Trazado_812" d="M23.1925 17.9923C23.1925 17.9923 23.1791 17.9655 23.169 17.9521L22.7168 18.2034L22.7369 18.2436L23.1891 17.9923H23.1925Z" fill="#041E5F"/>
<path id="Trazado_813" d="M22.6523 18.0764L22.6724 18.12L23.1481 17.9123C23.1481 17.9123 23.1314 17.8855 23.1247 17.8721L22.6523 18.0798V18.0764Z" fill="#041E5F"/>
<path id="Trazado_814" d="M22.5991 17.9319L22.6125 17.9754L23.0948 17.8213H23.1049L23.0915 17.7744L22.5957 17.9352L22.5991 17.9319Z" fill="#041E5F"/>
<path id="Trazado_815" d="M23.0774 17.7242C23.0774 17.7242 23.0674 17.6941 23.0674 17.6807L22.5615 17.7912L22.5716 17.8381L23.0808 17.7276L23.0774 17.7242Z" fill="#041E5F"/>
<path id="Trazado_816" d="M22.5352 17.637L22.5419 17.6839L23.0644 17.627C23.0644 17.627 23.0611 17.5968 23.0611 17.5801L22.5385 17.637H22.5352Z" fill="#041E5F"/>
<path id="Trazado_817" d="M22.5254 17.5302L23.0513 17.5235C23.0513 17.5235 23.0513 17.5067 23.0513 17.5C23.0513 17.4933 23.0513 17.4833 23.0513 17.4766L22.5254 17.4833V17.5302Z" fill="#041E5F"/>
<path id="Trazado_818" d="M22.5352 17.3858L23.0477 17.4293H23.0577C23.0577 17.4293 23.0577 17.3992 23.0611 17.3824L22.5519 17.3389H22.5419V17.3858H22.5352Z" fill="#041E5F"/>
<path id="Trazado_819" d="M22.5527 17.2217L23.0686 17.3323C23.0686 17.3323 23.0753 17.3021 23.0787 17.2887L22.5628 17.1748L22.5527 17.2217Z" fill="#041E5F"/>
<path id="Trazado_820" d="M22.5922 17.084L23.0813 17.2448H23.088C23.088 17.2448 23.0981 17.2147 23.1014 17.2013L22.6056 17.0371L22.5889 17.0807L22.5922 17.084Z" fill="#041E5F"/>
<path id="Trazado_821" d="M22.6568 16.9004L22.6367 16.9439L23.1225 17.1516C23.1225 17.1516 23.1359 17.1248 23.1426 17.1081L22.6669 16.9071H22.6568V16.9004Z" fill="#041E5F"/>
<path id="Trazado_822" d="M22.6996 16.8035L23.1586 17.0547H23.1619C23.1619 17.0547 23.1753 17.0279 23.1854 17.0178L22.7197 16.7666L22.6963 16.8068L22.6996 16.8035Z" fill="#041E5F"/>
<path id="Trazado_823" d="M22.79 16.6759L23.2088 16.9741C23.2088 16.9741 23.2289 16.9506 23.2389 16.9372L22.8168 16.6357L22.79 16.6759Z" fill="#041E5F"/>
<path id="Trazado_824" d="M22.9198 16.5186L22.8896 16.5554L23.2749 16.887H23.2782C23.2782 16.887 23.2983 16.8669 23.3084 16.8535L22.9298 16.5253L22.9198 16.5186Z" fill="#041E5F"/>
<path id="Trazado_825" d="M23.0315 16.4141L22.998 16.4442L23.3498 16.8161C23.3498 16.8161 23.3732 16.796 23.3866 16.7859L23.0382 16.4208L23.0315 16.4141Z" fill="#041E5F"/>
<path id="Trazado_826" d="M23.1482 16.3203L23.1113 16.3505L23.4296 16.7491C23.4296 16.7491 23.453 16.729 23.4664 16.7189L23.1549 16.327L23.1482 16.3203Z" fill="#041E5F"/>
<path id="Trazado_827" d="M23.2961 16.2334L23.2559 16.2568L23.5071 16.6923C23.5071 16.6923 23.5339 16.6823 23.5473 16.6722L23.2994 16.2434L23.2927 16.2334H23.2961Z" fill="#041E5F"/>
<path id="Trazado_828" d="M23.4264 16.1768L23.3828 16.1969L23.5939 16.6524C23.5939 16.6524 23.6207 16.639 23.6374 16.6323L23.4331 16.1902V16.1801L23.4264 16.1768Z" fill="#041E5F"/>
<path id="Trazado_829" d="M23.5738 16.123L23.5303 16.1364L23.6944 16.6088C23.6944 16.6088 23.7246 16.5987 23.738 16.5954L23.5772 16.1331V16.123H23.5738Z" fill="#041E5F"/>
<path id="Trazado_830" d="M23.7285 16.0762L23.6816 16.0862L23.7855 16.582C23.7855 16.582 23.8156 16.5753 23.8324 16.5753L23.7319 16.0862V16.0762H23.7285Z" fill="#041E5F"/>
<path id="Trazado_831" d="M23.892 16.5688C23.892 16.5688 23.9222 16.5654 23.9389 16.5654L23.8887 16.0596H23.8418L23.892 16.5721V16.5688Z" fill="#041E5F"/>
<path id="Trazado_832" d="M24.0264 16.0527H23.9795L23.9862 16.5586H23.9929C23.9929 16.5586 24.0197 16.5619 24.0331 16.5619L24.0264 16.0628V16.0527Z" fill="#041E5F"/>
<path id="Trazado_833" d="M24.0762 16.5621V16.5688C24.0762 16.5688 24.1063 16.5688 24.1231 16.5721L24.1733 16.0596H24.1264L24.0762 16.5587V16.5621Z" fill="#041E5F"/>
<path id="Trazado_834" d="M24.2126 16.5887H24.2227L24.3232 16.0862L24.2763 16.0762L24.1758 16.5787C24.1758 16.5787 24.1992 16.5854 24.2126 16.5887Z" fill="#041E5F"/>
<path id="Trazado_835" d="M24.4719 16.1364L24.4284 16.123L24.2676 16.5954V16.6054C24.2676 16.6054 24.2944 16.6155 24.3078 16.6188L24.4652 16.1498V16.1398L24.4719 16.1364Z" fill="#041E5F"/>
<path id="Trazado_836" d="M24.6121 16.193L24.5686 16.1729L24.3643 16.6284V16.6351C24.3643 16.6351 24.3877 16.6519 24.4011 16.6586L24.6054 16.203V16.193H24.6121Z" fill="#041E5F"/>
<path id="Trazado_837" d="M24.6961 16.2334L24.4549 16.6655L24.4482 16.6756L24.4884 16.699L24.7363 16.2568L24.6961 16.2334Z" fill="#041E5F"/>
<path id="Trazado_838" d="M24.5244 16.7194C24.5244 16.7194 24.5479 16.7428 24.5613 16.7529L24.8695 16.3542L24.8762 16.3442L24.8393 16.3174L24.5278 16.7194H24.5244Z" fill="#041E5F"/>
<path id="Trazado_839" d="M24.6055 16.7867L24.639 16.8169L24.9773 16.4484L24.984 16.4384L24.9505 16.4082L24.6055 16.7834V16.7867Z" fill="#041E5F"/>
<path id="Rect&#195;&#161;ngulo_81" d="M25.0542 16.5168L24.6748 16.8564L24.7061 16.8914L25.0854 16.5517L25.0542 16.5168Z" fill="#041E5F"/>
<path id="Trazado_840" d="M24.7489 16.9339L24.7422 16.9406C24.7422 16.9406 24.7623 16.964 24.7723 16.9774L25.1743 16.6793L25.1844 16.6726L25.1576 16.6357L24.7522 16.9339H24.7489Z" fill="#041E5F"/>
<path id="Trazado_841" d="M24.804 17.0077H24.7939C24.8006 17.0244 24.8073 17.0412 24.8174 17.0546L25.2596 16.8067L25.2696 16.8L25.2462 16.7598L24.804 17.0077Z" fill="#041E5F"/>
<path id="Trazado_842" d="M24.8465 17.0979H24.8398C24.8398 17.0979 24.8532 17.128 24.8599 17.1414L25.3189 16.9405H25.3289L25.3088 16.8936L24.8432 17.0979H24.8465Z" fill="#041E5F"/>
<path id="Trazado_843" d="M24.8774 17.1954C24.8774 17.1954 24.8874 17.2255 24.8908 17.2389L25.3598 17.0781H25.3698L25.3531 17.0312L24.874 17.1954H24.8774Z" fill="#041E5F"/>
<path id="Trazado_844" d="M24.9033 17.2824C24.9033 17.2824 24.91 17.3126 24.9134 17.326L25.4125 17.2154L25.4025 17.1719L24.9033 17.2824Z" fill="#041E5F"/>
<path id="Trazado_845" d="M24.9199 17.3795C24.9199 17.3795 24.9233 17.4096 24.9233 17.4264L25.4124 17.3828H25.4258V17.3359L24.9199 17.3795Z" fill="#041E5F"/>
<path id="Trazado_846" d="M24.9336 17.4999C24.9336 17.4999 24.9336 17.5099 24.9336 17.5166L25.4394 17.5233V17.4764L24.9336 17.4697C24.9336 17.4697 24.9369 17.4898 24.9369 17.4999H24.9336Z" fill="#041E5F"/>
<path id="Trazado_847" d="M24.9173 17.6709C24.9173 17.6709 24.9106 17.701 24.9072 17.7178L25.393 17.8283L25.403 17.7814L24.9173 17.6709Z" fill="#041E5F"/>
<path id="Trazado_848" d="M25.4224 17.6737V17.6268L24.9233 17.5732V17.5833C24.9233 17.5833 24.9233 17.6067 24.9199 17.6201L25.409 17.6737H25.4191H25.4224Z" fill="#041E5F"/>
<path id="Trazado_849" d="M25.3536 17.9691L25.367 17.9256L24.9014 17.7715H24.8913C24.888 17.7849 24.8846 17.7983 24.8779 17.8117L25.3436 17.9658H25.3536V17.9691Z" fill="#041E5F"/>
<path id="Trazado_850" d="M24.8599 17.8613C24.8599 17.8613 24.8465 17.8881 24.8398 17.9015L25.2854 18.1025H25.2954L25.3155 18.0657L24.8599 17.8613Z" fill="#041E5F"/>
<path id="Trazado_851" d="M24.7969 17.9826L25.219 18.2271L25.229 18.2338L25.2525 18.1936L24.8203 17.9424C24.8203 17.9424 24.8069 17.9692 24.7969 17.9826Z" fill="#041E5F"/>
<path id="Trazado_852" d="M24.7422 18.0622L25.372 18.5212L25.3988 18.4843L24.7723 18.0254C24.7723 18.0254 24.7522 18.0488 24.7422 18.0622Z" fill="#041E5F"/>
<path id="Trazado_853" d="M24.703 18.1094C24.703 18.1094 24.6829 18.1328 24.6729 18.1462L25.8386 19.2081L25.8453 19.2148L25.8755 19.1813L24.7064 18.1161H24.703V18.1094Z" fill="#041E5F"/>
<path id="Trazado_854" d="M24.6055 18.2104L25.3994 19.1249L25.4362 19.0948L24.6457 18.1836C24.6457 18.1836 24.6289 18.197 24.6189 18.2037L24.6088 18.2137L24.6055 18.2104Z" fill="#041E5F"/>
<path id="Trazado_855" d="M24.5312 18.2704L25.429 19.4529L25.4659 19.4261L24.5681 18.2402C24.5681 18.2402 24.5446 18.2603 24.5312 18.2704Z" fill="#041E5F"/>
<path id="Trazado_856" d="M24.4414 18.3238L25.0645 19.3891L25.0712 19.3991L25.1114 19.3757L24.4816 18.3037C24.4816 18.3037 24.4548 18.3171 24.4414 18.3272V18.3238Z" fill="#041E5F"/>
<path id="Trazado_857" d="M24.3574 18.3676L24.9303 19.6171V19.6272L24.9772 19.6071L24.3976 18.3408C24.3976 18.3408 24.3708 18.3576 24.3574 18.3643V18.3676Z" fill="#041E5F"/>
<path id="Trazado_858" d="M24.2602 18.4005L24.5047 19.1442V19.1543L24.5516 19.1409L24.3004 18.3838C24.3004 18.3838 24.2702 18.3938 24.2568 18.3972L24.2602 18.4005Z" fill="#041E5F"/>
<path id="Trazado_859" d="M24.1631 18.4241L24.4612 19.7004L24.5081 19.6904L24.21 18.4141C24.21 18.4141 24.1798 18.4208 24.1631 18.4241Z" fill="#041E5F"/>
<path id="Trazado_860" d="M19.6779 26.9033C19.6779 26.9033 19.5338 27.0708 19.6142 27.2115C19.698 27.312 19.8487 27.3221 19.9492 27.2383C19.9593 27.2316 19.966 27.2216 19.976 27.2115C19.976 27.2115 19.6276 27.2182 19.6779 26.9033Z" fill="#041E5F"/>
<path id="Trazado_861" d="M28.043 27.2115C28.1267 27.312 28.2775 27.3221 28.378 27.2383C28.388 27.2316 28.3947 27.2216 28.4048 27.2115C28.4852 27.0708 28.3411 26.9033 28.3411 26.9033C28.3947 27.2182 28.043 27.2115 28.043 27.2115Z" fill="#041E5F"/>
<path id="Trazado_862" d="M20.9912 26.7252L20.9142 26.6816L20.7266 26.9965L20.8036 27.0401C20.8941 27.0836 21.0046 27.0434 21.0482 26.953C21.085 26.8726 21.0616 26.7788 20.9912 26.7252Z" fill="#041E5F"/>
<path id="Trazado_863" d="M21.6038 27.0435C21.5134 26.9999 21.4062 27.0435 21.366 27.1305C21.366 27.1305 21.366 27.1305 21.366 27.1339C21.3191 27.221 21.3526 27.3315 21.4397 27.3784C21.5268 27.4253 21.6373 27.3918 21.6842 27.3047C21.6842 27.298 21.6909 27.2947 21.6909 27.288C21.7378 27.2009 21.701 27.0903 21.6139 27.0468C21.6139 27.0468 21.6139 27.0468 21.6105 27.0468L21.6038 27.0435Z" fill="#041E5F"/>
<path id="Trazado_864" d="M23.7247 27.5893C23.6242 27.5859 23.5404 27.663 23.5371 27.7601C23.5371 27.7601 23.5371 27.7601 23.5371 27.7635C23.527 27.8606 23.5974 27.9511 23.6945 27.9611C23.7917 27.9712 23.8821 27.9008 23.8922 27.8037C23.8922 27.797 23.8922 27.7869 23.8922 27.7802C23.8989 27.6831 23.8285 27.596 23.728 27.5859C23.728 27.5859 23.7247 27.5859 23.7213 27.5859L23.7247 27.5893Z" fill="#041E5F"/>
<path id="Trazado_865" d="M25.4495 27.6164L25.3457 27.6432L25.3893 27.804L25.4931 27.7772C25.5366 27.7705 25.5634 27.7303 25.5567 27.6867C25.5567 27.6834 25.5567 27.68 25.5567 27.6767C25.5467 27.6331 25.5065 27.6063 25.4629 27.6164C25.4629 27.6164 25.4562 27.6164 25.4529 27.6164H25.4495Z" fill="#041E5F"/>
<path id="Trazado_866" d="M25.4801 27.4756C25.4734 27.4388 25.4366 27.4153 25.4031 27.422C25.3997 27.422 25.3964 27.422 25.393 27.422L25.2959 27.4488L25.3327 27.5895L25.4299 27.5627C25.4667 27.556 25.4902 27.5192 25.4835 27.4823C25.4835 27.4823 25.4835 27.479 25.4835 27.4756H25.4801Z" fill="#041E5F"/>
<path id="Trazado_867" d="M26.1475 27.1807C26.1241 27.1807 26.1006 27.184 26.0805 27.1941L26.0068 27.2242L26.0705 27.385L26.1609 27.3482C26.2045 27.3348 26.2246 27.2879 26.2112 27.2477C26.2112 27.2443 26.2112 27.2376 26.2045 27.2343C26.1944 27.2041 26.171 27.184 26.1408 27.1807H26.1475Z" fill="#041E5F"/>
<path id="Trazado_868" d="M26.7771 26.9536L26.8039 27.1144L26.9345 27.044L26.8139 26.9335C26.7938 26.9167 26.7637 26.8799 26.7637 26.8799C26.7637 26.8799 26.7737 26.9234 26.7771 26.9502V26.9536Z" fill="#041E5F"/>
<path id="Trazado_869" d="M28.1563 26.9898L28.0022 26.9328C28.1094 26.8893 28.2267 26.8792 28.3372 26.9027L28.1496 26.7352C27.7677 26.3901 27.2117 26.3198 26.7561 26.5576C25.0711 27.6028 22.9405 27.6028 21.2589 26.5576C20.8033 26.3198 20.2472 26.3901 19.8653 26.7352L19.6777 26.9027C19.7916 26.8792 19.9055 26.8893 20.0127 26.9328L19.8586 26.9898C20.0529 27.0668 19.9725 27.2109 19.9725 27.2109L20.2104 26.9998C20.5688 27.1506 20.9205 27.3247 21.2555 27.5224C22.093 27.9947 23.041 28.2359 24.0058 28.2192C24.9672 28.2359 25.9152 27.9947 26.7561 27.5224C27.0911 27.3247 27.4428 27.1506 27.8012 26.9998L28.0391 27.2109C28.0391 27.2109 27.9587 27.0668 28.1563 26.9898ZM20.7765 27.0936L20.6392 27.0132L20.887 26.5978L21.0244 26.6782C21.1383 26.7452 21.1785 26.896 21.1081 27.0099C21.0411 27.1238 20.8904 27.164 20.7765 27.0936ZM21.1215 27.2879L21.0612 27.2578L21.289 26.8323L21.3493 26.8658L21.1215 27.2912V27.2879ZM21.413 27.442C21.289 27.385 21.2354 27.2343 21.2924 27.1104C21.2924 27.1104 21.2924 27.107 21.2924 27.1037C21.3527 26.9797 21.5034 26.9295 21.6274 26.9931C21.748 27.0534 21.7982 27.1941 21.7446 27.318C21.691 27.4453 21.5436 27.5023 21.4163 27.4453C21.4163 27.4453 21.413 27.4453 21.4096 27.4453L21.413 27.442ZM22.0863 27.2979C22.0696 27.2644 22.0394 27.2343 22.0026 27.2209C21.9657 27.2008 21.9155 27.2142 21.8954 27.2544C21.8585 27.3448 22.0863 27.4085 22.0294 27.5525C21.9992 27.6229 21.9188 27.6597 21.8485 27.6296C21.8451 27.6296 21.8418 27.6296 21.8384 27.6229C21.7815 27.6028 21.7379 27.5592 21.7111 27.5056L21.7647 27.4721C21.7848 27.5123 21.8183 27.5458 21.8619 27.5626C21.8987 27.5827 21.9423 27.5693 21.9624 27.5324C21.9624 27.5324 21.9624 27.5291 21.9624 27.5257C21.9992 27.4286 21.7748 27.3649 21.8284 27.2242C21.8619 27.1506 21.9456 27.1204 22.0193 27.1539C22.0193 27.1539 22.0193 27.1539 22.0227 27.1539C22.0696 27.1707 22.1098 27.2042 22.1332 27.2477L22.083 27.2912L22.0863 27.2979ZM22.4883 27.8406C22.3911 27.8239 22.3275 27.7334 22.3476 27.6363C22.3476 27.6296 22.3476 27.6229 22.351 27.6162L22.4313 27.3147L22.4983 27.3314L22.4179 27.6329C22.4012 27.6999 22.4414 27.7669 22.505 27.7837C22.5687 27.8004 22.639 27.7602 22.6558 27.6966L22.7362 27.3951L22.8032 27.4118L22.7228 27.7133C22.6993 27.8071 22.6055 27.8674 22.5117 27.844C22.505 27.844 22.4983 27.8406 22.4916 27.8373L22.4883 27.8406ZM23.1784 27.978L23.1114 27.9646L22.9539 27.6162C22.9405 27.586 22.9271 27.5391 22.9271 27.5391C22.9271 27.5391 22.9238 27.5827 22.9204 27.6095L22.8635 27.921L22.7965 27.9076L22.8836 27.4286L22.9506 27.442L23.108 27.7904C23.1214 27.8205 23.1348 27.8674 23.1348 27.8674C23.1348 27.8674 23.1348 27.8239 23.1415 27.7971L23.1985 27.4855L23.2655 27.4989L23.1784 27.978ZM23.3626 27.9981L23.2956 27.9914L23.3526 27.509L23.4196 27.5157L23.3626 27.9981ZM23.701 28.0349C23.5636 28.0282 23.4598 27.911 23.4665 27.7736C23.4665 27.7736 23.4665 27.7703 23.4665 27.7669C23.4765 27.6296 23.5971 27.5291 23.7345 27.5391C23.8651 27.5492 23.9656 27.6597 23.9623 27.7904C23.9589 27.9277 23.845 28.0349 23.7077 28.0316C23.7077 28.0316 23.7043 28.0316 23.701 28.0316V28.0349ZM24.3642 28.0249L24.1364 27.72C24.1163 27.6932 24.0929 27.6497 24.0929 27.6497C24.0929 27.6497 24.0996 27.6932 24.0996 27.72L24.113 28.0349H24.046L24.0259 27.5525H24.0929L24.3207 27.8574C24.3408 27.8842 24.3642 27.9244 24.3642 27.9244C24.3642 27.9244 24.3575 27.8808 24.3575 27.854L24.3441 27.5391H24.4111L24.4312 28.0215H24.3642V28.0249ZM24.8165 27.978L24.7394 27.4989L24.8064 27.4889L24.8734 27.9076L25.0878 27.8741L25.0979 27.9311L24.8165 27.9746V27.978ZM25.1548 27.9177L25.0577 27.442L25.1247 27.4286L25.2218 27.9043L25.1548 27.9177ZM25.5032 27.8339L25.3357 27.8775L25.2118 27.4085L25.3759 27.3649C25.4396 27.3381 25.5133 27.3683 25.5401 27.4353C25.5401 27.4386 25.5434 27.4453 25.5434 27.4487C25.5568 27.4889 25.5434 27.5358 25.5133 27.5659C25.5669 27.5659 25.6104 27.6061 25.6205 27.6564C25.6406 27.7301 25.6004 27.8071 25.5267 27.8272C25.52 27.8272 25.5133 27.8306 25.5066 27.8306L25.5032 27.8339ZM25.7477 27.7669L25.5937 27.3046L25.8616 27.2176L25.8817 27.2745L25.6774 27.3415L25.7243 27.4855L25.8884 27.4319L25.9085 27.4889L25.7444 27.5425L25.7946 27.6899L26.009 27.6195L26.0291 27.6765L25.7511 27.7703L25.7477 27.7669ZM26.3574 27.5425L26.1899 27.4018L26.0928 27.442L26.1665 27.6195L26.1028 27.6463L25.9219 27.1975L26.0593 27.1439C26.0861 27.1305 26.1162 27.1238 26.1464 27.1204C26.2268 27.1271 26.2871 27.1941 26.2804 27.2745C26.2804 27.308 26.2636 27.3415 26.2402 27.3649C26.2402 27.3649 26.2536 27.375 26.2603 27.3817L26.4244 27.519L26.3541 27.5492L26.3574 27.5425ZM26.5953 27.4353L26.4144 27.0501L26.2636 27.1204L26.2368 27.0668L26.5986 26.896L26.6254 26.9496L26.4747 27.0199L26.6556 27.4051L26.5953 27.4353ZM27.081 27.1841L26.9705 27.0836L26.8097 27.1707L26.8331 27.3147L26.7728 27.3482L26.6958 26.839L26.7561 26.8055L27.1413 27.1472L27.081 27.1807V27.1841ZM27.3289 27.0367L27.1916 27.1204L26.9336 26.7084L27.071 26.6246C27.1849 26.5543 27.3356 26.5878 27.4059 26.7017C27.4763 26.8156 27.4428 26.9663 27.3289 27.0367Z" fill="#041E5F"/>
<path id="Trazado_870" d="M27.101 26.6791L27.0273 26.726L27.2216 27.0375L27.2953 26.9906C27.3791 26.9303 27.3958 26.8164 27.3355 26.7327C27.2819 26.659 27.1814 26.6355 27.101 26.6791Z" fill="#041E5F"/>
</g>
</g>
<path id="Vector" d="M55.8974 2.43848H54.5742V56.0167H55.8974V2.43848Z" fill="#041E5F"/>
<path id="Vector_2" d="M73.4933 24.8731L70.0028 17.5737H69.976L69.6075 23.7375C69.5673 24.4343 70.0865 24.585 70.7029 24.6152V24.8765H67.8555V24.6152C68.8537 24.6152 68.9777 24.3974 69.048 23.1513L69.3763 17.8249C69.4299 16.9205 69.4031 16.6759 68.5556 16.619V16.3711H70.6225L73.9221 23.2719L77.2084 16.3711H79.2217V16.619C78.5517 16.6726 78.2904 16.686 78.3172 17.1516L78.756 23.3556C78.8398 24.6152 78.947 24.6152 79.9486 24.6152V24.8765H76.4279V24.6152C77.071 24.6152 77.7008 24.4376 77.6472 23.7107L77.2486 17.5771H77.2218L73.8116 24.8765H73.4967L73.4933 24.8731Z" fill="#041E5F"/>
<path id="Vector_3" d="M83.9026 24.8733H80.5762V24.612C81.4237 24.5718 81.6046 24.3507 81.6046 23.4328V17.6007C81.6046 16.8603 81.3433 16.656 80.5762 16.6158V16.3545H83.9026V16.6158C83.0383 16.6158 82.7369 16.8067 82.7369 17.7246V23.53C82.7369 24.3373 82.9546 24.612 83.9026 24.612V24.8733Z" fill="#041E5F"/>
<path id="Vector_4" d="M93.0871 24.2294C91.7304 24.9261 89.9918 25.0936 89.4156 25.0936C86.4174 25.0936 85.0205 22.7789 85.0205 20.779C85.0205 18.7791 86.4576 16.1494 89.8008 16.1494C91.2647 16.1494 92.2395 16.615 92.5243 16.615C92.6482 16.615 92.7588 16.5883 92.8392 16.5179H93.0301V18.7355H92.7554C92.3869 17.0237 91.2212 16.4911 89.9482 16.4911C87.5396 16.4911 86.3069 18.491 86.3069 20.6952C86.3069 23.5024 88.28 24.7486 89.8544 24.7486C90.4842 24.7486 91.1843 24.6113 91.9481 24.2294V22.5042C91.9481 21.7236 91.6734 21.4624 90.8527 21.4624H90.3468V21.2145H94.0451V21.4624C93.3617 21.5026 93.0871 21.737 93.0871 22.3266V24.2294Z" fill="#041E5F"/>
<path id="Vector_5" d="M96.8259 23.5864C96.8259 24.4071 97.1542 24.6148 97.9213 24.6148H98.2362V24.8761H94.3604V24.6148H94.5948C95.4022 24.6148 95.6903 24.3971 95.6903 23.4792V17.7141C95.6903 16.8665 95.4558 16.6186 94.6618 16.6186H94.3604V16.3573C94.6886 16.3573 95.5228 16.3037 96.0855 16.2736C96.6483 16.2468 96.9197 16.2334 97.8108 16.2334C100.343 16.2334 101.482 17.2752 101.482 18.6721C101.482 19.7005 100.785 20.5615 99.6599 20.8898C100.166 21.2884 100.578 21.6703 101.221 22.3135L102.303 23.3955C103.11 24.2028 103.948 24.7086 105 24.779V25.0269C102.604 25.1374 101.988 24.6148 100.769 23.3988L99.8642 22.4944C99.2612 21.8914 98.7822 21.4961 98.4539 21.275C98.1122 21.2884 97.8911 21.3018 97.5227 21.3018C97.2212 21.3018 97.0436 21.2884 96.8259 21.275V23.5898V23.5864ZM96.8259 21.0104C97.1542 21.0506 97.3585 21.0372 97.6734 21.0372C99.1943 21.0372 100.193 20.394 100.193 18.7492C100.193 17.4762 99.6163 16.488 97.5093 16.488C97.248 16.488 97.0704 16.488 96.8259 16.5148V21.007V21.0104Z" fill="#041E5F"/>
<path id="Vector_6" d="M107.763 21.0939L106.969 23.2445C106.872 23.5058 106.694 23.9145 106.694 24.1088C106.694 24.4773 107.049 24.6146 107.803 24.6146H108.021V24.8759H104.858V24.6146C105.749 24.6012 105.9 24.4505 106.339 23.2579L108.831 16.4509L108.707 16.1494H109.9L112.761 23.7503C113.035 24.4773 113.324 24.6146 114.007 24.6146V24.8759H110.242V24.6146H110.597C111.377 24.6146 111.665 24.5309 111.665 24.149C111.665 23.9312 111.568 23.7235 111.515 23.5862L110.597 21.0939H107.763ZM109.16 17.3018L107.997 20.4909H110.366L109.16 17.3018Z" fill="#041E5F"/>
<path id="Vector_7" d="M122.086 18.6015C121.634 17.3286 120.458 16.4911 118.964 16.4911C116.676 16.4911 115.253 18.1493 115.253 20.4473C115.253 22.9263 117.031 24.7486 119.115 24.7486C120.197 24.7486 121.524 24.3801 122.455 22.7219H122.716C122.539 23.3383 122.167 24.1858 121.838 24.7218C120.961 24.5979 120.358 25.0903 118.743 25.0903C115.963 25.0903 113.963 23.2545 113.963 20.722C113.963 18.1895 116.016 16.1494 118.877 16.1494C120.602 16.1494 121.343 16.6988 121.768 16.6988C121.919 16.6988 121.986 16.6586 122.016 16.615H122.22L122.344 18.6015H122.083H122.086Z" fill="#041E5F"/>
<path id="Vector_8" d="M126.905 24.8733H123.578V24.612C124.426 24.5718 124.607 24.3507 124.607 23.4328V17.6007C124.607 16.8603 124.345 16.656 123.578 16.6158V16.3545H126.905V16.6158C126.04 16.6158 125.739 16.8067 125.739 17.7246V23.53C125.739 24.3373 125.957 24.612 126.905 24.612V24.8733Z" fill="#041E5F"/>
<path id="Vector_9" d="M132.917 25.0908C130.234 25.0908 127.973 23.3656 127.973 20.8063C127.973 18.0828 130.066 16.1499 132.984 16.1499C135.574 16.1499 137.791 17.9153 137.791 20.3808C137.791 23.1479 135.574 25.0908 132.917 25.0908ZM132.629 16.4916C130.217 16.4916 129.259 18.736 129.259 20.3808C129.259 22.9402 130.998 24.7491 133.202 24.7491C135.406 24.7491 136.502 22.776 136.502 20.8331C136.502 18.2871 134.887 16.4916 132.626 16.4916H132.629ZM131.56 15.2722L132.82 13.5336C133.095 13.1652 133.423 12.9307 133.698 12.9307C133.946 12.9307 134.123 13.0948 134.123 13.3293C134.123 13.5906 133.848 13.8619 133.192 14.3008L131.741 15.2722H131.564H131.56Z" fill="#041E5F"/>
<path id="Vector_10" d="M147.54 24.97L140.445 17.5466V23.4224C140.445 24.4072 140.662 24.6149 141.828 24.6149V24.8762H138.652V24.6149H138.706C139.553 24.6149 139.828 24.3268 139.828 23.697V16.9604C139.513 16.7427 139.158 16.6321 138.679 16.6187V16.3574H140.83L147.278 23.0807V17.6304C147.278 16.7963 147.03 16.6455 145.935 16.6187V16.3574H149.141V16.6187C148.112 16.6187 147.895 16.7963 147.895 17.3322V24.9734H147.54V24.97Z" fill="#041E5F"/>
<path id="Vector_11" d="M157.248 17.6007C157.687 16.8469 157.426 16.6158 156.551 16.6158V16.3545H159.647V16.6158C158.715 16.6828 158.32 17.0546 157.935 17.6978L155.66 21.5468V23.6003C155.66 24.3272 155.922 24.612 156.756 24.612H156.933V24.8733H153.168V24.612H153.429C154.28 24.612 154.525 24.2971 154.525 23.6271V21.6976L152.086 17.8921C151.416 16.8369 151.101 16.6459 150.21 16.6191V16.3578H153.851V16.6191C152.783 16.6191 152.716 16.8804 153.124 17.5102L155.315 20.8936L157.245 17.6074L157.248 17.6007Z" fill="#041E5F"/>
<path id="Vector_12" d="M74.03 37.5521H73.7687C73.6581 36.5806 73.4002 36.4701 72.8374 36.4701H70.5226V39.3879C70.5226 40.0176 70.7538 40.1416 71.2629 40.1416H73.3734C74.3314 40.1416 74.6195 39.7731 74.9612 38.5939H75.2091L74.9914 40.634H67.7188V40.3727H68.1006C69.1961 40.3727 69.387 40.0712 69.387 39.2505V33.4719C69.387 32.7048 69.2095 32.3765 68.2916 32.3765H67.9901V32.1152H74.5626L74.6731 34.018H74.4252C74.2477 32.8556 73.906 32.6077 73.4102 32.6077H70.5226V35.9777H72.9747C73.4672 35.9777 73.7017 35.7432 73.7687 34.9492H74.03V37.5521Z" fill="#041E5F"/>
<path id="Vector_13" d="M78.2309 39.375C77.6983 40.0182 77.7385 40.3733 78.643 40.3733H78.9177V40.6346H75.6582V40.3733C76.6163 40.2895 76.9848 40.0584 77.9462 38.9094L80.07 36.3501L77.9462 33.6802C77.0987 32.6116 76.7402 32.4072 75.6582 32.3804V32.1191H79.7384V32.3804C78.5324 32.367 78.4788 32.6685 78.9042 33.2012L80.7668 35.5025L82.2475 33.7371C83.0682 32.7657 83.0414 32.3804 82.301 32.3804H81.9024V32.1191H85.1887V32.3804C84.2842 32.3804 83.6544 32.8059 82.8605 33.7773L81.1085 35.928L83.6812 39.1338C84.4751 40.1321 84.723 40.2828 85.7615 40.38V40.6413H81.9828V40.38C82.9409 40.38 83.162 40.1455 82.4618 39.298L80.4084 36.7654L78.2309 39.3817V39.375Z" fill="#041E5F"/>
<path id="Vector_14" d="M90.7327 39.3743C90.7327 40.1146 90.9806 40.3726 91.8147 40.3726H92.3206V40.6338H88.0059V40.3726H88.5117C89.3459 40.3726 89.5938 40.1113 89.5938 39.3743V32.6108H87.212C86.6626 32.6108 86.4181 32.9257 86.2137 34.1317H85.9658L86.1836 31.9141H86.4449C86.4583 31.9978 86.5119 32.0514 86.5956 32.0782C86.6794 32.105 86.7731 32.1184 86.8703 32.1184H93.4562C93.6471 32.1184 93.8548 32.0782 93.8816 31.9141H94.1429L94.3607 34.1317H94.1128C93.9084 32.9257 93.6605 32.6108 93.1145 32.6108H90.7327V39.3743Z" fill="#041E5F"/>
<path id="Vector_15" d="M97.2477 39.3442C97.2477 40.165 97.576 40.3727 98.3432 40.3727H98.6581V40.6339H94.7822V40.3727H95.0167C95.824 40.3727 96.1121 40.1549 96.1121 39.237V33.4719C96.1121 32.621 95.8776 32.3764 95.0837 32.3764H94.7822V32.1152C95.1105 32.1152 95.9446 32.0616 96.5074 32.0314C97.0702 32.0046 97.3415 31.9912 98.2326 31.9912C100.765 31.9912 101.904 33.033 101.904 34.4299C101.904 35.4584 101.207 36.3193 100.082 36.6476C100.588 37.0462 101 37.4281 101.643 38.0713L102.725 39.1533C103.532 39.9606 104.37 40.4665 105.422 40.5368V40.7847C103.026 40.8952 102.41 40.3727 101.191 39.1566L100.286 38.2522C99.6831 37.6492 99.2041 37.2539 98.8758 37.0328C98.5341 37.0462 98.313 37.0596 97.9445 37.0596C97.643 37.0596 97.4655 37.0462 97.2477 37.0328V39.3476V39.3442ZM97.2477 36.7715C97.576 36.8117 97.7804 36.7983 98.0953 36.7983C99.6161 36.7983 100.614 36.1551 100.614 34.5103C100.614 33.2374 100.038 32.2492 97.9311 32.2492C97.6698 32.2492 97.4923 32.2492 97.2477 32.276V36.7682V36.7715Z" fill="#041E5F"/>
<path id="Vector_16" d="M108.189 36.8527L107.395 39.0033C107.297 39.2646 107.12 39.6733 107.12 39.8676C107.12 40.236 107.475 40.3734 108.229 40.3734H108.446V40.6347H105.284V40.3734C106.175 40.36 106.326 40.2092 106.765 39.0167L109.257 32.2097L109.133 31.9082H110.326L113.187 39.5091C113.461 40.236 113.749 40.3734 114.433 40.3734V40.6347H110.667V40.3734H111.023C111.803 40.3734 112.091 40.2896 112.091 39.9078C112.091 39.69 111.994 39.4823 111.94 39.345L111.023 36.8527H108.189ZM109.585 33.0606L108.423 36.2497H110.791L109.585 33.0606Z" fill="#041E5F"/>
<path id="Vector_17" d="M123.524 40.7278L116.429 33.3044V39.1802C116.429 40.165 116.647 40.3727 117.812 40.3727V40.634H114.637V40.3727H114.69C115.538 40.3727 115.813 40.0846 115.813 39.4549V32.7182C115.498 32.5005 115.143 32.3899 114.664 32.3765V32.1152H116.814L123.263 38.8385V33.3882C123.263 32.5541 123.015 32.4033 121.919 32.3765V32.1152H125.125V32.3765C124.097 32.3765 123.879 32.5541 123.879 33.0867V40.7278H123.524Z" fill="#041E5F"/>
<path id="Vector_18" d="M127.756 39.2241C127.756 41.9778 126.634 43.8269 124.922 43.8269C124.168 43.8269 123.592 43.512 123.592 43.0866C123.592 42.7985 123.81 42.5372 124.084 42.5372C124.55 42.5372 124.918 43.1804 125.495 43.1804C126.151 43.1804 126.617 42.6879 126.617 41.1671V33.8543C126.617 32.6483 126.493 32.3736 125.508 32.3736H125.357V32.1123H128.821V32.3736C127.943 32.4004 127.752 32.6483 127.752 33.3719V39.2174L127.756 39.2241Z" fill="#041E5F"/>
<path id="Vector_19" d="M135.299 37.5521H135.038C134.927 36.5806 134.669 36.4701 134.106 36.4701H131.792V39.3879C131.792 40.0176 132.023 40.1416 132.532 40.1416H134.639C135.597 40.1416 135.885 39.7731 136.227 38.5939H136.475L136.257 40.634H128.984V40.3727H129.366C130.462 40.3727 130.653 40.0712 130.653 39.2505V33.4719C130.653 32.7048 130.475 32.3765 129.557 32.3765H129.256V32.1152H135.828L135.939 34.018H135.691C135.513 32.8556 135.172 32.6077 134.676 32.6077H131.788V35.9777H134.24C134.733 35.9777 134.967 35.7432 135.034 34.9492H135.296V37.5521H135.299Z" fill="#041E5F"/>
<path id="Vector_20" d="M139.53 39.3442C139.53 40.165 139.858 40.3727 140.625 40.3727H140.94V40.6339H137.064V40.3727H137.299C138.106 40.3727 138.394 40.1549 138.394 39.237V33.4719C138.394 32.621 138.16 32.3764 137.366 32.3764H137.064V32.1152C137.393 32.1152 138.227 32.0616 138.79 32.0314C139.352 32.0046 139.624 31.9912 140.515 31.9912C143.047 31.9912 144.186 33.033 144.186 34.4299C144.186 35.4584 143.49 36.3193 142.364 36.6476C142.87 37.0462 143.282 37.4281 143.925 38.0713L145.007 39.1533C145.814 39.9606 146.652 40.4665 147.704 40.5368V40.7847C145.309 40.8952 144.692 40.3727 143.473 39.1566L142.568 38.2522C141.965 37.6492 141.486 37.2539 141.158 37.0328C140.816 37.0462 140.595 37.0596 140.227 37.0596C139.925 37.0596 139.748 37.0462 139.53 37.0328V39.3476V39.3442ZM139.53 36.7715C139.858 36.8117 140.063 36.7983 140.377 36.7983C141.898 36.7983 142.897 36.1551 142.897 34.5103C142.897 33.2374 142.32 32.2492 140.213 32.2492C139.952 32.2492 139.775 32.2492 139.53 32.276V36.7682V36.7715Z" fill="#041E5F"/>
<path id="Vector_21" d="M151.456 40.6338H148.13V40.3725C148.977 40.3323 149.158 40.1112 149.158 39.1933V33.3612C149.158 32.6208 148.897 32.4165 148.13 32.3763V32.115H151.456V32.3763C150.592 32.3763 150.294 32.5672 150.294 33.4851V39.2905C150.294 40.0978 150.512 40.3725 151.456 40.3725V40.6338ZM148.472 31.033L149.731 29.2944C150.006 28.9259 150.334 28.6914 150.609 28.6914C150.857 28.6914 151.034 28.8555 151.034 29.09C151.034 29.3513 150.76 29.6227 150.103 30.0615L148.652 31.033H148.475H148.472Z" fill="#041E5F"/>
<path id="Vector_22" d="M154.756 36.8527L153.962 39.0033C153.865 39.2646 153.687 39.6733 153.687 39.8676C153.687 40.236 154.042 40.3734 154.796 40.3734H155.014V40.6347H151.852V40.3734C152.743 40.36 152.893 40.2092 153.332 39.0167L155.825 32.2097L155.701 31.9082H156.893L159.754 39.5091C160.029 40.236 160.317 40.3734 161 40.3734V40.6347H157.235V40.3734H157.59C158.37 40.3734 158.659 40.2896 158.659 39.9078C158.659 39.69 158.561 39.4823 158.508 39.345L157.59 36.8527H154.756ZM156.153 33.0606L154.99 36.2497H157.359L156.153 33.0606Z" fill="#041E5F"/>
</g>
</svg>
