<svg width="40" height="40" viewBox="0 0 40 40" fill="none" xmlns="http://www.w3.org/2000/svg">
<circle opacity="0.1" cx="20" cy="20" r="20" fill="#2F3241"/>
<path d="M28.3884 17.8417C28.0652 17.504 27.731 17.156 27.605 16.85C27.4884 16.5697 27.4815 16.1052 27.4747 15.6552C27.4618 14.8186 27.4481 13.8706 26.789 13.2115C26.1298 12.5523 25.1818 12.5386 24.3452 12.5257C23.8952 12.5189 23.4307 12.512 23.1504 12.3955C22.8452 12.2695 22.4964 11.9352 22.1587 11.612C21.5672 11.0437 20.8952 10.4 20.0004 10.4C19.1055 10.4 18.4344 11.0437 17.8421 11.612C17.5044 11.9352 17.1564 12.2695 16.8504 12.3955C16.5718 12.512 16.1055 12.5189 15.6555 12.5257C14.819 12.5386 13.871 12.5523 13.2118 13.2115C12.5527 13.8706 12.5432 14.8186 12.5261 15.6552C12.5192 16.1052 12.5124 16.5697 12.3958 16.85C12.2698 17.1552 11.9355 17.504 11.6124 17.8417C11.0441 18.4332 10.4004 19.1052 10.4004 20C10.4004 20.8949 11.0441 21.566 11.6124 22.1583C11.9355 22.496 12.2698 22.844 12.3958 23.15C12.5124 23.4303 12.5192 23.8949 12.5261 24.3449C12.539 25.1815 12.5527 26.1295 13.2118 26.7886C13.871 27.4477 14.819 27.4615 15.6555 27.4743C16.1055 27.4812 16.5701 27.488 16.8504 27.6046C17.1555 27.7306 17.5044 28.0649 17.8421 28.388C18.4335 28.9563 19.1055 29.6 20.0004 29.6C20.8952 29.6 21.5664 28.9563 22.1587 28.388C22.4964 28.0649 22.8444 27.7306 23.1504 27.6046C23.4307 27.488 23.8952 27.4812 24.3452 27.4743C25.1818 27.4615 26.1298 27.4477 26.789 26.7886C27.4481 26.1295 27.4618 25.1815 27.4747 24.3449C27.4815 23.8949 27.4884 23.4303 27.605 23.15C27.731 22.8449 28.0652 22.496 28.3884 22.1583C28.9567 21.5669 29.6004 20.8949 29.6004 20C29.6004 19.1052 28.9567 18.434 28.3884 17.8417ZM19.3147 15.8857C19.3147 15.7039 19.3869 15.5295 19.5155 15.4009C19.6441 15.2723 19.8185 15.2 20.0004 15.2C20.1823 15.2 20.3567 15.2723 20.4853 15.4009C20.6139 15.5295 20.6861 15.7039 20.6861 15.8857V20.6857C20.6861 20.8676 20.6139 21.042 20.4853 21.1706C20.3567 21.2992 20.1823 21.3715 20.0004 21.3715C19.8185 21.3715 19.6441 21.2992 19.5155 21.1706C19.3869 21.042 19.3147 20.8676 19.3147 20.6857V15.8857ZM20.0004 24.8C19.797 24.8 19.5981 24.7397 19.4289 24.6267C19.2598 24.5137 19.128 24.353 19.0501 24.1651C18.9723 23.9771 18.9519 23.7703 18.9916 23.5708C19.0313 23.3713 19.1292 23.188 19.2731 23.0441C19.4169 22.9003 19.6002 22.8023 19.7997 22.7626C19.9992 22.723 20.2061 22.7433 20.394 22.8212C20.582 22.899 20.7426 23.0309 20.8556 23.2C20.9686 23.3692 21.029 23.568 21.029 23.7715C21.029 24.0442 20.9206 24.3059 20.7277 24.4988C20.5348 24.6917 20.2732 24.8 20.0004 24.8Z" fill="#2F3241"/>
</svg>
