<svg width="160" height="50" viewBox="0 0 160 50" fill="none" xmlns="http://www.w3.org/2000/svg">
<path fill-rule="evenodd" clip-rule="evenodd" d="M84.2226 12.6648C84.2226 14.4156 82.7834 15.9276 80.9443 15.9276C79.1053 15.9276 77.666 14.4952 77.666 12.6648C77.666 10.8344 79.0253 9.40192 80.9443 9.40192C82.8633 9.56108 84.2226 10.9936 84.2226 12.6648ZM70.869 19.1905C70.869 19.5088 70.869 19.9863 70.869 19.9863C70.869 19.9863 69.3498 17.9968 66.0715 17.9968C60.6343 17.9968 56.3965 22.135 56.3965 27.7854C56.3965 33.4357 60.5543 37.5739 66.0715 37.5739C69.4298 37.5739 70.869 35.5048 70.869 35.5048V36.3802C70.869 36.7781 71.1889 37.0964 71.5887 37.0964H75.5866V18.4743C75.5866 18.4743 71.9085 18.4743 71.5887 18.4743C71.1889 18.4743 70.869 18.8722 70.869 19.1905ZM70.8704 31.1278C70.1508 32.242 68.6316 33.1969 66.8725 33.1969C63.6742 33.1969 61.2754 31.2074 61.2754 27.865C61.2754 24.5225 63.7541 22.533 66.8725 22.533C68.6316 22.533 70.2308 23.4879 70.8704 24.6021V31.1278ZM78.625 18.4743H83.4225V37.0965H78.625V18.4743ZM150.029 17.9968C146.75 17.9968 145.231 19.9863 145.231 19.9863V9.5611H140.434V37.176C140.434 37.176 144.112 37.176 144.432 37.176C144.831 37.176 145.151 36.8577 145.151 36.4598V35.5844C145.151 35.5844 146.67 37.6535 149.949 37.6535C155.386 37.6535 159.624 33.5153 159.624 27.865C159.704 22.1351 155.466 17.9968 150.029 17.9968ZM149.228 33.1174C147.389 33.1174 145.95 32.1624 145.23 31.0482V24.3634C145.95 23.4084 147.549 22.2942 149.228 22.2942C152.427 22.2942 154.825 24.2838 154.825 27.6262C154.825 30.9687 152.427 33.1174 149.228 33.1174ZM137.957 26.1141V37.2556H133.159V26.6712C133.159 23.5675 132.2 22.3738 129.481 22.3738C128.042 22.3738 126.523 23.09 125.563 24.2042V37.176H120.766V18.4743H124.524C124.923 18.4743 125.243 18.7926 125.243 19.1905V19.9863C126.603 18.5538 128.522 17.9968 130.361 17.9968C132.44 17.9968 134.199 18.5538 135.558 19.7476C137.317 21.18 137.957 22.9308 137.957 26.1141ZM109.171 17.9968C105.893 17.9968 104.374 19.9863 104.374 19.9863V9.5611H99.5762V37.176C99.5762 37.176 103.254 37.176 103.574 37.176C103.974 37.176 104.294 36.8577 104.294 36.4598V35.5844C104.294 35.5844 105.813 37.6535 109.091 37.6535C114.528 37.6535 118.766 33.5153 118.766 27.865C118.846 22.1351 114.608 17.9968 109.171 17.9968ZM108.371 33.1174C106.532 33.1174 105.093 32.1624 104.373 31.0482V24.3634C105.093 23.4084 106.692 22.2942 108.371 22.2942C111.57 22.2942 113.968 24.2838 113.968 27.6262C113.968 30.9687 111.57 33.1174 108.371 33.1174ZM95.4161 17.9968C96.8553 17.9968 97.575 18.2355 97.575 18.2355V22.6125C97.575 22.6125 93.577 21.2596 91.0983 24.1246V37.176H86.3008V18.4743C86.3008 18.4743 89.9789 18.4743 90.2987 18.4743C90.6985 18.4743 91.0183 18.7926 91.0183 19.1905V19.9863C91.9779 18.9517 93.9768 17.9968 95.4161 17.9968ZM45.7626 35.5048C45.5227 34.9478 45.2828 34.2315 45.043 33.754C44.6432 32.8786 44.2434 32.0032 43.9235 31.2074L43.8436 31.1278C40.4054 23.7267 36.7273 16.1664 32.8093 8.68569L32.6494 8.36736C32.2496 7.65112 31.8498 6.85531 31.45 6.05949C30.9702 5.18408 30.4905 4.2291 29.6909 3.3537C28.0917 1.36415 25.7729 0.25 23.3741 0.25C20.8954 0.25 18.6566 1.36415 16.9774 3.19453C16.1778 4.14952 15.6181 5.02492 15.1384 5.9799C14.7386 6.77572 14.3388 7.57154 13.939 8.28778L13.7791 8.60611C9.94106 16.0072 6.183 23.5675 2.74477 31.0482L2.66481 31.1278C2.34498 31.9236 1.94519 32.799 1.54539 33.6744C1.30552 34.2315 1.06564 34.7886 0.825762 35.4252C0.186092 37.2556 -0.0537841 39.0064 0.266051 40.7572C0.825762 44.4976 3.30448 47.6013 6.74271 48.9542C8.02205 49.5113 9.38135 49.75 10.7407 49.75C11.1404 49.75 11.6202 49.6704 12.02 49.6704C13.6991 49.5113 15.3783 48.9542 16.9774 47.9992C19.0564 46.885 20.9754 45.2138 23.1343 42.8264C25.2931 45.2138 27.2921 46.8055 29.2911 47.9992C30.9702 48.9542 32.6494 49.5113 34.2485 49.6704C34.6483 49.75 35.1281 49.75 35.5279 49.75C36.8872 49.75 38.3264 49.5113 39.5258 48.9542C43.044 47.6013 45.4428 44.418 46.0025 40.7572C46.5622 39.0064 46.4023 37.3352 45.7626 35.5048ZM23.2942 38.0515C20.5756 34.709 18.8965 31.5258 18.2568 28.82C18.0169 27.7058 17.937 26.6713 18.0969 25.7958C18.1768 25 18.4967 24.2838 18.8965 23.7267C19.856 22.3738 21.4551 21.578 23.2942 21.578C25.1332 21.578 26.8124 22.3738 27.6919 23.7267C28.0917 24.2838 28.4116 25 28.4915 25.7958C28.6514 26.6713 28.5715 27.7058 28.3316 28.82C27.6919 31.4462 25.9328 34.6294 23.2942 38.0515ZM43.1246 40.3593C42.8048 42.906 41.0457 45.1343 38.567 46.1688C37.3676 46.6463 36.0883 46.8055 34.8089 46.6463C33.5296 46.4871 32.3302 46.0892 31.0509 45.373C29.2918 44.418 27.4527 42.8264 25.3738 40.5981C28.6521 36.619 30.6511 32.8786 31.3707 29.6158C31.6905 28.1037 31.7705 26.6712 31.6106 25.3979C31.4507 24.1246 30.9709 23.0105 30.2513 22.0555C28.7321 19.8272 26.0934 18.5539 23.2149 18.5539C20.3364 18.5539 17.6978 19.9068 16.1785 22.0555C15.4589 23.0105 15.0591 24.2042 14.8192 25.3979C14.6593 26.6712 14.6593 28.1037 15.0591 29.6158C15.7787 32.8786 17.8577 36.619 21.056 40.5981C18.9771 42.906 17.138 44.418 15.379 45.373C14.0996 46.0892 12.8203 46.4871 11.6209 46.6463C10.2616 46.8055 8.98225 46.5667 7.86283 46.1688C5.38411 45.2138 3.70497 42.906 3.30518 40.3593C3.14526 39.086 3.22522 37.8923 3.78493 36.4598C3.94485 35.9823 4.18473 35.5048 4.4246 34.8682C4.74444 34.0724 5.14423 33.197 5.54403 32.4011L5.62398 32.3216C9.06221 24.9204 12.7403 17.3601 16.5783 10.0386L16.7383 9.72027C17.138 9.00403 17.5378 8.20821 17.9376 7.41239C18.3374 6.61657 18.8172 5.90033 19.2969 5.26367C20.3364 4.06994 21.7757 3.43329 23.2949 3.43329C24.8141 3.43329 26.2533 4.06994 27.2928 5.26367C27.8525 5.90033 28.2523 6.61657 28.6521 7.41239C29.0519 8.12863 29.4517 8.92445 29.8515 9.72027L30.0114 10.0386C33.7695 17.4397 37.4476 25 40.8858 32.3216V32.4011C41.2856 33.197 41.6054 34.0724 42.0052 34.8682C42.2451 35.4253 42.485 35.9823 42.6449 36.4598C43.2046 37.8127 43.3645 39.086 43.1246 40.3593Z" fill="#2F3241"/>
</svg>
