<svg width="164" height="50" viewBox="0 0 164 50" fill="none" xmlns="http://www.w3.org/2000/svg">
<path fill-rule="evenodd" clip-rule="evenodd" d="M23.7927 23.578L23.7926 23.5778C23.0179 22.5079 22.2913 21.5044 22.2913 19.4759V11.6046C22.2913 11.3249 22.2931 11.0474 22.2948 10.7725C22.3134 7.77725 22.3303 5.07724 20.0911 2.92182C18.1354 1.05543 14.9573 0.40625 12.5126 0.40625C7.70465 0.40625 2.32631 2.1915 1.18545 8.11527C1.10396 8.76445 1.51141 9.08904 1.91886 9.17018L6.80826 9.65707C7.2972 9.65707 7.62316 9.17018 7.70465 8.76445C8.1121 6.73576 9.82339 5.76199 11.7791 5.76199C12.8385 5.76199 13.9794 6.16772 14.6313 7.06035C15.2531 7.95472 15.2306 9.08242 15.2093 10.1467C15.2055 10.3378 15.2017 10.5267 15.2017 10.712V11.3612C14.8 11.4056 14.3814 11.4486 13.9512 11.4927H13.9512C11.2404 11.7707 8.06978 12.0959 5.74889 13.1464C2.57078 14.5259 0.289062 17.2849 0.289062 21.4235C0.289062 26.6169 3.63015 29.2948 7.86763 29.2948C11.4532 29.2948 13.4089 28.4833 16.1796 25.6431C16.2942 25.8092 16.3995 25.9646 16.4996 26.1123C17.182 27.1195 17.6208 27.7671 19.1132 28.9702C19.5207 29.1325 20.0096 29.1325 20.3356 28.889C21.3135 27.9964 23.1877 26.3735 24.1656 25.562C24.5731 25.1562 24.4916 24.5882 24.1656 24.1013C24.0419 23.9222 23.9167 23.7492 23.7927 23.578ZM14.2237 21.9104C13.4088 23.2899 12.1865 24.1825 10.7197 24.1825C8.76391 24.1825 7.62305 22.7218 7.62305 20.5308C7.62305 16.23 11.4531 15.4997 15.1201 15.4997V16.5546L15.123 16.623C15.2034 18.5402 15.2707 20.146 14.2237 21.9104ZM80.1236 11.5739C80.5538 11.5298 80.9724 11.4868 81.3741 11.4424L81.5371 10.8743C81.5371 10.7656 81.5378 10.6555 81.5384 10.5445L81.5384 10.5417C81.5452 9.41112 81.5525 8.18255 80.8852 7.2227C80.2333 6.33008 79.0924 5.92434 78.0331 5.92434C76.0773 5.92434 74.366 6.89811 73.9586 8.9268C73.8771 9.33254 73.5511 9.81942 73.0622 9.81942L68.1728 9.33254C67.7653 9.25139 67.3579 8.9268 67.4394 8.27762C68.5802 2.35385 73.9586 0.568604 78.7665 0.568604C81.2112 0.568604 84.3893 1.21778 86.345 3.08418C88.5842 5.23959 88.5674 7.93961 88.5487 10.9348L88.5487 10.9383C88.547 11.2121 88.5452 11.4884 88.5452 11.767V19.6383C88.5452 21.6668 89.2718 22.6702 90.0465 23.7402C90.1705 23.9115 90.2958 24.0845 90.4195 24.2637C90.7455 24.6694 90.827 25.2375 90.4195 25.562C89.4416 26.3735 87.5674 27.9965 86.5895 28.8891C86.2635 29.1325 85.7746 29.1325 85.3671 28.9702C83.8747 27.7672 83.4359 27.1195 82.7535 26.1124C82.6535 25.9647 82.5481 25.8092 82.4335 25.6432C79.6628 28.4834 77.7071 29.2948 74.1215 29.2948C69.8841 29.2948 66.543 26.617 66.543 21.4235C66.543 17.3661 68.7432 14.6071 71.9213 13.2276C74.2422 12.1771 77.4129 11.8519 80.1236 11.5739ZM76.9736 24.1825C78.3589 24.1825 79.6627 23.2899 80.4776 21.9104C81.3849 20.2541 81.3803 18.7374 81.3749 16.9716L81.3744 16.8123C81.3742 16.7271 81.374 16.6412 81.374 16.5547V15.4998C77.707 15.4998 73.877 16.2301 73.877 20.5309C73.877 22.7219 75.0178 24.1825 76.9736 24.1825ZM34.1064 28.889H29.0541C28.5651 28.8079 28.1577 28.4833 28.0762 27.9964V2.11032C28.0762 1.62344 28.4836 1.2177 29.0541 1.2177H33.7805C34.2694 1.29885 34.6769 1.62344 34.6769 2.11032V5.51852H34.7583C36.0622 2.27262 38.3439 0.730814 41.4405 0.730814C44.5371 0.730814 46.5744 2.27262 47.9597 5.51852C49.1821 2.27262 51.9527 0.730814 54.9678 0.730814C57.0866 0.730814 59.4498 1.62344 60.8351 3.57098C62.2346 5.45228 62.192 8.05152 62.1521 10.4954V10.4954V10.4955V10.4955V10.4956C62.1455 10.8978 62.139 11.2958 62.139 11.6857V27.9964C62.139 28.4833 61.7315 28.889 61.1611 28.889H56.1087C55.6198 28.889 55.2123 28.4833 55.2123 27.9964V14.2825C55.2123 14.0832 55.2148 13.8365 55.2176 13.5595V13.5594C55.2309 12.2569 55.2509 10.2835 55.0493 9.4136C54.7234 7.7095 53.5825 7.22262 52.1157 7.22262C50.8934 7.22262 49.5895 8.03409 49.1006 9.33245C48.5911 10.4921 48.6017 12.3639 48.6097 13.7914V13.7923V13.7932V13.7941V13.7949C48.6107 13.9643 48.6116 14.1275 48.6116 14.2825V27.9964C48.6116 28.4833 48.2042 28.889 47.6338 28.889H42.5814C42.0924 28.889 41.685 28.4833 41.685 27.9964V14.2825C41.685 13.9773 41.6903 13.658 41.6958 13.3308L41.6958 13.3304C41.7427 10.5253 41.7992 7.14147 38.5884 7.14147C35.0692 7.14147 35.0774 10.953 35.0838 13.9141C35.084 14.0385 35.0843 14.1614 35.0843 14.2825V27.9964C35.0843 28.4833 34.6769 28.889 34.1064 28.889ZM112.743 21.9103C109.809 20.2874 106.468 19.8005 103.29 19.8816L111.928 7.62837C112.743 6.4923 113.15 5.84312 113.15 5.27509V2.11034C113.15 1.5423 112.743 1.21771 112.173 1.21771H95.5486C95.0597 1.21771 94.6523 1.62345 94.6523 2.11034V5.76197C94.6523 6.33001 95.0597 6.6546 95.6301 6.6546H104.268L94.3263 20.8554C93.7559 21.748 93.7559 22.803 93.7559 23.371V27.1038C93.7559 27.6718 94.3263 28.2398 94.8967 27.9153C100.52 24.9128 107.283 25.2374 112.417 27.9153C113.069 28.2398 113.639 27.5907 113.639 27.1038V23.1275C113.558 22.803 113.395 22.2349 112.743 21.9103ZM94.4095 33.9202C93.4316 34.0014 93.3501 33.1899 94.165 32.6219C99.5433 28.8079 108.507 29.944 109.485 31.3235C110.544 32.5407 109.159 41.4669 104.107 45.6866C103.373 46.3358 102.64 46.0112 102.966 45.1186L103.024 44.9728L103.025 44.9727C104.193 42.0647 106.694 35.8419 105.492 34.326C104.318 32.8445 97.9521 33.5357 94.7807 33.88L94.4095 33.9202ZM67.4368 43.2521C77.949 43.2521 89.5206 41.0612 100.114 36.598C101.744 35.8677 103.048 37.5718 101.418 38.8702C91.9653 45.7677 78.1935 49.5005 66.3775 49.5005C49.835 49.5005 34.9223 43.4144 23.5952 33.271C22.6989 32.4595 23.5138 31.3235 24.5731 31.9726C36.7966 39.0325 51.8723 43.2521 67.4368 43.2521ZM116.086 15.0128C116.086 6.97922 120.079 0.730856 127.413 0.730856C134.91 0.730856 138.903 7.14151 138.985 15.2563C138.985 23.1276 134.503 29.3759 127.413 29.3759C120.079 29.3759 116.086 22.9653 116.086 15.0128ZM123.5 14.3877C123.499 17.6225 123.495 24.1014 127.412 24.1014C131.323 24.1014 131.486 18.6645 131.568 15.3374C131.568 13.2276 131.486 10.5497 130.834 8.52103C130.264 6.73578 129.123 6.00545 127.493 6.00545C123.745 6.00545 123.5 11.0366 123.5 14.2014L123.5 14.3877ZM149.417 5.92428C150.802 2.43493 152.758 0.730835 156.262 0.730835C158.462 0.730835 160.662 1.54231 162.21 3.89559C163.514 5.92428 163.514 9.41362 163.514 11.9292V28.1587C163.433 28.6456 163.025 28.9702 162.536 28.9702H157.484C156.995 28.9702 156.669 28.5644 156.588 28.1587V14.1202C156.588 13.9025 156.59 13.6773 156.592 13.4468C156.615 10.6701 156.645 7.14149 153.41 7.14149C152.187 7.14149 151.046 7.95297 150.476 9.17018C149.743 10.712 149.661 12.3349 149.661 14.039V27.9153C149.661 28.4021 149.254 28.8079 148.683 28.8079H143.631C143.142 28.8079 142.734 28.4021 142.734 27.9153V2.11034C142.816 1.70461 143.223 1.29887 143.712 1.29887H148.357C148.765 1.29887 149.172 1.62346 149.254 2.0292V5.92428H149.417Z" fill="#2F3241"/>
</svg>
