<svg width="40" height="40" viewBox="0 0 40 40" fill="none" xmlns="http://www.w3.org/2000/svg">
<circle opacity="0.1" cx="20" cy="20" r="20" fill="#E42655"/>
<path fill-rule="evenodd" clip-rule="evenodd" d="M15.7337 14.6666C15.7337 13.535 16.1832 12.4497 16.9834 11.6496C17.7836 10.8494 18.8688 10.3999 20.0004 10.3999C21.132 10.3999 22.2172 10.8494 23.0174 11.6496C23.8175 12.4497 24.2671 13.535 24.2671 14.6666C24.2671 15.7982 23.8175 16.8834 23.0174 17.6836C22.2172 18.4837 21.132 18.9332 20.0004 18.9332C18.8688 18.9332 17.7836 18.4837 16.9834 17.6836C16.1832 16.8834 15.7337 15.7982 15.7337 14.6666ZM15.7337 21.0666C14.3192 21.0666 12.9627 21.6285 11.9625 22.6287C10.9623 23.6289 10.4004 24.9854 10.4004 26.3999C10.4004 27.2486 10.7375 28.0625 11.3376 28.6626C11.9378 29.2628 12.7517 29.5999 13.6004 29.5999H26.4004C27.2491 29.5999 28.063 29.2628 28.6631 28.6626C29.2633 28.0625 29.6004 27.2486 29.6004 26.3999C29.6004 24.9854 29.0385 23.6289 28.0383 22.6287C27.0381 21.6285 25.6815 21.0666 24.2671 21.0666H15.7337Z" fill="#E42655"/>
</svg>
