<svg width="110" height="110" viewBox="0 0 110 110" fill="none" xmlns="http://www.w3.org/2000/svg">
<circle opacity="0.1" cx="55" cy="55" r="55" fill="#F7931A"/>
<path d="M78.1504 70.021L67.6675 64.27L56.3544 70.489V82L78.1504 70.021ZM52.6456 82V70.4823L41.3278 64.2677L30.8496 70.021L52.6456 82ZM54.4882 67.4312L65.8155 61.21V48.781L54.4976 42.571L43.1845 48.781V61.2167L54.4929 67.429L54.4882 67.4312ZM29.0024 43.0345V66.9767L39.4853 61.219V48.7878L29 43.03L29.0024 43.0345ZM75.3972 45.5567L69.5218 48.7878V61.2122L80 66.97V43.0255L75.3972 45.5567ZM30.8496 39.979L41.3396 45.7367L52.648 39.5222V28.0068L30.8496 39.979ZM67.6675 45.7367L78.1551 39.979L56.3496 28V39.5222L67.6675 45.7367Z" fill="#F7931A"/>
</svg>
