<svg width="40" height="40" viewBox="0 0 40 40" fill="none" xmlns="http://www.w3.org/2000/svg">
<circle opacity="0.1" cx="20" cy="20" r="20" fill="#F7931A"/>
<path d="M28.1331 25.3407L24.351 23.2959L20.2694 25.5071V29.5999L28.1331 25.3407ZM18.9314 29.5999V25.5047L14.8481 23.2951L11.0677 25.3407L18.9314 29.5999ZM19.5961 24.4199L23.6828 22.2079V17.7887L19.5995 15.5807L15.5179 17.7887V22.2103L19.5978 24.4191L19.5961 24.4199ZM10.4012 15.7455V24.2583L14.1833 22.2111V17.7911L10.4004 15.7439L10.4012 15.7455ZM27.1398 16.6423L25.02 17.7911V22.2087L28.8004 24.2559V15.7423L27.1398 16.6423ZM11.0677 14.6591L14.8523 16.7063L18.9322 14.4967V10.4023L11.0677 14.6591ZM24.351 16.7063L28.1348 14.6591L20.2677 10.3999V14.4967L24.351 16.7063Z" fill="#F7931A"/>
</svg>
