<svg version="1.2" xmlns="http://www.w3.org/2000/svg" viewBox="0 0 1584 267" width="1584" height="267">
	<title>Barclays_logo-svg</title>
	<defs>
		<clipPath clipPathUnits="userSpaceOnUse" id="cp1">
			<path d="m-1787.21 619.04v-973.49c0.01-56.05 41.69-96.51 96.69-96.51-55 0-99.58-45.47-99.58-101.49l-0.25-273.75c0-24.55 19.52-44.43 43.55-44.43h2368.2c99.85 0 180.79 82.48 180.79 184.22v1396.54c0 45.99-36.6 93.1-81.76 93.1h-2326.84c-99.89 0-180.8-108.67-180.8-184.19z"/>
		</clipPath>
	</defs>
	<style>
		.s0 { fill: #00aeef } 
		.s1 { fill: #00afe9 } 
	</style>
	<g id="g6604">
		<path id="path21" fill-rule="evenodd" class="s0" d="m1578.7 77c-8.5-15.4-26.7-27-46.6-27-17.4 0-32.8 7.1-32.8 25.6 0 15.6 19.3 26.2 39.4 39.2 22 13.7 44.8 30.6 44.8 60 0 38.3-37.3 61.9-80.5 61.9-17.7 0-36.2-3.5-57.1-11.4l3.4-51c10.1 20.3 28.9 36.4 56.6 36.4 21.5 0 37.3-10.3 37.3-28.2 0-15.4-12.9-24.9-28.8-34.4-33.4-20.1-54.5-36.2-54.5-65.3 0-43.6 36.5-58.2 74.3-58.2 22 0 35.8 4 49.8 4zm-185 45.7c-4.8 8-10.8 18.8-14.6 26.7-3.1 15.1-4.7 35.2-4.7 57.4 0 9.2 1.6 21.7 5.8 25.9h-55.3c9.8-9.3 13.8-66.1 13.2-84.1-7.4-25.6-17.5-50.2-32.8-80.1-9.8-18.7-21.2-36.5-28.3-39.9 12.4-1 28.3-1.8 36-1.8 13.7 0 17.5 1.8 25.9 20.3 13.2 29.9 23 52.3 28.9 69 14-21.9 23.8-37 36.5-57.6 3.2-5 5.8-11.4 5.8-17.5 0-4.7-0.8-10-2.9-12.4h54.8c-10.6 2.4-58.2 77.2-68.3 94.1zm-128.1 111.8c-17.5 0-18.8-0.5-32.8-48.6l-5-17.7c-8.5 4-23.6 5.8-47.7 5.8h-24.3l-4.2 9c-6.1 13.5-14.3 29.3-14.3 40.5 0 2.6 0.2 5.5 1.3 9.2h-144.5c8.2-9.2 10.8-39.1 14.8-93.3l0.8-13c2.1-30.9 3.7-54.7 3.5-71.3-0.3-13.8-1.6-22.5-5.3-26.5h55.8c-7.9 6.1-10.9 38.9-14.6 93.1l-1 12.9c-1.3 20.1-4 40.7-4 60.8 0 9.3 3.7 11.4 13.3 11.4 33.8 0 42.3-0.8 57.6-11.1 9.6-17.5 20.4-39.4 31-62.1l14.3-30.4c13.5-28.6 26.7-57.7 26.7-63.2 0-4-1-7.7-2.6-11.4h44.4c0 0 18 66.6 22 80.9l8.7 32.3c15.1 54.2 24.7 80.6 37.4 90.9-10.6 1.3-25.7 1.8-31.3 1.8zm-64.3-158l-32.8 71.1h53.4zm-295.8 160.2c-52.7 0-83.1-43.4-83.1-92 0-67.7 36.8-120.1 106.9-120.1 22 0 32.3 4 50 4l-5.3 52.1c-10-18.3-26.4-30.7-48.4-30.7-43.7 0-61.4 47.1-61.4 87.5 0 43.9 24.6 68 57.4 68 17.8 0 33.4-4.8 59.6-23-10.6 33.8-35.2 54.2-75.7 54.2zm-108.8 4.7c-15.1 0-18.8-2.4-23.8-9.2l-57.2-79.4c-4.5-6-7.9-11.1-15-11.1h-1.4l-1 15.4c-1.4 20.9-2.1 37.5-2.1 50 0.2 13.7 1.8 22.2 5.5 25.6h-55.3c7.9-7.1 10.8-30.9 15.3-93.3l0.8-13c2.2-30.6 3.8-54.4 3.5-71.1-0.3-14.5-1.9-23.5-5.8-26.7 31.5 0 75.4 0 75.4 0 24.6 0 58.5 4.2 58.5 44.2 0 32.7-22 50.7-49.3 59.2 2.7 2.4 7.4 8.4 10.4 12.1l41.5 55c25.9 34.1 28.1 35.7 37.3 40.5-11.6 1.3-27.2 1.8-37.3 1.8zm-73.8-187.9c-5 0-11.1 0-15.9 0.5-1.6 8.7-2.9 23.8-4.8 48.1l-1 14.3c2.6 0.5 6.1 0.8 9.2 0.8 25.4 0 42.9-15.4 42.9-38.6 0-15.9-11.1-25.1-30.4-25.1zm-119.6 181c-17.5 0-18.8-0.5-32.8-48.6l-5.1-17.7c-8.5 4-23.5 5.8-47.6 5.8h-24.4l-4.2 9c-4.2 9.5-14.6 29.1-14.3 40.5 0 2.6 0.3 5.2 1.3 9.2h-48.9c14-14 31.7-46.5 56.4-99.1l14.2-30.4c13-27.5 26.8-58.7 26.8-63.2 0-4-1.1-7.7-2.7-11.4h44.5c0 0 11.6 44.2 22 80.9l8.7 32.3c15.1 54.2 24.6 80.6 37.3 90.9-11.4 1.3-25.7 1.8-31.2 1.8zm-64.3-158l-33.1 71.1h53.7zm-191.1 156.2h-71.4c9-7.9 11.3-38.9 15.3-93.3l0.8-12.7c2.1-31 3.7-54.7 3.4-71.4-0.2-14.3-1.8-23.5-5.8-26.7h79.9c19.1 0 57.2 1.1 57.2 40.7 0 26.4-24.6 42.8-47.1 48.7 31.8 3.1 55.6 18.5 55.6 51.2 0 35.5-33.4 63.5-87.9 63.5zm-3.2-98.6h-14.5l-2.1 30.1c-1.1 13.2-1.6 24.3-1.9 37.6 0 1.8 5.8 5.8 19.6 5.8 28.6 0 47.4-14.3 47.4-37.8 0-26.2-21.5-35.7-48.5-35.7zm6.6-80.9c-3.9 0-9.2 0-14.3 0.5-2.1 14.3-3.4 28-4.4 43.1 0 0-0.8 11.9-0.8 12.4h5.2c26 0 49.8-9 49.8-32.7 0-13.8-11.4-23.3-35.5-23.3zm-19.5 56q0 0.1 0 0z"/>
		<g id="Clip-Path: path4050" clip-path="url(#cp1)">
			<path id="path4050" class="s1" d="m117.3 0c8.4 0.3 15.2 2 20.8 7 5.6 4.9 6.7 16.8 7 22.1 0.3 5.2 0.1 20.9 5.6 28.6 5.6 7.9 11.7 10.2 18.9 10.2q2.5 0 5.2-0.4c9.6-1.1 12.3-6.8 12.3-6.8 0 0-8-2.2-8-12.3-0.1-6.9 5.9-13.3 14.7-15.9 2.8-0.8 5.9-1.2 9.1-1.2 10.3 0 21.9 4.3 29.7 14.4 17.6 23.3 19 57.1 14.7 88.6-4.3 31.6-24.4 60.8-25 61.7-0.3 0.5-0.8 0.8-1.1 0.8q-0.4 0-0.8-0.4c-8.7-8.2-16.9-19.8-20.4-27.4-3.8 2.9-1.8 9.3 0.2 16.2 2.1 7.1 6.9 16.3 8.5 19.2 1.7 2.9 3.9 6.4 1 8.2q-0.5 0.3-1.2 0.3c-3.9 0-13-6.8-23.2-20.4-11.4-15.2-17.2-28.8-17.2-28.8-0.8 0.3-2.1 1.6-2 5.5 0.1 3.9 4.2 18.5 12 31.9 7.9 13.5 15.3 22 16.6 23.8 0.9 1.2 0.2 1.9-0.4 2.3-0.5 0.4-14.6 13.5-34.9 24.6-24 12.8-34.7 15-34.7 15 0 0-10.7-2.3-34.7-15.1-20.3-11-34.3-24.1-34.9-24.5-0.6-0.4-1.4-1.1-0.4-2.2 1.4-1.9 8.7-10.4 16.6-23.9 7.9-13.5 11.9-28 12-31.9 0.3-3.9-1.1-5.3-2-5.5 0 0-5.8 13.6-17.2 28.8-10.2 13.6-19.3 20.4-23.2 20.4q-0.7 0-1.1-0.3c-3-1.8-0.8-5.2 0.9-8.1 1.7-3 6.5-12.3 8.5-19.3 2.1-6.8 4-13.2 0.3-16.2-3.6 7.6-11.8 19.1-20.5 27.5q-0.3 0.3-0.7 0.3c-0.4 0-0.8-0.3-1.2-0.9-0.6-0.8-20.6-30-25-61.6-4.3-31.5-2.8-65.3 14.8-88.6 7.7-10.1 19.3-14.4 29.5-14.4 3.3 0 6.4 0.4 9.3 1.3 8.7 2.5 14.7 8.8 14.8 15.8-0.1 10.1-8.1 12.3-8.1 12.3 0 0 2.9 5.8 12.2 6.9 2.7 0.2 5.3 0.2 5.3 0.2 19.9-0.2 24.8-14.6 25.6-27.6 0.8-13-6.1-18-15.5-19.1-1.1-0.1-2.1-0.2-3.1-0.2-6.8 0-8.8 3.1-8.8 3.1-3.1-5-0.4-11.7 5.4-15.5 6-4 13-4.8 18.4-4.8q1.5 0 2.8 0.1c2.3-2.6 3.8-3.8 10.9-3.8q0.7 0 1.7 0z"/>
		</g>
	</g>
</svg>