<svg width="40" height="40" viewBox="0 0 40 40" fill="none" xmlns="http://www.w3.org/2000/svg">
<circle opacity="0.1" cx="20" cy="20" r="20" fill="#733DEA"/>
<g clip-path="url(#clip0_777_5456)">
<path d="M27.9999 13.8132L26.0265 11.8398C25.8569 11.6781 25.6316 11.5879 25.3972 11.5879C25.1628 11.5879 24.9375 11.6781 24.7679 11.8398L23.0132 13.5998H13.5999C13.317 13.5998 13.0457 13.7122 12.8456 13.9122C12.6456 14.1123 12.5332 14.3836 12.5332 14.6665V26.3998C12.5332 26.6827 12.6456 26.954 12.8456 27.1541C13.0457 27.3541 13.317 27.4665 13.5999 27.4665H25.3332C25.6161 27.4665 25.8874 27.3541 26.0875 27.1541C26.2875 26.954 26.3999 26.6827 26.3999 26.3998V16.6718L27.9999 15.0718C28.1666 14.9048 28.2603 14.6785 28.2603 14.4425C28.2603 14.2065 28.1666 13.9802 27.9999 13.8132ZM20.4425 21.1358L18.2079 21.6318L18.7412 19.4185L23.8345 14.3145L25.5572 16.0372L20.4425 21.1358ZM26.1332 15.4292L24.4105 13.7065L25.3972 12.7198L27.1199 14.4425L26.1332 15.4292Z" fill="#733DEA"/>
</g>
<defs>
<clipPath id="clip0_777_5456">
<rect width="19.2" height="19.2" fill="white" transform="translate(10.4004 10.3999)"/>
</clipPath>
</defs>
</svg>
