<?xml version="1.0" encoding="UTF-8" standalone="no"?>
<!-- Created with Inkscape (http://www.inkscape.org/) -->

<svg
   xmlns:dc="http://purl.org/dc/elements/1.1/"
   xmlns:cc="http://creativecommons.org/ns#"
   xmlns:rdf="http://www.w3.org/1999/02/22-rdf-syntax-ns#"
   xmlns:svg="http://www.w3.org/2000/svg"
   xmlns="http://www.w3.org/2000/svg"
   xmlns:sodipodi="http://sodipodi.sourceforge.net/DTD/sodipodi-0.dtd"
   xmlns:inkscape="http://www.inkscape.org/namespaces/inkscape"
   width="117.3613"
   height="42.798698"
   viewBox="0 0 31.051843 11.323822"
   version="1.1"
   id="svg24012"
   inkscape:version="0.92.0 r15299"
   sodipodi:docname="bucharest stock exchange.svg">
  <defs
     id="defs24006">
    <clipPath
       id="clipPath20307"
       clipPathUnits="userSpaceOnUse">
      <path
         inkscape:connector-curvature="0"
         id="path20305"
         d="M 0,841.89 H 595.282 V 0 H 0 Z" />
    </clipPath>
  </defs>
  <sodipodi:namedview
     id="base"
     pagecolor="#ffffff"
     bordercolor="#666666"
     borderopacity="1.0"
     inkscape:pageopacity="0.0"
     inkscape:pageshadow="2"
     inkscape:zoom="6.8923241"
     inkscape:cx="58.180647"
     inkscape:cy="20.899444"
     inkscape:document-units="mm"
     inkscape:current-layer="layer1"
     showgrid="false"
     fit-margin-top="0"
     fit-margin-left="0"
     fit-margin-right="0"
     fit-margin-bottom="0"
     units="px"
     inkscape:window-width="1280"
     inkscape:window-height="744"
     inkscape:window-x="-4"
     inkscape:window-y="-4"
     inkscape:window-maximized="1" />
  <metadata
     id="metadata24009">
    <rdf:RDF>
      <cc:Work
         rdf:about="">
        <dc:format>image/svg+xml</dc:format>
        <dc:type
           rdf:resource="http://purl.org/dc/dcmitype/StillImage" />
        <dc:title></dc:title>
      </cc:Work>
    </rdf:RDF>
  </metadata>
  <g
     inkscape:label="Layer 1"
     inkscape:groupmode="layer"
     id="layer1"
     transform="translate(-111.60637,-203.51535)">
    <g
       id="g24063"
       transform="translate(0.13229166,-0.13228969)">
      <path
         d="m 124.52791,203.83389 h 0.89641 c 0.10301,0 0.20073,0.0123 0.29069,0.0367 0.0907,0.0251 0.16968,0.0635 0.23671,0.11677 0.0681,0.0529 0.1203,0.12171 0.1591,0.20743 0.0392,0.0854 0.0586,0.18909 0.0586,0.31045 0,0.33408 -0.13617,0.54363 -0.40745,0.629 v 0.008 c 0.0751,0.0131 0.14287,0.0349 0.20531,0.066 0.0628,0.031 0.11466,0.0741 0.15699,0.13017 0.0434,0.0554 0.0765,0.12524 0.0991,0.2092 0.0233,0.0843 0.0349,0.1845 0.0349,0.30092 0,0.11642 -0.0194,0.22119 -0.06,0.31468 -0.0406,0.0928 -0.0967,0.17251 -0.17039,0.23848 -0.0737,0.0663 -0.16404,0.11641 -0.26987,0.15134 -0.10619,0.0349 -0.22437,0.0522 -0.35278,0.0522 h -0.87736 z m 0.88053,2.43734 c 0.13194,0 0.23248,-0.0413 0.30269,-0.12382 0.0702,-0.0829 0.10548,-0.20461 0.10548,-0.36548 0,-0.14958 -0.0406,-0.26529 -0.12065,-0.34713 -0.0801,-0.0811 -0.18486,-0.12207 -0.31433,-0.12207 h -0.41204 v 0.9585 z m -0.0889,-1.26929 c 0.13441,0 0.23636,-0.0399 0.30445,-0.11995 0.0684,-0.0804 0.10266,-0.18662 0.10266,-0.31856 0,-0.0825 -0.0116,-0.14993 -0.0349,-0.20143 -0.0226,-0.0519 -0.0543,-0.0921 -0.0945,-0.12065 -0.0406,-0.0282 -0.0875,-0.0476 -0.14182,-0.0579 -0.0543,-0.0106 -0.11218,-0.0159 -0.17462,-0.0159 h -0.31115 v 0.83432 z m 1.69969,-1.16805 v 1.98755 c 0,0.17568 0.0346,0.30374 0.10301,0.38382 0.0688,0.0804 0.17004,0.1203 0.3048,0.1203 0.13194,0 0.23248,-0.0399 0.30092,-0.1203 0.0688,-0.0801 0.10301,-0.20814 0.10301,-0.38382 v -1.98755 h 0.44168 v 1.95227 c 0,0.16052 -0.0183,0.29634 -0.0579,0.40746 -0.0384,0.11148 -0.0945,0.20144 -0.16651,0.26988 -0.0727,0.0684 -0.16157,0.11853 -0.266,0.14957 -0.10477,0.031 -0.2233,0.0466 -0.35524,0.0466 -0.13194,0 -0.25153,-0.0155 -0.35772,-0.0466 -0.10619,-0.031 -0.19438,-0.0811 -0.26705,-0.14957 -0.0723,-0.0684 -0.12806,-0.1584 -0.16757,-0.26988 -0.0384,-0.11112 -0.0575,-0.24694 -0.0575,-0.40746 v -1.95227 z m 3.38102,1.77765 v 0.0582 c 0,0.12417 -0.0148,0.24588 -0.0434,0.36477 -0.0279,0.11888 -0.0748,0.22507 -0.14147,0.31856 -0.066,0.0928 -0.15346,0.16721 -0.26141,0.2226 -0.10936,0.0561 -0.24482,0.084 -0.40781,0.084 -0.17568,0 -0.32244,-0.0286 -0.4385,-0.0854 -0.11606,-0.0572 -0.21025,-0.14535 -0.28187,-0.26388 -0.0709,-0.11889 -0.12135,-0.26846 -0.15099,-0.44838 -0.0303,-0.17992 -0.0445,-0.39405 -0.0445,-0.64241 0,-0.248 0.0141,-0.46284 0.0445,-0.64276 0.0296,-0.17956 0.0801,-0.32879 0.15099,-0.44803 0.0716,-0.11888 0.16581,-0.20708 0.28363,-0.26388 0.11783,-0.0568 0.26459,-0.085 0.44098,-0.085 0.19614,0 0.35031,0.0314 0.46143,0.0949 0.11183,0.0635 0.19509,0.14041 0.25047,0.23107 0.0554,0.09 0.09,0.18521 0.10301,0.28505 0.0131,0.0995 0.0194,0.1852 0.0194,0.25823 v 0.0505 h -0.44239 v -0.0469 c 0,-0.0646 -0.006,-0.12947 -0.018,-0.19403 -0.0116,-0.0642 -0.0321,-0.12347 -0.0624,-0.17639 -0.0296,-0.0533 -0.0691,-0.0953 -0.11959,-0.12629 -0.0505,-0.031 -0.11642,-0.0455 -0.19615,-0.0427 -0.0832,0 -0.15416,0.0152 -0.21378,0.0448 -0.0593,0.0296 -0.10866,0.0854 -0.14781,0.16687 -0.0381,0.0815 -0.0663,0.19332 -0.085,0.33549 -0.018,0.14252 -0.0268,0.32526 -0.0268,0.54751 0,0.22225 0.009,0.40605 0.0268,0.55104 0.0187,0.14499 0.0469,0.25929 0.085,0.3436 0.0391,0.084 0.0885,0.14217 0.14781,0.17463 0.0596,0.0324 0.13053,0.0483 0.21378,0.0483 0.0924,0 0.16651,-0.0226 0.22084,-0.0677 0.0543,-0.0452 0.0956,-0.1016 0.12453,-0.16863 0.0282,-0.0674 0.0466,-0.14005 0.055,-0.21767 0.007,-0.0776 0.0109,-0.14887 0.0109,-0.21343 v -0.0466 z m 0.31009,-1.77765 h 0.44238 v 1.11019 h 0.81492 v -1.11019 h 0.44274 v 2.77107 h -0.44274 v -1.28835 h -0.81492 v 1.28835 h -0.44238 z m 2.68182,0 h 0.56726 l 0.7292,2.77107 h -0.46144 l -0.17074,-0.67875 h -0.81104 l -0.17921,0.67875 h -0.46143 z m 0.59055,1.73884 -0.31856,-1.36595 h -0.007 l -0.3302,1.36595 z m 1.69545,-0.50447 c 0.14287,0 0.25188,-0.0402 0.32773,-0.12065 0.0765,-0.0797 0.11536,-0.19015 0.11536,-0.32985 0,-0.14711 -0.0328,-0.25929 -0.0991,-0.33549 -0.066,-0.0765 -0.17287,-0.11465 -0.32033,-0.11465 h -0.37641 v 0.90064 z m -0.79481,-1.23437 h 0.97755 c 0.0956,0 0.18626,0.0127 0.27163,0.0388 0.0857,0.0261 0.16052,0.0674 0.22508,0.12417 0.0649,0.0572 0.11536,0.13088 0.15169,0.22119 0.0356,0.091 0.054,0.20038 0.054,0.32985 0,0.17851 -0.0392,0.33091 -0.11607,0.45614 -0.078,0.12559 -0.19332,0.20003 -0.34607,0.22331 v 0.008 c 0.14005,0.0131 0.24624,0.0617 0.31644,0.14746 0.0713,0.0854 0.11112,0.22508 0.11924,0.4191 0.002,0.0907 0.004,0.18627 0.005,0.28752 0.002,0.10089 0.005,0.19226 0.01,0.27516 0.006,0.0674 0.0215,0.11924 0.0487,0.15523 0.0272,0.0363 0.0547,0.0649 0.0836,0.0854 h -0.5013 c -0.0205,-0.0258 -0.0367,-0.0596 -0.0483,-0.1009 -0.012,-0.0413 -0.0201,-0.0893 -0.025,-0.14322 -0.008,-0.0829 -0.0116,-0.16616 -0.0116,-0.24871 0,-0.0822 -0.003,-0.17463 -0.008,-0.27552 -0.003,-0.0748 -0.0109,-0.14041 -0.0254,-0.19579 -0.0138,-0.0557 -0.037,-0.10125 -0.0681,-0.13582 -0.0303,-0.0349 -0.072,-0.0614 -0.12207,-0.0776 -0.0504,-0.0169 -0.11288,-0.0258 -0.18873,-0.0258 h -0.36054 v 1.20333 h -0.44203 z m 2.08421,0 h 1.49789 v 0.37289 h -1.05551 v 0.76835 h 0.99343 v 0.37218 h -0.99343 v 0.88547 h 1.08656 v 0.37218 h -1.52894 z m 2.20804,1.91382 v 0.0695 c 0,0.33902 0.15169,0.50835 0.45437,0.50835 0.0692,0 0.13088,-0.0116 0.18239,-0.0349 0.0515,-0.0236 0.0952,-0.054 0.13017,-0.091 0.0346,-0.0374 0.061,-0.0801 0.0794,-0.12806 0.0176,-0.048 0.0268,-0.0981 0.0268,-0.14958 0,-0.14464 -0.0353,-0.25435 -0.10477,-0.32808 -0.0699,-0.0737 -0.16652,-0.12877 -0.29069,-0.16475 l -0.30304,-0.10477 c -0.10089,-0.0388 -0.18732,-0.0819 -0.26,-0.12806 -0.0723,-0.0469 -0.13264,-0.10054 -0.18062,-0.16122 -0.0473,-0.0607 -0.0825,-0.13018 -0.10477,-0.20779 -0.0219,-0.0773 -0.0328,-0.16545 -0.0328,-0.26388 0,-0.12664 0.0205,-0.23847 0.0624,-0.33584 0.0406,-0.0967 0.0995,-0.17851 0.17462,-0.24412 0.0751,-0.0663 0.16546,-0.11642 0.27164,-0.15134 0.10584,-0.0349 0.22331,-0.0522 0.35278,-0.0522 0.17886,0 0.31962,0.0243 0.42298,0.0737 0.10407,0.0487 0.18239,0.11006 0.2346,0.18379 0.0529,0.0737 0.0878,0.15311 0.10372,0.23707 0.0148,0.084 0.0233,0.16228 0.0233,0.23495 v 0.0621 h -0.44274 v -0.0586 c 0,-0.127 -0.03,-0.22472 -0.0892,-0.29493 -0.06,-0.0695 -0.1591,-0.10477 -0.29916,-0.10477 -0.0462,0 -0.0921,0.007 -0.13758,0.0215 -0.0455,0.0141 -0.0857,0.037 -0.1203,0.0681 -0.0349,0.031 -0.0624,0.0723 -0.084,0.12382 -0.0205,0.0519 -0.0307,0.11395 -0.0307,0.18627 0,0.11924 0.0321,0.21272 0.0967,0.28222 0.0649,0.0677 0.17145,0.13088 0.31891,0.18768 l 0.29845,0.10865 c 0.19685,0.0699 0.34008,0.16157 0.42933,0.27552 0.0893,0.11395 0.133,0.2667 0.133,0.45755 0,0.14782 -0.0205,0.27411 -0.0635,0.37924 -0.043,0.10478 -0.10372,0.19121 -0.18415,0.25965 -0.0804,0.0684 -0.17639,0.11853 -0.28928,0.14957 -0.11253,0.031 -0.23883,0.0466 -0.37888,0.0466 -0.17074,0 -0.31115,-0.0261 -0.42051,-0.0776 -0.11042,-0.0519 -0.19615,-0.11853 -0.25823,-0.19932 -0.0617,-0.0825 -0.10478,-0.17286 -0.12842,-0.27235 -0.0226,-0.0995 -0.0346,-0.19861 -0.0346,-0.29703 v -0.0656 z m 2.12689,-1.54093 h -0.65969 v -0.37289 h 1.75083 v 0.37289 h -0.64875 v 2.39818 h -0.44239 z m -16.37065,5.63068 v 0.0699 c 0,0.33902 0.15134,0.50835 0.45403,0.50835 0.0702,0 0.13052,-0.0116 0.18238,-0.0349 0.0519,-0.0236 0.0949,-0.054 0.13053,-0.091 0.0342,-0.0381 0.061,-0.0808 0.079,-0.12841 0.0187,-0.048 0.0272,-0.0977 0.0272,-0.14922 0,-0.14499 -0.0349,-0.25436 -0.10549,-0.32809 -0.0691,-0.0737 -0.16827,-0.12276 -0.29033,-0.1651 l -0.30233,-0.10477 c -0.10266,-0.0353 -0.18733,-0.0815 -0.26035,-0.12771 -0.0727,-0.0469 -0.13229,-0.10054 -0.18062,-0.16122 -0.048,-0.061 -0.0833,-0.13017 -0.10478,-0.20778 -0.0222,-0.0776 -0.0332,-0.16581 -0.0332,-0.26388 0,-0.12665 0.0208,-0.23883 0.0621,-0.33584 0.042,-0.097 0.0998,-0.17851 0.17462,-0.24448 0.0755,-0.066 0.16581,-0.11677 0.27164,-0.15134 0.10619,-0.0349 0.22402,-0.0526 0.35384,-0.0526 0.17815,0 0.31891,0.0247 0.42298,0.0737 0.10301,0.0494 0.18168,0.11077 0.23495,0.1845 0.0529,0.0737 0.0864,0.15275 0.10266,0.23706 0.0159,0.084 0.0233,0.16228 0.0233,0.2346 v 0.0624 h -0.44238 v -0.0589 c 0,-0.12665 -0.0303,-0.22472 -0.0896,-0.29457 -0.0596,-0.0699 -0.15945,-0.10477 -0.2988,-0.10477 -0.0462,0 -0.0924,0.007 -0.13794,0.0212 -0.0448,0.0141 -0.0854,0.037 -0.11994,0.0681 -0.0353,0.031 -0.0624,0.0723 -0.0833,0.12418 -0.0215,0.0519 -0.0321,0.11359 -0.0321,0.18591 0,0.11924 0.0328,0.21308 0.0974,0.28152 0.0649,0.0688 0.17039,0.13405 0.31856,0.18838 l 0.2988,0.1083 c 0.1965,0.0716 0.33972,0.16193 0.42862,0.27587 0.0896,0.11395 0.13441,0.26635 0.13441,0.45791 0,0.14746 -0.0215,0.27376 -0.0638,0.37853 -0.0434,0.10478 -0.10442,0.19156 -0.18521,0.26035 -0.0794,0.0681 -0.17639,0.11818 -0.28857,0.14923 -0.11289,0.031 -0.23883,0.0466 -0.37853,0.0466 -0.1711,0 -0.31115,-0.0258 -0.42122,-0.0776 -0.10971,-0.0519 -0.19579,-0.11818 -0.25859,-0.20002 -0.0617,-0.0815 -0.10477,-0.17181 -0.1277,-0.27164 -0.0229,-0.0995 -0.0346,-0.19862 -0.0346,-0.29704 v -0.0656 z m 2.1269,-1.54128 h -0.6597 v -0.37254 h 1.75049 v 0.37254 h -0.64841 v 2.39853 h -0.44238 z m 2.0768,2.11948 c 0.0646,0 0.12559,-0.0138 0.1838,-0.0409 0.0586,-0.0272 0.10901,-0.0811 0.15169,-0.16086 0.0427,-0.0804 0.0765,-0.19368 0.10125,-0.33973 0.024,-0.14605 0.0367,-0.33831 0.0367,-0.57679 0,-0.23248 -0.0127,-0.42086 -0.0367,-0.56409 -0.0247,-0.14394 -0.0586,-0.25436 -0.10125,-0.33232 -0.0427,-0.0773 -0.0931,-0.12982 -0.15169,-0.15699 -0.0582,-0.0268 -0.11924,-0.0406 -0.1838,-0.0406 -0.0681,0 -0.12947,0.0138 -0.18697,0.0406 -0.0568,0.0272 -0.10654,0.0797 -0.14958,0.15699 -0.0423,0.078 -0.0755,0.18838 -0.10089,0.33232 -0.0243,0.14323 -0.0367,0.33161 -0.0367,0.56409 0,0.23848 0.0123,0.43074 0.0367,0.57679 0.0254,0.14605 0.0586,0.25929 0.10089,0.33973 0.043,0.0797 0.0928,0.1337 0.14958,0.16086 0.0575,0.0272 0.11888,0.0409 0.18697,0.0409 m 0,0.33373 c -0.31856,0 -0.55069,-0.11677 -0.69709,-0.3496 -0.14605,-0.23283 -0.21943,-0.59584 -0.21943,-1.09044 0,-0.49424 0.0734,-0.8576 0.21943,-1.09043 0.1464,-0.23284 0.37853,-0.34961 0.69709,-0.34961 0.31821,0 0.54998,0.11677 0.69638,0.34961 0.14605,0.23283 0.21873,0.59619 0.21873,1.09043 0,0.4946 -0.0727,0.85761 -0.21873,1.09044 -0.1464,0.23283 -0.37817,0.3496 -0.69638,0.3496 m 3.01166,-1.0481 v 0.0586 c 0,0.12383 -0.0148,0.24553 -0.0427,0.36442 -0.0286,0.11924 -0.0759,0.22543 -0.14147,0.31821 -0.0663,0.0931 -0.15345,0.16792 -0.26246,0.2233 -0.10901,0.0557 -0.24483,0.0836 -0.40711,0.0836 -0.17639,0 -0.32244,-0.0286 -0.43885,-0.0857 -0.11677,-0.0564 -0.21061,-0.14464 -0.28117,-0.26388 -0.0713,-0.11889 -0.12135,-0.26811 -0.15204,-0.44768 -0.0296,-0.17991 -0.0445,-0.3944 -0.0445,-0.64276 0,-0.24835 0.0148,-0.46249 0.0445,-0.6424 0.0307,-0.17992 0.0808,-0.32915 0.15204,-0.44803 0.0706,-0.11889 0.16475,-0.20708 0.28293,-0.26388 0.11783,-0.0568 0.26458,-0.0857 0.44027,-0.0857 0.1972,0 0.35101,0.0317 0.46249,0.0949 0.11077,0.0639 0.19438,0.14041 0.24977,0.23142 0.0554,0.0903 0.09,0.18557 0.10371,0.2854 0.0123,0.0991 0.019,0.18521 0.019,0.25753 v 0.0508 h -0.44273 v -0.0466 c 0,-0.0649 -0.006,-0.12947 -0.0176,-0.19403 -0.0113,-0.0649 -0.0321,-0.12347 -0.0617,-0.17674 -0.03,-0.0529 -0.0695,-0.0949 -0.12065,-0.12594 -0.0505,-0.031 -0.11606,-0.0441 -0.19544,-0.0427 -0.0825,0.001 -0.15487,0.0152 -0.21413,0.0448 -0.0593,0.0296 -0.10831,0.0854 -0.14747,0.16651 -0.0381,0.0815 -0.067,0.19367 -0.085,0.33549 -0.0176,0.14288 -0.0279,0.32491 -0.0279,0.54716 0,0.22295 0.0102,0.40675 0.0279,0.55139 0.018,0.14535 0.0469,0.25965 0.085,0.34361 0.0392,0.0843 0.0882,0.14217 0.14747,0.17427 0.0593,0.0325 0.13158,0.049 0.21413,0.049 0.0928,0 0.16687,-0.0226 0.22084,-0.0681 0.0547,-0.0452 0.096,-0.10125 0.12383,-0.16898 0.0289,-0.067 0.0469,-0.1397 0.055,-0.21696 0.007,-0.078 0.0116,-0.14887 0.0116,-0.21343 v -0.0469 z m 0.3108,-1.77765 h 0.44203 v 1.20721 h 0.007 l 0.83891,-1.20721 h 0.48471 l -0.79939,1.1684 0.88512,1.60267 h -0.50095 l -0.67098,-1.24566 -0.24483,0.34925 v 0.89641 H 132.458 Z m -7.93009,4.08976 h 1.49789 v 0.37288 h -1.05621 v 0.76835 h 0.99448 v 0.37289 h -0.99448 v 0.88441 h 1.08691 v 0.37289 h -1.52859 z m 2.36679,1.36278 -0.66675,-1.36278 h 0.48859 l 0.44274,0.92004 0.43462,-0.92004 h 0.47766 l -0.67169,1.36278 0.70626,1.40864 h -0.48859 l -0.48154,-1.00119 -0.49283,1.00119 h -0.47731 z m 3.1443,0.41486 v 0.0589 c 0,0.12382 -0.0141,0.24553 -0.0427,0.36442 -0.0286,0.11923 -0.0755,0.22507 -0.14147,0.3182 -0.0663,0.0931 -0.1531,0.16757 -0.26211,0.22331 -0.10866,0.0554 -0.24447,0.0833 -0.40816,0.0833 -0.17533,0 -0.32174,-0.0282 -0.4378,-0.0854 -0.11642,-0.0568 -0.21026,-0.14464 -0.28187,-0.26387 -0.0709,-0.11924 -0.12136,-0.26847 -0.15099,-0.44803 -0.0296,-0.17992 -0.0452,-0.39406 -0.0452,-0.64276 0,-0.24801 0.0155,-0.46214 0.0452,-0.64206 0.0296,-0.17992 0.0801,-0.32949 0.15099,-0.44873 0.0716,-0.11854 0.16616,-0.20673 0.28328,-0.26388 0.11853,-0.0568 0.26529,-0.0854 0.44097,-0.0854 0.1965,0 0.35031,0.0318 0.46144,0.0952 0.11147,0.0631 0.19508,0.1404 0.25082,0.23107 0.0561,0.0907 0.09,0.18556 0.10266,0.28539 0.0134,0.0995 0.0194,0.18557 0.0194,0.25788 v 0.0504 h -0.44238 v -0.0462 c 0,-0.0649 -0.006,-0.12947 -0.0173,-0.19438 -0.0116,-0.0649 -0.0328,-0.12347 -0.0624,-0.17639 -0.0296,-0.0529 -0.0695,-0.0952 -0.11994,-0.1263 -0.0512,-0.0307 -0.11571,-0.0451 -0.19685,-0.0427 -0.0825,0 -0.15311,0.0148 -0.21308,0.0445 -0.0593,0.03 -0.10866,0.0857 -0.14746,0.16721 -0.0385,0.0815 -0.0674,0.19333 -0.0857,0.3355 -0.0176,0.14287 -0.0265,0.3249 -0.0265,0.54715 0,0.22261 0.009,0.4064 0.0265,0.55104 0.0183,0.14535 0.0473,0.26 0.0857,0.34396 0.0388,0.084 0.0882,0.14217 0.14746,0.17427 0.06,0.0325 0.13053,0.049 0.21308,0.049 0.0935,0 0.16721,-0.0229 0.22154,-0.0681 0.0543,-0.0455 0.096,-0.10124 0.12488,-0.16898 0.0282,-0.0674 0.0462,-0.1397 0.0543,-0.21731 0.007,-0.0776 0.0109,-0.14852 0.0109,-0.21343 v -0.0469 z m 0.3101,-1.77764 h 0.44344 v 1.11019 h 0.81421 v -1.11019 h 0.44273 v 2.77142 h -0.44273 v -1.28835 h -0.81421 v 1.28835 h -0.44344 z m 2.68217,0 h 0.56691 l 0.72954,2.77142 h -0.46178 l -0.17039,-0.6791 h -0.81175 l -0.1778,0.6791 h -0.46284 z m 0.59055,1.73919 -0.31856,-1.36631 h -0.007 l -0.33055,1.36631 z m 0.90028,-1.73919 h 0.53975 l 0.80328,2.06516 h 0.007 v -2.06516 h 0.4198 v 2.77142 h -0.53939 l -0.80469,-2.11914 h -0.007 v 2.11914 h -0.4191 z m 3.59798,2.44968 h -0.007 c -0.0603,0.12877 -0.13512,0.22402 -0.22613,0.28505 -0.09,0.0607 -0.21696,0.091 -0.37959,0.091 -0.15311,0 -0.28117,-0.0282 -0.38488,-0.0854 -0.10301,-0.0568 -0.18768,-0.14464 -0.254,-0.26387 -0.066,-0.11924 -0.11289,-0.26847 -0.14111,-0.44803 -0.0289,-0.17992 -0.0427,-0.39406 -0.0427,-0.64276 0,-0.49389 0.0723,-0.85761 0.21907,-1.09079 0.14605,-0.23284 0.37924,-0.34925 0.70062,-0.34925 0.17286,0 0.31221,0.03 0.41875,0.0896 0.10618,0.0593 0.18838,0.13124 0.24659,0.2152 0.0579,0.0843 0.097,0.17215 0.11677,0.26423 0.0191,0.0917 0.0289,0.16863 0.0289,0.23107 v 0.0501 h -0.41875 v -0.066 c 0,-0.0519 -0.006,-0.10407 -0.018,-0.15698 -0.0116,-0.0533 -0.0325,-0.1016 -0.0621,-0.1457 -0.0296,-0.0441 -0.0702,-0.0797 -0.1203,-0.10654 -0.0508,-0.0272 -0.11359,-0.0409 -0.18838,-0.0409 -0.0773,0 -0.14676,0.0152 -0.20779,0.0466 -0.061,0.031 -0.11148,0.0871 -0.15099,0.16863 -0.0402,0.0819 -0.0702,0.19368 -0.0917,0.3362 -0.0201,0.14182 -0.0303,0.32314 -0.0303,0.54292 0,0.22261 0.008,0.4064 0.0265,0.55104 0.018,0.14535 0.0466,0.26 0.0836,0.34396 0.0381,0.084 0.0843,0.14217 0.1397,0.17427 0.0554,0.0325 0.121,0.049 0.19614,0.049 0.16757,0.002 0.28716,-0.0624 0.35701,-0.19438 0.0699,-0.13194 0.10513,-0.34925 0.10513,-0.65193 h -0.46602 v -0.33408 h 0.88512 v 1.45944 h -0.33373 z m 0.71403,-2.44968 h 1.52929 v 0.37288 h -1.08726 v 0.76835 h 0.99342 v 0.37289 h -0.99342 v 0.88441 h 1.08726 v 0.37289 h -1.52929 z"
         style="fill:#212944;fill-opacity:1;fill-rule:nonzero;stroke:none;stroke-width:0.35277778"
         id="path20311"
         inkscape:connector-curvature="0" />
      <path
         d="m 120.86784,207.50221 v -2.67159 h -0.68933 c -0.48965,0 -0.72637,0.48825 -0.73519,0.88865 -0.0134,0.63394 0.66393,1.20192 1.42452,1.78294 m -4.75932,3.91795 c -0.0734,1.20438 -1.37654,2.4324 -2.3929,2.4324 h -0.64629 v -5.41831 c 0.3736,-0.26317 0.74719,-0.52599 1.12043,-0.78917 0.89923,0.5775 1.66087,1.1991 1.89971,2.24826 0.11147,-0.63183 0.35595,-1.18146 0.71366,-1.66194 -0.38488,-0.48613 -0.89323,-0.90381 -1.62383,-1.30386 0.37712,-0.30939 0.66851,-0.77788 0.59513,-1.4658 -0.13899,-1.31515 -1.3656,-1.62771 -2.18969,-1.62771 h -1.97837 v 10.94881 h 2.09867 c 1.19027,0 2.19498,-0.52317 3.13126,-1.54411 1.64606,-1.79493 -0.48013,-3.52919 2.84444,-5.59365 0.37359,0.26318 0.74754,0.526 1.12007,0.78917 v 5.41831 h -0.64593 c -1.27141,-0.18768 -2.14983,-1.21249 -2.3929,-2.4324 -0.0367,0.6604 -0.17109,1.22872 -0.66392,1.81857 0.75776,0.99554 1.87783,1.54411 3.06705,1.54411 h 2.09938 v -10.94881 h -1.97803 c -0.82514,0 -2.05069,0.31256 -2.19075,1.62771 -0.0723,0.68792 0.21837,1.15641 0.5962,1.4658 -2.10856,1.32997 -2.4444,2.23484 -2.58339,4.49262 m -3.10586,-3.91795 v -2.67159 h 0.68933 c 0.49036,0 0.72743,0.48825 0.73519,0.88865 0.0141,0.63394 -0.66358,1.20192 -1.42452,1.78294"
         style="fill:#212944;fill-opacity:1;fill-rule:evenodd;stroke:none;stroke-width:0.35277778"
         id="path20315"
         inkscape:connector-curvature="0" />
    </g>
  </g>
</svg>
