<svg width="40" height="40" viewBox="0 0 40 40" fill="none" xmlns="http://www.w3.org/2000/svg">
<circle opacity="0.1" cx="20" cy="20" r="20" fill="#733DEA"/>
<path fill-rule="evenodd" clip-rule="evenodd" d="M10.4004 13.5999C10.4004 12.7512 10.7375 11.9373 11.3376 11.3372C11.9378 10.737 12.7517 10.3999 13.6004 10.3999H26.4004C27.2491 10.3999 28.063 10.737 28.6631 11.3372C29.2633 11.9373 29.6004 12.7512 29.6004 13.5999V26.3999C29.6004 27.2486 29.2633 28.0625 28.6631 28.6626C28.063 29.2628 27.2491 29.5999 26.4004 29.5999H13.6004C12.7517 29.5999 11.9378 29.2628 11.3376 28.6626C10.7375 28.0625 10.4004 27.2486 10.4004 26.3999V13.5999ZM15.2004 21.5999C15.4126 21.5999 15.616 21.6842 15.7661 21.8342C15.9161 21.9842 16.0004 22.1877 16.0004 22.3999V24.7999C16.0004 25.0121 15.9161 25.2156 15.7661 25.3656C15.616 25.5156 15.4126 25.5999 15.2004 25.5999C14.9882 25.5999 14.7847 25.5156 14.6347 25.3656C14.4847 25.2156 14.4004 25.0121 14.4004 24.7999V22.3999C14.4004 22.1877 14.4847 21.9842 14.6347 21.8342C14.7847 21.6842 14.9882 21.5999 15.2004 21.5999ZM19.2004 19.9999C19.2004 19.7877 19.1161 19.5842 18.9661 19.4342C18.816 19.2842 18.6126 19.1999 18.4004 19.1999C18.1882 19.1999 17.9847 19.2842 17.8347 19.4342C17.6847 19.5842 17.6004 19.7877 17.6004 19.9999V24.7999C17.6004 25.0121 17.6847 25.2156 17.8347 25.3656C17.9847 25.5156 18.1882 25.5999 18.4004 25.5999C18.6126 25.5999 18.816 25.5156 18.9661 25.3656C19.1161 25.2156 19.2004 25.0121 19.2004 24.7999V19.9999ZM21.6004 16.7999C21.8126 16.7999 22.016 16.8842 22.1661 17.0342C22.3161 17.1842 22.4004 17.3877 22.4004 17.5999V24.7999C22.4004 25.0121 22.3161 25.2156 22.1661 25.3656C22.016 25.5156 21.8126 25.5999 21.6004 25.5999C21.3882 25.5999 21.1847 25.5156 21.0347 25.3656C20.8847 25.2156 20.8004 25.0121 20.8004 24.7999V17.5999C20.8004 17.3877 20.8847 17.1842 21.0347 17.0342C21.1847 16.8842 21.3882 16.7999 21.6004 16.7999ZM25.6004 15.1999C25.6004 14.9877 25.5161 14.7842 25.3661 14.6342C25.216 14.4842 25.0126 14.3999 24.8004 14.3999C24.5882 14.3999 24.3847 14.4842 24.2347 14.6342C24.0847 14.7842 24.0004 14.9877 24.0004 15.1999V24.7999C24.0004 25.0121 24.0847 25.2156 24.2347 25.3656C24.3847 25.5156 24.5882 25.5999 24.8004 25.5999C25.0126 25.5999 25.216 25.5156 25.3661 25.3656C25.5161 25.2156 25.6004 25.0121 25.6004 24.7999V15.1999Z" fill="#733DEA"/>
</svg>
