<svg width="40" height="40" viewBox="0 0 40 40" fill="none" xmlns="http://www.w3.org/2000/svg">
<circle opacity="0.1" cx="20" cy="20" r="20" fill="#733DEA"/>
<path d="M18.8996 10.7491C19.2192 10.5222 19.6047 10.3999 20.0004 10.3999C20.3961 10.3999 20.7816 10.5222 21.1012 10.7491L29.0169 16.3665C30.0591 17.105 29.5225 18.7074 28.234 18.7105H11.7657C10.4772 18.7074 9.94172 17.105 10.9828 16.3665L18.8985 10.7491H18.8996ZM21.0671 14.82C21.0671 14.545 20.9547 14.2812 20.7546 14.0866C20.5546 13.8921 20.2833 13.7829 20.0004 13.7829C19.7175 13.7829 19.4462 13.8921 19.2461 14.0866C19.0461 14.2812 18.9337 14.545 18.9337 14.82C18.9337 15.0951 19.0461 15.3589 19.2461 15.5534C19.4462 15.748 19.7175 15.8572 20.0004 15.8572C20.2833 15.8572 20.5546 15.748 20.7546 15.5534C20.9547 15.3589 21.0671 15.0951 21.0671 14.82ZM19.2004 24.9326H17.0671V19.7467H19.2004V24.9326ZM22.9337 24.9326H20.8004V19.7467H22.9337V24.9326ZM26.9337 24.9326H24.5337V19.7467H26.9337V24.9326ZM27.2004 25.9698H12.8004C12.1639 25.9698 11.5534 26.2156 11.1033 26.6533C10.6532 27.0909 10.4004 27.6845 10.4004 28.3034V28.822C10.4004 29.2524 10.7588 29.5999 11.2004 29.5999H28.8004C29.0126 29.5999 29.216 29.5179 29.3661 29.3721C29.5161 29.2262 29.6004 29.0283 29.6004 28.822V28.3034C29.6004 27.6845 29.3475 27.0909 28.8974 26.6533C28.4474 26.2156 27.8369 25.9698 27.2004 25.9698ZM15.4671 24.9326H13.0671V19.7467H15.4671V24.9326Z" fill="#733DEA"/>
</svg>
