<svg width="40" height="40" viewBox="0 0 40 40" fill="none" xmlns="http://www.w3.org/2000/svg">
<circle opacity="0.1" cx="20" cy="20" r="20" fill="#1BA27A"/>
<path fill-rule="evenodd" clip-rule="evenodd" d="M15.2912 13.9331L17.3537 15.9955C18.133 15.4804 19.0522 15.1999 20.0004 15.1999C20.9485 15.1999 21.8678 15.4804 22.6471 15.9955L24.7096 13.9331C23.3697 12.893 21.7146 12.3199 20.0004 12.3199C18.2862 12.3199 16.6311 12.893 15.2912 13.9331ZM26.0672 15.2907L24.0048 17.3532C24.5199 18.1325 24.8004 19.0517 24.8004 19.9999C24.8004 20.9481 24.5199 21.8673 24.0048 22.6466L26.0672 24.7091C26.4866 24.1687 26.8329 23.5736 27.0958 22.9389C27.4817 22.0071 27.6804 21.0085 27.6804 19.9999C27.6804 18.2857 27.1073 16.6306 26.0672 15.2907ZM24.7096 26.0667L22.6471 24.0043C21.8678 24.5194 20.9485 24.7999 20.0004 24.7999C19.0522 24.7999 18.133 24.5194 17.3537 24.0043L15.2912 26.0667C15.8316 26.4862 16.4267 26.8324 17.0614 27.0953C17.9932 27.4813 18.9918 27.6799 20.0004 27.6799C21.0089 27.6799 22.0076 27.4813 22.9394 27.0953C23.574 26.8324 24.1692 26.4862 24.7096 26.0667ZM13.9336 24.7091L15.996 22.6466C15.4809 21.8673 15.2004 20.9481 15.2004 19.9999C15.2004 19.0517 15.4809 18.1325 15.996 17.3532L13.9336 15.2907C12.8935 16.6306 12.3204 18.2857 12.3204 19.9999C12.3204 21.0085 12.519 22.0071 12.905 22.9389C13.1679 23.5736 13.5141 24.1687 13.9336 24.7091ZM13.2122 13.2117C15.0125 11.4113 17.4543 10.3999 20.0004 10.3999C22.5465 10.3999 24.9883 11.4113 26.7886 13.2117C28.589 15.012 29.6004 17.4538 29.6004 19.9999C29.6004 21.2606 29.3521 22.5089 28.8696 23.6737C28.3872 24.8384 27.6801 25.8967 26.7886 26.7881C25.8972 27.6796 24.8389 28.3867 23.6742 28.8691C22.5094 29.3516 21.2611 29.5999 20.0004 29.5999C18.7397 29.5999 17.4914 29.3516 16.3266 28.8691C15.1619 28.3867 14.1036 27.6796 13.2122 26.7881C12.3207 25.8967 11.6136 24.8384 11.1311 23.6737C10.6487 22.5089 10.4004 21.2606 10.4004 19.9999C10.4004 17.4538 11.4118 15.012 13.2122 13.2117ZM20.0004 17.1199C19.2366 17.1199 18.504 17.4233 17.9639 17.9634C17.4238 18.5035 17.1204 19.2361 17.1204 19.9999C17.1204 20.7637 17.4238 21.4963 17.9639 22.0364C18.504 22.5765 19.2366 22.8799 20.0004 22.8799C20.7642 22.8799 21.4968 22.5765 22.0369 22.0364C22.577 21.4963 22.8804 20.7637 22.8804 19.9999C22.8804 19.2361 22.577 18.5035 22.0369 17.9634C21.4968 17.4233 20.7642 17.1199 20.0004 17.1199Z" fill="#1BA27A"/>
</svg>
