<svg width="110" height="110" viewBox="0 0 110 110" fill="none" xmlns="http://www.w3.org/2000/svg">
<circle opacity="0.1" cx="55" cy="55" r="55" fill="#1BA27A"/>
<path fill-rule="evenodd" clip-rule="evenodd" d="M41.9912 38.385L47.4696 43.8634C49.5398 42.4952 51.9815 41.75 54.5 41.75C57.0185 41.75 59.4602 42.4952 61.5304 43.8634L67.0088 38.385C63.4497 35.6223 59.0533 34.1 54.5 34.1C49.9467 34.1 45.5503 35.6223 41.9912 38.385ZM70.615 41.9912L65.1366 47.4696C66.5048 49.5398 67.25 51.9815 67.25 54.5C67.25 57.0185 66.5048 59.4602 65.1366 61.5304L70.615 67.0087C71.7291 65.5734 72.6489 63.9925 73.3471 62.3067C74.3723 59.8317 74.9 57.179 74.9 54.5C74.9 49.9467 73.3777 45.5503 70.615 41.9912ZM67.0087 70.615L61.5304 65.1366C59.4602 66.5048 57.0185 67.25 54.5 67.25C51.9815 67.25 49.5398 66.5048 47.4696 65.1366L41.9913 70.615C43.4266 71.7291 45.0075 72.6489 46.6933 73.3471C49.1683 74.3723 51.821 74.9 54.5 74.9C57.179 74.9 59.8317 74.3723 62.3067 73.3471C63.9925 72.6489 65.5734 71.7291 67.0087 70.615ZM38.385 67.0087L43.8634 61.5304C42.4952 59.4602 41.75 57.0185 41.75 54.5C41.75 51.9815 42.4952 49.5398 43.8634 47.4696L38.385 41.9912C35.6223 45.5503 34.1 49.9467 34.1 54.5C34.1 57.179 34.6277 59.8317 35.6529 62.3067C36.3511 63.9925 37.2709 65.5734 38.385 67.0087ZM36.4688 36.4688C41.251 31.6866 47.737 29 54.5 29C61.263 29 67.749 31.6866 72.5312 36.4688C77.3134 41.251 80 47.737 80 54.5C80 57.8487 79.3404 61.1646 78.0589 64.2584C76.7774 67.3522 74.8991 70.1633 72.5312 72.5312C70.1633 74.8991 67.3522 76.7774 64.2584 78.0589C61.1646 79.3404 57.8487 80 54.5 80C51.1513 80 47.8354 79.3404 44.7416 78.0589C41.6478 76.7774 38.8367 74.8991 36.4688 72.5312C34.1009 70.1633 32.2226 67.3522 30.9411 64.2584C29.6596 61.1646 29 57.8487 29 54.5C29 47.737 31.6866 41.251 36.4688 36.4688ZM54.5 46.85C52.4711 46.85 50.5253 47.656 49.0906 49.0906C47.656 50.5253 46.85 52.4711 46.85 54.5C46.85 56.5289 47.656 58.4747 49.0906 59.9094C50.5253 61.344 52.4711 62.15 54.5 62.15C56.5289 62.15 58.4747 61.344 59.9094 59.9094C61.344 58.4747 62.15 56.5289 62.15 54.5C62.15 52.4711 61.344 50.5253 59.9094 49.0906C58.4747 47.656 56.5289 46.85 54.5 46.85Z" fill="#1BA27A"/>
</svg>
