<svg width="152" height="58" viewBox="0 0 152 58" fill="none" xmlns="http://www.w3.org/2000/svg">
<path fill-rule="evenodd" clip-rule="evenodd" d="M150.031 28.1028L150.031 28.103C149.615 29.6669 148.045 35.561 143.186 35.561C141.018 35.561 139.505 33.9645 138.597 32.0187C145.354 30.522 147.624 25.2336 147.624 21.6415C147.624 17.4507 144.598 15.9041 142.026 15.9041C137.841 15.9041 132.344 19.7956 132.344 27.329C132.344 28.0275 132.394 28.6761 132.445 29.2748C130.982 28.8257 129.722 28.0774 128.864 26.7802C130.125 21.1925 129.923 15.8542 127.301 15.8542C125.839 15.8542 124.578 17.7501 124.578 21.9409C124.578 23.5872 125.032 25.4332 125.889 27.0796C125.334 29.624 123.519 35.8104 121.149 35.8104C118.35 35.8104 118.737 24.3697 118.889 19.8651L118.889 19.8647L118.889 19.8608L118.889 19.8577C118.912 19.1709 118.93 18.6461 118.93 18.3487C118.93 16.5028 114.442 14.607 113.484 15.5549C113.08 15.954 112.979 18.4485 112.979 21.6415C112.979 24.2857 113.181 27.3789 113.786 30.2726C113.484 31.8192 112.122 35.8603 109.651 35.8603C106.493 35.8603 107.238 26.0696 107.599 21.34V21.3398V21.3397L107.599 21.3395C107.675 20.3298 107.735 19.5508 107.735 19.147C107.735 17.5006 103.448 15.954 102.389 16.9518C101.986 17.3509 101.683 20.2945 101.683 24.8345C101.683 26.7303 101.784 28.726 102.087 30.6218C101.683 32.6174 100.07 35.8603 97.4979 35.8603C93.3801 35.8603 95.163 20.2272 96.2736 10.4893L96.2876 10.3663C96.943 10.2665 97.6488 10.1668 98.3546 10.067L98.3552 10.0669C98.4998 10.051 98.647 10.0342 98.7955 10.0172L98.7963 10.0171C100.511 9.82082 102.389 9.60576 102.389 10.6157C102.389 13.1601 104.104 13.9584 105.365 13.9584C106.777 13.9584 107.987 12.8608 107.987 10.7654C107.987 8.71988 106.172 6.77416 102.995 6.77416C100.877 6.77416 98.7082 7.02361 96.5902 7.37284C96.6307 6.93169 96.6712 6.5192 96.7089 6.13633C96.8117 5.09029 96.8927 4.26531 96.8927 3.68095C96.8927 1.53566 92.4046 -0.559742 91.4969 0.338286C91.3456 0.487958 90.7405 3.88051 90.1858 8.6201C87.0592 9.21879 83.9831 9.76758 80.9069 9.76758C79.8479 9.76758 79.9992 12.9606 83.5796 12.9606C85.6472 12.9606 87.7148 12.5116 89.8328 11.9628C89.5302 15.2555 89.3285 18.8975 89.3285 22.3899C89.3285 25.533 89.5302 28.2769 89.9336 30.6218C89.5302 32.368 88.2695 35.9102 85.8993 35.9102C82.1234 35.9102 82.9899 25.1706 83.3876 20.2398C83.468 19.2439 83.5292 18.4849 83.5292 18.0993C83.5292 17.0017 79.3941 14.607 78.5368 15.4551C78.436 15.5549 78.3351 16.2533 78.3351 16.2533C78.3351 16.2533 77.7804 15.8542 76.2675 15.8542C70.4683 15.8542 65.8289 22.9387 65.8289 29.3745C65.8289 29.6739 65.8289 29.9732 65.8793 30.2726C64.9716 32.368 62.7023 35.9601 58.6176 35.9601C56.55 35.9601 55.0876 34.613 54.0791 32.8669C60.433 31.0708 62.904 25.5829 62.904 22.0406C62.904 17.8997 59.374 15.8542 56.8022 15.8542C52.3141 15.8542 47.4225 20.2945 47.4225 27.778C47.4225 29.9732 47.8259 31.8192 48.5319 33.4157C47.7251 34.6629 46.5148 35.9102 44.8507 35.9102C41.0483 35.9102 42.4624 25.555 43.0965 20.9121C43.236 19.89 43.3378 19.1447 43.3378 18.8476C43.3378 18.4485 43.3378 17.6503 42.5814 17.1514C41.903 16.6568 38.899 16.1623 36.5403 15.774C35.5676 15.6139 34.7047 15.4719 34.1599 15.3553V14.2577C34.1599 11.2643 32.294 10.6157 31.0333 10.6157C28.9657 10.6157 28.5623 12.9107 28.5623 13.4595C28.5623 14.0083 28.7136 15.954 30.7812 17.1015C30.7812 22.6393 27.2007 35.7605 17.6194 35.7605C10.3577 35.7605 7.7354 28.3767 7.7354 22.8888C7.7354 13.6091 13.2321 6.47481 16.7621 6.47481C18.9747 6.47481 19.1063 8.5956 19.2382 10.7224C19.371 12.8612 19.5041 15.0061 21.7545 15.0061C24.881 15.0061 25.3349 12.0127 25.3349 10.6157C25.3349 8.02142 22.6118 3.18204 16.7621 3.18204C7.48326 3.18204 0.625 14.3575 0.625 23.9365C0.625 33.1662 7.0294 40.55 16.0056 40.55C29.8734 40.55 33.3026 25.982 34.0086 17.8498C34.3308 17.9384 34.8118 18.0458 35.3073 18.1564C36.2078 18.3575 37.1563 18.5692 37.2864 18.698C37.4472 18.8571 37.315 19.9685 37.1234 21.5797L37.1234 21.5798L37.1234 21.5799L37.1234 21.58C36.8943 23.5058 36.5804 26.1455 36.5804 28.726C36.5804 34.6629 38.5471 39.4524 43.2874 39.4524C46.2627 39.4524 48.6328 37.3071 49.8935 35.6607C51.8098 38.1054 54.5833 39.3526 57.3065 39.3526C61.9963 39.3526 65.0724 36.459 66.5853 34.164C67.8964 37.6564 70.5691 39.3526 72.9897 39.3526C76.3684 39.3526 78.3855 34.8625 78.4864 34.164C79.4949 37.3071 81.8651 39.4524 84.5378 39.4524C87.9165 39.4524 89.984 36.4091 90.7909 34.5133C92.0012 37.7062 93.9175 39.4524 96.691 39.4524C99.868 39.4524 101.936 36.6087 102.894 34.7128C103.902 37.5067 105.566 39.4524 108.189 39.4524C111.719 39.4524 113.938 35.8603 114.644 34.0642C115.803 37.1574 117.619 39.3526 120.443 39.3526C123.569 39.3526 126.292 34.9124 127.906 29.9233C129.217 31.1706 130.932 32.0686 132.999 32.3181C134.563 36.8082 138.244 39.3027 142.127 39.3027C148.884 39.3027 151.507 32.4179 151.809 30.8214C152.213 29.175 150.649 27.2292 150.145 27.7281C150.126 27.7467 150.091 27.8808 150.032 28.1016L150.031 28.1028ZM56.6003 17.9995C59.4243 17.9995 57.7602 28.6761 53.1208 30.4222C52.7678 29.2748 52.6165 28.1772 52.6165 27.329C52.5661 23.7369 54.0285 17.9995 56.6003 17.9995ZM73.795 34.9623C68.8531 34.9623 72.3326 18.0494 76.266 18.0494C78.8883 18.0494 78.4849 34.9623 73.795 34.9623ZM141.371 18.0993C144.094 18.0993 142.531 29.1251 137.79 29.8236C137.538 28.9255 137.438 28.0275 137.438 27.329C137.438 23.7369 138.799 18.0993 141.371 18.0993ZM47.6704 47.2875H46.0296C45.9271 47.2875 45.8245 47.3394 45.7732 47.4432L42.8506 52.3736C42.6968 52.5293 42.5942 52.5293 42.4917 52.3736L39.6716 47.4432C39.6203 47.3394 39.5178 47.2875 39.4152 47.2875H37.8257C37.6206 47.2875 37.4668 47.4432 37.4668 47.6508V57.5117C37.4668 57.7193 37.6206 57.875 37.8257 57.875H39.4152C39.6203 57.875 39.7741 57.7193 39.7741 57.5117V52.4255C39.7741 52.1141 40.0818 51.9584 40.2869 52.2179L42.4917 55.8509C42.6455 56.0585 42.9019 56.0585 43.0044 55.8509L45.2605 52.2179C45.4656 51.9584 45.7732 52.1141 45.7732 52.4255V57.5117C45.7732 57.7193 45.9271 57.875 46.1322 57.875H47.7729C47.978 57.875 48.1319 57.7193 48.1319 57.5117V47.6508C48.0293 47.4432 47.8755 47.2875 47.6704 47.2875ZM59.1841 47.2875C59.3334 47.2875 59.433 47.3918 59.4828 47.4961L63.6143 57.4056C63.7139 57.6142 63.5646 57.875 63.3157 57.875H61.673C61.5237 57.875 61.4241 57.7707 61.3743 57.6664L60.7272 55.9974C60.6775 55.8931 60.5779 55.7888 60.4286 55.7888H56.1974C56.0481 55.7888 55.9486 55.8931 55.8988 55.9974L55.3014 57.6664C55.2517 57.7707 55.1521 57.875 55.0028 57.875H53.3103C53.0614 57.875 52.9121 57.6142 53.0117 57.4056L57.193 47.4961C57.2428 47.3918 57.3423 47.2875 57.4917 47.2875H59.1841ZM57.2927 53.7547H59.4332C59.6323 53.7547 59.8314 53.4939 59.7816 53.2853L58.6865 50.4168C58.587 50.156 58.1887 50.156 58.0892 50.4168L56.9941 53.2853C56.8945 53.4939 57.0439 53.7547 57.2927 53.7547ZM89.1475 51.6989C89.0496 51.8027 89.0496 52.0103 89.1475 52.1141L92.6732 57.356C92.8201 57.5636 92.6732 57.875 92.4284 57.875H90.5676C90.4696 57.875 90.3717 57.8231 90.3227 57.7193L87.8743 53.9825C87.7764 53.8268 87.5316 53.8268 87.3847 53.9825L86.1115 55.5914C86.1115 55.6173 86.0992 55.6563 86.087 55.6952C86.0748 55.7341 86.0625 55.773 86.0625 55.799V57.5117C86.0625 57.6674 85.9646 57.8231 85.7687 57.8231H84.2997C84.1528 57.8231 84.0059 57.7193 84.0059 57.5117V47.5989C84.0059 47.4432 84.1038 47.2875 84.2997 47.2875H85.7687C85.9156 47.2875 86.0625 47.3913 86.0625 47.5989V51.647C86.0625 51.9584 86.4053 52.1141 86.6012 51.8546L89.98 47.3913C90.0289 47.3394 90.1269 47.2875 90.2248 47.2875H91.8897C92.1346 47.2875 92.2815 47.5989 92.1346 47.8065L89.1475 51.6989ZM105.947 55.7366H101.117C100.916 55.7366 100.765 55.5801 100.765 55.3715V53.8069C100.765 53.5983 100.916 53.4418 101.117 53.4418H104.337C104.538 53.4418 104.689 53.2853 104.689 53.0767V51.9293C104.689 51.7207 104.538 51.5642 104.337 51.5642H101.117C100.916 51.5642 100.765 51.4077 100.765 51.1991V49.6866C100.765 49.478 100.916 49.3215 101.117 49.3215H105.595C105.796 49.3215 105.947 49.1651 105.947 48.9564V47.6526C105.947 47.4439 105.796 47.2875 105.595 47.2875H98.903C98.7017 47.2875 98.5508 47.4439 98.5508 47.6526V57.5099C98.5508 57.7185 98.7017 57.875 98.903 57.875H105.947C106.148 57.875 106.299 57.7185 106.299 57.5099V56.206C106.35 55.8931 106.148 55.7366 105.947 55.7366ZM111.456 47.2875H119.647C119.797 47.2875 119.948 47.4311 119.848 47.5748V48.8198C119.848 48.9635 119.747 49.1071 119.546 49.1071H116.883C116.732 49.1071 116.581 49.2029 116.581 49.3944V56.6252C116.581 56.7688 116.481 56.9125 116.28 56.9125H114.722C114.571 56.9125 114.421 56.8167 114.421 56.6252V49.3944C114.421 49.2508 114.32 49.1071 114.119 49.1071H111.456C111.305 49.1071 111.154 49.0114 111.154 48.8198V47.5748C111.154 47.4311 111.255 47.2875 111.456 47.2875ZM72.8164 47.2875C75.5934 47.2875 77.2213 48.9483 77.2213 51.2318C77.2213 52.6331 76.6467 53.5673 75.8806 54.242C75.7849 54.3458 75.737 54.5015 75.7849 54.6572L77.0776 57.4079C77.1734 57.6155 77.0297 57.875 76.7903 57.875H75.1146C74.9709 57.875 74.8752 57.7712 74.8273 57.6674L73.7261 55.28C73.6483 55.1114 73.5705 55.114 73.3644 55.1209C73.3167 55.1225 73.2623 55.1243 73.1994 55.1243H73.0079H71.8588C71.5715 55.1243 71.5236 55.1762 71.5236 55.4357V57.5117C71.5236 57.6674 71.4279 57.8231 71.2364 57.8231H69.7521C69.6085 57.8231 69.4648 57.7193 69.4648 57.5117V47.6508C69.4648 47.4951 69.5606 47.3394 69.7521 47.3394C70.8055 47.2875 71.8109 47.2875 72.8164 47.2875ZM72.5768 53.1117C72.7045 53.106 72.8321 53.1002 72.9598 53.1002C74.4441 52.9964 75.1144 52.2179 75.1144 51.2318C75.1144 50.0381 74.1568 49.4153 72.9119 49.3634C72.481 49.3115 72.1459 49.3115 71.8107 49.3115C71.6671 49.3115 71.5234 49.4153 71.5234 49.6229V52.7888C71.5234 52.9445 71.6192 53.1002 71.8107 53.1002C72.066 53.1348 72.3214 53.1233 72.5767 53.1117H72.5768Z" fill="#2F3241"/>
</svg>
