<svg width="40" height="40" viewBox="0 0 40 40" fill="none" xmlns="http://www.w3.org/2000/svg">
<circle opacity="0.1" cx="20" cy="20" r="20" fill="#1A63F1"/>
<path d="M26.4516 22.6751C26.7876 21.8513 26.97 20.9694 26.97 20.0003C26.97 19.3025 26.8644 18.6339 26.682 18.0136C26.058 18.159 25.4052 18.2365 24.7236 18.2365C23.3277 18.238 21.952 17.9007 20.7123 17.2531C19.4726 16.6054 18.4053 15.6664 17.6004 14.5151C16.7394 16.6182 15.1151 18.31 13.0596 19.2444C13.0212 19.4867 13.0212 19.7483 13.0212 20.0003C13.0212 20.9255 13.2017 21.8417 13.5525 22.6965C13.9032 23.5513 14.4173 24.328 15.0654 24.9823C16.3742 26.3035 18.1494 27.0458 20.0004 27.0458C21.0084 27.0458 21.978 26.8229 22.8516 26.4256C23.3988 27.4819 23.6484 28.0053 23.6292 28.0053C22.0548 28.5383 20.8356 28.8 20.0004 28.8C17.6772 28.8 15.4596 27.8793 13.8276 26.2221C12.8349 25.2231 12.0971 23.996 11.6772 22.646H10.4004V18.2365H11.4468C11.7638 16.6787 12.4927 15.2365 13.5561 14.0631C14.6195 12.8896 15.9777 12.0287 17.4867 11.5716C18.9956 11.1145 20.599 11.0784 22.1267 11.4669C23.6543 11.8555 25.0493 12.6543 26.1636 13.7786C27.3734 14.995 28.1986 16.5465 28.5348 18.2365H29.6004V22.646H29.5428L26.1252 25.8151L21.0372 25.2336V23.6151H25.674L26.4516 22.6751ZM17.3796 19.7774C17.6676 19.7774 17.946 19.8937 18.1476 20.1069C18.3502 20.3131 18.4639 20.5918 18.4639 20.8822C18.4639 21.1727 18.3502 21.4513 18.1476 21.6575C17.946 21.861 17.6676 21.9773 17.3796 21.9773C16.7748 21.9773 16.2852 21.4928 16.2852 20.8822C16.2852 20.2717 16.7748 19.7774 17.3796 19.7774ZM22.6116 19.7774C23.2164 19.7774 23.6964 20.2717 23.6964 20.8822C23.6964 21.4928 23.2164 21.9773 22.6116 21.9773C22.0068 21.9773 21.5172 21.4928 21.5172 20.8822C21.5172 20.5892 21.6325 20.3082 21.8377 20.101C22.043 19.8938 22.3213 19.7774 22.6116 19.7774Z" fill="#1A63F1"/>
</svg>
