<svg width="40" height="40" viewBox="0 0 40 40" fill="none" xmlns="http://www.w3.org/2000/svg">
<circle opacity="0.1" cx="20" cy="20" r="20" fill="#26C18F"/>
<path d="M28.1235 12H11.8773C11.4856 12 11.1099 12.1532 10.833 12.426C10.556 12.6988 10.4004 13.0688 10.4004 13.4545V26.5455C10.4004 26.9312 10.556 27.3012 10.833 27.574C11.1099 27.8468 11.4856 28 11.8773 28H28.1235C28.5152 28 28.8908 27.8468 29.1678 27.574C29.4448 27.3012 29.6004 26.9312 29.6004 26.5455V13.4545C29.6004 13.0688 29.4448 12.6988 29.1678 12.426C28.8908 12.1532 28.5152 12 28.1235 12ZM16.7512 21.6C16.9078 21.7157 17.0114 21.888 17.0391 22.079C17.0668 22.2699 17.0164 22.4639 16.8989 22.6182C16.7813 22.7725 16.6064 22.8745 16.4125 22.9018C16.2186 22.9291 16.0217 22.8794 15.865 22.7636L12.9112 20.5818C12.8194 20.5141 12.745 20.4262 12.6937 20.3252C12.6425 20.2243 12.6158 20.1129 12.6158 20C12.6158 19.8871 12.6425 19.7757 12.6937 19.6748C12.745 19.5738 12.8194 19.4859 12.9112 19.4182L15.865 17.2364C16.0217 17.1206 16.2186 17.0709 16.4125 17.0982C16.6064 17.1255 16.7813 17.2275 16.8989 17.3818C17.0164 17.5361 17.0668 17.7301 17.0391 17.921C17.0114 18.112 16.9078 18.2843 16.7512 18.4L14.5847 20L16.7512 21.6ZM22.1872 15.1091L19.2333 25.2909C19.2081 25.3844 19.1643 25.4719 19.1043 25.5485C19.0444 25.6251 18.9695 25.6891 18.8842 25.7369C18.7988 25.7846 18.7046 25.8151 18.6071 25.8266C18.5096 25.838 18.4108 25.8302 18.3164 25.8036C18.222 25.777 18.134 25.7322 18.0574 25.6717C17.9808 25.6112 17.9173 25.5362 17.8705 25.4512C17.8236 25.3663 17.7945 25.2729 17.7847 25.1767C17.775 25.0805 17.7848 24.9833 17.8136 24.8909L20.7675 14.7091C20.8242 14.527 20.9513 14.3742 21.1212 14.2834C21.2912 14.1925 21.4906 14.171 21.6765 14.2234C21.8624 14.2758 22.0201 14.3979 22.1156 14.5635C22.211 14.7291 22.2367 14.925 22.1872 15.1091ZM27.0896 20.5818L24.1358 22.7636C23.9791 22.8794 23.7821 22.9291 23.5883 22.9018C23.3944 22.8745 23.2194 22.7725 23.1019 22.6182C22.9844 22.4639 22.934 22.2699 22.9617 22.079C22.9894 21.888 23.0929 21.7157 23.2496 21.6L25.4161 20L23.2496 18.4C23.172 18.3427 23.1067 18.2709 23.0573 18.1887C23.0079 18.1065 22.9754 18.0156 22.9617 17.921C22.9479 17.8265 22.9533 17.7302 22.9773 17.6377C23.0014 17.5452 23.0437 17.4582 23.1019 17.3818C23.1601 17.3054 23.233 17.241 23.3165 17.1924C23.3999 17.1437 23.4923 17.1117 23.5883 17.0982C23.6843 17.0847 23.782 17.09 23.876 17.1137C23.9699 17.1374 24.0582 17.1791 24.1358 17.2364L27.0896 19.4182C27.1813 19.4859 27.2558 19.5738 27.307 19.6748C27.3583 19.7757 27.385 19.8871 27.385 20C27.385 20.1129 27.3583 20.2243 27.307 20.3252C27.2558 20.4262 27.1813 20.5141 27.0896 20.5818Z" fill="#26C18F"/>
</svg>
