<svg width="22" height="18" viewBox="0 0 10 8" fill="none" xmlns="http://www.w3.org/2000/svg">
<path fill-rule="evenodd" clip-rule="evenodd" d="M2.80208 3.58028C2.74682 3.63706 2.67531 3.67934 2.59252 3.69902C1.83108 3.88011 1.2651 4.56528 1.2651 5.38159C1.2651 6.33671 2.03939 7.11101 2.99452 7.11101C3.15908 7.11101 3.31756 7.08816 3.46731 7.04571C3.69704 6.98059 3.93607 7.11403 4.00119 7.34376C4.06632 7.57349 3.93287 7.81251 3.70314 7.87764C3.47739 7.94163 3.23957 7.97572 2.99452 7.97572C1.56182 7.97572 0.400391 6.81428 0.400391 5.38159C0.400391 4.2462 1.12945 3.28199 2.14456 2.93003C2.29044 1.39451 3.58362 0.193359 5.15735 0.193359C6.73866 0.193359 8.03672 1.40612 8.17217 2.95227C9.15504 3.32131 9.85472 4.2693 9.85472 5.38159C9.85472 6.81428 8.6933 7.97572 7.26059 7.97572C7.01554 7.97572 6.77772 7.94163 6.55197 7.87764C6.32224 7.81251 6.1888 7.57349 6.25392 7.34376C6.31904 7.11403 6.55807 6.98059 6.7878 7.04571C6.93755 7.08816 7.09603 7.11101 7.26059 7.11101C8.21573 7.11101 8.99001 6.33672 8.99001 5.38159C8.99001 4.56528 8.42404 3.88011 7.66259 3.69902C7.48131 3.65591 7.35409 3.5045 7.3332 3.32968C7.32401 3.29461 7.31912 3.2578 7.31912 3.21985C7.31912 2.02593 6.35126 1.05807 5.15735 1.05807C3.96343 1.05807 2.99557 2.02593 2.99557 3.21985C2.99557 3.37032 2.9187 3.50284 2.80208 3.58028ZM7.00472 5.07705C7.1729 5.24655 7.17183 5.5203 7.00233 5.68849L5.46057 7.21825C5.29134 7.38616 5.01812 7.3854 4.84982 7.21655L3.35074 5.71252C3.18217 5.54339 3.18262 5.26964 3.35175 5.10107C3.52087 4.93251 3.79462 4.93296 3.96319 5.10208L4.72442 5.86583V3.21985C4.72442 2.98106 4.918 2.78749 5.15678 2.78749C5.39556 2.78749 5.58913 2.98106 5.58913 3.21985V5.87255L6.39328 5.07466C6.56278 4.90648 6.83653 4.90755 7.00472 5.07705Z" fill="white"/>
</svg>
