<svg width="19" height="19" viewBox="0 0 19 19" fill="none" xmlns="http://www.w3.org/2000/svg">
<path fill-rule="evenodd" clip-rule="evenodd" d="M18.988 3L15.988 0L13.701 2.288L16.701 5.288L18.988 3ZM8 13.988H5V10.988L12.287 3.701L15.287 6.701L8 13.988ZM5.158 16.988H16V10.32L18 8.32004V16.988C18 17.5185 17.7893 18.0272 17.4142 18.4023C17.0391 18.7773 16.5304 18.988 16 18.988H2C0.897 18.988 0 18.092 0 16.988V2.98804C0 1.88404 0.897 0.988037 2 0.988037H10.847L8.847 2.98804H2V16.988H4.979C4.99515 16.9885 5.01108 16.9908 5.02688 16.9931C5.04435 16.9956 5.06168 16.998 5.079 16.998C5.092 16.998 5.10525 16.9955 5.1185 16.993C5.13175 16.9905 5.145 16.988 5.158 16.988Z" fill="#1A63F1"/>
</svg>