<svg width="400" height="350" viewBox="0 0 598 587" fill="none" xmlns="http://www.w3.org/2000/svg">
<g style="mix-blend-mode:luminosity" opacity="0.2">
<path d="M63.2451 539.831H52.3281V540.262H63.2451V539.831Z" fill="#EBEBEB"/>
<path d="M260.304 547.109H98.7393V547.54H260.304V547.109Z" fill="#EBEBEB"/>
<path d="M414.728 478.916C414.193 478.916 413.693 478.589 413.503 478.054C413.262 477.381 413.624 476.64 414.296 476.398C416.211 475.726 605.094 408.654 594.194 338.547C589.055 305.538 466.829 309.349 337.394 313.368C187.506 318.024 32.4946 322.853 5.65911 276.219C-1.7741 263.284 -1.72236 248.883 5.84883 233.396C31.0804 181.76 129.799 132.728 186.402 108.1C273.41 70.2445 374.698 40.0633 450.721 29.3532C451.428 29.267 452.083 29.7499 452.187 30.457C452.29 31.1641 451.79 31.8195 451.083 31.9229C375.268 42.5985 274.238 72.7108 187.437 110.48C91.6671 152.148 26.3376 197.368 8.17709 234.551C1.01982 249.211 0.916346 262.818 7.90116 274.96C33.9605 320.249 195.111 315.23 337.308 310.815C473.572 306.573 591.262 302.916 596.729 338.185C601.472 368.625 572.257 401.583 509.911 436.145C463.759 461.722 415.624 478.709 415.141 478.865C415.003 478.916 414.848 478.934 414.71 478.934L414.728 478.916Z" fill="white"/>
<path d="M414.728 478.916C414.193 478.916 413.693 478.589 413.503 478.054C413.262 477.381 413.624 476.64 414.296 476.398C416.211 475.726 605.094 408.654 594.194 338.547C589.055 305.538 466.829 309.349 337.394 313.368C187.506 318.024 32.4946 322.853 5.65911 276.219C-1.7741 263.284 -1.72236 248.883 5.84883 233.396C31.0804 181.76 129.799 132.728 186.402 108.1C273.41 70.2445 374.698 40.0633 450.721 29.3532C451.428 29.267 452.083 29.7499 452.187 30.457C452.29 31.1641 451.79 31.8195 451.083 31.9229C375.268 42.5985 274.238 72.7108 187.437 110.48C91.6671 152.148 26.3376 197.368 8.17709 234.551C1.01982 249.211 0.916346 262.818 7.90116 274.96C33.9605 320.249 195.111 315.23 337.308 310.815C473.572 306.573 591.262 302.916 596.729 338.185C601.472 368.625 572.257 401.583 509.911 436.145C463.759 461.722 415.624 478.709 415.141 478.865C415.003 478.916 414.848 478.934 414.71 478.934L414.728 478.916Z" fill="black"/>
<path d="M6.79674 276.892C6.34833 276.892 5.91716 276.667 5.67571 276.236C-1.7575 263.301 -1.70576 248.901 5.86543 233.413C31.097 181.777 129.816 132.746 186.418 108.118C273.427 70.2619 374.715 40.0806 450.737 29.3706C451.445 29.2843 452.1 29.7672 452.203 30.4743C452.307 31.1814 451.807 31.8368 451.1 31.9403C375.284 42.6158 274.255 72.7281 187.453 110.498C91.6837 152.165 26.3542 197.385 8.19369 234.569C1.03642 249.228 0.932935 262.836 7.91774 274.977C8.27992 275.598 8.05572 276.391 7.43485 276.736C7.22789 276.857 7.00369 276.909 6.79674 276.909V276.892Z" fill="black"/>
<path d="M414.725 478.916C414.191 478.916 413.69 478.589 413.501 478.054C413.259 477.382 413.621 476.64 414.294 476.399C416.208 475.726 605.091 408.654 594.192 338.548C594.088 337.841 594.571 337.185 595.278 337.064C595.985 336.961 596.641 337.444 596.761 338.151C601.504 368.591 572.289 401.549 509.943 436.111C463.791 461.687 415.657 478.675 415.174 478.83C415.036 478.882 414.88 478.899 414.742 478.899L414.725 478.916Z" fill="black"/>
<path d="M382.804 185.606L383.339 172.275C383.339 172.275 386.909 168.739 386.909 166.445C386.909 164.152 382.804 151.027 381.011 150.406C379.217 149.785 369.576 154.356 369.404 157.287C369.231 160.202 374.405 171.033 375.302 171.861L373.87 186.02L382.804 185.606Z" fill="#E4897B"/>
<path d="M528.07 167.204L523.482 154.01C523.482 154.01 519.309 150.958 518.067 149.285C516.825 147.612 523.827 135.125 524.879 135.125C525.931 135.125 533.278 139.161 534.33 140.403C535.382 141.645 529.881 151.786 529.881 151.786L536.693 163.168L528.087 167.204H528.07Z" fill="#E4897B"/>
<path d="M501.389 164.979C507.719 165.6 538.142 198.092 538.142 198.092L525.017 161.633L535.434 158.098C535.434 158.098 561.062 198.92 555.422 213.925C549.8 228.929 499.596 194.557 499.596 194.557L501.389 164.979Z" fill="black"/>
<path d="M404.087 552.938L396.999 543.659L409.003 532.087L419.92 521.567L430.181 531.156L416.384 542.676L404.087 552.938Z" fill="#E4897B"/>
<path d="M396.584 540.831C397.619 540.072 406.415 553.249 406.415 553.249C406.415 553.249 404.466 566.977 408.415 575.824C412.382 584.672 404.673 583.93 398.274 575.531C391.876 567.149 386.978 560.751 382.425 554.783C377.872 548.816 385.788 548.678 396.584 540.831Z" fill="#2E353A"/>
<path d="M406.276 555.801C406.276 555.801 412.157 553.904 412.847 557.077C413.623 560.733 406.276 555.801 406.276 555.801ZM406.276 555.801C406.276 555.801 412.226 560.216 410.64 562.199C408.26 565.217 406.276 555.801 406.276 555.801Z" stroke="#577AFA" stroke-width="0.827829" stroke-linecap="round" stroke-linejoin="round"/>
<path opacity="0.2" d="M416.383 542.677L409.002 532.087L419.919 521.567L430.181 531.156L416.383 542.677Z" fill="black"/>
<path d="M475.022 567.615H463.346L461.432 551.369L459.707 536.468L473.556 534.208L474.332 551.886L475.022 567.615Z" fill="#E4897B"/>
<path d="M460.843 566.856C460.877 565.563 476.675 566.58 476.675 566.58C476.675 566.58 486.402 576.462 495.836 578.687C505.287 580.912 500.009 586.569 489.454 586.569H463.343C455.841 586.569 460.532 580.188 460.843 566.856Z" fill="#2E353A"/>
<path d="M478.624 568.253C478.624 568.253 480.694 562.424 483.626 563.804C487.006 565.407 478.624 568.253 478.624 568.253ZM478.624 568.253C478.624 568.253 485.747 566.218 486.368 568.667C487.316 572.392 478.624 568.253 478.624 568.253Z" stroke="#577AFA" stroke-width="0.827829" stroke-linecap="round" stroke-linejoin="round"/>
<path opacity="0.2" d="M474.332 552.248L461.432 551.679L459.707 536.623L473.556 534.294L474.332 552.248Z" fill="black"/>
<path d="M504.133 286.946C504.133 286.946 538.609 368.419 544.024 404.188C549.439 439.94 426.99 535.812 426.99 535.812L414.469 522.481C414.469 522.481 505.564 428.833 505.564 412.725C505.564 396.616 470.037 323.043 470.037 323.043C470.037 323.043 466.605 293.379 504.133 286.946Z" fill="black"/>
<path opacity="0.6" d="M479.177 491.213C466.656 502.733 454.567 513.133 445.167 520.997C434.25 530.121 426.99 535.795 426.99 535.795L414.469 522.481C414.469 522.481 426.99 509.632 442.718 492.61C455.101 479.227 469.502 463.274 481.385 448.994C495.148 432.454 505.564 418.14 505.564 412.707C505.564 404.205 495.682 379.749 486.352 358.501C477.97 339.479 470.037 323.026 470.037 323.026C470.037 323.026 469.537 318.679 471.02 312.954C473.417 303.727 480.988 290.913 504.15 286.929C504.15 286.929 538.609 368.418 544.024 404.153C546.99 423.693 511.739 461.204 479.177 491.196V491.213Z" fill="white"/>
<path opacity="0.2" d="M481.386 448.994L479.178 491.196C466.657 502.716 454.568 513.116 445.168 520.98C443.685 514.582 441.96 504.165 442.719 492.593C455.102 479.21 469.503 463.257 481.386 448.977V448.994Z" fill="black"/>
<path opacity="0.2" d="M486.351 358.519C477.97 339.496 470.036 323.043 470.036 323.043C470.036 323.043 469.536 318.697 471.019 312.971C473.227 311.608 474.934 311.315 474.934 311.315C474.934 311.315 485.127 327.337 486.351 358.501V358.519Z" fill="black"/>
<path d="M442.011 99.9085C442.011 99.9085 452.479 86.8529 469.674 89.7676C486.886 92.6822 483.747 124.416 483.747 124.416C483.747 124.416 494.371 132.711 491.042 147.06C487.714 161.409 448.651 169.739 433.698 159.736C418.763 149.751 430.318 118.069 437.509 113.602C444.684 109.118 442.011 99.8912 442.011 99.8912V99.9085Z" fill="#2E353A"/>
<path d="M475.261 311.315L477.348 426.056V543.47H457.808C411.156 320.991 443.149 265.216 443.149 265.216L443.269 265.25C443.269 265.25 443.338 265.06 443.373 264.991C450.875 248.331 500.027 260.611 500.027 260.611C503.563 274.425 505.736 302.468 505.736 302.468L475.279 311.333L475.261 311.315Z" fill="black"/>
<path opacity="0.6" d="M475.261 311.315L477.348 426.056V543.47H457.808C411.156 320.991 443.149 265.216 443.149 265.216L443.269 265.25C443.269 265.25 443.338 265.06 443.373 264.991C450.875 248.331 500.027 260.611 500.027 260.611C503.563 274.425 505.736 302.468 505.736 302.468L475.279 311.333L475.261 311.315Z" fill="white"/>
<path d="M442.857 256.627V264.957L499.771 260.594V250.746L442.857 256.627Z" fill="#2E353A"/>
<path d="M461.934 253.183L459.109 253.327L459.843 267.709L462.668 267.565L461.934 253.183Z" fill="black"/>
<path d="M486.631 252.74L474.194 253.854L475.039 263.285L487.476 262.17L486.631 252.74Z" fill="white"/>
<path d="M496.722 249.312L493.897 249.456L494.631 263.838L497.456 263.694L496.722 249.312Z" fill="black"/>
<path opacity="0.6" d="M461.934 253.183L459.109 253.327L459.843 267.709L462.668 267.565L461.934 253.183Z" fill="white"/>
<path opacity="0.6" d="M496.722 249.312L493.897 249.456L494.631 263.838L497.456 263.694L496.722 249.312Z" fill="white"/>
<path d="M500.01 251.746L443.079 256.679C441.734 235.517 440.372 221.875 427.851 184.157C426.764 180.863 425.591 177.362 424.298 173.654C432.024 171.188 439.906 169.291 447.908 167.963C456.359 166.462 464.913 165.566 473.467 165.255C484.557 165.169 497.268 166.428 497.268 166.428C497.268 166.428 499.078 166.859 500.217 178.587C501.269 189.624 502.286 211.648 499.993 251.746H500.01Z" fill="black"/>
<path opacity="0.3" d="M500.01 251.746L443.079 256.679C441.734 235.517 440.372 221.875 427.851 184.157C426.764 180.863 425.591 177.362 424.298 173.654C432.024 171.188 439.906 169.291 447.908 167.963C456.359 166.462 464.913 165.566 473.467 165.255C484.557 165.169 497.268 166.428 497.268 166.428C497.268 166.428 499.078 166.859 500.217 178.587C501.269 189.624 502.286 211.648 499.993 251.746H500.01Z" fill="black"/>
<path d="M468.796 177.828C454.774 176.034 450.549 170.032 450.549 170.032C459.448 161.633 452.049 147.077 452.049 147.077L468.934 150.233C468.485 153.027 468.295 155.373 468.278 157.339C468.157 167.583 472.78 167.687 472.78 167.687C475.746 173.24 468.778 177.811 468.778 177.811L468.796 177.828Z" fill="#E4897B"/>
<path opacity="0.2" d="M468.933 150.233C468.485 153.027 468.295 155.373 468.278 157.339C460.137 155.459 452.049 147.077 452.049 147.077L468.933 150.233Z" fill="black"/>
<path d="M453.877 103.496C468.175 100.098 474.608 106.669 479.143 121.173C484.817 139.282 483.834 153.338 465.019 153.648C439.459 154.062 430.129 109.135 453.877 103.513V103.496Z" fill="#E4897B"/>
<path d="M469.709 122.553C469.709 122.553 472.572 125.813 475.28 127.503C475.28 127.503 474.521 129.745 471.899 130.021L469.726 122.57L469.709 122.553Z" fill="#DE5753"/>
<path d="M460.671 123.467C460.981 124.64 460.585 125.743 459.809 125.95C459.033 126.157 458.153 125.364 457.843 124.208C457.532 123.036 457.912 121.932 458.705 121.725C459.481 121.518 460.36 122.311 460.671 123.467Z" fill="#2E353A"/>
<path d="M458.394 121.863L460.67 120.207C460.67 120.207 459.963 122.674 458.394 121.863Z" fill="#2E353A"/>
<path d="M475.142 119.414C475.453 120.587 475.073 121.69 474.28 121.897C473.504 122.104 472.624 121.311 472.314 120.155C472.004 118.983 472.4 117.879 473.176 117.672C473.952 117.465 474.832 118.258 475.142 119.414Z" fill="#2E353A"/>
<path d="M472.865 117.81L475.142 116.154C475.142 116.154 474.435 118.621 472.865 117.81Z" fill="#2E353A"/>
<path d="M458.188 113.619C458.188 113.619 454.049 114.05 452.497 117.258" stroke="#2E353A" stroke-width="1.24174" stroke-linecap="round" stroke-linejoin="round"/>
<path d="M468.449 110.549C468.449 110.549 470.76 109.014 474.434 110.377" stroke="#2E353A" stroke-width="1.24174" stroke-linecap="round" stroke-linejoin="round"/>
<path d="M471.14 136.143C470.726 138.058 470.657 141.507 470.657 141.507C470.347 141.559 470.036 141.61 469.709 141.645C465.449 142.214 463.276 141.058 462.172 139.627C461.568 138.834 461.292 137.937 461.154 137.195C460.999 136.333 461.085 135.695 461.085 135.695C463.517 136.747 467.536 136.523 469.674 136.316C470.571 136.229 471.123 136.143 471.123 136.143H471.14Z" fill="#2E353A"/>
<path d="M469.674 136.316L469.484 137.885C465.466 138.403 462.569 138.23 461.154 137.195C460.999 136.333 461.085 135.695 461.085 135.695C463.517 136.747 467.536 136.523 469.674 136.316Z" fill="white"/>
<path d="M469.71 141.645C465.45 142.214 463.277 141.058 462.173 139.627C463.639 139.489 465.415 139.489 467.036 139.937C468.278 140.282 469.123 140.938 469.71 141.645Z" fill="#DE5753"/>
<path d="M443.96 131.314C443.96 131.314 447.858 117.983 444.702 109.135C444.702 109.135 470.313 90.8366 478.522 119.276C478.522 119.276 475.245 93.0787 450.514 98.3216C425.834 103.565 434.423 139.523 449.651 147.233C449.651 147.233 441.563 139.627 443.96 131.297V131.314Z" fill="#2E353A"/>
<path d="M447.012 133.78C446.374 131.504 443.063 128.158 438.889 129.641C434.577 131.176 434.612 140.782 446.167 140.351C447.823 140.282 448.357 138.54 447.012 133.78Z" fill="#E4897B"/>
<path d="M500.236 178.57C478.851 189.159 446.1 186.693 427.87 184.14C426.784 180.846 425.611 177.345 424.317 173.637C432.044 171.171 439.925 169.274 447.928 167.946C456.379 166.445 464.933 165.549 473.487 165.238C484.576 165.152 497.287 166.411 497.287 166.411C497.287 166.411 499.098 166.842 500.236 178.57Z" fill="#E4897B"/>
<path d="M436.249 167.894C436.249 167.894 451.564 187.469 452.047 208.716C452.513 229.964 438.353 327.872 438.353 327.872L421.279 323.043C421.279 323.043 434.197 247.676 421.279 174.879L436.266 167.894H436.249Z" fill="black"/>
<path d="M483.766 165.772C483.766 165.772 490.009 186.072 489.182 200.662C488.354 215.235 504.134 287.084 504.134 287.084L508.722 298.139L504.169 253.591C504.169 253.591 506.928 188.21 501.375 165.79H483.749L483.766 165.772Z" fill="black"/>
<path d="M453.876 103.496C453.876 103.496 459.17 121.501 443.045 129.676C423.557 139.541 425.419 160.84 444.425 163.548C444.425 163.548 425.229 161.633 421.504 149.078C417.71 136.333 428.351 117.241 428.351 117.241C428.351 117.241 422.522 106.634 438.268 98.3044C447.15 93.6134 453.876 103.478 453.876 103.478V103.496Z" fill="#2E353A"/>
<path d="M455.291 540.641L479.712 537.071L477.677 546.833L457.516 549.54L455.291 540.641Z" fill="black"/>
<path d="M414.469 517.979L430.853 535.795L422.661 540.469L410.02 527.068L414.469 517.979Z" fill="black"/>
<path d="M511.531 126.709C508.582 121.432 502.856 119.034 498.734 121.328C494.612 123.622 493.663 129.762 496.612 135.039C499.562 140.317 505.287 142.714 509.409 140.42C513.531 138.126 514.48 131.987 511.531 126.709Z" fill="black"/>
<path d="M545.004 108.239L534.863 89.5952C534.863 89.5952 527.775 104.789 517.6 110.481L522.756 119.725L523.567 121.173L528.741 130.418C538.916 124.726 555.559 126.641 555.559 126.641L544.987 108.239H545.004Z" fill="black"/>
<path opacity="0.8" d="M511.531 126.709C508.582 121.432 502.856 119.034 498.734 121.328C494.612 123.622 493.663 129.762 496.612 135.039C499.562 140.317 505.287 142.714 509.409 140.42C513.531 138.126 514.48 131.987 511.531 126.709Z" fill="white"/>
<path opacity="0.8" d="M545.004 108.239L534.863 89.5952C534.863 89.5952 527.775 104.789 517.6 110.481L522.756 119.725L523.567 121.173L528.741 130.418C538.916 124.726 555.559 126.641 555.559 126.641L544.987 108.239H545.004Z" fill="white"/>
<path d="M510.841 137.626C510.841 137.626 518.17 148.25 525.017 152.113C525.5 152.389 526.104 152.251 526.449 151.82L532.278 144.577C532.761 143.99 532.554 143.111 531.847 142.8C528.967 141.524 522.24 138.247 518.36 133.66C513.324 127.71 510.823 137.609 510.823 137.609L510.841 137.626Z" fill="black"/>
<path opacity="0.3" d="M510.841 137.626C510.841 137.626 518.17 148.25 525.017 152.113C525.5 152.389 526.104 152.251 526.449 151.82L532.278 144.577C532.761 143.99 532.554 143.111 531.847 142.8C528.967 141.524 522.24 138.247 518.36 133.66C513.324 127.71 510.823 137.609 510.823 137.609L510.841 137.626Z" fill="black"/>
<path d="M555.474 127.175C553.146 128.486 546.523 121.087 540.694 110.653C534.864 100.219 532.019 90.6988 534.364 89.4053C536.693 88.0946 543.315 95.4933 549.145 105.927C554.974 116.362 557.819 125.882 555.474 127.175Z" fill="white"/>
<path opacity="0.4" d="M554.525 124.105C552.783 125.088 547.609 119.259 542.746 110.894C542.47 110.429 542.194 109.928 541.918 109.428C541.59 108.825 541.262 108.256 540.952 107.669C536.485 99.2357 534.278 91.9405 536.002 90.9747C537.865 89.9399 543.522 96.5108 548.644 105.651C553.749 114.792 556.388 123.053 554.525 124.088V124.105Z" fill="black"/>
<path d="M508.46 142.369C508.46 142.369 505.96 140.593 501.407 132.47C496.491 123.674 496.629 121.225 496.629 121.225L519.36 108.515C519.36 108.515 519.636 111.705 524.241 119.949C528.811 128.124 531.191 129.676 531.191 129.676L508.46 142.387V142.369Z" fill="black"/>
<path d="M542.746 110.894C542.47 110.429 542.194 109.929 541.918 109.428C541.59 108.825 541.263 108.256 540.952 107.669L543.298 106.928C543.832 106.755 544.315 107.048 544.591 107.531L544.781 107.859C545.057 108.342 545.04 108.894 544.608 109.273L542.746 110.894Z" fill="white"/>
<path opacity="0.2" d="M542.746 110.894C542.47 110.429 542.194 109.929 541.918 109.428C541.59 108.825 541.263 108.256 540.952 107.669L543.298 106.928C543.832 106.755 544.315 107.048 544.591 107.531L544.781 107.859C545.057 108.342 545.04 108.894 544.608 109.273L542.746 110.894Z" fill="black"/>
<path d="M421.281 174.861C413.365 178.294 385.029 228.843 385.029 228.843L384.477 181.07L371.697 179.397C371.697 179.397 363.919 247.159 380.579 251.056C397.239 254.937 427.8 206.612 427.8 206.612L421.281 174.844V174.861Z" fill="black"/>
<path d="M452.049 101.357C452.049 101.357 459.379 106.652 453.929 120.466" stroke="#2E353A" stroke-width="0.862322" stroke-linecap="round" stroke-linejoin="round"/>
<path d="M482.195 123.243C482.195 123.243 502.356 136.298 489.284 153.114" stroke="#2E353A" stroke-width="0.862322" stroke-linecap="round" stroke-linejoin="round"/>
<path d="M72.0086 0H361.628C371.528 0 379.564 8.03685 379.564 17.9363V567.529C379.564 577.428 371.528 585.465 361.628 585.465H72.0086C62.1091 585.465 54.0723 577.428 54.0723 567.529V17.9363C54.0723 8.03685 62.1091 0 72.0086 0Z" fill="#2E353A"/>
<path d="M368.7 19.6263V564.821C368.7 569.305 365.095 572.789 360.611 572.789H72.3884C68.2665 572.789 65.1621 569.598 65.1621 565.476V18.9709C65.1621 15.4009 67.7836 12.2793 71.3536 12.2793H143.409C145.444 12.2793 147.29 13.6073 148.049 15.5216L151.032 22.8686C151.791 24.7657 153.636 26.0765 155.671 26.0765H278.345C280.38 26.0765 282.226 24.8175 282.985 22.9204L285.968 15.5389C286.727 13.6245 288.573 12.2793 290.608 12.2793H361.628C365.561 12.2793 368.7 15.6941 368.7 19.6263Z" fill="black"/>
<path opacity="0.2" d="M368.7 47.6345H65.1621V115.758H368.7V47.6345Z" fill="white"/>
<path opacity="0.6" d="M99.3962 34.2515H103.139V29.25H99.3962V34.2515Z" fill="white"/>
<path opacity="0.6" d="M93.2917 34.2341H97.0342V27.5598H93.2917V34.2341Z" fill="white"/>
<path opacity="0.6" d="M87.1862 34.2341H90.9287V25.9041H87.1862V34.2341Z" fill="white"/>
<path opacity="0.6" d="M81.0632 34.2515H84.8057V24.2485H81.0632V34.2515Z" fill="white"/>
<path opacity="0.6" d="M335.138 27.4219H332.913V32.4233H335.138V27.4219Z" fill="white"/>
<path opacity="0.6" d="M336.637 34.2344H354.349V25.5939H336.637V34.2344Z" fill="white"/>
<path opacity="0.6" d="M210.049 17.1603C212.354 17.1603 214.222 15.2917 214.222 12.9866C214.222 10.6816 212.354 8.81299 210.049 8.81299C207.744 8.81299 205.875 10.6816 205.875 12.9866C205.875 15.2917 207.744 17.1603 210.049 17.1603Z" fill="white"/>
<path opacity="0.6" d="M222.657 12.9864C222.657 14.4524 221.467 15.6596 219.984 15.6596C218.501 15.6596 217.311 14.4696 217.311 12.9864C217.311 11.5032 218.501 10.3132 219.984 10.3132C221.467 10.3132 222.657 11.5032 222.657 12.9864Z" fill="white"/>
<path opacity="0.2" d="M368.7 469.31V564.821C368.7 569.305 365.095 572.789 360.611 572.789H72.3884C68.2665 572.789 65.1621 569.598 65.1621 565.476V469.31H368.7Z" fill="white"/>
<path d="M98.499 286.86L216.827 187.434L335.137 286.86L242.369 411.293L159.051 409.62L98.499 286.86Z" fill="black"/>
<path opacity="0.3" d="M98.499 286.86L216.827 187.434L335.137 286.86L242.369 411.293L159.051 409.62L98.499 286.86Z" fill="black"/>
<path d="M297.093 154.666H136.545C134.402 154.666 132.665 156.403 132.665 158.546V396.858C132.665 399.001 134.402 400.738 136.545 400.738H297.093C299.236 400.738 300.973 399.001 300.973 396.858V158.546C300.973 156.403 299.236 154.666 297.093 154.666Z" fill="white"/>
<path opacity="0.2" d="M281.829 176.879H151.826C151.14 176.879 150.584 177.435 150.584 178.121V180.639C150.584 181.325 151.14 181.881 151.826 181.881H281.829C282.515 181.881 283.071 181.325 283.071 180.639V178.121C283.071 177.435 282.515 176.879 281.829 176.879Z" fill="black"/>
<path opacity="0.2" d="M281.829 193.557H151.826C151.14 193.557 150.584 194.113 150.584 194.799V197.317C150.584 198.002 151.14 198.558 151.826 198.558H281.829C282.515 198.558 283.071 198.002 283.071 197.317V194.799C283.071 194.113 282.515 193.557 281.829 193.557Z" fill="black"/>
<path opacity="0.2" d="M281.829 210.234H151.826C151.14 210.234 150.584 210.79 150.584 211.476V213.994C150.584 214.679 151.14 215.235 151.826 215.235H281.829C282.515 215.235 283.071 214.679 283.071 213.994V211.476C283.071 210.79 282.515 210.234 281.829 210.234Z" fill="black"/>
<path opacity="0.2" d="M281.829 226.911H151.826C151.14 226.911 150.584 227.467 150.584 228.153V230.671C150.584 231.357 151.14 231.913 151.826 231.913H281.829C282.515 231.913 283.071 231.357 283.071 230.671V228.153C283.071 227.467 282.515 226.911 281.829 226.911Z" fill="black"/>
<path opacity="0.2" d="M281.829 243.589H151.826C151.14 243.589 150.584 244.145 150.584 244.83V247.348C150.584 248.034 151.14 248.59 151.826 248.59H281.829C282.515 248.59 283.071 248.034 283.071 247.348V244.83C283.071 244.145 282.515 243.589 281.829 243.589Z" fill="black"/>
<path opacity="0.2" d="M281.829 260.249H151.826C151.14 260.249 150.584 260.804 150.584 261.49V264.008C150.584 264.694 151.14 265.25 151.826 265.25H281.829C282.515 265.25 283.071 264.694 283.071 264.008V261.49C283.071 260.804 282.515 260.249 281.829 260.249Z" fill="black"/>
<path opacity="0.2" d="M281.829 276.926H151.826C151.14 276.926 150.584 277.482 150.584 278.168V280.686C150.584 281.372 151.14 281.927 151.826 281.927H281.829C282.515 281.927 283.071 281.372 283.071 280.686V278.168C283.071 277.482 282.515 276.926 281.829 276.926Z" fill="black"/>
<path opacity="0.2" d="M281.829 293.604H151.826C151.14 293.604 150.584 294.159 150.584 294.845V297.363C150.584 298.049 151.14 298.605 151.826 298.605H281.829C282.515 298.605 283.071 298.049 283.071 297.363V294.845C283.071 294.159 282.515 293.604 281.829 293.604Z" fill="black"/>
<path opacity="0.2" d="M281.829 310.281H151.826C151.14 310.281 150.584 310.836 150.584 311.522V314.04C150.584 314.726 151.14 315.282 151.826 315.282H281.829C282.515 315.282 283.071 314.726 283.071 314.04V311.522C283.071 310.836 282.515 310.281 281.829 310.281Z" fill="black"/>
<path d="M223.157 373.575L222.502 373.213C220.104 371.885 217.207 371.902 214.827 373.247L211.636 375.058L97.9307 286.86V432.385C97.9307 436.68 101.432 439.991 105.726 439.991H327.929C332.206 439.991 334.207 436.697 334.207 432.385V286.86L223.157 373.575Z" fill="black"/>
<path opacity="0.6" d="M223.157 373.575L222.502 373.213C220.104 371.885 217.207 371.902 214.827 373.247L211.636 375.058L97.9307 286.86V432.385C97.9307 436.68 101.432 439.991 105.726 439.991H327.929C332.206 439.991 334.207 436.697 334.207 432.385V286.86L223.157 373.575Z" fill="white"/>
<path opacity="0.2" d="M206.497 371.074L211.636 375.058L131.285 420.675L206.497 371.074Z" fill="black"/>
<path opacity="0.2" d="M310.924 422.4L223.036 373.661L227.089 370.488L310.924 422.4Z" fill="black"/>
<path d="M267.808 58.2585H171.797C171.006 58.2585 170.365 58.8994 170.365 59.69V66.0194C170.365 66.81 171.006 67.4509 171.797 67.4509H267.808C268.598 67.4509 269.239 66.81 269.239 66.0194V59.69C269.239 58.8994 268.598 58.2585 267.808 58.2585Z" fill="black"/>
<path d="M347.434 106.548H303.162C299.989 106.548 297.419 103.979 297.419 100.805C297.419 97.632 299.989 95.0623 303.162 95.0623H347.434C350.607 95.0623 353.177 97.632 353.177 100.805C353.177 103.979 350.607 106.548 347.434 106.548Z" fill="black"/>
<path d="M131.284 483.677H87.0127V525.637H131.284V483.677Z" fill="black"/>
<path d="M185.128 483.677H140.856V525.637H185.128V483.677Z" fill="black"/>
<path d="M238.988 483.677H194.717V525.637H238.988V483.677Z" fill="black"/>
<path d="M292.851 483.677H248.579V525.637H292.851V483.677Z" fill="black"/>
<path d="M346.692 483.677H302.421V525.637H346.692V483.677Z" fill="black"/>
<path d="M347.434 555.249H303.162C299.989 555.249 297.419 552.68 297.419 549.506C297.419 546.333 299.989 543.763 303.162 543.763H347.434C350.607 543.763 353.177 546.333 353.177 549.506C353.177 552.68 350.607 555.249 347.434 555.249Z" fill="black"/>
<path opacity="0.1" d="M338.328 0.206787L54.8135 403.636V224.911L212.584 0.206787H338.328Z" fill="white"/>
<path opacity="0.1" d="M173.572 0.206787L54.8135 169.808V17.9534C54.8135 8.03667 62.0915 0.206787 72.0082 0.206787H173.572Z" fill="white"/>
<g opacity="0.8">
<path d="M6.79869 276.892C6.35028 276.892 5.91912 276.667 5.67767 276.236C-1.75555 263.301 -1.70381 248.901 5.86738 233.413C31.0989 181.777 129.818 132.746 186.42 108.118C273.429 70.2619 374.717 40.0806 450.739 29.3706C451.446 29.2843 452.102 29.7672 452.205 30.4743C452.309 31.1814 451.809 31.8368 451.102 31.9403C375.286 42.6158 274.257 72.7281 187.455 110.498C91.6857 152.165 26.3561 197.385 8.19565 234.569C1.03837 249.228 0.934888 262.836 7.9197 274.977C8.28187 275.598 8.05767 276.391 7.4368 276.736C7.22984 276.857 7.00565 276.909 6.79869 276.909V276.892Z" fill="white"/>
<path d="M414.727 478.916C414.193 478.916 413.692 478.589 413.503 478.054C413.261 477.382 413.623 476.64 414.296 476.399C416.21 475.726 605.093 408.654 594.194 338.548C594.09 337.841 594.573 337.185 595.28 337.064C595.987 336.961 596.643 337.444 596.763 338.151C601.506 368.591 572.291 401.549 509.945 436.111C463.793 461.687 415.659 478.675 415.176 478.83C415.038 478.882 414.882 478.899 414.744 478.899L414.727 478.916Z" fill="white"/>
</g>
<path d="M486.283 47.6345L559.546 8.81274L495.458 29.9224L486.283 47.6345Z" fill="black"/>
<path opacity="0.3" d="M486.283 47.6345L559.546 8.81274L495.458 29.9224L486.283 47.6345Z" fill="black"/>
<path d="M468.968 13.2796L482.523 22.6271L486.283 47.6345L495.458 29.9224L518.672 41.5982L559.546 8.81274L468.968 13.2796Z" fill="black"/>
<path opacity="0.6" d="M468.968 13.2796L482.523 22.6271L486.283 47.6345L495.458 29.9224L518.672 41.5982L559.546 8.81274L468.968 13.2796Z" fill="white"/>
<path opacity="0.2" d="M482.524 22.6271L559.547 8.81274L495.459 29.9224L486.284 47.6345L482.524 22.6271Z" fill="black"/>
</g>
</svg>
