<svg width="151" height="50" viewBox="0 0 151 50" fill="none" xmlns="http://www.w3.org/2000/svg">
<path fill-rule="evenodd" clip-rule="evenodd" d="M19.5787 17.6932H37.1147C37.1147 17.6932 37.4265 18.9503 37.4265 21.1503C37.4265 31.6002 29.9444 38.593 19.7345 38.593C8.12175 38.593 0.25 29.0859 0.25 19.3432C0.25 9.36469 8.58938 0.171929 19.4228 0.2505C27.918 0.2505 32.5943 5.43616 32.5943 5.43616L29.0092 9.20755C29.0092 9.20755 25.5799 5.43616 19.6566 5.43616C12.0187 5.43616 5.93948 11.5647 5.93948 19.5003C5.93948 27.5931 12.3304 33.4073 19.6566 33.4073C25.3461 33.4073 31.4252 30.1859 32.0488 22.8788H19.5787V17.6932ZM51.3787 13.8433C44.2084 13.8433 39.0645 19.5003 39.0645 26.1003C39.0645 32.8574 44.0525 38.593 51.5346 38.593C58.3152 38.593 63.7708 33.4859 63.7708 26.2574C63.6929 18.0861 57.302 13.8433 51.3787 13.8433ZM51.4576 18.7932C54.9648 18.7932 58.3162 21.7003 58.3162 26.2574C58.3162 30.8145 55.0428 33.7216 51.4576 33.7216C47.5607 33.7216 44.5211 30.5788 44.5211 26.1789C44.4432 21.9361 47.4828 18.7932 51.4576 18.7932ZM65.873 26.1003C65.873 19.5003 71.017 13.8433 78.1873 13.8433C84.1106 13.8433 90.5015 18.0861 90.5794 26.2574C90.5794 33.4859 85.1238 38.593 78.3431 38.593C70.8611 38.593 65.873 32.8574 65.873 26.1003ZM85.1248 26.2574C85.1248 21.7003 81.7734 18.7932 78.2662 18.7932C74.2914 18.7932 71.2518 21.9361 71.3297 26.1789C71.3297 30.5788 74.3693 33.7216 78.2662 33.7216C81.8514 33.7216 85.1248 30.8145 85.1248 26.2574ZM104.452 13.9218C97.8275 13.9218 92.6836 19.736 92.6836 26.2574C92.6836 33.643 98.6848 38.6716 104.296 38.6716C107.804 38.6716 109.596 37.3359 111.077 35.6859V38.1216C111.077 42.3644 108.505 44.9572 104.608 44.9572C100.867 44.9572 98.9966 42.1287 98.2951 40.5573L93.5409 42.5215C95.1776 46.0572 98.529 49.75 104.53 49.75C111.077 49.75 116.065 45.5858 116.065 36.8644V14.6289H110.921V16.7504C109.518 15.0218 107.336 13.9218 104.452 13.9218ZM104.919 18.7932C108.115 18.7932 111.466 21.6218 111.466 26.336C111.466 31.2074 108.193 33.8002 104.841 33.8002C101.334 33.8002 98.0605 30.8931 98.0605 26.4146C98.1385 21.5432 101.49 18.7932 104.919 18.7932ZM127.68 26.1788C127.68 18.7932 132.902 13.8432 139.137 13.8432C143.969 13.8432 147.632 17.1432 149.269 20.9146L150.126 22.9574L133.681 29.8716C134.694 31.7573 136.253 33.643 139.682 33.643C142.722 33.643 144.592 31.993 145.683 30.2645L149.97 33.1716C148.099 35.6858 144.826 38.593 139.682 38.593C133.525 38.593 127.68 33.9573 127.68 26.1788ZM143.889 21.3074C143.11 19.8146 141.551 18.636 139.291 18.636C135.784 18.636 132.355 22.3289 132.978 25.9431L143.889 21.3074ZM125.262 37.8858H119.885V1.42902H125.262V37.8858Z" fill="#2F3241"/>
</svg>
