<svg width="50" height="50" viewBox="0 0 50 50" fill="none" xmlns="http://www.w3.org/2000/svg">
<circle cx="25" cy="25" r="25" fill="#2F3241" fill-opacity="0.05"/>
<path fill-rule="evenodd" clip-rule="evenodd" d="M27.5298 16.6561C27.7062 16.5089 27.9098 16.3978 28.129 16.3294C28.3482 16.2609 28.5788 16.2364 28.8075 16.2572C29.0362 16.278 29.2585 16.3437 29.4619 16.4506C29.6652 16.5575 29.8455 16.7035 29.9924 16.8801L35.8177 23.8801C35.9711 24.0557 36.0879 24.2603 36.1613 24.4818C36.2346 24.7033 36.2629 24.9373 36.2446 25.1699C36.2263 25.4025 36.1617 25.6291 36.0546 25.8364C35.9476 26.0436 35.8002 26.2274 35.6211 26.3768C35.4421 26.5261 35.235 26.6382 35.0121 26.7062C34.7892 26.7743 34.555 26.7971 34.3231 26.7732C34.0913 26.7492 33.8666 26.6791 33.6622 26.567C33.4579 26.4548 33.278 26.3029 33.1331 26.1201L27.3061 19.1201C27.0096 18.7636 26.8666 18.3038 26.9085 17.8418C26.9505 17.3797 27.1739 16.9533 27.5298 16.6561Z" fill="#F7931A"/>
<path fill-rule="evenodd" clip-rule="evenodd" d="M27.5298 33.3442C27.1739 33.0471 26.9505 32.6207 26.9085 32.1586C26.8666 31.6966 27.0096 31.2367 27.3061 30.8802L33.1331 23.8803C33.278 23.6975 33.4579 23.5455 33.6622 23.4334C33.8666 23.3212 34.0913 23.2511 34.3231 23.2272C34.555 23.2033 34.7892 23.2261 35.0121 23.2941C35.235 23.3622 35.4421 23.4742 35.6211 23.6236C35.8002 23.773 35.9476 23.9567 36.0546 24.164C36.1617 24.3713 36.2263 24.5979 36.2446 24.8305C36.2629 25.0631 36.2346 25.2971 36.1613 25.5186C36.0879 25.7401 35.9711 25.9446 35.8177 26.1203L29.9924 33.1202C29.8455 33.2969 29.6652 33.4429 29.4619 33.5498C29.2585 33.6567 29.0362 33.7224 28.8075 33.7432C28.5788 33.764 28.3482 33.7395 28.129 33.671C27.9098 33.6026 27.7062 33.4915 27.5298 33.3442Z" fill="#F7931A"/>
<path fill-rule="evenodd" clip-rule="evenodd" d="M32.7266 25C32.7266 25.4641 32.5424 25.9092 32.2147 26.2374C31.8869 26.5656 31.4423 26.75 30.9788 26.75L16.9968 26.75C16.5332 26.75 16.0887 26.5656 15.7609 26.2374C15.4332 25.9092 15.249 25.4641 15.249 25C15.249 24.5359 15.4332 24.0907 15.7609 23.7626C16.0887 23.4344 16.5332 23.25 16.9968 23.25L30.9788 23.25C31.4423 23.25 31.8869 23.4344 32.2147 23.7626C32.5424 24.0907 32.7266 24.5359 32.7266 25Z" fill="#F7931A"/>
</svg>
