<svg width="40" height="40" viewBox="0 0 50 50" fill="none" xmlns="http://www.w3.org/2000/svg">
<rect x="0.5" y="0.5" width="49" height="49" rx="9.5" stroke="#2F3241"/>
<path d="M16.6067 14C15.9153 14 15.2523 14.2675 14.7635 14.7436C14.2746 15.2198 14 15.8656 14 16.539C14 17.2123 14.2746 17.8581 14.7635 18.3343C15.2523 18.8104 15.9153 19.0779 16.6067 19.0779C17.298 19.0779 17.961 18.8104 18.4499 18.3343C18.9387 17.8581 19.2133 17.2123 19.2133 16.539C19.2133 15.8656 18.9387 15.2198 18.4499 14.7436C17.961 14.2675 17.298 14 16.6067 14ZM14.1533 21.1688C14.1127 21.1688 14.0737 21.1846 14.0449 21.2126C14.0162 21.2406 14 21.2786 14 21.3182V36.8506C14 36.9331 14.0687 37 14.1533 37H19.06C19.1007 37 19.1397 36.9843 19.1684 36.9563C19.1972 36.9282 19.2133 36.8903 19.2133 36.8506V21.3182C19.2133 21.2786 19.1972 21.2406 19.1684 21.2126C19.1397 21.1846 19.1007 21.1688 19.06 21.1688H14.1533ZM22.1267 21.1688C22.086 21.1688 22.047 21.1846 22.0182 21.2126C21.9895 21.2406 21.9733 21.2786 21.9733 21.3182V36.8506C21.9733 36.9331 22.042 37 22.1267 37H27.0333C27.074 37 27.113 36.9843 27.1418 36.9563C27.1705 36.9282 27.1867 36.8903 27.1867 36.8506V28.487C27.1867 27.8929 27.429 27.323 27.8603 26.9029C28.2917 26.4828 28.8767 26.2468 29.4867 26.2468C30.0967 26.2468 30.6817 26.4828 31.113 26.9029C31.5443 27.323 31.7867 27.8929 31.7867 28.487V36.8506C31.7867 36.9331 31.8554 37 31.94 37H36.8467C36.8873 37 36.9263 36.9843 36.9551 36.9563C36.9838 36.9282 37 36.8903 37 36.8506V26.5514C37 23.6516 34.4117 21.3839 31.4493 21.6456C30.5327 21.7268 29.6349 21.9478 28.7887 22.3003L27.1867 22.9694V21.3182C27.1867 21.2786 27.1705 21.2406 27.1418 21.2126C27.113 21.1846 27.074 21.1688 27.0333 21.1688H22.1267Z" fill="#2F3241"/>
</svg>
