<svg width="48" height="49" viewBox="0 0 48 49" fill="none" xmlns="http://www.w3.org/2000/svg">
<circle opacity="0.1" cx="24.2132" cy="24.5901" r="23.7796" fill="#7F6EE9"/>
<path d="M23.8458 18.5385C23.8918 18.5613 23.9286 18.616 23.9838 18.616C24.0344 18.616 24.1126 18.5978 24.1172 18.5477C24.1264 18.4838 24.0298 18.4428 23.97 18.4154C23.8918 18.3835 23.7906 18.3698 23.7169 18.4109C23.6985 18.42 23.6801 18.4428 23.6893 18.461C23.7031 18.5203 23.7952 18.5112 23.8458 18.5385ZM22.8381 18.616C22.8933 18.616 22.9301 18.5613 22.9761 18.5385C23.0268 18.5112 23.1188 18.5203 23.1372 18.4656C23.1464 18.4473 23.128 18.4245 23.1096 18.4154C23.036 18.3744 22.9347 18.3881 22.8565 18.42C22.7967 18.4473 22.7001 18.4884 22.7093 18.5522C22.7139 18.5978 22.7921 18.6206 22.8381 18.616ZM33.0113 31.3283C32.8457 31.1459 32.7674 30.7994 32.68 30.43C32.5972 30.0607 32.5006 29.664 32.1969 29.4087C32.1371 29.3585 32.0773 29.3129 32.0128 29.2764C31.953 29.24 31.8886 29.208 31.8242 29.1852C32.2475 27.9405 32.0819 26.7003 31.654 25.5786C31.1294 24.2061 30.2138 23.007 29.5144 22.1862C28.7276 21.2059 27.9638 20.2757 27.9776 18.9033C28.0006 16.8104 28.2123 12.9211 24.4899 12.9165C19.7783 12.9074 20.9562 17.6312 20.9056 19.0811C20.8274 20.1481 20.6111 20.987 19.8704 22.0312C19.0007 23.0571 17.7768 24.7123 17.1971 26.4404C16.921 27.2565 16.7922 28.0864 16.9118 28.8706C16.6127 29.1351 16.3873 29.5409 16.148 29.7917C15.9548 29.9877 15.6741 30.0607 15.3658 30.1701C15.0575 30.2796 14.7216 30.4437 14.5146 30.8313C14.418 31.0091 14.3858 31.2006 14.3858 31.3967C14.3858 31.5745 14.4134 31.7569 14.441 31.9347C14.4962 32.304 14.556 32.6506 14.4778 32.8831C14.2385 33.5397 14.2063 33.9957 14.3766 34.3285C14.5514 34.6614 14.9011 34.8073 15.3014 34.8893C16.0974 35.0535 17.1787 35.0124 18.0299 35.4593C18.9409 35.9335 19.8658 36.1022 20.6019 35.9335C21.1357 35.8149 21.5728 35.4958 21.7936 35.0124C22.3688 35.0079 23.0038 34.7662 24.016 34.7115C24.7016 34.6568 25.562 34.9532 26.5513 34.8985C26.5789 35.0033 26.6157 35.1082 26.6663 35.2039V35.2085C27.0482 35.97 27.7614 36.3165 28.5206 36.2572C29.2843 36.1979 30.0896 35.7557 30.7429 34.9851C31.3687 34.2373 32.3993 33.9273 33.0849 33.5169C33.4254 33.3117 33.7015 33.0564 33.7245 32.6825C33.7429 32.3086 33.522 31.8937 33.0113 31.3283ZM23.9792 16.8971C24.4301 15.8848 25.5528 15.9031 26.0037 16.8788C26.3028 17.5263 26.1694 18.2878 25.8059 18.7209C25.7322 18.6844 25.5344 18.6024 25.2261 18.4975C25.2767 18.4428 25.3688 18.3744 25.4056 18.2878C25.6264 17.7497 25.3964 17.0567 24.9869 17.043C24.651 17.0202 24.3473 17.5354 24.4439 18.0917C24.2553 18.0005 24.0114 17.9321 23.8458 17.8911C23.7998 17.5765 23.832 17.2254 23.9792 16.8971ZM22.1065 16.3727C22.5712 16.3727 23.0636 17.0202 22.9853 17.9002C22.8243 17.9458 22.6587 18.0142 22.516 18.1099C22.5712 17.7041 22.3642 17.1934 22.0743 17.2162C21.6878 17.2482 21.6234 18.1829 21.9915 18.4975C22.0375 18.534 22.0789 18.4884 21.72 18.7483C21.0022 18.0826 21.2369 16.3727 22.1065 16.3727ZM21.4808 19.1404C21.766 18.9307 22.1065 18.6844 22.1295 18.6616C22.3458 18.461 22.7507 18.0142 23.4133 18.0142C23.7399 18.0142 24.131 18.119 24.605 18.42C24.8948 18.6069 25.1249 18.6206 25.6448 18.844C26.0313 19.0036 26.2752 19.2863 26.1279 19.6739C26.0083 19.9976 25.6218 20.3305 25.0835 20.4992C24.5728 20.6633 24.1725 21.2287 23.3258 21.1786C23.1464 21.1694 23.0038 21.133 22.8841 21.0828C22.516 20.9232 22.3228 20.6086 21.9639 20.3989C21.5682 20.18 21.3565 19.9247 21.2875 19.7012C21.2231 19.4778 21.2875 19.2909 21.4808 19.1404ZM21.6326 34.3695C21.5084 35.97 19.6127 35.938 18.1679 35.1903C16.7922 34.4699 15.0115 34.8939 14.648 34.1917C14.5376 33.9774 14.5376 33.6126 14.7677 32.988V32.9789C14.8781 32.6323 14.7953 32.2493 14.7401 31.8891C14.6848 31.5335 14.6572 31.2052 14.7815 30.9772C14.9425 30.6717 15.1726 30.5623 15.4624 30.4619C15.9364 30.2932 16.0054 30.3069 16.3643 30.0105C16.6173 29.7506 16.8014 29.4223 17.0222 29.1898C17.2569 28.939 17.4824 28.8205 17.8366 28.8752C18.2093 28.9299 18.5314 29.1852 18.8443 29.6047L19.7461 31.228C20.1832 32.1353 21.7292 33.4348 21.6326 34.3695ZM21.5682 33.1886C21.3795 32.8877 21.1265 32.5685 20.9056 32.2949C21.2323 32.2949 21.559 32.1946 21.674 31.8891C21.7798 31.6064 21.674 31.2097 21.3335 30.7538C20.7124 29.9239 19.5713 29.2719 19.5713 29.2719C18.9501 28.8889 18.6004 28.4192 18.4394 27.9086C18.2784 27.3979 18.3014 26.8462 18.4256 26.3036C18.6649 25.2594 19.2814 24.2426 19.6771 23.6043C19.7829 23.5268 19.7139 23.7502 19.2768 24.5527C18.8857 25.2868 18.1541 26.983 19.1572 28.3098C19.1848 27.366 19.4102 26.4039 19.7921 25.5056C20.3443 24.2563 21.5084 22.0905 21.6004 20.3669C21.651 20.4034 21.8121 20.5128 21.8857 20.5539C22.0973 20.677 22.2584 20.8594 22.4654 21.0235C23.036 21.4795 23.7767 21.443 24.4163 21.0782C24.7016 20.9187 24.9316 20.7363 25.1479 20.6679C25.6034 20.5265 25.9669 20.2757 26.174 19.9839C26.5282 21.3701 27.3565 23.3717 27.8856 24.3475C28.1663 24.8673 28.7276 25.9662 28.9715 27.293C29.1233 27.2884 29.2936 27.3112 29.473 27.3568C30.108 25.7291 28.9347 23.9736 28.4009 23.4857C28.1847 23.276 28.1755 23.1848 28.2813 23.1893C28.861 23.7 29.6248 24.7259 29.9009 25.8795C30.0297 26.4084 30.0527 26.9602 29.9193 27.5073C30.6739 27.8174 31.5711 28.3235 31.3319 29.0941C31.2306 29.0895 31.1846 29.0941 31.1386 29.0941C31.2859 28.6335 30.9592 28.2916 30.0896 27.904C29.1877 27.5119 28.4331 27.5119 28.3273 28.4739C27.7706 28.6655 27.4853 29.1442 27.3427 29.7187C27.2138 30.2294 27.177 30.845 27.1402 31.538C27.1172 31.8891 26.9746 32.3587 26.8273 32.8603C25.3504 33.9045 23.2982 34.3604 21.5682 33.1886ZM33.4116 32.6642C33.3702 33.4303 31.5159 33.5716 30.5037 34.7845C29.8963 35.5003 29.1509 35.897 28.4975 35.9472C27.8442 35.9973 27.2782 35.7283 26.947 35.0672C26.7307 34.561 26.8365 34.0139 26.9976 33.412C27.1678 32.7646 27.4209 32.0988 27.4531 31.5608C27.4899 30.8678 27.5313 30.2613 27.6463 29.7962C27.766 29.3266 27.95 29.012 28.2767 28.8342C28.2905 28.825 28.3089 28.8205 28.3227 28.8114C28.3595 29.4132 28.6586 30.0242 29.1877 30.1564C29.7675 30.3069 30.6003 29.8145 30.9546 29.4132C31.3687 29.3996 31.677 29.3722 31.9944 29.6458C32.45 30.0333 32.3211 31.0273 32.7812 31.5426C33.269 32.0715 33.4254 32.4317 33.4116 32.6642ZM21.6602 19.6967C21.7522 19.7833 21.8765 19.9019 22.0283 20.0204C22.332 20.2575 22.7553 20.5037 23.2844 20.5037C23.8182 20.5037 24.3197 20.2347 24.7476 20.0113C24.9731 19.8927 25.2491 19.6921 25.4286 19.5371C25.608 19.3821 25.7 19.2498 25.5712 19.2362C25.4424 19.2225 25.4516 19.3547 25.2951 19.4687C25.0927 19.6146 24.8488 19.8061 24.6556 19.9155C24.3151 20.107 23.7583 20.3806 23.2798 20.3806C22.8013 20.3806 22.4194 20.1618 22.1341 19.9383C21.9915 19.8243 21.8719 19.7104 21.7798 19.6237C21.7108 19.5599 21.6924 19.414 21.582 19.4003C21.5176 19.3957 21.4992 19.569 21.6602 19.6967Z" fill="#7F6EE9"/>
</svg>
