<svg width="49" height="49" viewBox="0 0 49 49" fill="none" xmlns="http://www.w3.org/2000/svg">
<circle opacity="0.1" cx="24.5452" cy="24.5901" r="23.7796" fill="#F7931A"/>
<path d="M35.3548 29.9316C34.7518 31.1688 34.4634 31.7221 33.689 32.8154C32.607 34.3424 31.0793 36.2479 29.1905 36.2609C27.5106 36.274 27.077 35.2451 24.797 35.262C22.517 35.2722 22.0421 36.2796 20.3601 36.2638C18.4714 36.2479 17.0254 34.5312 15.9424 33.007C12.9142 28.7317 12.5945 23.7208 14.4661 21.0547C15.7901 19.1642 17.8855 18.054 19.8529 18.054C21.8565 18.054 23.116 19.0745 24.7728 19.0745C26.3802 19.0745 27.3593 18.0512 29.6766 18.0512C31.4292 18.0512 33.2826 18.9362 34.6066 20.4632C30.2746 22.663 30.9784 28.3971 35.3548 29.9316ZM27.918 16.3448C28.761 15.3421 29.4003 13.9272 29.1684 12.4844C27.7929 12.5713 26.1845 13.3852 25.2447 14.4394C24.3937 15.3991 23.6878 16.8251 23.9631 18.2045C25.4635 18.2493 27.0165 17.4204 27.918 16.3448Z" fill="#F7931A"/>
</svg>
