<svg width="40" height="40" viewBox="0 0 40 40" fill="none" xmlns="http://www.w3.org/2000/svg">
<circle opacity="0.1" cx="20" cy="20" r="20" fill="#2892FA"/>
<path d="M23.8691 19.9999C26.4918 19.9999 28.6205 17.8495 28.6205 15.1999C28.6205 12.5503 26.4918 10.3999 23.8691 10.3999C21.2463 10.3999 19.1176 12.5503 19.1176 15.1999C19.1176 17.8495 21.2463 19.9999 23.8691 19.9999ZM29.0481 25.3759C28.6775 24.9919 28.2119 24.7999 27.6702 24.7999H21.0182L19.0416 24.0991L19.3552 23.1967L21.0182 23.8399H23.679C24.0116 23.8399 24.2777 23.7055 24.4962 23.4847C24.7148 23.2639 24.8193 22.9951 24.8193 22.6975C24.8193 22.1791 24.5723 21.8239 24.0781 21.6223L17.1696 19.0399H15.3165V27.6799L21.9685 29.5999L29.5993 26.7199C29.6088 26.2111 29.4187 25.7599 29.0481 25.3759ZM13.4159 19.0399H9.59961V29.5999H13.4159V19.0399Z" fill="#2892FA"/>
</svg>
