<svg width="40" height="40" viewBox="0 0 40 40" fill="none" xmlns="http://www.w3.org/2000/svg">
<circle opacity="0.1" cx="20" cy="20" r="20" fill="#2892FA"/>
<mask id="mask0_777_5486" style="mask-type:luminance" maskUnits="userSpaceOnUse" x="11" y="8" width="18" height="24">
<path d="M18.4768 29.7911C16.0526 28.8761 14.0305 25.7443 13.019 23.9102C12.5819 23.1179 12.8123 22.1454 13.5135 21.5789C13.891 21.2742 14.3666 21.1206 14.8492 21.1477C15.3319 21.1747 15.7877 21.3804 16.1295 21.7255L16.9379 22.5416V16.5866C16.9379 16.2432 17.073 15.9139 17.3135 15.6712C17.554 15.4284 17.8802 15.292 18.2203 15.292C18.5604 15.292 18.8866 15.4284 19.127 15.6712C19.3675 15.9139 19.5026 16.2432 19.5026 16.5866V19.6935C19.5026 19.3502 19.6378 19.0209 19.8782 18.7781C20.1187 18.5353 20.4449 18.399 20.785 18.399C21.1251 18.399 21.4513 18.5353 21.6918 18.7781C21.9323 19.0209 22.0674 19.3502 22.0674 19.6935V20.7292C22.0674 20.3858 22.2025 20.0566 22.443 19.8138C22.6835 19.571 23.0097 19.4346 23.3498 19.4346C23.6899 19.4346 24.016 19.571 24.2565 19.8138C24.497 20.0566 24.6321 20.3858 24.6321 20.7292V21.7648C24.6321 21.4215 24.7672 21.0922 25.0077 20.8494C25.2482 20.6066 25.5744 20.4703 25.9145 20.4703C26.2546 20.4703 26.5808 20.6066 26.8213 20.8494C27.0618 21.0922 27.1969 21.4215 27.1969 21.7648V25.8391C27.1969 26.3932 27.0609 26.941 26.7445 27.3941C26.2197 28.1444 25.2759 29.2909 24.1192 29.7911C22.3239 30.5679 20.7183 30.6373 18.4768 29.7911Z" fill="white" stroke="white" stroke-width="2" stroke-linecap="round" stroke-linejoin="round"/>
<path d="M22.0665 13.7386C22.066 13.1509 21.9415 12.57 21.7015 12.0345C21.4614 11.4991 21.1112 11.0213 20.6742 10.633C20.2371 10.2447 19.7233 9.95473 19.1667 9.78233C18.6101 9.60993 18.0235 9.55906 17.446 9.63311C16.8684 9.70716 16.3131 9.90442 15.8168 10.2118C15.3206 10.5192 14.8948 10.9296 14.5678 11.4159C14.2408 11.9022 14.02 12.4531 13.9202 13.0322C13.8203 13.6112 13.8437 14.205 13.9886 14.7743M13.9886 14.7743C14.0338 14.9519 14.0907 15.1248 14.1579 15.2921L13.9886 14.7743Z" stroke="white" stroke-width="2" stroke-linecap="round" stroke-linejoin="round"/>
</mask>
<g mask="url(#mask0_777_5486)">
<path d="M7.19336 7.52466H31.8149V32.3803H7.19336V7.52466Z" fill="#2892FA"/>
</g>
</svg>
