<svg width="84" height="74" viewBox="0 0 84 74" fill="none" xmlns="http://www.w3.org/2000/svg">
<path d="M27.183 27.1824C31.3146 27.1824 34.6638 23.8331 34.6638 19.7016C34.6638 15.57 31.3146 12.2207 27.183 12.2207C23.0514 12.2207 19.7021 15.57 19.7021 19.7016C19.7021 23.8331 23.0514 27.1824 27.183 27.1824Z" stroke="#0036C1" stroke-width="2"/>
<path d="M42.1441 42.1439C42.1441 46.2771 42.1441 49.6248 27.1824 49.6248C12.2207 49.6248 12.2207 46.2771 12.2207 42.1439C12.2207 38.0108 18.9161 34.6631 27.1824 34.6631C35.4487 34.6631 42.1441 38.0108 42.1441 42.1439Z" stroke="#0036C1" stroke-width="2"/>
<path d="M1 30.9234C1 16.8183 1 9.76381 5.38378 5.38378C9.76381 1 16.8183 1 30.9234 1H45.8851C59.9902 1 67.0447 1 71.4247 5.38378C75.8085 9.76381 75.8085 16.8183 75.8085 30.9234C75.8085 45.0285 75.8085 52.083 71.4247 56.463C67.0447 60.8468 59.9902 60.8468 45.8851 60.8468H30.9234C16.8183 60.8468 9.76381 60.8468 5.38378 56.463C1 52.083 1 45.0285 1 30.9234Z" stroke="#0036C1" stroke-width="2"/>
<path d="M64.5879 30.9234H49.6262M64.5879 19.7021H45.8857" stroke="#0036C1" stroke-width="2" stroke-linecap="round"/>
<path d="M65.3465 37.9657L51.3818 43.7191V57.8998C51.3818 65.4989 66.9671 72.7558 66.9671 72.7558C66.9671 72.7558 82.5524 65.4989 82.5524 57.8998V43.7191L68.5878 37.9657C68.0743 37.7518 67.5235 37.6416 66.9671 37.6416C66.4108 37.6416 65.86 37.7518 65.3465 37.9657Z" fill="white" stroke="#0036C1" stroke-width="1.7" stroke-linecap="round" stroke-linejoin="round"/>
<path d="M72.7748 52.2285H66.9674V44.1973L61.2861 56.1001H67.0935V64.1313L72.7748 52.2285Z" fill="white" stroke="#0036C1" stroke-width="1.7" stroke-linecap="round" stroke-linejoin="round"/>
</svg>
