<svg width="40" height="40" viewBox="0 0 40 40" fill="none" xmlns="http://www.w3.org/2000/svg">
<circle opacity="0.1" cx="20" cy="20" r="20" fill="#1A63F1"/>
<path d="M19.7673 12.4433V10.3212C19.7673 10.1284 19.6012 9.97724 19.4131 10.0028C19.3241 10.0148 19.217 10.054 19.0911 10.1364L10.7834 14.6935C10.7244 14.7255 10.6717 14.7695 10.6339 14.8255C10.5811 14.9039 10.5457 15.0142 10.6732 15.0966C10.7252 15.1302 10.7866 15.1438 10.848 15.1438H14.6771C14.7416 15.1438 14.8054 15.1286 14.8637 15.099L19.6193 12.6873C19.7106 12.6409 19.7681 12.5465 19.7681 12.4433H19.7673Z" fill="#1A63F1"/>
<path d="M20.1453 12.4433V10.3212C20.1453 10.1284 20.3114 9.97724 20.4996 10.0028C20.5885 10.0148 20.6956 10.054 20.8215 10.1364L29.1292 14.6935C29.1882 14.7255 29.241 14.7695 29.2788 14.8255C29.3315 14.9039 29.3669 15.0142 29.2394 15.0966C29.1874 15.1302 29.126 15.1438 29.0646 15.1438H25.2355C25.171 15.1438 25.1072 15.1286 25.049 15.099L20.2933 12.6873C20.202 12.6409 20.1445 12.5465 20.1445 12.4433H20.1453Z" fill="#1A63F1"/>
<path d="M11.4008 17.0247L10.6687 15.9592C10.6332 15.908 10.608 15.8497 10.6002 15.7873C10.5876 15.6873 10.6159 15.5657 10.8363 15.5785L29.0851 15.5713C29.1473 15.5713 29.2095 15.5881 29.2591 15.6257C29.3291 15.6793 29.3858 15.7769 29.2669 15.9448C29.2244 16.0048 29.1827 16.0648 29.1449 16.1272L28.645 16.9663C28.4561 17.2831 28.1184 17.4767 27.7531 17.4767H12.2557C11.9148 17.4767 11.596 17.3079 11.4008 17.0239V17.0247Z" fill="#1A63F1"/>
<path d="M28.1505 17.8027H11.7856C11.6948 17.8027 11.6211 17.8776 11.6211 17.9699V18.5083C11.6211 18.6006 11.6948 18.6754 11.7856 18.6754H28.1505C28.2414 18.6754 28.3151 18.6006 28.3151 18.5083V17.9699C28.3151 17.8776 28.2414 17.8027 28.1505 17.8027Z" fill="#1A63F1"/>
<path d="M15.2778 19.0088H11.7416C11.6707 19.0088 11.6133 19.0672 11.6133 19.1392V19.4631C11.6133 19.5351 11.6707 19.5935 11.7416 19.5935H15.2778C15.3487 19.5935 15.4062 19.5351 15.4062 19.4631V19.1392C15.4062 19.0672 15.3487 19.0088 15.2778 19.0088Z" fill="#1A63F1"/>
<path d="M28.1528 19.0088H24.6166C24.5457 19.0088 24.4883 19.0672 24.4883 19.1392V19.4631C24.4883 19.5351 24.5457 19.5935 24.6166 19.5935H28.1528C28.2237 19.5935 28.2812 19.5351 28.2812 19.4631V19.1392C28.2812 19.0672 28.2237 19.0088 28.1528 19.0088Z" fill="#1A63F1"/>
<path d="M14.7903 19.9268H12.142C11.9256 19.9268 11.75 20.1051 11.75 20.3251V26.7332C11.75 26.9531 11.9256 27.1315 12.142 27.1315H14.7903C15.0068 27.1315 15.1823 26.9531 15.1823 26.7332V20.3251C15.1823 20.1051 15.0068 19.9268 14.7903 19.9268ZM12.8293 26.6612C12.8293 26.75 12.7584 26.8219 12.6711 26.8219H12.4506C12.3633 26.8219 12.2924 26.75 12.2924 26.6612V20.3979C12.2924 20.3091 12.3633 20.2371 12.4506 20.2371H12.6711C12.7584 20.2371 12.8293 20.3091 12.8293 20.3979V26.6612ZM13.7346 26.6612C13.7346 26.75 13.6638 26.8219 13.5764 26.8219H13.3559C13.2686 26.8219 13.1977 26.75 13.1977 26.6612V20.3979C13.1977 20.3091 13.2686 20.2371 13.3559 20.2371H13.5764C13.6638 20.2371 13.7346 20.3091 13.7346 20.3979V26.6612ZM14.5958 26.6612C14.5958 26.75 14.525 26.8219 14.4376 26.8219H14.2172C14.1298 26.8219 14.0589 26.75 14.0589 26.6612V20.3979C14.0589 20.3091 14.1298 20.2371 14.2172 20.2371H14.4376C14.525 20.2371 14.5958 20.3091 14.5958 20.3979V26.6612Z" fill="#1A63F1"/>
<path d="M27.7122 19.9268H25.0639C24.8474 19.9268 24.6719 20.1051 24.6719 20.3251V26.7332C24.6719 26.9531 24.8474 27.1315 25.0639 27.1315H27.7122C27.9286 27.1315 28.1042 26.9531 28.1042 26.7332V20.3251C28.1042 20.1051 27.9286 19.9268 27.7122 19.9268ZM25.7512 26.6612C25.7512 26.75 25.6803 26.8219 25.5929 26.8219H25.3725C25.2851 26.8219 25.2143 26.75 25.2143 26.6612V20.3979C25.2143 20.3091 25.2851 20.2371 25.3725 20.2371H25.5929C25.6803 20.2371 25.7512 20.3091 25.7512 20.3979V26.6612ZM26.6565 26.6612C26.6565 26.75 26.5856 26.8219 26.4982 26.8219H26.2778C26.1904 26.8219 26.1196 26.75 26.1196 26.6612V20.3979C26.1196 20.3091 26.1904 20.2371 26.2778 20.2371H26.4982C26.5856 20.2371 26.6565 20.3091 26.6565 20.3979V26.6612ZM27.5177 26.6612C27.5177 26.75 27.4469 26.8219 27.3595 26.8219H27.1391C27.0517 26.8219 26.9808 26.75 26.9808 26.6612V20.3979C26.9808 20.3091 27.0517 20.2371 27.1391 20.2371H27.3595C27.4469 20.2371 27.5177 20.3091 27.5177 20.3979V26.6612Z" fill="#1A63F1"/>
<path d="M15.2778 27.4609H11.7416C11.6707 27.4609 11.6133 27.5193 11.6133 27.5913V27.9153C11.6133 27.9873 11.6707 28.0457 11.7416 28.0457H15.2778C15.3487 28.0457 15.4062 27.9873 15.4062 27.9153V27.5913C15.4062 27.5193 15.3487 27.4609 15.2778 27.4609Z" fill="#1A63F1"/>
<path d="M28.1528 27.4609H24.6166C24.5457 27.4609 24.4883 27.5193 24.4883 27.5913V27.9153C24.4883 27.9873 24.5457 28.0457 24.6166 28.0457H28.1528C28.2237 28.0457 28.2812 27.9873 28.2812 27.9153V27.5913C28.2812 27.5193 28.2237 27.4609 28.1528 27.4609Z" fill="#1A63F1"/>
<path d="M28.9465 28.3789H10.9472C10.7499 28.3789 10.5898 28.5415 10.5898 28.7421V29.6324C10.5898 29.8329 10.7499 29.9955 10.9472 29.9955H28.9465C29.1438 29.9955 29.3039 29.8329 29.3039 29.6324V28.7421C29.3039 28.5415 29.1438 28.3789 28.9465 28.3789Z" fill="#1A63F1"/>
<path d="M20.7587 14.3012L20.2014 14.2188L19.9526 13.7061L19.7038 14.2188L19.1465 14.3012L19.5495 14.7003L19.4543 15.2643L19.9526 14.9979L20.4509 15.2643L20.3557 14.7003L20.7587 14.3012ZM20.1124 14.7347L19.9526 14.6491L19.7928 14.7347L19.8235 14.554L19.6944 14.426L19.8731 14.3996L19.9526 14.2348L20.0321 14.3996L20.2108 14.426L20.0817 14.554L20.1124 14.7347Z" fill="#1A63F1"/>
<path d="M22.3542 14.6449L22.0747 14.6033L21.9496 14.3457L21.8244 14.6033L21.5449 14.6449L21.7472 14.8456L21.6992 15.1288L21.9496 14.9952L22.1999 15.1288L22.1519 14.8456L22.3542 14.6449ZM22.0291 14.8624L21.9488 14.8192L21.8685 14.8624L21.8834 14.7713L21.8189 14.7073L21.9086 14.6937L21.9488 14.6113L21.9889 14.6937L22.0787 14.7073L22.0141 14.7713L22.0291 14.8624Z" fill="#1A63F1"/>
<path d="M18.3933 14.6449L18.1138 14.6033L17.9886 14.3457L17.8635 14.6033L17.584 14.6449L17.7863 14.8456L17.7383 15.1288L17.9886 14.9952L18.239 15.1288L18.1909 14.8456L18.3933 14.6449ZM18.0681 14.8624L17.9878 14.8192L17.9075 14.8624L17.9225 14.7713L17.8579 14.7073L17.9477 14.6937L17.9878 14.6113L18.028 14.6937L18.1177 14.7073L18.0532 14.7713L18.0681 14.8624Z" fill="#1A63F1"/>
<path d="M21.5205 19.9268C22.148 19.9268 22.4818 20.2659 22.4818 20.9034V21.6218C22.4818 21.6897 22.4487 21.7305 22.3747 21.7305H21.6804C21.6134 21.7305 21.5733 21.6897 21.5733 21.6218V21.093C21.5733 20.917 21.4867 20.8219 21.3064 20.8219H18.5503C18.3834 20.8219 18.2835 20.917 18.2835 21.093V22.0289L22.3078 24.1135C22.4211 24.1607 22.481 24.2358 22.481 24.3646V26.1548C22.481 26.7923 22.1472 27.1315 21.5198 27.1315H18.3362C17.7159 27.1315 17.375 26.7923 17.375 26.1548V25.4429C17.375 25.3685 17.4151 25.3341 17.4821 25.3341H18.1764C18.2496 25.3341 18.2835 25.3677 18.2835 25.4429V25.9652C18.2835 26.1484 18.3834 26.2364 18.5503 26.2364H21.3064C21.4796 26.2364 21.5733 26.1484 21.5733 25.9652V24.8398L17.5561 22.7552C17.4356 22.7144 17.3758 22.6328 17.3758 22.5041V20.9042C17.3758 20.2667 17.7159 19.9276 18.337 19.9276H21.5205V19.9268Z" fill="#1A63F1"/>
<path d="M20.3743 24.7631L17.5269 23.2881C17.4577 23.2521 17.375 23.3033 17.375 23.3825V24.248C17.375 24.288 17.397 24.324 17.4317 24.3424L20.2791 25.8198C20.3484 25.8558 20.431 25.8046 20.431 25.7254V24.8575C20.431 24.8175 20.409 24.7815 20.3743 24.7631Z" fill="#1A63F1"/>
<path d="M22.4251 22.6391L19.5777 21.1641C19.5084 21.1281 19.4258 21.1793 19.4258 21.2585V22.124C19.4258 22.164 19.4478 22.2 19.4825 22.2183L22.3299 23.6958C22.3991 23.7318 22.4818 23.6806 22.4818 23.6014V22.7335C22.4818 22.6935 22.4598 22.6575 22.4251 22.6391Z" fill="#1A63F1"/>
</svg>
