<svg width="110" height="110" viewBox="0 0 110 110" fill="none" xmlns="http://www.w3.org/2000/svg">
<circle opacity="0.1" cx="55" cy="55" r="55" fill="#1A63F1"/>
<path d="M54.3659 34.2192V28.3833C54.3659 27.8532 53.9092 27.4374 53.3917 27.5078C53.1471 27.5408 52.8527 27.6486 52.5063 27.8751L29.6603 40.4071C29.498 40.4951 29.3529 40.616 29.249 40.77C29.1039 40.9856 29.0065 41.2892 29.3572 41.5157C29.5001 41.6081 29.669 41.6455 29.8378 41.6455H40.3678C40.5453 41.6455 40.7207 41.6037 40.8809 41.5223L53.9589 34.8901C54.2101 34.7625 54.3681 34.503 54.3681 34.2192H54.3659Z" fill="#1A63F1"/>
<path d="M55.4006 34.2192V28.3833C55.4006 27.8532 55.8574 27.4374 56.3748 27.5078C56.6194 27.5408 56.9139 27.6486 57.2602 27.8751L80.1062 40.4071C80.2686 40.4951 80.4136 40.616 80.5175 40.77C80.6626 40.9856 80.76 41.2892 80.4093 41.5157C80.2664 41.6081 80.0976 41.6455 79.9287 41.6455H69.3987C69.2212 41.6455 69.0458 41.6037 68.8856 41.5223L55.8076 34.8901C55.5565 34.7625 55.3984 34.503 55.3984 34.2192H55.4006Z" fill="#1A63F1"/>
<path d="M31.357 46.8172L29.3437 43.8872C29.2463 43.7464 29.177 43.5858 29.1553 43.4142C29.1207 43.1393 29.1986 42.8049 29.8048 42.8401L79.9889 42.8203C80.1599 42.8203 80.331 42.8665 80.4673 42.9699C80.66 43.1173 80.8159 43.3856 80.489 43.8476C80.3721 44.0126 80.2573 44.1776 80.1534 44.3491L78.7787 46.6567C78.2592 47.5278 77.3304 48.0601 76.3259 48.0601H33.7081C32.7707 48.0601 31.8939 47.5959 31.357 46.815V46.8172Z" fill="#1A63F1"/>
<path d="M77.4169 48.9619H32.4134C32.1635 48.9619 31.9609 49.1678 31.9609 49.4217V50.9021C31.9609 51.156 32.1635 51.3618 32.4134 51.3618H77.4169C77.6668 51.3618 77.8694 51.156 77.8694 50.9021V49.4217C77.8694 49.1678 77.6668 48.9619 77.4169 48.9619Z" fill="#1A63F1"/>
<path d="M42.017 52.2769H32.2923C32.0974 52.2769 31.9395 52.4374 31.9395 52.6354V53.5263C31.9395 53.7243 32.0974 53.8849 32.2923 53.8849H42.017C42.2119 53.8849 42.3698 53.7243 42.3698 53.5263V52.6354C42.3698 52.4374 42.2119 52.2769 42.017 52.2769Z" fill="#1A63F1"/>
<path d="M77.431 52.2769H67.7064C67.5115 52.2769 67.3535 52.4374 67.3535 52.6354V53.5263C67.3535 53.7243 67.5115 53.8849 67.7064 53.8849H77.431C77.6259 53.8849 77.7839 53.7243 77.7839 53.5263V52.6354C77.7839 52.4374 77.6259 52.2769 77.431 52.2769Z" fill="#1A63F1"/>
<path d="M40.6811 54.8003H33.3984C32.8031 54.8003 32.3203 55.2908 32.3203 55.8958V73.5179C32.3203 74.1228 32.8031 74.6134 33.3984 74.6134H40.6811C41.2764 74.6134 41.7592 74.1228 41.7592 73.5179V55.8958C41.7592 55.2908 41.2764 54.8003 40.6811 54.8003ZM35.2884 73.3199C35.2884 73.5641 35.0935 73.7621 34.8532 73.7621H34.2471C34.0068 73.7621 33.8119 73.5641 33.8119 73.3199V56.0959C33.8119 55.8518 34.0068 55.6538 34.2471 55.6538H34.8532C35.0935 55.6538 35.2884 55.8518 35.2884 56.0959V73.3199ZM37.778 73.3199C37.778 73.5641 37.5831 73.7621 37.3428 73.7621H36.7367C36.4964 73.7621 36.3015 73.5641 36.3015 73.3199V56.0959C36.3015 55.8518 36.4964 55.6538 36.7367 55.6538H37.3428C37.5831 55.6538 37.778 55.8518 37.778 56.0959V73.3199ZM40.1464 73.3199C40.1464 73.5641 39.9515 73.7621 39.7112 73.7621H39.105C38.8647 73.7621 38.6699 73.5641 38.6699 73.3199V56.0959C38.6699 55.8518 38.8647 55.6538 39.105 55.6538H39.7112C39.9515 55.6538 40.1464 55.8518 40.1464 56.0959V73.3199Z" fill="#1A63F1"/>
<path d="M76.2123 54.8003H68.9297C68.3343 54.8003 67.8516 55.2908 67.8516 55.8958V73.5179C67.8516 74.1228 68.3343 74.6134 68.9297 74.6134H76.2123C76.8077 74.6134 77.2904 74.1228 77.2904 73.5179V55.8958C77.2904 55.2908 76.8077 54.8003 76.2123 54.8003ZM70.8196 73.3199C70.8196 73.5641 70.6248 73.7621 70.3845 73.7621H69.7783C69.538 73.7621 69.3432 73.5641 69.3432 73.3199V56.0959C69.3432 55.8518 69.538 55.6538 69.7783 55.6538H70.3845C70.6248 55.6538 70.8196 55.8518 70.8196 56.0959V73.3199ZM73.3092 73.3199C73.3092 73.5641 73.1144 73.7621 72.8741 73.7621H72.2679C72.0276 73.7621 71.8328 73.5641 71.8328 73.3199V56.0959C71.8328 55.8518 72.0276 55.6538 72.2679 55.6538H72.8741C73.1144 55.6538 73.3092 55.8518 73.3092 56.0959V73.3199ZM75.6776 73.3199C75.6776 73.5641 75.4828 73.7621 75.2425 73.7621H74.6363C74.396 73.7621 74.2012 73.5641 74.2012 73.3199V56.0959C74.2012 55.8518 74.396 55.6538 74.6363 55.6538H75.2425C75.4828 55.6538 75.6776 55.8518 75.6776 56.0959V73.3199Z" fill="#1A63F1"/>
<path d="M42.017 75.5237H32.2923C32.0974 75.5237 31.9395 75.6842 31.9395 75.8822V76.7731C31.9395 76.9712 32.0974 77.1317 32.2923 77.1317H42.017C42.2119 77.1317 42.3698 76.9712 42.3698 76.7731V75.8822C42.3698 75.6842 42.2119 75.5237 42.017 75.5237Z" fill="#1A63F1"/>
<path d="M77.431 75.5237H67.7064C67.5115 75.5237 67.3535 75.6842 67.3535 75.8822V76.7731C67.3535 76.9712 67.5115 77.1317 67.7064 77.1317H77.431C77.6259 77.1317 77.7839 76.9712 77.7839 76.7731V75.8822C77.7839 75.6842 77.6259 75.5237 77.431 75.5237Z" fill="#1A63F1"/>
<path d="M79.6096 78.0469H30.1118C29.5689 78.0469 29.1289 78.494 29.1289 79.0456V81.4939C29.1289 82.0454 29.5689 82.4926 30.1118 82.4926H79.6096C80.1524 82.4926 80.5925 82.0454 80.5925 81.4939V79.0456C80.5925 78.494 80.1524 78.0469 79.6096 78.0469Z" fill="#1A63F1"/>
<path d="M57.0821 39.3336L55.5494 39.1071L54.8653 37.697L54.1812 39.1071L52.6484 39.3336L53.7569 40.4313L53.4949 41.9821L54.8653 41.2496L56.2356 41.9821L55.9737 40.4313L57.0821 39.3336ZM55.3047 40.5259L54.8653 40.2905L54.4258 40.5259L54.5102 40.0287L54.1552 39.6768L54.6466 39.6042L54.8653 39.151L55.0839 39.6042L55.5754 39.6768L55.2203 40.0287L55.3047 40.5259Z" fill="#1A63F1"/>
<path d="M61.4716 40.2729L60.7031 40.1585L60.3588 39.4502L60.0146 40.1585L59.2461 40.2729L59.8025 40.825L59.6704 41.6037L60.3588 41.2364L61.0473 41.6037L60.9152 40.825L61.4716 40.2729ZM60.5775 40.8712L60.3567 40.7524L60.1359 40.8712L60.177 40.6205L59.9995 40.4445L60.2463 40.4071L60.3567 40.1805L60.4671 40.4071L60.7139 40.4445L60.5364 40.6205L60.5775 40.8712Z" fill="#1A63F1"/>
<path d="M50.581 40.2729L49.8124 40.1585L49.4682 39.4502L49.124 40.1585L48.3555 40.2729L48.9118 40.825L48.7798 41.6037L49.4682 41.2364L50.1566 41.6037L50.0246 40.825L50.581 40.2729ZM49.6869 40.8712L49.4661 40.7524L49.2452 40.8712L49.2864 40.6205L49.1088 40.4445L49.3556 40.4071L49.4661 40.1805L49.5765 40.4071L49.8233 40.4445L49.6457 40.6205L49.6869 40.8712Z" fill="#1A63F1"/>
<path d="M59.1835 54.7998C60.9089 54.7998 61.8268 55.7325 61.8268 57.4857V59.4611C61.8268 59.648 61.7359 59.7602 61.5324 59.7602H59.6229C59.4389 59.7602 59.3285 59.648 59.3285 59.4611V58.007C59.3285 57.5231 59.0904 57.2613 58.5946 57.2613H51.0154C50.5564 57.2613 50.2815 57.5231 50.2815 58.007V60.5807L61.3483 66.3132C61.6601 66.443 61.8246 66.6498 61.8246 67.004V71.927C61.8246 73.6802 60.9067 74.6129 59.1813 74.6129H50.4265C48.7206 74.6129 47.7832 73.6802 47.7832 71.927V69.9692C47.7832 69.7646 47.8936 69.67 48.0776 69.67H49.9871C50.1884 69.67 50.2815 69.7624 50.2815 69.9692V71.4056C50.2815 71.9094 50.5564 72.1514 51.0154 72.1514H58.5946C59.0709 72.1514 59.3285 71.9094 59.3285 71.4056V68.3106L48.2811 62.5781C47.9499 62.4659 47.7854 62.2415 47.7854 61.8874V57.4879C47.7854 55.7347 48.7206 54.802 50.4287 54.802H59.1835V54.7998Z" fill="#1A63F1"/>
<path d="M56.0353 68.0949L48.2049 64.0386C48.0144 63.9396 47.7871 64.0804 47.7871 64.2982V66.6783C47.7871 66.7883 47.8477 66.8873 47.943 66.9379L55.7734 71.0008C55.9639 71.0998 56.1912 70.959 56.1912 70.7412V68.3545C56.1912 68.2445 56.1306 68.1455 56.0353 68.0949Z" fill="#1A63F1"/>
<path d="M61.6681 62.2592L53.8377 58.2029C53.6472 58.1039 53.4199 58.2447 53.4199 58.4625V60.8426C53.4199 60.9526 53.4805 61.0516 53.5758 61.1022L61.4062 65.1651C61.5967 65.2641 61.824 65.1233 61.824 64.9055V62.5188C61.824 62.4088 61.7634 62.3098 61.6681 62.2592Z" fill="#1A63F1"/>
</svg>
