<svg width="331" height="123" viewBox="0 0 401 193" fill="none" xmlns="http://www.w3.org/2000/svg">
<g style="mix-blend-mode:luminosity" opacity="0.5" clip-path="url(#clip0_801_53980)">
<path d="M373.325 153.937C370.295 146.159 368.033 137.903 365.564 129.184C363.896 123.305 361.213 116.733 355.4 114.883C349.744 113.083 343.642 116.815 340.166 121.629C336.682 126.442 334.932 132.272 331.951 137.416C326.551 146.729 316.998 150.634 309.096 142.444C297.81 130.744 292.732 114.801 285.573 100.533C280.38 90.1791 276.028 78.0501 269.481 68.5054C259.499 53.9488 245.809 41.5391 227.611 41.5391C216.077 43.2895 205.913 53.503 199.027 66.2761C192.149 79.0491 188.136 94.2331 184.718 109.384C178.501 136.937 173.943 165.125 169.394 193.28C169.394 193.28 401.972 194.395 400 192.5C399.084 192.508 392.489 183.091 391.407 182.051C382.589 173.522 377.297 164.142 373.325 153.945V153.937Z" fill="#DCE6EF"/>
<path d="M329.737 167.065C329.292 175.991 319.573 191.596 310.648 191.15C301.723 190.704 296.958 174.364 297.413 165.439C297.858 156.513 307.37 111.845 316.296 112.29C325.221 112.736 330.192 158.14 329.737 167.065Z" fill="#6AA5FE"/>
<path d="M315.866 118.095L311.366 190.431" stroke="#1A55B5" stroke-width="0.71833" stroke-linecap="round" stroke-linejoin="round"/>
<path d="M309.311 165.207C307.28 169.674 305.727 174.356 304.794 179.244C304.324 181.721 304.018 184.404 305.141 186.658C306.363 189.127 309.08 190.564 311.796 191.01C318.434 192.099 325.065 188.037 328.953 182.546C332.842 177.064 334.527 170.36 336.071 163.812C337.284 158.66 338.482 153.433 340.777 148.628C341.76 146.572 347.523 138.621 344.798 136.565C341.074 133.634 330.283 136.821 323.372 144.368C317.675 150.585 312.779 157.57 309.303 165.207H309.311Z" fill="#FFC957"/>
<path d="M311.796 191.001C311.796 191.001 319.805 159.816 339.15 141.932" stroke="#6AA5FE" stroke-width="0.71833" stroke-linecap="round" stroke-linejoin="round"/>
<path d="M356.234 157.851C355.549 159.081 354.261 159.915 353.097 160.576C351.66 161.385 350.124 162.095 348.646 162.788C346.747 163.672 344.782 164.588 342.966 165.728C341.645 166.562 340.464 167.495 339.481 168.502C341.042 164.96 342.858 161.872 345.005 159.106C347.829 155.473 350.727 153.632 353.625 153.632C353.691 153.632 353.757 153.632 353.823 153.632C354.715 153.657 355.417 153.88 355.896 154.292C356.878 155.135 356.837 156.769 356.234 157.851Z" fill="#1A55B5"/>
<path d="M359.471 178.014C358.323 178.831 356.804 179.038 355.466 179.137C353.823 179.252 352.131 179.244 350.496 179.227C348.399 179.211 346.227 179.194 344.105 179.45C342.553 179.632 341.092 179.979 339.771 180.466C342.693 177.931 345.666 175.917 348.787 174.34C352.899 172.259 356.3 171.838 358.918 173.076C358.976 173.101 359.042 173.134 359.099 173.167C359.9 173.572 360.437 174.075 360.693 174.653C361.221 175.842 360.486 177.295 359.479 178.014H359.471Z" fill="#1A55B5"/>
<path d="M351.834 187.938C350.884 187.806 350.025 187.195 349.315 186.617C348.44 185.907 347.606 185.106 346.797 184.338C345.765 183.347 344.692 182.324 343.511 181.457C342.652 180.821 341.76 180.309 340.877 179.929C343.519 180.037 345.938 180.425 348.234 181.11C351.247 182.002 353.146 183.389 353.865 185.23C353.881 185.271 353.898 185.313 353.914 185.362C354.121 185.94 354.154 186.435 354.013 186.848C353.716 187.682 352.676 188.062 351.834 187.946V187.938Z" fill="#1A55B5"/>
<path d="M330.11 191.175C330.11 191.175 330.201 172.094 353.502 155.894" stroke="#2A294F" stroke-width="0.64402" stroke-linecap="round" stroke-linejoin="round"/>
<path d="M330.11 191.175C330.11 191.175 337.269 175.842 356.664 175.842" stroke="#2A294F" stroke-width="0.64402" stroke-linecap="round" stroke-linejoin="round"/>
<path d="M340.671 180.111C340.671 180.111 344.428 179.839 352.272 185.75" stroke="#2A294F" stroke-width="0.64402" stroke-linecap="round" stroke-linejoin="round"/>
<path d="M129.878 191.34C124.495 170.979 119.078 150.61 112.745 130.893C109.178 119.771 105.232 108.699 99.7576 99.8063C94.2834 90.9138 87.034 84.3498 79.7516 84.3911C68.5391 86.5626 61.298 97.6348 56.5504 109.904C53.4376 117.946 51.9266 127.689 49.7304 136.193C46.7002 147.901 45.1066 160.641 39.2857 170.88C35.2069 178.055 28.9401 176.222 24.7127 169.782C22.3843 166.223 20.7329 161.996 18.1238 158.751C15.5147 155.506 11.3947 153.392 8.08373 155.44C4.67372 157.545 3.65815 162.862 3.19578 167.536C2.51873 174.463 1.91599 181.011 0.801341 187.294C0.561898 188.665 0.289428 190.01 -0.0078125 191.356H129.87L129.878 191.34Z" fill="#DCE6EF"/>
<path d="M81.7172 163.243C78.3485 159.362 74.0881 156.01 72.7505 151.113C71.7679 147.538 72.5441 143.749 72.9239 140.058C73.3037 136.367 73.1716 132.288 70.7854 129.448C68.8203 127.103 65.7075 126.088 62.7186 125.443C59.7297 124.799 56.6087 124.395 53.9583 122.876C49.6483 120.407 50.507 116.204 48.1951 112.522C45.6026 108.385 39.5587 103.109 34.39 105.859C28.9076 108.765 29.7745 117.6 33.424 121.497C35.8432 124.081 38.9394 126.566 39.2945 130.084C39.8311 135.385 33.7542 140.165 35.4221 145.226C36.6606 148.967 41.3669 150.247 43.6953 153.425C45.9989 156.571 45.5365 160.972 44.1741 164.621C42.8201 168.271 40.6816 171.648 39.8394 175.454C38.1138 183.232 44.2154 188.615 51.1758 190.349C57.5665 191.943 71.3551 191.191 71.3551 191.191C76.2761 189.474 81.7337 185.147 84.4337 180.425C86.4813 176.858 86.7621 172.333 85.1768 168.535C84.3594 166.578 83.1126 164.869 81.709 163.251L81.7172 163.243Z" fill="#FFC957"/>
<path d="M40.5078 114.239C40.5078 114.239 64.0476 150.601 66.6071 190.977" stroke="#6AA5FE" stroke-width="0.825667" stroke-linecap="round" stroke-linejoin="round"/>
<path d="M19.5442 163.284C19.9075 162.97 20.4359 162.805 21.113 162.788C21.1625 162.788 21.212 162.788 21.2616 162.788C23.4496 162.788 25.6459 164.184 27.7761 166.933C29.3944 169.022 30.7733 171.359 31.954 174.034C31.2109 173.274 30.3191 172.564 29.3201 171.937C27.9495 171.078 26.4633 170.384 25.0266 169.716C23.9037 169.195 22.7478 168.659 21.6579 168.04C20.7744 167.544 19.8001 166.908 19.2882 165.984C18.8259 165.166 18.8011 163.936 19.5442 163.292V163.284Z" fill="#6AA5FE"/>
<path d="M15.9194 178.682C16.1176 178.245 16.5222 177.865 17.1249 177.559C17.1662 177.534 17.2157 177.51 17.257 177.493C19.2386 176.552 21.8147 176.874 24.9192 178.451C27.2806 179.648 29.5264 181.167 31.7309 183.083C30.7319 182.711 29.6255 182.455 28.453 182.315C26.843 182.125 25.1999 182.133 23.6146 182.142C22.3761 182.142 21.1046 182.158 19.8578 182.067C18.8505 181.993 17.6946 181.836 16.8359 181.225C16.068 180.68 15.5148 179.582 15.9194 178.682Z" fill="#6AA5FE"/>
<path d="M20.9638 187.897C20.8565 187.591 20.8813 187.212 21.0382 186.774C21.0464 186.741 21.0629 186.708 21.0712 186.675C21.6161 185.279 23.0445 184.231 25.3316 183.554C27.0655 183.042 28.8985 182.745 30.8966 182.662C30.2278 182.951 29.5508 183.339 28.9068 183.818C28.015 184.479 27.2059 185.255 26.4215 185.998C25.8105 186.584 25.183 187.187 24.5225 187.723C23.9858 188.161 23.3418 188.623 22.6234 188.723C21.9877 188.813 21.195 188.524 20.9721 187.889L20.9638 187.897Z" fill="#6AA5FE"/>
<path d="M39.0383 191.175C39.0383 191.175 38.9723 176.742 21.3525 164.497" stroke="#2A294F" stroke-width="0.64402" stroke-linecap="round" stroke-linejoin="round"/>
<path d="M39.0382 191.175C39.0382 191.175 33.6301 179.582 18.958 179.582" stroke="#2A294F" stroke-width="0.64402" stroke-linecap="round" stroke-linejoin="round"/>
<path d="M31.0537 182.811C31.0537 182.811 28.2134 182.604 22.2852 187.079" stroke="#2A294F" stroke-width="0.64402" stroke-linecap="round" stroke-linejoin="round"/>
<path d="M228.083 -35.0908H72.7254C68.4162 -35.0908 64.9229 -31.5975 64.9229 -27.2883V183.381C64.9229 187.69 68.4162 191.183 72.7254 191.183H228.083C232.392 191.183 235.885 187.69 235.885 183.381V-27.2883C235.885 -31.5975 232.392 -35.0908 228.083 -35.0908Z" fill="#6AA5FE"/>
<path d="M64.9229 20.0308V183.381C64.9229 187.691 68.4154 191.183 72.7254 191.183H228.083C232.393 191.183 235.885 187.691 235.885 183.381V151.138L64.9229 20.0308Z" fill="#527EE9"/>
<path d="M222.765 -24.6543H78.0425C76.2824 -24.6543 74.8555 -23.2274 74.8555 -21.4672V177.552C74.8555 179.312 76.2824 180.739 78.0425 180.739H222.765C224.526 180.739 225.953 179.312 225.953 177.552V-21.4672C225.953 -23.2274 224.526 -24.6543 222.765 -24.6543Z" fill="#F3F4F6"/>
<path d="M116.625 7.86816H92.3096V32.1841H116.625V7.86816Z" stroke="#1A55B5" stroke-width="0.825667" stroke-miterlimit="10"/>
<g filter="url(#filter0_d_801_53980)">
<path d="M97.7754 19.6174L105.215 25.4632L120.333 10.8901" stroke="#FF746F" stroke-width="3.30267" stroke-miterlimit="10"/>
</g>
<path d="M207.549 14.7708H128.301C127.781 14.7708 127.368 14.3497 127.368 13.8378C127.368 13.3176 127.789 12.9048 128.301 12.9048H207.549C208.069 12.9048 208.482 13.3259 208.482 13.8378C208.482 14.358 208.061 14.7708 207.549 14.7708Z" fill="#6AA5FE"/>
<path d="M207.549 18.8992H128.301C127.781 18.8992 127.368 18.4781 127.368 17.9662C127.368 17.446 127.789 17.0332 128.301 17.0332H207.549C208.069 17.0332 208.482 17.4543 208.482 17.9662C208.482 18.4864 208.061 18.8992 207.549 18.8992Z" fill="#6AA5FE"/>
<path d="M207.549 23.0276H128.301C127.781 23.0276 127.368 22.6065 127.368 22.0946C127.368 21.5745 127.789 21.1616 128.301 21.1616H207.549C208.069 21.1616 208.482 21.5827 208.482 22.0946C208.482 22.6148 208.061 23.0276 207.549 23.0276Z" fill="#6AA5FE"/>
<path d="M207.549 27.1556H128.301C127.781 27.1556 127.368 26.7345 127.368 26.2226C127.368 25.7024 127.789 25.2896 128.301 25.2896H207.549C208.069 25.2896 208.482 25.7106 208.482 26.2226C208.482 26.7427 208.061 27.1556 207.549 27.1556Z" fill="#6AA5FE"/>
<path d="M116.625 47.021H92.3096V71.3369H116.625V47.021Z" stroke="#1A55B5" stroke-width="0.825667" stroke-miterlimit="10"/>
<g filter="url(#filter1_d_801_53980)">
<path d="M97.7754 58.7703L105.215 64.6077L120.333 50.043" stroke="#FF746F" stroke-width="3.30267" stroke-miterlimit="10"/>
</g>
<path d="M207.549 53.9236H128.301C127.781 53.9236 127.368 53.5025 127.368 52.9906C127.368 52.4704 127.789 52.0576 128.301 52.0576H207.549C208.069 52.0576 208.482 52.4787 208.482 52.9906C208.482 53.5108 208.061 53.9236 207.549 53.9236Z" fill="#6AA5FE"/>
<path d="M207.549 58.052H128.301C127.781 58.052 127.368 57.6309 127.368 57.119C127.368 56.5989 127.789 56.186 128.301 56.186H207.549C208.069 56.186 208.482 56.6071 208.482 57.119C208.482 57.6392 208.061 58.052 207.549 58.052Z" fill="#6AA5FE"/>
<path d="M207.549 62.1802H128.301C127.781 62.1802 127.368 61.7591 127.368 61.2472C127.368 60.727 127.789 60.3142 128.301 60.3142H207.549C208.069 60.3142 208.482 60.7353 208.482 61.2472C208.482 61.7674 208.061 62.1802 207.549 62.1802Z" fill="#6AA5FE"/>
<path d="M207.549 66.3086H128.301C127.781 66.3086 127.368 65.8875 127.368 65.3756C127.368 64.8555 127.789 64.4426 128.301 64.4426H207.549C208.069 64.4426 208.482 64.8637 208.482 65.3756C208.482 65.8958 208.061 66.3086 207.549 66.3086Z" fill="#6AA5FE"/>
<path d="M116.625 86.1746H92.3096V110.49H116.625V86.1746Z" stroke="#1A55B5" stroke-width="0.825667" stroke-miterlimit="10"/>
<g filter="url(#filter2_d_801_53980)">
<path d="M97.7754 97.9236L105.215 103.761L120.333 89.1963" stroke="#FF746F" stroke-width="3.30267" stroke-miterlimit="10"/>
</g>
<path d="M207.549 93.0772H128.301C127.781 93.0772 127.368 92.6561 127.368 92.1442C127.368 91.624 127.789 91.2112 128.301 91.2112H207.549C208.069 91.2112 208.482 91.6323 208.482 92.1442C208.482 92.6643 208.061 93.0772 207.549 93.0772Z" fill="#6AA5FE"/>
<path d="M207.549 97.2056H128.301C127.781 97.2056 127.368 96.7845 127.368 96.2726C127.368 95.7524 127.789 95.3396 128.301 95.3396H207.549C208.069 95.3396 208.482 95.7607 208.482 96.2726C208.482 96.7928 208.061 97.2056 207.549 97.2056Z" fill="#6AA5FE"/>
<path d="M207.549 101.334H128.301C127.781 101.334 127.368 100.913 127.368 100.401C127.368 99.8806 127.789 99.4678 128.301 99.4678H207.549C208.069 99.4678 208.482 99.8889 208.482 100.401C208.482 100.921 208.061 101.334 207.549 101.334Z" fill="#6AA5FE"/>
<path d="M207.549 105.462H128.301C127.781 105.462 127.368 105.041 127.368 104.529C127.368 104.009 127.789 103.596 128.301 103.596H207.549C208.069 103.596 208.482 104.017 208.482 104.529C208.482 105.049 208.061 105.462 207.549 105.462Z" fill="#6AA5FE"/>
<path d="M116.625 125.328H92.3096V149.644H116.625V125.328Z" stroke="#1A55B5" stroke-width="0.825667" stroke-miterlimit="10"/>
<g filter="url(#filter3_d_801_53980)">
<path d="M97.7754 137.077L105.215 142.914L120.333 128.349" stroke="#FF746F" stroke-width="3.30267" stroke-miterlimit="10"/>
</g>
<path d="M207.549 132.23H128.301C127.781 132.23 127.368 131.809 127.368 131.297C127.368 130.777 127.789 130.364 128.301 130.364H207.549C208.069 130.364 208.482 130.785 208.482 131.297C208.482 131.817 208.061 132.23 207.549 132.23Z" fill="#6AA5FE"/>
<path d="M207.549 136.359H128.301C127.781 136.359 127.368 135.938 127.368 135.426C127.368 134.906 127.789 134.493 128.301 134.493H207.549C208.069 134.493 208.482 134.914 208.482 135.426C208.482 135.946 208.061 136.359 207.549 136.359Z" fill="#6AA5FE"/>
<path d="M207.549 140.487H128.301C127.781 140.487 127.368 140.066 127.368 139.554C127.368 139.034 127.789 138.621 128.301 138.621H207.549C208.069 138.621 208.482 139.042 208.482 139.554C208.482 140.074 208.061 140.487 207.549 140.487Z" fill="#6AA5FE"/>
<path d="M207.549 144.615H128.301C127.781 144.615 127.368 144.194 127.368 143.682C127.368 143.162 127.789 142.749 128.301 142.749H207.549C208.069 142.749 208.482 143.17 208.482 143.682C208.482 144.202 208.061 144.615 207.549 144.615Z" fill="#6AA5FE"/>
<path d="M256.387 183.801H252.622V188.442H256.387V183.801Z" fill="#FF746F"/>
<path d="M252.655 187.393L254.62 187.996L256.453 187.393L258.096 191.158H242.862L248.592 189.276L252.655 187.393Z" fill="#2A294F"/>
<path d="M292.122 188.442H295.895L294.492 183.801H290.727L292.122 188.442Z" fill="#FF746F"/>
<path d="M295.556 187.393L293.583 187.996L291.758 187.393L290.115 191.158H305.341L299.619 189.276L295.556 187.393Z" fill="#2A294F"/>
<path d="M244.167 26.8753C243.655 27.2633 239.023 30.0046 239.023 30.0046L235.737 25.7937L236.72 20.9883L243.796 21.4259L245.034 25.0093C245.332 25.8597 244.803 26.3881 244.176 26.867L244.167 26.8753Z" fill="#FE9280"/>
<path d="M243.787 21.4257L244.852 24.5715L241.583 25.8844C240.963 26.1568 240.27 26.2064 239.609 26.033C238.173 25.6449 237.231 24.2578 237.413 22.7798L237.628 21.0542L243.779 21.434L243.787 21.4257Z" fill="#E86767"/>
<path d="M242.186 25.6279L245.018 26.0407L246.57 23.3821C246.875 22.9032 246.727 22.2674 246.248 21.9619C245.769 21.6564 245.133 21.8051 244.828 22.284L242.186 25.6279Z" fill="#FF746F"/>
<path d="M237.091 37.0801L231.254 38.558L229.165 55.4594L236.002 55.7319L237.091 37.0801Z" fill="white"/>
<path d="M316.784 50.7036L306.579 49.4155L308.916 30.8628L319.121 32.1508C324.24 32.7949 327.873 37.4681 327.229 42.5955C326.585 47.7147 321.912 51.3476 316.784 50.7036Z" fill="#FE9280"/>
<g style="mix-blend-mode:multiply" opacity="0.2">
<path d="M317.313 46.4756L307.108 45.1876L306.579 49.415L316.784 50.703C321.903 51.347 326.585 47.7224 327.229 42.595C327.32 41.8684 327.32 41.1501 327.254 40.4482C325.784 44.428 321.714 47.0288 317.321 46.4756H317.313Z" fill="#777470"/>
</g>
<path d="M305.332 49.2585L197.087 35.2964L199.424 16.752L307.669 30.714L305.332 49.2585Z" fill="#FFC957"/>
<path d="M177.808 23.4481L197.087 35.2964L199.424 16.752L177.808 23.4481Z" fill="#FFF4DD"/>
<g style="mix-blend-mode:multiply" opacity="0.2">
<path d="M177.808 23.4482L197.087 35.2966L197.665 30.7637L177.808 23.4482Z" fill="#777470"/>
</g>
<path d="M184.248 21.4497L177.808 23.4478L183.546 26.9734L184.248 21.4497Z" fill="#2A294F"/>
<path d="M316.617 31.8609L307.655 30.7319L305.319 49.2785L314.281 50.4074L316.617 31.8609Z" fill="#D3EAF5"/>
<path d="M316.733 31.0158L313.669 30.6304L311.136 50.7666L314.2 51.152L316.733 31.0158Z" fill="#D3EAF5"/>
<g style="mix-blend-mode:multiply" opacity="0.2">
<path d="M311.227 50.0017L197.087 35.2966L197.665 30.7637L311.805 45.4688L311.227 50.0017Z" fill="#777470"/>
</g>
<g style="mix-blend-mode:multiply" opacity="0.05">
<path d="M312.995 35.99L198.854 21.2849L199.424 16.752L313.564 31.4571L312.995 35.99Z" fill="#777470"/>
</g>
<g style="mix-blend-mode:multiply" opacity="0.15">
<path d="M314.98 44.9982L311.916 44.6128L311.142 50.7651L314.206 51.1505L314.98 44.9982Z" fill="#777470"/>
</g>
<path d="M276.426 95.2732L277.953 91.3182L283.105 90.8971C284.055 90.7898 284.897 91.3677 284.988 92.1769C285.079 92.9861 284.385 93.7291 283.436 93.8365L276.434 95.2732H276.426Z" fill="#E86767"/>
<path d="M273.759 91.3514L276.426 95.2733L281.479 94.2329L275.815 85.8276L274.725 86.5542C273.131 87.6111 272.702 89.7578 273.759 91.3514Z" fill="#FF746F"/>
<path d="M277.936 90.022L295.11 72.0307L286.061 69.9253L275.814 85.8276L277.936 90.022Z" fill="white"/>
<path d="M288.481 71.2546C289.398 73.2197 291.726 74.0701 293.691 73.1536C295.656 72.2371 296.507 69.9087 295.59 67.9436C294.674 65.9785 292.345 65.1281 290.38 66.0446C288.415 66.9611 287.565 69.2895 288.481 71.2546Z" fill="white"/>
<path d="M289.802 72.8232L295.111 67.1674L276.591 45.2046C275.006 43.0497 271.876 42.7937 269.969 44.6762C268.062 46.5505 268.244 53.1888 270.374 54.8154L289.81 72.8232H289.802Z" fill="white"/>
<path d="M259.489 46.8355L267.083 47.4785L268.103 35.4339L260.509 34.7908L259.489 46.8355Z" fill="#FF746F"/>
<path d="M232.22 52.9C230.337 53.0239 228.909 54.6587 229.033 56.5412C229.157 58.4237 230.792 59.8521 232.674 59.72C234.557 59.5962 235.985 57.9614 235.861 56.0788C235.737 54.1963 234.102 52.7679 232.22 52.8918V52.9Z" fill="white"/>
<path d="M230.064 53.404L233.524 59.5552L254.694 54.7993C257.287 54.1388 258.699 47.8307 257.675 45.3537C256.651 42.8767 253.679 41.8859 251.375 43.2483L230.064 53.404Z" fill="white"/>
<path d="M273.817 88.2551L276.121 47.9543C276.657 45.7993 275.212 43.6608 273.016 43.3636L254.133 42.6783C251.937 42.381 249.963 44.0571 249.914 46.2782L246.05 95.265L273.817 88.2551Z" fill="white"/>
<path d="M255.76 88.2551L260.111 101.813L258.179 185.899H250.418L246.05 95.265L246.644 88.2551H255.76Z" fill="#1A55B5"/>
<path d="M255.76 88.2551L260.004 104.909H263.067L290.43 185.899H296.787L277.516 99.2448L273.817 88.2551H255.76Z" fill="#527EE9"/>
<path d="M236.526 21.0527L236.651 20.2783L243.792 21.4285L243.667 22.2029C243.406 23.8251 241.874 24.9248 240.26 24.6648L238.988 24.46C237.366 24.1987 236.266 22.6667 236.526 21.0527Z" fill="#FF746F"/>
<path d="M258.823 42.8438L264.355 43.0502L262.109 46.4106V73.1705L258.864 80.007L255.875 71.7751L260.036 46.196L258.823 42.8438Z" fill="#1A55B5"/>
<path d="M273.908 25.5622C273.726 23.7375 273.049 21.954 271.893 20.5669C270.828 19.2789 269.383 18.3211 267.798 17.8009C267.021 17.545 266.287 17.4129 265.486 17.4954C264.495 17.5945 263.488 17.7101 262.546 17.289C261.217 16.7028 260.268 15.5551 259.07 14.812C258.798 14.6386 258.492 14.4983 258.17 14.3909C256.899 13.8543 255.247 14.0276 254.059 14.8616C253.456 15.2661 253.002 15.8441 252.663 16.4716C252.333 17.0991 252.102 17.8009 252.044 18.5193C251.92 19.9642 252.316 21.4174 253.068 22.6476C253.77 23.7457 254.736 24.72 255.875 25.3475C255.825 25.6448 255.792 25.942 255.776 26.2475C255.528 31.2676 259.401 35.528 264.421 35.7757C267.938 35.9491 271.307 34.0088 272.933 30.8878C273.767 29.286 274.081 27.3952 273.899 25.554L273.908 25.5622ZM254.884 23.8448C254.447 23.3494 254.05 22.821 253.695 22.2513C252.993 21.1614 252.515 19.8734 252.572 18.5606C252.638 17.2808 253.208 15.9349 254.248 15.1258C254.645 14.812 255.099 14.5974 255.586 14.4652C255.347 14.5726 255.115 14.7047 254.892 14.8946C253.893 15.7203 253.514 17.0661 253.431 18.2468C253.266 20.7486 254.215 23.1265 255.982 24.7448C255.982 24.7778 255.974 24.8109 255.966 24.8439C255.578 24.5301 255.206 24.1999 254.876 23.8366L254.884 23.8448Z" fill="#1A55B5"/>
<path d="M269.647 31.086C269.49 32.0273 270.126 32.9273 271.067 33.0841C272.008 33.241 272.908 32.6052 273.065 31.664C273.222 30.7227 272.586 29.8227 271.645 29.6659C270.704 29.509 269.804 30.1448 269.647 31.086Z" fill="#FF746F"/>
<path d="M262.241 21.4089C258.212 21.3511 256.651 24.7364 256.651 24.7364L256.428 25.9253L256.247 26.9822C256.247 27.0317 256.247 27.0813 256.247 27.1308L256.23 27.0978L255.735 30.0454C255.049 34.116 257.642 38.1535 261.696 38.8966C265.808 39.6562 269.73 36.9067 270.423 32.7949L271.034 29.1785C271.034 29.1785 272.182 22.0942 262.241 21.4089Z" fill="#FF746F"/>
<path d="M263.033 30.9868C262.587 30.7061 259.648 30.1612 259.293 30.3593C258.913 30.574 258.756 31.0776 258.855 31.4987C258.954 31.9281 259.268 32.2749 259.631 32.5226C260.449 33.084 261.572 33.1748 262.472 32.7537C262.81 32.5969 263.14 32.3492 263.281 32.0024C263.429 31.6556 263.347 31.1932 263.025 30.9951L263.033 30.9868Z" fill="white"/>
<path d="M263.851 21.5907C264.85 21.7476 265.849 22.0201 266.79 22.3834C267.492 22.6641 268.169 23.0109 268.747 23.5063C270.613 25.1329 268.953 28.6337 268.309 30.4502C268.152 30.896 267.971 31.4244 268.251 31.8043C268.557 32.2171 269.226 32.1428 269.622 31.8125C270.018 31.4822 270.216 30.9951 270.481 30.5575C270.745 30.1199 271.133 29.6905 271.645 29.6575C271.645 29.6575 271.348 21.3926 271.348 21.3843C271.348 21.3265 266.154 21.2109 265.758 21.1944C264.957 21.1697 263.859 21.5825 263.859 21.5825L263.851 21.5907Z" fill="#1A55B5"/>
</g>
<defs>
<filter id="filter0_d_801_53980" x="96.7549" y="9.70117" width="26.375" height="19.6006" filterUnits="userSpaceOnUse" color-interpolation-filters="sRGB">
<feFlood flood-opacity="0" result="BackgroundImageFix"/>
<feColorMatrix in="SourceAlpha" type="matrix" values="0 0 0 0 0 0 0 0 0 0 0 0 0 0 0 0 0 0 127 0" result="hardAlpha"/>
<feOffset dx="1.65133" dy="1.65133"/>
<feColorMatrix type="matrix" values="0 0 0 0 0.952941 0 0 0 0 0.956863 0 0 0 0 0.964706 0 0 0 1 0"/>
<feBlend mode="normal" in2="BackgroundImageFix" result="effect1_dropShadow_801_53980"/>
<feBlend mode="normal" in="SourceGraphic" in2="effect1_dropShadow_801_53980" result="shape"/>
</filter>
<filter id="filter1_d_801_53980" x="96.7559" y="48.8535" width="26.374" height="19.5918" filterUnits="userSpaceOnUse" color-interpolation-filters="sRGB">
<feFlood flood-opacity="0" result="BackgroundImageFix"/>
<feColorMatrix in="SourceAlpha" type="matrix" values="0 0 0 0 0 0 0 0 0 0 0 0 0 0 0 0 0 0 127 0" result="hardAlpha"/>
<feOffset dx="1.65133" dy="1.65133"/>
<feColorMatrix type="matrix" values="0 0 0 0 0.952941 0 0 0 0 0.956863 0 0 0 0 0.964706 0 0 0 1 0"/>
<feBlend mode="normal" in2="BackgroundImageFix" result="effect1_dropShadow_801_53980"/>
<feBlend mode="normal" in="SourceGraphic" in2="effect1_dropShadow_801_53980" result="shape"/>
</filter>
<filter id="filter2_d_801_53980" x="96.7559" y="88.0071" width="26.374" height="19.5915" filterUnits="userSpaceOnUse" color-interpolation-filters="sRGB">
<feFlood flood-opacity="0" result="BackgroundImageFix"/>
<feColorMatrix in="SourceAlpha" type="matrix" values="0 0 0 0 0 0 0 0 0 0 0 0 0 0 0 0 0 0 127 0" result="hardAlpha"/>
<feOffset dx="1.65133" dy="1.65133"/>
<feColorMatrix type="matrix" values="0 0 0 0 0.952941 0 0 0 0 0.956863 0 0 0 0 0.964706 0 0 0 1 0"/>
<feBlend mode="normal" in2="BackgroundImageFix" result="effect1_dropShadow_801_53980"/>
<feBlend mode="normal" in="SourceGraphic" in2="effect1_dropShadow_801_53980" result="shape"/>
</filter>
<filter id="filter3_d_801_53980" x="96.7559" y="127.16" width="26.374" height="19.5915" filterUnits="userSpaceOnUse" color-interpolation-filters="sRGB">
<feFlood flood-opacity="0" result="BackgroundImageFix"/>
<feColorMatrix in="SourceAlpha" type="matrix" values="0 0 0 0 0 0 0 0 0 0 0 0 0 0 0 0 0 0 127 0" result="hardAlpha"/>
<feOffset dx="1.65133" dy="1.65133"/>
<feColorMatrix type="matrix" values="0 0 0 0 0.952941 0 0 0 0 0.956863 0 0 0 0 0.964706 0 0 0 1 0"/>
<feBlend mode="normal" in2="BackgroundImageFix" result="effect1_dropShadow_801_53980"/>
<feBlend mode="normal" in="SourceGraphic" in2="effect1_dropShadow_801_53980" result="shape"/>
</filter>
<clipPath id="clip0_801_53980">
<rect width="401" height="193" fill="white"/>
</clipPath>
</defs>
</svg>
