<svg width="175" height="50" viewBox="0 0 175 50" fill="none" xmlns="http://www.w3.org/2000/svg">
<path fill-rule="evenodd" clip-rule="evenodd" d="M37.5929 9.35252C37.7665 9.35342 38.0242 9.44055 38.0242 9.69927C38.0859 9.88428 40.7395 27.8382 42.2659 38.1856C42.8865 42.3821 43.3215 45.3288 43.3215 45.3288L43.2142 45.3512L28.3027 48.5364L28.3078 48.434L0.876953 43.3349C0.876953 43.3349 4.3489 15.9409 4.52249 15.074C4.69215 13.8031 4.77891 13.7743 5.9981 13.369L6.08487 13.3402C6.25847 13.3402 7.99444 12.8201 10.4248 12.0398C11.3796 8.0521 14.3307 0.25 20.5802 0.25C21.3614 0.25 22.3162 0.77014 23.0974 1.72373H23.271C25.9617 1.72373 27.4373 3.97767 28.3053 6.49168C29.1733 6.23161 29.7809 6.05823 29.7809 6.05823C29.8086 6.05823 29.8472 6.05603 29.8938 6.05338C30.0227 6.04604 30.212 6.03527 30.3943 6.05836C30.5058 6.06014 30.6167 6.0971 30.704 6.14626C30.7483 6.16941 30.7883 6.19753 30.8225 6.23161L33.6868 9.09238C33.6868 9.09238 37.4192 9.35245 37.5928 9.35245L37.5929 9.35252ZM26.8301 7.01181C26.3879 7.17743 25.9105 7.30789 25.3979 7.44797C25.1055 7.52786 24.8017 7.61088 24.4865 7.70533V7.18519C24.4865 5.62477 24.2261 4.41111 23.8789 3.45752C25.3545 3.54421 26.3093 5.19132 26.8301 7.01181ZM22.9243 7.96538C22.9243 6.14489 22.6639 4.75785 22.3167 3.80426C20.7543 4.41109 19.0184 6.14489 18.1504 9.69918C19.7996 9.17904 21.4487 8.6589 22.9243 8.22545V7.96538ZM20.4043 2.0705C20.6647 2.0705 20.9251 2.15719 21.1855 2.33057C19.1891 3.28416 17.0192 5.62479 16.1512 10.3927C15.135 10.731 14.1189 11.0165 13.144 11.2904L13.144 11.2904L13.144 11.2904L13.144 11.2904C12.8698 11.3675 12.5988 11.4436 12.332 11.5197C13.4604 7.87873 15.9776 2.0705 20.4043 2.0705ZM23.3568 17.588L21.534 23.0495C21.534 23.0495 19.8849 22.1826 17.9753 22.1826C15.1109 22.1826 14.9373 24.0031 14.9373 24.4365C14.9373 25.4342 15.9625 26.1861 17.1991 27.0931C19.0788 28.4718 21.4472 30.209 21.4472 33.7124C21.4472 38.3069 18.4961 41.2544 14.5901 41.2544C9.90302 41.2544 7.47266 38.3069 7.47266 38.3069L8.68784 34.1458C8.68784 34.1458 11.205 36.3131 13.2882 36.3131C14.6769 36.3131 15.1977 35.2728 15.1977 34.4059C15.1977 32.9594 14.1601 32.1313 12.9961 31.2024C11.5092 30.0159 9.81622 28.6648 9.81622 25.6502C9.81622 21.1423 13.0278 16.8078 19.6245 16.8078C22.1416 16.8078 23.3568 17.588 23.3568 17.588ZM149.736 19.5819H153.816L153.034 23.8297H148.955L145.83 40.2141H139.928L143.052 23.9164H140.275L141.143 19.4952H143.92L144.094 18.5416C144.528 16.1143 145.483 13.687 147.479 11.9532C149.042 10.5661 151.125 9.95929 153.208 9.95929C155.378 9.95929 156.419 10.4794 156.419 10.4794L155.291 15.074C155.291 15.074 154.423 14.8139 153.382 14.8139C151.472 14.8139 150.257 16.6344 149.91 18.6283L149.736 19.5819ZM81.773 19.1485C79.1691 19.1485 77.1727 20.3621 75.5235 22.2693H75.4368L77.6935 10.3928H71.7912L66.0625 40.3875H71.9648L73.9612 30.1581C74.7424 26.257 76.7387 23.9164 78.5615 23.9164C79.8635 23.9164 80.3843 24.7833 80.3843 26.0837C80.3843 26.8639 80.2975 27.9041 80.1239 28.6844L77.8671 40.3875H83.8562L86.1998 28.2509C86.4602 26.9506 86.6338 25.4768 86.6338 24.4365C86.547 21.1423 84.811 19.1485 81.773 19.1485ZM60.7672 27.8174C59.2916 27.0372 58.5104 26.3437 58.5104 25.3901C58.5104 24.1765 59.552 23.3962 61.288 23.3962C63.1975 23.3962 64.9335 24.1765 64.9335 24.1765L66.3223 20.0153C66.3223 20.0153 65.1071 19.0617 61.3748 19.0617C56.2536 19.0617 52.6949 22.0092 52.6949 26.0836C52.6949 28.4243 54.3441 30.2448 56.6008 31.4584C58.4236 32.4987 59.0312 33.1922 59.0312 34.2325C59.0312 35.3595 58.1632 36.2264 56.4272 36.2264C53.9101 36.2264 51.6533 34.926 51.6533 34.926L50.1777 39.0871C50.1777 39.0871 52.3477 40.5609 55.9932 40.5609C61.288 40.5609 65.0203 37.9602 65.0203 33.2789C64.9335 30.9383 63.0239 29.2045 60.7672 27.8174ZM88.1094 32.5854C88.1094 25.5635 92.7965 19.1484 99.8272 19.1484C105.296 19.1484 107.813 23.0495 107.813 27.384C107.813 34.5793 103.126 40.8209 96.1816 40.8209C90.8869 40.8209 88.1094 37.18 88.1094 32.5854ZM96.962 36.2264C94.9656 36.2264 94.0977 34.4926 94.0977 32.412C94.0977 29.0311 95.8336 23.5696 99.0452 23.5696C101.128 23.5696 101.823 25.3901 101.823 27.1239C101.736 30.6782 100 36.2264 96.962 36.2264ZM116.579 22.616C116.579 22.616 118.836 19.1484 122.829 19.1484C127.082 19.1484 128.818 22.616 128.818 26.6038C128.818 33.7991 124.304 40.821 117.447 40.821C115.19 40.821 113.975 40.0407 113.975 40.0407H113.888L112.239 48.7097H106.424L110.416 27.2973C110.937 24.87 111.371 21.6625 111.632 19.4952H116.84L116.492 22.616H116.579ZM117.188 36.2264C115.626 36.2264 114.758 35.3595 114.758 35.3595L115.713 29.898C116.407 26.257 118.317 23.8297 120.313 23.8297C122.136 23.8297 122.656 25.4768 122.656 27.0372C122.743 30.9383 120.487 36.2264 117.188 36.2264ZM133.852 14.0337C133.852 12.1265 135.327 10.6528 137.237 10.6528C138.973 10.6528 140.188 11.9532 140.188 13.6003C140.101 15.7675 138.539 16.9812 136.716 16.9812H136.629C134.98 16.9812 133.852 15.7675 133.852 14.0337ZM128.99 40.2141H134.893L138.885 19.4085H132.983L128.99 40.2141ZM167.874 19.5819C167.874 19.5819 164.229 28.8577 162.579 33.8858H162.493C162.406 32.2387 161.017 19.5819 161.017 19.5819H154.854L158.413 38.6537C158.5 39.0872 158.413 39.3472 158.326 39.6073C157.632 40.9077 156.504 42.208 155.115 43.1616C153.986 43.9418 152.771 44.4619 151.816 44.8087L153.466 49.75C154.681 49.49 157.111 48.5364 159.194 46.5425C161.885 44.0285 164.315 40.1274 166.919 34.926L174.124 19.5819H167.874Z" fill="#2F3241"/>
</svg>
