<svg width="40" height="40" viewBox="0 0 40 40" fill="none" xmlns="http://www.w3.org/2000/svg">
<circle opacity="0.1" cx="20" cy="20" r="20" fill="#7F6EE9"/>
<path d="M10.4004 25.5987V27.1999C10.4004 28.5237 13.6254 29.5999 17.6004 29.5999C21.5754 29.5999 24.8004 28.5237 24.8004 27.1999V25.5987C23.2516 26.6899 20.4204 27.1999 17.6004 27.1999C14.7804 27.1999 11.9491 26.6899 10.4004 25.5987ZM22.4004 15.1999C26.3754 15.1999 29.6004 14.1237 29.6004 12.7999C29.6004 11.4762 26.3754 10.3999 22.4004 10.3999C18.4254 10.3999 15.2004 11.4762 15.2004 12.7999C15.2004 14.1237 18.4254 15.1999 22.4004 15.1999ZM10.4004 21.6649V23.5999C10.4004 24.9237 13.6254 25.9999 17.6004 25.9999C21.5754 25.9999 24.8004 24.9237 24.8004 23.5999V21.6649C23.2516 22.9399 20.4166 23.5999 17.6004 23.5999C14.7841 23.5999 11.9491 22.9399 10.4004 21.6649ZM26.0004 22.0774C28.1491 21.6612 29.6004 20.8887 29.6004 19.9999V18.3987C28.7304 19.0137 27.4516 19.4337 26.0004 19.6924V22.0774ZM17.6004 16.3999C13.6254 16.3999 10.4004 17.7424 10.4004 19.3999C10.4004 21.0574 13.6254 22.3999 17.6004 22.3999C21.5754 22.3999 24.8004 21.0574 24.8004 19.3999C24.8004 17.7424 21.5754 16.3999 17.6004 16.3999ZM25.8241 18.5112C28.0741 18.1062 29.6004 17.3112 29.6004 16.3999V14.7987C28.2691 15.7399 25.9816 16.2462 23.5741 16.3662C24.6804 16.9024 25.4941 17.6224 25.8241 18.5112Z" fill="#7F6EE9"/>
</svg>
