<svg width="110" height="110" viewBox="0 0 110 110" fill="none" xmlns="http://www.w3.org/2000/svg">
<circle opacity="0.1" cx="55" cy="55" r="55" fill="#7F6EE9"/>
<path d="M29 69.3717V73.625C29 77.1412 37.5664 80 48.125 80C58.6836 80 67.25 77.1412 67.25 73.625V69.3717C63.1361 72.2703 55.6156 73.625 48.125 73.625C40.6344 73.625 33.1139 72.2703 29 69.3717ZM60.875 41.75C71.4336 41.75 80 38.8912 80 35.375C80 31.8588 71.4336 29 60.875 29C50.3164 29 41.75 31.8588 41.75 35.375C41.75 38.8912 50.3164 41.75 60.875 41.75ZM29 58.9227V64.0625C29 67.5787 37.5664 70.4375 48.125 70.4375C58.6836 70.4375 67.25 67.5787 67.25 64.0625V58.9227C63.1361 62.3094 55.6057 64.0625 48.125 64.0625C40.6443 64.0625 33.1139 62.3094 29 58.9227ZM70.4375 60.0184C76.1451 58.9127 80 56.8607 80 54.5V50.2467C77.6891 51.8803 74.2924 52.9959 70.4375 53.6832V60.0184ZM48.125 44.9375C37.5664 44.9375 29 48.5035 29 52.9062C29 57.309 37.5664 60.875 48.125 60.875C58.6836 60.875 67.25 57.309 67.25 52.9062C67.25 48.5035 58.6836 44.9375 48.125 44.9375ZM69.9693 50.5455C75.9459 49.4697 80 47.358 80 44.9375V40.6842C76.4639 43.1844 70.3877 44.5291 63.9928 44.8479C66.9312 46.2723 69.0928 48.1848 69.9693 50.5455Z" fill="#7F6EE9"/>
</svg>
