<svg width="40" height="40" viewBox="0 0 40 40" fill="none" xmlns="http://www.w3.org/2000/svg">
<circle opacity="0.1" cx="20" cy="20" r="20" fill="#2F3241"/>
<path d="M28.3884 17.8417C28.0652 17.504 27.731 17.156 27.605 16.85C27.4884 16.5697 27.4815 16.1052 27.4747 15.6552C27.4618 14.8186 27.4481 13.8706 26.789 13.2115C26.1298 12.5523 25.1818 12.5386 24.3452 12.5257C23.8952 12.5189 23.4307 12.512 23.1504 12.3955C22.8452 12.2695 22.4964 11.9352 22.1587 11.612C21.5672 11.0437 20.8952 10.4 20.0004 10.4C19.1055 10.4 18.4344 11.0437 17.8421 11.612C17.5044 11.9352 17.1564 12.2695 16.8504 12.3955C16.5718 12.512 16.1055 12.5189 15.6555 12.5257C14.819 12.5386 13.871 12.5523 13.2118 13.2115C12.5527 13.8706 12.5432 14.8186 12.5261 15.6552C12.5192 16.1052 12.5124 16.5697 12.3958 16.85C12.2698 17.1552 11.9355 17.504 11.6124 17.8417C11.0441 18.4332 10.4004 19.1052 10.4004 20C10.4004 20.8949 11.0441 21.566 11.6124 22.1583C11.9355 22.496 12.2698 22.844 12.3958 23.15C12.5124 23.4303 12.5192 23.8949 12.5261 24.3449C12.539 25.1815 12.5527 26.1295 13.2118 26.7886C13.871 27.4477 14.819 27.4615 15.6555 27.4743C16.1055 27.4812 16.5701 27.488 16.8504 27.6046C17.1555 27.7306 17.5044 28.0649 17.8421 28.388C18.4335 28.9563 19.1055 29.6 20.0004 29.6C20.8952 29.6 21.5664 28.9563 22.1587 28.388C22.4964 28.0649 22.8444 27.7306 23.1504 27.6046C23.4307 27.488 23.8952 27.4812 24.3452 27.4743C25.1818 27.4615 26.1298 27.4477 26.789 26.7886C27.4481 26.1295 27.4618 25.1815 27.4747 24.3449C27.4815 23.8949 27.4884 23.4303 27.605 23.15C27.731 22.8449 28.0652 22.496 28.3884 22.1583C28.9567 21.5669 29.6004 20.8949 29.6004 20C29.6004 19.1052 28.9567 18.434 28.3884 17.8417ZM20.0004 25.4857C19.797 25.4857 19.5981 25.4254 19.4289 25.3124C19.2598 25.1994 19.128 25.0387 19.0501 24.8508C18.9723 24.6628 18.9519 24.456 18.9916 24.2565C19.0313 24.057 19.1292 23.8737 19.2731 23.7299C19.4169 23.586 19.6002 23.488 19.7997 23.4484C19.9992 23.4087 20.2061 23.429 20.394 23.5069C20.582 23.5847 20.7426 23.7166 20.8556 23.8857C20.9686 24.0549 21.029 24.2537 21.029 24.4572C21.029 24.73 20.9206 24.9916 20.7277 25.1845C20.5348 25.3774 20.2732 25.4857 20.0004 25.4857ZM20.6861 21.3097V21.3715C20.6861 21.5533 20.6139 21.7277 20.4853 21.8563C20.3567 21.9849 20.1823 22.0572 20.0004 22.0572C19.8185 22.0572 19.6441 21.9849 19.5155 21.8563C19.3869 21.7277 19.3147 21.5533 19.3147 21.3715V20.6857C19.3147 20.5039 19.3869 20.3295 19.5155 20.2009C19.6441 20.0723 19.8185 20 20.0004 20C21.1344 20 22.0575 19.2286 22.0575 18.2857C22.0575 17.3429 21.1344 16.5715 20.0004 16.5715C18.8664 16.5715 17.9432 17.3429 17.9432 18.2857V18.6286C17.9432 18.8105 17.871 18.9849 17.7424 19.1135C17.6138 19.2421 17.4394 19.3143 17.2575 19.3143C17.0757 19.3143 16.9013 19.2421 16.7727 19.1135C16.6441 18.9849 16.5718 18.8105 16.5718 18.6286V18.2857C16.5718 16.5843 18.1095 15.2 20.0004 15.2C21.8912 15.2 23.429 16.5843 23.429 18.2857C23.429 19.7755 22.2495 21.0226 20.6861 21.3097Z" fill="#2F3241"/>
</svg>
