
<svg width="138" height="58" viewBox="0 0 138 58" fill="none" xmlns="http://www.w3.org/2000/svg">
<path d="M2.6411 42.252H0.455078V-0.000244141H47.4692V21.6742H45.2831V2.18578H2.6411V42.252Z" fill="#2F3241"/>
<path d="M23.8526 23.9368H16.9375V42.4232H23.8526V23.9368Z" fill="#1A63F1"/>
<path d="M13.0128 32.9067H6.09766V42.4232H13.0128V32.9067Z" fill="#1A63F1"/>
<path d="M27.4414 42.5616V18.1911H25.1133L30.899 8.87866L36.6664 18.1255H34.3565V42.5616H27.4414Z" fill="#1A63F1"/>
<path d="M49.6617 44.9151H46.6669V28.1775H42.3203V25.3757H54.0046V28.1775H49.6581V44.9151H49.6617Z" fill="#2F3241"/>
<path d="M61.2803 28.1775V33.2637H67.8457L65.1131 36.0654H61.2803V42.117H68.0716V44.9188H57.9648V25.3794H68.0716V28.1811H61.2803V28.1775Z" fill="#2F3241"/>
<path d="M110.819 28.1775V33.2637H117.385L114.652 36.0654H110.819V42.117H117.611V44.9188H107.504V25.3794H117.611V28.1811H110.819V28.1775Z" fill="#2F3241"/>
<path d="M79.1441 44.9151H76.1493V28.1775H71.8027V25.3757H83.487V28.1775H79.1405V44.9151H79.1441Z" fill="#2F3241"/>
<path d="M98.8437 33.3256V25.3757H102.126V44.9151H98.8437V35.9342H90.7627V44.9151H87.4473V25.3757H90.7627V33.3256H98.8437Z" fill="#2F3241"/>
<path d="M135.701 44.9151H131.613L126.075 36.2257L126.042 44.9151H122.727V25.3757H127.907C132.265 25.3757 134.444 27.3395 134.444 31.2671C134.444 32.7463 134.061 33.9814 133.3 34.9687C132.538 35.9561 131.5 36.5245 130.192 36.6738L135.697 44.9151H135.701ZM126.042 34.874H127.04C129.766 34.874 131.128 33.7045 131.128 31.3654C131.128 29.0264 129.776 27.9844 127.073 27.9844H126.042V34.874Z" fill="#2F3241"/>
<path d="M6.099 49.9908V48.916H0V57.1391H1.14401V53.4739H5.63993V52.3991H1.14401V49.9908H6.10265H6.099Z" fill="#2F3241"/>
<path d="M17.1211 48.916V57.1391H18.3015V48.916H17.1211Z" fill="#2F3241"/>
<path d="M35.2375 48.916V55.2883L30.7161 48.916H29.4336V57.1391H30.5849V50.7559L35.1173 57.1391H36.3815V48.916H35.2375Z" fill="#2F3241"/>
<path d="M51.3307 48.916H50.1793L46.791 57.1391H48.0188L48.9078 54.9567L48.937 54.8802L49.4106 53.7945L50.7623 50.4899L52.0921 53.7471L52.1103 53.7945L52.573 54.8802L52.6496 55.0587L53.5094 57.1354H54.7372L51.3379 48.9124L51.3307 48.916Z" fill="#2F3241"/>
<path d="M117.598 48.916H116.447L113.059 57.1391H114.286L115.175 54.9567L115.205 54.8802L115.678 53.7945L117.03 50.4899L118.36 53.7471L118.378 53.7945L118.841 54.8802L118.917 55.0587L119.777 57.1354H121.005L117.606 48.9124L117.598 48.916Z" fill="#2F3241"/>
<path d="M70.9328 48.916V55.2883L66.4114 48.916H65.1289V57.1391H66.2802V50.7559L70.8126 57.1391H72.0768V48.916H70.9328Z" fill="#2F3241"/>
<path d="M86.5152 56.1188C85.8558 56.1188 85.3057 55.9002 84.8612 55.4666C84.3219 54.9274 84.0596 54.155 84.0596 53.124C84.0596 52.0929 84.3329 51.284 84.9012 50.6975C85.3931 50.1765 86.0052 49.9214 86.7229 49.9214C87.7977 49.9214 88.5446 50.3841 88.9527 51.3205L90.002 50.9051C89.3972 49.4988 88.3005 48.7883 86.7266 48.7883C85.6299 48.7883 84.7154 49.2037 83.9795 50.0271C83.2435 50.8687 82.8828 51.8961 82.8828 53.124C82.8828 54.4356 83.2326 55.4666 83.9321 56.2026C84.5916 56.8839 85.4623 57.23 86.5189 57.23C87.3787 57.23 88.0855 57.0224 88.643 56.607C89.1348 56.239 89.5502 55.6816 89.8817 54.9165L88.9089 54.4829C88.4171 55.5686 87.6265 56.1152 86.5189 56.1152L86.5152 56.1188Z" fill="#2F3241"/>
<path d="M101.133 48.916V57.1391H102.324V48.916H101.133Z" fill="#2F3241"/>
<path d="M132.55 56.0643V48.916H131.398V57.1391H138V56.0643H132.553H132.55Z" fill="#2F3241"/>
</svg>
