<svg width="40" height="40" viewBox="0 0 50 50" fill="none" xmlns="http://www.w3.org/2000/svg">
<rect x="0.5" y="0.5" width="49" height="49" rx="9.5" stroke="#2F3241"/>
<path d="M37 18.2353C36.1534 18.6265 35.2409 18.8835 34.2954 19.0065C35.2629 18.4141 36.0105 17.4753 36.3623 16.3465C35.4498 16.9053 34.4383 17.2965 33.3719 17.52C32.5033 16.5588 31.283 16 29.8977 16C27.3141 16 25.2032 18.1459 25.2032 20.7947C25.2032 21.1747 25.2471 21.5435 25.3241 21.89C21.4101 21.6888 17.925 19.7776 15.6052 16.8829C15.1984 17.5871 14.9675 18.4141 14.9675 19.2859C14.9675 20.9512 15.7921 22.4265 17.0674 23.2647C16.2868 23.2647 15.5612 23.0412 14.9235 22.7059V22.7394C14.9235 25.0641 16.5507 27.0088 18.7055 27.4447C18.0137 27.6372 17.2874 27.664 16.5837 27.5229C16.8823 28.4757 17.4671 29.3094 18.2559 29.9068C19.0447 30.5042 19.9979 30.8353 20.9814 30.8535C19.3142 32.1952 17.2477 32.9204 15.1214 32.91C14.7476 32.91 14.3738 32.8876 14 32.8429C16.0889 34.2065 18.5736 35 21.2342 35C29.8977 35 34.6582 27.6906 34.6582 21.3535C34.6582 21.1412 34.6582 20.94 34.6472 20.7276C35.5707 20.0571 36.3623 19.2076 37 18.2353Z" fill="#2F3241"/>
</svg>
