<svg width="70" height="70" viewBox="0 0 115 115" fill="none" xmlns="http://www.w3.org/2000/svg">
<g clip-path="url(#clip0_801_53895)">
<rect width="115" height="115" rx="57.5" fill="#1A63F1"/>
<g filter="url(#filter0_d_801_53895)">
<path fill-rule="evenodd" clip-rule="evenodd" d="M95.5107 98.1898C94.0004 95.1693 88.616 92.9367 85.3328 92.0831L57.7541 84.9258H57.6885L29.3218 92.0831C26.4983 92.8054 21.4422 94.5127 19.8663 96.9422C19.4066 97.5988 19.0783 98.3212 18.8156 99.0435L18.4873 115.262H33.6212L34.9032 112.57V115.262H54.9306H57.6885H81.5244V112.57L82.8064 115.262H95.839L95.5107 98.1898Z" fill="#F7931A"/>
<path d="M57.2299 96.9426L39.8291 89.3912C54.0124 83.6128 69.1588 86.9836 74.9591 89.3912L57.2299 96.9426Z" fill="#FFBE98"/>
<path d="M63.0736 92.8714H52.1735C50.0722 92.8714 48.4307 91.1641 48.4307 89.1286V71.4651C48.4307 67.9192 51.3198 65.0957 54.8 65.0957H60.4471C63.9929 65.0957 66.8165 67.9849 66.8165 71.4651V89.1286C66.8165 91.1641 65.1092 92.8714 63.0736 92.8714Z" fill="#FFBE98"/>
<path d="M48.2139 75.6016C48.5422 76.9148 60.0066 82.7369 67.0795 75.6016H48.2139Z" fill="#FFAC7B"/>
<path d="M38.2927 61.6665C38.2927 61.6665 33.959 61.7978 32.1204 55.1658C30.2818 48.4681 33.959 48.5994 36.0602 50.3723L38.2927 61.6665Z" fill="#F3AF91"/>
<path d="M75.8516 61.6665C75.8516 61.6665 80.1854 61.7978 82.0239 55.1658C83.8625 48.4681 80.1854 48.5994 78.0841 50.3723L75.8516 61.6665Z" fill="#F3AF91"/>
<path d="M78.5041 48.2227C78.5041 63.1283 71.9378 78.0339 58.0171 78.2966C43.4398 78.5592 36.2168 63.0626 36.2168 48.2227C36.2168 33.317 37.0048 21.5633 57.3605 21.7603C78.8325 22.0229 78.5041 33.317 78.5041 48.2227Z" fill="#FFBE98"/>
<ellipse cx="66.4224" cy="45.3964" rx="2.62654" ry="3.93981" fill="#36180E"/>
<ellipse cx="48.0367" cy="45.3964" rx="2.62654" ry="3.93981" fill="#36180E"/>
<path d="M62.6468 39.7943C63.8187 38.8257 67.0145 37.2144 70.4224 38.5184" stroke="#5F220D" stroke-width="2.62654" stroke-linecap="round"/>
<path d="M51.8718 39.7943C50.6999 38.8257 47.5041 37.2144 44.0961 38.5184" stroke="#5F220D" stroke-width="2.62654" stroke-linecap="round"/>
<path d="M61.1603 69.0353C59.8853 69.8635 56.5261 71.0985 53.2897 69.4132" stroke="#B64741" stroke-width="1.31327" stroke-linecap="round"/>
<path d="M56.8935 49.3364C56.3463 53.0574 55.0314 56.3624 55.2941 56.8877C55.6224 57.5444 58.9056 57.5444 59.8905 56.8877" stroke="#F3AF91" stroke-width="1.31327" stroke-linecap="round"/>
<path d="M77.2575 53.9328C77.0541 53.4287 72.2309 70.9159 67.9496 71.7686C63.6684 72.6213 68.278 67.8944 67.2273 66.1215C66.1767 64.3486 61.5146 61.722 59.873 62.3787C58.7567 62.8383 58.4031 63.495 57.3121 63.495C56.2212 63.495 55.8019 62.8383 54.7513 62.3787C53.1097 61.6564 48.4476 64.2829 47.3969 66.1215C46.3463 67.8944 51.0084 72.4909 46.6746 71.7686C42.3408 71.0463 37.8593 54.9178 37.8593 54.9178C35.5454 53.1803 36.9362 52.699 39.189 68.8137C41.1589 84.179 55.7362 84.0477 57.3778 83.982C58.9537 84.0477 73.5967 84.179 75.5666 68.8137C77.5365 52.5948 79.884 52.2912 77.2575 53.9328ZM57.3778 77.2434C57.3778 77.2434 51.7585 75.6981 50.9921 71.7686C50.5916 69.7152 49.0221 66.0806 49.7608 66.5155C50.4995 66.9504 57.2465 65.7932 57.2465 65.7932C57.2465 65.7275 57.3121 65.5962 57.3121 65.5962C57.3121 65.5962 57.3121 65.7275 57.3778 65.7932C57.3778 65.7932 63.9605 66.9095 64.8635 66.5155C65.7664 66.1215 64.5279 69.7157 64.1248 71.7686C63.3617 75.6547 57.3778 77.2434 57.3778 77.2434Z" fill="#5F220D"/>
<path d="M57.229 96.9423L40.8002 88.7344L38.1865 89.9163L49.0146 100.554L57.229 96.9423Z" fill="white"/>
<path d="M57.229 96.9423L73.6578 88.7344L76.2715 89.9163L65.4434 100.554L57.229 96.9423Z" fill="white"/>
<path fill-rule="evenodd" clip-rule="evenodd" d="M57.8865 99.8969C57.8865 100.26 57.5925 100.554 57.2299 100.554C56.8672 100.554 56.5732 100.26 56.5732 99.8969C56.5732 99.5342 56.8672 99.2402 57.2299 99.2402C57.5925 99.2402 57.8865 99.5342 57.8865 99.8969ZM57.1644 99.7326C57.1644 99.8233 57.0909 99.8968 57.0002 99.8968C56.9096 99.8968 56.8361 99.8233 56.8361 99.7326C56.8361 99.642 56.9096 99.5685 57.0002 99.5685C57.0909 99.5685 57.1644 99.642 57.1644 99.7326ZM57.4599 99.8968C57.5505 99.8968 57.624 99.8233 57.624 99.7326C57.624 99.642 57.5505 99.5685 57.4599 99.5685C57.3692 99.5685 57.2957 99.642 57.2957 99.7326C57.2957 99.8233 57.3692 99.8968 57.4599 99.8968ZM57.624 100.127C57.624 100.217 57.5505 100.291 57.4599 100.291C57.3692 100.291 57.2957 100.217 57.2957 100.127C57.2957 100.036 57.3692 99.9624 57.4599 99.9624C57.5505 99.9624 57.624 100.036 57.624 100.127ZM57.0002 100.291C57.0909 100.291 57.1644 100.217 57.1644 100.127C57.1644 100.036 57.0909 99.9624 57.0002 99.9624C56.9096 99.9624 56.8361 100.036 56.8361 100.127C56.8361 100.217 56.9096 100.291 57.0002 100.291Z" fill="#FFBE98"/>
<path fill-rule="evenodd" clip-rule="evenodd" d="M57.8865 104.494C57.8865 104.856 57.5925 105.15 57.2299 105.15C56.8672 105.15 56.5732 104.856 56.5732 104.494C56.5732 104.131 56.8672 103.837 57.2299 103.837C57.5925 103.837 57.8865 104.131 57.8865 104.494ZM57.1644 104.329C57.1644 104.42 57.0909 104.493 57.0002 104.493C56.9096 104.493 56.8361 104.42 56.8361 104.329C56.8361 104.239 56.9096 104.165 57.0002 104.165C57.0909 104.165 57.1644 104.239 57.1644 104.329ZM57.4599 104.493C57.5505 104.493 57.624 104.42 57.624 104.329C57.624 104.239 57.5505 104.165 57.4599 104.165C57.3692 104.165 57.2957 104.239 57.2957 104.329C57.2957 104.42 57.3692 104.493 57.4599 104.493ZM57.624 104.723C57.624 104.814 57.5505 104.887 57.4599 104.887C57.3692 104.887 57.2957 104.814 57.2957 104.723C57.2957 104.633 57.3692 104.559 57.4599 104.559C57.5505 104.559 57.624 104.633 57.624 104.723ZM57.0002 104.887C57.0909 104.887 57.1644 104.814 57.1644 104.723C57.1644 104.633 57.0909 104.559 57.0002 104.559C56.9096 104.559 56.8361 104.633 56.8361 104.723C56.8361 104.814 56.9096 104.887 57.0002 104.887Z" fill="#FFBE98"/>
<path fill-rule="evenodd" clip-rule="evenodd" d="M57.8865 109.09C57.8865 109.452 57.5925 109.746 57.2299 109.746C56.8672 109.746 56.5732 109.452 56.5732 109.09C56.5732 108.727 56.8672 108.433 57.2299 108.433C57.5925 108.433 57.8865 108.727 57.8865 109.09ZM57.1644 108.925C57.1644 109.016 57.0909 109.09 57.0002 109.09C56.9096 109.09 56.8361 109.016 56.8361 108.925C56.8361 108.835 56.9096 108.761 57.0002 108.761C57.0909 108.761 57.1644 108.835 57.1644 108.925ZM57.4599 109.09C57.5505 109.09 57.624 109.016 57.624 108.925C57.624 108.835 57.5505 108.761 57.4599 108.761C57.3692 108.761 57.2957 108.835 57.2957 108.925C57.2957 109.016 57.3692 109.09 57.4599 109.09ZM57.624 109.319C57.624 109.41 57.5505 109.484 57.4599 109.484C57.3692 109.484 57.2957 109.41 57.2957 109.319C57.2957 109.229 57.3692 109.155 57.4599 109.155C57.5505 109.155 57.624 109.229 57.624 109.319ZM57.0002 109.484C57.0909 109.484 57.1644 109.41 57.1644 109.319C57.1644 109.229 57.0909 109.155 57.0002 109.155C56.9096 109.155 56.8361 109.229 56.8361 109.319C56.8361 109.41 56.9096 109.484 57.0002 109.484Z" fill="#FFBE98"/>
<path fill-rule="evenodd" clip-rule="evenodd" d="M57.8865 113.686C57.8865 114.049 57.5925 114.343 57.2299 114.343C56.8672 114.343 56.5732 114.049 56.5732 113.686C56.5732 113.324 56.8672 113.03 57.2299 113.03C57.5925 113.03 57.8865 113.324 57.8865 113.686ZM57.1644 113.522C57.1644 113.613 57.0909 113.686 57.0002 113.686C56.9096 113.686 56.8361 113.613 56.8361 113.522C56.8361 113.432 56.9096 113.358 57.0002 113.358C57.0909 113.358 57.1644 113.432 57.1644 113.522ZM57.4599 113.686C57.5505 113.686 57.624 113.613 57.624 113.522C57.624 113.432 57.5505 113.358 57.4599 113.358C57.3692 113.358 57.2957 113.432 57.2957 113.522C57.2957 113.613 57.3692 113.686 57.4599 113.686ZM57.624 113.916C57.624 114.007 57.5505 114.081 57.4599 114.081C57.3692 114.081 57.2957 114.007 57.2957 113.916C57.2957 113.826 57.3692 113.752 57.4599 113.752C57.5505 113.752 57.624 113.826 57.624 113.916ZM57.0002 114.081C57.0909 114.081 57.1644 114.007 57.1644 113.916C57.1644 113.826 57.0909 113.752 57.0002 113.752C56.9096 113.752 56.8361 113.826 56.8361 113.916C56.8361 114.007 56.9096 114.081 57.0002 114.081Z" fill="#FFBE98"/>
<path d="M57.1104 12.5647C81.9312 4.68503 79.9357 25.9619 80.618 40.0777C80.8948 45.8042 78.8987 54.4581 77.6631 54.4581C75.9438 54.4581 78.7794 47.0381 77.8601 38.9615C75.9559 21.8233 65.778 32.0668 57.2417 31.9354C48.4428 31.8041 37.7397 22.0202 36.492 38.6988C35.6384 50.1243 39.2911 56.0608 36.9517 55.049C35.889 54.5894 34.3908 47.3664 33.6685 42.7699C33.6028 42.1133 33.6028 41.391 33.6028 40.7344V40.7344C33.6028 25.1721 32.2896 20.4444 57.1104 12.5647Z" fill="#5F220D"/>
</g>
</g>
<defs>
<filter id="filter0_d_801_53895" x="11.1406" y="8.625" width="92.834" height="109.512" filterUnits="userSpaceOnUse" color-interpolation-filters="sRGB">
<feFlood flood-opacity="0" result="BackgroundImageFix"/>
<feColorMatrix in="SourceAlpha" type="matrix" values="0 0 0 0 0 0 0 0 0 0 0 0 0 0 0 0 0 0 127 0" result="hardAlpha"/>
<feOffset dy="1.4375"/>
<feGaussianBlur stdDeviation="0.71875"/>
<feComposite in2="hardAlpha" operator="out"/>
<feColorMatrix type="matrix" values="0 0 0 0 0 0 0 0 0 0 0 0 0 0 0 0 0 0 0.25 0"/>
<feBlend mode="normal" in2="BackgroundImageFix" result="effect1_dropShadow_801_53895"/>
<feBlend mode="normal" in="SourceGraphic" in2="effect1_dropShadow_801_53895" result="shape"/>
</filter>
<clipPath id="clip0_801_53895">
<rect width="115" height="115" rx="57.5" fill="white"/>
</clipPath>
</defs>
</svg>
