<svg width="40" height="40" viewBox="0 0 40 40" fill="none" xmlns="http://www.w3.org/2000/svg">
<circle opacity="0.1" cx="20" cy="20" r="20" fill="#FD5F9A"/>
<path d="M22.0028 11.9308C22.0228 11.9054 22.0478 11.8843 22.0762 11.8688C22.1046 11.8534 22.1358 11.844 22.168 11.8411C22.2001 11.8382 22.2324 11.842 22.2631 11.8521C22.2937 11.8623 22.322 11.8786 22.3462 11.9001L23.2224 12.6796L20.4644 16.1597H22.292L24.2955 13.6329L25.8672 15.0317C25.9136 15.0731 25.9422 15.1312 25.9468 15.1936C25.9515 15.2561 25.9317 15.3178 25.8919 15.3658L25.2355 16.1597H27.0849C27.314 15.8213 27.4126 15.41 27.3621 15.0033C27.3116 14.5967 27.1156 14.2226 26.8109 13.9517L23.2909 10.8191C23.1211 10.6682 22.9226 10.5538 22.7075 10.4829C22.4924 10.412 22.2652 10.3861 22.0399 10.4068C21.8145 10.4275 21.5957 10.4943 21.3968 10.6031C21.1979 10.712 21.0231 10.8606 20.883 11.0399L16.8845 16.1597H18.7016L22.0028 11.9308ZM13.3398 15.6797C13.1505 15.6797 12.969 15.7556 12.8352 15.8906C12.7014 16.0256 12.6262 16.2087 12.6262 16.3997C12.6262 16.5907 12.7014 16.7738 12.8352 16.9088C12.969 17.0439 13.1505 17.1197 13.3398 17.1197H25.7073C26.5273 17.1197 27.3138 17.4484 27.8936 18.0336C28.4735 18.6187 28.7992 19.4123 28.7992 20.2398V26.4799C28.7992 27.3073 28.4735 28.1009 27.8936 28.6861C27.3138 29.2712 26.5273 29.5999 25.7073 29.5999H14.2911C13.4711 29.5999 12.6847 29.2712 12.1048 28.6861C11.525 28.1009 11.1992 27.3073 11.1992 26.4799V16.3997C11.1992 15.8268 11.4247 15.2774 11.8262 14.8723C12.2276 14.4672 12.7721 14.2397 13.3398 14.2397H17.4496L16.3156 15.6797H13.3398ZM23.0911 23.5998C23.0911 23.9973 23.4108 24.3198 23.8046 24.3198H25.7073C25.8966 24.3198 26.078 24.244 26.2119 24.1089C26.3457 23.9739 26.4208 23.7908 26.4208 23.5998C26.4208 23.4089 26.3457 23.2257 26.2119 23.0907C26.078 22.9557 25.8966 22.8798 25.7073 22.8798H23.8046C23.6154 22.8798 23.4339 22.9557 23.3001 23.0907C23.1663 23.2257 23.0911 23.4089 23.0911 23.5998Z" fill="#FD5F9A"/>
</svg>
