<svg width="48" height="49" viewBox="0 0 48 49" fill="none" xmlns="http://www.w3.org/2000/svg">
<circle opacity="0.1" cx="23.8772" cy="24.5901" r="23.7796" fill="#1A63F1"/>
<path fill-rule="evenodd" clip-rule="evenodd" d="M14.7449 22.7209L15.0192 21.706C15.6671 19.3351 16.315 16.9631 16.9609 14.5922C16.9862 14.4995 17.0135 14.4233 17.1137 14.381C18.2324 13.906 19.3774 13.5309 20.5817 13.3929C22.2024 13.2074 23.6898 13.6093 25.0634 14.5201C25.2424 14.6386 25.4156 14.7674 25.5985 14.8776C25.7152 14.9487 25.7308 15.024 25.6938 15.1579C25.1559 17.1125 24.6237 19.0682 24.0906 21.0249C23.9039 21.706 23.7132 22.387 23.5322 23.0712C23.4933 23.2237 23.4593 23.2495 23.327 23.1536C22.5351 22.5838 21.7004 22.1058 20.7656 21.8523C19.5865 21.5308 18.4085 21.5947 17.2323 21.8677C16.3938 22.0635 15.5863 22.3561 14.7449 22.7209ZM29.0101 25.7389C27.5227 25.7492 26.2104 25.1969 24.9885 24.3468C24.6432 24.1057 24.6442 24.1078 24.757 23.6925C25.4497 21.1599 26.1394 18.6251 26.833 16.0925C26.9011 15.8441 26.8515 15.7988 27.1151 15.9853C27.9858 16.6035 28.9041 17.1125 29.944 17.3351C31.0414 17.57 32.1309 17.4897 33.2146 17.2331C33.8956 17.0713 34.5571 16.8446 35.2069 16.5788C35.3003 16.5417 35.3966 16.4778 35.4929 16.5716C35.5873 16.6643 35.5435 16.7674 35.5143 16.8735C34.8207 19.4134 34.1271 21.9533 33.4384 24.4952C33.4063 24.6137 33.3479 24.6714 33.2438 24.7157C32.1134 25.1948 30.9567 25.5719 29.7378 25.6946C29.4965 25.7203 29.2533 25.7255 29.0101 25.7389ZM32.9987 26.0758L32.5687 27.6554C31.983 29.7986 31.3955 31.9438 30.8166 34.0901C30.7999 34.1672 30.7643 34.2382 30.7134 34.2961C30.6625 34.354 30.5982 34.3967 30.5267 34.4198C29.5286 34.8268 28.514 35.1617 27.4497 35.3204C25.8028 35.5656 24.2706 35.2359 22.8484 34.3281C22.6129 34.1777 22.3863 34.0128 22.1479 33.8644C22.0312 33.7923 22.0215 33.7161 22.0575 33.5842C22.5662 31.7336 23.0692 29.881 23.575 28.0284L24.1928 25.7677C24.258 25.5307 24.2589 25.5307 24.4652 25.675C25.2045 26.1912 25.974 26.6394 26.833 26.897C28.0714 27.2679 29.3107 27.2061 30.5511 26.9156C31.377 26.7229 32.1737 26.4292 32.9987 26.0758ZM23.0779 24.7312L22.7219 26.0305C22.1158 28.252 21.5069 30.4735 20.9066 32.697C20.8541 32.8876 20.8064 32.8928 20.6605 32.7877C19.8268 32.1849 18.9445 31.6903 17.9493 31.4503C16.8238 31.1782 15.7031 31.2514 14.5853 31.511C13.8849 31.6728 13.2059 31.9067 12.5366 32.1798C12.449 32.2148 12.3586 32.2673 12.2671 32.188C12.165 32.0994 12.2087 31.9912 12.2379 31.8882L14.312 24.2871C14.3226 24.2388 14.3448 24.1943 14.3763 24.1577C14.4078 24.1211 14.4476 24.0936 14.4919 24.0779C15.6398 23.5885 16.816 23.2083 18.0553 23.0867C19.5836 22.9383 20.9991 23.3051 22.3085 24.1469C22.5322 24.2912 22.753 24.4406 22.9739 24.59C23.0303 24.6291 23.1081 24.6621 23.0779 24.7312Z" fill="#1A63F1"/>
</svg>
