<svg width="40" height="40" viewBox="0 0 50 50" fill="none" xmlns="http://www.w3.org/2000/svg">
<rect x="0.5" y="0.5" width="49" height="49" rx="9.5" stroke="#2F3241"/>
<path d="M22.4 28.8571L29.147 25L22.4 21.1429V28.8571ZM37.428 18.79C37.597 19.3943 37.714 20.2043 37.792 21.2329C37.883 22.2614 37.922 23.1486 37.922 23.92L38 25C38 27.8157 37.792 29.8857 37.428 31.21C37.103 32.3671 36.349 33.1129 35.179 33.4343C34.568 33.6014 33.45 33.7171 31.734 33.7943C30.044 33.8843 28.497 33.9229 27.067 33.9229L25 34C19.553 34 16.16 33.7943 14.821 33.4343C13.651 33.1129 12.897 32.3671 12.572 31.21C12.403 30.6057 12.286 29.7957 12.208 28.7671C12.117 27.7386 12.078 26.8514 12.078 26.08L12 25C12 22.1843 12.208 20.1143 12.572 18.79C12.897 17.6329 13.651 16.8871 14.821 16.5657C15.432 16.3986 16.55 16.2829 18.266 16.2057C19.956 16.1157 21.503 16.0771 22.933 16.0771L25 16C30.447 16 33.84 16.2057 35.179 16.5657C36.349 16.8871 37.103 17.6329 37.428 18.79Z" fill="#2F3241"/>
</svg>
