<svg width="150" height="154" viewBox="0 0 178 181" fill="none" xmlns="http://www.w3.org/2000/svg">
<path opacity="0.6" d="M62.7401 24.02L63.3365 24.8227L62.7401 24.02ZM0.323476 180.562L11.8633 180.97L6.44607 170.772L0.323476 180.562ZM176.046 0.0546576C158.095 47.515 119.023 61.3716 89.8808 59.3892C75.2522 58.3941 63.317 53.424 57.745 46.9111C54.9866 43.6868 53.8251 40.14 54.5483 36.4886C55.2782 32.8037 57.9665 28.8123 63.3365 24.8227L62.1438 23.2173C56.5474 27.375 53.4477 31.7522 52.5864 36.1C51.7186 40.4814 53.1628 44.6315 56.2253 48.2112C62.2953 55.3063 74.8628 60.3723 89.745 61.3846C119.624 63.4171 159.606 49.1734 177.917 0.762202L176.046 0.0546576ZM63.3365 24.8227C74.1612 16.7808 86.5457 16.4235 96.4806 21.7492C106.427 27.081 114.012 38.166 115.037 53.19C117.087 83.2441 92.8035 129.312 7.78646 175.465L8.74068 177.223C93.9438 130.968 119.166 84.331 117.032 53.0539C115.965 37.4122 108.037 25.675 97.4255 19.9865C86.8028 14.2921 73.5859 14.7166 62.1438 23.2173L63.3365 24.8227Z" fill="#1A63F1"/>
</svg>
