<svg xmlns="http://www.w3.org/2000/svg" width="162" height="59" viewBox="0 0 162 59" fill="none">
  <path d="M5.08119 50.6974C4.44471 50.9922 3.75463 51.1563 3.0545 51.173C1.76814 51.2266 0.682774 50.2284 0.629175 48.942C0.629175 48.8918 0.629175 48.8449 0.629175 48.7946C0.609076 47.4044 1.71789 46.2587 3.1081 46.2386C3.1617 46.2386 3.21195 46.2386 3.26554 46.2386C3.77473 46.2654 4.28056 46.3492 4.76965 46.4966C4.8333 46.4966 4.89359 46.4798 4.94384 46.443H5.05104V47.6657H4.89694C4.7931 46.9053 4.11307 46.3626 3.34929 46.4262C2.01938 46.4262 1.33935 47.5284 1.33935 48.7444C1.33935 50.292 2.42807 50.9821 3.29569 50.9821C3.69768 50.9821 4.09632 50.8816 4.45141 50.694V49.7426C4.45141 49.3139 4.30066 49.1665 3.84508 49.1665H3.56704V49.0291H5.60712V49.1665C5.22858 49.1899 5.07784 49.3172 5.07784 49.6421V50.6907L5.08119 50.6974Z" fill="#041E5F"/>
  <path d="M8.31806 51.173C6.8374 51.173 5.58789 50.2217 5.58789 48.808C5.58789 47.3073 6.7436 46.2386 8.35491 46.2386C9.78196 46.2386 11.008 47.2135 11.008 48.5735C11.008 50.0106 9.84226 51.173 8.40515 51.173C8.375 51.173 8.34486 51.173 8.31471 51.173H8.31806ZM8.16061 46.4296C6.8307 46.4296 6.30142 47.6691 6.30142 48.5769C6.30142 49.9905 7.26284 50.9855 8.47885 50.9855C9.69486 50.9855 10.3012 49.8967 10.3012 48.8248C10.3012 47.4178 9.41012 46.4296 8.16396 46.4296H8.16061Z" fill="#041E5F"/>
  <path d="M11.7207 47.1565C11.7207 46.7277 11.6671 46.4999 11.1378 46.4999H10.8732V46.3559C11.0842 46.3492 11.6068 46.319 11.8245 46.309C12.2399 46.2956 12.8161 46.2855 12.9601 46.2855C13.6268 46.2855 14.2063 46.3827 14.481 46.5803C14.7724 46.7579 14.9466 47.0761 14.9399 47.4178C14.9098 47.8901 14.548 48.2787 14.079 48.339V48.3558C14.7892 48.5668 15.2046 49.0291 15.2046 49.6187C15.2046 50.2083 14.7892 51.0524 13.5732 51.0524H10.8062V50.9084H10.9803C11.6001 50.9084 11.7207 50.7643 11.7207 50.2886V47.1531V47.1565ZM12.3471 48.3189H13.1712C13.8981 48.3189 14.2599 48.0308 14.2599 47.4412C14.2599 46.912 13.9417 46.4296 13.0137 46.4296C12.8462 46.4296 12.538 46.4463 12.3471 46.453V48.3189ZM12.3471 50.0709C12.3471 50.6471 12.5749 50.8481 13.208 50.8481C14.2063 50.8481 14.4944 50.2283 14.4944 49.6388C14.4944 49.0492 14.0489 48.4596 13.1645 48.4596H12.3471V50.0676V50.0709Z" fill="#041E5F"/>
  <path d="M17.178 51.0524H15.3423V50.9084C15.8113 50.885 15.9084 50.7644 15.9084 50.2585V47.0393C15.9084 46.6306 15.7644 46.5167 15.3423 46.4966V46.3525H17.178V46.4966C16.7023 46.4966 16.5348 46.6038 16.5348 47.1096V50.3121C16.5348 50.7577 16.6554 50.9084 17.178 50.9084V51.0524Z" fill="#041E5F"/>
  <path d="M20.8561 49.354H20.7121C20.6518 48.8181 20.5077 48.7578 20.1995 48.7578H18.9232V50.3657C18.9232 50.7141 19.0505 50.7811 19.3319 50.7811H20.4977C21.0269 50.7811 21.1844 50.5768 21.3753 49.9269H21.5127L21.3921 51.0524H17.3789V50.9084H17.59C18.1929 50.9084 18.3001 50.7409 18.3001 50.2887V47.0996C18.3001 46.6775 18.203 46.4966 17.6971 46.4966H17.5297V46.3525H21.1576L21.2179 47.4044H21.0805C20.9834 46.7612 20.7925 46.6272 20.5211 46.6272H18.9266V48.4864H20.2799C20.5513 48.4864 20.6819 48.3591 20.7188 47.9203H20.8628V49.3574L20.8561 49.354Z" fill="#041E5F"/>
  <path d="M22.7413 50.3422C22.7413 50.7945 22.9222 50.9084 23.3443 50.9084H23.5184V51.0524H21.3779V50.9084H21.5052C21.9507 50.9084 22.1081 50.7878 22.1081 50.282V47.1029C22.1081 46.6339 21.9808 46.4999 21.542 46.4999H21.3745V46.3559C21.5554 46.3559 22.0177 46.3257 22.3259 46.309C22.6341 46.2922 22.7848 46.2855 23.2773 46.2855C24.6742 46.2855 25.3039 46.8617 25.3039 47.6322C25.2872 48.2218 24.8752 48.7276 24.299 48.8549C24.6038 49.0994 24.8919 49.3607 25.1599 49.6421L25.7562 50.2384C26.1381 50.6739 26.6707 50.9452 27.2469 51.0022V51.1395C25.9237 51.1998 25.5853 50.9117 24.912 50.2418L24.4129 49.7426C24.175 49.4947 23.9137 49.2703 23.6357 49.0693C23.4481 49.076 23.3242 49.0827 23.1232 49.0827C22.9557 49.0827 22.8585 49.076 22.7379 49.0693V50.3456L22.7413 50.3422ZM22.7413 48.9219C22.8954 48.9386 23.0528 48.942 23.2103 48.9353C24.0477 48.9353 24.6005 48.5802 24.6005 47.6724C24.6005 46.9689 24.2822 46.4262 23.1198 46.4262C22.9925 46.4262 22.8686 46.4262 22.7413 46.443V48.9219Z" fill="#041E5F"/>
  <path d="M31.5083 51.1832L27.5922 47.0896V50.3323C27.5922 50.875 27.7128 50.9889 28.356 50.9889V51.1329H26.604V50.9889H26.6342C27.1031 50.9889 27.2539 50.8314 27.2539 50.4831V46.7647C27.0663 46.6374 26.8452 46.5737 26.6174 46.5771V46.433H27.8033L31.3642 50.1414V47.1332C31.3642 46.6742 31.2269 46.5905 30.6239 46.5737V46.4297H32.3926V46.5737C31.8265 46.5737 31.7059 46.6709 31.7059 46.9657V51.1798H31.5083V51.1832Z" fill="#041E5F"/>
  <path d="M34.9431 51.173C33.4624 51.173 32.2129 50.2217 32.2129 48.808C32.2129 47.3073 33.3686 46.2386 34.9799 46.2386C36.407 46.2386 37.633 47.2135 37.633 48.5735C37.633 50.0106 36.4673 51.173 35.0302 51.173C35 51.173 34.9699 51.173 34.9397 51.173H34.9431ZM34.7856 46.4296C33.4557 46.4296 32.9264 47.6691 32.9264 48.5769C32.9264 49.9905 33.8878 50.9855 35.1039 50.9855C36.3199 50.9855 36.9262 49.8967 36.9262 48.8248C36.9262 47.4178 36.0351 46.4296 34.7856 46.4296Z" fill="#041E5F"/>
  <path d="M40.1884 47.1097C40.1884 46.6206 40.0611 46.4966 39.6156 46.4966H39.4648V46.3526C39.7429 46.3392 40.1147 46.3224 40.5301 46.3057C40.9455 46.2889 41.4078 46.2822 41.7997 46.2822C43.7963 46.2822 44.6806 47.2939 44.6806 48.5401C44.6806 49.6824 43.7963 51.0491 41.8835 51.0491H39.4648V50.9051H39.5921C40.0008 50.9051 40.1884 50.7912 40.1884 50.3523V47.1063V47.1097ZM40.8149 50.493C40.8149 50.8012 40.8383 50.9084 41.4346 50.9084C42.4463 50.9084 42.8717 50.7644 43.3407 50.2954C43.7527 49.8532 43.9805 49.267 43.9671 48.664C43.9872 48.0644 43.7695 47.4781 43.3641 47.0393C43.0157 46.6909 42.4798 46.4263 41.4212 46.4263C41.113 46.4263 40.9086 46.4497 40.8182 46.4564V50.493H40.8149Z" fill="#041E5F"/>
  <path d="M47.9967 49.354H47.8526C47.7923 48.8181 47.6483 48.7578 47.3401 48.7578H46.0604V50.3657C46.0604 50.7141 46.1877 50.7811 46.4691 50.7811H47.6349C48.1642 50.7811 48.3216 50.5768 48.5125 49.9269H48.6499L48.5293 51.0524H44.5161V50.9084H44.7272C45.3301 50.9084 45.4373 50.7409 45.4373 50.2887V47.0996C45.4373 46.6775 45.3402 46.4966 44.8344 46.4966H44.6669V46.3525H48.2948L48.3551 47.4044H48.2178C48.1206 46.7612 47.9297 46.6272 47.6583 46.6272H46.0638V48.4864H47.4171C47.6885 48.4864 47.8191 48.3591 47.856 47.9203H48V49.3574L47.9967 49.354Z" fill="#041E5F"/>
  <path d="M4.19088 56.5229H4.04683C3.98654 55.9769 3.83914 55.9166 3.52425 55.9166H2.22784V57.548C2.22784 57.8997 2.35849 57.97 2.64323 57.97H3.82574C4.36172 57.97 4.52252 57.7624 4.71346 57.1024H4.85081L4.72686 58.2447H0.656738V58.0973H0.871132C1.48416 58.0973 1.59136 57.9299 1.59136 57.4676V54.2316C1.59136 53.8028 1.49086 53.6185 0.978328 53.6185H0.810834V53.4745H4.49237L4.55267 54.5398H4.41532C4.31483 53.8865 4.12388 53.7492 3.84584 53.7492H2.22784V55.6352H3.6013C3.87599 55.6352 4.00664 55.5045 4.04683 55.059H4.19088V56.5162V56.5229Z" fill="#041E5F"/>
  <path d="M8.54211 58.248H5.11182V58.1006H5.36641C5.71815 58.1006 5.84879 57.9867 5.84879 57.5948V54.198C5.84879 53.7927 5.72485 53.6218 5.24246 53.6218H5.13527V53.4778H7.3998V53.6218H7.11505C6.61592 53.6218 6.48527 53.6754 6.48527 54.1511V57.6853C6.48527 57.8929 6.56902 57.97 6.79346 57.97H7.92238C8.37462 57.97 8.51196 57.7925 8.99435 57.1258H9.13169L8.54211 58.2447V58.248Z" fill="#041E5F"/>
  <path d="M11.3496 57.0823C11.4669 57.7054 12.0129 58.1576 12.646 58.1643C13.1586 58.1643 13.7046 57.8661 13.7046 57.2598C13.7046 56.1577 11.2424 55.8194 11.2424 54.4761C11.2424 53.8396 11.8253 53.3639 12.6092 53.3639C13.2524 53.3639 13.383 53.5548 13.651 53.5548C13.7079 53.5582 13.7615 53.528 13.7883 53.4778H13.9123L14.0429 54.4526H13.9123C13.728 53.9267 13.2356 53.5649 12.6762 53.5481C12.1703 53.5481 11.8186 53.8396 11.8186 54.2684C11.8186 55.3571 14.2808 55.6485 14.2808 57.0588C14.2808 57.8092 13.6141 58.3686 12.7164 58.3686C12.3546 58.3318 11.9995 58.2614 11.6511 58.1609C11.5875 58.1609 11.5305 58.1944 11.497 58.2447H11.3664L11.2056 57.0789H11.3496V57.0823Z" fill="#041E5F"/>
  <path d="M16.0533 56.131L15.6078 57.3336C15.5375 57.4877 15.4872 57.6518 15.4537 57.816C15.4537 58.0237 15.6514 58.1007 16.0734 58.1007H16.1974V58.2481H14.4253V58.1007C14.9244 58.094 15.0082 58.0103 15.2527 57.3436L16.6496 53.5348L16.5793 53.3673H17.2459L18.8505 57.6217C18.9108 57.9466 19.2223 58.161 19.5473 58.1041V58.2515H17.4368V58.1041H17.6345C18.0733 58.1041 18.2341 58.0572 18.2341 57.8428C18.2274 57.7322 18.1973 57.6284 18.1504 57.5279L17.6345 56.131H16.05H16.0533ZM16.8372 54.0071L16.184 55.7926H17.5105L16.8372 54.0071Z" fill="#041E5F"/>
  <path d="M22.9401 58.248H19.5132V58.1006H19.7678C20.1195 58.1006 20.2502 57.9867 20.2502 57.5948V54.198C20.2502 53.7927 20.1262 53.6218 19.6438 53.6218H19.5366V53.4778H21.7978V53.6218H21.5131C21.0139 53.6218 20.8833 53.6754 20.8833 54.1511V57.6853C20.8833 57.8929 20.967 57.97 21.1915 57.97H22.3204C22.7726 57.97 22.91 57.7925 23.3924 57.1258H23.5297L22.9368 58.2447L22.9401 58.248Z" fill="#041E5F"/>
  <path d="M24.6823 58.3686L23.0174 54.2214C22.8265 53.739 22.7327 53.6251 22.2637 53.6251V53.4811H24.3741V53.6251C23.6673 53.6419 23.4998 53.8027 23.6472 54.1544L25.0273 57.5881L26.24 54.4224C26.3103 54.2717 26.3539 54.1109 26.3706 53.9467C26.3706 53.7156 26.1797 53.6251 25.6571 53.6251V53.4811H27.4359V53.6251C27.0373 53.6251 26.8296 53.8094 26.6453 54.2851L25.0642 58.3719H24.6823V58.3686Z" fill="#041E5F"/>
  <path d="M28.1725 56.131L27.7269 57.3336C27.6566 57.4877 27.6064 57.6518 27.5729 57.816C27.5729 58.0237 27.7705 58.1007 28.1926 58.1007H28.3165V58.2481H26.5444V58.1007C27.0436 58.094 27.1273 58.0103 27.3719 57.3436L28.7688 53.5348L28.6984 53.3673H29.365L30.9696 57.6217C31.0299 57.9466 31.3415 58.161 31.6664 58.1041V58.2515H29.556V58.1041H29.7536C30.1925 58.1041 30.3533 58.0572 30.3533 57.8428C30.3466 57.7322 30.3164 57.625 30.2695 57.5279L29.757 56.1343H28.1691L28.1725 56.131ZM28.953 54.0071L28.2998 55.7926H29.6263L28.9497 54.0071H28.953Z" fill="#041E5F"/>
  <path d="M32.3297 54.2449C32.3297 53.7458 32.1991 53.6252 31.7469 53.6252H31.5928V53.4811C31.8775 53.4644 32.2527 53.451 32.6748 53.4342C33.0969 53.4175 33.5625 53.4108 33.9612 53.4108C35.9845 53.4108 36.8823 54.4392 36.8823 55.7021C36.8823 56.8612 35.9845 58.248 34.0449 58.248H31.5928V58.1006H31.7234C32.1388 58.1006 32.3297 57.9867 32.3297 57.5412V54.2449ZM32.9662 57.6785C32.9662 57.9934 32.9897 58.1006 33.596 58.1006C34.6244 58.1006 35.0532 57.9566 35.5289 57.4809C35.9476 57.032 36.1754 56.4391 36.1654 55.826C36.1855 55.2164 35.9677 54.6234 35.5524 54.1779C35.2006 53.8262 34.6546 53.5582 33.5826 53.5582C33.2677 53.5582 33.06 53.5816 32.9696 53.5883V57.6819L32.9662 57.6785Z" fill="#041E5F"/>
  <path d="M39.995 58.3686C38.4942 58.3686 37.2246 57.4039 37.2246 55.9701C37.2246 54.4459 38.3971 53.3639 40.0318 53.3639C41.4823 53.3639 42.7251 54.3521 42.7251 55.7323C42.7251 57.1895 41.5426 58.372 40.0854 58.372C40.0553 58.372 40.0251 58.372 39.995 58.372V58.3686ZM39.8342 53.5548C38.4842 53.5548 37.9482 54.811 37.9482 55.7323C37.9482 57.166 38.923 58.1777 40.1558 58.1777C41.3885 58.1777 42.0049 57.0756 42.0049 55.9835C42.0049 54.5565 41.1004 53.5515 39.8342 53.5515V53.5548Z" fill="#041E5F"/>
  <path d="M44.0447 57.5278C44.0447 57.9867 44.2289 58.104 44.6577 58.104H44.8353V58.248H42.6646V58.1006H42.7952C43.2474 58.1006 43.4082 57.9767 43.4082 57.4641V54.2382C43.4082 53.7625 43.2776 53.6252 42.832 53.6252H42.6646V53.4811C42.8488 53.4811 43.3178 53.451 43.6327 53.4342C43.9476 53.4175 44.1017 53.4108 44.5974 53.4108C46.0178 53.4108 46.6543 53.9936 46.6543 54.7742C46.6375 55.3738 46.2188 55.883 45.6326 56.017C45.9407 56.2649 46.2322 56.5295 46.5069 56.8143L47.1132 57.4206C47.4984 57.8628 48.0411 58.1375 48.624 58.1944V58.3318C47.2807 58.3921 46.939 58.1006 46.2523 57.4206L45.7465 56.9148C45.5053 56.6635 45.2406 56.4357 44.9559 56.2314C44.7649 56.2381 44.641 56.2481 44.4333 56.2481C44.2658 56.2481 44.1653 56.2414 44.0414 56.2314V57.5278H44.0447ZM44.0447 56.0873C44.2022 56.1041 44.3629 56.1074 44.5204 56.1041C45.3713 56.1041 45.9307 55.7423 45.9307 54.8244C45.9307 54.1109 45.6091 53.5582 44.4299 53.5582C44.3026 53.5582 44.1754 53.5582 44.0481 53.5749V56.0907L44.0447 56.0873Z" fill="#041E5F"/>
  <path d="M24.6641 0L25.2269 1.14232L26.4865 1.32656L25.5753 2.21428L25.7897 3.46714L24.6641 2.87421L23.5386 3.46379L23.753 2.21093L22.8418 1.32321L24.1014 1.13897L24.6641 0.0033499V0Z" fill="#041E5F"/>
  <path d="M32.9493 2.11377L33.5121 3.25608L34.7716 3.44033L33.8605 4.32805L34.0749 5.58091L32.9493 4.98798L31.8237 5.57756L32.0381 4.3247L31.127 3.43698L32.3865 3.25273L32.9493 2.11377Z" fill="#041E5F"/>
  <path d="M39.2974 7.25256L39.8602 8.39488L41.1198 8.57912L40.2086 9.46685L40.423 10.7197L39.2974 10.1268L38.1719 10.7197L38.3863 9.46685L37.4751 8.57912L38.7347 8.39488L39.2974 7.25256Z" fill="#041E5F"/>
  <path d="M42.9244 14.6122L43.4872 15.7545L44.7467 15.9387L43.8356 16.8265L44.05 18.0793L42.9244 17.4864L41.7988 18.0793L42.0132 16.8265L41.1021 15.9387L42.3616 15.7545L42.9244 14.6122Z" fill="#041E5F"/>
  <path d="M43.066 23.1544L43.6288 24.2967L44.8883 24.481L43.9772 25.3687L44.1916 26.6216L43.066 26.0286L41.9404 26.6216L42.1548 25.3687L41.2437 24.481L42.5032 24.2967L43.066 23.1544Z" fill="#041E5F"/>
  <path d="M39.3067 30.5476L39.8695 31.6899L41.1291 31.8742L40.2179 32.7619L40.4323 34.0148L39.3067 33.4218L38.1812 34.0148L38.3955 32.7619L37.4844 31.8742L38.7439 31.6899L39.3067 30.5476Z" fill="#041E5F"/>
  <path d="M32.9859 35.6898L33.5487 36.8321L34.8083 37.0164L33.8971 37.9041L34.1115 39.157L32.9859 38.564L31.8604 39.157L32.0747 37.9041L31.1636 37.0164L32.4231 36.8321L32.9859 35.6898Z" fill="#041E5F"/>
  <path d="M24.6617 37.4988L25.2245 38.6411L26.484 38.8253L25.5729 39.7131L25.7873 40.9659L24.6617 40.373L23.5361 40.9659L23.7505 39.7131L22.8394 38.8253L24.0989 38.6411L24.6617 37.4988Z" fill="#041E5F"/>
  <path d="M16.5211 35.6964L17.0839 36.8387L18.3434 37.023L17.4322 37.9107L17.6466 39.1636L16.5211 38.5706L15.3955 39.1636L15.6099 37.9107L14.6987 37.023L15.9583 36.8387L16.5211 35.6998V35.6964Z" fill="#041E5F"/>
  <path d="M10.1993 30.5577L10.7621 31.7001L12.0216 31.8843L11.1105 32.772L11.3249 34.0249L10.1993 33.432L9.07373 34.0249L9.28813 32.772L8.37695 31.8809L9.63651 31.6967L10.1993 30.5577Z" fill="#041E5F"/>
  <path d="M6.43416 23.208L6.99694 24.3503L8.2565 24.5346L7.34533 25.4223L7.55973 26.6752L6.43416 26.0822L5.3086 26.6718L5.52299 25.4189L4.61182 24.5312L5.87138 24.347L6.43416 23.2114V23.208Z" fill="#041E5F"/>
  <path d="M6.43416 14.6122L6.99694 15.7545L8.2565 15.9387L7.34533 16.8265L7.55973 18.0793L6.43416 17.4864L5.3086 18.0793L5.52299 16.8265L4.61182 15.9387L5.87138 15.7545L6.43416 14.6122Z" fill="#041E5F"/>
  <path d="M10.0089 7.26257L10.5717 8.40489L11.8312 8.58913L10.92 9.47686L11.1344 10.7297L10.0089 10.1368L8.8833 10.7297L9.0977 9.47686L8.18652 8.58913L9.44608 8.40489L10.0122 7.26257H10.0089Z" fill="#041E5F"/>
  <path d="M16.5113 2.11707L17.0741 3.25938L18.3337 3.44362L17.4225 4.33135L17.6369 5.58421L16.5113 4.99128L15.3857 5.58421L15.6001 4.33135L14.689 3.44362L15.9485 3.25938L16.5113 2.12042V2.11707Z" fill="#041E5F"/>
  <path d="M34.3226 23.4424C34.3226 23.4424 34.3092 23.4424 34.3059 23.4391C34.2188 23.4391 34.1484 23.5094 34.1484 23.5965C34.1484 23.6836 34.2188 23.754 34.3059 23.754C34.3059 23.754 34.3193 23.754 34.3226 23.7506C34.3293 23.7506 34.336 23.7506 34.3427 23.754C34.4298 23.754 34.5002 23.6836 34.5002 23.5965C34.5002 23.5094 34.4298 23.4391 34.3427 23.4391C34.3427 23.4391 34.3293 23.4391 34.3226 23.4424Z" fill="#041E5F"/>
  <path d="M36.0583 21.2516C35.9243 21.2751 35.7937 21.322 35.6765 21.3957C35.6095 21.4426 35.5358 21.4727 35.4554 21.4861C35.5023 21.3923 35.5224 21.2885 35.5123 21.1846C35.4855 20.8999 35.4855 20.4309 35.4855 20.4309C35.4855 20.4309 35.3917 20.7156 35.2544 20.786C35.1103 20.853 34.8524 20.9501 34.8055 21.0439C34.7586 21.1377 34.5676 21.1377 34.4939 21.4258C34.4772 21.5498 34.437 21.6704 34.3767 21.7776C34.3599 21.8111 34.3398 21.8446 34.3164 21.8747C34.4102 21.4627 34.4604 21.0439 34.4738 20.6218C34.4738 20.5548 34.4738 20.4912 34.4738 20.4275C34.5308 20.3773 34.5877 20.327 34.638 20.2701C34.6983 20.1696 35.4286 19.9217 35.5291 19.7241C35.6296 19.5331 35.6865 19.3991 35.7334 19.3154C35.8071 19.1479 35.8439 18.967 35.8506 18.7861C35.8439 18.5416 35.8171 18.297 35.7702 18.0592C35.6563 18.1161 35.5559 18.1932 35.4721 18.2903C35.4487 18.3205 35.4219 18.3506 35.3917 18.3741C35.3917 18.3037 35.3817 18.2367 35.3582 18.1697C35.2577 17.9185 35.1003 17.5868 35.1003 17.5868C35.1003 17.5868 34.9629 17.7979 34.8892 17.9252C34.7653 18.1697 34.6447 18.1898 34.6246 18.287C34.6112 18.3875 34.4604 18.4511 34.4068 18.6488C34.3901 18.699 34.38 18.7526 34.37 18.8062C34.3164 18.3841 34.246 18.0022 34.169 17.6572C34.2025 17.5466 34.2427 17.3054 34.3432 17.2284C34.4705 17.1044 34.5308 16.9269 34.5073 16.7527C34.504 16.602 34.4805 16.4512 34.4403 16.3038C34.4202 16.1866 34.0584 15.6908 34.0852 15.5501C34.0852 15.5501 33.9077 15.9521 33.8407 16.1095C33.6632 15.932 33.4622 15.7779 33.2411 15.6539C33.1506 15.4998 33.0602 15.3424 32.9664 15.1883C32.9697 15.1414 32.9798 15.0443 32.9965 14.9404C33.0434 14.7796 33.0501 14.6088 33.0233 14.4446C32.9764 14.3274 32.8793 14.2336 32.8324 14.0895C32.8056 13.9555 32.7386 13.8316 32.6414 13.7345C32.5242 13.6105 32.3567 13.4497 32.3567 13.4497C32.3567 13.4497 32.3098 13.6608 32.2663 13.8316C32.2261 13.8115 32.1859 13.7948 32.1457 13.7847C32.1189 13.7747 32.0586 13.7412 31.9916 13.7077C31.9112 13.5971 31.8308 13.4899 31.7571 13.3961C31.8006 13.3693 31.8274 13.3191 31.8274 13.2688C31.8274 13.1784 31.7604 13.1047 31.67 13.1013C31.5795 13.1013 31.5058 13.1683 31.5025 13.2588C31.5025 13.3492 31.5695 13.4229 31.6599 13.4263C31.6934 13.4263 31.7269 13.4196 31.7537 13.3995C31.7738 13.433 31.8375 13.5301 31.9279 13.6742C31.8509 13.634 31.7772 13.5904 31.7437 13.567C31.6834 13.5268 31.6499 13.9924 31.7906 14.2503C31.7671 14.2436 31.7437 14.2369 31.7236 14.2336C31.546 14.1867 31.3618 14.1733 31.1809 14.1867C31.2479 14.1867 31.4187 14.3709 31.4388 14.4647C31.4991 14.6088 31.5963 14.7294 31.7236 14.8198C31.8509 14.8935 31.9715 14.9806 32.0787 15.0845C32.2629 15.1783 32.4706 15.2185 32.6783 15.2017C32.7419 15.2419 32.8123 15.2587 32.886 15.252C32.9731 15.4027 33.0602 15.5568 33.1473 15.7109C33.1104 15.8449 33.0937 15.9789 33.0937 16.1162C32.9764 16.0961 32.5778 15.999 32.5778 15.999C32.6012 16.21 32.6716 16.411 32.7855 16.5919C32.762 16.612 32.7453 16.6422 32.7419 16.6723C32.7352 16.7226 32.7453 16.7728 32.7754 16.8164C32.829 16.9001 32.9094 16.9638 32.9999 17.004L31.0569 18.3707C31.1507 16.6991 31.0871 15.0208 30.866 13.3593C31.1005 13.2688 31.0368 13.165 31.0368 13.165L30.9464 12.9338C30.9698 12.9439 30.9966 12.9506 31.0234 12.9506C31.067 12.9506 31.1072 12.9338 31.134 12.9037C31.1909 12.83 31.1809 12.7261 31.1072 12.6658C31.0636 12.6223 31.0134 12.5854 30.9564 12.5586L31.2311 12.5184L31.3886 11.8485L30.7354 12.0696L30.722 12.3476C30.6918 12.294 30.6516 12.2504 30.6047 12.2102C30.5478 12.1433 30.4473 12.1332 30.3803 12.1902C30.3133 12.2471 30.3032 12.3476 30.3602 12.4146C30.3702 12.4246 30.3803 12.4347 30.3903 12.4447C30.4573 12.5084 30.5411 12.5519 30.6315 12.572C30.6315 12.5787 30.6382 12.5854 30.6416 12.5888L27.3821 16.1799L25.2181 12.562C25.3521 11.6843 24.8797 10.3544 24.863 10.3008C24.8931 10.1836 24.9065 10.063 24.8998 9.93902C24.997 9.90887 25.074 9.83182 25.1042 9.73468V9.72463C25.0271 9.62078 24.9434 9.53033 24.8529 9.43989C24.8931 9.44993 24.93 9.45328 24.9702 9.45328H24.9836C25.0774 9.45998 25.1578 9.38964 25.1645 9.29584C25.1578 9.20204 25.0774 9.13169 24.9869 9.13839C24.9233 9.13504 24.863 9.13839 24.8027 9.15849L24.9802 8.94075L24.6452 8.33777L24.3136 8.94075L24.4911 9.15849C24.4342 9.14174 24.3705 9.13169 24.3102 9.13839C24.26 9.13839 24.2098 9.15849 24.1729 9.19199C24.1461 9.21879 24.1294 9.25564 24.1294 9.29584C24.1294 9.33604 24.1461 9.37289 24.1729 9.39969C24.2098 9.43318 24.2566 9.45328 24.3102 9.45328H24.327C24.3605 9.45328 24.3906 9.44993 24.4208 9.44323C24.3672 9.49348 24.2935 9.57388 24.2466 9.63083C24.2265 9.64758 24.2131 9.66433 24.1997 9.68443L24.1897 9.69783C24.1897 9.69783 24.193 9.71458 24.1964 9.72128V9.73468C24.2198 9.78157 24.2533 9.82177 24.2968 9.85527C24.049 10.3142 23.4393 11.6508 23.791 13.0444L21.9218 16.1732L18.6489 12.5687C18.7461 12.5519 18.8365 12.5084 18.9102 12.4414C18.9471 12.4079 18.9705 12.3576 18.9739 12.3074C18.9806 12.227 18.9203 12.16 18.8399 12.1533C18.8399 12.1533 18.8365 12.1533 18.8332 12.1533C18.7829 12.1533 18.736 12.1701 18.6958 12.2035C18.6489 12.2404 18.6054 12.2906 18.5752 12.3442L18.5618 12.0629L17.9086 11.8418L18.066 12.5117L18.3441 12.5519C18.2871 12.5787 18.2402 12.6122 18.1967 12.6558C18.1598 12.6893 18.133 12.7362 18.1297 12.7898C18.1297 12.83 18.1397 12.8668 18.1665 12.897C18.1933 12.9271 18.2302 12.9439 18.2704 12.9439H18.2771C18.3039 12.9439 18.3307 12.9372 18.3541 12.9271L18.2637 13.1583C18.2637 13.1583 18.2 13.2655 18.4345 13.3526C18.2134 15.0141 18.1498 16.6924 18.2436 18.364L16.3006 16.9973C16.3911 16.9604 16.4681 16.8968 16.5251 16.813C16.5519 16.7762 16.5653 16.7293 16.5619 16.6857C16.5586 16.6522 16.5418 16.6187 16.5184 16.5953C16.6323 16.4144 16.706 16.2134 16.7261 15.999C16.7261 15.999 16.3241 16.0928 16.2102 16.1162C16.2102 15.9789 16.1901 15.8415 16.1566 15.7109C16.2437 15.5568 16.3308 15.4027 16.4179 15.252C16.4916 15.2587 16.5653 15.2386 16.6256 15.2017C16.8333 15.2218 17.041 15.1816 17.2252 15.0845C17.3324 14.9806 17.4497 14.8935 17.5803 14.8198C17.7076 14.7327 17.8081 14.6088 17.865 14.4647C17.8851 14.3709 18.056 14.1867 18.123 14.1867C17.9387 14.1733 17.7578 14.1867 17.5803 14.2336C17.5602 14.2403 17.5368 14.2436 17.5133 14.2503C17.654 13.9924 17.6205 13.5268 17.5602 13.567C17.5267 13.5871 17.453 13.6306 17.376 13.6742C17.4664 13.5301 17.5301 13.433 17.5502 13.3995C17.5736 13.4162 17.6038 13.4263 17.6339 13.4263C17.721 13.4263 17.7913 13.3559 17.7913 13.2688C17.7913 13.1817 17.721 13.1114 17.6339 13.1114C17.5468 13.1114 17.4765 13.1817 17.4765 13.2688C17.4765 13.3224 17.5033 13.3693 17.5468 13.3961C17.4731 13.4866 17.3927 13.5938 17.3123 13.7077C17.2453 13.7445 17.185 13.7747 17.1582 13.7847C17.118 13.7948 17.0745 13.8115 17.0376 13.8316C16.9941 13.6608 16.9472 13.4497 16.9472 13.4497C16.9472 13.4497 16.7763 13.6139 16.6624 13.7345C16.5653 13.8316 16.4983 13.9555 16.4715 14.0895C16.4246 14.2336 16.3274 14.3274 16.2805 14.4446C16.2537 14.6088 16.2604 14.7796 16.3073 14.9404C16.3207 15.0443 16.3308 15.1414 16.3375 15.1883C16.2437 15.3458 16.1499 15.4998 16.0628 15.6539C15.8451 15.7812 15.6441 15.932 15.4632 16.1095C15.3962 15.9521 15.2186 15.5501 15.2186 15.5501C15.2454 15.6941 14.8836 16.1899 14.8635 16.3038C14.8233 16.4512 14.7999 16.602 14.7965 16.7527C14.7731 16.9269 14.8334 17.1044 14.9607 17.2284C15.0578 17.3088 15.098 17.55 15.1349 17.6572C15.0545 18.0022 14.9875 18.3841 14.9339 18.8062C14.9238 18.7526 14.9104 18.699 14.897 18.6488C14.8434 18.4511 14.6927 18.3908 14.6793 18.287C14.6592 18.1932 14.5352 18.1697 14.4147 17.9252C14.3376 17.7945 14.2003 17.5835 14.2003 17.5835C14.2003 17.5835 14.0428 17.9151 13.9423 18.1664C13.9189 18.2334 13.9055 18.3004 13.9088 18.3707C13.8787 18.3473 13.8519 18.3205 13.8284 18.287C13.7447 18.1898 13.6442 18.1128 13.5303 18.0558C13.4834 18.297 13.4566 18.5382 13.4499 18.7827C13.4532 18.9636 13.4934 19.1445 13.5671 19.312C13.614 19.3924 13.6676 19.5298 13.7715 19.7207C13.872 19.9184 14.6022 20.1663 14.6625 20.2668C14.7128 20.3237 14.7697 20.3739 14.8267 20.4242C14.8267 20.4878 14.8267 20.5515 14.8267 20.6185C14.8367 21.0406 14.8903 21.4593 14.9841 21.8714C14.9607 21.8412 14.9406 21.8077 14.9238 21.7742C14.8635 21.6637 14.8267 21.5431 14.8066 21.4225C14.7329 21.1377 14.5419 21.1377 14.495 21.0406C14.4481 20.9434 14.1869 20.8496 14.0462 20.7826C13.9088 20.7156 13.815 20.4275 13.815 20.4275C13.815 20.4275 13.815 20.8965 13.7882 21.1813C13.7782 21.2851 13.7983 21.389 13.8452 21.4828C13.7648 21.4694 13.6911 21.4359 13.6241 21.3923C13.5068 21.322 13.3795 21.2717 13.2422 21.2483C13.2723 21.5029 13.3226 21.7541 13.3862 22.002C13.4465 22.1862 13.5437 22.3537 13.671 22.4978C13.738 22.5715 13.8351 22.6887 13.9959 22.8529C14.1668 23.0237 14.5922 23.0572 15.0645 23.2147C15.2019 23.2582 15.3191 23.3453 15.3962 23.4659C15.4129 23.5262 15.4263 23.5798 15.4364 23.62C15.49 23.8277 15.5603 24.0789 15.6407 24.3469C15.4732 24.1828 15.2488 24.089 15.0143 24.0856C14.8501 24.0588 14.2103 23.8947 14.2103 23.8947C14.3812 24.099 14.495 24.3436 14.552 24.6015C14.3075 24.558 14.0562 24.558 13.8083 24.6015C14.0629 24.7958 14.2807 25.037 14.4414 25.315C14.5352 25.5696 14.6726 25.8108 14.8434 26.0219C14.9171 26.0688 15.1282 26.3301 15.2722 26.4708C15.4163 26.6115 15.9791 26.5378 16.17 26.5378C16.3207 26.5646 16.4648 26.6115 16.6021 26.6751C16.783 26.9029 16.984 27.1106 17.2018 27.3015C17.0075 27.2211 16.8299 27.1072 16.6792 26.9598C16.5887 26.8359 16.6926 27.3786 16.7998 27.5528C16.6557 27.5494 16.5117 27.5092 16.3877 27.4355C16.2303 27.3116 16.3676 27.8643 16.5385 28.0184C16.9036 28.3434 16.8701 28.397 16.9304 28.4171C16.6222 28.4774 16.1934 28.5845 16.0628 28.5075C15.892 28.4137 16.2537 28.7453 16.4715 28.8257C16.783 28.943 16.7428 29.144 17.0845 29.2545C17.386 29.3852 17.7076 29.4589 18.0359 29.4723C18.2034 29.4153 18.3776 29.3718 18.5518 29.3416C18.7595 29.3182 19.1079 29.0435 19.5065 28.9932C19.8817 29.2244 20.2636 29.4354 20.6589 29.6297C20.6756 29.6364 20.6991 29.6465 20.7192 29.6565C20.6756 29.6599 20.6287 29.6666 20.5852 29.6766C20.3038 29.7604 20.009 29.7905 19.7142 29.7704C19.5835 29.7034 19.8616 30.0853 20.0358 30.2293C19.7745 30.2863 19.5065 30.3064 19.2385 30.2896C19.0476 30.2494 19.6204 30.7988 19.8448 30.8591L19.8716 30.8658C19.7309 30.9194 19.5869 30.9529 19.4361 30.9663C19.2385 30.9529 20.0626 31.4889 20.287 31.4554C21.0072 31.3549 21.6873 31.5995 22.0223 31.4621C22.3204 31.3449 22.498 31.2645 22.6487 31.2176C22.7994 31.164 22.8798 31.0266 22.9736 30.9596C23.0641 30.8424 23.1847 30.7452 23.3187 30.6816C23.3321 30.6883 23.3455 30.6916 23.3589 30.6883C23.6135 30.7017 23.8647 30.7017 24.1193 30.6883C24.0054 30.7352 23.9016 30.7988 23.8078 30.8759C23.5465 30.9496 23.2919 31.04 23.0406 31.1405C22.6052 31.4253 22.1998 31.7602 21.8347 32.1321C21.8347 32.1321 22.4477 32.0852 22.5415 32.0852C22.6353 32.0852 22.8497 31.6631 22.9435 31.5894C22.9703 31.5693 23.1277 31.4889 23.3555 31.3851C23.121 31.787 23.2014 32.2962 23.5465 32.6078C23.3823 32.4168 23.5666 32.0852 23.5666 32.0852L23.9016 32.2962C23.4828 31.5794 24.1294 31.1037 24.3437 30.9697C24.3672 30.9596 24.3873 30.9529 24.4107 30.9429C24.471 31.03 24.5682 31.0836 24.6754 31.0869C24.7759 31.0836 24.8697 31.0333 24.93 30.9529C24.9735 30.9697 25.0171 30.9864 25.0573 31.0032C25.3085 31.1707 25.8378 31.633 25.4492 32.2962L25.7809 32.0852C25.7809 32.0852 25.9651 32.4168 25.801 32.6078C26.1393 32.3029 26.223 31.8071 26.0053 31.4085C26.2063 31.5023 26.3436 31.5727 26.3671 31.5894C26.4609 31.6631 26.6753 32.0852 26.7691 32.0852C26.8629 32.0852 27.4759 32.1321 27.4759 32.1321C27.1108 31.7569 26.7088 31.4253 26.2699 31.1405C26.0388 31.0467 25.801 30.963 25.5598 30.8926C25.4626 30.8089 25.3487 30.7385 25.2281 30.6883C25.4827 30.7017 25.734 30.7017 25.9885 30.6883C25.9919 30.6883 25.9986 30.6883 26.0019 30.6883C26.1292 30.7586 26.2431 30.8491 26.3369 30.9596C26.4307 31.0266 26.5145 31.164 26.6619 31.2176C26.8126 31.2645 26.9868 31.3449 27.2883 31.4621C27.6199 31.5995 28.3 31.3549 29.0236 31.4554C29.248 31.4889 30.0721 30.9529 29.8744 30.9663C29.727 30.9529 29.5796 30.9194 29.4389 30.8658L29.4657 30.8591C29.6902 30.7988 30.263 30.2461 30.0721 30.2896C29.8041 30.3064 29.5361 30.2896 29.2748 30.2293C29.449 30.0853 29.727 29.7034 29.5964 29.7704C29.3016 29.7905 29.0068 29.757 28.7254 29.6766C28.6819 29.6666 28.635 29.6599 28.5914 29.6565C28.6149 29.6465 28.635 29.6364 28.6517 29.6297C29.047 29.4388 29.4322 29.2244 29.8074 28.9932C30.2061 29.0435 30.5545 29.3182 30.7621 29.3416C30.9363 29.3718 31.1105 29.412 31.278 29.4723C31.6063 29.4589 31.9279 29.3852 32.2294 29.2545C32.5677 29.1473 32.5275 28.943 32.8424 28.8257C33.0602 28.7453 33.422 28.4104 33.2511 28.5075C33.1205 28.5845 32.6917 28.4807 32.3835 28.4171C32.4404 28.3936 32.4069 28.3434 32.7754 28.0184C32.9463 27.861 33.0836 27.3116 32.9262 27.4355C32.8022 27.5092 32.6582 27.5494 32.5141 27.5528C32.6213 27.3752 32.7252 26.8326 32.6347 26.9598C32.484 27.1072 32.3065 27.2211 32.1122 27.3015C32.3299 27.1139 32.5309 26.9029 32.7118 26.6751C32.8491 26.6115 32.9932 26.5646 33.1439 26.5378C33.3349 26.5378 33.8977 26.6115 34.0417 26.4708C34.1857 26.3301 34.3968 26.0688 34.4705 26.0219C34.6413 25.8075 34.7753 25.5696 34.8725 25.315C35.0333 25.037 35.2477 24.7958 35.5056 24.6015C35.2611 24.558 35.0098 24.558 34.7619 24.6015C34.8155 24.3436 34.9294 24.099 35.0969 23.8947C35.0969 23.8947 34.4571 24.0588 34.2929 24.0856C34.0584 24.0856 33.834 24.1794 33.6665 24.3469C33.7469 24.0756 33.8173 23.8243 33.8709 23.62C33.8809 23.5798 33.8943 23.5296 33.9111 23.4659C33.9914 23.3487 34.1087 23.2582 34.2427 23.2147C34.715 23.0572 35.1405 23.0237 35.3113 22.8529C35.4755 22.6887 35.5693 22.5748 35.6362 22.4978C35.7635 22.3537 35.8607 22.1862 35.921 22.002C35.9846 21.7541 36.0315 21.5029 36.0617 21.2483L36.0583 21.2516ZM34.3599 20.796C34.3331 21.121 34.2862 21.4426 34.2125 21.7575C34.2025 21.6235 34.1656 21.4928 34.1053 21.3722C34.0383 21.2282 33.9412 21.2282 33.8943 21.0875C33.8474 20.9468 33.6833 20.8965 33.5861 20.7793C33.499 20.6855 33.4019 20.5984 33.3014 20.5213C33.2344 20.8161 33.2176 21.1176 33.2545 21.4191C33.2712 21.466 33.2846 21.5129 33.288 21.5598C33.2176 21.533 33.1573 21.5129 33.1573 21.5129C33.0334 21.791 33.1774 22.0757 33.2243 22.3336C33.2679 22.4509 33.3215 22.5614 33.3885 22.6686C33.4354 22.7624 33.4153 22.8529 33.4622 22.9266C33.5057 22.9869 33.6096 22.9969 33.7168 23.0974C33.7168 23.2214 33.7369 23.3487 33.7737 23.4693C33.6833 23.7741 33.5828 24.0823 33.4756 24.3905C33.4655 24.2732 33.4253 24.1627 33.3617 24.0622C33.2679 23.9483 33.1975 23.821 33.1506 23.6803C33.0568 23.4224 32.8659 23.4224 32.8391 23.1644C32.7989 23.352 32.7687 23.5396 32.752 23.7272C32.7352 23.8947 32.752 24.0622 32.7922 24.223C32.7989 24.3302 32.7855 24.4374 32.7486 24.5412C32.7486 24.3972 32.7185 24.2565 32.6548 24.1292C32.6079 24.0421 32.5912 23.9416 32.6079 23.8444C32.5074 24.0186 32.3835 24.1794 32.2462 24.3235L32.1591 24.1761C33.3985 22.0053 33.1104 18.2937 33.0635 17.7845C33.2645 17.7409 33.2277 17.6404 33.2277 17.6404L33.1875 17.3992C33.2042 17.4126 33.2277 17.4227 33.2478 17.4294C33.2612 17.4327 33.2779 17.4361 33.2913 17.4361C33.3215 17.4361 33.3483 17.426 33.3751 17.4093C33.4119 17.3825 33.4354 17.3423 33.4354 17.2987V17.292C33.5024 17.3791 33.5895 17.4495 33.69 17.4964C33.8608 17.5433 34.0015 17.6203 34.0216 17.6873C34.1288 18.1329 34.2092 18.5818 34.2628 19.0373C34.0718 18.8229 34.025 18.421 33.6029 18.2066C33.6129 18.3004 33.6129 18.3975 33.6029 18.4913C33.5761 18.6119 33.5627 18.7392 33.5627 18.8631C33.4354 18.7794 33.3248 18.6722 33.2377 18.5449C33.2009 18.8464 33.231 19.1546 33.3315 19.4427C33.5024 19.7509 33.5024 19.9117 33.6866 19.9787C33.7905 20.0155 33.8876 20.0758 33.9714 20.1495C34.0551 20.2132 34.1522 20.25 34.2561 20.2668C34.2795 20.2668 34.303 20.2835 34.3164 20.3036C34.3264 20.3505 34.3398 20.4007 34.3532 20.4476C34.3566 20.5749 34.3566 20.6922 34.3532 20.7994L34.3599 20.796ZM17.8717 18.2401L19.128 19.1244C19.1112 19.5968 19.1715 20.0658 19.3055 20.518L18.2603 22.2666C18.0895 21.8915 17.6473 20.6654 17.8684 18.2401H17.8717ZM15.9322 17.215C15.9791 17.1346 16.0595 17.0743 16.1499 17.0509C16.1566 17.1446 16.1264 17.2384 16.0662 17.3155C16.0494 17.3389 16.026 17.3557 15.9992 17.3657C15.9791 17.3724 15.9556 17.3691 15.9355 17.3557C15.9188 17.3423 15.9054 17.3222 15.9054 17.2987C15.9054 17.2686 15.9121 17.2384 15.9322 17.215ZM20.0626 14.3039L21.0642 15.4061C21.0441 15.7109 21.0005 16.6589 21.2618 17.2552L20.3507 18.776C20.1329 18.3339 19.684 17.0308 20.0626 14.3006V14.3039ZM23.9652 13.5904C24.4074 13.5134 24.863 13.5134 25.3052 13.5871L25.4492 13.8249C24.9132 13.7077 24.3571 13.711 23.8245 13.8316L23.9686 13.5904H23.9652ZM24.0791 13.3995L24.6352 12.4682L25.1879 13.3961C24.8194 13.3459 24.4442 13.3492 24.0758 13.3995H24.0791ZM23.6972 14.0393C24.3102 13.8684 24.9568 13.8651 25.5732 14.0326L25.7273 14.2905C25.0204 14.046 24.2499 14.0493 23.5431 14.3006L23.6972 14.0426V14.0393ZM23.3924 14.5451C24.183 14.2001 25.0774 14.1967 25.8713 14.5317L29.717 20.9568H28.3067C28.243 20.9166 28.1794 20.8731 28.1224 20.8262C28.1023 20.8094 28.0789 20.7927 28.0554 20.7759C27.9616 20.7156 27.8511 20.6922 27.7405 20.7156C27.6836 20.729 27.6266 20.7491 27.5764 20.7759C27.5228 20.8027 27.4759 20.8362 27.429 20.8697C27.4257 20.8731 27.419 20.8798 27.4123 20.8798C27.3888 20.8697 27.3654 20.8597 27.3419 20.8496C27.218 20.7893 27.1007 20.7123 26.9969 20.6252C26.9634 20.595 26.9265 20.5716 26.8863 20.5481C26.8227 20.5146 26.749 20.4979 26.6753 20.4979C26.625 20.4979 26.5748 20.5046 26.5245 20.5213C26.4542 20.5414 26.3905 20.5749 26.3302 20.6118C26.29 20.6386 26.2498 20.6654 26.213 20.6955C26.2096 20.6989 26.2063 20.7056 26.1962 20.7056H26.1862C26.1158 20.6553 26.0388 20.6185 25.9617 20.585C25.8914 20.5548 25.8244 20.5213 25.7574 20.4811C25.6636 20.4242 25.5765 20.3639 25.4961 20.2936C25.466 20.2701 25.4358 20.2467 25.4023 20.2266C25.3353 20.1864 25.2583 20.1629 25.1779 20.1562C25.1243 20.1529 25.0707 20.1562 25.0171 20.1663C24.9467 20.183 24.8764 20.2065 24.8127 20.2433C24.7792 20.2634 24.7457 20.2835 24.7122 20.307V18.0826C24.9467 18.0692 25.1276 17.9855 25.1276 17.8883C25.1276 17.7912 24.9568 17.1212 24.7323 16.9571C24.595 16.8566 24.4074 16.8532 24.2667 16.9437C24.2667 16.9437 23.9753 17.1145 24.1227 17.3523C24.1227 17.3523 24.1528 17.426 24.2834 17.3724C24.337 17.349 24.3772 17.3021 24.3873 17.2451V17.3021C24.3839 17.3858 24.2701 17.4294 24.2634 17.4327C24.2064 17.5801 24.1662 17.7309 24.1461 17.8883C24.1461 17.9888 24.3303 18.0692 24.5648 18.0826V20.3405L24.5447 20.3271C24.4476 20.2668 24.3538 20.2031 24.2667 20.1294C24.2332 20.1026 24.1997 20.0792 24.1629 20.0557C24.0925 20.0155 24.0155 19.9887 23.9384 19.982C23.8748 19.9753 23.8111 19.982 23.7475 19.9921C23.6738 20.0088 23.6001 20.0356 23.5331 20.0725C23.4627 20.1093 23.3957 20.1529 23.3321 20.2031C23.3287 20.2065 23.322 20.2098 23.3153 20.2132L23.2986 20.2031C23.2684 20.1864 23.2416 20.1696 23.2115 20.1529C23.1713 20.1294 23.1277 20.1093 23.0842 20.0926C23.0272 20.0725 22.9703 20.0457 22.9167 20.0155C22.7592 19.9318 22.6118 19.8313 22.4745 19.7174C22.4611 19.7073 22.4477 19.6973 22.4343 19.6872C22.3305 19.6068 22.2032 19.5566 22.0725 19.5432C22.0692 19.5432 22.0625 19.5432 22.0591 19.5398H21.9854C21.9854 19.5398 21.9754 19.5398 21.9687 19.5432C21.8816 19.5499 21.7978 19.57 21.7174 19.6035C21.627 19.6403 21.5399 19.6906 21.4561 19.7475C21.3657 19.8112 21.2786 19.8849 21.1948 19.9619C21.091 20.0624 20.9938 20.1696 20.9034 20.2835C20.8163 20.394 20.7326 20.5079 20.6555 20.6285C20.6522 20.6352 20.6488 20.6386 20.6421 20.6453C20.5852 20.7123 20.5282 20.7793 20.4646 20.8396C20.4277 20.8798 20.3842 20.9133 20.344 20.9468H19.5601L23.3957 14.5317L23.3924 14.5451ZM28.9231 18.776L28.0119 17.2552C28.2732 16.6589 28.2296 15.7109 28.2095 15.4061L29.2111 14.3039C29.5897 17.0308 29.1408 18.3339 28.9231 18.7794V18.776ZM33.1205 17.0475C33.2143 17.0709 33.2913 17.1312 33.3416 17.215C33.3583 17.2384 33.365 17.2652 33.365 17.2954C33.365 17.3188 33.3516 17.3389 33.3349 17.3523C33.3148 17.3657 33.2913 17.3691 33.2712 17.3624C33.2444 17.3523 33.2176 17.3356 33.2042 17.3121C33.1473 17.2384 33.1171 17.1446 33.1238 17.0509L33.1205 17.0475ZM31.0067 22.2599L29.9615 20.5146C30.0989 20.0658 30.1592 19.5934 30.1391 19.1244L31.3953 18.2401C31.6164 20.6587 31.1775 21.8848 31.0033 22.2599H31.0067ZM17.52 24.3637L18.5015 22.7256H30.4104C30.4104 22.7256 30.4004 22.7189 30.397 22.7155C30.3769 22.7055 30.3568 22.6954 30.3367 22.682C30.2664 22.6385 30.1994 22.5916 30.1357 22.538C30.0185 22.4475 29.9079 22.347 29.7974 22.2465C29.6399 22.0991 29.4892 21.9484 29.3384 21.791C29.2413 21.6905 29.1441 21.5866 29.0504 21.4794C29.0102 21.4325 28.9666 21.389 28.9231 21.3454C28.8427 21.2684 28.7556 21.2014 28.6618 21.1411C28.6216 21.1143 28.578 21.0908 28.5345 21.0707H29.7873L31.7571 24.3603H17.52V24.3637ZM19.4864 21.0741H20.2133C20.0726 21.198 19.9252 21.3119 19.7745 21.4158C19.7611 21.4258 19.7477 21.4359 19.7309 21.4426C19.6505 21.4928 19.5701 21.5464 19.4964 21.6034C19.3725 21.6972 19.2553 21.7977 19.138 21.9015C19.0208 22.0053 18.9102 22.1125 18.7997 22.2197L19.4864 21.0707V21.0741ZM24.605 20.6285C24.6318 20.6419 24.6586 20.652 24.6888 20.6654C24.7223 20.6788 24.7524 20.6922 24.7826 20.7089C24.8663 20.7558 24.9467 20.8094 25.0238 20.8664C25.1477 20.9635 25.265 21.0741 25.3688 21.1947C25.5296 21.3756 25.6971 21.5531 25.8646 21.7273C25.9349 21.7977 26.0053 21.8714 26.0756 21.9417C26.2532 22.1192 26.4374 22.2934 26.6284 22.4576L26.6652 22.4877L26.6719 22.4944L25.7407 22.4978C25.7306 22.4978 25.7206 22.4978 25.7139 22.4877L25.6536 22.4408C25.5229 22.3403 25.399 22.2331 25.2784 22.1226C25.1377 21.9953 25.0003 21.868 24.8663 21.734C24.5715 21.4459 24.2868 21.1478 24.0088 20.8429C23.9619 20.7893 23.915 20.7357 23.8647 20.6821C23.7575 20.5682 23.6436 20.4644 23.5197 20.3672C23.5163 20.3639 23.5096 20.3605 23.5063 20.3572L23.513 20.3505C23.5733 20.307 23.6369 20.2735 23.7039 20.2467C23.7408 20.2333 23.781 20.2232 23.8212 20.2165C23.8915 20.2065 23.9652 20.2165 24.0289 20.2534C24.059 20.2701 24.0892 20.2902 24.116 20.3103C24.1863 20.3706 24.26 20.4242 24.337 20.4744C24.4241 20.5314 24.5146 20.5816 24.6084 20.6252L24.605 20.6285ZM28.3569 21.2483C28.3569 21.2483 28.3871 21.2617 28.4005 21.2684C28.4373 21.2818 28.4708 21.2985 28.5043 21.3186C28.5914 21.3722 28.6718 21.4325 28.7489 21.5029C28.7958 21.5464 28.8427 21.5933 28.8862 21.6436C28.9733 21.7407 29.0638 21.8379 29.1542 21.935C29.2346 22.0187 29.3183 22.1058 29.4021 22.1896C29.5026 22.2934 29.6064 22.3906 29.7136 22.4844C29.7203 22.4877 29.7237 22.4944 29.727 22.5011H29.7203H29.2044C29.191 22.5011 29.181 22.5011 29.1709 22.4911C29.0738 22.4107 28.98 22.3269 28.8862 22.2432C28.7924 22.1594 28.7053 22.0757 28.6182 21.9886C28.4239 21.7977 28.2397 21.6034 28.0554 21.4024C28.0152 21.3588 27.9784 21.3186 27.9382 21.2751C27.8477 21.1813 27.7506 21.0975 27.6467 21.0238L27.6333 21.0138C27.6333 21.0138 27.6333 21.0104 27.6367 21.0071C27.6802 20.9769 27.7271 20.9568 27.7774 20.9468C27.8276 20.9367 27.8779 20.9468 27.9214 20.9702C27.9382 20.9803 27.9549 20.9937 27.9717 21.0071C28.0889 21.1042 28.2162 21.1846 28.3536 21.2483H28.3569ZM27.6534 21.3153C27.7238 21.3756 27.7908 21.4426 27.8511 21.5129C27.9851 21.6637 28.1224 21.8111 28.2631 21.9551C28.3904 22.0857 28.5177 22.213 28.6517 22.337C28.7053 22.3872 28.7589 22.4341 28.8125 22.4844L28.8259 22.4978C28.8259 22.4978 28.8226 22.4978 28.8192 22.4978H28.0923C28.0923 22.4978 28.0856 22.4978 28.0822 22.4978C28.0722 22.4978 28.0655 22.4978 28.0588 22.4911C28.0119 22.4509 27.9616 22.414 27.9147 22.3705C27.7774 22.2566 27.6467 22.1326 27.5161 22.0087C27.4424 21.935 27.3654 21.8647 27.2917 21.791C27.0974 21.5967 26.9098 21.399 26.7289 21.198C26.6887 21.1545 26.6485 21.1076 26.6049 21.064C26.5379 20.9937 26.4642 20.9267 26.3905 20.8664L26.3805 20.8563L26.3872 20.8496C26.4341 20.8128 26.4877 20.7826 26.5413 20.7592C26.5781 20.7458 26.615 20.7357 26.6518 20.7324C26.692 20.7324 26.7322 20.7391 26.7691 20.7592C26.7925 20.7726 26.816 20.7893 26.8361 20.8061C26.95 20.8999 27.0706 20.9803 27.2012 21.0473C27.2381 21.0674 27.2749 21.0808 27.3118 21.0975C27.3486 21.1109 27.3821 21.1277 27.4156 21.1478C27.4993 21.1947 27.5764 21.2516 27.6501 21.3153H27.6534ZM26.5245 21.3086C26.6284 21.4258 26.7356 21.5397 26.8428 21.6536C26.9399 21.7575 27.0371 21.858 27.1376 21.9585C27.3084 22.1293 27.4826 22.2968 27.6635 22.4542C27.6769 22.4676 27.6903 22.4777 27.7037 22.4911L27.7104 22.4978H27.7037H27.0505C27.0404 22.4978 27.0304 22.4978 27.0203 22.4877C26.9734 22.4475 26.9232 22.4107 26.8763 22.3705C26.7188 22.2398 26.5681 22.1025 26.424 21.9618C26.347 21.8848 26.2666 21.8077 26.1895 21.7307C25.9818 21.523 25.7809 21.3086 25.5832 21.0908C25.5363 21.0406 25.4928 20.9903 25.4459 20.9401C25.3286 20.8161 25.2013 20.7056 25.064 20.6084C24.997 20.5615 24.93 20.5213 24.8596 20.4845L24.8496 20.4778C24.8496 20.4778 24.8496 20.4744 24.8529 20.4711C24.9132 20.4342 24.9769 20.4041 25.0472 20.3873C25.0807 20.3806 25.1176 20.3773 25.1544 20.3806C25.198 20.384 25.2382 20.3974 25.275 20.4175C25.3052 20.4342 25.332 20.451 25.3554 20.4744C25.4961 20.5917 25.6536 20.6922 25.8177 20.7692C25.8412 20.7793 25.8646 20.7893 25.8881 20.7994C25.9282 20.8161 25.9684 20.8362 26.0086 20.8563C26.0957 20.9066 26.1795 20.9669 26.2565 21.0305C26.3537 21.1109 26.4441 21.2014 26.5279 21.2952L26.5245 21.3086ZM23.6168 20.7659C23.6805 20.8295 23.7408 20.8965 23.8011 20.9635C23.8681 21.0372 23.9351 21.1109 24.0021 21.1846C24.126 21.3153 24.2466 21.4459 24.3739 21.5732C24.5983 21.801 24.8261 22.0254 25.064 22.2432C25.1544 22.3269 25.2482 22.4073 25.342 22.4844L25.3588 22.4978H18.8499C18.8499 22.4978 18.8499 22.4877 18.8533 22.4877C18.8834 22.4576 18.9136 22.4274 18.9437 22.3973C19.0409 22.3001 19.1414 22.2063 19.2419 22.1159C19.3658 22.0053 19.4897 21.8982 19.6204 21.7977C19.6974 21.7374 19.7812 21.6804 19.8649 21.6302C19.8884 21.6168 19.9118 21.6 19.9353 21.5833C20.143 21.4392 20.3373 21.2818 20.5215 21.1076C20.6254 21.0104 20.7259 20.9032 20.8163 20.7927C20.823 20.786 20.8297 20.7793 20.8331 20.7692C20.9101 20.6486 20.9938 20.5314 21.0843 20.4175C21.158 20.3271 21.235 20.2433 21.3154 20.1596C21.3992 20.0758 21.493 19.9988 21.5901 19.9284C21.6538 19.8849 21.7241 19.848 21.7978 19.8179C21.8481 19.7978 21.8983 19.7844 21.9519 19.7777C22.0424 19.7676 22.1328 19.7844 22.2132 19.8279C22.2467 19.848 22.2802 19.8715 22.3137 19.8949C22.3874 19.9552 22.4611 20.0122 22.5415 20.0658C22.632 20.1294 22.7291 20.183 22.8262 20.2333C22.8798 20.2601 22.9334 20.2835 22.987 20.3036C23.0239 20.317 23.0574 20.3337 23.0909 20.3538C23.1813 20.4041 23.2684 20.461 23.3522 20.5247C23.446 20.5984 23.5364 20.6754 23.6202 20.7592L23.6168 20.7659ZM22.1496 24.7958C22.4645 25.0303 22.8195 25.2011 23.1981 25.3016C22.9468 25.3787 21.3087 25.8108 19.9085 24.7958H22.1496ZM24.3839 26.1257C24.3839 26.1257 24.5414 25.3117 24.6285 24.7958C24.7189 25.3083 24.873 26.1257 24.873 26.1257C24.9099 26.4038 24.8194 26.6818 24.6285 26.8861C24.4375 26.6818 24.3471 26.4038 24.3839 26.1257ZM27.1141 24.7958H29.3552C27.9549 25.8108 26.3168 25.3787 26.0656 25.3016C26.4441 25.2011 26.7992 25.027 27.1141 24.7925V24.7958ZM32.8156 16.7661C32.7955 16.7393 32.7888 16.7092 32.7922 16.679C32.7922 16.6623 32.8022 16.6489 32.8156 16.6355C32.8223 16.6422 32.829 16.6455 32.8357 16.6522C32.9161 16.7025 32.9831 16.7695 33.0334 16.8499C33.0401 16.8767 33.0401 16.9068 33.0334 16.9336C32.9429 16.9068 32.8625 16.8465 32.8123 16.7661H32.8156ZM31.0536 12.8434C31.0134 12.8769 30.9497 12.8735 30.9162 12.83C30.8492 12.773 30.8023 12.6926 30.7822 12.6055C30.7822 12.6022 30.7889 12.5955 30.7889 12.5921C30.8794 12.5988 30.9665 12.639 31.0268 12.706C31.067 12.7362 31.077 12.7965 31.0502 12.84L31.0536 12.8434ZM30.866 12.2002L31.1172 12.1131L31.0569 12.371L30.8559 12.4012L30.866 12.1969V12.2002ZM30.397 12.2504C30.397 12.2504 30.4305 12.227 30.4506 12.227C30.4808 12.227 30.5109 12.2404 30.5344 12.2638C30.6014 12.3174 30.6483 12.3945 30.665 12.4816C30.6483 12.4816 30.6349 12.4816 30.6215 12.495C30.5444 12.4782 30.4741 12.4414 30.4171 12.3878C30.3736 12.3576 30.3602 12.2973 30.3903 12.2504H30.397ZM24.94 9.20874C24.94 9.20874 24.9568 9.20874 24.9668 9.20874C25.0137 9.19534 25.0606 9.22549 25.0707 9.27239C25.0807 9.31929 25.0539 9.36619 25.007 9.37624C24.9936 9.37959 24.9769 9.37959 24.9635 9.37624C24.8697 9.37959 24.7759 9.34944 24.7022 9.29249C24.7658 9.23554 24.8496 9.20204 24.9367 9.20539L24.94 9.20874ZM24.6318 8.70961L24.7625 8.9441L24.6352 9.10155L24.5045 8.9441L24.6318 8.70961ZM24.2968 9.37959C24.2667 9.37959 24.2332 9.36954 24.2131 9.34609C24.1863 9.32264 24.183 9.27909 24.2064 9.24894C24.2064 9.24894 24.2098 9.24559 24.2131 9.24224C24.2366 9.21879 24.27 9.20874 24.3035 9.20874C24.3973 9.19869 24.4911 9.22884 24.5615 9.29249C24.4878 9.35279 24.3906 9.37959 24.2968 9.37624V9.37959ZM24.5715 10.9339C24.6888 10.7363 24.7792 10.5219 24.8328 10.3008C24.9199 10.8066 24.8898 11.3259 24.7457 11.8183L24.6251 11.6173L24.2298 12.2772C24.193 11.8049 24.3102 11.3326 24.5682 10.9339H24.5715ZM18.726 12.2605C18.7494 12.237 18.7796 12.227 18.8097 12.227C18.8298 12.227 18.8466 12.237 18.86 12.2504C18.8734 12.2638 18.8801 12.2839 18.8767 12.304C18.8767 12.3375 18.86 12.3677 18.8332 12.3878C18.7695 12.4514 18.6858 12.4916 18.5953 12.5017H18.5819C18.592 12.4045 18.6422 12.3174 18.7193 12.2605H18.726ZM18.1397 12.1165L18.391 12.2035L18.401 12.4079L18.2 12.3777L18.1397 12.1198V12.1165ZM18.257 12.8702C18.2369 12.8702 18.2201 12.8635 18.2067 12.8467C18.1933 12.8333 18.1866 12.8132 18.19 12.7931C18.19 12.7596 18.2067 12.7295 18.2335 12.7094C18.2938 12.6457 18.3776 12.6055 18.4647 12.5955H18.4814C18.4647 12.6893 18.4178 12.773 18.3441 12.8333C18.3206 12.8568 18.2905 12.8668 18.257 12.8635V12.8702ZM16.4447 16.7695C16.3944 16.8499 16.3174 16.9068 16.2269 16.9336C16.2236 16.9068 16.2236 16.88 16.2269 16.8532C16.2805 16.7728 16.3475 16.7025 16.4279 16.6522C16.4346 16.6489 16.4413 16.6422 16.4447 16.6388C16.4581 16.6522 16.4648 16.669 16.4681 16.6891C16.4681 16.7192 16.4614 16.746 16.4447 16.7695ZM14.9104 20.4476C14.9272 20.4007 14.9372 20.3538 14.9473 20.3036C14.9607 20.2835 14.9841 20.2701 15.0076 20.2668C15.1114 20.2534 15.2086 20.2132 15.2923 20.1495C15.3761 20.0758 15.4732 20.0189 15.5771 19.9787C15.7613 19.9117 15.7613 19.7475 15.9322 19.4427C16.0327 19.1546 16.0662 18.8464 16.026 18.5449C15.9389 18.6722 15.8317 18.7794 15.7044 18.8631C15.7044 18.7392 15.691 18.6153 15.6642 18.4913C15.6541 18.3975 15.6541 18.3004 15.6642 18.2066C15.2421 18.4243 15.1952 18.8263 15.0042 19.0373C15.0578 18.5851 15.1382 18.1362 15.2454 17.6907C15.2655 17.6237 15.4096 17.5466 15.5771 17.4997C15.6742 17.4528 15.758 17.3858 15.825 17.3021C15.825 17.349 15.8484 17.3892 15.8853 17.416C15.9087 17.4327 15.9389 17.4428 15.969 17.4428C15.9824 17.4428 15.9992 17.4428 16.0126 17.4361C16.036 17.4294 16.0561 17.4193 16.0728 17.4059L16.0327 17.6471C16.0327 17.6471 15.9992 17.751 16.1968 17.7912C16.1499 18.3004 15.8585 22.0154 17.1046 24.1861L17.0175 24.3302C16.8768 24.1861 16.7562 24.0253 16.6557 23.8511C16.6725 23.9483 16.6557 24.0488 16.6088 24.1359C16.5452 24.2632 16.515 24.4039 16.515 24.5479C16.4815 24.4474 16.4681 24.3369 16.4715 24.2297C16.515 24.0689 16.5284 23.9014 16.5117 23.7339C16.4949 23.543 16.4648 23.3554 16.4246 23.1711C16.3978 23.4291 16.2068 23.4291 16.113 23.687C16.0662 23.8277 15.9958 23.955 15.902 24.0689C15.8384 24.166 15.7982 24.2799 15.7881 24.3972C15.6809 24.089 15.5804 23.7774 15.49 23.476C15.5268 23.3554 15.5469 23.2314 15.5469 23.1041C15.6541 23.007 15.758 22.9969 15.8015 22.9333C15.8484 22.8596 15.8283 22.7691 15.8752 22.6753C15.9422 22.5715 15.9958 22.4576 16.0394 22.3403C16.0862 22.0824 16.2303 21.7977 16.1063 21.5196C16.1063 21.5196 16.0461 21.5397 15.9757 21.5665C15.9824 21.5196 15.9925 21.4694 16.0092 21.4258C16.0461 21.1277 16.0293 20.8228 15.9623 20.528C15.8585 20.6051 15.7647 20.6922 15.6776 20.786C15.5838 20.9032 15.4196 20.9501 15.3694 21.0942C15.3191 21.2382 15.2253 21.2382 15.1583 21.3789C15.098 21.4995 15.0612 21.6302 15.0511 21.7642C14.9774 21.4459 14.9305 21.1243 14.9037 20.8027C14.9037 20.6955 14.9037 20.5749 14.9037 20.451L14.9104 20.4476ZM25.5866 30.2461C25.3755 30.2461 25.1645 30.2997 24.9769 30.4002C24.9769 30.3935 24.9702 30.3868 24.9702 30.3801C25.2181 29.958 25.4961 29.556 25.7976 29.1708C25.9383 29.5393 25.8546 29.958 25.5866 30.2461ZM24.3203 30.4002C24.1327 30.2997 23.925 30.2494 23.7106 30.2461C23.4426 29.958 23.3589 29.5393 23.4996 29.1708C23.8011 29.556 24.0791 29.9614 24.327 30.3801C24.327 30.3868 24.3236 30.3935 24.3203 30.4002ZM31.603 27.4154C31.6164 27.3953 31.6264 27.3719 31.6331 27.3451C31.6867 27.201 31.7202 27.0503 31.7269 26.8962C31.7001 26.7053 31.6532 26.5143 31.5829 26.3334C31.5159 26.1626 31.3517 25.7706 31.1809 25.6936C31.1809 25.6936 31.0435 26.1425 30.9966 26.3066C30.9665 26.4641 30.9095 26.6182 30.8258 26.7555C30.7889 26.8125 30.7521 26.8727 30.722 26.9364C30.7119 26.8326 30.7153 26.7254 30.732 26.6215C30.7588 26.31 30.263 25.8209 30.263 25.8209C30.253 26.1056 30.1692 26.3803 30.0252 26.6215C29.8912 26.8259 29.8041 27.057 29.7672 27.3015C29.7505 27.4657 29.6835 27.6231 29.5763 27.7504C29.4356 27.9414 29.593 28.7487 29.6098 28.8425C29.2949 29.0368 28.9633 29.2277 28.6584 29.3818C28.568 29.4287 28.4608 29.4723 28.3502 29.5225C28.3703 29.5024 28.3938 29.4857 28.4139 29.4656C28.635 29.2713 28.7958 29.02 28.8829 28.7386C29.0303 28.7118 28.6852 28.675 28.4842 28.6951C28.6015 28.5175 28.7623 28.273 28.8762 28.0653C28.9633 27.8945 28.1157 28.1189 28.1157 28.1189C28.0253 28.1558 27.9516 28.1826 27.8879 28.206C27.9516 28.0117 27.9951 27.8107 28.0253 27.6097C28.0186 27.5427 27.6635 27.6566 27.3788 27.7806C27.1677 27.9079 26.9667 28.0486 26.7791 28.2094C26.5279 28.3735 26.4944 28.7788 26.3771 28.9698C26.3168 29.0703 26.2666 29.1775 26.2297 29.288C26.2297 29.1607 26.1694 29.0401 26.0622 28.9731H26.0522C26.0522 28.9731 26.0455 28.9631 26.0388 28.9631C26.022 28.9564 26.0086 28.953 25.9919 28.9497C25.9383 28.9363 25.8512 28.9229 25.7105 28.9095C25.4626 28.8592 25.2114 28.9631 25.0707 29.1741C24.9434 29.4991 24.8395 29.8341 24.7591 30.1724C24.7256 30.159 24.6854 30.1489 24.6486 30.1489C24.6117 30.1489 24.5749 30.159 24.538 30.1724C24.4576 29.8341 24.3538 29.4991 24.2265 29.1741C24.0892 28.9631 23.8346 28.8592 23.5867 28.9095C23.446 28.9262 23.3589 28.9396 23.3053 28.9497C23.2885 28.9497 23.2718 28.9564 23.2584 28.9631H23.245L23.2349 28.9731C23.1478 29.0167 23.0641 29.1339 23.0607 29.412C23.0339 29.2545 22.9736 29.1038 22.8832 28.9731C22.7659 28.7822 22.7324 28.3735 22.4812 28.2127C22.2936 28.0519 22.096 27.9079 21.8816 27.7839C21.5968 27.66 21.2417 27.5461 21.235 27.6131C21.2652 27.8141 21.3087 28.0151 21.3724 28.2094C21.3121 28.1859 21.2384 28.1591 21.1446 28.1223C21.1446 28.1223 20.2937 27.8978 20.3842 28.0687C20.4981 28.2764 20.6589 28.5209 20.7761 28.6984C20.5751 28.6817 20.2301 28.7185 20.3775 28.742C20.4646 29.0234 20.6287 29.2746 20.8465 29.4689C20.8666 29.489 20.89 29.5058 20.9101 29.5259C20.7962 29.479 20.6924 29.4321 20.6019 29.3852C20.2937 29.2311 19.9654 29.0401 19.6505 28.8458C19.6706 28.7554 19.8281 27.9481 19.6874 27.7538C19.5802 27.6265 19.5132 27.469 19.4964 27.3049C19.4596 27.0637 19.3725 26.8292 19.2385 26.6249C19.0945 26.3803 19.0107 26.1056 19.0007 25.8242C19.0007 25.8242 18.5049 26.3133 18.5317 26.6249C18.5484 26.7287 18.5518 26.8359 18.5417 26.9397C18.5116 26.8794 18.4747 26.8191 18.4379 26.7589C18.3575 26.6215 18.2972 26.4674 18.267 26.31C18.2201 26.1458 18.0828 25.6969 18.0828 25.6969C17.9119 25.7706 17.7478 26.1659 17.6808 26.3368C17.6138 26.5177 17.5669 26.7086 17.5368 26.8995C17.5435 27.0536 17.577 27.2044 17.6306 27.3484C17.6373 27.3719 17.6473 27.3953 17.6607 27.4188C17.2956 27.1608 16.9807 26.8393 16.7294 26.4674C16.7395 26.377 16.773 26.2899 16.8299 26.2195C16.9807 26.0621 17.0979 25.8778 17.185 25.6768C17.2085 25.5361 17.2085 25.3887 17.185 25.248C17.1984 25.1074 17.2219 24.9667 17.252 24.826L17.2453 24.7992H17.6406C18.3474 25.3217 20.8833 26.9196 23.8681 25.6165C23.858 25.6534 23.8413 25.6902 23.8212 25.7237C23.8212 25.7237 23.1813 26.5947 24.6285 26.8895C26.079 26.5947 25.4358 25.7237 25.4358 25.7237C25.4157 25.6902 25.399 25.6534 25.3889 25.6165C28.3737 26.923 30.9129 25.3184 31.6197 24.7992H32.0217L32.015 24.826C32.0452 24.9667 32.0686 25.1074 32.082 25.248C32.0586 25.3887 32.0586 25.5361 32.082 25.6768C32.1658 25.8778 32.2864 26.0621 32.4371 26.2195C32.494 26.2899 32.5275 26.377 32.5376 26.4674C32.283 26.8359 31.9681 27.1575 31.603 27.4154Z" fill="#041E5F"/>
  <path d="M29.2979 28.2261C29.2208 28.2261 29.1572 28.2831 29.1538 28.3601C29.1538 28.4372 29.2141 28.5008 29.2912 28.5042C29.2912 28.5042 29.2945 28.5042 29.2979 28.5042C29.3749 28.5042 29.4386 28.4405 29.4419 28.3601C29.4419 28.2831 29.3749 28.2228 29.2979 28.2228V28.2261Z" fill="#041E5F"/>
  <path d="M30.1021 29.2109C30.025 29.2109 29.9614 29.2746 29.958 29.355C29.958 29.432 30.0183 29.4957 30.0954 29.499C30.0954 29.499 30.0987 29.499 30.1021 29.499C30.1791 29.499 30.2461 29.4354 30.2461 29.355C30.2461 29.2779 30.1825 29.2143 30.1021 29.2109Z" fill="#041E5F"/>
  <path d="M31.9639 26.099C31.8868 26.099 31.8232 26.1626 31.8198 26.243C31.8198 26.3201 31.8835 26.3837 31.9639 26.3871C32.0409 26.3871 32.1079 26.3234 32.1079 26.243C32.1079 26.166 32.0476 26.1023 31.9706 26.099C31.9706 26.099 31.9672 26.099 31.9639 26.099Z" fill="#041E5F"/>
  <path d="M32.9653 26.8058C32.9653 26.8929 33.0357 26.9599 33.1228 26.9632C33.2065 26.9632 33.2769 26.8962 33.2802 26.8125C33.2802 26.8125 33.2802 26.8091 33.2802 26.8058C33.2802 26.7187 33.2099 26.6517 33.1228 26.6483C33.039 26.6517 32.9687 26.7187 32.9653 26.8058Z" fill="#041E5F"/>
  <path d="M33.3313 23.4659C33.415 23.4659 33.4854 23.3989 33.4887 23.3151C33.4887 23.3151 33.4887 23.3118 33.4887 23.3084C33.4887 23.2213 33.4184 23.1544 33.3313 23.151C33.2475 23.151 33.1772 23.2213 33.1738 23.3084C33.1738 23.3955 33.2442 23.4625 33.3313 23.4659Z" fill="#041E5F"/>
  <path d="M33.8064 20.327C33.7226 20.327 33.6523 20.3907 33.6489 20.4778C33.6489 20.4778 33.6489 20.4811 33.6489 20.4845C33.6523 20.5716 33.726 20.6386 33.8131 20.6352C33.8935 20.6319 33.9605 20.5682 33.9638 20.4845C33.9638 20.4007 33.8968 20.3304 33.8131 20.327C33.8131 20.327 33.8097 20.327 33.8064 20.327Z" fill="#041E5F"/>
  <path d="M34.678 17.7778C34.7618 17.7778 34.8321 17.7108 34.8321 17.6237C34.8321 17.5366 34.7651 17.4696 34.678 17.4696C34.5909 17.4696 34.5239 17.5366 34.5239 17.6237C34.5239 17.7108 34.5909 17.7778 34.678 17.7778Z" fill="#041E5F"/>
  <path d="M33.5686 18.0624C33.6523 18.0624 33.7227 17.9955 33.726 17.9117C33.726 17.9117 33.726 17.9084 33.726 17.905C33.726 17.8179 33.6557 17.7476 33.5686 17.7476C33.4815 17.7476 33.4111 17.8179 33.4111 17.905C33.4111 17.9888 33.4781 18.0591 33.5619 18.0624C33.5619 18.0624 33.5652 18.0624 33.5686 18.0624Z" fill="#041E5F"/>
  <path d="M32.6377 15.5199C32.6377 15.4361 32.5674 15.3691 32.4803 15.3691C32.3965 15.3691 32.3262 15.4361 32.3262 15.5232C32.3262 15.6103 32.3932 15.6773 32.4803 15.6773C32.564 15.6773 32.6344 15.6103 32.6377 15.5266C32.6377 15.5266 32.6377 15.5232 32.6377 15.5199Z" fill="#041E5F"/>
  <path d="M33.3113 15.0174C33.395 15.0174 33.4653 14.9538 33.4687 14.8667C33.4687 14.8667 33.4687 14.8633 33.4687 14.86C33.4653 14.7729 33.3917 14.7059 33.3046 14.7092C33.2242 14.7126 33.1572 14.7762 33.1538 14.86C33.1538 14.9437 33.2175 15.0141 33.3046 15.0174C33.3046 15.0174 33.3079 15.0174 33.3113 15.0174Z" fill="#041E5F"/>
  <path d="M34.876 20.5113C34.876 20.5951 34.9497 20.6621 35.0334 20.6621C35.1172 20.6621 35.1842 20.5951 35.1842 20.5113C35.1842 20.4276 35.1172 20.3606 35.0334 20.3606C34.9497 20.3606 34.8793 20.4276 34.876 20.5113Z" fill="#041E5F"/>
  <path d="M19.9824 28.2261C19.9054 28.2261 19.8417 28.2864 19.8384 28.3634C19.8384 28.4405 19.902 28.5041 19.9824 28.5075C20.0595 28.5075 20.1231 28.4472 20.1265 28.3701C20.1265 28.3701 20.1265 28.3668 20.1265 28.3634C20.1265 28.2864 20.0628 28.2261 19.9858 28.2261H19.9824Z" fill="#041E5F"/>
  <path d="M19.3223 29.355C19.3223 29.2779 19.2586 29.2109 19.1782 29.2109C19.1012 29.2109 19.0375 29.2746 19.0342 29.355C19.0342 29.432 19.0978 29.4957 19.1782 29.499C19.2553 29.499 19.3189 29.4387 19.3223 29.3617C19.3223 29.3617 19.3223 29.3583 19.3223 29.355Z" fill="#041E5F"/>
  <path d="M17.3159 26.099C17.2389 26.099 17.1752 26.1593 17.1719 26.2363C17.1719 26.2363 17.1719 26.2397 17.1719 26.243C17.1719 26.3201 17.2355 26.3837 17.3159 26.3871C17.393 26.3871 17.4566 26.3234 17.46 26.243C17.46 26.166 17.3963 26.1023 17.3159 26.099Z" fill="#041E5F"/>
  <path d="M16.1565 26.9598C16.2436 26.9598 16.3106 26.8894 16.3139 26.8023C16.3106 26.7186 16.2436 26.6482 16.1565 26.6449C16.0694 26.6449 16.0024 26.7152 15.999 26.8023C15.999 26.8861 16.0627 26.9564 16.1498 26.9598C16.1498 26.9598 16.1531 26.9598 16.1565 26.9598Z" fill="#041E5F"/>
  <path d="M15.9485 23.1543C15.8614 23.1543 15.7944 23.2246 15.791 23.3117C15.791 23.3955 15.858 23.4658 15.9418 23.4692C15.9418 23.4692 15.9451 23.4692 15.9485 23.4692C16.0356 23.4692 16.1026 23.3988 16.1059 23.3117C16.1059 23.228 16.0356 23.1576 15.9485 23.1543Z" fill="#041E5F"/>
  <path d="M15.1318 23.5965C15.1318 23.5128 15.0648 23.4424 14.981 23.4391C14.981 23.4391 14.9777 23.4391 14.9743 23.4391C14.8872 23.4391 14.8169 23.5094 14.8169 23.5965C14.8169 23.6836 14.8872 23.754 14.9743 23.754C15.0581 23.754 15.1284 23.687 15.1318 23.6032C15.1318 23.6032 15.1318 23.5999 15.1318 23.5965Z" fill="#041E5F"/>
  <path d="M15.4695 20.6386C15.5566 20.6386 15.6236 20.5683 15.6269 20.4812C15.6236 20.3941 15.5499 20.3271 15.4628 20.3304C15.3824 20.3338 15.3154 20.3974 15.312 20.4812C15.312 20.5683 15.3824 20.6353 15.4695 20.6386Z" fill="#041E5F"/>
  <path d="M14.6018 17.7778C14.6856 17.7778 14.7559 17.7108 14.7559 17.6237C14.7559 17.5366 14.6889 17.4696 14.6018 17.4696C14.5148 17.4696 14.4478 17.5366 14.4478 17.6237C14.4478 17.7108 14.5148 17.7778 14.6018 17.7778Z" fill="#041E5F"/>
  <path d="M15.7116 17.751C15.6245 17.751 15.5575 17.8213 15.5542 17.9084C15.5542 17.9955 15.6245 18.0659 15.7116 18.0659C15.7987 18.0659 15.8657 17.9955 15.8691 17.9084C15.8691 17.8213 15.7987 17.7543 15.7116 17.751Z" fill="#041E5F"/>
  <path d="M16.6416 15.5199C16.6416 15.6036 16.7086 15.674 16.7923 15.6773C16.7923 15.6773 16.7957 15.6773 16.799 15.6773C16.8828 15.6773 16.9531 15.6103 16.9531 15.5232C16.9531 15.4361 16.8861 15.3691 16.799 15.3691C16.7153 15.3691 16.645 15.4361 16.6416 15.5199Z" fill="#041E5F"/>
  <path d="M15.969 15.0174C16.0527 15.0174 16.1231 14.9538 16.1264 14.8667C16.1264 14.8667 16.1264 14.8633 16.1264 14.86C16.1231 14.7729 16.0494 14.7059 15.9623 14.7092C15.8819 14.7126 15.8149 14.7762 15.8115 14.86C15.8115 14.9437 15.8752 15.0141 15.9623 15.0174C15.9623 15.0174 15.9656 15.0174 15.969 15.0174Z" fill="#041E5F"/>
  <path d="M14.4039 20.5113C14.4039 20.4276 14.3335 20.3606 14.2464 20.3606C14.1627 20.3606 14.0957 20.4276 14.0957 20.5113C14.0957 20.5951 14.1627 20.6621 14.2464 20.6621C14.3302 20.6621 14.4005 20.5984 14.4039 20.5113Z" fill="#041E5F"/>
  <path d="M22.7994 18.3204C22.8664 18.307 22.8865 18.3271 22.9166 18.3874L22.9568 18.374L22.9166 18.2802L23.188 18.163L23.1612 18.1094L22.7793 18.2802L22.7994 18.3204Z" fill="#041E5F"/>
  <path d="M22.7123 17.8314L22.6587 17.8381L22.7056 18.0492L22.9367 18.0291L22.93 17.9889C22.8999 17.9788 22.8764 17.952 22.8697 17.9219C22.8597 17.8716 22.8898 17.8247 22.9367 17.8147C22.9803 17.7979 23.0305 17.8214 23.0473 17.8649C23.0473 17.8683 23.0473 17.8716 23.0506 17.875C23.0674 17.9118 23.0506 17.9554 23.0138 17.9721C23.0104 17.9721 23.0071 17.9721 23.0004 17.9755L23.0138 18.0291C23.0774 18.009 23.1143 17.942 23.0975 17.8783C23.0975 17.8783 23.0975 17.8783 23.0975 17.875C23.0875 17.7979 23.0171 17.7443 22.9434 17.7544C22.9367 17.7544 22.93 17.7544 22.92 17.7577C22.8496 17.7711 22.8027 17.8381 22.8161 17.9118C22.8161 17.9152 22.8161 17.9185 22.8161 17.9219C22.8228 17.952 22.8396 17.9788 22.863 17.9956L22.7458 18.0023L22.7056 17.8314H22.7123Z" fill="#041E5F"/>
  <path d="M22.7321 17.493C22.8058 17.4997 22.8259 17.4394 22.8393 17.4126L22.8661 17.3255C22.8862 17.2585 22.8996 17.2384 22.9465 17.2451C23.0068 17.2518 23.0135 17.3188 23.0068 17.3624C23.0001 17.416 22.9733 17.4796 22.8996 17.4696L22.8929 17.5232C22.9331 17.5299 22.9767 17.5198 23.0102 17.4897C23.0403 17.4562 23.0571 17.4126 23.0571 17.3657C23.0638 17.292 23.0437 17.1949 22.9398 17.1882C22.8862 17.1781 22.8326 17.215 22.8226 17.2686L22.7824 17.3925C22.7757 17.4193 22.7489 17.4394 22.7221 17.4394C22.6618 17.4327 22.6551 17.3724 22.6618 17.3322C22.6584 17.282 22.6953 17.2418 22.7422 17.2384C22.7455 17.2384 22.7522 17.2384 22.7556 17.2384V17.1848C22.7087 17.1848 22.6182 17.1915 22.6048 17.3423C22.5914 17.4126 22.6383 17.483 22.712 17.4964C22.7187 17.4964 22.7221 17.4964 22.7288 17.4964L22.7321 17.493Z" fill="#041E5F"/>
  <path d="M23.1739 16.8398L23.127 16.8264L23.0466 17.071L22.9092 17.0241L22.9829 16.8063L22.936 16.7862L22.8623 17.0107L22.7384 16.9705L22.8188 16.7326L22.7652 16.7125L22.6714 17.0107L23.0801 17.1413L23.1772 16.8398H23.1739Z" fill="#041E5F"/>
  <path d="M23.2343 16.746L23.0768 16.6489L23.1438 16.535C23.184 16.478 23.1706 16.401 23.117 16.3608C23.1137 16.3608 23.1103 16.3541 23.107 16.3541C23.0802 16.3373 23.05 16.3306 23.0199 16.3407C22.9864 16.3507 22.9562 16.3742 22.9361 16.4043L22.8457 16.5651L23.2041 16.7895L23.2376 16.746H23.2343ZM22.9161 16.5417L22.9797 16.4445C22.9897 16.4211 23.0165 16.4043 23.0433 16.4043C23.0534 16.4043 23.0634 16.411 23.0735 16.4177C23.1137 16.4445 23.117 16.478 23.0869 16.5216L23.0333 16.6087L22.9161 16.5417Z" fill="#041E5F"/>
  <path d="M23.2081 16.1463L23.4795 16.4043L23.513 16.3641L23.2483 16.1062L23.3488 15.999L23.3086 15.9655L23.0708 16.2167L23.1043 16.2502L23.2048 16.1497L23.2081 16.1463Z" fill="#041E5F"/>
  <path d="M23.7039 16.2067L23.446 15.865L23.4058 15.8985L23.657 16.2402L23.7039 16.2067Z" fill="#041E5F"/>
  <path d="M24.0524 16.0023L24.0323 15.9621L23.8012 16.0794L23.7409 15.9554L23.9452 15.8482L23.9251 15.8013L23.7141 15.9085L23.6538 15.7946L23.8782 15.6774L23.8581 15.6305L23.5801 15.7745L23.7777 16.1564L24.0558 16.0057L24.0524 16.0023Z" fill="#041E5F"/>
  <path d="M24.1528 15.9755L24.0992 15.7243C24.0858 15.6908 24.0757 15.6573 24.0724 15.6238L24.27 15.9487L24.3236 15.9353L24.3638 15.5635C24.3739 15.597 24.3806 15.6305 24.3839 15.664L24.4375 15.9085L24.4911 15.9018L24.404 15.4797L24.3236 15.4998L24.2834 15.8817L24.0858 15.5568L24.0054 15.5702L24.0992 15.9856L24.1528 15.9789V15.9755Z" fill="#041E5F"/>
  <path d="M24.7424 15.9052C24.8362 15.9119 24.8965 15.8616 24.8965 15.7913C24.9032 15.741 24.8697 15.6975 24.8228 15.6841C24.8597 15.6707 24.8831 15.6338 24.8831 15.597C24.8898 15.5367 24.853 15.4864 24.7692 15.4797H24.5816L24.5615 15.9018L24.7424 15.9085V15.9052ZM24.6453 15.5333L24.7357 15.5434C24.796 15.5434 24.8195 15.5601 24.8195 15.6003C24.8128 15.6472 24.786 15.6606 24.7324 15.6539H24.6352L24.6453 15.5333ZM24.7357 15.7209C24.7759 15.7209 24.8228 15.7343 24.8228 15.7879C24.8228 15.8281 24.7893 15.8583 24.7357 15.8583L24.6285 15.8482V15.7109L24.7357 15.7209Z" fill="#041E5F"/>
  <path d="M25.0439 15.7678L25.1813 15.808C25.2483 15.8281 25.2416 15.8683 25.2349 15.8984C25.2215 15.9319 25.2148 15.9654 25.2148 16.0023L25.2851 16.0224C25.2717 16.0056 25.2717 15.9956 25.2818 15.9688L25.2918 15.8951C25.3119 15.8415 25.2918 15.8214 25.2717 15.808C25.2985 15.7946 25.3421 15.7845 25.3555 15.7242C25.3823 15.6371 25.322 15.5969 25.2516 15.5768L25.0607 15.5132L24.9468 15.9286L25.0004 15.942L25.0439 15.7644V15.7678ZM25.1109 15.5869L25.2349 15.6304C25.2617 15.6371 25.3052 15.6472 25.2851 15.7075C25.2717 15.7611 25.2315 15.7577 25.1947 15.751L25.0774 15.7175L25.1143 15.5835L25.1109 15.5869Z" fill="#041E5F"/>
  <path d="M25.5965 16.2067L25.6166 16.1665L25.3988 16.0358L25.4658 15.9119L25.6702 16.0291L25.697 15.9889L25.4926 15.865L25.5596 15.7578L25.7774 15.8884L25.8042 15.8415L25.5328 15.6841L25.3218 16.0526L25.5931 16.21L25.5965 16.2067Z" fill="#041E5F"/>
  <path d="M25.8616 16.4746C25.9353 16.5517 26.0592 16.555 26.1363 16.478C26.1363 16.478 26.143 16.4713 26.1463 16.4679C26.2334 16.4143 26.2602 16.3004 26.2066 16.2133C26.2033 16.2066 26.1966 16.1999 26.1932 16.1932L26.0793 16.0659L25.7544 16.3339L25.8616 16.4713V16.4746ZM26.1363 16.2401C26.1832 16.2937 26.1765 16.354 26.1028 16.421C26.0291 16.4813 25.9587 16.4813 25.9118 16.4244L25.8482 16.3507L26.0726 16.1597L26.1363 16.2368V16.2401Z" fill="#041E5F"/>
  <path d="M26.1459 16.9404L26.1928 16.9203L26.0756 16.6891L26.2062 16.6288L26.3067 16.8399L26.3536 16.8131L26.2464 16.6087L26.3704 16.5484L26.4776 16.7729L26.5245 16.7528L26.3804 16.4747L25.9985 16.6657L26.1426 16.9437L26.1459 16.9404Z" fill="#041E5F"/>
  <path d="M26.5078 17.215L26.2163 17.2552L26.223 17.3088L26.6384 17.2485L26.6317 17.2083C26.5647 17.2016 26.558 17.1815 26.5379 17.1145L26.4977 17.1212L26.5111 17.215H26.5078Z" fill="#041E5F"/>
  <path d="M26.5414 17.463C26.5045 17.463 26.4677 17.4831 26.4576 17.5199C26.4442 17.473 26.404 17.4395 26.3538 17.4362C26.3169 17.4362 26.2801 17.4496 26.2566 17.4764C26.2332 17.5065 26.2231 17.5434 26.2231 17.5802C26.2131 17.6472 26.2566 17.7108 26.3236 17.7209C26.3303 17.7209 26.337 17.7209 26.3437 17.7209C26.3873 17.7276 26.4342 17.7041 26.4509 17.664C26.4643 17.6974 26.4978 17.7209 26.5347 17.7175C26.5883 17.7242 26.6486 17.6907 26.6486 17.5936C26.6586 17.5333 26.6184 17.473 26.5581 17.463C26.5514 17.463 26.5481 17.463 26.5414 17.463ZM26.3471 17.664C26.2868 17.664 26.2767 17.6137 26.2767 17.5802C26.2767 17.5434 26.3035 17.5099 26.3404 17.5065C26.3437 17.5065 26.3504 17.5065 26.3538 17.5065C26.3906 17.5065 26.4208 17.54 26.4208 17.5769C26.4208 17.5802 26.4208 17.5869 26.4208 17.5903C26.4241 17.6271 26.4007 17.6606 26.3638 17.664C26.3571 17.664 26.3538 17.664 26.3471 17.664ZM26.5414 17.664C26.5045 17.6573 26.4777 17.6238 26.4777 17.5869C26.4777 17.5534 26.5079 17.5266 26.5414 17.53C26.5682 17.53 26.6017 17.5434 26.595 17.597C26.595 17.6506 26.5615 17.6673 26.5414 17.6673V17.664Z" fill="#041E5F"/>
  <path d="M26.4807 17.8113L26.474 17.8649C26.5008 17.8716 26.5678 17.8917 26.5477 17.9654C26.5343 18.0257 26.4874 18.0391 26.4606 18.0257C26.407 18.019 26.3936 17.9788 26.3802 17.9319L26.3668 17.8716C26.3467 17.8046 26.2931 17.751 26.2228 17.7343L26.1558 18.0123L26.2027 18.0257L26.2563 17.8013C26.2764 17.808 26.3032 17.8281 26.3166 17.8883L26.33 17.9352C26.3501 18.0089 26.3702 18.0659 26.4372 18.0793C26.5042 18.096 26.5745 18.0558 26.5912 17.9888C26.5912 17.9888 26.5912 17.9888 26.5912 17.9855C26.6147 17.9118 26.5712 17.8348 26.4975 17.8147C26.4908 17.8147 26.4807 17.8113 26.474 17.8113H26.4807Z" fill="#041E5F"/>
  <path d="M26.3971 18.2065L26.3569 18.2936L26.0922 18.163L26.0654 18.2166L26.4473 18.3941L26.4607 18.3539C26.4071 18.3137 26.4138 18.2869 26.4406 18.2166L26.4004 18.2032L26.3971 18.2065Z" fill="#041E5F"/>
  <path d="M24.1191 19.7073L24.166 19.7173L24.4776 18.431C24.4776 18.431 24.4474 18.431 24.4307 18.4276L24.1225 19.7006V19.7106L24.1191 19.7073Z" fill="#041E5F"/>
  <path d="M24.0752 19.1546L24.1187 19.1713L24.38 18.4076C24.38 18.4076 24.3499 18.3975 24.3365 18.3942L24.0785 19.1445V19.1546H24.0752Z" fill="#041E5F"/>
  <path d="M23.6303 19.627L23.6705 19.6471L24.2735 18.3775L24.2299 18.3607L23.6337 19.6169L23.627 19.627H23.6303Z" fill="#041E5F"/>
  <path d="M23.5359 19.4125L24.1925 18.3339C24.1925 18.3339 24.1657 18.3205 24.1523 18.3104L23.499 19.3891L23.5392 19.4125H23.5359Z" fill="#041E5F"/>
  <path d="M23.1302 19.4326L23.1235 19.4427L23.1604 19.4695L24.0917 18.2803C24.0917 18.2803 24.0682 18.2602 24.0548 18.2501L23.1302 19.4326Z" fill="#041E5F"/>
  <path d="M23.1916 19.1378L24.0157 18.2233C24.0157 18.2233 23.9923 18.2032 23.9789 18.1898L23.1548 19.1077L23.1883 19.1378H23.1916Z" fill="#041E5F"/>
  <path d="M23.9448 18.1562C23.9448 18.1562 23.9247 18.1328 23.9147 18.1194L22.6953 19.1947L22.7255 19.2282L23.9415 18.1562H23.9448Z" fill="#041E5F"/>
  <path d="M23.8782 18.0725C23.8782 18.0725 23.8581 18.049 23.8481 18.0356L23.2049 18.4912L23.1948 18.4979L23.2216 18.5348L23.8782 18.0725Z" fill="#041E5F"/>
  <path d="M23.8209 17.9921C23.8209 17.9921 23.8075 17.9653 23.7975 17.9519L23.3452 18.2031L23.3653 18.2433L23.8176 17.9921H23.8209Z" fill="#041E5F"/>
  <path d="M23.2808 18.0758L23.3009 18.1194L23.7765 17.9117C23.7765 17.9117 23.7598 17.8849 23.7531 17.8715L23.2808 18.0792V18.0758Z" fill="#041E5F"/>
  <path d="M23.228 17.9319L23.2414 17.9754L23.7237 17.8213H23.7338L23.7204 17.7744L23.2246 17.9352L23.228 17.9319Z" fill="#041E5F"/>
  <path d="M23.7063 17.7242C23.7063 17.7242 23.6963 17.6941 23.6963 17.6807L23.1904 17.7912L23.2005 17.8381L23.7097 17.7276L23.7063 17.7242Z" fill="#041E5F"/>
  <path d="M23.1646 17.637L23.1713 17.6839L23.6938 17.627C23.6938 17.627 23.6905 17.5968 23.6905 17.5801L23.1679 17.637H23.1646Z" fill="#041E5F"/>
  <path d="M23.1548 17.5299L23.6807 17.5232C23.6807 17.5232 23.6807 17.5065 23.6807 17.4998C23.6807 17.4931 23.6807 17.483 23.6807 17.4763L23.1548 17.483V17.5299Z" fill="#041E5F"/>
  <path d="M23.1646 17.3859L23.6771 17.4294H23.6871C23.6871 17.4294 23.6871 17.3993 23.6905 17.3825L23.1813 17.339H23.1713V17.3859H23.1646Z" fill="#041E5F"/>
  <path d="M23.1816 17.2217L23.6975 17.3323C23.6975 17.3323 23.7042 17.3021 23.7076 17.2887L23.1917 17.1748L23.1816 17.2217Z" fill="#041E5F"/>
  <path d="M23.2216 17.0844L23.7107 17.2452H23.7174C23.7174 17.2452 23.7274 17.215 23.7308 17.2016L23.235 17.0375L23.2183 17.081L23.2216 17.0844Z" fill="#041E5F"/>
  <path d="M23.2857 16.9001L23.2656 16.9437L23.7514 17.1514C23.7514 17.1514 23.7648 17.1246 23.7715 17.1078L23.2958 16.9068H23.2857V16.9001Z" fill="#041E5F"/>
  <path d="M23.3281 16.803L23.787 17.0542H23.7903C23.7903 17.0542 23.8037 17.0274 23.8138 17.0174L23.3482 16.7661L23.3247 16.8063L23.3281 16.803Z" fill="#041E5F"/>
  <path d="M23.4185 16.6757L23.8372 16.9738C23.8372 16.9738 23.8573 16.9504 23.8673 16.937L23.4453 16.6355L23.4185 16.6757Z" fill="#041E5F"/>
  <path d="M23.5492 16.5182L23.519 16.555L23.9043 16.8867H23.9076C23.9076 16.8867 23.9277 16.8666 23.9378 16.8532L23.5592 16.5249L23.5492 16.5182Z" fill="#041E5F"/>
  <path d="M23.6605 16.4143L23.627 16.4445L23.9787 16.8163C23.9787 16.8163 24.0021 16.7962 24.0155 16.7861L23.6672 16.421L23.6605 16.4143Z" fill="#041E5F"/>
  <path d="M23.7771 16.3206L23.7402 16.3507L24.0585 16.7493C24.0585 16.7493 24.0819 16.7292 24.0953 16.7192L23.7838 16.3273L23.7771 16.3206Z" fill="#041E5F"/>
  <path d="M23.925 16.2334L23.8848 16.2568L24.136 16.6923C24.136 16.6923 24.1628 16.6823 24.1762 16.6722L23.9283 16.2434L23.9216 16.2334H23.925Z" fill="#041E5F"/>
  <path d="M24.0553 16.1765L24.0117 16.1966L24.2228 16.6522C24.2228 16.6522 24.2496 16.6388 24.2663 16.6321L24.062 16.1899V16.1799L24.0553 16.1765Z" fill="#041E5F"/>
  <path d="M24.2027 16.1229L24.1592 16.1363L24.3233 16.6087C24.3233 16.6087 24.3535 16.5986 24.3669 16.5953L24.2061 16.133V16.1229H24.2027Z" fill="#041E5F"/>
  <path d="M24.3574 16.076L24.3105 16.0861L24.4144 16.5819C24.4144 16.5819 24.4445 16.5752 24.4613 16.5752L24.3608 16.0861V16.076H24.3574Z" fill="#041E5F"/>
  <path d="M24.5205 16.5685C24.5205 16.5685 24.5506 16.5652 24.5674 16.5652L24.5171 16.0593H24.4702L24.5205 16.5719V16.5685Z" fill="#041E5F"/>
  <path d="M24.6548 16.0526H24.6079L24.6146 16.5584H24.6213C24.6213 16.5584 24.6481 16.5618 24.6615 16.5618L24.6548 16.0627V16.0526Z" fill="#041E5F"/>
  <path d="M24.7051 16.5618V16.5685C24.7051 16.5685 24.7352 16.5685 24.752 16.5719L24.8022 16.0593H24.7553L24.7051 16.5585V16.5618Z" fill="#041E5F"/>
  <path d="M24.842 16.5886H24.8521L24.9526 16.0861L24.9057 16.076L24.8052 16.5785C24.8052 16.5785 24.8286 16.5852 24.842 16.5886Z" fill="#041E5F"/>
  <path d="M25.1008 16.1363L25.0573 16.1229L24.8965 16.5953V16.6053C24.8965 16.6053 24.9233 16.6154 24.9367 16.6187L25.0941 16.1497V16.1397L25.1008 16.1363Z" fill="#041E5F"/>
  <path d="M25.2411 16.1932L25.1975 16.1731L24.9932 16.6287V16.6354C24.9932 16.6354 25.0166 16.6521 25.03 16.6588L25.2344 16.2032V16.1932H25.2411Z" fill="#041E5F"/>
  <path d="M25.325 16.2335L25.0838 16.6657L25.0771 16.6757L25.1173 16.6992L25.3652 16.257L25.325 16.2335Z" fill="#041E5F"/>
  <path d="M25.1538 16.7191C25.1538 16.7191 25.1773 16.7426 25.1907 16.7526L25.4988 16.354L25.5055 16.3439L25.4687 16.3171L25.1572 16.7191H25.1538Z" fill="#041E5F"/>
  <path d="M25.2344 16.7861L25.2679 16.8163L25.6062 16.4478L25.6129 16.4377L25.5794 16.4076L25.2344 16.7828V16.7861Z" fill="#041E5F"/>
  <path d="M25.6831 16.5165L25.3037 16.8562L25.335 16.8911L25.7143 16.5515L25.6831 16.5165Z" fill="#041E5F"/>
  <path d="M25.3778 16.9336L25.3711 16.9403C25.3711 16.9403 25.3912 16.9638 25.4012 16.9772L25.8032 16.679L25.8133 16.6723L25.7865 16.6355L25.3811 16.9336H25.3778Z" fill="#041E5F"/>
  <path d="M25.4329 17.0073H25.4229C25.4296 17.024 25.4363 17.0408 25.4463 17.0542L25.8885 16.8063L25.8985 16.7996L25.8751 16.7594L25.4329 17.0073Z" fill="#041E5F"/>
  <path d="M25.4759 17.0978H25.4692C25.4692 17.0978 25.4826 17.1279 25.4893 17.1413L25.9483 16.9403H25.9583L25.9382 16.8934L25.4726 17.0978H25.4759Z" fill="#041E5F"/>
  <path d="M25.5058 17.1948C25.5058 17.1948 25.5158 17.2249 25.5192 17.2383L25.9882 17.0775H25.9982L25.9815 17.0306L25.5024 17.1948H25.5058Z" fill="#041E5F"/>
  <path d="M25.5327 17.2821C25.5327 17.2821 25.5394 17.3122 25.5428 17.3256L26.0419 17.2151L26.0319 17.1715L25.5327 17.2821Z" fill="#041E5F"/>
  <path d="M25.5488 17.3791C25.5488 17.3791 25.5522 17.4093 25.5522 17.426L26.0413 17.3825H26.0547V17.3356L25.5488 17.3791Z" fill="#041E5F"/>
  <path d="M25.563 17.4998C25.563 17.4998 25.563 17.5098 25.563 17.5165L26.0688 17.5232V17.4763L25.563 17.4696C25.563 17.4696 25.5663 17.4897 25.5663 17.4998H25.563Z" fill="#041E5F"/>
  <path d="M25.5457 17.6705C25.5457 17.6705 25.539 17.7007 25.5356 17.7174L26.0214 17.828L26.0314 17.7811L25.5457 17.6705Z" fill="#041E5F"/>
  <path d="M26.0513 17.674V17.6271L25.5522 17.5735V17.5835C25.5522 17.5835 25.5522 17.607 25.5488 17.6204L26.0379 17.674H26.048H26.0513Z" fill="#041E5F"/>
  <path d="M25.982 17.9688L25.9954 17.9252L25.5298 17.7711H25.5197C25.5164 17.7845 25.513 17.7979 25.5063 17.8113L25.972 17.9654H25.982V17.9688Z" fill="#041E5F"/>
  <path d="M25.4893 17.8616C25.4893 17.8616 25.4759 17.8884 25.4692 17.9018L25.9148 18.1028H25.9248L25.9449 18.0659L25.4893 17.8616Z" fill="#041E5F"/>
  <path d="M25.4258 17.9821L25.8479 18.2266L25.8579 18.2333L25.8814 18.1931L25.4492 17.9419C25.4492 17.9419 25.4358 17.9687 25.4258 17.9821Z" fill="#041E5F"/>
  <path d="M25.3711 18.0625L26.0009 18.5214L26.0277 18.4846L25.4012 18.0256C25.4012 18.0256 25.3811 18.0491 25.3711 18.0625Z" fill="#041E5F"/>
  <path d="M25.3324 18.1095C25.3324 18.1095 25.3123 18.1329 25.3022 18.1463L26.468 19.2083L26.4747 19.215L26.5049 19.1815L25.3357 18.1162H25.3324V18.1095Z" fill="#041E5F"/>
  <path d="M25.2344 18.2099L26.0283 19.1244L26.0652 19.0943L25.2746 18.1831C25.2746 18.1831 25.2578 18.1965 25.2478 18.2032L25.2377 18.2133L25.2344 18.2099Z" fill="#041E5F"/>
  <path d="M25.1602 18.2703L26.0579 19.4528L26.0948 19.426L25.197 18.2401C25.197 18.2401 25.1736 18.2602 25.1602 18.2703Z" fill="#041E5F"/>
  <path d="M25.0708 18.3238L25.6939 19.3891L25.7006 19.3991L25.7408 19.3757L25.111 18.3037C25.111 18.3037 25.0842 18.3171 25.0708 18.3272V18.3238Z" fill="#041E5F"/>
  <path d="M24.9868 18.3674L25.5596 19.6169V19.6269L25.6065 19.6068L25.027 18.3406C25.027 18.3406 25.0002 18.3573 24.9868 18.364V18.3674Z" fill="#041E5F"/>
  <path d="M24.8891 18.4008L25.1336 19.1445V19.1545L25.1805 19.1411L24.9293 18.384C24.9293 18.384 24.8991 18.3941 24.8857 18.3974L24.8891 18.4008Z" fill="#041E5F"/>
  <path d="M24.792 18.4244L25.0901 19.7007L25.137 19.6906L24.8389 18.4143C24.8389 18.4143 24.8087 18.421 24.792 18.4244Z" fill="#041E5F"/>
  <path d="M20.3068 26.903C20.3068 26.903 20.1628 27.0705 20.2431 27.2111C20.3269 27.3116 20.4776 27.3217 20.5781 27.2379C20.5882 27.2312 20.5949 27.2212 20.6049 27.2111C20.6049 27.2111 20.2565 27.2178 20.3068 26.903Z" fill="#041E5F"/>
  <path d="M28.6714 27.2111C28.7551 27.3116 28.9059 27.3217 29.0064 27.2379C29.0164 27.2312 29.0231 27.2212 29.0332 27.2111C29.1136 27.0705 28.9695 26.903 28.9695 26.903C29.0231 27.2178 28.6714 27.2111 28.6714 27.2111Z" fill="#041E5F"/>
  <path d="M21.6196 26.7254L21.5426 26.6819L21.355 26.9968L21.432 27.0403C21.5225 27.0839 21.633 27.0437 21.6766 26.9532C21.7134 26.8728 21.69 26.779 21.6196 26.7254Z" fill="#041E5F"/>
  <path d="M22.2327 27.0436C22.1423 27 22.0351 27.0436 21.9949 27.1307C21.9949 27.1307 21.9949 27.1307 21.9949 27.134C21.948 27.2211 21.9815 27.3317 22.0686 27.3786C22.1557 27.4255 22.2662 27.392 22.3131 27.3049C22.3131 27.2982 22.3198 27.2948 22.3198 27.2881C22.3667 27.201 22.3299 27.0905 22.2428 27.0469C22.2428 27.0469 22.2428 27.0469 22.2394 27.0469L22.2327 27.0436Z" fill="#041E5F"/>
  <path d="M24.3536 27.5895C24.2531 27.5862 24.1693 27.6632 24.166 27.7604C24.166 27.7604 24.166 27.7604 24.166 27.7637C24.1559 27.8609 24.2263 27.9513 24.3234 27.9614C24.4206 27.9714 24.511 27.9011 24.5211 27.8039C24.5211 27.7972 24.5211 27.7872 24.5211 27.7805C24.5278 27.6833 24.4574 27.5962 24.3569 27.5862C24.3569 27.5862 24.3536 27.5862 24.3502 27.5862L24.3536 27.5895Z" fill="#041E5F"/>
  <path d="M26.0789 27.6165L25.9751 27.6433L26.0186 27.8041L26.1225 27.7773C26.166 27.7706 26.1928 27.7304 26.1861 27.6868C26.1861 27.6835 26.1861 27.6801 26.1861 27.6768C26.1761 27.6332 26.1359 27.6064 26.0923 27.6165C26.0923 27.6165 26.0856 27.6165 26.0823 27.6165H26.0789Z" fill="#041E5F"/>
  <path d="M26.1086 27.4758C26.1019 27.4389 26.065 27.4155 26.0315 27.4222C26.0282 27.4222 26.0248 27.4222 26.0215 27.4222L25.9243 27.449L25.9612 27.5897L26.0583 27.5629C26.0952 27.5562 26.1186 27.5193 26.1119 27.4825C26.1119 27.4825 26.1119 27.4791 26.1119 27.4758H26.1086Z" fill="#041E5F"/>
  <path d="M26.7764 27.1809C26.753 27.1809 26.7295 27.1843 26.7094 27.1943L26.6357 27.2245L26.6994 27.3853L26.7898 27.3484C26.8334 27.335 26.8535 27.2881 26.8401 27.2479C26.8401 27.2446 26.8401 27.2379 26.8334 27.2345C26.8233 27.2044 26.7999 27.1843 26.7697 27.1809H26.7764Z" fill="#041E5F"/>
  <path d="M27.406 26.9531L27.4328 27.1139L27.5634 27.0435L27.4428 26.933C27.4227 26.9162 27.3926 26.8794 27.3926 26.8794C27.3926 26.8794 27.4026 26.9229 27.406 26.9497V26.9531Z" fill="#041E5F"/>
  <path d="M28.7852 26.99L28.6311 26.9331C28.7383 26.8895 28.8556 26.8795 28.9661 26.9029L28.7785 26.7354C28.3966 26.3904 27.8406 26.32 27.385 26.5579C25.7 27.603 23.5694 27.603 21.8878 26.5579C21.4322 26.32 20.8761 26.3904 20.4942 26.7354L20.3066 26.9029C20.4205 26.8795 20.5344 26.8895 20.6416 26.9331L20.4875 26.99C20.6818 27.067 20.6014 27.2111 20.6014 27.2111L20.8393 27.0001C21.1977 27.1508 21.5495 27.325 21.8844 27.5226C22.7219 27.995 23.6699 28.2362 24.6347 28.2194C25.5961 28.2362 26.5441 27.995 27.385 27.5226C27.72 27.325 28.0717 27.1508 28.4301 27.0001L28.668 27.2111C28.668 27.2111 28.5876 27.067 28.7852 26.99ZM21.4054 27.0938L21.2681 27.0135L21.516 26.5981L21.6533 26.6785C21.7672 26.7455 21.8074 26.8962 21.737 27.0101C21.67 27.124 21.5193 27.1642 21.4054 27.0938ZM21.7504 27.2881L21.6901 27.258L21.9179 26.8326L21.9782 26.8661L21.7504 27.2915V27.2881ZM22.0419 27.4422C21.9179 27.3853 21.8643 27.2345 21.9213 27.1106C21.9213 27.1106 21.9213 27.1073 21.9213 27.1039C21.9816 26.98 22.1323 26.9297 22.2563 26.9934C22.3769 27.0537 22.4271 27.1943 22.3735 27.3183C22.3199 27.4456 22.1725 27.5025 22.0452 27.4456C22.0452 27.4456 22.0419 27.4456 22.0385 27.4456L22.0419 27.4422ZM22.7152 27.2982C22.6985 27.2647 22.6683 27.2345 22.6315 27.2211C22.5946 27.201 22.5444 27.2144 22.5243 27.2546C22.4874 27.3451 22.7152 27.4087 22.6583 27.5528C22.6281 27.6231 22.5477 27.66 22.4774 27.6298C22.474 27.6298 22.4707 27.6298 22.4673 27.6231C22.4104 27.603 22.3668 27.5595 22.34 27.5059L22.3936 27.4724C22.4137 27.5126 22.4472 27.5461 22.4908 27.5628C22.5276 27.5829 22.5712 27.5695 22.5913 27.5327C22.5913 27.5327 22.5913 27.5293 22.5913 27.526C22.6281 27.4288 22.4037 27.3652 22.4573 27.2245C22.4908 27.1508 22.5745 27.1206 22.6482 27.1541C22.6482 27.1541 22.6482 27.1541 22.6516 27.1541C22.6985 27.1709 22.7387 27.2044 22.7621 27.2479L22.7119 27.2915L22.7152 27.2982ZM23.1172 27.8409C23.0201 27.8241 22.9564 27.7337 22.9765 27.6365C22.9765 27.6298 22.9765 27.6231 22.9799 27.6164L23.0603 27.3149L23.1273 27.3317L23.0469 27.6332C23.0301 27.7002 23.0703 27.7672 23.134 27.7839C23.1976 27.8007 23.2679 27.7605 23.2847 27.6968L23.3651 27.3953L23.4321 27.4121L23.3517 27.7136C23.3282 27.8074 23.2344 27.8677 23.1407 27.8442C23.134 27.8442 23.1273 27.8409 23.1206 27.8375L23.1172 27.8409ZM23.8073 27.9782L23.7403 27.9648L23.5828 27.6164C23.5694 27.5863 23.556 27.5394 23.556 27.5394C23.556 27.5394 23.5527 27.5829 23.5493 27.6097L23.4924 27.9213L23.4254 27.9079L23.5125 27.4288L23.5795 27.4422L23.7369 27.7906C23.7503 27.8208 23.7637 27.8677 23.7637 27.8677C23.7637 27.8677 23.7637 27.8241 23.7704 27.7973L23.8274 27.4858L23.8944 27.4992L23.8073 27.9782ZM23.9915 27.9983L23.9245 27.9916L23.9815 27.5092L24.0485 27.5159L23.9915 27.9983ZM24.3299 28.0352C24.1925 28.0285 24.0887 27.9112 24.0954 27.7739C24.0954 27.7739 24.0954 27.7705 24.0954 27.7672C24.1054 27.6298 24.226 27.5293 24.3634 27.5394C24.494 27.5494 24.5945 27.66 24.5912 27.7906C24.5878 27.928 24.4739 28.0352 24.3366 28.0318C24.3366 28.0318 24.3332 28.0318 24.3299 28.0318V28.0352ZM24.9931 28.0251L24.7654 27.7203C24.7453 27.6935 24.7218 27.6499 24.7218 27.6499C24.7218 27.6499 24.7285 27.6935 24.7285 27.7203L24.7419 28.0352H24.6749L24.6548 27.5528H24.7218L24.9496 27.8576C24.9697 27.8844 24.9931 27.9246 24.9931 27.9246C24.9931 27.9246 24.9864 27.8811 24.9864 27.8543L24.973 27.5394H25.04L25.0601 28.0218H24.9931V28.0251ZM25.4454 27.9782L25.3683 27.4992L25.4353 27.4891L25.5023 27.9079L25.7167 27.8744L25.7268 27.9313L25.4454 27.9749V27.9782ZM25.7837 27.9179L25.6866 27.4422L25.7536 27.4288L25.8507 27.9045L25.7837 27.9179ZM26.1321 27.8342L25.9646 27.8777L25.8407 27.4087L26.0048 27.3652C26.0685 27.3384 26.1422 27.3685 26.169 27.4355C26.169 27.4389 26.1723 27.4456 26.1723 27.4489C26.1857 27.4891 26.1723 27.536 26.1422 27.5662C26.1958 27.5662 26.2393 27.6064 26.2494 27.6566C26.2695 27.7303 26.2293 27.8074 26.1556 27.8275C26.1489 27.8275 26.1422 27.8308 26.1355 27.8308L26.1321 27.8342ZM26.3767 27.7672L26.2226 27.3049L26.4905 27.2178L26.5107 27.2747L26.3063 27.3417L26.3532 27.4858L26.5173 27.4322L26.5374 27.4891L26.3733 27.5427L26.4236 27.6901L26.6379 27.6198L26.658 27.6767L26.38 27.7705L26.3767 27.7672ZM26.9863 27.5427L26.8188 27.402L26.7217 27.4422L26.7954 27.6198L26.7317 27.6466L26.5508 27.1977L26.6882 27.1441C26.715 27.1307 26.7451 27.124 26.7753 27.1206C26.8557 27.1273 26.916 27.1943 26.9093 27.2747C26.9093 27.3082 26.8925 27.3417 26.8691 27.3652C26.8691 27.3652 26.8825 27.3752 26.8892 27.3819L27.0533 27.5193L26.983 27.5494L26.9863 27.5427ZM27.2242 27.4355L27.0433 27.0503L26.8925 27.1206L26.8657 27.0671L27.2275 26.8962L27.2543 26.9498L27.1036 27.0202L27.2845 27.4054L27.2242 27.4355ZM27.7099 27.1843L27.5994 27.0838L27.4386 27.1709L27.462 27.3149L27.4017 27.3484L27.3247 26.8393L27.385 26.8058L27.7702 27.1474L27.7099 27.1809V27.1843ZM27.9578 27.0369L27.8205 27.1206L27.5625 26.7086L27.6999 26.6249C27.8138 26.5545 27.9645 26.588 28.0349 26.7019C28.1052 26.8158 28.0717 26.9666 27.9578 27.0369Z" fill="#041E5F"/>
  <path d="M27.7299 26.6785L27.6562 26.7254L27.8505 27.0369L27.9242 26.99C28.008 26.9297 28.0247 26.8158 27.9644 26.7321C27.9108 26.6584 27.8103 26.6349 27.7299 26.6785Z" fill="#041E5F"/>
  <path d="M56.5258 2.43872H55.2026V56.017H56.5258V2.43872Z" fill="#041E5F"/>
  <path d="M74.1227 24.8729L70.6321 17.5735H70.6053L70.2369 23.7373C70.1967 24.4341 70.7159 24.5848 71.3323 24.6149V24.8762H68.4849V24.6149C69.4831 24.6149 69.6071 24.3972 69.6774 23.151L70.0057 17.8247C70.0593 16.9202 70.0325 16.6757 69.185 16.6187V16.3708H71.2519L74.5515 23.2716L77.8378 16.3708H79.8511V16.6187C79.1811 16.6723 78.9198 16.6857 78.9466 17.1514L79.3854 23.3554C79.4692 24.6149 79.5764 24.6149 80.578 24.6149V24.8762H77.0572V24.6149C77.7004 24.6149 78.3302 24.4374 78.2766 23.7105L77.878 17.5768H77.8512L74.441 24.8762H74.1261L74.1227 24.8729Z" fill="#041E5F"/>
  <path d="M84.531 24.8729H81.2046V24.6116C82.0521 24.5714 82.233 24.3503 82.233 23.4325V17.6003C82.233 16.86 81.9717 16.6556 81.2046 16.6154V16.3541H84.531V16.6154C83.6668 16.6154 83.3653 16.8064 83.3653 17.7242V23.5296C83.3653 24.3369 83.583 24.6116 84.531 24.6116V24.8729Z" fill="#041E5F"/>
  <path d="M93.716 24.2297C92.3593 24.9265 90.6207 25.094 90.0445 25.094C87.0463 25.094 85.6494 22.7792 85.6494 20.7793C85.6494 18.7794 87.0865 16.1498 90.4297 16.1498C91.8936 16.1498 92.8684 16.6154 93.1532 16.6154C93.2771 16.6154 93.3877 16.5886 93.4681 16.5183H93.659V18.7359H93.3843C93.0158 17.0241 91.8501 16.4915 90.5771 16.4915C88.1685 16.4915 86.9358 18.4914 86.9358 20.6956C86.9358 23.5028 88.9089 24.749 90.4833 24.749C91.1131 24.749 91.8132 24.6116 92.577 24.2297V22.5045C92.577 21.724 92.3023 21.4627 91.4816 21.4627H90.9758V21.2148H94.674V21.4627C93.9907 21.5029 93.716 21.7374 93.716 22.327V24.2297Z" fill="#041E5F"/>
  <path d="M97.4548 23.5867C97.4548 24.4074 97.7831 24.6151 98.5502 24.6151H98.8651V24.8764H94.9893V24.6151H95.2238C96.0311 24.6151 96.3192 24.3973 96.3192 23.4795V17.7143C96.3192 16.8668 96.0847 16.6189 95.2907 16.6189H94.9893V16.3576C95.3175 16.3576 96.1517 16.304 96.7145 16.2738C97.2772 16.247 97.5486 16.2336 98.4397 16.2336C100.972 16.2336 102.111 17.2755 102.111 18.6724C102.111 19.7008 101.414 20.5617 100.289 20.89C100.795 21.2886 101.207 21.6705 101.85 22.3137L102.932 23.3957C103.739 24.203 104.577 24.7089 105.629 24.7792V25.0271C103.233 25.1377 102.617 24.6151 101.398 23.3991L100.493 22.4946C99.8902 21.8916 99.4111 21.4963 99.0828 21.2752C98.7411 21.2886 98.5201 21.302 98.1516 21.302C97.8501 21.302 97.6725 21.2886 97.4548 21.2752V23.59V23.5867ZM97.4548 21.0106C97.7831 21.0508 97.9874 21.0374 98.3023 21.0374C99.8232 21.0374 100.821 20.3942 100.821 18.7494C100.821 17.4765 100.245 16.4882 98.1382 16.4882C97.8769 16.4882 97.6993 16.4882 97.4548 16.515V21.0072V21.0106Z" fill="#041E5F"/>
  <path d="M108.392 21.0942L107.598 23.2449C107.501 23.5062 107.324 23.9148 107.324 24.1091C107.324 24.4776 107.679 24.615 108.432 24.615H108.65V24.8763H105.488V24.615C106.379 24.6016 106.53 24.4508 106.968 23.2583L109.461 16.4513L109.337 16.1498H110.529L113.39 23.7507C113.665 24.4776 113.953 24.615 114.636 24.615V24.8763H110.871V24.615H111.226C112.007 24.615 112.295 24.5312 112.295 24.1493C112.295 23.9316 112.198 23.7239 112.144 23.5866L111.226 21.0942H108.392ZM109.789 17.3021L108.627 20.4912H110.995L109.789 17.3021Z" fill="#041E5F"/>
  <path d="M122.716 18.6019C122.264 17.3289 121.088 16.4915 119.594 16.4915C117.306 16.4915 115.882 18.1497 115.882 20.4477C115.882 22.9266 117.661 24.749 119.744 24.749C120.826 24.749 122.153 24.3805 123.084 22.7223H123.346C123.168 23.3387 122.796 24.1862 122.468 24.7222C121.59 24.5982 120.987 25.0907 119.373 25.0907C116.592 25.0907 114.592 23.2549 114.592 20.7224C114.592 18.1899 116.646 16.1498 119.507 16.1498C121.232 16.1498 121.972 16.6992 122.398 16.6992C122.548 16.6992 122.615 16.659 122.645 16.6154H122.85L122.974 18.6019H122.712H122.716Z" fill="#041E5F"/>
  <path d="M127.534 24.8729H124.208V24.6116C125.055 24.5714 125.236 24.3503 125.236 23.4325V17.6003C125.236 16.86 124.975 16.6556 124.208 16.6154V16.3541H127.534V16.6154C126.67 16.6154 126.368 16.8064 126.368 17.7242V23.5296C126.368 24.3369 126.586 24.6116 127.534 24.6116V24.8729Z" fill="#041E5F"/>
  <path d="M133.546 25.0907C130.863 25.0907 128.602 23.3655 128.602 20.8062C128.602 18.0827 130.695 16.1498 133.613 16.1498C136.202 16.1498 138.42 17.9152 138.42 20.3807C138.42 23.1477 136.202 25.0907 133.546 25.0907ZM133.258 16.4915C130.846 16.4915 129.888 18.7359 129.888 20.3807C129.888 22.94 131.627 24.749 133.831 24.749C136.035 24.749 137.13 22.7759 137.13 20.8329C137.13 18.287 135.516 16.4915 133.255 16.4915H133.258ZM132.189 15.2721L133.449 13.5335C133.724 13.165 134.052 12.9305 134.327 12.9305C134.574 12.9305 134.752 13.0947 134.752 13.3292C134.752 13.5905 134.477 13.8618 133.821 14.3007L132.37 15.2721H132.193H132.189Z" fill="#041E5F"/>
  <path d="M148.169 24.9701L141.074 17.5468V23.4225C141.074 24.4073 141.292 24.615 142.457 24.615V24.8763H139.282V24.615H139.335C140.183 24.615 140.458 24.3269 140.458 23.6972V16.9605C140.143 16.7428 139.788 16.6322 139.309 16.6188V16.3575H141.459L147.908 23.0808V17.6305C147.908 16.7964 147.66 16.6456 146.564 16.6188V16.3575H149.77V16.6188C148.742 16.6188 148.524 16.7964 148.524 17.3324V24.9735H148.169V24.9701Z" fill="#041E5F"/>
  <path d="M157.877 17.6003C158.316 16.8466 158.055 16.6154 157.18 16.6154V16.3541H160.276V16.6154C159.344 16.6824 158.949 17.0543 158.564 17.6974L156.289 21.5465V23.6C156.289 24.3269 156.55 24.6116 157.385 24.6116H157.562V24.8729H153.797V24.6116H154.058C154.909 24.6116 155.154 24.2967 155.154 23.6268V21.6972L152.715 17.8917C152.045 16.8365 151.73 16.6456 150.839 16.6188V16.3575H154.48V16.6188C153.412 16.6188 153.345 16.8801 153.753 17.5098L155.944 20.8932L157.874 17.607L157.877 17.6003Z" fill="#041E5F"/>
  <path d="M74.6594 37.5524H74.3981C74.2875 36.5809 74.0296 36.4703 73.4668 36.4703H71.152V39.3881C71.152 40.0179 71.3832 40.1418 71.8923 40.1418H74.0028C74.9608 40.1418 75.2489 39.7733 75.5906 38.5942H75.8385L75.6208 40.6343H68.3481V40.373H68.73C69.8254 40.373 70.0164 40.0715 70.0164 39.2508V33.4722C70.0164 32.7051 69.8389 32.3768 68.921 32.3768H68.6195V32.1155H75.192L75.3025 34.0182H75.0546C74.8771 32.8558 74.5354 32.6079 74.0396 32.6079H71.152V35.9779H73.6041C74.0966 35.9779 74.3311 35.7434 74.3981 34.9495H74.6594V37.5524Z" fill="#041E5F"/>
  <path d="M78.8593 39.3747C78.3267 40.0178 78.3669 40.3729 79.2714 40.3729H79.5461V40.6342H76.2866V40.3729C77.2447 40.2892 77.6132 40.058 78.5746 38.909L80.6984 36.3497L78.5746 33.6798C77.7271 32.6112 77.3686 32.4069 76.2866 32.3801V32.1188H80.3668V32.3801C79.1608 32.3667 79.1072 32.6682 79.5327 33.2008L81.3952 35.5022L82.8759 33.7368C83.6966 32.7653 83.6698 32.3801 82.9295 32.3801H82.5308V32.1188H85.8171V32.3801C84.9126 32.3801 84.2828 32.8055 83.4889 33.777L81.7369 35.9276L84.3096 39.1335C85.1035 40.1317 85.3514 40.2825 86.3899 40.3796V40.6409H82.6112V40.3796C83.5693 40.3796 83.7904 40.1451 83.0903 39.2976L81.0368 36.7651L78.8593 39.3814V39.3747Z" fill="#041E5F"/>
  <path d="M91.3611 39.3747C91.3611 40.115 91.609 40.3729 92.4432 40.3729H92.949V40.6342H88.6343V40.3729H89.1402C89.9743 40.3729 90.2222 40.1116 90.2222 39.3747V32.6112H87.8404C87.291 32.6112 87.0465 32.9261 86.8421 34.1321H86.5942L86.812 31.9144H87.0733C87.0867 31.9982 87.1403 32.0518 87.224 32.0786C87.3078 32.1054 87.4016 32.1188 87.4987 32.1188H94.0846C94.2756 32.1188 94.4832 32.0786 94.51 31.9144H94.7713L94.9891 34.1321H94.7412C94.5368 32.9261 94.289 32.6112 93.7429 32.6112H91.3611V39.3747Z" fill="#041E5F"/>
  <path d="M97.8767 39.3446C97.8767 40.1653 98.2049 40.373 98.9721 40.373H99.287V40.6343H95.4111V40.373H95.6456C96.453 40.373 96.741 40.1553 96.741 39.2374V33.4722C96.741 32.6214 96.5065 32.3768 95.7126 32.3768H95.4111V32.1155C95.7394 32.1155 96.5735 32.0619 97.1363 32.0318C97.6991 32.005 97.9704 31.9916 98.8615 31.9916C101.394 31.9916 102.533 33.0334 102.533 34.4303C102.533 35.4587 101.836 36.3196 100.711 36.6479C101.217 37.0466 101.629 37.4285 102.272 38.0716L103.354 39.1537C104.161 39.961 104.999 40.4668 106.05 40.5372V40.7851C103.655 40.8956 103.039 40.373 101.819 39.157L100.915 38.2525C100.312 37.6496 99.833 37.2543 99.5047 37.0332C99.163 37.0466 98.9419 37.06 98.5734 37.06C98.2719 37.06 98.0944 37.0466 97.8767 37.0332V39.348V39.3446ZM97.8767 36.7719C98.2049 36.8121 98.4093 36.7987 98.7242 36.7987C100.245 36.7987 101.243 36.1555 101.243 34.5107C101.243 33.2377 100.667 32.2495 98.56 32.2495C98.2987 32.2495 98.1212 32.2495 97.8767 32.2763V36.7685V36.7719Z" fill="#041E5F"/>
  <path d="M108.817 36.8522L108.024 39.0028C107.926 39.2641 107.749 39.6728 107.749 39.8671C107.749 40.2356 108.104 40.3729 108.858 40.3729H109.075V40.6342H105.913V40.3729C106.804 40.3595 106.955 40.2088 107.394 39.0162L109.886 32.2092L109.762 31.9077H110.955L113.815 39.5086C114.09 40.2356 114.378 40.3729 115.062 40.3729V40.6342H111.296V40.3729H111.651C112.432 40.3729 112.72 40.2892 112.72 39.9073C112.72 39.6895 112.623 39.4818 112.569 39.3445L111.651 36.8522H108.817ZM110.214 33.0601L109.052 36.2492H111.42L110.214 33.0601Z" fill="#041E5F"/>
  <path d="M124.153 40.7281L117.058 33.3047V39.1804C117.058 40.1653 117.276 40.373 118.441 40.373V40.6343H115.266V40.373H115.319C116.167 40.373 116.441 40.0849 116.441 39.4551V32.7185C116.127 32.5007 115.771 32.3902 115.292 32.3768V32.1155H117.443L123.892 38.8387V33.3884C123.892 32.5543 123.644 32.4036 122.548 32.3768V32.1155H125.754V32.3768C124.726 32.3768 124.508 32.5543 124.508 33.0869V40.7281H124.153Z" fill="#041E5F"/>
  <path d="M128.384 39.224C128.384 41.9776 127.262 43.8268 125.55 43.8268C124.796 43.8268 124.22 43.5119 124.22 43.0864C124.22 42.7984 124.438 42.5371 124.713 42.5371C125.178 42.5371 125.547 43.1802 126.123 43.1802C126.78 43.1802 127.245 42.6878 127.245 41.167V33.8541C127.245 32.6482 127.121 32.3735 126.136 32.3735H125.986V32.1122H129.449V32.3735C128.572 32.4003 128.381 32.6482 128.381 33.3717V39.2173L128.384 39.224Z" fill="#041E5F"/>
  <path d="M135.928 37.5524H135.667C135.556 36.5809 135.298 36.4703 134.735 36.4703H132.42V39.3881C132.42 40.0179 132.652 40.1418 133.161 40.1418H135.268C136.226 40.1418 136.514 39.7733 136.856 38.5942H137.104L136.886 40.6343H129.613V40.373H129.995C131.091 40.373 131.282 40.0715 131.282 39.2508V33.4722C131.282 32.7051 131.104 32.3768 130.186 32.3768H129.885V32.1155H136.457L136.568 34.0182H136.32C136.142 32.8558 135.801 32.6079 135.305 32.6079H132.417V35.9779H134.869C135.362 35.9779 135.596 35.7434 135.663 34.9495H135.924V37.5524H135.928Z" fill="#041E5F"/>
  <path d="M140.159 39.3445C140.159 40.1652 140.488 40.3729 141.255 40.3729H141.57V40.6342H137.694V40.3729H137.928C138.736 40.3729 139.024 40.1552 139.024 39.2373V33.4721C139.024 32.6212 138.789 32.3767 137.995 32.3767H137.694V32.1154C138.022 32.1154 138.856 32.0618 139.419 32.0317C139.982 32.0049 140.253 31.9915 141.144 31.9915C143.677 31.9915 144.816 33.0333 144.816 34.4302C144.816 35.4586 144.119 36.3195 142.993 36.6478C143.499 37.0465 143.911 37.4283 144.554 38.0715L145.636 39.1535C146.444 39.9609 147.281 40.4667 148.333 40.537V40.7849C145.938 40.8955 145.322 40.3729 144.102 39.1569L143.198 38.2524C142.595 37.6494 142.116 37.2541 141.787 37.0331C141.446 37.0465 141.225 37.0598 140.856 37.0598C140.555 37.0598 140.377 37.0465 140.159 37.0331V39.3478V39.3445ZM140.159 36.7718C140.488 36.812 140.692 36.7986 141.007 36.7986C142.528 36.7986 143.526 36.1554 143.526 34.5106C143.526 33.2376 142.95 32.2494 140.843 32.2494C140.581 32.2494 140.404 32.2494 140.159 32.2762V36.7684V36.7718Z" fill="#041E5F"/>
  <path d="M152.085 40.6343H148.758V40.373C149.606 40.3328 149.787 40.1117 149.787 39.1938V33.3616C149.787 32.6213 149.525 32.417 148.758 32.3768V32.1155H152.085V32.3768C151.22 32.3768 150.922 32.5677 150.922 33.4856V39.291C150.922 40.0983 151.14 40.373 152.085 40.373V40.6343ZM149.1 31.0335L150.36 29.2949C150.634 28.9264 150.963 28.6919 151.237 28.6919C151.485 28.6919 151.663 28.856 151.663 29.0905C151.663 29.3518 151.388 29.6232 150.731 30.062L149.281 31.0335H149.103H149.1Z" fill="#041E5F"/>
  <path d="M155.385 36.8522L154.591 39.0028C154.494 39.2641 154.316 39.6728 154.316 39.8671C154.316 40.2356 154.671 40.3729 155.425 40.3729H155.643V40.6342H152.48V40.3729C153.372 40.3595 153.522 40.2088 153.961 39.0162L156.453 32.2092L156.33 31.9077H157.522L160.383 39.5086C160.658 40.2356 160.946 40.3729 161.629 40.3729V40.6342H157.864V40.3729H158.219C158.999 40.3729 159.287 40.2892 159.287 39.9073C159.287 39.6895 159.19 39.4818 159.137 39.3445L158.219 36.8522H155.385ZM156.782 33.0601L155.619 36.2492H157.988L156.782 33.0601Z" fill="#041E5F"/>
</svg>