<svg width="1276" height="400" viewBox="0 0 1276 400" fill="none" xmlns="http://www.w3.org/2000/svg">
<path d="M309.828 98.8698C309.332 98.5186 308.749 98.3137 308.137 98.3137C307.845 98.3137 307.524 98.3723 307.233 98.4601L219.61 127.844C219.61 127.844 219.377 127.902 219.231 127.932L207.567 131.854V112.215C207.567 107.357 203.631 103.406 198.79 103.406C197.857 103.406 196.895 103.552 195.991 103.874L72.3277 145.316C71.1613 145.697 70.374 146.809 70.374 148.038V298.118C70.374 299.055 70.8114 299.904 71.5695 300.46C72.0652 300.811 72.6484 301.016 73.2608 301.016C73.5524 301.016 73.8731 300.957 74.1647 300.869L75.0103 300.577L75.3311 300.46L76.8473 299.962L77.1098 299.874L89.4732 295.748L181.441 264.93C181.441 269.291 181.441 276.08 181.382 279.651C181.353 282.256 181.382 284.041 181.47 285.095C181.499 285.446 181.528 285.592 181.528 285.768C182.053 290.129 185.756 293.436 190.159 293.436C191.092 293.436 192.025 293.289 192.929 292.967L309.011 254.043C310.178 253.662 310.965 252.55 310.965 251.321V101.211C310.965 100.275 310.528 99.4259 309.77 98.8698H309.828ZM308.137 151.228V201.245V251.262L192.055 290.187C192.055 290.187 191.967 290.187 191.909 290.187C191.413 290.333 190.917 290.421 190.422 290.421C190.422 290.421 190.393 290.421 190.363 290.421C190.188 290.421 190.043 290.421 189.868 290.421C189.693 290.421 189.547 290.421 189.372 290.421C189.314 290.421 189.255 290.421 189.197 290.421C188.935 290.363 188.701 290.275 188.468 290.216C188.351 290.187 188.235 290.158 188.147 290.129C188.089 290.129 188.031 290.129 187.972 290.07C187.943 290.07 187.885 290.041 187.856 290.011C187.622 289.894 187.389 289.777 187.185 289.631C187.127 289.602 187.098 289.572 187.039 289.543C186.981 289.514 186.923 289.485 186.864 289.455C186.806 289.426 186.748 289.368 186.689 289.338C186.485 289.163 186.281 288.987 186.106 288.782C186.106 288.782 185.902 288.607 185.844 288.519C185.844 288.519 185.815 288.49 185.815 288.46C185.231 287.816 184.823 286.997 184.59 286.119C184.59 286.06 184.59 286.002 184.561 285.943C184.502 285.738 184.502 285.534 184.473 285.329C184.473 285.446 184.473 285.563 184.473 285.709C184.473 285.739 184.473 285.768 184.473 285.797C184.473 285.797 184.386 285.651 184.327 284.802C184.269 283.953 184.211 282.431 184.24 279.651C184.24 278.949 184.24 278.158 184.24 277.28V277.251C184.24 276.373 184.24 275.407 184.24 274.412C184.24 274.354 184.24 274.324 184.24 274.266C184.24 273.856 184.24 273.446 184.24 273.037C184.24 272.715 184.24 272.364 184.24 272.042C184.24 271.866 184.24 271.661 184.24 271.486C184.24 271.339 184.24 271.193 184.24 271.017C184.24 266.393 184.24 261.857 184.24 260.979V260.92C184.24 260.92 184.036 260.979 183.948 261.008C183.424 261.184 182.928 261.359 182.403 261.535C179.545 262.501 176.338 263.554 172.897 264.725C171.993 265.018 171.089 265.34 170.156 265.661C166.249 266.978 162.05 268.383 157.705 269.847C157.676 269.847 157.618 269.847 157.589 269.876C123.881 281.173 79.9673 295.894 73.9606 297.884C73.494 298.031 73.2024 298.148 73.2024 298.148V248.131V148.067L196.866 106.626C197.449 106.421 198.003 106.362 198.557 106.333C198.849 106.333 199.111 106.333 199.374 106.362C199.519 106.362 199.636 106.362 199.782 106.391C200.19 106.479 200.598 106.567 201.006 106.743C201.006 106.743 201.065 106.772 201.094 106.772C201.444 106.918 201.794 107.123 202.114 107.357C202.231 107.445 202.319 107.533 202.435 107.621C202.669 107.796 202.873 107.972 203.077 108.206C203.193 108.323 203.281 108.44 203.368 108.557C203.543 108.762 203.689 108.996 203.835 109.23C203.922 109.377 203.981 109.494 204.068 109.64C204.185 109.903 204.301 110.196 204.389 110.459C204.418 110.606 204.476 110.723 204.506 110.869C204.593 111.308 204.68 111.747 204.68 112.215V135.863L208.646 134.517L220.106 130.654L308.108 101.153V151.17L308.137 151.228Z" fill="#0036C1"/>
<path d="M220.135 130.741V180.758L308.137 151.257V101.211L220.135 130.741Z" fill="#0036C1"/>
<path d="M220.135 230.775L308.137 201.274V151.257L220.135 180.758V230.775Z" fill="white"/>
<path d="M187.885 290.04C187.885 290.04 187.972 290.07 188.002 290.099C188.06 290.099 188.118 290.099 188.177 290.157C187.856 290.04 187.535 289.865 187.214 289.689C187.448 289.836 187.652 289.953 187.885 290.07V290.04Z" fill="#0036C1"/>
<path d="M189.226 290.45C189.226 290.45 189.343 290.45 189.401 290.45C189.08 290.392 188.789 290.304 188.497 290.216C188.73 290.304 188.993 290.392 189.226 290.421V290.45Z" fill="#0036C1"/>
<path d="M186.718 289.367C186.718 289.367 186.835 289.455 186.893 289.484C186.952 289.514 187.01 289.543 187.068 289.572C186.718 289.338 186.427 289.104 186.135 288.811C186.339 288.987 186.514 289.192 186.718 289.367Z" fill="#0036C1"/>
<path d="M184.444 285.387C184.444 285.592 184.473 285.797 184.532 286.002C184.532 286.06 184.532 286.119 184.561 286.177C184.794 287.055 185.202 287.845 185.786 288.519C185.786 288.519 185.815 288.548 185.815 288.577C185.902 288.665 185.99 288.753 186.077 288.84C185.202 287.933 184.59 286.763 184.415 285.387H184.444Z" fill="#0036C1"/>
<path d="M192.054 290.216C192.054 290.216 191.967 290.216 191.909 290.216C191.967 290.216 191.996 290.216 192.054 290.216L308.137 251.291V201.274L220.135 230.775V280.763L192.054 290.216Z" fill="#0036C1"/>
<path d="M220.135 130.741V130.712L208.675 134.575L204.709 135.892V135.921L220.135 130.741Z" fill="white"/>
<g style="mix-blend-mode:multiply" opacity="0.36">
<path d="M220.135 130.741V130.712L208.675 134.575L204.709 135.892V135.921L220.135 130.741Z" fill="#0036C1"/>
</g>
<path d="M204.709 162.291V162.701V164.574V185.938L220.135 180.758V130.741L204.709 135.921V162.291Z" fill="#0036C1"/>
<g style="mix-blend-mode:multiply" opacity="0.36">
<path d="M204.709 162.291V162.701V164.574V185.938L220.135 180.758V130.741L204.709 135.921V162.291Z" fill="#0036C1"/>
</g>
<path d="M204.709 185.938V204.054V212.161V212.308V215.147V235.955L220.135 230.775V180.758L204.709 185.938Z" fill="white"/>
<g style="mix-blend-mode:multiply" opacity="0.36">
<path d="M204.709 185.938V204.054V212.161V212.308V215.147V235.955L220.135 230.775V180.758L204.709 185.938Z" fill="#0036C1"/>
</g>
<path d="M198.207 256.354C201.152 255.74 204.272 256.501 204.709 261.359C204.709 261.359 204.826 254.92 198.207 256.354Z" fill="#0036C1"/>
<g style="mix-blend-mode:multiply" opacity="0.36">
<path d="M198.207 256.354C201.152 255.74 204.272 256.501 204.709 261.359C204.709 261.359 204.826 254.92 198.207 256.354Z" fill="#0036C1"/>
</g>
<path d="M204.71 254.101V261.359C204.71 261.359 205.118 264.754 202.26 267.066C199.374 269.349 190.976 277.719 188.847 279.709C186.864 281.582 184.386 283.251 184.473 285.387C184.648 286.733 185.261 287.933 186.136 288.841C186.427 289.133 186.748 289.397 187.069 289.601C187.127 289.631 187.156 289.66 187.214 289.689C187.506 289.865 187.827 290.04 188.177 290.158C188.293 290.187 188.41 290.216 188.497 290.245C188.789 290.333 189.081 290.421 189.401 290.479C189.576 290.479 189.722 290.479 189.897 290.479C190.072 290.479 190.276 290.479 190.451 290.479C190.947 290.479 191.442 290.392 191.938 290.245C191.996 290.245 192.026 290.245 192.084 290.245L220.164 280.792V230.804L204.71 235.985V254.101Z" fill="#0036C1"/>
<g style="mix-blend-mode:multiply" opacity="0.36">
<path d="M204.71 254.101V261.359C204.71 261.359 205.118 264.754 202.26 267.066C199.374 269.349 190.976 277.719 188.847 279.709C186.864 281.582 184.386 283.251 184.473 285.387C184.648 286.733 185.261 287.933 186.136 288.841C186.427 289.133 186.748 289.397 187.069 289.601C187.127 289.631 187.156 289.66 187.214 289.689C187.506 289.865 187.827 290.04 188.177 290.158C188.293 290.187 188.41 290.216 188.497 290.245C188.789 290.333 189.081 290.421 189.401 290.479C189.576 290.479 189.722 290.479 189.897 290.479C190.072 290.479 190.276 290.479 190.451 290.479C190.947 290.479 191.442 290.392 191.938 290.245C191.996 290.245 192.026 290.245 192.084 290.245L220.164 280.792V230.804L204.71 235.985V254.101Z" fill="#0036C1"/>
</g>
<path d="M194.067 257.671C195.321 257.262 196.312 256.91 196.808 256.735H196.691C196.225 256.94 195.321 257.232 194.038 257.671H194.067Z" fill="#0036C1"/>
<g style="mix-blend-mode:multiply" opacity="0.36">
<path d="M194.067 257.671C195.321 257.262 196.312 256.91 196.808 256.735H196.691C196.225 256.94 195.321 257.232 194.038 257.671H194.067Z" fill="#0036C1"/>
</g>
<path d="M204.71 162.291V135.922V112.274C204.71 111.806 204.651 111.367 204.535 110.928C204.505 110.781 204.447 110.664 204.418 110.518C204.331 110.225 204.243 109.962 204.097 109.698C204.039 109.552 203.951 109.406 203.864 109.289C203.718 109.055 203.572 108.82 203.397 108.616C203.31 108.498 203.193 108.381 203.106 108.264C202.902 108.059 202.698 107.855 202.464 107.679C202.348 107.591 202.26 107.503 202.144 107.416C201.823 107.181 201.473 107.006 201.123 106.83C201.123 106.83 201.065 106.801 201.036 106.801C200.657 106.625 200.248 106.538 199.811 106.45C199.694 106.45 199.548 106.45 199.403 106.421C199.14 106.391 198.849 106.362 198.586 106.391C198.032 106.391 197.449 106.479 196.895 106.684L73.2607 148.067V198.084L196.924 156.642C200.744 155.355 204.71 158.223 204.71 162.262V162.291Z" fill="#0036C1"/>
<path d="M204.71 212.308V162.291C204.71 158.252 200.744 155.384 196.924 156.672L73.2607 198.084V248.101H73.3191L196.924 206.659C200.744 205.372 204.71 208.24 204.71 212.278V212.308Z" fill="white"/>
<path d="M194.066 257.671C195.349 257.232 196.253 256.94 196.72 256.793H196.837V256.764C197.274 256.618 197.74 256.472 198.207 256.384C204.826 254.95 204.709 261.388 204.709 261.388V236.014V212.366C204.709 208.328 200.744 205.459 196.924 206.747L73.2898 248.101H73.2314V298.148C73.2314 298.148 73.5522 298.03 73.9896 297.884C79.9963 295.865 123.91 281.173 157.618 269.876C157.647 269.876 157.705 269.876 157.734 269.846C162.079 268.383 166.278 266.978 170.185 265.661C171.118 265.339 172.022 265.047 172.926 264.725C176.367 263.583 179.574 262.501 182.432 261.535C182.957 261.359 183.482 261.184 183.977 261.008C184.065 260.979 184.182 260.949 184.269 260.92V260.832C184.269 260.832 190.217 258.901 194.008 257.671H194.066Z" fill="#0036C1"/>
<path d="M188.818 279.709C190.946 277.719 199.344 269.349 202.231 267.066C205.118 264.783 204.68 261.359 204.68 261.359C204.272 256.501 201.123 255.74 198.178 256.354C197.711 256.442 197.245 256.588 196.807 256.735C196.312 256.91 195.291 257.232 194.066 257.671C190.276 258.93 184.327 260.832 184.327 260.832V260.978C184.327 261.857 184.327 266.393 184.327 271.017C184.327 271.163 184.327 271.31 184.327 271.485C184.327 271.661 184.327 271.866 184.327 272.041C184.327 272.363 184.327 272.715 184.327 273.036C184.327 273.446 184.327 273.856 184.327 274.266C184.327 274.324 184.327 274.353 184.327 274.412C184.327 275.407 184.327 276.373 184.327 277.251V277.28C184.327 278.158 184.327 278.978 184.327 279.651C184.298 282.431 184.327 283.953 184.415 284.802C184.473 285.65 184.561 285.797 184.561 285.797C184.561 285.768 184.561 285.738 184.561 285.709C184.561 285.592 184.561 285.475 184.561 285.328C184.473 283.192 186.952 281.524 188.934 279.651L188.818 279.709Z" fill="#4565AD"/>
<path d="M510.718 139.311H482.144L476.588 158.511H453.949L483.316 71.1272H510.491L539.858 158.511H516.236L510.718 139.311ZM486.453 123.323H506.371L496.696 89.6471H496.204L486.453 123.323Z" fill="#0036C1"/>
<path d="M583.664 71.1272C610.083 71.1272 625.579 86.4344 625.579 114.29C625.579 142.145 610.007 158.511 583.664 158.511H548.174V71.1272H583.664ZM570.398 140.596H580.754C595.229 140.596 602.978 131.827 602.978 114.365C602.978 97.9621 594.814 89.0423 580.754 89.0423H570.398V140.558V140.596Z" fill="#0036C1"/>
<path d="M720.219 114.856C720.219 142.711 703.551 160.022 677.094 160.022C650.637 160.022 633.932 142.711 633.932 114.856C633.932 87.0005 650.637 69.6145 677.094 69.6145C703.551 69.6145 720.219 87.0005 720.219 114.856ZM656.571 114.856C656.571 131.448 664.622 141.993 677.094 141.993C689.567 141.993 697.617 131.448 697.617 114.856C697.617 98.2636 689.491 87.6808 677.094 87.6808C664.697 87.6808 656.571 98.2258 656.571 114.856Z" fill="#0036C1"/>
<path d="M768.899 71.1272C787.684 71.1272 800.383 83.2974 800.383 102.082C800.383 120.866 787.003 132.923 767.577 132.923H753.29V158.549H731.066V71.165H768.899V71.1272ZM753.29 116.18H762.928C772.377 116.18 777.933 111.266 777.933 102.12C777.933 92.9731 772.377 88.1352 763.041 88.1352H753.29V116.18Z" fill="#0036C1"/>
<path d="M830.506 158.511V89.0423H806.393V71.1272H876.768V89.0423H852.654V158.511H830.506Z" fill="#0036C1"/>
<path d="M886.178 158.511V71.1272H908.402V158.511H886.178Z" fill="#0036C1"/>
<path d="M921.596 158.511V71.1272H939.323L976.362 121.925H976.854V71.1272H997.944V158.511H980.369L943.14 107.222H942.649V158.511H921.559H921.596Z" fill="#0036C1"/>
<path d="M1051.91 160.022C1024.97 160.022 1008.75 143.354 1008.75 114.667C1008.75 85.98 1024.97 69.6145 1051.39 69.6145C1072.59 69.6145 1088.46 82.1627 1090.69 99.9644H1068.7C1066.5 92.2163 1059.97 87.4918 1051.42 87.4918C1038.84 87.4918 1031.39 97.3565 1031.39 114.365C1031.39 131.373 1039.63 142.144 1052.41 142.144C1062.46 142.144 1069.49 136.21 1070.09 127.442L1070.17 126.119H1054.18V110.85H1091.6V121.584C1091.6 145.433 1076.82 160.022 1051.95 160.022H1051.91Z" fill="#0036C1"/>
<path d="M518.619 269.516H458.713V182.132H518.619V200.047H480.975V217.433H516.389V233.799H480.975V251.601H518.619V269.516Z" fill="#0036C1"/>
<path d="M589.523 269.516H531.128V182.132H553.352V251.601H589.485V269.516H589.523Z" fill="#0036C1"/>
<path d="M642.096 244.23C642.89 250.239 649.617 254.208 657.857 254.208C666.512 254.208 672.144 250.315 672.144 245.061C672.144 240.223 668.44 237.842 658.499 235.801L647.047 233.571C630.946 230.472 622.631 221.779 622.631 208.513C622.631 191.543 637.183 180.657 657.403 180.657C679.249 180.657 692.175 191.24 692.402 207.681H671.917C671.501 201.332 665.605 197.514 657.63 197.514C649.655 197.514 644.742 201.029 644.742 206.359C644.742 211.083 648.635 213.691 657.781 215.581L669.12 217.697C686.393 221.023 694.141 228.847 694.141 242.642C694.141 260.028 679.778 271.102 657.252 271.102C634.726 271.102 621.233 261.238 620.968 244.268H642.096V244.23Z" fill="#0036C1"/>
<path d="M753.706 250.355H725.133L719.577 269.555H696.937L726.304 182.172H753.479L782.846 269.555H759.224L753.706 250.355ZM729.403 234.367H749.322L739.646 200.691H739.155L729.403 234.367Z" fill="#0036C1"/>
<path d="M849.557 269.516H791.2V182.132H813.424V251.601H849.557V269.516Z" fill="#0036C1"/>
<path d="M875.446 269.516L847.591 182.132H872.838L889.657 247.783H890.149L906.93 182.132H931.27L903.415 269.516H875.446Z" fill="#0036C1"/>
<path d="M981.426 250.355H952.853L947.297 269.555H924.657L954.024 182.172H981.2L1010.57 269.555H986.944L981.426 250.355ZM957.162 234.367H977.08L967.404 200.691H966.913L957.162 234.367Z" fill="#0036C1"/>
<path d="M1054.37 182.172C1080.79 182.172 1096.28 197.479 1096.28 225.334C1096.28 253.19 1080.71 269.555 1054.37 269.555H1018.88V182.172H1054.37ZM1041.1 251.64H1051.46C1065.93 251.64 1073.68 242.871 1073.68 225.41C1073.68 209.007 1065.52 200.087 1051.46 200.087H1041.1V251.602V251.64Z" fill="#0036C1"/>
<path d="M1190.93 225.861C1190.93 253.716 1174.26 271.027 1147.8 271.027C1121.34 271.027 1104.64 253.716 1104.64 225.861C1104.64 198.006 1121.34 180.62 1147.8 180.62C1174.26 180.62 1190.93 198.006 1190.93 225.861ZM1127.28 225.861C1127.28 242.453 1135.33 252.998 1147.8 252.998C1160.27 252.998 1168.32 242.453 1168.32 225.861C1168.32 209.269 1160.2 198.686 1147.8 198.686C1135.4 198.686 1127.28 209.231 1127.28 225.861Z" fill="#0036C1"/>
<path d="M1224 269.516H1201.77V182.132H1239.19C1261 182.132 1272.75 192.904 1272.75 210.97C1272.75 221.704 1267.35 231.493 1257.79 235.689L1275.29 269.554H1250.34L1235.34 238.977H1224V269.554V269.516ZM1224 223.745H1237.04C1245.2 223.745 1250.04 218.945 1250.04 211.386C1250.04 203.827 1244.9 198.914 1236.96 198.914H1224V223.745Z" fill="#0036C1"/>
<path d="M272.009 352.769L276.957 362.478L288.058 363.9L280.158 371.618L281.904 382.18L271.968 377.021L262.031 382.18L263.777 371.618L255.877 363.9L266.978 362.478L271.926 352.769H272.009Z" fill="#0036C1"/>
<path d="M192.221 370.589L197.168 380.298L208.269 381.72L200.37 389.438L202.116 400L192.179 394.841L182.242 400L183.988 389.438L176.089 381.72L187.19 380.298L192.137 370.589H192.221Z" fill="#0036C1"/>
<path d="M113.649 352.769L118.596 362.478L129.697 363.9L121.798 371.618L123.544 382.18L113.607 377.021L103.67 382.18L105.417 371.618L97.5171 363.9L108.618 362.478L113.566 352.769H113.649Z" fill="#0036C1"/>
<path d="M192.096 0L197.043 9.6683L208.103 11.0901L200.245 18.7679L201.991 29.2893L192.096 24.1708L182.201 29.2893L183.947 18.7679L176.089 11.0901L187.148 9.6683L192.096 0Z" fill="#0036C1"/>
<path d="M272.291 21.0623L277.238 30.7306L288.297 32.1524L280.44 39.8301L282.186 50.3515L272.291 45.233L262.395 50.3515L264.142 39.8301L256.284 32.1524L267.343 30.7306L272.291 21.0623Z" fill="#0036C1"/>
<path d="M51.5562 71.2844L56.5038 80.9527L67.5631 82.3745L59.7052 90.0523L61.4514 100.574L51.5562 95.7395L41.661 100.858L43.4073 90.3367L35.5493 82.6589L46.6086 81.2371L51.5562 71.2844Z" fill="#0036C1"/>
<path d="M333.042 71.2844L337.99 80.9527L349.049 82.3745L341.191 90.0523L342.937 100.574L333.042 95.7395L323.147 100.858L324.893 90.3367L317.035 82.6589L328.094 81.2371L333.042 71.2844Z" fill="#0036C1"/>
<path d="M367.466 144.591L372.414 154.259L383.473 155.681L375.615 163.359L377.362 173.88L367.466 169.046L357.571 174.164L359.317 163.643L351.459 155.965L362.519 154.543L367.466 144.591Z" fill="#0036C1"/>
<path d="M16.3194 144.187L21.267 153.856L32.3263 155.277L24.4684 162.955L26.2146 173.477L16.3194 168.642L6.42422 173.761L8.17044 163.239L0.3125 155.562L11.3718 154.14L16.3194 144.187Z" fill="#0036C1"/>
<path d="M16.3194 229.238L21.267 238.907L32.3263 240.328L24.4684 248.006L26.2146 258.528L16.3194 253.693L6.42422 258.812L8.17044 248.291L0.3125 240.613L11.3718 239.191L16.3194 229.238Z" fill="#0036C1"/>
<path d="M369.086 229.238L374.034 238.907L385.093 240.328L377.235 248.006L378.981 258.528L369.086 253.693L359.191 258.812L360.937 248.291L353.079 240.613L364.138 239.191L369.086 229.238Z" fill="#0036C1"/>
<path d="M51.5562 301.736L56.5038 311.404L67.5631 312.826L59.7052 320.504L61.4514 331.025L51.5562 326.191L41.661 331.31L43.4073 320.788L35.5493 313.111L46.6086 311.689L51.5562 301.736Z" fill="#0036C1"/>
<path d="M333.042 301.736L337.99 311.404L349.049 312.826L341.191 320.504L342.937 331.025L333.042 326.191L323.147 331.31L324.893 320.788L317.035 313.111L328.094 311.689L333.042 301.736Z" fill="#0036C1"/>
<path d="M113.524 21.0623L118.472 30.7306L129.531 32.1524L121.673 39.8301L123.419 50.3515L113.524 45.233L103.629 50.3515L105.375 39.8301L97.5171 32.1524L108.576 30.7306L113.524 21.0623Z" fill="#0036C1"/>
<path d="M1260.36 305.372H1268.55V312.302H1274.11V318.474H1268.55V332.867C1268.55 335.168 1269.68 336.262 1272.09 336.262C1272.82 336.262 1273.58 336.206 1274.08 336.121V342.153C1273.24 342.35 1271.84 342.49 1270.18 342.49C1263.11 342.49 1260.36 340.133 1260.36 334.27V318.474H1256.13V312.302H1260.36V305.372Z" fill="#0036C1"/>
<path d="M1237.24 342.377V312.301H1245.16V317.716H1245.32C1246.39 313.9 1248.94 311.824 1252.48 311.824C1253.43 311.824 1254.25 311.964 1254.81 312.133V319.343C1254.13 319.063 1253.01 318.866 1251.83 318.866C1247.79 318.866 1245.44 321.335 1245.44 325.572V342.377H1237.24Z" fill="#0036C1"/>
<path d="M1218.11 343.023C1209.02 343.023 1203.21 337.187 1203.21 327.312C1203.21 317.576 1209.1 311.656 1218.11 311.656C1227.12 311.656 1233.01 317.548 1233.01 327.312C1233.01 337.215 1227.2 343.023 1218.11 343.023ZM1218.11 336.766C1222.12 336.766 1224.68 333.372 1224.68 327.34C1224.68 321.364 1222.09 317.913 1218.11 317.913C1214.13 317.913 1211.52 321.364 1211.52 327.34C1211.52 333.372 1214.07 336.766 1218.11 336.766Z" fill="#0036C1"/>
<path d="M1187.75 311.824C1195.38 311.824 1200.07 317.632 1200.07 327.339C1200.07 337.018 1195.41 342.854 1187.89 342.854C1183.52 342.854 1180.15 340.722 1178.55 337.327H1178.38V352.196H1170.19V312.301H1178.27V317.548H1178.44C1180.06 314.013 1183.4 311.824 1187.75 311.824ZM1185 336.261C1189.1 336.261 1191.68 332.81 1191.68 327.339C1191.68 321.896 1189.1 318.389 1185 318.389C1180.99 318.389 1178.35 321.952 1178.35 327.339C1178.35 332.782 1180.99 336.261 1185 336.261Z" fill="#0036C1"/>
<path d="M1140.06 321.139C1140.06 315.416 1145.02 311.656 1152.74 311.656C1160.29 311.656 1165.2 315.472 1165.31 321.308H1157.76C1157.59 318.895 1155.66 317.408 1152.63 317.408C1149.79 317.408 1147.94 318.698 1147.94 320.634C1147.94 322.121 1149.23 323.131 1151.87 323.749L1157.62 324.983C1163.65 326.33 1166.09 328.714 1166.09 333.203C1166.09 339.123 1160.65 343.023 1152.71 343.023C1144.69 343.023 1139.75 339.151 1139.3 333.287H1147.3C1147.69 335.812 1149.68 337.271 1152.93 337.271C1156.05 337.271 1157.93 336.037 1157.93 334.073C1157.93 332.558 1156.92 331.716 1154.23 331.071L1148.67 329.837C1142.98 328.546 1140.06 325.572 1140.06 321.139Z" fill="#0036C1"/>
<path d="M1110.43 321.139C1110.43 315.416 1115.4 311.656 1123.11 311.656C1130.66 311.656 1135.57 315.472 1135.68 321.308H1128.13C1127.97 318.895 1126.03 317.408 1123 317.408C1120.17 317.408 1118.31 318.698 1118.31 320.634C1118.31 322.121 1119.6 323.131 1122.24 323.749L1127.99 324.983C1134.03 326.33 1136.47 328.714 1136.47 333.203C1136.47 339.123 1131.02 343.023 1123.08 343.023C1115.06 343.023 1110.12 339.151 1109.67 333.287H1117.67C1118.06 335.812 1120.05 337.271 1123.31 337.271C1126.42 337.271 1128.3 336.037 1128.3 334.073C1128.3 332.558 1127.29 331.716 1124.6 331.071L1119.04 329.837C1113.35 328.546 1110.43 325.572 1110.43 321.139Z" fill="#0036C1"/>
<path d="M1091.07 336.935C1094.64 336.935 1097.58 334.606 1097.58 331.352V329.163L1091.24 329.556C1088.18 329.781 1086.44 331.155 1086.44 333.287C1086.44 335.532 1088.29 336.935 1091.07 336.935ZM1088.38 342.854C1082.66 342.854 1078.31 339.151 1078.31 333.736C1078.31 328.265 1082.52 325.095 1090.01 324.646L1097.58 324.197V322.205C1097.58 319.4 1095.62 317.773 1092.53 317.773C1089.47 317.773 1087.54 319.288 1087.14 321.504H1079.65C1079.96 315.668 1084.93 311.656 1092.9 311.656C1100.61 311.656 1105.63 315.64 1105.63 321.7V342.378H1097.72V337.776H1097.55C1095.87 340.975 1092.14 342.854 1088.38 342.854Z" fill="#0036C1"/>
<path d="M1046.6 301.893H1063.07C1071.38 301.893 1077.1 307.42 1077.1 315.753C1077.1 324.057 1071.18 329.612 1062.65 329.612H1055.08V342.378H1046.6V301.893ZM1055.08 308.598V322.991H1060.8C1065.65 322.991 1068.49 320.41 1068.49 315.781C1068.49 311.18 1065.68 308.598 1060.83 308.598H1055.08Z" fill="#0036C1"/>
<path d="M984.911 342.377V312.301H992.822V317.744H992.991C994.253 314.125 997.48 311.74 1001.58 311.74C1005.92 311.74 1008.95 313.985 1009.96 317.912H1010.13C1011.48 314.125 1015.07 311.74 1019.48 311.74C1025.37 311.74 1029.32 315.78 1029.32 321.84V342.377H1021.13V323.888C1021.13 320.409 1019.39 318.502 1016.22 318.502C1013.11 318.502 1011.06 320.774 1011.06 324.113V342.377H1003.17V323.636C1003.17 320.409 1001.35 318.502 998.321 318.502C995.207 318.502 993.103 320.858 993.103 324.225V342.377H984.911Z" fill="#0036C1"/>
<path d="M965.777 343.023C956.687 343.023 950.879 337.187 950.879 327.312C950.879 317.576 956.771 311.656 965.777 311.656C974.783 311.656 980.675 317.548 980.675 327.312C980.675 337.215 974.867 343.023 965.777 343.023ZM965.777 336.766C969.789 336.766 972.342 333.372 972.342 327.34C972.342 321.364 969.761 317.913 965.777 317.913C961.793 317.913 959.184 321.364 959.184 327.34C959.184 333.372 961.737 336.766 965.777 336.766Z" fill="#0036C1"/>
<path d="M928.911 342.854C921.392 342.854 916.65 336.907 916.65 327.284C916.65 317.745 921.42 311.825 928.967 311.825C933.316 311.825 936.682 314.125 938.141 317.464H938.309V301.893H946.502V342.378H938.422V337.215H938.281C936.822 340.526 933.344 342.854 928.911 342.854ZM931.688 318.39C927.564 318.39 925.039 321.841 925.039 327.34C925.039 332.867 927.564 336.261 931.688 336.261C935.756 336.261 938.366 332.839 938.366 327.34C938.366 321.869 935.756 318.39 931.688 318.39Z" fill="#0036C1"/>
<path d="M899.313 317.717C895.721 317.717 893.14 320.438 892.86 324.197H905.625C905.457 320.354 902.96 317.717 899.313 317.717ZM905.737 333.175H913.256C912.359 339.067 906.972 343.023 899.537 343.023C890.279 343.023 884.724 337.103 884.724 327.48C884.724 317.885 890.335 311.656 899.228 311.656C907.982 311.656 913.509 317.576 913.509 326.722V329.219H892.776V329.724C892.776 334.017 895.497 336.963 899.677 336.963C902.679 336.963 904.98 335.476 905.737 333.175Z" fill="#0036C1"/>
<path d="M867.383 317.717C863.792 317.717 861.211 320.438 860.931 324.197H873.696C873.528 320.354 871.031 317.717 867.383 317.717ZM873.808 333.175H881.327C880.429 339.067 875.043 343.023 867.608 343.023C858.349 343.023 852.794 337.103 852.794 327.48C852.794 317.885 858.406 311.656 867.299 311.656C876.053 311.656 881.58 317.576 881.58 326.722V329.219H860.846V329.724C860.846 334.017 863.568 336.963 867.748 336.963C870.75 336.963 873.051 335.476 873.808 333.175Z" fill="#0036C1"/>
<path d="M833.969 342.377V312.301H841.881V317.716H842.049C843.115 313.9 845.668 311.824 849.204 311.824C850.157 311.824 850.971 311.964 851.532 312.133V319.343C850.859 319.063 849.737 318.866 848.558 318.866C844.518 318.866 842.162 321.335 842.162 325.572V342.377H833.969Z" fill="#0036C1"/>
<path d="M811.61 342.378H803.137V301.893H829.65V308.879H811.61V319.737H828.079V326.442H811.61V342.378Z" fill="#0036C1"/>
<path d="M772.611 317.717C769.02 317.717 766.439 320.438 766.158 324.197H778.924C778.755 320.354 776.258 317.717 772.611 317.717ZM779.036 333.175H786.555C785.657 339.067 780.27 343.023 772.835 343.023C763.577 343.023 758.022 337.103 758.022 327.48C758.022 317.885 763.633 311.656 772.527 311.656C781.28 311.656 786.807 317.576 786.807 326.722V329.219H766.074V329.724C766.074 334.017 768.795 336.963 772.976 336.963C775.978 336.963 778.278 335.476 779.036 333.175Z" fill="#0036C1"/>
<path d="M725.703 342.378V301.893H733.755V317.66H733.923C735.522 313.873 738.805 311.741 743.378 311.741C750.055 311.741 753.871 316.061 753.871 323.019V342.378H745.678V324.759C745.678 320.887 743.771 318.53 740.039 318.53C736.167 318.53 733.895 321.252 733.895 325.207V342.378H725.703Z" fill="#0036C1"/>
<path d="M707.271 305.372H715.463V312.302H721.018V318.474H715.463V332.867C715.463 335.168 716.585 336.262 718.998 336.262C719.727 336.262 720.485 336.206 720.99 336.121V342.153C720.148 342.35 718.745 342.49 717.09 342.49C710.02 342.49 707.271 340.133 707.271 334.27V318.474H703.034V312.302H707.271V305.372Z" fill="#0036C1"/>
<path d="M672.763 342.377V312.301H680.674V317.716H680.843C681.909 313.9 684.462 311.824 687.997 311.824C688.951 311.824 689.764 311.964 690.326 312.133V319.343C689.652 319.063 688.53 318.866 687.352 318.866C683.312 318.866 680.955 321.335 680.955 325.572V342.377H672.763Z" fill="#0036C1"/>
<path d="M653.629 343.023C644.539 343.023 638.731 337.187 638.731 327.312C638.731 317.576 644.623 311.656 653.629 311.656C662.635 311.656 668.527 317.548 668.527 327.312C668.527 337.215 662.719 343.023 653.629 343.023ZM653.629 336.766C657.641 336.766 660.194 333.372 660.194 327.34C660.194 321.364 657.613 317.913 653.629 317.913C649.645 317.913 647.036 321.364 647.036 327.34C647.036 333.372 649.589 336.766 653.629 336.766Z" fill="#0036C1"/>
<path d="M622.374 342.378V318.474H618.278V312.442H622.374V310.17C622.374 304.278 625.152 301.529 632.278 301.529C633.793 301.529 635.505 301.697 636.458 301.894V307.308C635.869 307.196 635.056 307.14 634.242 307.14C631.549 307.14 630.37 308.318 630.37 310.451V312.442H636.346V318.474H630.567V342.378H622.374Z" fill="#0036C1"/>
<path d="M581.442 353.516C581.161 353.516 578.608 353.488 578.355 353.432V347.12C578.608 347.176 580.095 347.176 580.403 347.176C583.405 347.176 584.892 346.222 585.453 343.837C585.453 343.725 585.762 342.519 585.706 342.406L575.241 312.302H584.247L590.644 335.813H590.784L597.181 312.302H605.822L595.469 343.052C592.888 350.767 589.129 353.516 581.442 353.516Z" fill="#0036C1"/>
<path d="M563.878 342.378V301.893H572.071V342.378H563.878Z" fill="#0036C1"/>
<path d="M547.128 311.824C554.759 311.824 559.445 317.632 559.445 327.339C559.445 337.018 554.788 342.854 547.269 342.854C542.892 342.854 539.525 340.722 537.926 337.327H537.758V352.196H529.565V312.301H537.645V317.548H537.814C539.441 314.013 542.78 311.824 547.128 311.824ZM544.379 336.261C548.475 336.261 551.056 332.81 551.056 327.339C551.056 321.896 548.475 318.389 544.379 318.389C540.367 318.389 537.73 321.952 537.73 327.339C537.73 332.782 540.367 336.261 544.379 336.261Z" fill="#0036C1"/>
<path d="M513.013 311.824C520.644 311.824 525.33 317.632 525.33 327.339C525.33 337.018 520.672 342.854 513.153 342.854C508.777 342.854 505.41 340.722 503.811 337.327H503.642V352.196H495.45V312.301H503.53V317.548H503.699C505.326 314.013 508.664 311.824 513.013 311.824ZM510.264 336.261C514.36 336.261 516.941 332.81 516.941 327.339C516.941 321.896 514.36 318.389 510.264 318.389C506.252 318.389 503.614 321.952 503.614 327.339C503.614 332.782 506.252 336.261 510.264 336.261Z" fill="#0036C1"/>
<path d="M482.994 342.378L479.908 332.558H465.683L462.597 342.378H453.9L467.956 301.893H477.916L492 342.378H482.994ZM472.697 309.636L467.507 326.217H478.084L472.894 309.636H472.697Z" fill="#0036C1"/>
</svg>