<svg width="241" height="59" viewBox="0 0 241 59" fill="none" xmlns="http://www.w3.org/2000/svg">
<rect width="241" height="59" fill="#041E5F"/>
<path d="M107.094 23.7266H111.117C113.234 23.7266 114.727 25.2109 114.727 27.3438C114.727 29.4844 113.219 30.9766 111.102 30.9766H108.5V35H107.094V23.7266ZM108.5 24.9766V29.7266H110.75C112.359 29.7266 113.281 28.8438 113.281 27.3438C113.281 25.8516 112.367 24.9766 110.75 24.9766H108.5ZM118.109 33.9844C119.391 33.9844 120.375 33.0859 120.375 31.9141V31.25L118.203 31.3828C117.109 31.4531 116.484 31.9375 116.484 32.7031C116.484 33.4766 117.133 33.9844 118.109 33.9844ZM117.805 35.1406C116.188 35.1406 115.102 34.1641 115.102 32.7031C115.102 31.3125 116.172 30.4375 118.047 30.3281L120.375 30.1953V29.5156C120.375 28.5234 119.719 27.9297 118.594 27.9297C117.547 27.9297 116.891 28.4219 116.719 29.2188H115.406C115.5 27.8125 116.703 26.7344 118.625 26.7344C120.531 26.7344 121.734 27.7656 121.734 29.3828V35H120.445V33.6016H120.414C119.93 34.5312 118.898 35.1406 117.805 35.1406ZM124.133 38.0391C123.969 38.0391 123.695 38.0234 123.547 37.9922V36.8516C123.695 36.8828 123.906 36.8906 124.078 36.8906C124.836 36.8906 125.258 36.5234 125.57 35.5781L125.758 35.0078L122.758 26.875H124.211L126.461 33.6406H126.484L128.734 26.875H130.164L126.969 35.5703C126.273 37.4688 125.602 38.0391 124.133 38.0391ZM138.562 35.1406C137.375 35.1406 136.445 34.5625 135.922 33.625H135.891V35H134.594V23.7266H135.953V28.2344H135.984C136.492 27.3047 137.438 26.7344 138.586 26.7344C140.633 26.7344 142.016 28.3906 142.016 30.9375C142.016 33.4922 140.641 35.1406 138.562 35.1406ZM138.297 27.9297C136.922 27.9297 135.945 29.1328 135.945 30.9375C135.945 32.75 136.922 33.9453 138.297 33.9453C139.734 33.9453 140.625 32.7969 140.625 30.9375C140.625 29.0938 139.734 27.9297 138.297 27.9297ZM143.836 38.0391C143.672 38.0391 143.398 38.0234 143.25 37.9922V36.8516C143.398 36.8828 143.609 36.8906 143.781 36.8906C144.539 36.8906 144.961 36.5234 145.273 35.5781L145.461 35.0078L142.461 26.875H143.914L146.164 33.6406H146.188L148.438 26.875H149.867L146.672 35.5703C145.977 37.4688 145.305 38.0391 143.836 38.0391ZM155.844 23.7266V30.9531C155.844 32.6562 156.961 33.8906 158.914 33.8906C160.867 33.8906 161.984 32.6562 161.984 30.9531V23.7266H163.391V31.0469C163.391 33.4531 161.711 35.1875 158.914 35.1875C156.117 35.1875 154.438 33.4531 154.438 31.0469V23.7266H155.844ZM165.039 31.8984H166.453C166.586 33.1172 167.742 33.9219 169.352 33.9219C170.875 33.9219 171.984 33.1172 171.984 32.0078C171.984 31.0547 171.32 30.4688 169.805 30.0781L168.359 29.7031C166.281 29.1719 165.359 28.2578 165.359 26.7266C165.359 24.8516 167 23.5391 169.344 23.5391C171.586 23.5391 173.211 24.8672 173.273 26.7578H171.867C171.742 25.5469 170.766 24.8047 169.297 24.8047C167.836 24.8047 166.82 25.5625 166.82 26.6641C166.82 27.5156 167.445 28.0234 168.977 28.4219L170.156 28.7344C172.492 29.3203 173.438 30.2188 173.438 31.8359C173.438 33.8984 171.812 35.1875 169.219 35.1875C166.828 35.1875 165.172 33.8906 165.039 31.8984ZM175.078 23.7266H178.867C182.211 23.7266 184.188 25.8125 184.188 29.3594C184.188 32.9141 182.219 35 178.867 35H175.078V23.7266ZM176.484 24.9922V33.7344H178.773C181.328 33.7344 182.75 32.1719 182.75 29.375C182.75 26.5547 181.336 24.9922 178.773 24.9922H176.484ZM186.164 24.9141H187.523V26.875H189.102V27.9922H187.523V32.8203C187.523 33.5625 187.836 33.8984 188.531 33.8984C188.688 33.8984 189 33.875 189.094 33.8594V35C188.93 35.0391 188.555 35.0625 188.234 35.0625C186.742 35.0625 186.164 34.4531 186.164 32.8906V27.9922H184.953V26.875H186.164V24.9141Z" fill="white"/>
<g clip-path="url(#clip0_603_45)">
<path d="M73.7667 24.4043V21.9963H80.4949V18.5264H62.5726V21.9963H69.3008V24.4043C64.5743 24.6635 61.0335 25.717 61.0083 26.9879V29.63C61.0335 30.8926 64.5827 31.9545 69.3008 32.2137V38.125H73.7667V32.2137C78.4932 31.9545 82.0339 30.9009 82.0592 29.63V26.9879C82.0339 25.7254 78.4848 24.6635 73.7667 24.4043ZM71.5295 30.3909C66.4834 30.3909 62.2698 29.4963 61.2438 28.3006C62.1185 27.2889 65.2807 26.4946 69.3008 26.2772V28.8023C70.0241 28.8441 70.7642 28.8608 71.5379 28.8608C72.3117 28.8608 73.0518 28.8441 73.7751 28.8023V26.2772C77.7868 26.4946 80.9574 27.2889 81.8321 28.3006C80.7976 29.4963 76.5841 30.3909 71.5464 30.3909H71.5295Z" fill="white"/>
<path d="M91.7897 26.194L84.9101 13.8194C84.6326 13.3177 84.1112 13 83.5477 13H59.9317C59.385 13 58.872 13.2926 58.586 13.7776L51.2355 26.1773C50.8486 26.8211 50.9495 27.6572 51.471 28.1923L70.3772 47.5318C70.9912 48.1589 71.9752 48.1589 72.5891 47.5318L91.529 28.1672C92.042 27.6488 92.143 26.8378 91.7897 26.194ZM82.0675 29.6304C82.0422 30.893 78.4931 31.9548 73.775 32.214V38.1254H69.3091V32.214C64.5826 31.9548 61.0418 30.9013 61.0166 29.6304V26.9883C61.0418 25.7258 64.591 24.6639 69.3091 24.4047V21.9967H62.5809V18.5268H80.5032V21.9967H73.775V24.4047C78.5015 24.6639 82.0422 25.7174 82.0675 26.9883V29.6304Z" fill="#009393"/>
<path d="M73.7666 28.8024C73.0434 28.8442 72.3032 28.861 71.5295 28.861C70.7558 28.861 70.0157 28.8442 69.2924 28.8024V26.2773C65.2807 26.4947 62.11 27.289 61.2354 28.3008C62.2698 29.4964 66.4834 30.3911 71.5211 30.3911C76.5588 30.3911 80.7724 29.4964 81.8068 28.3008C80.9322 27.289 77.7699 26.4947 73.7498 26.2773V28.8024H73.7666Z" fill="#009393"/>
</g>
<defs>
<clipPath id="clip0_603_45">
<rect width="41" height="35" fill="white" transform="translate(51 13)"/>
</clipPath>
</defs>
</svg>
