<svg width="245" height="63" viewBox="0 0 245 63" fill="none" xmlns="http://www.w3.org/2000/svg">
<rect x="1.25" y="1.25" width="242.5" height="60.5" stroke="#9D9D9D" stroke-width="1.5"/>
<path d="M109.094 25.7266H113.117C115.234 25.7266 116.727 27.2109 116.727 29.3438C116.727 31.4844 115.219 32.9766 113.102 32.9766H110.5V37H109.094V25.7266ZM110.5 26.9766V31.7266H112.75C114.359 31.7266 115.281 30.8438 115.281 29.3438C115.281 27.8516 114.367 26.9766 112.75 26.9766H110.5ZM120.109 35.9844C121.391 35.9844 122.375 35.0859 122.375 33.9141V33.25L120.203 33.3828C119.109 33.4531 118.484 33.9375 118.484 34.7031C118.484 35.4766 119.133 35.9844 120.109 35.9844ZM119.805 37.1406C118.188 37.1406 117.102 36.1641 117.102 34.7031C117.102 33.3125 118.172 32.4375 120.047 32.3281L122.375 32.1953V31.5156C122.375 30.5234 121.719 29.9297 120.594 29.9297C119.547 29.9297 118.891 30.4219 118.719 31.2188H117.406C117.5 29.8125 118.703 28.7344 120.625 28.7344C122.531 28.7344 123.734 29.7656 123.734 31.3828V37H122.445V35.6016H122.414C121.93 36.5312 120.898 37.1406 119.805 37.1406ZM126.133 40.0391C125.969 40.0391 125.695 40.0234 125.547 39.9922V38.8516C125.695 38.8828 125.906 38.8906 126.078 38.8906C126.836 38.8906 127.258 38.5234 127.57 37.5781L127.758 37.0078L124.758 28.875H126.211L128.461 35.6406H128.484L130.734 28.875H132.164L128.969 37.5703C128.273 39.4688 127.602 40.0391 126.133 40.0391ZM140.562 37.1406C139.375 37.1406 138.445 36.5625 137.922 35.625H137.891V37H136.594V25.7266H137.953V30.2344H137.984C138.492 29.3047 139.438 28.7344 140.586 28.7344C142.633 28.7344 144.016 30.3906 144.016 32.9375C144.016 35.4922 142.641 37.1406 140.562 37.1406ZM140.297 29.9297C138.922 29.9297 137.945 31.1328 137.945 32.9375C137.945 34.75 138.922 35.9453 140.297 35.9453C141.734 35.9453 142.625 34.7969 142.625 32.9375C142.625 31.0938 141.734 29.9297 140.297 29.9297ZM145.836 40.0391C145.672 40.0391 145.398 40.0234 145.25 39.9922V38.8516C145.398 38.8828 145.609 38.8906 145.781 38.8906C146.539 38.8906 146.961 38.5234 147.273 37.5781L147.461 37.0078L144.461 28.875H145.914L148.164 35.6406H148.188L150.438 28.875H151.867L148.672 37.5703C147.977 39.4688 147.305 40.0391 145.836 40.0391ZM157.844 25.7266V32.9531C157.844 34.6562 158.961 35.8906 160.914 35.8906C162.867 35.8906 163.984 34.6562 163.984 32.9531V25.7266H165.391V33.0469C165.391 35.4531 163.711 37.1875 160.914 37.1875C158.117 37.1875 156.438 35.4531 156.438 33.0469V25.7266H157.844ZM167.039 33.8984H168.453C168.586 35.1172 169.742 35.9219 171.352 35.9219C172.875 35.9219 173.984 35.1172 173.984 34.0078C173.984 33.0547 173.32 32.4688 171.805 32.0781L170.359 31.7031C168.281 31.1719 167.359 30.2578 167.359 28.7266C167.359 26.8516 169 25.5391 171.344 25.5391C173.586 25.5391 175.211 26.8672 175.273 28.7578H173.867C173.742 27.5469 172.766 26.8047 171.297 26.8047C169.836 26.8047 168.82 27.5625 168.82 28.6641C168.82 29.5156 169.445 30.0234 170.977 30.4219L172.156 30.7344C174.492 31.3203 175.438 32.2188 175.438 33.8359C175.438 35.8984 173.812 37.1875 171.219 37.1875C168.828 37.1875 167.172 35.8906 167.039 33.8984ZM177.078 25.7266H180.867C184.211 25.7266 186.188 27.8125 186.188 31.3594C186.188 34.9141 184.219 37 180.867 37H177.078V25.7266ZM178.484 26.9922V35.7344H180.773C183.328 35.7344 184.75 34.1719 184.75 31.375C184.75 28.5547 183.336 26.9922 180.773 26.9922H178.484ZM188.164 26.9141H189.523V28.875H191.102V29.9922H189.523V34.8203C189.523 35.5625 189.836 35.8984 190.531 35.8984C190.688 35.8984 191 35.875 191.094 35.8594V37C190.93 37.0391 190.555 37.0625 190.234 37.0625C188.742 37.0625 188.164 36.4531 188.164 34.8906V29.9922H186.953V28.875H188.164V26.9141Z" fill="#041E5F"/>
<g clip-path="url(#clip0_603_45)">
<path d="M75.7667 26.4043V23.9963H82.4949V20.5264H64.5726V23.9963H71.3008V26.4043C66.5743 26.6635 63.0335 27.717 63.0083 28.9879V31.63C63.0335 32.8926 66.5827 33.9545 71.3008 34.2137V40.125H75.7667V34.2137C80.4932 33.9545 84.0339 32.9009 84.0592 31.63V28.9879C84.0339 27.7254 80.4848 26.6635 75.7667 26.4043ZM73.5295 32.3909C68.4834 32.3909 64.2698 31.4963 63.2438 30.3006C64.1185 29.2889 67.2807 28.4946 71.3008 28.2772V30.8023C72.0241 30.8441 72.7642 30.8608 73.5379 30.8608C74.3117 30.8608 75.0518 30.8441 75.7751 30.8023V28.2772C79.7868 28.4946 82.9574 29.2889 83.8321 30.3006C82.7976 31.4963 78.5841 32.3909 73.5464 32.3909H73.5295Z" fill="white"/>
<path d="M93.7897 28.194L86.9101 15.8194C86.6326 15.3177 86.1112 15 85.5477 15H61.9317C61.385 15 60.872 15.2926 60.586 15.7776L53.2355 28.1773C52.8486 28.8211 52.9495 29.6572 53.471 30.1923L72.3772 49.5318C72.9912 50.1589 73.9752 50.1589 74.5891 49.5318L93.529 30.1672C94.042 29.6488 94.143 28.8378 93.7897 28.194ZM84.0675 31.6304C84.0422 32.893 80.4931 33.9548 75.775 34.214V40.1254H71.3091V34.214C66.5826 33.9548 63.0418 32.9013 63.0166 31.6304V28.9883C63.0418 27.7258 66.591 26.6639 71.3091 26.4047V23.9967H64.5809V20.5268H82.5032V23.9967H75.775V26.4047C80.5015 26.6639 84.0422 27.7174 84.0675 28.9883V31.6304Z" fill="#009393"/>
<path d="M75.7666 30.8024C75.0434 30.8442 74.3032 30.861 73.5295 30.861C72.7558 30.861 72.0157 30.8442 71.2924 30.8024V28.2773C67.2807 28.4947 64.11 29.289 63.2354 30.3008C64.2698 31.4964 68.4834 32.3911 73.5211 32.3911C78.5588 32.3911 82.7724 31.4964 83.8068 30.3008C82.9322 29.289 79.7699 28.4947 75.7498 28.2773V30.8024H75.7666Z" fill="#009393"/>
</g>
<defs>
<clipPath id="clip0_603_45">
<rect width="41" height="35" fill="white" transform="translate(53 15)"/>
</clipPath>
</defs>
</svg>
