<svg width="243" height="61" viewBox="0 0 243 61" fill="none" xmlns="http://www.w3.org/2000/svg">
<rect x="0.5" y="0.5" width="242" height="60" stroke="#9D9D9D"/>
<path d="M102.094 24.7266H106.117C108.234 24.7266 109.727 26.2109 109.727 28.3438C109.727 30.4844 108.219 31.9766 106.102 31.9766H103.5V36H102.094V24.7266ZM103.5 25.9766V30.7266H105.75C107.359 30.7266 108.281 29.8438 108.281 28.3438C108.281 26.8516 107.367 25.9766 105.75 25.9766H103.5ZM113.109 34.9844C114.391 34.9844 115.375 34.0859 115.375 32.9141V32.25L113.203 32.3828C112.109 32.4531 111.484 32.9375 111.484 33.7031C111.484 34.4766 112.133 34.9844 113.109 34.9844ZM112.805 36.1406C111.188 36.1406 110.102 35.1641 110.102 33.7031C110.102 32.3125 111.172 31.4375 113.047 31.3281L115.375 31.1953V30.5156C115.375 29.5234 114.719 28.9297 113.594 28.9297C112.547 28.9297 111.891 29.4219 111.719 30.2188H110.406C110.5 28.8125 111.703 27.7344 113.625 27.7344C115.531 27.7344 116.734 28.7656 116.734 30.3828V36H115.445V34.6016H115.414C114.93 35.5312 113.898 36.1406 112.805 36.1406ZM119.133 39.0391C118.969 39.0391 118.695 39.0234 118.547 38.9922V37.8516C118.695 37.8828 118.906 37.8906 119.078 37.8906C119.836 37.8906 120.258 37.5234 120.57 36.5781L120.758 36.0078L117.758 27.875H119.211L121.461 34.6406H121.484L123.734 27.875H125.164L121.969 36.5703C121.273 38.4688 120.602 39.0391 119.133 39.0391ZM133.562 36.1406C132.375 36.1406 131.445 35.5625 130.922 34.625H130.891V36H129.594V24.7266H130.953V29.2344H130.984C131.492 28.3047 132.438 27.7344 133.586 27.7344C135.633 27.7344 137.016 29.3906 137.016 31.9375C137.016 34.4922 135.641 36.1406 133.562 36.1406ZM133.297 28.9297C131.922 28.9297 130.945 30.1328 130.945 31.9375C130.945 33.75 131.922 34.9453 133.297 34.9453C134.734 34.9453 135.625 33.7969 135.625 31.9375C135.625 30.0938 134.734 28.9297 133.297 28.9297ZM138.836 39.0391C138.672 39.0391 138.398 39.0234 138.25 38.9922V37.8516C138.398 37.8828 138.609 37.8906 138.781 37.8906C139.539 37.8906 139.961 37.5234 140.273 36.5781L140.461 36.0078L137.461 27.875H138.914L141.164 34.6406H141.188L143.438 27.875H144.867L141.672 36.5703C140.977 38.4688 140.305 39.0391 138.836 39.0391ZM153.695 36H149.438V24.7266H153.711C155.641 24.7266 156.945 25.8516 156.945 27.5391C156.945 28.7109 156.086 29.8047 155 30V30.0625C156.531 30.2578 157.516 31.3359 157.516 32.8359C157.516 34.8203 156.094 36 153.695 36ZM150.844 25.9688V29.5859H152.953C154.617 29.5859 155.523 28.9219 155.523 27.7031C155.523 26.5859 154.758 25.9688 153.391 25.9688H150.844ZM150.844 34.7578H153.484C155.18 34.7578 156.07 34.0703 156.07 32.7656C156.07 31.4609 155.148 30.7969 153.352 30.7969H150.844V34.7578ZM158.969 36V27.875H160.328V36H158.969ZM159.648 26.5078C159.188 26.5078 158.805 26.125 158.805 25.6641C158.805 25.1953 159.188 24.8203 159.648 24.8203C160.117 24.8203 160.5 25.1953 160.5 25.6641C160.5 26.125 160.117 26.5078 159.648 26.5078ZM162.602 25.9141H163.961V27.875H165.539V28.9922H163.961V33.8203C163.961 34.5625 164.273 34.8984 164.969 34.8984C165.125 34.8984 165.438 34.875 165.531 34.8594V36C165.367 36.0391 164.992 36.0625 164.672 36.0625C163.18 36.0625 162.602 35.4531 162.602 33.8906V28.9922H161.391V27.875H162.602V25.9141ZM173.508 30.5391H172.18C171.984 29.6562 171.297 28.9297 170.102 28.9297C168.695 28.9297 167.742 30.0938 167.742 31.9375C167.742 33.8281 168.711 34.9453 170.117 34.9453C171.227 34.9453 171.953 34.3594 172.188 33.3828H173.523C173.312 35 171.953 36.1406 170.109 36.1406C167.859 36.1406 166.359 34.5547 166.359 31.9375C166.359 29.375 167.852 27.7344 170.094 27.7344C172.125 27.7344 173.336 29.0781 173.508 30.5391ZM178.141 36.1406C175.891 36.1406 174.375 34.5234 174.375 31.9375C174.375 29.3438 175.891 27.7344 178.141 27.7344C180.383 27.7344 181.898 29.3438 181.898 31.9375C181.898 34.5234 180.383 36.1406 178.141 36.1406ZM178.141 34.9453C179.578 34.9453 180.516 33.8516 180.516 31.9375C180.516 30.0234 179.578 28.9297 178.141 28.9297C176.703 28.9297 175.758 30.0234 175.758 31.9375C175.758 33.8516 176.703 34.9453 178.141 34.9453ZM183.344 36V27.875H184.703V36H183.344ZM184.023 26.5078C183.562 26.5078 183.18 26.125 183.18 25.6641C183.18 25.1953 183.562 24.8203 184.023 24.8203C184.492 24.8203 184.875 25.1953 184.875 25.6641C184.875 26.125 184.492 26.5078 184.023 26.5078ZM186.539 36V27.875H187.82V29.1719H187.852C188.305 28.2969 189.172 27.7344 190.43 27.7344C192.211 27.7344 193.242 28.8828 193.242 30.7266V36H191.883V30.9688C191.883 29.6562 191.266 28.9375 190.016 28.9375C188.734 28.9375 187.898 29.8438 187.898 31.2188V36H186.539Z" fill="#041E5F"/>
<g clip-path="url(#clip0_603_52)">
<path d="M85.4777 34.7274C83.1401 44.0988 73.645 49.8101 64.2624 47.4693C54.8959 45.1365 49.1844 35.6444 51.522 26.265C53.8596 16.8936 63.3547 11.1903 72.7293 13.5231C82.1038 15.8639 87.8153 25.356 85.4777 34.7274Z" fill="#F39200"/>
<path d="M72.424 27.9703C71.8858 30.1422 68.544 29.0402 67.4596 28.7667L68.4155 24.9296C69.5 25.2031 72.9943 25.7019 72.424 27.9703ZM71.8295 34.1563C71.2351 36.5373 67.2186 35.2503 65.9172 34.9285L66.9695 30.7053C68.2709 31.0271 72.4481 31.6706 71.8295 34.1563ZM76.2156 28.0025C76.561 25.6778 74.7937 24.4229 72.3677 23.5863L73.155 20.433L71.2351 19.9584L70.4719 23.0312C69.9659 22.9025 69.4518 22.7899 68.9376 22.6692L69.7088 19.5803L67.7889 19.0977L67.0017 22.251C66.584 22.1544 66.1743 22.0579 65.7726 21.9614L63.1217 21.2937L62.6076 23.345C62.6076 23.345 64.0294 23.6748 64.0053 23.6909C64.7846 23.8839 64.9211 24.3987 64.897 24.809L63.9973 28.4047C64.0535 28.4208 64.1178 28.4369 64.1981 28.4691C64.1339 28.453 64.0696 28.4369 63.9973 28.4208L62.7442 33.4564C62.6478 33.6897 62.4068 34.0436 61.8605 33.9149C61.8766 33.9391 60.4628 33.569 60.4628 33.569L59.5068 35.7651L62.0051 36.3845C62.471 36.4971 62.9289 36.6258 63.3707 36.7384L62.5755 39.9319L64.4954 40.4146L65.2826 37.2533C65.8047 37.398 66.3189 37.5268 66.8169 37.6474L66.0297 40.7846L67.9496 41.2673L68.7448 38.0818C72.0223 38.7012 74.4804 38.4518 75.5167 35.4916C76.3521 33.1105 75.4765 31.735 73.7494 30.834C75.0026 30.5445 75.9505 29.7159 76.1995 28.0106" fill="white"/>
</g>
<defs>
<clipPath id="clip0_603_52">
<rect width="35" height="35" fill="white" transform="translate(51 13)"/>
</clipPath>
</defs>
</svg>
