<svg width="40" height="40" viewBox="0 0 40 40" fill="none" xmlns="http://www.w3.org/2000/svg">
<circle opacity="0.1" cx="20" cy="20" r="20" fill="#FD5F9A"/>
<path d="M28.3884 17.8416C28.0652 17.5039 27.731 17.1559 27.605 16.8499C27.4884 16.5696 27.4815 16.105 27.4747 15.655C27.4618 14.8185 27.4481 13.8705 26.789 13.2113C26.1298 12.5522 25.1818 12.5385 24.3452 12.5256C23.8952 12.5188 23.4307 12.5119 23.1504 12.3953C22.8452 12.2693 22.4964 11.935 22.1587 11.6119C21.5672 11.0436 20.8952 10.3999 20.0004 10.3999C19.1055 10.3999 18.4344 11.0436 17.8421 11.6119C17.5044 11.935 17.1564 12.2693 16.8504 12.3953C16.5718 12.5119 16.1055 12.5188 15.6555 12.5256C14.819 12.5385 13.871 12.5522 13.2118 13.2113C12.5527 13.8705 12.5432 14.8185 12.5261 15.655C12.5192 16.105 12.5124 16.5696 12.3958 16.8499C12.2698 17.155 11.9355 17.5039 11.6124 17.8416C11.0441 18.433 10.4004 19.105 10.4004 19.9999C10.4004 20.8948 11.0441 21.5659 11.6124 22.1582C11.9355 22.4959 12.2698 22.8439 12.3958 23.1499C12.5124 23.4302 12.5192 23.8948 12.5261 24.3448C12.539 25.1813 12.5527 26.1293 13.2118 26.7885C13.871 27.4476 14.819 27.4613 15.6555 27.4742C16.1055 27.481 16.5701 27.4879 16.8504 27.6045C17.1555 27.7305 17.5044 28.0648 17.8421 28.3879C18.4335 28.9562 19.1055 29.5999 20.0004 29.5999C20.8952 29.5999 21.5664 28.9562 22.1587 28.3879C22.4964 28.0648 22.8444 27.7305 23.1504 27.6045C23.4307 27.4879 23.8952 27.481 24.3452 27.4742C25.1818 27.4613 26.1298 27.4476 26.789 26.7885C27.4481 26.1293 27.4618 25.1813 27.4747 24.3448C27.4815 23.8948 27.4884 23.4302 27.605 23.1499C27.731 22.8448 28.0652 22.4959 28.3884 22.1582C28.9567 21.5668 29.6004 20.8948 29.6004 19.9999C29.6004 19.105 28.9567 18.4339 28.3884 17.8416ZM19.3147 15.8856C19.3147 15.7038 19.3869 15.5293 19.5155 15.4007C19.6441 15.2721 19.8185 15.1999 20.0004 15.1999C20.1823 15.1999 20.3567 15.2721 20.4853 15.4007C20.6139 15.5293 20.6861 15.7038 20.6861 15.8856V20.6856C20.6861 20.8675 20.6139 21.0419 20.4853 21.1705C20.3567 21.2991 20.1823 21.3713 20.0004 21.3713C19.8185 21.3713 19.6441 21.2991 19.5155 21.1705C19.3869 21.0419 19.3147 20.8675 19.3147 20.6856V15.8856ZM20.0004 24.7999C19.797 24.7999 19.5981 24.7396 19.4289 24.6266C19.2598 24.5135 19.128 24.3529 19.0501 24.1649C18.9723 23.977 18.9519 23.7702 18.9916 23.5707C19.0313 23.3711 19.1292 23.1879 19.2731 23.044C19.4169 22.9002 19.6002 22.8022 19.7997 22.7625C19.9992 22.7228 20.2061 22.7432 20.394 22.8211C20.582 22.8989 20.7426 23.0307 20.8556 23.1999C20.9686 23.369 21.029 23.5679 21.029 23.7713C21.029 24.0441 20.9206 24.3057 20.7277 24.4986C20.5348 24.6915 20.2732 24.7999 20.0004 24.7999Z" fill="#FD5F9A"/>
</svg>
