<svg width="58" height="58" viewBox="0 0 58 58" fill="none" xmlns="http://www.w3.org/2000/svg">
<circle cx="29" cy="29" r="29" fill="#0042A8"/>
<path d="M49.3868 34.4575C46.6478 45.4455 35.5151 52.125 24.5428 49.3858C13.5545 46.6468 6.87502 35.5147 9.61418 24.5425C12.3532 13.5545 23.4696 6.87502 34.458 9.61418C45.4303 12.3372 52.1259 23.4693 49.3868 34.4575Z" fill="url(#paint0_linear_5772_62)"/>
<path d="M39.2615 26.9454C39.6619 24.2228 37.5959 22.7493 34.7451 21.7724L35.674 18.0727L33.4318 17.5122L32.535 21.1157C31.9424 20.9716 31.3338 20.8274 30.7252 20.6993L31.6221 17.0798L29.3799 16.5192L28.467 20.2028C27.9705 20.0907 27.49 19.9786 27.0256 19.8665V19.8505L23.9186 19.0817L23.326 21.4841C23.326 21.4841 24.9916 21.8685 24.9596 21.8845C25.8725 22.1087 26.0326 22.7173 26.0006 23.1977L24.9436 27.4099C25.0076 27.4259 25.0877 27.4419 25.1838 27.4899C25.1037 27.4739 25.0236 27.4579 24.9436 27.4259L23.4701 33.3196C23.358 33.5919 23.0697 34.0083 22.4451 33.8482C22.4611 33.8802 20.8115 33.4478 20.8115 33.4478L19.6904 36.0263L22.6213 36.763C23.1658 36.9071 23.6943 37.0353 24.2229 37.1794L23.2939 40.9111L25.5361 41.4716L26.465 37.772C27.0736 37.9321 27.6822 38.0923 28.2588 38.2364L27.3459 41.92L29.5881 42.4806L30.517 38.7489C34.3608 39.4696 37.2436 39.1814 38.4447 35.706C39.4217 32.9192 38.3967 31.3017 36.3787 30.2446C37.8682 29.9083 38.9733 28.9313 39.2615 26.9454ZM34.1205 34.1525C33.4318 36.9392 28.7232 35.4337 27.2018 35.0493L28.435 30.1005C29.9565 30.4849 34.8572 31.2376 34.1205 34.1525ZM34.8252 26.8974C34.1846 29.4439 30.2768 28.1466 29.0115 27.8263L30.1326 23.3419C31.3979 23.6622 35.4818 24.2548 34.8252 26.8974Z" fill="white"/>
<defs>
<linearGradient id="paint0_linear_5772_62" x1="29.4889" y1="8.99016" x2="29.4889" y2="49.9959" gradientUnits="userSpaceOnUse">
<stop stop-color="#F9AA4B"/>
<stop offset="1" stop-color="#F7931A"/>
</linearGradient>
</defs>
</svg>
