<svg width="122" height="44" viewBox="0 0 122 44" fill="none" xmlns="http://www.w3.org/2000/svg">
<path d="M3.37378 38.215C2.89148 38.4372 2.36856 38.5609 1.83803 38.5735C0.86327 38.6139 0.0408187 37.8615 0.000203831 36.8918C0.000203831 36.8539 0.000203831 36.8186 0.000203831 36.7807C-0.0150267 35.7328 0.825193 34.8692 1.87864 34.8541C1.91926 34.8541 1.95733 34.8541 1.99795 34.8541C2.38379 34.8743 2.76709 34.9374 3.1377 35.0485C3.18593 35.0485 3.23162 35.0359 3.2697 35.0081H3.35093V35.9298H3.23416C3.15547 35.3566 2.64017 34.9475 2.06141 34.9955C1.05365 34.9955 0.538351 35.8262 0.538351 36.7428C0.538351 37.9094 1.36334 38.4296 2.02079 38.4296C2.32541 38.4296 2.62748 38.3539 2.89655 38.2125V37.4953C2.89655 37.1721 2.78232 37.061 2.4371 37.061H2.22641V36.9575H3.77231V37.061C3.48547 37.0787 3.37124 37.1746 3.37124 37.4196V38.2099L3.37378 38.215Z" fill="#041E5F"/>
<path d="M5.82638 38.5735C4.70439 38.5735 3.75756 37.8564 3.75756 36.7908C3.75756 35.6596 4.63331 34.8541 5.8543 34.8541C6.93567 34.8541 7.86474 35.5889 7.86474 36.6141C7.86474 37.6973 6.98136 38.5735 5.89238 38.5735C5.86953 38.5735 5.84668 38.5735 5.82384 38.5735H5.82638ZM5.70707 34.998C4.69931 34.998 4.29824 35.9323 4.29824 36.6166C4.29824 37.6822 5.02677 38.4321 5.94822 38.4321C6.86967 38.4321 7.32913 37.6115 7.32913 36.8034C7.32913 35.7429 6.6539 34.998 5.70961 34.998H5.70707Z" fill="#041E5F"/>
<path d="M8.40503 35.5459C8.40503 35.2227 8.36441 35.051 7.96334 35.051H7.7628V34.9424C7.92273 34.9374 8.31872 34.9146 8.48372 34.9071C8.79848 34.897 9.23509 34.8894 9.34425 34.8894C9.84939 34.8894 10.2885 34.9626 10.4967 35.1116C10.7175 35.2454 10.8495 35.4853 10.8445 35.7429C10.8216 36.0989 10.5475 36.3918 10.1921 36.4373V36.4499C10.7302 36.609 11.045 36.9575 11.045 37.4019C11.045 37.8463 10.7302 38.4826 9.80878 38.4826H7.71204V38.374H7.84403C8.31364 38.374 8.40503 38.2655 8.40503 37.9069V35.5434V35.5459ZM8.87971 36.4221H9.50417C10.055 36.4221 10.3292 36.205 10.3292 35.7606C10.3292 35.3616 10.088 34.998 9.38486 34.998C9.25794 34.998 9.0244 35.0106 8.87971 35.0156V36.4221ZM8.87971 37.7428C8.87971 38.1771 9.05233 38.3286 9.53209 38.3286C10.2885 38.3286 10.5068 37.8614 10.5068 37.417C10.5068 36.9726 10.1692 36.5282 9.49909 36.5282H8.87971V37.7428Z" fill="#041E5F"/>
<path d="M12.5403 38.4826H11.1492V38.374C11.5046 38.3564 11.5782 38.2655 11.5782 37.8842V35.4575C11.5782 35.1495 11.4691 35.0636 11.1492 35.0485V34.9399H12.5403V35.0485C12.1798 35.0485 12.0529 35.1293 12.0529 35.5106V37.9246C12.0529 38.2604 12.1443 38.374 12.5403 38.374V38.4826Z" fill="#041E5F"/>
<path d="M15.3274 37.2024H15.2182C15.1725 36.7984 15.0634 36.7529 14.8298 36.7529H13.8627V37.965C13.8627 38.2276 13.9592 38.2781 14.1724 38.2781H15.0558C15.4568 38.2781 15.5761 38.1241 15.7208 37.6342H15.8249L15.7335 38.4826H12.6925V38.374H12.8524C13.3093 38.374 13.3905 38.2478 13.3905 37.9069V35.503C13.3905 35.1848 13.3169 35.0485 12.9336 35.0485H12.8067V34.9399H15.5558L15.6015 35.7328H15.4974C15.4238 35.248 15.2791 35.147 15.0735 35.147H13.8652V36.5484H14.8908C15.0964 36.5484 15.1954 36.4524 15.2233 36.1216H15.3324V37.2049L15.3274 37.2024Z" fill="#041E5F"/>
<path d="M16.7561 37.9473C16.7561 38.2882 16.8931 38.374 17.213 38.374H17.345V38.4826H15.7229V38.374H15.8194C16.157 38.374 16.2763 38.2831 16.2763 37.9018V35.5055C16.2763 35.152 16.1798 35.051 15.8473 35.051H15.7204V34.9424C15.8575 34.9424 16.2078 34.9197 16.4413 34.9071C16.6748 34.8944 16.7891 34.8894 17.1622 34.8894C18.2207 34.8894 18.698 35.3237 18.698 35.9045C18.6853 36.3489 18.373 36.7302 17.9364 36.8261C18.1674 37.0105 18.3857 37.2074 18.5888 37.4195L19.0406 37.869C19.33 38.1973 19.7336 38.4018 20.1702 38.4447V38.5483C19.1676 38.5937 18.9112 38.3766 18.401 37.8715L18.0227 37.4953C17.8425 37.3084 17.6445 37.1393 17.4338 36.9878C17.2917 36.9928 17.1977 36.9979 17.0454 36.9979C16.9185 36.9979 16.8449 36.9928 16.7535 36.9878V37.9498L16.7561 37.9473ZM16.7561 36.8766C16.8728 36.8893 16.9921 36.8918 17.1114 36.8868C17.746 36.8868 18.1649 36.6191 18.1649 35.9348C18.1649 35.4045 17.9237 34.9954 17.0429 34.9954C16.9464 34.9954 16.8525 34.9954 16.7561 35.0081V36.8766Z" fill="#041E5F"/>
<path d="M23.3991 38.5811L20.4317 35.4955V37.9398C20.4317 38.3488 20.5231 38.4347 21.0105 38.4347V38.5433H19.6829V38.4347H19.7057C20.0611 38.4347 20.1753 38.316 20.1753 38.0534V35.2505C20.0332 35.1546 19.8656 35.1066 19.693 35.1091V35.0005H20.5916L23.29 37.7958V35.5283C23.29 35.1824 23.1859 35.1192 22.729 35.1066V34.998H24.0693V35.1066C23.6403 35.1066 23.5489 35.1798 23.5489 35.402V38.5786H23.3991V38.5811Z" fill="#041E5F"/>
<path d="M26.0019 38.5735C24.8799 38.5735 23.9331 37.8564 23.9331 36.7908C23.9331 35.6596 24.8088 34.8541 26.0298 34.8541C27.1112 34.8541 28.0402 35.5889 28.0402 36.6141C28.0402 37.6973 27.1569 38.5735 26.0679 38.5735C26.045 38.5735 26.0222 38.5735 25.9993 38.5735H26.0019ZM25.8826 34.998C24.8748 34.998 24.4737 35.9323 24.4737 36.6166C24.4737 37.6822 25.2023 38.4321 26.1237 38.4321C27.0452 38.4321 27.5046 37.6115 27.5046 36.8034C27.5046 35.7429 26.8294 34.998 25.8826 34.998Z" fill="#041E5F"/>
<path d="M29.9766 35.5106C29.9766 35.1419 29.8802 35.0485 29.5426 35.0485H29.4283V34.9399C29.639 34.9298 29.9208 34.9172 30.2356 34.9046C30.5503 34.8919 30.9006 34.8869 31.1976 34.8869C32.7105 34.8869 33.3807 35.6495 33.3807 36.5888C33.3807 37.4499 32.7105 38.4801 31.2611 38.4801H29.4283V38.3715H29.5248C29.8345 38.3715 29.9766 38.2857 29.9766 37.9549V35.5081V35.5106ZM30.4513 38.0609C30.4513 38.2932 30.4691 38.374 30.9209 38.374C31.6875 38.374 32.0099 38.2655 32.3653 37.912C32.6775 37.5786 32.8501 37.1367 32.84 36.6822C32.8552 36.2302 32.6902 35.7883 32.3831 35.4576C32.1191 35.1949 31.7129 34.9955 30.9108 34.9955C30.6772 34.9955 30.5224 35.0131 30.4539 35.0182V38.0609H30.4513Z" fill="#041E5F"/>
<path d="M35.8937 37.2024H35.7845C35.7388 36.7984 35.6297 36.7529 35.3962 36.7529H34.4265V37.965C34.4265 38.2276 34.5229 38.2781 34.7362 38.2781H35.6195C36.0206 38.2781 36.1399 38.1241 36.2846 37.6342H36.3887L36.2973 38.4826H33.2563V38.374H33.4162C33.8731 38.374 33.9543 38.2478 33.9543 37.9069V35.503C33.9543 35.1848 33.8807 35.0485 33.4974 35.0485H33.3705V34.9399H36.1196L36.1653 35.7328H36.0612C35.9876 35.248 35.8429 35.147 35.6373 35.147H34.429V36.5484H35.4545C35.6602 36.5484 35.7592 36.4524 35.7871 36.1216H35.8962V37.2049L35.8937 37.2024Z" fill="#041E5F"/>
<path d="M2.6993 42.6061H2.59015C2.54446 42.1945 2.43276 42.1491 2.19415 42.1491H1.21178V43.3788C1.21178 43.644 1.31078 43.697 1.52655 43.697H2.42261C2.82876 43.697 2.9506 43.5404 3.09529 43.043H3.19937L3.10545 43.904H0.0212569V43.7929H0.183716C0.648249 43.7929 0.729479 43.6667 0.729479 43.3182V40.879C0.729479 40.5557 0.653326 40.4169 0.264946 40.4169H0.138025V40.3083H2.92776L2.97345 41.1113H2.86937C2.79322 40.6189 2.64853 40.5153 2.43784 40.5153H1.21178V41.937H2.25254C2.46069 41.937 2.55969 41.8385 2.59015 41.5027H2.6993V42.6061Z" fill="#041E5F"/>
<path d="M5.99667 43.9066H3.39732V43.7955H3.59024C3.85677 43.7955 3.95577 43.7096 3.95577 43.4142V40.8537C3.95577 40.5482 3.86185 40.4194 3.49632 40.4194H3.41509V40.3108H5.13106V40.4194H4.9153C4.53707 40.4194 4.43807 40.4598 4.43807 40.8184V43.4824C4.43807 43.6389 4.50153 43.697 4.67161 43.697H5.52706C5.86975 43.697 5.97382 43.5632 6.33936 43.0607H6.44343L5.99667 43.904V43.9066Z" fill="#041E5F"/>
<path d="M8.12394 43.0278C8.21278 43.4975 8.62655 43.8384 9.10631 43.8434C9.49469 43.8434 9.90845 43.6187 9.90845 43.1617C9.90845 42.3309 8.04271 42.0759 8.04271 41.0633C8.04271 40.5835 8.48439 40.225 9.07839 40.225C9.56577 40.225 9.66476 40.3689 9.86784 40.3689C9.91099 40.3714 9.95161 40.3487 9.97191 40.3108H10.0658L10.1648 41.0456H10.0658C9.92622 40.6492 9.55307 40.3765 9.12915 40.3638C8.74585 40.3638 8.47932 40.5835 8.47932 40.9067C8.47932 41.7274 10.3451 41.9471 10.3451 43.0102C10.3451 43.5758 9.83992 43.9975 9.15962 43.9975C8.88547 43.9697 8.61639 43.9167 8.3524 43.8409C8.30417 43.8409 8.26101 43.8662 8.23563 43.904H8.13663L8.01478 43.0253H8.12394V43.0278Z" fill="#041E5F"/>
<path d="M11.6881 42.3107L11.3505 43.2172C11.2971 43.3334 11.2591 43.4571 11.2337 43.5809C11.2337 43.7374 11.3835 43.7955 11.7033 43.7955H11.7972V43.9066H10.4544V43.7955C10.8326 43.7904 10.8961 43.7273 11.0814 43.2248L12.1399 40.3538L12.0866 40.2275H12.5917L13.8077 43.4344C13.8533 43.6793 14.0894 43.8409 14.3356 43.798V43.9091H12.7364V43.798H12.8862C13.2187 43.798 13.3406 43.7627 13.3406 43.6011C13.3355 43.5177 13.3127 43.4395 13.2771 43.3637L12.8862 42.3107H11.6855H11.6881ZM12.2821 40.7098L11.7871 42.0557H12.7923L12.2821 40.7098Z" fill="#041E5F"/>
<path d="M16.9069 43.9066H14.3101V43.7955H14.503C14.7696 43.7955 14.8686 43.7096 14.8686 43.4142V40.8537C14.8686 40.5482 14.7746 40.4194 14.4091 40.4194H14.3279V40.3108H16.0413V40.4194H15.8255C15.4473 40.4194 15.3483 40.4598 15.3483 40.8184V43.4824C15.3483 43.6389 15.4118 43.697 15.5818 43.697H16.4373C16.78 43.697 16.8841 43.5632 17.2496 43.0607H17.3537L16.9044 43.9041L16.9069 43.9066Z" fill="#041E5F"/>
<path d="M18.2269 43.9975L16.9653 40.8714C16.8206 40.5078 16.7495 40.4219 16.3941 40.4219V40.3133H17.9933V40.4219C17.4577 40.4345 17.3308 40.5557 17.4425 40.8209L18.4883 43.4091L19.4072 41.0229C19.4606 40.9093 19.4936 40.7881 19.5062 40.6643C19.5062 40.4901 19.3616 40.4219 18.9656 40.4219V40.3133H20.3135V40.4219C20.0114 40.4219 19.854 40.5608 19.7144 40.9194L18.5163 44H18.2269V43.9975Z" fill="#041E5F"/>
<path d="M20.8718 42.3107L20.5342 43.2172C20.4808 43.3334 20.4428 43.4571 20.4174 43.5809C20.4174 43.7374 20.5672 43.7955 20.887 43.7955H20.9809V43.9066H19.6381V43.7955C20.0163 43.7904 20.0798 43.7273 20.2651 43.2248L21.3236 40.3538L21.2703 40.2275H21.7754L22.9914 43.4344C23.037 43.6793 23.2731 43.8409 23.5193 43.798V43.9091H21.9201V43.798H22.0699C22.4024 43.798 22.5243 43.7627 22.5243 43.6011C22.5192 43.5177 22.4964 43.4369 22.4608 43.3637L22.0724 42.3133H20.8692L20.8718 42.3107ZM21.4632 40.7098L20.9682 42.0557H21.9734L21.4607 40.7098H21.4632Z" fill="#041E5F"/>
<path d="M24.022 40.889C24.022 40.5128 23.923 40.4219 23.5803 40.4219H23.4635V40.3133C23.6793 40.3007 23.9636 40.2906 24.2835 40.278C24.6033 40.2653 24.9561 40.2603 25.2582 40.2603C26.7914 40.2603 27.4717 41.0355 27.4717 41.9875C27.4717 42.8612 26.7914 43.9065 25.3217 43.9065H23.4635V43.7954H23.5625C23.8773 43.7954 24.022 43.7096 24.022 43.3738V40.889ZM24.5043 43.4773C24.5043 43.7146 24.5221 43.7954 24.9815 43.7954C25.7608 43.7954 26.0857 43.6869 26.4462 43.3283C26.7635 42.9899 26.9361 42.543 26.9285 42.0809C26.9437 41.6213 26.7787 41.1744 26.464 40.8385C26.1974 40.5734 25.7837 40.3714 24.9714 40.3714C24.7328 40.3714 24.5754 40.3891 24.5068 40.3941V43.4798L24.5043 43.4773Z" fill="#041E5F"/>
<path d="M29.8303 43.9975C28.6931 43.9975 27.731 43.2702 27.731 42.1895C27.731 41.0406 28.6195 40.225 29.8582 40.225C30.9573 40.225 31.8991 40.9699 31.8991 42.0102C31.8991 43.1086 31.003 44 29.8988 44C29.876 44 29.8531 44 29.8303 44V43.9975ZM29.7084 40.3689C28.6855 40.3689 28.2793 41.3158 28.2793 42.0102C28.2793 43.091 29.018 43.8535 29.9521 43.8535C30.8863 43.8535 31.3533 43.0228 31.3533 42.1996C31.3533 41.1239 30.668 40.3664 29.7084 40.3664V40.3689Z" fill="#041E5F"/>
<path d="M32.8992 43.3637C32.8992 43.7096 33.0388 43.798 33.3637 43.798H33.4983V43.9066H31.8534V43.7955H31.9524C32.2951 43.7955 32.4169 43.7021 32.4169 43.3157V40.884C32.4169 40.5255 32.3179 40.4219 31.9803 40.4219H31.8534V40.3134C31.993 40.3134 32.3484 40.2906 32.587 40.278C32.8256 40.2654 32.9424 40.2603 33.3181 40.2603C34.3944 40.2603 34.8767 40.6997 34.8767 41.2881C34.864 41.74 34.5467 42.1239 34.1024 42.2249C34.336 42.4117 34.5568 42.6112 34.765 42.8258L35.2244 43.2829C35.5163 43.6162 35.9276 43.8233 36.3693 43.8662V43.9697C35.3513 44.0152 35.0924 43.7955 34.572 43.2829L34.1887 42.9016C34.006 42.7122 33.8054 42.5405 33.5897 42.3865C33.445 42.3915 33.3511 42.3991 33.1937 42.3991C33.0668 42.3991 32.9906 42.394 32.8967 42.3865V43.3637H32.8992ZM32.8992 42.2779C33.0185 42.2905 33.1404 42.293 33.2597 42.2905C33.9044 42.2905 34.3284 42.0178 34.3284 41.3259C34.3284 40.7881 34.0847 40.3714 33.1911 40.3714C33.0947 40.3714 32.9982 40.3714 32.9018 40.3841V42.2804L32.8992 42.2779Z" fill="#041E5F"/>
<path d="M18.2131 0L18.6395 0.861062L19.594 0.999943L18.9035 1.6691L19.066 2.61349L18.2131 2.16654L17.3601 2.61096L17.5226 1.66657L16.8322 0.997417L17.7866 0.858537L18.2131 0.00252511V0Z" fill="#041E5F"/>
<path d="M24.4911 1.59334L24.9175 2.4544L25.872 2.59328L25.1815 3.26243L25.344 4.20682L24.4911 3.75988L23.6382 4.2043L23.8006 3.25991L23.1102 2.59075L24.0646 2.45187L24.4911 1.59334Z" fill="#041E5F"/>
<path d="M29.3018 5.46688L29.7282 6.32794L30.6827 6.46682L29.9922 7.13598L30.1547 8.08037L29.3018 7.63342L28.4489 8.08037L28.6113 7.13598L27.9209 6.46682L28.8753 6.32794L29.3018 5.46688Z" fill="#041E5F"/>
<path d="M32.05 11.0145L32.4765 11.8756L33.4309 12.0145L32.7405 12.6836L32.9029 13.628L32.05 13.1811L31.1971 13.628L31.3596 12.6836L30.6691 12.0145L31.6236 11.8756L32.05 11.0145Z" fill="#041E5F"/>
<path d="M32.1574 17.4535L32.5839 18.3146L33.5383 18.4535L32.8479 19.1226L33.0103 20.067L32.1574 19.6201L31.3045 20.067L31.467 19.1226L30.7765 18.4535L31.731 18.3146L32.1574 17.4535Z" fill="#041E5F"/>
<path d="M29.3086 23.0264L29.735 23.8875L30.6895 24.0264L29.999 24.6955L30.1615 25.6399L29.3086 25.193L28.4556 25.6399L28.6181 24.6955L27.9277 24.0264L28.8821 23.8875L29.3086 23.0264Z" fill="#041E5F"/>
<path d="M24.5189 26.9025L24.9453 27.7636L25.8998 27.9025L25.2093 28.5716L25.3718 29.516L24.5189 29.0691L23.666 29.516L23.8284 28.5716L23.138 27.9025L24.0924 27.7636L24.5189 26.9025Z" fill="#041E5F"/>
<path d="M18.2112 28.2661L18.6377 29.1271L19.5921 29.266L18.9017 29.9352L19.0641 30.8796L18.2112 30.4326L17.3583 30.8796L17.5208 29.9352L16.8303 29.266L17.7847 29.1271L18.2112 28.2661Z" fill="#041E5F"/>
<path d="M12.0424 26.9075L12.4689 27.7686L13.4233 27.9075L12.7329 28.5766L12.8954 29.521L12.0424 29.0741L11.1895 29.521L11.352 28.5766L10.6615 27.9075L11.616 27.7686L12.0424 26.9101V26.9075Z" fill="#041E5F"/>
<path d="M7.25213 23.034L7.67858 23.8951L8.63303 24.034L7.94258 24.7031L8.10504 25.6475L7.25213 25.2006L6.39921 25.6475L6.56167 24.7031L5.87122 24.0314L6.82567 23.8926L7.25213 23.034Z" fill="#041E5F"/>
<path d="M4.39893 17.494L4.82538 18.355L5.77983 18.4939L5.08938 19.1631L5.25184 20.1074L4.39893 19.6605L3.54601 20.1049L3.70847 19.1605L3.01802 18.4914L3.97247 18.3525L4.39893 17.4965V17.494Z" fill="#041E5F"/>
<path d="M4.39893 11.0145L4.82538 11.8756L5.77983 12.0145L5.08938 12.6836L5.25184 13.628L4.39893 13.1811L3.54601 13.628L3.70847 12.6836L3.01802 12.0145L3.97247 11.8756L4.39893 11.0145Z" fill="#041E5F"/>
<path d="M7.10768 5.47442L7.53413 6.33548L8.48858 6.47436L7.79813 7.14352L7.96059 8.08791L7.10768 7.64096L6.25476 8.08791L6.41722 7.14352L5.72677 6.47436L6.68122 6.33548L7.11022 5.47442H7.10768Z" fill="#041E5F"/>
<path d="M12.035 1.59587L12.4615 2.45693L13.4159 2.59581L12.7255 3.26496L12.8879 4.20936L12.035 3.76241L11.1821 4.20936L11.3446 3.26496L10.6541 2.59581L11.6086 2.45693L12.035 1.59839V1.59587Z" fill="#041E5F"/>
<path d="M25.5317 17.6706C25.5317 17.6706 25.5215 17.6706 25.519 17.6681C25.453 17.6681 25.3997 17.7211 25.3997 17.7868C25.3997 17.8525 25.453 17.9055 25.519 17.9055C25.519 17.9055 25.5291 17.9055 25.5317 17.903C25.5368 17.903 25.5418 17.903 25.5469 17.9055C25.6129 17.9055 25.6662 17.8525 25.6662 17.7868C25.6662 17.7211 25.6129 17.6681 25.5469 17.6681C25.5469 17.6681 25.5368 17.6681 25.5317 17.6706Z" fill="#041E5F"/>
<path d="M26.847 16.0192C26.7455 16.0369 26.6465 16.0723 26.5577 16.1278C26.5069 16.1632 26.451 16.1859 26.3901 16.196C26.4257 16.1253 26.4409 16.047 26.4333 15.9687C26.413 15.7541 26.413 15.4006 26.413 15.4006C26.413 15.4006 26.3419 15.6152 26.2378 15.6683C26.1287 15.7188 25.9332 15.792 25.8977 15.8627C25.8621 15.9334 25.7174 15.9334 25.6616 16.1505C25.6489 16.244 25.6184 16.3349 25.5727 16.4157C25.56 16.4409 25.5448 16.4662 25.527 16.4889C25.5981 16.1783 25.6362 15.8627 25.6464 15.5445C25.6464 15.494 25.6464 15.446 25.6464 15.3981C25.6895 15.3602 25.7327 15.3223 25.7707 15.2794C25.8164 15.2036 26.3698 15.0168 26.446 14.8678C26.5221 14.7239 26.5653 14.6229 26.6008 14.5597C26.6567 14.4335 26.6846 14.2971 26.6896 14.1608C26.6846 13.9764 26.6643 13.7921 26.6287 13.6128C26.5424 13.6557 26.4663 13.7138 26.4028 13.787C26.385 13.8098 26.3647 13.8325 26.3419 13.8502C26.3419 13.7971 26.3343 13.7466 26.3165 13.6961C26.2403 13.5068 26.121 13.2568 26.121 13.2568C26.121 13.2568 26.017 13.4159 25.9611 13.5118C25.8672 13.6961 25.7758 13.7113 25.7606 13.7845C25.7504 13.8603 25.6362 13.9083 25.5956 14.0572C25.5829 14.0951 25.5753 14.1355 25.5677 14.1759C25.527 13.8578 25.4737 13.5699 25.4154 13.3098C25.4407 13.2265 25.4712 13.0447 25.5474 12.9866C25.6438 12.8932 25.6895 12.7593 25.6717 12.628C25.6692 12.5144 25.6514 12.4008 25.621 12.2897C25.6057 12.2013 25.3316 11.8276 25.3519 11.7215C25.3519 11.7215 25.2174 12.0245 25.1666 12.1432C25.0321 12.0094 24.8797 11.8932 24.7122 11.7998C24.6437 11.6836 24.5751 11.565 24.5041 11.4488C24.5066 11.4134 24.5142 11.3402 24.5269 11.2619C24.5624 11.1407 24.5675 11.012 24.5472 10.8882C24.5117 10.7998 24.4381 10.7291 24.4025 10.6206C24.3822 10.5196 24.3314 10.4261 24.2578 10.3529C24.169 10.2595 24.0421 10.1383 24.0421 10.1383C24.0421 10.1383 24.0065 10.2974 23.9735 10.4261C23.9431 10.411 23.9126 10.3984 23.8821 10.3908C23.8618 10.3832 23.8161 10.358 23.7654 10.3327C23.7045 10.2494 23.6435 10.1686 23.5877 10.0979C23.6207 10.0777 23.641 10.0398 23.641 10.0019C23.641 9.93373 23.5902 9.87818 23.5217 9.87566C23.4532 9.87566 23.3973 9.92616 23.3948 9.99434C23.3948 10.0625 23.4455 10.1181 23.5141 10.1206C23.5395 10.1206 23.5648 10.1155 23.5852 10.1004C23.6004 10.1256 23.6486 10.1989 23.7171 10.3075C23.6588 10.2771 23.6029 10.2443 23.5775 10.2266C23.5318 10.1963 23.5065 10.5473 23.6131 10.7418C23.5953 10.7367 23.5775 10.7317 23.5623 10.7291C23.4278 10.6938 23.2882 10.6837 23.1511 10.6938C23.2018 10.6938 23.3313 10.8327 23.3465 10.9034C23.3922 11.012 23.4658 11.1029 23.5623 11.171C23.6588 11.2266 23.7501 11.2922 23.8314 11.3705C23.971 11.4412 24.1284 11.4715 24.2858 11.4589C24.334 11.4892 24.3873 11.5018 24.4431 11.4968C24.5091 11.6104 24.5751 11.7266 24.6411 11.8427C24.6132 11.9437 24.6005 12.0447 24.6005 12.1483C24.5117 12.1331 24.2096 12.0599 24.2096 12.0599C24.2274 12.219 24.2807 12.3705 24.367 12.5068C24.3492 12.522 24.3365 12.5447 24.334 12.5674C24.3289 12.6053 24.3365 12.6432 24.3594 12.676C24.4 12.7391 24.4609 12.7871 24.5294 12.8174L23.0572 13.8477C23.1282 12.5876 23.08 11.3225 22.9125 10.0701C23.0902 10.0019 23.0419 9.92363 23.0419 9.92363L22.9734 9.7494C22.9912 9.75698 23.0115 9.76203 23.0318 9.76203C23.0648 9.76203 23.0952 9.7494 23.1155 9.72668C23.1587 9.67112 23.1511 9.59285 23.0952 9.54739C23.0622 9.51457 23.0242 9.48679 22.981 9.46659L23.1892 9.43629L23.3085 8.93127L22.8135 9.09792L22.8033 9.30751C22.7805 9.26711 22.75 9.23428 22.7145 9.20398C22.6713 9.15348 22.5952 9.1459 22.5444 9.18883C22.4936 9.23176 22.486 9.30751 22.5292 9.35801C22.5368 9.36559 22.5444 9.37316 22.552 9.38074C22.6028 9.42871 22.6662 9.46154 22.7348 9.47669C22.7348 9.48174 22.7399 9.48679 22.7424 9.48932L20.2725 12.1962L18.6327 9.46912C18.7342 8.80754 18.3763 7.80507 18.3636 7.76467C18.3864 7.67629 18.3966 7.58539 18.3915 7.49196C18.4651 7.46923 18.5235 7.41115 18.5464 7.33792V7.33035C18.488 7.25207 18.4245 7.18389 18.356 7.11572C18.3864 7.12329 18.4144 7.12582 18.4448 7.12582H18.455C18.5261 7.13087 18.587 7.07784 18.5921 7.00714C18.587 6.93643 18.5261 6.88341 18.4575 6.88846C18.4093 6.88593 18.3636 6.88846 18.3179 6.90361L18.4524 6.73947L18.1986 6.28495L17.9473 6.73947L18.0818 6.90361C18.0387 6.89098 17.9905 6.88341 17.9448 6.88846C17.9067 6.88846 17.8686 6.90361 17.8407 6.92886C17.8204 6.94906 17.8077 6.97683 17.8077 7.00714C17.8077 7.03744 17.8204 7.06521 17.8407 7.08541C17.8686 7.11066 17.9041 7.12582 17.9448 7.12582H17.9575C17.9828 7.12582 18.0057 7.12329 18.0285 7.11824C17.9879 7.15612 17.9321 7.21672 17.8965 7.25965C17.8813 7.27227 17.8711 7.2849 17.861 7.30005L17.8534 7.31015C17.8534 7.31015 17.8559 7.32277 17.8585 7.32782V7.33792C17.8762 7.37328 17.9016 7.40358 17.9346 7.42883C17.7468 7.77477 17.2848 8.78229 17.5513 9.83273L16.1349 12.1912L13.6548 9.47417C13.7284 9.46154 13.797 9.42871 13.8528 9.37821C13.8807 9.35296 13.8985 9.31508 13.901 9.27721C13.9061 9.2166 13.8604 9.1661 13.7995 9.16105C13.7995 9.16105 13.797 9.16105 13.7944 9.16105C13.7563 9.16105 13.7208 9.17368 13.6903 9.19893C13.6548 9.22671 13.6218 9.26458 13.599 9.30498L13.5888 9.09287L13.0938 8.92622L13.2131 9.43124L13.4238 9.46154C13.3807 9.48174 13.3451 9.50699 13.3121 9.53982C13.2842 9.56507 13.2639 9.60042 13.2614 9.64082C13.2614 9.67112 13.269 9.6989 13.2893 9.72163C13.3096 9.74435 13.3375 9.75698 13.368 9.75698H13.373C13.3934 9.75698 13.4137 9.75193 13.4314 9.74435L13.3629 9.91858C13.3629 9.91858 13.3147 9.99939 13.4924 10.065C13.3248 11.3175 13.2766 12.5826 13.3477 13.8426L11.8754 12.8124C11.9439 12.7846 12.0023 12.7366 12.0454 12.6735C12.0658 12.6457 12.0759 12.6103 12.0734 12.5775C12.0708 12.5523 12.0581 12.527 12.0404 12.5093C12.1267 12.373 12.1825 12.2215 12.1978 12.0599C12.1978 12.0599 11.8931 12.1306 11.8068 12.1483C11.8068 12.0447 11.7916 11.9412 11.7662 11.8427C11.8322 11.7266 11.8982 11.6104 11.9642 11.4968C12.0201 11.5018 12.0759 11.4867 12.1216 11.4589C12.279 11.4741 12.4364 11.4437 12.576 11.3705C12.6572 11.2922 12.7461 11.2266 12.8451 11.171C12.9415 11.1054 13.0177 11.012 13.0608 10.9034C13.0761 10.8327 13.2055 10.6938 13.2563 10.6938C13.1167 10.6837 12.9796 10.6938 12.8451 10.7291C12.8298 10.7342 12.8121 10.7367 12.7943 10.7418C12.9009 10.5473 12.8755 10.1963 12.8298 10.2266C12.8044 10.2418 12.7486 10.2746 12.6902 10.3075C12.7587 10.1989 12.807 10.1256 12.8222 10.1004C12.84 10.113 12.8628 10.1206 12.8857 10.1206C12.9517 10.1206 13.005 10.0676 13.005 10.0019C13.005 9.93626 12.9517 9.88323 12.8857 9.88323C12.8197 9.88323 12.7664 9.93626 12.7664 10.0019C12.7664 10.0423 12.7867 10.0777 12.8197 10.0979C12.7638 10.166 12.7029 10.2468 12.642 10.3327C12.5912 10.3605 12.5455 10.3832 12.5252 10.3908C12.4948 10.3984 12.4617 10.411 12.4338 10.4261C12.4008 10.2974 12.3653 10.1383 12.3653 10.1383C12.3653 10.1383 12.2358 10.262 12.1495 10.3529C12.0759 10.4261 12.0251 10.5196 12.0048 10.6206C11.9693 10.7291 11.8957 10.7998 11.8601 10.8882C11.8398 11.012 11.8449 11.1407 11.8804 11.2619C11.8906 11.3402 11.8982 11.4134 11.9033 11.4488C11.8322 11.5675 11.7611 11.6836 11.6951 11.7998C11.5301 11.8957 11.3778 12.0094 11.2408 12.1432C11.19 12.0245 11.0555 11.7215 11.0555 11.7215C11.0758 11.8301 10.8016 12.2038 10.7864 12.2897C10.7559 12.4008 10.7382 12.5144 10.7356 12.628C10.7178 12.7593 10.7635 12.8932 10.86 12.9866C10.9336 13.0472 10.9641 13.229 10.992 13.3098C10.9311 13.5699 10.8803 13.8578 10.8397 14.1759C10.8321 14.1355 10.8219 14.0951 10.8118 14.0572C10.7712 13.9083 10.6569 13.8628 10.6468 13.7845C10.6315 13.7138 10.5376 13.6961 10.4462 13.5118C10.3879 13.4133 10.2838 13.2543 10.2838 13.2543C10.2838 13.2543 10.1645 13.5042 10.0883 13.6936C10.0706 13.7441 10.0604 13.7946 10.0629 13.8477C10.0401 13.83 10.0198 13.8098 10.002 13.7845C9.93855 13.7113 9.8624 13.6532 9.77609 13.6103C9.74055 13.7921 9.72025 13.9739 9.71517 14.1582C9.71771 14.2946 9.74817 14.431 9.80401 14.5572C9.83955 14.6178 9.88017 14.7213 9.95886 14.8653C10.035 15.0143 10.5884 15.2011 10.6341 15.2769C10.6722 15.3198 10.7153 15.3577 10.7585 15.3955C10.7585 15.4435 10.7585 15.4915 10.7585 15.542C10.7661 15.8602 10.8067 16.1758 10.8778 16.4864C10.86 16.4637 10.8448 16.4384 10.8321 16.4132C10.7864 16.3298 10.7585 16.2389 10.7432 16.148C10.6874 15.9334 10.5427 15.9334 10.5072 15.8602C10.4716 15.7869 10.2736 15.7162 10.167 15.6657C10.0629 15.6152 9.99186 15.3981 9.99186 15.3981C9.99186 15.3981 9.99186 15.7516 9.97155 15.9662C9.96394 16.0445 9.97917 16.1228 10.0147 16.1935C9.95378 16.1834 9.89794 16.1581 9.84717 16.1253C9.75832 16.0723 9.66186 16.0344 9.55779 16.0167C9.58063 16.2086 9.61871 16.398 9.66694 16.5849C9.71263 16.7237 9.78625 16.85 9.88271 16.9586C9.93347 17.0141 10.0071 17.1025 10.1289 17.2262C10.2584 17.355 10.5808 17.3803 10.9387 17.499C11.0428 17.5318 11.1316 17.5974 11.19 17.6883C11.2027 17.7338 11.2128 17.7742 11.2205 17.8045C11.2611 17.9611 11.3144 18.1504 11.3753 18.3524C11.2484 18.2287 11.0783 18.158 10.9006 18.1555C10.7762 18.1353 10.2914 18.0116 10.2914 18.0116C10.4209 18.1656 10.5072 18.3499 10.5503 18.5444C10.365 18.5115 10.1746 18.5115 9.98678 18.5444C10.1797 18.6908 10.3447 18.8726 10.4665 19.0822C10.5376 19.2741 10.6417 19.4559 10.7712 19.615C10.827 19.6503 10.9869 19.8473 11.0961 19.9534C11.2052 20.0594 11.6317 20.0039 11.7764 20.0039C11.8906 20.0241 11.9998 20.0594 12.1038 20.1074C12.2409 20.2791 12.3932 20.4357 12.5582 20.5796C12.411 20.519 12.2764 20.4331 12.1622 20.322C12.0937 20.2286 12.1724 20.6377 12.2536 20.769C12.1444 20.7664 12.0353 20.7361 11.9414 20.6806C11.8221 20.5872 11.9261 21.0038 12.0556 21.12C12.3323 21.3649 12.3069 21.4053 12.3526 21.4204C12.1191 21.4659 11.7941 21.5467 11.6951 21.4886C11.5657 21.4179 11.8398 21.6679 12.0048 21.7285C12.2409 21.8169 12.2104 21.9684 12.4694 22.0517C12.6978 22.1502 12.9415 22.2058 13.1903 22.2159C13.3172 22.1729 13.4492 22.1401 13.5812 22.1174C13.7386 22.0997 14.0026 21.8926 14.3046 21.8548C14.589 22.029 14.8783 22.1881 15.1779 22.3345C15.1906 22.3396 15.2083 22.3472 15.2236 22.3547C15.1906 22.3573 15.155 22.3623 15.122 22.3699C14.9088 22.433 14.6854 22.4557 14.462 22.4406C14.363 22.3901 14.5737 22.678 14.7057 22.7865C14.5077 22.8295 14.3047 22.8446 14.1016 22.832C13.9569 22.8017 14.391 23.2158 14.561 23.2613L14.5813 23.2663C14.4747 23.3067 14.3656 23.332 14.2513 23.3421C14.1016 23.332 14.726 23.736 14.8961 23.7107C15.4419 23.635 15.9572 23.8193 16.211 23.7158C16.4369 23.6274 16.5715 23.5668 16.6857 23.5314C16.7999 23.491 16.8608 23.3875 16.9319 23.337C17.0005 23.2486 17.0918 23.1754 17.1934 23.1274C17.2035 23.1325 17.2137 23.135 17.2238 23.1325C17.4168 23.1426 17.6071 23.1426 17.8001 23.1325C17.7138 23.1678 17.6351 23.2158 17.564 23.2739C17.366 23.3294 17.1731 23.3976 16.9827 23.4734C16.6527 23.688 16.3455 23.9405 16.0689 24.2208C16.0689 24.2208 16.5334 24.1854 16.6045 24.1854C16.6755 24.1854 16.838 23.8673 16.9091 23.8117C16.9294 23.7966 17.0487 23.736 17.2213 23.6577C17.0436 23.9607 17.1045 24.3445 17.366 24.5794C17.2416 24.4354 17.3812 24.1854 17.3812 24.1854L17.6351 24.3445C17.3178 23.8041 17.8077 23.4456 17.9701 23.3446C17.9879 23.337 18.0031 23.332 18.0209 23.3244C18.0666 23.39 18.1402 23.4304 18.2214 23.433C18.2976 23.4304 18.3687 23.3926 18.4144 23.332C18.4474 23.3446 18.4804 23.3572 18.5108 23.3698C18.7012 23.4961 19.1023 23.8446 18.8078 24.3445L19.0591 24.1854C19.0591 24.1854 19.1987 24.4354 19.0744 24.5794C19.3307 24.3496 19.3942 23.9759 19.2292 23.6754C19.3815 23.7461 19.4856 23.7991 19.5034 23.8117C19.5744 23.8673 19.7369 24.1854 19.808 24.1854C19.879 24.1854 20.3436 24.2208 20.3436 24.2208C20.0669 23.938 19.7623 23.688 19.4297 23.4734C19.2546 23.4027 19.0744 23.3395 18.8916 23.2865C18.818 23.2234 18.7317 23.1703 18.6403 23.1325C18.8332 23.1426 19.0236 23.1426 19.2165 23.1325C19.219 23.1325 19.2241 23.1325 19.2267 23.1325C19.3231 23.1855 19.4094 23.2537 19.4805 23.337C19.5516 23.3875 19.615 23.491 19.7267 23.5314C19.841 23.5668 19.973 23.6274 20.2014 23.7158C20.4527 23.8193 20.968 23.635 21.5163 23.7107C21.6864 23.736 22.3109 23.332 22.1611 23.3421C22.0494 23.332 21.9377 23.3067 21.8311 23.2663L21.8514 23.2613C22.0215 23.2158 22.4555 22.7992 22.3109 22.832C22.1078 22.8446 21.9047 22.832 21.7067 22.7865C21.8387 22.678 22.0494 22.3901 21.9504 22.4406C21.727 22.4557 21.5036 22.4305 21.2904 22.3699C21.2574 22.3623 21.2219 22.3573 21.1889 22.3547C21.2066 22.3472 21.2219 22.3396 21.2346 22.3345C21.5341 22.1906 21.826 22.029 22.1103 21.8548C22.4124 21.8926 22.6764 22.0997 22.8338 22.1174C22.9658 22.1401 23.0978 22.1704 23.2247 22.2159C23.4735 22.2058 23.7171 22.1502 23.9456 22.0517C24.202 21.9709 24.1715 21.8169 24.4101 21.7285C24.5751 21.6679 24.8493 21.4154 24.7198 21.4886C24.6208 21.5467 24.2959 21.4684 24.0624 21.4204C24.1055 21.4028 24.0801 21.3649 24.3594 21.12C24.4888 21.0013 24.5929 20.5872 24.4736 20.6806C24.3797 20.7361 24.2705 20.7664 24.1614 20.769C24.2426 20.6351 24.3213 20.2261 24.2528 20.322C24.1385 20.4331 24.004 20.519 23.8568 20.5796C24.0218 20.4382 24.1741 20.2791 24.3111 20.1074C24.4152 20.0594 24.5244 20.0241 24.6386 20.0039C24.7833 20.0039 25.2097 20.0594 25.3189 19.9534C25.428 19.8473 25.588 19.6503 25.6438 19.615C25.7733 19.4534 25.8748 19.2741 25.9484 19.0822C26.0703 18.8726 26.2327 18.6908 26.4282 18.5444C26.2429 18.5115 26.0525 18.5115 25.8647 18.5444C25.9053 18.3499 25.9916 18.1656 26.1185 18.0116C26.1185 18.0116 25.6337 18.1353 25.5093 18.1555C25.3316 18.1555 25.1615 18.2262 25.0346 18.3524C25.0955 18.1479 25.1488 17.9585 25.1894 17.8045C25.1971 17.7742 25.2072 17.7363 25.2199 17.6883C25.2808 17.6 25.3697 17.5318 25.4712 17.499C25.8291 17.3803 26.1515 17.355 26.281 17.2262C26.4053 17.1025 26.4764 17.0167 26.5272 16.9586C26.6236 16.85 26.6973 16.7237 26.743 16.5849C26.7912 16.398 26.8267 16.2086 26.8496 16.0167L26.847 16.0192ZM25.56 15.6758C25.5397 15.9208 25.5042 16.1632 25.4484 16.4005C25.4407 16.2995 25.4128 16.2011 25.3671 16.1101C25.3164 16.0016 25.2427 16.0016 25.2072 15.8955C25.1717 15.7895 25.0473 15.7516 24.9737 15.6632C24.9077 15.5925 24.8341 15.5268 24.7579 15.4688C24.7071 15.691 24.6944 15.9182 24.7224 16.1455C24.7351 16.1808 24.7452 16.2162 24.7478 16.2516C24.6944 16.2314 24.6488 16.2162 24.6488 16.2162C24.5548 16.4258 24.664 16.6404 24.6995 16.8349C24.7325 16.9232 24.7731 17.0066 24.8239 17.0874C24.8594 17.1581 24.8442 17.2262 24.8797 17.2818C24.9127 17.3272 24.9914 17.3348 25.0727 17.4106C25.0727 17.504 25.0879 17.6 25.1158 17.6909C25.0473 17.9206 24.9711 18.153 24.8899 18.3853C24.8823 18.2969 24.8518 18.2136 24.8036 18.1378C24.7325 18.052 24.6792 17.956 24.6437 17.8499C24.5726 17.6555 24.4279 17.6555 24.4076 17.4611C24.3771 17.6025 24.3543 17.7439 24.3416 17.8853C24.3289 18.0116 24.3416 18.1378 24.3721 18.259C24.3771 18.3398 24.367 18.4206 24.3391 18.4989C24.3391 18.3903 24.3162 18.2843 24.268 18.1883C24.2324 18.1227 24.2198 18.0469 24.2324 17.9737C24.1563 18.105 24.0624 18.2262 23.9583 18.3348L23.8923 18.2237C24.8315 16.5874 24.6132 13.7896 24.5777 13.4058C24.73 13.3729 24.7021 13.2972 24.7021 13.2972L24.6716 13.1154C24.6843 13.1255 24.7021 13.133 24.7173 13.1381C24.7274 13.1406 24.7401 13.1431 24.7503 13.1431C24.7731 13.1431 24.7934 13.1356 24.8137 13.1229C24.8417 13.1027 24.8594 13.0724 24.8594 13.0396V13.0346C24.9102 13.1002 24.9762 13.1532 25.0524 13.1886C25.1818 13.2239 25.2884 13.282 25.3037 13.3325C25.3849 13.6684 25.4458 14.0067 25.4864 14.3501C25.3417 14.1885 25.3062 13.8855 24.9864 13.7239C24.994 13.7946 24.994 13.8679 24.9864 13.9386C24.9661 14.0295 24.9559 14.1254 24.9559 14.2188C24.8594 14.1557 24.7757 14.0749 24.7097 13.979C24.6817 14.2062 24.7046 14.4385 24.7807 14.6557C24.9102 14.888 24.9102 15.0092 25.0498 15.0597C25.1285 15.0875 25.2021 15.1329 25.2656 15.1885C25.3291 15.2365 25.4027 15.2642 25.4814 15.2769C25.4991 15.2769 25.5169 15.2895 25.527 15.3046C25.5347 15.34 25.5448 15.3779 25.555 15.4132C25.5575 15.5092 25.5575 15.5975 25.555 15.6784L25.56 15.6758ZM13.0659 13.7492L14.0178 14.4158C14.0051 14.7718 14.0508 15.1254 14.1523 15.4662L13.3604 16.7844C13.2309 16.5015 12.8958 15.5773 13.0634 13.7492H13.0659ZM11.5961 12.9765C11.6317 12.9159 11.6926 12.8704 11.7611 12.8528C11.7662 12.9235 11.7434 12.9942 11.6977 13.0522C11.685 13.0699 11.6672 13.0825 11.6469 13.0901C11.6317 13.0952 11.6139 13.0926 11.5987 13.0825C11.586 13.0724 11.5758 13.0573 11.5758 13.0396C11.5758 13.0169 11.5809 12.9942 11.5961 12.9765ZM14.726 10.7822L15.485 11.6129C15.4698 11.8427 15.4368 12.5573 15.6348 13.0068L14.9443 14.1532C14.7793 13.8199 14.4392 12.8376 14.726 10.7796V10.7822ZM17.6833 10.2443C18.0184 10.1862 18.3636 10.1862 18.6987 10.2418L18.8078 10.4211C18.4017 10.3327 17.9803 10.3352 17.5767 10.4261L17.6858 10.2443H17.6833ZM17.7696 10.1004L18.191 9.39841L18.6098 10.0979C18.3306 10.06 18.0463 10.0625 17.7671 10.1004H17.7696ZM17.4802 10.5827C17.9448 10.4539 18.4347 10.4514 18.9017 10.5776L19.0185 10.7721C18.4829 10.5877 17.8991 10.5903 17.3635 10.7796L17.4802 10.5852V10.5827ZM17.2492 10.964C17.8483 10.7039 18.5261 10.7014 19.1277 10.9539L22.0418 15.797H20.9731C20.9249 15.7667 20.8766 15.7339 20.8335 15.6986C20.8183 15.6859 20.8005 15.6733 20.7827 15.6607C20.7116 15.6152 20.6279 15.5975 20.5441 15.6152C20.501 15.6253 20.4578 15.6405 20.4197 15.6607C20.3791 15.6809 20.3436 15.7061 20.308 15.7314C20.3055 15.7339 20.3004 15.739 20.2953 15.739C20.2776 15.7314 20.2598 15.7238 20.242 15.7162C20.1481 15.6708 20.0593 15.6127 19.9806 15.547C19.9552 15.5243 19.9273 15.5066 19.8968 15.489C19.8486 15.4637 19.7927 15.4511 19.7369 15.4511C19.6988 15.4511 19.6607 15.4561 19.6227 15.4688C19.5694 15.4839 19.5211 15.5092 19.4754 15.5369C19.445 15.5571 19.4145 15.5773 19.3866 15.6001C19.384 15.6026 19.3815 15.6077 19.3739 15.6077H19.3663C19.313 15.5698 19.2546 15.542 19.1962 15.5167C19.1429 15.494 19.0921 15.4688 19.0414 15.4385C18.9703 15.3955 18.9043 15.3501 18.8434 15.2971C18.8205 15.2794 18.7977 15.2617 18.7723 15.2466C18.7215 15.2163 18.6631 15.1986 18.6022 15.1935C18.5616 15.191 18.521 15.1935 18.4804 15.2011C18.4271 15.2137 18.3738 15.2314 18.3255 15.2592C18.3001 15.2743 18.2748 15.2895 18.2494 15.3072V13.6305C18.4271 13.6204 18.5641 13.5573 18.5641 13.484C18.5641 13.4108 18.4347 12.9058 18.2646 12.7821C18.1605 12.7063 18.0184 12.7038 17.9118 12.772C17.9118 12.772 17.6909 12.9007 17.8026 13.08C17.8026 13.08 17.8255 13.1356 17.9245 13.0952C17.9651 13.0775 17.9955 13.0421 18.0031 12.9992V13.0421C18.0006 13.1053 17.9143 13.1381 17.9092 13.1406C17.8661 13.2517 17.8356 13.3654 17.8204 13.484C17.8204 13.5598 17.96 13.6204 18.1377 13.6305V15.3324L18.1224 15.3223C18.0488 15.2769 17.9778 15.2289 17.9118 15.1733C17.8864 15.1531 17.861 15.1355 17.8331 15.1178C17.7798 15.0875 17.7214 15.0673 17.663 15.0622C17.6148 15.0572 17.5665 15.0622 17.5183 15.0698C17.4625 15.0824 17.4066 15.1026 17.3558 15.1304C17.3025 15.1582 17.2518 15.191 17.2035 15.2289C17.201 15.2314 17.1959 15.2339 17.1908 15.2365L17.1782 15.2289C17.1553 15.2163 17.135 15.2036 17.1122 15.191C17.0817 15.1733 17.0487 15.1582 17.0157 15.1456C16.9725 15.1304 16.9294 15.1102 16.8888 15.0875C16.7695 15.0244 16.6578 14.9486 16.5537 14.8627C16.5435 14.8552 16.5334 14.8476 16.5232 14.84C16.4445 14.7794 16.3481 14.7415 16.2491 14.7314C16.2465 14.7314 16.2415 14.7314 16.2389 14.7289H16.1831C16.1831 14.7289 16.1755 14.7289 16.1704 14.7314C16.1044 14.7365 16.0409 14.7516 15.98 14.7769C15.9115 14.8047 15.8455 14.8425 15.782 14.8855C15.7135 14.9334 15.6475 14.989 15.584 15.0471C15.5053 15.1228 15.4317 15.2036 15.3632 15.2895C15.2972 15.3728 15.2337 15.4587 15.1753 15.5496C15.1728 15.5546 15.1703 15.5571 15.1652 15.5622C15.122 15.6127 15.0789 15.6632 15.0306 15.7087C15.0027 15.739 14.9697 15.7642 14.9393 15.7895H14.3453L17.2518 10.9539L17.2492 10.964ZM21.4402 14.1532L20.7497 13.0068C20.9477 12.5573 20.9147 11.8427 20.8995 11.6129L21.6585 10.7822C21.9453 12.8376 21.6052 13.8199 21.4402 14.1557V14.1532ZM24.6208 12.8502C24.6919 12.8679 24.7503 12.9134 24.7884 12.9765C24.8011 12.9942 24.8061 13.0144 24.8061 13.0371C24.8061 13.0548 24.796 13.0699 24.7833 13.08C24.7681 13.0901 24.7503 13.0926 24.7351 13.0876C24.7148 13.08 24.6944 13.0674 24.6843 13.0497C24.6411 12.9942 24.6183 12.9235 24.6234 12.8528L24.6208 12.8502ZM23.0191 16.7793L22.2271 15.4637C22.3312 15.1254 22.3769 14.7693 22.3616 14.4158L23.3135 13.7492C23.4811 15.5723 23.1485 16.4965 23.0165 16.7793H23.0191ZM12.7994 18.3651L13.5431 17.1303H22.5672C22.5672 17.1303 22.5596 17.1252 22.5571 17.1227C22.5419 17.1151 22.5266 17.1076 22.5114 17.0975C22.4581 17.0646 22.4073 17.0293 22.3591 16.9889C22.2702 16.9207 22.1865 16.845 22.1027 16.7692C21.9834 16.6581 21.8692 16.5445 21.7549 16.4258C21.6813 16.35 21.6077 16.2718 21.5366 16.191C21.5062 16.1556 21.4732 16.1228 21.4402 16.0899C21.3793 16.0319 21.3133 15.9814 21.2422 15.9359C21.2117 15.9157 21.1787 15.898 21.1457 15.8829H22.0951L23.5877 18.3625H12.7994V18.3651ZM14.2894 15.8854H14.8403C14.7336 15.9788 14.622 16.0647 14.5077 16.143C14.4976 16.1505 14.4874 16.1581 14.4747 16.1632C14.4138 16.2011 14.3529 16.2415 14.297 16.2844C14.2031 16.3551 14.1143 16.4308 14.0254 16.5091C13.9366 16.5874 13.8528 16.6682 13.769 16.749L14.2894 15.8829V15.8854ZM18.1681 15.5496C18.1884 15.5597 18.2088 15.5672 18.2316 15.5773C18.257 15.5875 18.2798 15.5976 18.3027 15.6102C18.3661 15.6455 18.4271 15.6859 18.4854 15.7289C18.5794 15.8021 18.6682 15.8854 18.7469 15.9763C18.8687 16.1127 18.9957 16.2465 19.1226 16.3778C19.1759 16.4308 19.2292 16.4864 19.2825 16.5394C19.417 16.6732 19.5567 16.8046 19.7014 16.9283L19.7293 16.951L19.7344 16.9561L19.0287 16.9586C19.0211 16.9586 19.0134 16.9586 19.0084 16.951L18.9627 16.9157C18.8637 16.8399 18.7697 16.7591 18.6784 16.6758C18.5718 16.5798 18.4677 16.4839 18.3661 16.3829C18.1428 16.1657 17.927 15.941 17.7163 15.7112C17.6808 15.6708 17.6452 15.6304 17.6071 15.59C17.5259 15.5041 17.4396 15.4258 17.3457 15.3526C17.3432 15.3501 17.3381 15.3476 17.3355 15.345L17.3406 15.34C17.3863 15.3072 17.4345 15.2819 17.4853 15.2617C17.5132 15.2516 17.5437 15.244 17.5741 15.239C17.6275 15.2314 17.6833 15.239 17.7315 15.2668C17.7544 15.2794 17.7772 15.2945 17.7975 15.3097C17.8508 15.3551 17.9067 15.3955 17.9651 15.4334C18.0311 15.4763 18.0996 15.5142 18.1707 15.547L18.1681 15.5496ZM21.0112 16.0167C21.0112 16.0167 21.034 16.0268 21.0442 16.0319C21.0721 16.042 21.0975 16.0546 21.1229 16.0697C21.1889 16.1101 21.2498 16.1556 21.3082 16.2086C21.3437 16.2415 21.3793 16.2768 21.4123 16.3147C21.4783 16.3879 21.5468 16.4611 21.6153 16.5344C21.6763 16.5975 21.7397 16.6631 21.8032 16.7263C21.8793 16.8046 21.958 16.8778 22.0392 16.9485C22.0443 16.951 22.0469 16.9561 22.0494 16.9611H21.6534C21.6433 16.9611 21.6356 16.9611 21.628 16.9535C21.5544 16.8929 21.4833 16.8298 21.4123 16.7667C21.3412 16.7035 21.2752 16.6404 21.2092 16.5748C21.062 16.4308 20.9223 16.2844 20.7827 16.1329C20.7523 16.1 20.7243 16.0697 20.6939 16.0369C20.6253 15.9662 20.5517 15.9031 20.473 15.8475L20.4629 15.84C20.4629 15.84 20.4629 15.8374 20.4654 15.8349C20.4984 15.8122 20.534 15.797 20.572 15.7895C20.6101 15.7819 20.6482 15.7895 20.6812 15.8071C20.6939 15.8147 20.7066 15.8248 20.7193 15.8349C20.8081 15.9081 20.9046 15.9687 21.0086 16.0167H21.0112ZM20.4781 16.0672C20.5314 16.1127 20.5822 16.1632 20.6279 16.2162C20.7294 16.3298 20.8335 16.4409 20.9401 16.5495C21.0366 16.648 21.133 16.7439 21.2346 16.8374C21.2752 16.8753 21.3158 16.9106 21.3564 16.9485L21.3666 16.9586C21.3666 16.9586 21.364 16.9586 21.3615 16.9586H20.8106C20.8106 16.9586 20.8056 16.9586 20.803 16.9586C20.7954 16.9586 20.7903 16.9586 20.7853 16.9535C20.7497 16.9232 20.7116 16.8955 20.6761 16.8626C20.572 16.7768 20.473 16.6833 20.374 16.5899C20.3182 16.5344 20.2598 16.4813 20.204 16.4258C20.0567 16.2793 19.9146 16.1303 19.7775 15.9788C19.747 15.946 19.7166 15.9107 19.6836 15.8778C19.6328 15.8248 19.577 15.7743 19.5211 15.7289L19.5135 15.7213L19.5186 15.7162C19.5541 15.6885 19.5947 15.6657 19.6354 15.6481C19.6633 15.638 19.6912 15.6304 19.7191 15.6279C19.7496 15.6279 19.78 15.6329 19.808 15.6481C19.8257 15.6582 19.8435 15.6708 19.8587 15.6834C19.945 15.7541 20.0364 15.8147 20.1354 15.8652C20.1633 15.8804 20.1913 15.8905 20.2192 15.9031C20.2471 15.9132 20.2725 15.9258 20.2979 15.941C20.3613 15.9763 20.4197 16.0192 20.4756 16.0672H20.4781ZM19.6227 16.0622C19.7014 16.1505 19.7826 16.2364 19.8638 16.3223C19.9374 16.4005 20.011 16.4763 20.0872 16.552C20.2167 16.6808 20.3487 16.8071 20.4857 16.9258C20.4959 16.9359 20.506 16.9434 20.5162 16.9535L20.5213 16.9586H20.0212C20.0136 16.9586 20.006 16.9586 19.9983 16.951C19.9628 16.9207 19.9247 16.8929 19.8892 16.8626C19.7699 16.7641 19.6557 16.6606 19.5465 16.5546C19.4881 16.4965 19.4272 16.4384 19.3688 16.3803C19.2114 16.2238 19.0591 16.0622 18.9094 15.898C18.8738 15.8602 18.8408 15.8223 18.8053 15.7844C18.7164 15.691 18.62 15.6077 18.5159 15.5344C18.4651 15.4991 18.4144 15.4688 18.3611 15.441L18.3534 15.4359C18.3534 15.4359 18.3534 15.4334 18.356 15.4309C18.4017 15.4031 18.4499 15.3804 18.5032 15.3678C18.5286 15.3627 18.5565 15.3602 18.5844 15.3627C18.6174 15.3652 18.6479 15.3753 18.6758 15.3905C18.6987 15.4031 18.719 15.4157 18.7367 15.4334C18.8434 15.5218 18.9627 15.5975 19.0871 15.6556C19.1048 15.6632 19.1226 15.6708 19.1404 15.6784C19.1708 15.691 19.2013 15.7061 19.2317 15.7213C19.2977 15.7592 19.3612 15.8046 19.4196 15.8526C19.4932 15.9132 19.5617 15.9814 19.6252 16.0521L19.6227 16.0622ZM17.4193 15.6531C17.4675 15.7011 17.5132 15.7516 17.5589 15.8021C17.6097 15.8576 17.6605 15.9132 17.7112 15.9687C17.8051 16.0672 17.8965 16.1657 17.993 16.2617C18.1631 16.4334 18.3357 16.6025 18.5159 16.7667C18.5844 16.8298 18.6555 16.8904 18.7266 16.9485L18.7393 16.9586H13.8071C13.8071 16.9586 13.8071 16.951 13.8097 16.951C13.8325 16.9283 13.8553 16.9056 13.8782 16.8828C13.9518 16.8096 14.028 16.7389 14.1041 16.6707C14.198 16.5874 14.292 16.5066 14.391 16.4308C14.4493 16.3854 14.5128 16.3425 14.5763 16.3046C14.594 16.2945 14.6118 16.2819 14.6296 16.2692C14.787 16.1606 14.9342 16.042 15.0738 15.9107C15.1525 15.8374 15.2286 15.7566 15.2972 15.6733C15.3023 15.6683 15.3073 15.6632 15.3099 15.6556C15.3683 15.5647 15.4317 15.4763 15.5003 15.3905C15.5561 15.3223 15.6145 15.2592 15.6754 15.1961C15.7389 15.1329 15.8099 15.0749 15.8836 15.0218C15.9318 14.989 15.9851 14.9612 16.0409 14.9385C16.079 14.9233 16.1171 14.9132 16.1577 14.9082C16.2262 14.9006 16.2948 14.9132 16.3557 14.9461C16.3811 14.9612 16.4065 14.9789 16.4319 14.9966C16.4877 15.042 16.5435 15.085 16.6045 15.1254C16.673 15.1733 16.7466 15.2137 16.8202 15.2516C16.8608 15.2718 16.9015 15.2895 16.9421 15.3046C16.97 15.3147 16.9954 15.3274 17.0208 15.3425C17.0893 15.3804 17.1553 15.4233 17.2188 15.4713C17.2898 15.5268 17.3584 15.5849 17.4218 15.6481L17.4193 15.6531ZM16.3075 18.6908C16.5461 18.8676 16.8152 18.9963 17.102 19.0721C16.9116 19.1302 15.6703 19.4559 14.6093 18.6908H16.3075ZM18.0006 19.6933C18.0006 19.6933 18.1199 19.0797 18.1859 18.6908C18.2544 19.0771 18.3712 19.6933 18.3712 19.6933C18.3991 19.9029 18.3306 20.1124 18.1859 20.2665C18.0412 20.1124 17.9727 19.9029 18.0006 19.6933ZM20.0694 18.6908H21.7676C20.7066 19.4559 19.4653 19.1302 19.2749 19.0721C19.5617 18.9963 19.8308 18.865 20.0694 18.6883V18.6908ZM24.3898 12.6381C24.3746 12.6179 24.3695 12.5952 24.3721 12.5725C24.3721 12.5598 24.3797 12.5497 24.3898 12.5396C24.3949 12.5447 24.4 12.5472 24.4051 12.5523C24.466 12.5901 24.5168 12.6406 24.5548 12.7013C24.5599 12.7215 24.5599 12.7442 24.5548 12.7644C24.4863 12.7442 24.4254 12.6987 24.3873 12.6381H24.3898ZM23.0546 9.68122C23.0242 9.70648 22.9759 9.70395 22.9505 9.67112C22.8998 9.6282 22.8642 9.56759 22.849 9.50194C22.849 9.49942 22.8541 9.49437 22.8541 9.49184C22.9226 9.49689 22.9886 9.52719 23.0343 9.57769C23.0648 9.60042 23.0724 9.64587 23.0521 9.6787L23.0546 9.68122ZM22.9125 9.1964L23.1028 9.13075L23.0572 9.32518L22.9049 9.34791L22.9125 9.19388V9.1964ZM22.5571 9.23428C22.5571 9.23428 22.5825 9.2166 22.5977 9.2166C22.6205 9.2166 22.6434 9.22671 22.6612 9.24438C22.7119 9.28478 22.7475 9.34286 22.7602 9.40851C22.7475 9.40851 22.7373 9.40851 22.7272 9.41861C22.6688 9.40599 22.6155 9.37821 22.5723 9.33781C22.5393 9.31508 22.5292 9.26963 22.552 9.23428H22.5571ZM18.422 6.94148C18.422 6.94148 18.4347 6.94148 18.4423 6.94148C18.4778 6.93138 18.5134 6.95411 18.521 6.98946C18.5286 7.02481 18.5083 7.06016 18.4728 7.06774C18.4626 7.07026 18.4499 7.07026 18.4398 7.06774C18.3687 7.07026 18.2976 7.04754 18.2418 7.00461C18.29 6.96168 18.3534 6.93643 18.4194 6.93896L18.422 6.94148ZM18.1884 6.56524L18.2874 6.742L18.191 6.86068L18.092 6.742L18.1884 6.56524ZM17.9346 7.07026C17.9118 7.07026 17.8864 7.06269 17.8711 7.04501C17.8508 7.02734 17.8483 6.99451 17.8661 6.97178C17.8661 6.97178 17.8686 6.96926 17.8711 6.96673C17.8889 6.94906 17.9143 6.94148 17.9397 6.94148C18.0108 6.93391 18.0818 6.95663 18.1351 7.00461C18.0793 7.05006 18.0057 7.07026 17.9346 7.06774V7.07026ZM18.1428 8.24191C18.2316 8.09293 18.3001 7.93132 18.3408 7.76467C18.4068 8.14596 18.3839 8.53735 18.2748 8.90854L18.1834 8.75704L17.8838 9.25448C17.8559 8.89844 17.9448 8.5424 18.1402 8.24191H18.1428ZM13.7132 9.24185C13.731 9.22418 13.7538 9.2166 13.7767 9.2166C13.7919 9.2166 13.8046 9.22418 13.8147 9.23428C13.8249 9.24438 13.83 9.25953 13.8274 9.27468C13.8274 9.29993 13.8147 9.32266 13.7944 9.33781C13.7462 9.38579 13.6827 9.41609 13.6142 9.42366H13.604C13.6117 9.35044 13.6497 9.28478 13.7081 9.24185H13.7132ZM13.269 9.13328L13.4594 9.19893L13.467 9.35296L13.3147 9.33023L13.269 9.1358V9.13328ZM13.3578 9.70142C13.3426 9.70142 13.3299 9.69637 13.3197 9.68375C13.3096 9.67365 13.3045 9.6585 13.307 9.64335C13.307 9.6181 13.3197 9.59537 13.34 9.58022C13.3857 9.53224 13.4492 9.50194 13.5152 9.49437H13.5279C13.5152 9.56507 13.4797 9.6282 13.4238 9.67365C13.406 9.69133 13.3832 9.6989 13.3578 9.69637V9.70142ZM11.9845 12.6407C11.9464 12.7013 11.8881 12.7442 11.8195 12.7644C11.817 12.7442 11.817 12.724 11.8195 12.7038C11.8601 12.6432 11.9109 12.5901 11.9718 12.5523C11.9769 12.5497 11.982 12.5447 11.9845 12.5422C11.9947 12.5523 11.9998 12.5649 12.0023 12.58C12.0023 12.6028 11.9972 12.623 11.9845 12.6407ZM10.8219 15.4132C10.8346 15.3779 10.8422 15.3425 10.8498 15.3046C10.86 15.2895 10.8778 15.2794 10.8955 15.2769C10.9742 15.2668 11.0478 15.2365 11.1113 15.1885C11.1748 15.1329 11.2484 15.09 11.3271 15.0597C11.4667 15.0092 11.4667 14.8855 11.5961 14.6557C11.6723 14.4385 11.6977 14.2062 11.6672 13.979C11.6012 14.0749 11.52 14.1557 11.4235 14.2188C11.4235 14.1254 11.4134 14.032 11.3931 13.9386C11.3855 13.8679 11.3855 13.7946 11.3931 13.7239C11.0732 13.8881 11.0377 14.1911 10.893 14.3501C10.9336 14.0093 10.9945 13.6709 11.0758 13.3351C11.091 13.2846 11.2002 13.2265 11.3271 13.1911C11.4007 13.1558 11.4641 13.1053 11.5149 13.0421C11.5149 13.0775 11.5327 13.1078 11.5606 13.128C11.5784 13.1406 11.6012 13.1482 11.6241 13.1482C11.6342 13.1482 11.6469 13.1482 11.6571 13.1431C11.6748 13.1381 11.6901 13.1305 11.7028 13.1204L11.6723 13.3022C11.6723 13.3022 11.6469 13.3805 11.7967 13.4108C11.7611 13.7946 11.5403 16.595 12.4846 18.2312L12.4186 18.3398C12.312 18.2312 12.2206 18.11 12.1444 17.9787C12.1571 18.052 12.1444 18.1277 12.1089 18.1934C12.0607 18.2893 12.0378 18.3954 12.0378 18.5039C12.0124 18.4282 12.0023 18.3449 12.0048 18.2641C12.0378 18.1429 12.048 18.0166 12.0353 17.8903C12.0226 17.7464 11.9998 17.605 11.9693 17.4661C11.949 17.6606 11.8043 17.6606 11.7332 17.855C11.6977 17.9611 11.6444 18.057 11.5733 18.1429C11.5251 18.2161 11.4946 18.3019 11.487 18.3903C11.4058 18.158 11.3296 17.9232 11.2611 17.6959C11.289 17.605 11.3042 17.5116 11.3042 17.4156C11.3855 17.3424 11.4641 17.3348 11.4971 17.2868C11.5327 17.2313 11.5175 17.1631 11.553 17.0924C11.6038 17.0141 11.6444 16.9283 11.6774 16.8399C11.7129 16.6455 11.8221 16.4308 11.7281 16.2213C11.7281 16.2213 11.6825 16.2364 11.6291 16.2566C11.6342 16.2213 11.6418 16.1834 11.6545 16.1505C11.6825 15.9258 11.6698 15.696 11.619 15.4738C11.5403 15.5319 11.4692 15.5976 11.4032 15.6683C11.3321 15.7566 11.2078 15.792 11.1697 15.9006C11.1316 16.0091 11.0605 16.0091 11.0098 16.1152C10.9641 16.2061 10.9362 16.3046 10.9285 16.4056C10.8727 16.1657 10.8372 15.9233 10.8168 15.6809C10.8168 15.6001 10.8168 15.5092 10.8168 15.4157L10.8219 15.4132ZM18.9119 22.7992C18.752 22.7992 18.5921 22.8396 18.4499 22.9153C18.4499 22.9103 18.4448 22.9052 18.4448 22.9002C18.6327 22.582 18.8434 22.279 19.0718 21.9886C19.1784 22.2664 19.115 22.582 18.9119 22.7992ZM17.9524 22.9153C17.8102 22.8396 17.6528 22.8017 17.4904 22.7992C17.2873 22.582 17.2238 22.2664 17.3305 21.9886C17.5589 22.279 17.7696 22.5845 17.9575 22.9002C17.9575 22.9052 17.9549 22.9103 17.9524 22.9153ZM23.4709 20.6654C23.4811 20.6503 23.4887 20.6326 23.4938 20.6124C23.5344 20.5038 23.5598 20.3902 23.5648 20.274C23.5445 20.1301 23.509 19.9862 23.4557 19.8498C23.4049 19.7211 23.2805 19.4256 23.1511 19.3675C23.1511 19.3675 23.047 19.7059 23.0115 19.8296C22.9886 19.9483 22.9455 20.0645 22.882 20.168C22.8541 20.2109 22.8262 20.2564 22.8033 20.3044C22.7957 20.2261 22.7982 20.1453 22.8109 20.067C22.8312 19.8322 22.4555 19.4635 22.4555 19.4635C22.4479 19.6781 22.3845 19.8852 22.2753 20.067C22.1738 20.221 22.1078 20.3953 22.0799 20.5796C22.0672 20.7033 22.0164 20.822 21.9352 20.9179C21.8286 21.0619 21.9479 21.6704 21.9606 21.7411C21.7219 21.8876 21.4706 22.0315 21.2396 22.1477C21.1711 22.183 21.0899 22.2159 21.0061 22.2537C21.0213 22.2386 21.0391 22.226 21.0543 22.2108C21.2219 22.0643 21.3437 21.875 21.4097 21.6629C21.5214 21.6427 21.2599 21.6149 21.1076 21.63C21.1965 21.4962 21.3183 21.3119 21.4046 21.1553C21.4706 21.0265 20.8284 21.1957 20.8284 21.1957C20.7599 21.2235 20.704 21.2437 20.6558 21.2614C20.704 21.1149 20.737 20.9634 20.7599 20.8119C20.7548 20.7614 20.4857 20.8472 20.27 20.9407C20.11 21.0366 19.9577 21.1427 19.8156 21.2639C19.6252 21.3876 19.5998 21.6932 19.511 21.8371C19.4653 21.9128 19.4272 21.9936 19.3993 22.077C19.3993 21.981 19.3536 21.8901 19.2724 21.8396H19.2647C19.2647 21.8396 19.2597 21.832 19.2546 21.832C19.2419 21.827 19.2317 21.8245 19.219 21.8219C19.1784 21.8118 19.1124 21.8017 19.0058 21.7916C18.818 21.7538 18.6276 21.832 18.521 21.9911C18.4245 22.2361 18.3458 22.4886 18.2849 22.7436C18.2595 22.7335 18.2291 22.7259 18.2011 22.7259C18.1732 22.7259 18.1453 22.7335 18.1174 22.7436C18.0564 22.4886 17.9778 22.2361 17.8813 21.9911C17.7772 21.832 17.5843 21.7538 17.3965 21.7916C17.2898 21.8043 17.2238 21.8144 17.1832 21.8219C17.1705 21.8219 17.1578 21.827 17.1477 21.832H17.1375L17.1299 21.8396C17.0639 21.8724 17.0005 21.9608 16.9979 22.1704C16.9776 22.0517 16.9319 21.9381 16.8634 21.8396C16.7745 21.6957 16.7492 21.3876 16.5588 21.2664C16.4166 21.1452 16.2669 21.0366 16.1044 20.9432C15.8886 20.8498 15.6196 20.7639 15.6145 20.8144C15.6373 20.9659 15.6703 21.1174 15.7186 21.2639C15.6729 21.2462 15.617 21.226 15.5459 21.1982C15.5459 21.1982 14.9012 21.0291 14.9697 21.1578C15.056 21.3144 15.1779 21.4987 15.2667 21.6326C15.1144 21.6199 14.853 21.6477 14.9646 21.6654C15.0306 21.8775 15.155 22.0669 15.32 22.2133C15.3353 22.2285 15.353 22.2411 15.3683 22.2563C15.2819 22.2209 15.2033 22.1856 15.1347 22.1502C14.9012 22.034 14.6524 21.8901 14.4138 21.7437C14.429 21.6755 14.5483 21.0669 14.4417 20.9205C14.3605 20.8245 14.3097 20.7058 14.297 20.5821C14.2691 20.4003 14.2031 20.2235 14.1016 20.0695C13.9924 19.8852 13.929 19.6781 13.9213 19.466C13.9213 19.466 13.5457 19.8347 13.566 20.0695C13.5787 20.1478 13.5812 20.2286 13.5736 20.3069C13.5507 20.2614 13.5228 20.216 13.4949 20.1705C13.434 20.067 13.3883 19.9508 13.3654 19.8322C13.3299 19.7084 13.2258 19.3701 13.2258 19.3701C13.0964 19.4256 12.972 19.7236 12.9212 19.8524C12.8704 19.9887 12.8349 20.1326 12.8121 20.2766C12.8171 20.3927 12.8425 20.5064 12.8831 20.6149C12.8882 20.6326 12.8958 20.6503 12.906 20.668C12.6293 20.4735 12.3907 20.2311 12.2003 19.9508C12.2079 19.8827 12.2333 19.817 12.2764 19.764C12.3907 19.6453 12.4795 19.5064 12.5455 19.3549C12.5633 19.2489 12.5633 19.1378 12.5455 19.0317C12.5557 18.9256 12.5734 18.8196 12.5963 18.7135L12.5912 18.6933H12.8907C13.4264 19.0872 15.3479 20.2917 17.6097 19.3095C17.6021 19.3372 17.5894 19.365 17.5741 19.3903C17.5741 19.3903 17.0893 20.0468 18.1859 20.269C19.285 20.0468 18.7977 19.3903 18.7977 19.3903C18.7824 19.365 18.7697 19.3372 18.7621 19.3095C21.0239 20.2942 22.948 19.0847 23.4836 18.6933H23.7882L23.7831 18.7135C23.806 18.8196 23.8238 18.9256 23.8339 19.0317C23.8161 19.1378 23.8161 19.2489 23.8339 19.3549C23.8974 19.5064 23.9888 19.6453 24.103 19.764C24.1461 19.817 24.1715 19.8827 24.1791 19.9508C23.9862 20.2286 23.7476 20.471 23.4709 20.6654Z" fill="#041E5F"/>
<path d="M21.7241 21.2765C21.6657 21.2765 21.6175 21.3194 21.615 21.3775C21.615 21.4356 21.6607 21.4836 21.719 21.4861C21.719 21.4861 21.7216 21.4861 21.7241 21.4861C21.7825 21.4861 21.8307 21.4381 21.8333 21.3775C21.8333 21.3194 21.7825 21.274 21.7241 21.274V21.2765Z" fill="#041E5F"/>
<path d="M22.3334 22.0189C22.275 22.0189 22.2268 22.0669 22.2242 22.1275C22.2242 22.1855 22.2699 22.2335 22.3283 22.236C22.3283 22.236 22.3309 22.236 22.3334 22.236C22.3918 22.236 22.4425 22.1881 22.4425 22.1275C22.4425 22.0694 22.3943 22.0214 22.3334 22.0189Z" fill="#041E5F"/>
<path d="M23.7446 19.6731C23.6862 19.6731 23.638 19.7211 23.6354 19.7817C23.6354 19.8397 23.6836 19.8877 23.7446 19.8903C23.8029 19.8903 23.8537 19.8423 23.8537 19.7817C23.8537 19.7236 23.808 19.6756 23.7496 19.6731C23.7496 19.6731 23.7471 19.6731 23.7446 19.6731Z" fill="#041E5F"/>
<path d="M24.5033 20.2059C24.5033 20.2715 24.5567 20.322 24.6227 20.3246C24.6861 20.3246 24.7394 20.2741 24.742 20.2109C24.742 20.2109 24.742 20.2084 24.742 20.2059C24.742 20.1402 24.6887 20.0897 24.6227 20.0872C24.5592 20.0897 24.5059 20.1402 24.5033 20.2059Z" fill="#041E5F"/>
<path d="M24.7807 17.6883C24.8441 17.6883 24.8975 17.6378 24.9 17.5747C24.9 17.5747 24.9 17.5722 24.9 17.5696C24.9 17.504 24.8467 17.4535 24.7807 17.451C24.7172 17.451 24.6639 17.504 24.6614 17.5696C24.6614 17.6353 24.7147 17.6858 24.7807 17.6883Z" fill="#041E5F"/>
<path d="M25.1406 15.3223C25.0771 15.3223 25.0238 15.3703 25.0213 15.4359C25.0213 15.4359 25.0213 15.4385 25.0213 15.441C25.0238 15.5067 25.0797 15.5572 25.1457 15.5546C25.2066 15.5521 25.2573 15.5041 25.2599 15.441C25.2599 15.3779 25.2091 15.3248 25.1457 15.3223C25.1457 15.3223 25.1431 15.3223 25.1406 15.3223Z" fill="#041E5F"/>
<path d="M25.801 13.4007C25.8645 13.4007 25.9178 13.3502 25.9178 13.2846C25.9178 13.2189 25.867 13.1684 25.801 13.1684C25.735 13.1684 25.6843 13.2189 25.6843 13.2846C25.6843 13.3502 25.735 13.4007 25.801 13.4007Z" fill="#041E5F"/>
<path d="M24.9603 13.6153C25.0238 13.6153 25.0771 13.5648 25.0796 13.5017C25.0796 13.5017 25.0796 13.4992 25.0796 13.4966C25.0796 13.431 25.0263 13.3779 24.9603 13.3779C24.8943 13.3779 24.841 13.431 24.841 13.4966C24.841 13.5598 24.8918 13.6128 24.9552 13.6153C24.9552 13.6153 24.9578 13.6153 24.9603 13.6153Z" fill="#041E5F"/>
<path d="M24.2548 11.6988C24.2548 11.6356 24.2015 11.5851 24.1355 11.5851C24.0721 11.5851 24.0188 11.6356 24.0188 11.7013C24.0188 11.7669 24.0695 11.8174 24.1355 11.8174C24.199 11.8174 24.2523 11.7669 24.2548 11.7038C24.2548 11.7038 24.2548 11.7013 24.2548 11.6988Z" fill="#041E5F"/>
<path d="M24.7653 11.32C24.8287 11.32 24.882 11.272 24.8846 11.2064C24.8846 11.2064 24.8846 11.2039 24.8846 11.2013C24.882 11.1357 24.8262 11.0852 24.7602 11.0877C24.6993 11.0902 24.6485 11.1382 24.6459 11.2013C24.6459 11.2645 24.6942 11.3175 24.7602 11.32C24.7602 11.32 24.7627 11.32 24.7653 11.32Z" fill="#041E5F"/>
<path d="M25.9509 15.4612C25.9509 15.5243 26.0068 15.5748 26.0702 15.5748C26.1337 15.5748 26.1845 15.5243 26.1845 15.4612C26.1845 15.3981 26.1337 15.3476 26.0702 15.3476C26.0068 15.3476 25.9535 15.3981 25.9509 15.4612Z" fill="#041E5F"/>
<path d="M14.6652 21.2765C14.6068 21.2765 14.5586 21.322 14.556 21.38C14.556 21.4381 14.6043 21.4861 14.6652 21.4886C14.7236 21.4886 14.7718 21.4432 14.7743 21.3851C14.7743 21.3851 14.7743 21.3826 14.7743 21.38C14.7743 21.322 14.7261 21.2765 14.6677 21.2765H14.6652Z" fill="#041E5F"/>
<path d="M14.1651 22.1275C14.1651 22.0694 14.1168 22.0189 14.0559 22.0189C13.9975 22.0189 13.9493 22.0669 13.9468 22.1275C13.9468 22.1855 13.995 22.2335 14.0559 22.236C14.1143 22.236 14.1625 22.1906 14.1651 22.1325C14.1651 22.1325 14.1651 22.13 14.1651 22.1275Z" fill="#041E5F"/>
<path d="M12.6447 19.6731C12.5864 19.6731 12.5381 19.7185 12.5356 19.7766C12.5356 19.7766 12.5356 19.7791 12.5356 19.7817C12.5356 19.8397 12.5838 19.8877 12.6447 19.8903C12.7031 19.8903 12.7514 19.8423 12.7539 19.7817C12.7539 19.7236 12.7057 19.6756 12.6447 19.6731Z" fill="#041E5F"/>
<path d="M11.766 20.322C11.832 20.322 11.8827 20.269 11.8853 20.2033C11.8827 20.1402 11.832 20.0872 11.766 20.0847C11.7 20.0847 11.6492 20.1377 11.6467 20.2033C11.6467 20.2665 11.6949 20.3195 11.7609 20.322C11.7609 20.322 11.7634 20.322 11.766 20.322Z" fill="#041E5F"/>
<path d="M11.6086 17.4535C11.5426 17.4535 11.4918 17.5065 11.4892 17.5722C11.4892 17.6353 11.54 17.6883 11.6035 17.6908C11.6035 17.6908 11.606 17.6908 11.6086 17.6908C11.6746 17.6908 11.7253 17.6378 11.7279 17.5722C11.7279 17.509 11.6746 17.456 11.6086 17.4535Z" fill="#041E5F"/>
<path d="M10.9896 17.7868C10.9896 17.7237 10.9388 17.6706 10.8753 17.6681C10.8753 17.6681 10.8728 17.6681 10.8703 17.6681C10.8043 17.6681 10.7509 17.7211 10.7509 17.7868C10.7509 17.8525 10.8043 17.9055 10.8703 17.9055C10.9337 17.9055 10.987 17.855 10.9896 17.7918C10.9896 17.7918 10.9896 17.7893 10.9896 17.7868Z" fill="#041E5F"/>
<path d="M11.2456 15.5572C11.3116 15.5572 11.3623 15.5041 11.3649 15.4385C11.3623 15.3728 11.3065 15.3223 11.2405 15.3248C11.1796 15.3274 11.1288 15.3753 11.1263 15.4385C11.1263 15.5041 11.1796 15.5546 11.2456 15.5572Z" fill="#041E5F"/>
<path d="M10.5881 13.4007C10.6515 13.4007 10.7048 13.3502 10.7048 13.2846C10.7048 13.2189 10.6541 13.1684 10.5881 13.1684C10.5221 13.1684 10.4713 13.2189 10.4713 13.2846C10.4713 13.3502 10.5221 13.4007 10.5881 13.4007Z" fill="#041E5F"/>
<path d="M11.4289 13.3805C11.3629 13.3805 11.3122 13.4335 11.3096 13.4992C11.3096 13.5648 11.3629 13.6178 11.4289 13.6178C11.4949 13.6178 11.5457 13.5648 11.5482 13.4992C11.5482 13.4335 11.4949 13.383 11.4289 13.3805Z" fill="#041E5F"/>
<path d="M12.1337 11.6988C12.1337 11.7619 12.1845 11.8149 12.2479 11.8174C12.2479 11.8174 12.2505 11.8174 12.253 11.8174C12.3165 11.8174 12.3698 11.7669 12.3698 11.7013C12.3698 11.6356 12.319 11.5851 12.253 11.5851C12.1896 11.5851 12.1363 11.6356 12.1337 11.6988Z" fill="#041E5F"/>
<path d="M11.624 11.32C11.6874 11.32 11.7408 11.272 11.7433 11.2064C11.7433 11.2064 11.7433 11.2039 11.7433 11.2013C11.7408 11.1357 11.6849 11.0852 11.6189 11.0877C11.558 11.0902 11.5072 11.1382 11.5047 11.2013C11.5047 11.2645 11.5529 11.3175 11.6189 11.32C11.6189 11.32 11.6215 11.32 11.624 11.32Z" fill="#041E5F"/>
<path d="M10.4382 15.4612C10.4382 15.3981 10.3849 15.3476 10.3189 15.3476C10.2554 15.3476 10.2046 15.3981 10.2046 15.4612C10.2046 15.5243 10.2554 15.5748 10.3189 15.5748C10.3823 15.5748 10.4356 15.5269 10.4382 15.4612Z" fill="#041E5F"/>
<path d="M16.7998 13.8098C16.8505 13.7997 16.8658 13.8148 16.8886 13.8603L16.9191 13.8502L16.8886 13.7795L17.0942 13.6911L17.0739 13.6507L16.7845 13.7795L16.7998 13.8098Z" fill="#041E5F"/>
<path d="M16.7338 13.4411L16.6932 13.4462L16.7287 13.6053L16.9038 13.5901L16.8988 13.5598C16.8759 13.5522 16.8582 13.532 16.8531 13.5093C16.8455 13.4714 16.8683 13.4361 16.9038 13.4285C16.9368 13.4159 16.9749 13.4335 16.9876 13.4664C16.9876 13.4689 16.9876 13.4714 16.9902 13.4739C17.0028 13.5017 16.9902 13.5346 16.9622 13.5472C16.9597 13.5472 16.9572 13.5472 16.9521 13.5497L16.9622 13.5901C17.0105 13.575 17.0384 13.5244 17.0257 13.4765C17.0257 13.4765 17.0257 13.4765 17.0257 13.4739C17.0181 13.4159 16.9648 13.3755 16.9089 13.383C16.9038 13.383 16.8988 13.383 16.8912 13.3856C16.8379 13.3957 16.8023 13.4462 16.8125 13.5017C16.8125 13.5043 16.8125 13.5068 16.8125 13.5093C16.8175 13.532 16.8302 13.5522 16.848 13.5649L16.7592 13.5699L16.7287 13.4411H16.7338Z" fill="#041E5F"/>
<path d="M16.7488 13.1861C16.8046 13.1911 16.8198 13.1457 16.83 13.1255L16.8503 13.0598C16.8655 13.0093 16.8757 12.9942 16.9112 12.9992C16.9569 13.0043 16.962 13.0548 16.9569 13.0876C16.9518 13.128 16.9315 13.176 16.8757 13.1684L16.8706 13.2088C16.9011 13.2138 16.9341 13.2063 16.9594 13.1835C16.9823 13.1583 16.995 13.1255 16.995 13.0901C17.0001 13.0346 16.9848 12.9613 16.9061 12.9563C16.8655 12.9487 16.8249 12.9765 16.8173 13.0169L16.7868 13.1103C16.7818 13.1305 16.7614 13.1457 16.7411 13.1457C16.6954 13.1406 16.6904 13.0952 16.6954 13.0649C16.6929 13.027 16.7208 12.9967 16.7564 12.9942C16.7589 12.9942 16.764 12.9942 16.7665 12.9942V12.9538C16.731 12.9538 16.6624 12.9588 16.6523 13.0724C16.6421 13.1255 16.6777 13.1785 16.7335 13.1886C16.7386 13.1886 16.7411 13.1886 16.7462 13.1886L16.7488 13.1861Z" fill="#041E5F"/>
<path d="M17.0838 12.6937L17.0483 12.6836L16.9873 12.8679L16.8833 12.8326L16.9391 12.6684L16.9036 12.6533L16.8477 12.8225L16.7538 12.7921L16.8147 12.6129L16.7741 12.5977L16.703 12.8225L17.0127 12.9209L17.0863 12.6937H17.0838Z" fill="#041E5F"/>
<path d="M17.1296 12.6229L17.0103 12.5497L17.0611 12.4639C17.0915 12.4209 17.0814 12.3629 17.0408 12.3326C17.0382 12.3326 17.0357 12.3275 17.0331 12.3275C17.0128 12.3149 16.99 12.3098 16.9671 12.3174C16.9418 12.325 16.9189 12.3427 16.9037 12.3654L16.8351 12.4866L17.1068 12.6558L17.1321 12.6229H17.1296ZM16.8884 12.4689L16.9367 12.3957C16.9443 12.378 16.9646 12.3654 16.9849 12.3654C16.9925 12.3654 17.0001 12.3704 17.0078 12.3755C17.0382 12.3957 17.0408 12.4209 17.0179 12.4538L16.9773 12.5194L16.8884 12.4689Z" fill="#041E5F"/>
<path d="M17.1096 12.171L17.3152 12.3654L17.3406 12.3351L17.1401 12.1407L17.2162 12.0599L17.1857 12.0346L17.0055 12.224L17.0309 12.2493L17.1096 12.171Z" fill="#041E5F"/>
<path d="M17.4852 12.2164L17.2897 11.9589L17.2592 11.9841L17.4496 12.2417L17.4852 12.2164Z" fill="#041E5F"/>
<path d="M17.7493 12.0624L17.734 12.0321L17.5589 12.1205L17.5132 12.0271L17.668 11.9463L17.6528 11.9109L17.4929 11.9917L17.4472 11.9058L17.6173 11.8175L17.602 11.7821L17.3913 11.8907L17.5411 12.1786L17.7518 12.0649L17.7493 12.0624Z" fill="#041E5F"/>
<path d="M17.8253 12.0422L17.7846 11.8528C17.7745 11.8275 17.7669 11.8023 17.7643 11.777L17.9141 12.022L17.9547 12.0119L17.9852 11.7316C17.9928 11.7568 17.9979 11.7821 18.0004 11.8073L18.041 11.9917L18.0816 11.9866L18.0156 11.6685L17.9547 11.6836L17.9243 11.9715L17.7745 11.7265L17.7136 11.7366L17.7846 12.0497L17.8253 12.0447V12.0422Z" fill="#041E5F"/>
<path d="M18.2723 11.9891C18.3433 11.9942 18.389 11.9563 18.389 11.9033C18.3941 11.8654 18.3687 11.8326 18.3332 11.8225C18.3611 11.8124 18.3789 11.7846 18.3789 11.7568C18.384 11.7114 18.356 11.6735 18.2926 11.6685H18.1504L18.1352 11.9866L18.2723 11.9917V11.9891ZM18.1987 11.7089L18.2672 11.7164C18.3129 11.7164 18.3307 11.7291 18.3307 11.7594C18.3256 11.7947 18.3053 11.8048 18.2647 11.7998H18.191L18.1987 11.7089ZM18.2672 11.8503C18.2977 11.8503 18.3332 11.8604 18.3332 11.9008C18.3332 11.9311 18.3078 11.9538 18.2672 11.9538L18.186 11.9462V11.8427L18.2672 11.8503Z" fill="#041E5F"/>
<path d="M18.5008 11.8856L18.6049 11.9159C18.6556 11.9311 18.6506 11.9614 18.6455 11.9841C18.6353 12.0094 18.6303 12.0346 18.6303 12.0624L18.6836 12.0775C18.6734 12.0649 18.6734 12.0573 18.681 12.0371L18.6886 11.9816C18.7039 11.9412 18.6886 11.926 18.6734 11.9159C18.6937 11.9058 18.7267 11.8983 18.7369 11.8528C18.7572 11.7872 18.7115 11.7569 18.6582 11.7417L18.5135 11.6937L18.4272 12.0068L18.4678 12.0169L18.5008 11.8831V11.8856ZM18.5516 11.7493L18.6455 11.7821C18.6658 11.7872 18.6988 11.7947 18.6836 11.8402C18.6734 11.8806 18.6429 11.8781 18.615 11.873L18.5262 11.8478L18.5541 11.7468L18.5516 11.7493Z" fill="#041E5F"/>
<path d="M18.9193 12.2164L18.9345 12.1861L18.7695 12.0877L18.8203 11.9942L18.9751 12.0826L18.9954 12.0523L18.8406 11.9589L18.8914 11.8781L19.0564 11.9766L19.0767 11.9412L18.8711 11.8225L18.7111 12.1003L18.9168 12.219L18.9193 12.2164Z" fill="#041E5F"/>
<path d="M19.1202 12.4184C19.176 12.4765 19.2699 12.479 19.3283 12.4209C19.3283 12.4209 19.3334 12.4159 19.3359 12.4134C19.4019 12.373 19.4222 12.2871 19.3816 12.2215C19.3791 12.2164 19.374 12.2114 19.3715 12.2063L19.2852 12.1104L19.0389 12.3124L19.1202 12.4159V12.4184ZM19.3283 12.2417C19.3639 12.2821 19.3588 12.3275 19.3029 12.378C19.2471 12.4235 19.1938 12.4235 19.1582 12.3805L19.11 12.325L19.2801 12.1811L19.3283 12.2391V12.2417Z" fill="#041E5F"/>
<path d="M19.3358 12.7694L19.3714 12.7543L19.2825 12.5801L19.3815 12.5346L19.4577 12.6937L19.4932 12.6735L19.412 12.5195L19.5059 12.474L19.5871 12.6432L19.6227 12.628L19.5135 12.4184L19.2241 12.5624L19.3333 12.772L19.3358 12.7694Z" fill="#041E5F"/>
<path d="M19.6098 12.9765L19.3889 13.0068L19.394 13.0472L19.7088 13.0017L19.7037 12.9714C19.6529 12.9664 19.6479 12.9512 19.6326 12.9007L19.6022 12.9058L19.6123 12.9765H19.6098Z" fill="#041E5F"/>
<path d="M19.6355 13.1634C19.6076 13.1634 19.5797 13.1785 19.572 13.2063C19.5619 13.171 19.5314 13.1457 19.4934 13.1432C19.4654 13.1432 19.4375 13.1533 19.4197 13.1735C19.402 13.1962 19.3944 13.224 19.3944 13.2518C19.3867 13.3023 19.4197 13.3502 19.4705 13.3578C19.4756 13.3578 19.4807 13.3578 19.4857 13.3578C19.5187 13.3629 19.5543 13.3452 19.567 13.3149C19.5771 13.3401 19.6025 13.3578 19.6304 13.3553C19.671 13.3603 19.7167 13.3351 19.7167 13.2619C19.7244 13.2164 19.6939 13.171 19.6482 13.1634C19.6431 13.1634 19.6406 13.1634 19.6355 13.1634ZM19.4883 13.3149C19.4426 13.3149 19.435 13.277 19.435 13.2518C19.435 13.224 19.4553 13.1987 19.4832 13.1962C19.4857 13.1962 19.4908 13.1962 19.4934 13.1962C19.5213 13.1962 19.5441 13.2215 19.5441 13.2492C19.5441 13.2518 19.5441 13.2568 19.5441 13.2593C19.5467 13.2871 19.5289 13.3124 19.501 13.3149C19.4959 13.3149 19.4934 13.3149 19.4883 13.3149ZM19.6355 13.3149C19.6076 13.3098 19.5873 13.2846 19.5873 13.2568C19.5873 13.2316 19.6101 13.2114 19.6355 13.2139C19.6558 13.2139 19.6812 13.224 19.6761 13.2644C19.6761 13.3048 19.6507 13.3174 19.6355 13.3174V13.3149Z" fill="#041E5F"/>
<path d="M19.5895 13.426L19.5844 13.4664C19.6047 13.4714 19.6555 13.4866 19.6403 13.5421C19.6301 13.5876 19.5946 13.5977 19.5743 13.5876C19.5336 13.5825 19.5235 13.5522 19.5133 13.5169L19.5032 13.4714C19.488 13.4209 19.4473 13.3805 19.394 13.3679L19.3433 13.5775L19.3788 13.5876L19.4194 13.4184C19.4347 13.4234 19.455 13.4386 19.4651 13.484L19.4753 13.5194C19.4905 13.5749 19.5057 13.6179 19.5565 13.628C19.6073 13.6406 19.6606 13.6103 19.6733 13.5598C19.6733 13.5598 19.6733 13.5598 19.6733 13.5573C19.691 13.5017 19.658 13.4436 19.6022 13.4285C19.5971 13.4285 19.5895 13.426 19.5844 13.426H19.5895Z" fill="#041E5F"/>
<path d="M19.526 13.7239L19.4956 13.7895L19.2951 13.6911L19.2747 13.7315L19.5641 13.8653L19.5743 13.835C19.5337 13.8047 19.5387 13.7845 19.559 13.7315L19.5286 13.7214L19.526 13.7239Z" fill="#041E5F"/>
<path d="M17.8 14.8552L17.8355 14.8627L18.0716 13.8931C18.0716 13.8931 18.0488 13.8931 18.0361 13.8906L17.8025 14.8501V14.8577L17.8 14.8552Z" fill="#041E5F"/>
<path d="M17.7667 14.4385L17.7997 14.4511L17.9977 13.8754C17.9977 13.8754 17.9748 13.8678 17.9647 13.8653L17.7692 14.4309V14.4385H17.7667Z" fill="#041E5F"/>
<path d="M17.4297 14.7946L17.4601 14.8097L17.9171 13.8527L17.8841 13.8401L17.4322 14.787L17.4271 14.7946H17.4297Z" fill="#041E5F"/>
<path d="M17.3581 14.633L17.8557 13.8199C17.8557 13.8199 17.8354 13.8098 17.8252 13.8022L17.3302 14.6153L17.3607 14.633H17.3581Z" fill="#041E5F"/>
<path d="M17.0507 14.6481L17.0456 14.6557L17.0736 14.6759L17.7793 13.7795C17.7793 13.7795 17.7615 13.7643 17.7513 13.7567L17.0507 14.6481Z" fill="#041E5F"/>
<path d="M17.097 14.4259L17.7215 13.7365C17.7215 13.7365 17.7037 13.7214 17.6936 13.7113L17.0691 14.4032L17.0945 14.4259H17.097Z" fill="#041E5F"/>
<path d="M17.6678 13.686C17.6678 13.686 17.6525 13.6684 17.6449 13.6583L16.7209 14.4688L16.7438 14.4941L17.6652 13.686H17.6678Z" fill="#041E5F"/>
<path d="M17.6172 13.6229C17.6172 13.6229 17.602 13.6052 17.5943 13.5951L17.107 13.9385L17.0994 13.9436L17.1197 13.9714L17.6172 13.6229Z" fill="#041E5F"/>
<path d="M17.574 13.5623C17.574 13.5623 17.5639 13.5421 17.5562 13.532L17.2136 13.7214L17.2288 13.7517L17.5715 13.5623H17.574Z" fill="#041E5F"/>
<path d="M17.1648 13.6254L17.18 13.6582L17.5405 13.5017C17.5405 13.5017 17.5278 13.4815 17.5227 13.4714L17.1648 13.6279V13.6254Z" fill="#041E5F"/>
<path d="M17.1247 13.5169L17.1349 13.5497L17.5004 13.4335H17.508L17.4979 13.3982L17.1222 13.5194L17.1247 13.5169Z" fill="#041E5F"/>
<path d="M17.4872 13.3603C17.4872 13.3603 17.4796 13.3376 17.4796 13.3275L17.0963 13.4108L17.1039 13.4461L17.4897 13.3628L17.4872 13.3603Z" fill="#041E5F"/>
<path d="M17.0765 13.2946L17.0816 13.33L17.4776 13.287C17.4776 13.287 17.475 13.2643 17.475 13.2517L17.079 13.2946H17.0765Z" fill="#041E5F"/>
<path d="M17.0691 13.2138L17.4676 13.2088C17.4676 13.2088 17.4676 13.1962 17.4676 13.1911C17.4676 13.1861 17.4676 13.1785 17.4676 13.1734L17.0691 13.1785V13.2138Z" fill="#041E5F"/>
<path d="M17.0765 13.1053L17.4649 13.1381H17.4725C17.4725 13.1381 17.4725 13.1154 17.475 13.1028L17.0892 13.0699H17.0816V13.1053H17.0765Z" fill="#041E5F"/>
<path d="M17.0895 12.9816L17.4804 13.0649C17.4804 13.0649 17.4855 13.0422 17.488 13.0321L17.0971 12.9462L17.0895 12.9816Z" fill="#041E5F"/>
<path d="M17.1198 12.878L17.4904 12.9992H17.4955C17.4955 12.9992 17.5031 12.9765 17.5056 12.9664L17.1299 12.8426L17.1173 12.8755L17.1198 12.878Z" fill="#041E5F"/>
<path d="M17.1683 12.7391L17.1531 12.772L17.5211 12.9285C17.5211 12.9285 17.5313 12.9083 17.5364 12.8957L17.1759 12.7442H17.1683V12.7391Z" fill="#041E5F"/>
<path d="M17.2007 12.6659L17.5484 12.8553H17.551C17.551 12.8553 17.5611 12.8351 17.5687 12.8275L17.2159 12.6381L17.1981 12.6684L17.2007 12.6659Z" fill="#041E5F"/>
<path d="M17.2691 12.5699L17.5864 12.7947C17.5864 12.7947 17.6016 12.777 17.6093 12.7669L17.2894 12.5396L17.2691 12.5699Z" fill="#041E5F"/>
<path d="M17.3679 12.4513L17.345 12.4791L17.637 12.729H17.6395C17.6395 12.729 17.6547 12.7139 17.6623 12.7038L17.3755 12.4563L17.3679 12.4513Z" fill="#041E5F"/>
<path d="M17.4525 12.373L17.4271 12.3957L17.6937 12.676C17.6937 12.676 17.7114 12.6608 17.7216 12.6533L17.4576 12.378L17.4525 12.373Z" fill="#041E5F"/>
<path d="M17.5409 12.3023L17.5129 12.325L17.7541 12.6255C17.7541 12.6255 17.7719 12.6103 17.782 12.6027L17.5459 12.3073L17.5409 12.3023Z" fill="#041E5F"/>
<path d="M17.6527 12.2366L17.6222 12.2543L17.8126 12.5825C17.8126 12.5825 17.8329 12.575 17.8431 12.5674L17.6552 12.2442L17.6501 12.2366H17.6527Z" fill="#041E5F"/>
<path d="M17.7515 12.1937L17.7185 12.2088L17.8784 12.5523C17.8784 12.5523 17.8987 12.5422 17.9114 12.5371L17.7566 12.2038V12.1962L17.7515 12.1937Z" fill="#041E5F"/>
<path d="M17.8632 12.1533L17.8302 12.1634L17.9546 12.5194C17.9546 12.5194 17.9775 12.5118 17.9876 12.5093L17.8658 12.1609V12.1533H17.8632Z" fill="#041E5F"/>
<path d="M17.9806 12.118L17.9451 12.1255L18.0238 12.4993C18.0238 12.4993 18.0466 12.4942 18.0593 12.4942L17.9831 12.1255V12.118H17.9806Z" fill="#041E5F"/>
<path d="M18.1041 12.4891C18.1041 12.4891 18.127 12.4866 18.1397 12.4866L18.1016 12.1053H18.0661L18.1041 12.4917V12.4891Z" fill="#041E5F"/>
<path d="M18.2059 12.1003H18.1704L18.1755 12.4816H18.1805C18.1805 12.4816 18.2008 12.4841 18.211 12.4841L18.2059 12.1079V12.1003Z" fill="#041E5F"/>
<path d="M18.2438 12.4892C18.2438 12.4892 18.2667 12.4892 18.2794 12.4917L18.3175 12.1053H18.2819L18.2438 12.4816V12.4892Z" fill="#041E5F"/>
<path d="M18.3477 12.5043H18.3553L18.4315 12.1255L18.3959 12.118L18.3198 12.4967C18.3198 12.4967 18.3375 12.5018 18.3477 12.5043Z" fill="#041E5F"/>
<path d="M18.5438 12.1634L18.5108 12.1533L18.3889 12.5093V12.5169C18.3889 12.5169 18.4092 12.5245 18.4194 12.527L18.5387 12.1735V12.1659L18.5438 12.1634Z" fill="#041E5F"/>
<path d="M18.6502 12.2063L18.6172 12.1911L18.4624 12.5346V12.5396C18.4624 12.5396 18.4801 12.5522 18.4903 12.5573L18.6451 12.2139V12.2063H18.6502Z" fill="#041E5F"/>
<path d="M18.7138 12.2366L18.531 12.5624L18.5259 12.5699L18.5564 12.5876L18.7443 12.2543L18.7138 12.2366Z" fill="#041E5F"/>
<path d="M18.584 12.6028C18.584 12.6028 18.6017 12.6204 18.6119 12.628L18.8454 12.3275L18.8505 12.3199L18.8226 12.2997L18.5865 12.6028H18.584Z" fill="#041E5F"/>
<path d="M18.6451 12.6532L18.6705 12.676L18.9269 12.3982L18.9319 12.3906L18.9065 12.3679L18.6451 12.6507V12.6532Z" fill="#041E5F"/>
<path d="M18.985 12.4501L18.6976 12.7061L18.7213 12.7324L19.0087 12.4764L18.985 12.4501Z" fill="#041E5F"/>
<path d="M18.7539 12.7644L18.7488 12.7694C18.7488 12.7694 18.764 12.7871 18.7716 12.7972L19.0763 12.5725L19.0839 12.5674L19.0636 12.5396L18.7564 12.7644H18.7539Z" fill="#041E5F"/>
<path d="M18.7953 12.8199H18.7877C18.7928 12.8325 18.7978 12.8452 18.8055 12.8553L19.1405 12.6684L19.1481 12.6633L19.1304 12.633L18.7953 12.8199Z" fill="#041E5F"/>
<path d="M18.828 12.8881H18.8229C18.8229 12.8881 18.833 12.9108 18.8381 12.9209L19.1859 12.7694H19.1935L19.1783 12.7341L18.8254 12.8881H18.828Z" fill="#041E5F"/>
<path d="M18.8507 12.9613C18.8507 12.9613 18.8583 12.984 18.8609 12.9941L19.2163 12.8729H19.2239L19.2112 12.8376L18.8482 12.9613H18.8507Z" fill="#041E5F"/>
<path d="M18.871 13.027C18.871 13.027 18.8761 13.0497 18.8786 13.0598L19.2569 12.9765L19.2493 12.9437L18.871 13.027Z" fill="#041E5F"/>
<path d="M18.8834 13.1002C18.8834 13.1002 18.8859 13.123 18.8859 13.1356L19.2565 13.1028H19.2667V13.0674L18.8834 13.1002Z" fill="#041E5F"/>
<path d="M18.8939 13.1911C18.8939 13.1911 18.8939 13.1987 18.8939 13.2037L19.2772 13.2088V13.1734L18.8939 13.1684C18.8939 13.1684 18.8964 13.1835 18.8964 13.1911H18.8939Z" fill="#041E5F"/>
<path d="M18.8811 13.3199C18.8811 13.3199 18.876 13.3426 18.8735 13.3552L19.2416 13.4386L19.2492 13.4032L18.8811 13.3199Z" fill="#041E5F"/>
<path d="M19.2641 13.3224V13.2871L18.8859 13.2467V13.2542C18.8859 13.2542 18.8859 13.2719 18.8834 13.282L19.254 13.3224H19.2641Z" fill="#041E5F"/>
<path d="M19.2117 13.5446L19.2219 13.5118L18.869 13.3956H18.8614C18.8589 13.4057 18.8563 13.4158 18.8513 13.4259L19.2041 13.5421H19.2117V13.5446Z" fill="#041E5F"/>
<path d="M18.8381 13.4638C18.8381 13.4638 18.828 13.484 18.8229 13.4941L19.1605 13.6456H19.1681L19.1833 13.6179L18.8381 13.4638Z" fill="#041E5F"/>
<path d="M18.7902 13.5547L19.11 13.7391L19.1176 13.7441L19.1354 13.7138L18.8079 13.5244C18.8079 13.5244 18.7978 13.5446 18.7902 13.5547Z" fill="#041E5F"/>
<path d="M18.7488 13.6153L19.226 13.9613L19.2463 13.9335L18.7716 13.5875C18.7716 13.5875 18.7564 13.6052 18.7488 13.6153Z" fill="#041E5F"/>
<path d="M18.7192 13.6507C18.7192 13.6507 18.7039 13.6684 18.6963 13.6785L19.5797 14.4789L19.5848 14.484L19.6076 14.4587L18.7217 13.6558H18.7192V13.6507Z" fill="#041E5F"/>
<path d="M18.6451 13.7265L19.2467 14.4158L19.2746 14.3931L18.6756 13.7063C18.6756 13.7063 18.6629 13.7164 18.6552 13.7214L18.6476 13.729L18.6451 13.7265Z" fill="#041E5F"/>
<path d="M18.5889 13.7719L19.2692 14.6633L19.2971 14.6431L18.6168 13.7492C18.6168 13.7492 18.5991 13.7643 18.5889 13.7719Z" fill="#041E5F"/>
<path d="M18.521 13.8123L18.9932 14.6153L18.9982 14.6229L19.0287 14.6052L18.5515 13.7971C18.5515 13.7971 18.5312 13.8072 18.521 13.8148V13.8123Z" fill="#041E5F"/>
<path d="M18.4574 13.8451L18.8915 14.787V14.7946L18.927 14.7794L18.4879 13.8249C18.4879 13.8249 18.4676 13.8375 18.4574 13.8426V13.8451Z" fill="#041E5F"/>
<path d="M18.3834 13.8704L18.5687 14.4309V14.4385L18.6043 14.4284L18.4139 13.8577C18.4139 13.8577 18.391 13.8653 18.3809 13.8678L18.3834 13.8704Z" fill="#041E5F"/>
<path d="M18.3099 13.888L18.5358 14.8501L18.5714 14.8425L18.3454 13.8805C18.3454 13.8805 18.3226 13.8855 18.3099 13.888Z" fill="#041E5F"/>
<path d="M14.911 20.2791C14.911 20.2791 14.8019 20.4054 14.8628 20.5114C14.9263 20.5872 15.0405 20.5947 15.1167 20.5316C15.1243 20.5266 15.1293 20.519 15.137 20.5114C15.137 20.5114 14.873 20.5165 14.911 20.2791Z" fill="#041E5F"/>
<path d="M21.2495 20.5114C21.313 20.5872 21.4272 20.5948 21.5034 20.5316C21.511 20.5266 21.5161 20.519 21.5237 20.5114C21.5846 20.4054 21.4754 20.2791 21.4754 20.2791C21.5161 20.5165 21.2495 20.5114 21.2495 20.5114Z" fill="#041E5F"/>
<path d="M15.906 20.1453L15.8476 20.1125L15.7055 20.3498L15.7639 20.3826C15.8324 20.4155 15.9162 20.3852 15.9492 20.317C15.9771 20.2564 15.9593 20.1857 15.906 20.1453Z" fill="#041E5F"/>
<path d="M16.3703 20.3851C16.3018 20.3523 16.2206 20.3851 16.1901 20.4508C16.1901 20.4508 16.1901 20.4508 16.1901 20.4533C16.1546 20.519 16.1799 20.6023 16.2459 20.6376C16.3119 20.673 16.3957 20.6477 16.4312 20.5821C16.4312 20.577 16.4363 20.5745 16.4363 20.5695C16.4719 20.5038 16.4439 20.4205 16.3779 20.3877C16.3779 20.3877 16.3779 20.3877 16.3754 20.3877L16.3703 20.3851Z" fill="#041E5F"/>
<path d="M17.9774 20.7967C17.9013 20.7942 17.8378 20.8523 17.8353 20.9255C17.8353 20.9255 17.8353 20.9255 17.8353 20.928C17.8277 21.0012 17.881 21.0694 17.9546 21.077C18.0282 21.0846 18.0967 21.0316 18.1044 20.9583C18.1044 20.9533 18.1044 20.9457 18.1044 20.9406C18.1094 20.8674 18.0561 20.8018 17.98 20.7942C17.98 20.7942 17.9774 20.7942 17.9749 20.7942L17.9774 20.7967Z" fill="#041E5F"/>
<path d="M19.2849 20.817L19.2062 20.8372L19.2392 20.9584L19.3179 20.9382C19.3509 20.9331 19.3712 20.9028 19.3661 20.87C19.3661 20.8675 19.3661 20.8649 19.3661 20.8624C19.3585 20.8296 19.3281 20.8094 19.2951 20.817C19.2951 20.817 19.29 20.817 19.2875 20.817H19.2849Z" fill="#041E5F"/>
<path d="M19.3076 20.7109C19.3025 20.6831 19.2746 20.6654 19.2492 20.6705C19.2466 20.6705 19.2441 20.6705 19.2416 20.6705L19.168 20.6907L19.1959 20.7967L19.2695 20.7765C19.2974 20.7715 19.3152 20.7437 19.3101 20.7159C19.3101 20.7159 19.3101 20.7134 19.3101 20.7109H19.3076Z" fill="#041E5F"/>
<path d="M19.8135 20.4886C19.7957 20.4886 19.7779 20.4912 19.7627 20.4987L19.7069 20.5215L19.7551 20.6427L19.8236 20.6149C19.8566 20.6048 19.8719 20.5694 19.8617 20.5391C19.8617 20.5366 19.8617 20.5316 19.8566 20.529C19.849 20.5063 19.8312 20.4912 19.8084 20.4886H19.8135Z" fill="#041E5F"/>
<path d="M20.2905 20.317L20.3108 20.4382L20.4098 20.3852L20.3184 20.3018C20.3032 20.2892 20.2803 20.2614 20.2803 20.2614C20.2803 20.2614 20.288 20.2943 20.2905 20.3145V20.317Z" fill="#041E5F"/>
<path d="M21.3358 20.3448L21.219 20.3018C21.3002 20.269 21.3891 20.2614 21.4728 20.2791L21.3307 20.1528C21.0413 19.8928 20.6199 19.8397 20.2747 20.019C18.9979 20.8069 17.3834 20.8069 16.1091 20.019C15.7639 19.8397 15.3425 19.8928 15.0531 20.1528L14.911 20.2791C14.9973 20.2614 15.0836 20.269 15.1648 20.3018L15.0481 20.3448C15.1953 20.4028 15.1344 20.5114 15.1344 20.5114L15.3146 20.3523C15.5862 20.466 15.8527 20.5973 16.1066 20.7462C16.7412 21.1023 17.4596 21.2841 18.1906 21.2715C18.9192 21.2841 19.6375 21.1023 20.2747 20.7462C20.5285 20.5973 20.7951 20.466 21.0667 20.3523L21.2469 20.5114C21.2469 20.5114 21.186 20.4028 21.3358 20.3448ZM15.7436 20.423L15.6395 20.3624L15.8274 20.0493L15.9314 20.1099C16.0177 20.1604 16.0482 20.2741 15.9949 20.3599C15.9441 20.4458 15.8299 20.4761 15.7436 20.423ZM16.0051 20.5695L15.9594 20.5468L16.132 20.2261L16.1777 20.2513L16.0051 20.572V20.5695ZM16.2259 20.6856C16.132 20.6427 16.0914 20.5291 16.1345 20.4357C16.1345 20.4357 16.1345 20.4331 16.1345 20.4306C16.1802 20.3372 16.2944 20.2993 16.3884 20.3473C16.4797 20.3927 16.5178 20.4988 16.4772 20.5922C16.4366 20.6882 16.3249 20.7311 16.2284 20.6882C16.2284 20.6882 16.2259 20.6882 16.2234 20.6882L16.2259 20.6856ZM16.7361 20.5771C16.7234 20.5518 16.7006 20.5291 16.6727 20.519C16.6447 20.5038 16.6067 20.5139 16.5914 20.5442C16.5635 20.6124 16.7361 20.6604 16.693 20.769C16.6701 20.822 16.6092 20.8498 16.5559 20.8271C16.5534 20.8271 16.5508 20.8271 16.5483 20.822C16.5051 20.8069 16.4721 20.774 16.4518 20.7336L16.4924 20.7084C16.5077 20.7387 16.533 20.7639 16.566 20.7765C16.594 20.7917 16.627 20.7816 16.6422 20.7538C16.6422 20.7538 16.6422 20.7513 16.6422 20.7488C16.6701 20.6755 16.5 20.6276 16.5407 20.5215C16.566 20.466 16.6295 20.4432 16.6854 20.4685C16.6854 20.4685 16.6854 20.4685 16.6879 20.4685C16.7234 20.4811 16.7539 20.5064 16.7717 20.5392L16.7336 20.572L16.7361 20.5771ZM17.0407 20.9861C16.9671 20.9735 16.9189 20.9053 16.9341 20.8321C16.9341 20.8271 16.9341 20.822 16.9367 20.817L16.9976 20.5897L17.0483 20.6023L16.9874 20.8296C16.9747 20.8801 17.0052 20.9306 17.0534 20.9432C17.1017 20.9558 17.155 20.9255 17.1677 20.8776L17.2286 20.6503L17.2793 20.6629L17.2184 20.8902C17.2007 20.9609 17.1296 21.0063 17.0585 20.9887C17.0534 20.9887 17.0483 20.9861 17.0433 20.9836L17.0407 20.9861ZM17.5637 21.0897L17.5129 21.0796L17.3936 20.817C17.3834 20.7942 17.3733 20.7589 17.3733 20.7589C17.3733 20.7589 17.3707 20.7917 17.3682 20.8119L17.325 21.0467L17.2743 21.0366L17.3403 20.6755L17.391 20.6856L17.5103 20.9483C17.5205 20.971 17.5306 21.0063 17.5306 21.0063C17.5306 21.0063 17.5306 20.9735 17.5357 20.9533L17.5789 20.7185L17.6296 20.7286L17.5637 21.0897ZM17.7033 21.1048L17.6525 21.0998L17.6956 20.7361L17.7464 20.7412L17.7033 21.1048ZM17.9596 21.1326C17.8556 21.1275 17.7769 21.0392 17.782 20.9356C17.782 20.9356 17.782 20.9331 17.782 20.9306C17.7896 20.8271 17.881 20.7513 17.985 20.7589C18.084 20.7664 18.1602 20.8498 18.1576 20.9483C18.1551 21.0518 18.0688 21.1326 17.9647 21.1301C17.9647 21.1301 17.9622 21.1301 17.9596 21.1301V21.1326ZM18.4623 21.125L18.2896 20.8952C18.2744 20.875 18.2566 20.8422 18.2566 20.8422C18.2566 20.8422 18.2617 20.875 18.2617 20.8952L18.2719 21.1326H18.2211L18.2059 20.769H18.2566L18.4293 20.9988C18.4445 21.019 18.4623 21.0493 18.4623 21.0493C18.4623 21.0493 18.4572 21.0164 18.4572 20.9962L18.447 20.7589H18.4978L18.513 21.1225H18.4623V21.125ZM18.8049 21.0897L18.7466 20.7286L18.7973 20.721L18.8481 21.0366L19.0106 21.0114L19.0182 21.0543L18.8049 21.0871V21.0897ZM19.0613 21.0442L18.9877 20.6856L19.0385 20.6755L19.1121 21.0341L19.0613 21.0442ZM19.3253 20.9811L19.1984 21.0139L19.1045 20.6604L19.2289 20.6276C19.2771 20.6074 19.3329 20.6301 19.3532 20.6806C19.3532 20.6831 19.3558 20.6882 19.3558 20.6907C19.3659 20.721 19.3558 20.7563 19.3329 20.7791C19.3736 20.7791 19.4066 20.8094 19.4142 20.8473C19.4294 20.9028 19.3989 20.9609 19.3431 20.976C19.338 20.976 19.3329 20.9786 19.3279 20.9786L19.3253 20.9811ZM19.5106 20.9306L19.3939 20.5821L19.5969 20.5165L19.6122 20.5594L19.4573 20.6099L19.4929 20.7185L19.6172 20.6781L19.6325 20.721L19.5081 20.7614L19.5462 20.8725L19.7086 20.8195L19.7239 20.8624L19.5132 20.9331L19.5106 20.9306ZM19.9726 20.7614L19.8457 20.6553L19.7721 20.6856L19.8279 20.8195L19.7797 20.8397L19.6426 20.5013L19.7467 20.4609C19.767 20.4508 19.7899 20.4458 19.8127 20.4432C19.8736 20.4483 19.9193 20.4988 19.9142 20.5594C19.9142 20.5846 19.9015 20.6099 19.8838 20.6276C19.8838 20.6276 19.8939 20.6351 19.899 20.6402L20.0234 20.7437L19.9701 20.7664L19.9726 20.7614ZM20.1528 20.6806L20.0158 20.3902L19.9015 20.4432L19.8812 20.4028L20.1554 20.2741L20.1757 20.3145L20.0615 20.3675L20.1985 20.6579L20.1528 20.6806ZM20.5209 20.4912L20.4372 20.4155L20.3153 20.4811L20.3331 20.5897L20.2874 20.6149L20.229 20.2311L20.2747 20.2059L20.5666 20.4634L20.5209 20.4887V20.4912ZM20.7088 20.3801L20.6047 20.4432L20.4092 20.1326L20.5133 20.0695C20.5996 20.0165 20.7138 20.0417 20.7671 20.1276C20.8205 20.2135 20.7951 20.3271 20.7088 20.3801Z" fill="#041E5F"/>
<path d="M20.5362 20.1099L20.4803 20.1453L20.6276 20.3801L20.6834 20.3448C20.7469 20.2993 20.7596 20.2135 20.7139 20.1503C20.6733 20.0948 20.5971 20.0771 20.5362 20.1099Z" fill="#041E5F"/>
<path d="M42.3568 1.83833H41.3541V42.2249H42.3568V1.83833Z" fill="#041E5F"/>
<path d="M55.6909 18.7489L53.0458 13.2467H53.0255L52.7463 17.8929C52.7158 18.4181 53.1093 18.5318 53.5764 18.5545V18.7515H51.4187V18.5545C52.1752 18.5545 52.2691 18.3904 52.3224 17.451L52.5712 13.4361C52.6118 12.7543 52.5915 12.57 51.9492 12.5271V12.3402H53.5155L56.0158 17.5419L58.506 12.3402H60.0316V12.5271C59.5239 12.5675 59.3259 12.5776 59.3462 12.9286L59.6788 17.6051C59.7422 18.5545 59.8235 18.5545 60.5824 18.5545V18.7515H57.9146V18.5545C58.4019 18.5545 58.8792 18.4207 58.8385 17.8727L58.5365 13.2492H58.5162L55.932 18.7515H55.6934L55.6909 18.7489Z" fill="#041E5F"/>
<path d="M63.578 18.7489H61.0574V18.552C61.6996 18.5217 61.8367 18.355 61.8367 17.6631V13.2669C61.8367 12.7089 61.6387 12.5549 61.0574 12.5246V12.3276H63.578V12.5246C62.9231 12.5246 62.6947 12.6685 62.6947 13.3604V17.7364C62.6947 18.3449 62.8597 18.552 63.578 18.552V18.7489Z" fill="#041E5F"/>
<path d="M70.5379 18.2641C69.5099 18.7893 68.1924 18.9156 67.7558 18.9156C65.4839 18.9156 64.4254 17.1707 64.4254 15.6633C64.4254 14.1558 65.5144 12.1736 68.0477 12.1736C69.157 12.1736 69.8957 12.5246 70.1115 12.5246C70.2054 12.5246 70.2892 12.5044 70.3501 12.4513H70.4948V14.1229H70.2866C70.0074 12.8326 69.124 12.4311 68.1594 12.4311C66.3343 12.4311 65.4002 13.9386 65.4002 15.6001C65.4002 17.7162 66.8953 18.6555 68.0884 18.6555C68.5656 18.6555 69.0961 18.552 69.6749 18.2641V16.9637C69.6749 16.3753 69.4667 16.1784 68.8448 16.1784H68.4615V15.9915H71.2639V16.1784C70.7461 16.2087 70.5379 16.3854 70.5379 16.8299V18.2641Z" fill="#041E5F"/>
<path d="M73.3711 17.7793C73.3711 18.398 73.6199 18.5545 74.2012 18.5545H74.4398V18.7515H71.5028V18.5545H71.6805C72.2923 18.5545 72.5106 18.3904 72.5106 17.6985V13.3528C72.5106 12.714 72.3329 12.5271 71.7313 12.5271H71.5028V12.3301C71.7516 12.3301 72.3837 12.2897 72.8101 12.267C73.2366 12.2468 73.4422 12.2367 74.1174 12.2367C76.0365 12.2367 76.8995 13.022 76.8995 14.075C76.8995 14.8502 76.3716 15.4992 75.5186 15.7466C75.9019 16.0471 76.2142 16.335 76.7016 16.8198L77.5215 17.6354C78.1332 18.2439 78.7678 18.6252 79.5649 18.6783V18.8651C77.7499 18.9485 77.2828 18.5545 76.3589 17.6379L75.6735 16.9561C75.2166 16.5016 74.8536 16.2037 74.6048 16.037C74.3459 16.0471 74.1783 16.0572 73.8991 16.0572C73.6707 16.0572 73.5361 16.0471 73.3711 16.037V17.7819V17.7793ZM73.3711 15.8375C73.6199 15.8678 73.7747 15.8577 74.0134 15.8577C75.1658 15.8577 75.9222 15.3729 75.9222 14.1331C75.9222 13.1735 75.4856 12.4286 73.889 12.4286C73.691 12.4286 73.5564 12.4286 73.3711 12.4488V15.8375Z" fill="#041E5F"/>
<path d="M81.6589 15.9006L81.0573 17.5217C80.9837 17.7187 80.8492 18.0267 80.8492 18.1732C80.8492 18.451 81.1182 18.5545 81.6894 18.5545H81.8544V18.7514H79.4581V18.5545C80.1333 18.5444 80.2476 18.4308 80.5801 17.5318L82.4687 12.4008L82.3748 12.1735H83.2784L85.4463 17.903C85.6544 18.451 85.8727 18.5545 86.3905 18.5545V18.7514H83.5374V18.5545H83.8064C84.3979 18.5545 84.6162 18.4914 84.6162 18.2035C84.6162 18.0394 84.5426 17.8828 84.502 17.7793L83.8064 15.9006H81.6589ZM82.7174 13.0422L81.8366 15.4461H83.6313L82.7174 13.0422Z" fill="#041E5F"/>
<path d="M92.5128 14.0219C92.1701 13.0624 91.2792 12.4311 90.147 12.4311C88.4133 12.4311 87.3344 13.681 87.3344 15.4133C87.3344 17.2818 88.6823 18.6555 90.2612 18.6555C91.0811 18.6555 92.0864 18.3777 92.7921 17.1278H92.99C92.8555 17.5924 92.5737 18.2313 92.325 18.6353C91.6599 18.5419 91.203 18.9131 89.9795 18.9131C87.8726 18.9131 86.3571 17.5293 86.3571 15.6203C86.3571 13.7113 87.9132 12.1735 90.081 12.1735C91.3883 12.1735 91.9493 12.5877 92.2717 12.5877C92.3859 12.5877 92.4367 12.5574 92.4595 12.5245H92.6144L92.7083 14.0219H92.5103H92.5128Z" fill="#041E5F"/>
<path d="M96.1639 18.7489H93.6432V18.552C94.2855 18.5217 94.4225 18.355 94.4225 17.6631V13.2669C94.4225 12.7089 94.2245 12.5548 93.6432 12.5245V12.3276H96.1639V12.5245C95.509 12.5245 95.2805 12.6685 95.2805 13.3603V17.7364C95.2805 18.3449 95.4455 18.552 96.1639 18.552V18.7489Z" fill="#041E5F"/>
<path d="M100.72 18.9131C98.6864 18.9131 96.973 17.6126 96.973 15.6835C96.973 13.6306 98.5595 12.1736 100.77 12.1736C102.733 12.1736 104.413 13.5043 104.413 15.3628C104.413 17.4485 102.733 18.9131 100.72 18.9131ZM100.501 12.4311C98.6737 12.4311 97.9477 14.1229 97.9477 15.3628C97.9477 17.292 99.2652 18.6555 100.935 18.6555C102.606 18.6555 103.436 17.1682 103.436 15.7037C103.436 13.7846 102.212 12.4311 100.499 12.4311H100.501ZM99.6917 11.512L100.646 10.2015C100.854 9.92369 101.103 9.74694 101.311 9.74694C101.499 9.74694 101.634 9.87067 101.634 10.0474C101.634 10.2444 101.425 10.4489 100.928 10.7797L99.8287 11.512H99.6917Z" fill="#041E5F"/>
<path d="M111.8 18.8222L106.424 13.2265V17.6556C106.424 18.398 106.589 18.5545 107.472 18.5545V18.7515H105.066V18.5545H105.107C105.749 18.5545 105.957 18.3374 105.957 17.8626V12.7846C105.718 12.6205 105.449 12.5372 105.086 12.5271V12.3301H106.716L111.602 17.398V13.2897C111.602 12.6609 111.415 12.5473 110.584 12.5271V12.3301H113.014V12.5271C112.234 12.5271 112.069 12.6609 112.069 13.0649V18.8247H111.8V18.8222Z" fill="#041E5F"/>
<path d="M119.157 13.2669C119.489 12.6988 119.291 12.5246 118.629 12.5246V12.3276H120.974V12.5246C120.269 12.5751 119.969 12.8553 119.677 13.3402L117.954 16.2415V17.7894C117.954 18.3374 118.152 18.552 118.784 18.552H118.918V18.7489H116.065V18.552H116.263C116.908 18.552 117.093 18.3146 117.093 17.8096V16.3551L115.245 13.4866C114.738 12.6912 114.499 12.5473 113.824 12.5271V12.3301H116.583V12.5271C115.773 12.5271 115.722 12.724 116.032 13.1988L117.692 15.7491L119.154 13.272L119.157 13.2669Z" fill="#041E5F"/>
<path d="M56.0974 28.3065H55.8994C55.8156 27.5742 55.6202 27.4909 55.1937 27.4909H53.4397V29.6902C53.4397 30.165 53.6148 30.2584 54.0007 30.2584H55.5999C56.3259 30.2584 56.5442 29.9806 56.8031 29.0918H56.9909L56.8259 30.6296H51.315V30.4326H51.6044C52.4344 30.4326 52.5791 30.2054 52.5791 29.5867V25.2309C52.5791 24.6527 52.4446 24.4052 51.7491 24.4052H51.5206V24.2082H56.501L56.5848 25.6425H56.3969C56.2624 24.7663 56.0035 24.5794 55.6278 24.5794H53.4397V27.1197H55.2978C55.6709 27.1197 55.8486 26.9429 55.8994 26.3445H56.0974V28.3065Z" fill="#041E5F"/>
<path d="M59.2802 29.6802C58.8766 30.165 58.907 30.4326 59.5924 30.4326H59.8006V30.6296H57.3307V30.4326C58.0567 30.3695 58.3359 30.1953 59.0644 29.3292L60.6738 27.4L59.0644 25.3875C58.4222 24.582 58.1506 24.4279 57.3307 24.4077V24.2108H60.4225V24.4077C59.5086 24.3976 59.468 24.6249 59.7904 25.0264L61.2018 26.7611L62.3238 25.4304C62.9457 24.6981 62.9254 24.4077 62.3644 24.4077H62.0623V24.2108H64.5525V24.4077C63.8671 24.4077 63.3899 24.7284 62.7883 25.4607L61.4607 27.0818L63.4102 29.4983C64.0118 30.2508 64.1997 30.3645 64.9866 30.4377V30.6346H62.1232V30.4377C62.8492 30.4377 63.0168 30.2609 62.4862 29.6221L60.9302 27.7131L59.2802 29.6852V29.6802Z" fill="#041E5F"/>
<path d="M68.7537 29.6801C68.7537 30.2382 68.9415 30.4326 69.5736 30.4326H69.9569V30.6296H66.6874V30.4326H67.0707C67.7028 30.4326 67.8906 30.2357 67.8906 29.6801V24.582H66.0858C65.6695 24.582 65.4842 24.8193 65.3293 25.7284H65.1415L65.3065 24.0567H65.5045C65.5146 24.1199 65.5552 24.1603 65.6187 24.1805C65.6822 24.2007 65.7532 24.2108 65.8269 24.2108H70.8174C70.9621 24.2108 71.1195 24.1805 71.1398 24.0567H71.3378L71.5028 25.7284H71.3149C71.1601 24.8193 70.9723 24.582 70.5585 24.582H68.7537V29.6801Z" fill="#041E5F"/>
<path d="M73.6909 29.6574C73.6909 30.2761 73.9397 30.4326 74.521 30.4326H74.7596V30.6296H71.8226V30.4326H72.0003C72.6121 30.4326 72.8304 30.2685 72.8304 29.5766V25.2309C72.8304 24.5895 72.6527 24.4052 72.0511 24.4052H71.8226V24.2082C72.0714 24.2082 72.7034 24.1678 73.1299 24.1451C73.5564 24.1249 73.762 24.1148 74.4372 24.1148C76.3562 24.1148 77.2193 24.9001 77.2193 25.9531C77.2193 26.7283 76.6913 27.3773 75.8384 27.6247C76.2217 27.9252 76.5339 28.2131 77.0213 28.6979L77.8412 29.5135C78.453 30.122 79.0876 30.5033 79.8847 30.5564V30.7432C78.0697 30.8266 77.6026 30.4326 76.6786 29.516L75.9932 28.8342C75.5363 28.3797 75.1733 28.0818 74.9246 27.9151C74.6657 27.9252 74.4981 27.9353 74.2189 27.9353C73.9904 27.9353 73.8559 27.9252 73.6909 27.9151V29.66V29.6574ZM73.6909 27.7181C73.9397 27.7484 74.0945 27.7383 74.3331 27.7383C75.4856 27.7383 76.242 27.2535 76.242 26.0137C76.242 25.0542 75.8054 24.3093 74.2087 24.3093C74.0107 24.3093 73.8762 24.3093 73.6909 24.3295V27.7181Z" fill="#041E5F"/>
<path d="M81.9812 27.7787L81.3795 29.3998C81.3059 29.5968 81.1714 29.9048 81.1714 30.0513C81.1714 30.3291 81.4405 30.4326 82.0116 30.4326H82.1766V30.6296H79.7803V30.4326C80.4556 30.4225 80.5698 30.3089 80.9023 29.4099L82.7909 24.2789L82.697 24.0516H83.6007L85.7685 29.7811C85.9766 30.3291 86.1949 30.4326 86.7128 30.4326V30.6296H83.8596V30.4326H84.1287C84.7201 30.4326 84.9384 30.3695 84.9384 30.0816C84.9384 29.9175 84.8648 29.7609 84.8242 29.6574L84.1287 27.7787H81.9812ZM83.0397 24.9203L82.1588 27.3242H83.9535L83.0397 24.9203Z" fill="#041E5F"/>
<path d="M93.6021 30.7003L88.2257 25.1046V29.5337C88.2257 30.2761 88.3907 30.4326 89.2741 30.4326V30.6296H86.8677V30.4326H86.9083C87.5505 30.4326 87.7586 30.2155 87.7586 29.7407V24.6628C87.52 24.4986 87.251 24.4153 86.888 24.4052V24.2082H88.5176L93.4041 29.2761V25.1678C93.4041 24.539 93.2163 24.4254 92.3862 24.4052V24.2082H94.8155V24.4052C94.0362 24.4052 93.8712 24.539 93.8712 24.9405V30.7003H93.6021Z" fill="#041E5F"/>
<path d="M96.8084 29.5665C96.8084 31.6422 95.958 33.036 94.6609 33.036C94.0897 33.036 93.6531 32.7987 93.6531 32.478C93.6531 32.2608 93.8181 32.0639 94.0263 32.0639C94.3791 32.0639 94.6583 32.5487 95.0949 32.5487C95.5925 32.5487 95.9453 32.1775 95.9453 31.0311V25.5188C95.9453 24.6097 95.8514 24.4027 95.1051 24.4027H94.9909V24.2057H97.6156V24.4027C96.9505 24.4229 96.8058 24.6097 96.8058 25.1552V29.5615L96.8084 29.5665Z" fill="#041E5F"/>
<path d="M102.525 28.3065H102.327C102.243 27.5742 102.047 27.4909 101.621 27.4909H99.8669V29.6902C99.8669 30.165 100.042 30.2584 100.428 30.2584H102.025C102.751 30.2584 102.969 29.9806 103.228 29.0918H103.416L103.251 30.6296H97.7397V30.4326H98.0291C98.8591 30.4326 99.0038 30.2054 99.0038 29.5867V25.2309C99.0038 24.6527 98.8693 24.4052 98.1738 24.4052H97.9453V24.2082H102.926L103.009 25.6425H102.822C102.687 24.7663 102.428 24.5794 102.052 24.5794H99.8644V27.1197H101.722C102.096 27.1197 102.273 26.9429 102.324 26.3445H102.522V28.3065H102.525Z" fill="#041E5F"/>
<path d="M105.731 29.6574C105.731 30.2761 105.98 30.4326 106.561 30.4326H106.8V30.6296H103.863V30.4326H104.04C104.652 30.4326 104.871 30.2685 104.871 29.5766V25.2309C104.871 24.5895 104.693 24.4052 104.091 24.4052H103.863V24.2082C104.112 24.2082 104.744 24.1678 105.17 24.1451C105.597 24.1249 105.802 24.1148 106.477 24.1148C108.396 24.1148 109.259 24.9001 109.259 25.9531C109.259 26.7283 108.731 27.3772 107.879 27.6247C108.262 27.9252 108.574 28.2131 109.061 28.6979L109.881 29.5135C110.493 30.122 111.128 30.5033 111.925 30.5563V30.7432C110.11 30.8265 109.643 30.4326 108.719 29.516L108.033 28.8342C107.576 28.3797 107.214 28.0817 106.965 27.9151C106.706 27.9252 106.538 27.9353 106.259 27.9353C106.031 27.9353 105.896 27.9252 105.731 27.9151V29.6599V29.6574ZM105.731 27.7181C105.98 27.7484 106.135 27.7383 106.373 27.7383C107.526 27.7383 108.282 27.2535 108.282 26.0137C108.282 25.0541 107.846 24.3092 106.249 24.3092C106.051 24.3092 105.916 24.3092 105.731 24.3294V27.7181Z" fill="#041E5F"/>
<path d="M114.768 30.6296H112.247V30.4326C112.889 30.4023 113.026 30.2357 113.026 29.5438V25.1476C113.026 24.5895 112.828 24.4355 112.247 24.4052V24.2083H114.768V24.4052C114.113 24.4052 113.887 24.5491 113.887 25.241V29.617C113.887 30.2256 114.052 30.4326 114.768 30.4326V30.6296ZM112.506 23.3926L113.46 22.0821C113.669 21.8043 113.917 21.6276 114.125 21.6276C114.313 21.6276 114.448 21.7513 114.448 21.9281C114.448 22.125 114.24 22.3296 113.742 22.6604L112.643 23.3926H112.506Z" fill="#041E5F"/>
<path d="M117.268 27.7787L116.667 29.3998C116.593 29.5968 116.459 29.9048 116.459 30.0513C116.459 30.3291 116.728 30.4326 117.299 30.4326H117.464V30.6296H115.068V30.4326C115.743 30.4225 115.857 30.3089 116.19 29.4099L118.078 24.2789L117.984 24.0516H118.888L121.056 29.7811C121.264 30.3291 121.482 30.4326 122 30.4326V30.6296H119.147V30.4326H119.416C120.007 30.4326 120.226 30.3695 120.226 30.0816C120.226 29.9175 120.152 29.7609 120.111 29.6574L119.416 27.7787H117.268ZM118.327 24.9203L117.446 27.3242H119.241L118.327 24.9203Z" fill="#041E5F"/>
</svg>
