<svg xmlns="http://www.w3.org/2000/svg" width="159" height="57" viewBox="0 0 159 57" fill="none">
  <path d="M4.49822 49.5058C3.8736 49.7936 3.19638 49.9539 2.5093 49.9703C1.24691 50.0226 0.18177 49.0478 0.12917 47.7917C0.12917 47.7426 0.12917 47.6968 0.12917 47.6477C0.109445 46.2902 1.1976 45.1715 2.5619 45.1518C2.6145 45.1518 2.66381 45.1518 2.71641 45.1518C3.21611 45.178 3.71252 45.2598 4.19249 45.4037C4.25495 45.4037 4.31413 45.3874 4.36344 45.3514H4.46864V46.5454H4.31741C4.2155 45.8028 3.54814 45.2729 2.7986 45.335C1.49347 45.335 0.826115 46.4112 0.826115 47.5987C0.826115 49.11 1.89454 49.7838 2.746 49.7838C3.1405 49.7838 3.53171 49.6857 3.88018 49.5025V48.5735C3.88018 48.1548 3.73224 48.0108 3.28515 48.0108H3.01229V47.8767H5.01436V48.0108C4.64287 48.0337 4.49494 48.158 4.49494 48.4753V49.4992L4.49822 49.5058Z" fill="white"/>
  <path d="M7.67454 49.9703C6.22148 49.9703 4.99525 49.0413 4.99525 47.6608C4.99525 46.1954 6.12943 45.1519 7.7107 45.1519C9.11117 45.1519 10.3144 46.1038 10.3144 47.4319C10.3144 48.8352 9.17034 49.9703 7.76002 49.9703C7.73043 49.9703 7.70084 49.9703 7.67125 49.9703H7.67454ZM7.52003 45.3383C6.2149 45.3383 5.69548 46.5486 5.69548 47.4351C5.69548 48.8156 6.63899 49.7871 7.83234 49.7871C9.02569 49.7871 9.62073 48.724 9.62073 47.6772C9.62073 46.3033 8.74626 45.3383 7.52332 45.3383H7.52003Z" fill="white"/>
  <path d="M11.0141 46.0481C11.0141 45.6294 10.9615 45.407 10.4421 45.407H10.1824V45.2663C10.3895 45.2598 10.9023 45.2303 11.116 45.2205C11.5237 45.2074 12.0891 45.1976 12.2305 45.1976C12.8847 45.1976 13.4534 45.2925 13.723 45.4855C14.009 45.6589 14.1799 45.9696 14.1734 46.3033C14.1438 46.7645 13.7887 47.144 13.3285 47.2028V47.2192C14.0254 47.4253 14.4331 47.8767 14.4331 48.4524C14.4331 49.0281 14.0254 49.8525 12.8321 49.8525H10.1166V49.7118H10.2876C10.8958 49.7118 11.0141 49.5712 11.0141 49.1067V46.0448V46.0481ZM11.6289 47.1832H12.4376C13.151 47.1832 13.506 46.9019 13.506 46.3262C13.506 45.8093 13.1937 45.3383 12.2831 45.3383C12.1187 45.3383 11.8162 45.3546 11.6289 45.3612V47.1832ZM11.6289 48.894C11.6289 49.4567 11.8524 49.6529 12.4737 49.6529C13.4534 49.6529 13.7361 49.0478 13.7361 48.472C13.7361 47.8963 13.2989 47.3206 12.431 47.3206H11.6289V48.894Z" fill="white"/>
  <path d="M16.3696 49.8525H14.568V49.7118C15.0283 49.6889 15.1236 49.5712 15.1236 49.0772V45.9336C15.1236 45.5346 14.9823 45.4233 14.568 45.4037V45.263H16.3696V45.4037C15.9028 45.4037 15.7384 45.5084 15.7384 46.0023V49.1296C15.7384 49.5646 15.8567 49.7118 16.3696 49.7118V49.8525Z" fill="white"/>
  <path d="M19.9791 48.194H19.8377C19.7786 47.6706 19.6372 47.6117 19.3348 47.6117H18.0822V49.1819C18.0822 49.5221 18.2072 49.5875 18.4833 49.5875H19.6273C20.1468 49.5875 20.3013 49.388 20.4887 48.7534H20.6235L20.5051 49.8525H16.5667V49.7118H16.7738C17.3656 49.7118 17.4708 49.5483 17.4708 49.1067V45.9925C17.4708 45.5804 17.3754 45.4037 16.879 45.4037H16.7146V45.263H20.275L20.3342 46.2902H20.1994C20.104 45.6621 19.9166 45.5313 19.6504 45.5313H18.0855V47.3468H19.4137C19.6799 47.3468 19.8082 47.2225 19.8443 46.794H19.9857V48.1973L19.9791 48.194Z" fill="white"/>
  <path d="M21.8294 49.159C21.8294 49.6006 22.0069 49.7118 22.4211 49.7118H22.5921V49.8525H20.4914V49.7118H20.6163C21.0535 49.7118 21.208 49.5941 21.208 49.1001V45.9958C21.208 45.5378 21.0831 45.407 20.6525 45.407H20.4881V45.2663C20.6656 45.2663 21.1193 45.2369 21.4217 45.2205C21.7242 45.2042 21.8721 45.1976 22.3554 45.1976C23.7262 45.1976 24.3443 45.7603 24.3443 46.5126C24.3279 47.0884 23.9235 47.5823 23.3581 47.7066C23.6572 47.9454 23.9399 48.2005 24.2029 48.4753L24.7881 49.0576C25.1629 49.4828 25.6856 49.7478 26.251 49.8034V49.9375C24.9525 49.9964 24.6204 49.7151 23.9597 49.0609L23.4698 48.5735C23.2364 48.3314 22.98 48.1122 22.7071 47.916C22.523 47.9225 22.4014 47.929 22.2041 47.929C22.0398 47.929 21.9444 47.9225 21.8261 47.916V49.1623L21.8294 49.159ZM21.8294 47.772C21.9806 47.7884 22.1351 47.7916 22.2896 47.7851C23.1115 47.7851 23.6539 47.4384 23.6539 46.5519C23.6539 45.8649 23.3416 45.335 22.2009 45.335C22.0759 45.335 21.9543 45.335 21.8294 45.3514V47.772Z" fill="white"/>
  <path d="M30.4327 49.9801L26.5897 45.9828V49.1493C26.5897 49.6792 26.708 49.7904 27.3392 49.7904V49.9311H25.6199V49.7904H25.6494C26.1097 49.7904 26.2576 49.6367 26.2576 49.2965V45.6655C26.0735 45.5412 25.8565 45.479 25.633 45.4823V45.3416H26.7968L30.2914 48.9628V46.0253C30.2914 45.5771 30.1566 45.4954 29.5648 45.479V45.3383H31.3006V45.479C30.745 45.479 30.6267 45.5739 30.6267 45.8617V49.9769H30.4327V49.9801Z" fill="white"/>
  <path d="M33.8035 49.9703C32.3504 49.9703 31.1242 49.0413 31.1242 47.6608C31.1242 46.1954 32.2584 45.1519 33.8396 45.1519C35.2401 45.1519 36.4433 46.1038 36.4433 47.4319C36.4433 48.8352 35.2993 49.9703 33.8889 49.9703C33.8593 49.9703 33.8298 49.9703 33.8002 49.9703H33.8035ZM33.6489 45.3383C32.3438 45.3383 31.8244 46.5486 31.8244 47.4351C31.8244 48.8156 32.7679 49.7871 33.9613 49.7871C35.1546 49.7871 35.7496 48.724 35.7496 47.6772C35.7496 46.3033 34.8752 45.3383 33.6489 45.3383Z" fill="white"/>
  <path d="M38.9511 46.0023C38.9511 45.5247 38.8262 45.4037 38.3889 45.4037H38.241V45.2631C38.5139 45.25 38.8788 45.2336 39.2864 45.2173C39.6941 45.2009 40.1477 45.1944 40.5324 45.1944C42.4917 45.1944 43.3596 46.1823 43.3596 47.3991C43.3596 48.5146 42.4917 49.8492 40.6146 49.8492H38.241V49.7086H38.3659C38.767 49.7086 38.9511 49.5973 38.9511 49.1688V45.9991V46.0023ZM39.5659 49.3062C39.5659 49.6072 39.5889 49.7118 40.174 49.7118C41.1669 49.7118 41.5844 49.5712 42.0446 49.1132C42.449 48.6814 42.6725 48.109 42.6594 47.5202C42.6791 46.9346 42.4654 46.3622 42.0676 45.9336C41.7257 45.5934 41.1997 45.335 40.1609 45.335C39.8584 45.335 39.6579 45.3579 39.5691 45.3645V49.3062H39.5659Z" fill="white"/>
  <path d="M46.6142 48.194H46.4728C46.4136 47.6706 46.2723 47.6117 45.9698 47.6117H44.714V49.1819C44.714 49.5221 44.8389 49.5875 45.1151 49.5875H46.2591C46.7786 49.5875 46.9331 49.388 47.1204 48.7534H47.2552L47.1369 49.8525H43.1985V49.7118H43.4056C43.9973 49.7118 44.1025 49.5483 44.1025 49.1067V45.9925C44.1025 45.5804 44.0072 45.4037 43.5108 45.4037H43.3464V45.263H46.9068L46.9659 46.2902H46.8312C46.7358 45.6621 46.5484 45.5313 46.2821 45.5313H44.7173V47.3468H46.0454C46.3117 47.3468 46.4399 47.2225 46.4761 46.794H46.6175V48.1973L46.6142 48.194Z" fill="white"/>
  <path d="M3.62472 55.1943H3.48336C3.42419 54.6611 3.27954 54.6022 2.97051 54.6022H1.69826V56.1953C1.69826 56.5387 1.82647 56.6074 2.10591 56.6074H3.26639C3.79238 56.6074 3.95018 56.4046 4.13757 55.7602H4.27235L4.15072 56.8757H0.156436V56.7318H0.366834C0.968442 56.7318 1.07364 56.5682 1.07364 56.1168V52.9568C1.07364 52.5381 0.975017 52.3582 0.472033 52.3582H0.307659V52.2175H3.92059L3.97977 53.2578H3.84498C3.74636 52.6199 3.55897 52.4858 3.28611 52.4858H1.69826V54.3274H3.04613C3.3157 54.3274 3.44391 54.1999 3.48336 53.7648H3.62472V55.1943Z" fill="white"/>
  <path d="M7.89508 56.879H4.52871V56.735H4.77856C5.12374 56.735 5.25195 56.6238 5.25195 56.2411V52.9241C5.25195 52.5283 5.13032 52.3615 4.65692 52.3615H4.55172V52.2208H6.77406V52.3615H6.49462C6.00479 52.3615 5.87657 52.4138 5.87657 52.8783V56.3294C5.87657 56.5322 5.95876 56.6075 6.17902 56.6075H7.2869C7.73071 56.6075 7.8655 56.4341 8.33889 55.7831H8.47368L7.89508 56.8757V56.879Z" fill="white"/>
  <path d="M10.6501 55.7406C10.7651 56.349 11.301 56.7906 11.9223 56.7972C12.4253 56.7972 12.9612 56.5061 12.9612 55.914C12.9612 54.8378 10.5449 54.5074 10.5449 53.1956C10.5449 52.5741 11.1169 52.1096 11.8862 52.1096C12.5174 52.1096 12.6456 52.2961 12.9086 52.2961C12.9645 52.2993 13.0171 52.2699 13.0434 52.2208H13.165L13.2932 53.1727H13.165C12.9842 52.6592 12.5009 52.3059 11.9519 52.2895C11.4555 52.2895 11.1103 52.5741 11.1103 52.9928C11.1103 54.056 13.5266 54.3405 13.5266 55.7177C13.5266 56.4504 12.8724 56.9967 11.9914 56.9967C11.6363 56.9607 11.2878 56.892 10.9459 56.7939C10.8835 56.7939 10.8276 56.8266 10.7947 56.8757H10.6665L10.5087 55.7373H10.6501V55.7406Z" fill="white"/>
  <path d="M15.2659 54.8116L14.8287 55.986C14.7596 56.1364 14.7103 56.2967 14.6775 56.457C14.6775 56.6598 14.8714 56.7351 15.2856 56.7351H15.4073V56.879H13.6682V56.7351C14.158 56.7285 14.2402 56.6467 14.4802 55.9958L15.8511 52.2765L15.782 52.1129H16.4362L18.011 56.2673C18.0701 56.5846 18.3759 56.7939 18.6947 56.7383V56.8823H16.6236V56.7383H16.8176C17.2483 56.7383 17.4061 56.6925 17.4061 56.4832C17.3995 56.3752 17.3699 56.2738 17.3239 56.1757L16.8176 54.8116H15.2626H15.2659ZM16.0352 52.7377L15.3941 54.4812H16.696L16.0352 52.7377Z" fill="white"/>
  <path d="M22.0247 56.879H18.6617V56.7351H18.9115C19.2567 56.7351 19.3849 56.6238 19.3849 56.2411V52.9242C19.3849 52.5283 19.2633 52.3615 18.7899 52.3615H18.6847V52.2209H20.9037V52.3615H20.6243C20.1344 52.3615 20.0062 52.4139 20.0062 52.8784V56.3294C20.0062 56.5322 20.0884 56.6075 20.3087 56.6075H21.4166C21.8604 56.6075 21.9952 56.4341 22.4685 55.7832H22.6033L22.0215 56.8757L22.0247 56.879Z" fill="white"/>
  <path d="M23.7342 56.9967L22.1003 52.947C21.9129 52.476 21.8209 52.3648 21.3606 52.3648V52.2241H23.4318V52.3648C22.7381 52.3811 22.5737 52.5381 22.7184 52.8816L24.0728 56.2345L25.2629 53.1433C25.3319 52.9961 25.3747 52.8391 25.3911 52.6788C25.3911 52.4531 25.2037 52.3648 24.6909 52.3648V52.2241H26.4365V52.3648C26.0453 52.3648 25.8415 52.5447 25.6607 53.0092L24.109 57H23.7342V56.9967Z" fill="white"/>
  <path d="M27.1596 54.8116L26.7223 55.986C26.6533 56.1364 26.604 56.2967 26.5711 56.457C26.5711 56.6598 26.7651 56.7351 27.1793 56.7351H27.3009V56.879H25.5618V56.7351C26.0517 56.7285 26.1339 56.6467 26.3738 55.9958L27.7447 52.2765L27.6757 52.1129H28.3299L29.9046 56.2673C29.9638 56.5846 30.2695 56.7939 30.5884 56.7383V56.8823H28.5173V56.7383H28.7112C29.1419 56.7383 29.2997 56.6925 29.2997 56.4832C29.2931 56.3752 29.2635 56.2706 29.2175 56.1757L28.7145 54.8149H27.1563L27.1596 54.8116ZM27.9255 52.7377L27.2845 54.4812H28.5863L27.9222 52.7377H27.9255Z" fill="white"/>
  <path d="M31.2394 52.9699C31.2394 52.4825 31.1112 52.3647 30.6673 52.3647H30.5161V52.2241C30.7956 52.2077 31.1638 52.1946 31.578 52.1783C31.9922 52.1619 32.4492 52.1554 32.8404 52.1554C34.826 52.1554 35.707 53.1596 35.707 54.3929C35.707 55.5247 34.826 56.8789 32.9226 56.8789H30.5161V56.735H30.6443C31.052 56.735 31.2394 56.6238 31.2394 56.1887V52.9699ZM31.864 56.3228C31.864 56.6303 31.887 56.735 32.482 56.735C33.4913 56.735 33.9121 56.5943 34.3789 56.1298C34.7898 55.6915 35.0134 55.1125 35.0035 54.5139C35.0233 53.9185 34.8096 53.3395 34.4019 52.9045C34.0567 52.561 33.5209 52.2993 32.4689 52.2993C32.1599 52.2993 31.956 52.3222 31.8673 52.3288V56.3261L31.864 56.3228Z" fill="white"/>
  <path d="M38.7616 56.9967C37.2888 56.9967 36.0428 56.0546 36.0428 54.6546C36.0428 53.1662 37.1934 52.1096 38.7977 52.1096C40.2212 52.1096 41.4409 53.0746 41.4409 54.4223C41.4409 55.8453 40.2804 57 38.8503 57C38.8207 57 38.7912 57 38.7616 57V56.9967ZM38.6038 52.2961C37.2789 52.2961 36.7529 53.5228 36.7529 54.4223C36.7529 55.8224 37.7096 56.8103 38.9194 56.8103C40.1292 56.8103 40.7341 55.7341 40.7341 54.6677C40.7341 53.2741 39.8464 52.2928 38.6038 52.2928V52.2961Z" fill="white"/>
  <path d="M42.7361 56.1757C42.7361 56.6238 42.9169 56.7383 43.3377 56.7383H43.5119V56.879H41.3817V56.7351H41.5099C41.9537 56.7351 42.1115 56.614 42.1115 56.1135V52.9634C42.1115 52.4989 41.9833 52.3648 41.546 52.3648H41.3817V52.2241C41.5625 52.2241 42.0227 52.1947 42.3317 52.1783C42.6408 52.162 42.792 52.1554 43.2785 52.1554C44.6724 52.1554 45.297 52.7246 45.297 53.4868C45.2806 54.0723 44.8697 54.5695 44.2944 54.7004C44.5968 54.9425 44.8828 55.2009 45.1524 55.4789L45.7474 56.071C46.1255 56.5028 46.6581 56.771 47.2301 56.8266V56.9608C45.9118 57.0196 45.5765 56.7351 44.9025 56.071L44.4061 55.5771C44.1694 55.3317 43.9097 55.1093 43.6303 54.9097C43.4429 54.9163 43.3213 54.9261 43.1174 54.9261C42.9531 54.9261 42.8544 54.9196 42.7328 54.9097V56.1757H42.7361ZM42.7361 54.7691C42.8906 54.7854 43.0484 54.7887 43.2029 54.7854C44.0379 54.7854 44.5869 54.4322 44.5869 53.5359C44.5869 52.8391 44.2713 52.2994 43.1142 52.2994C42.9892 52.2994 42.8643 52.2994 42.7394 52.3157V54.7724L42.7361 54.7691Z" fill="white"/>
  <path d="M23.7163 0L24.2686 1.11547L25.5047 1.29538L24.6105 2.16224L24.8209 3.38565L23.7163 2.80666L22.6117 3.38238L22.8221 2.15897L21.9279 1.29211L23.164 1.1122L23.7163 0.00327116V0Z" fill="white"/>
  <path d="M31.8469 2.06409L32.3992 3.17956L33.6353 3.35947L32.7411 4.22633L32.9515 5.44975L31.8469 4.87075L30.7423 5.44648L30.9527 4.22306L30.0585 3.3562L31.2946 3.17629L31.8469 2.06409Z" fill="white"/>
  <path d="M38.0771 7.0821L38.6294 8.19756L39.8655 8.37748L38.9713 9.24433L39.1817 10.4677L38.0771 9.88875L36.9725 10.4677L37.1829 9.24433L36.2887 8.37748L37.5248 8.19756L38.0771 7.0821Z" fill="white"/>
  <path d="M41.6363 14.2688L42.1886 15.3843L43.4247 15.5642L42.5305 16.4311L42.7409 17.6545L41.6363 17.0755L40.5317 17.6545L40.7421 16.4311L39.8479 15.5642L41.084 15.3843L41.6363 14.2688Z" fill="white"/>
  <path d="M41.7754 22.6103L42.3277 23.7257L43.5638 23.9056L42.6696 24.7725L42.88 25.9959L41.7754 25.4169L40.6708 25.9959L40.8812 24.7725L39.987 23.9056L41.2231 23.7257L41.7754 22.6103Z" fill="white"/>
  <path d="M38.0859 29.8297L38.6382 30.9452L39.8743 31.1251L38.9801 31.9919L39.1905 33.2154L38.0859 32.6364L36.9813 33.2154L37.1917 31.9919L36.2975 31.1251L37.5336 30.9452L38.0859 29.8297Z" fill="white"/>
  <path d="M31.8828 34.851L32.4351 35.9665L33.6712 36.1464L32.777 37.0132L32.9874 38.2366L31.8828 37.6576L30.7783 38.2366L30.9887 37.0132L30.0945 36.1464L31.3305 35.9665L31.8828 34.851Z" fill="white"/>
  <path d="M23.7139 36.6174L24.2662 37.7329L25.5023 37.9128L24.6081 38.7797L24.8185 40.0031L23.7139 39.4241L22.6093 40.0031L22.8197 38.7797L21.9255 37.9128L23.1616 37.7329L23.7139 36.6174Z" fill="white"/>
  <path d="M15.7249 34.8575L16.2771 35.9729L17.5132 36.1529L16.619 37.0197L16.8294 38.2431L15.7249 37.6641L14.6203 38.2431L14.8307 37.0197L13.9365 36.1529L15.1726 35.9729L15.7249 34.8608V34.8575Z" fill="white"/>
  <path d="M9.52101 29.8395L10.0733 30.955L11.3094 31.1349L10.4152 32.0018L10.6256 33.2252L9.52101 32.6462L8.41641 33.2252L8.62681 32.0018L7.73262 31.1316L8.96871 30.9517L9.52101 29.8395Z" fill="white"/>
  <path d="M5.82588 22.6626L6.37817 23.7781L7.61426 23.958L6.72007 24.8249L6.93047 26.0483L5.82588 25.4693L4.72129 26.045L4.93168 24.8216L4.03749 23.9547L5.27358 23.7748L5.82588 22.6659V22.6626Z" fill="white"/>
  <path d="M5.82588 14.2688L6.37817 15.3843L7.61426 15.5642L6.72007 16.4311L6.93047 17.6545L5.82588 17.0755L4.72129 17.6545L4.93168 16.4311L4.03749 15.5642L5.27358 15.3843L5.82588 14.2688Z" fill="white"/>
  <path d="M9.33393 7.09187L9.88623 8.20733L11.1223 8.38725L10.2281 9.2541L10.4385 10.4775L9.33393 9.89852L8.22934 10.4775L8.43974 9.2541L7.54554 8.38725L8.78164 8.20733L9.33722 7.09187H9.33393Z" fill="white"/>
  <path d="M15.7153 2.06738L16.2676 3.18284L17.5036 3.36276L16.6095 4.22961L16.8199 5.45303L15.7153 4.87403L14.6107 5.45303L14.8211 4.22961L13.9269 3.36276L15.163 3.18284L15.7153 2.07065V2.06738Z" fill="white"/>
  <path d="M33.1945 22.8915C33.1945 22.8915 33.1814 22.8915 33.1781 22.8882C33.0926 22.8882 33.0236 22.9569 33.0236 23.042C33.0236 23.127 33.0926 23.1957 33.1781 23.1957C33.1781 23.1957 33.1912 23.1957 33.1945 23.1925C33.2011 23.1925 33.2077 23.1925 33.2142 23.1957C33.2997 23.1957 33.3688 23.127 33.3688 23.042C33.3688 22.9569 33.2997 22.8882 33.2142 22.8882C33.2142 22.8882 33.2011 22.8882 33.1945 22.8915Z" fill="white"/>
  <path d="M34.898 20.7522C34.7665 20.7751 34.6383 20.8209 34.5232 20.8929C34.4575 20.9387 34.3852 20.9681 34.3063 20.9812C34.3523 20.8896 34.372 20.7882 34.3622 20.6868C34.3359 20.4087 34.3359 19.9508 34.3359 19.9508C34.3359 19.9508 34.2438 20.2288 34.109 20.2975C33.9677 20.3629 33.7145 20.4578 33.6685 20.5494C33.6225 20.641 33.4351 20.641 33.3628 20.9223C33.3463 21.0433 33.3069 21.1611 33.2477 21.2658C33.2313 21.2985 33.2115 21.3312 33.1885 21.3606C33.2806 20.9583 33.3299 20.5494 33.343 20.1372C33.343 20.0718 33.343 20.0096 33.343 19.9475C33.3989 19.8984 33.4548 19.8494 33.5041 19.7937C33.5633 19.6956 34.28 19.4536 34.3786 19.2606C34.4772 19.0741 34.5331 18.9432 34.5791 18.8615C34.6515 18.6979 34.6876 18.5213 34.6942 18.3446C34.6876 18.1058 34.6613 17.867 34.6153 17.6348C34.5035 17.6904 34.4049 17.7656 34.3227 17.8605C34.2997 17.8899 34.2734 17.9194 34.2438 17.9423C34.2438 17.8736 34.2339 17.8082 34.2109 17.7427C34.1123 17.4974 33.9578 17.1735 33.9578 17.1735C33.9578 17.1735 33.823 17.3796 33.7507 17.5039C33.629 17.7427 33.5107 17.7624 33.491 17.8572C33.4778 17.9554 33.3299 18.0175 33.2773 18.2105C33.2609 18.2596 33.251 18.3119 33.2411 18.3643C33.1885 17.9521 33.1195 17.5792 33.0439 17.2422C33.0768 17.1343 33.1162 16.8988 33.2148 16.8235C33.3398 16.7025 33.3989 16.5291 33.3759 16.359C33.3726 16.2118 33.3496 16.0646 33.3102 15.9207C33.2904 15.8062 32.9354 15.3221 32.9617 15.1847C32.9617 15.1847 32.7875 15.5772 32.7217 15.731C32.5475 15.5576 32.3502 15.4071 32.1332 15.2861C32.0445 15.1356 31.9557 14.9819 31.8637 14.8314C31.867 14.7856 31.8768 14.6907 31.8933 14.5893C31.9393 14.4323 31.9459 14.2655 31.9196 14.1052C31.8735 13.9907 31.7782 13.8991 31.7322 13.7585C31.7059 13.6276 31.6401 13.5066 31.5448 13.4117C31.4297 13.2907 31.2654 13.1337 31.2654 13.1337C31.2654 13.1337 31.2193 13.3397 31.1766 13.5066C31.1371 13.487 31.0977 13.4706 31.0582 13.4608C31.0319 13.451 30.9728 13.4183 30.907 13.3855C30.8281 13.2776 30.7492 13.1729 30.6769 13.0813C30.7196 13.0552 30.7459 13.0061 30.7459 12.957C30.7459 12.8687 30.6802 12.7967 30.5914 12.7935C30.5027 12.7935 30.4303 12.8589 30.427 12.9472C30.427 13.0355 30.4928 13.1075 30.5816 13.1108C30.6144 13.1108 30.6473 13.1042 30.6736 13.0846C30.6933 13.1173 30.7558 13.2122 30.8446 13.3528C30.7689 13.3136 30.6966 13.2711 30.6637 13.2482C30.6046 13.2089 30.5717 13.6636 30.7098 13.9155C30.6868 13.9089 30.6637 13.9024 30.644 13.8991C30.4698 13.8533 30.289 13.8402 30.1115 13.8533C30.1772 13.8533 30.3449 14.0332 30.3646 14.1248C30.4238 14.2655 30.5191 14.3832 30.644 14.4716C30.7689 14.5435 30.8873 14.6286 30.9925 14.73C31.1733 14.8216 31.3771 14.8608 31.5809 14.8445C31.6434 14.8837 31.7125 14.9001 31.7848 14.8935C31.8702 15.0408 31.9557 15.1912 32.0412 15.3417C32.005 15.4725 31.9886 15.6034 31.9886 15.7375C31.8735 15.7179 31.4823 15.623 31.4823 15.623C31.5053 15.8291 31.5744 16.0254 31.6861 16.202C31.6631 16.2216 31.6467 16.2511 31.6434 16.2805C31.6368 16.3296 31.6467 16.3787 31.6763 16.4212C31.7289 16.503 31.8078 16.5651 31.8965 16.6044L29.9898 17.939C30.0819 16.3067 30.0194 14.6678 29.8024 13.0453C30.0326 12.957 29.9701 12.8556 29.9701 12.8556L29.8813 12.6299C29.9043 12.6397 29.9306 12.6463 29.9569 12.6463C29.9997 12.6463 30.0391 12.6299 30.0654 12.6005C30.1213 12.5285 30.1115 12.4271 30.0391 12.3682C29.9964 12.3257 29.9471 12.2897 29.8912 12.2635L30.1608 12.2243L30.3153 11.57L29.6742 11.7859L29.6611 12.0575C29.6315 12.0051 29.592 11.9626 29.546 11.9233C29.4901 11.8579 29.3915 11.8481 29.3257 11.9037C29.26 11.9593 29.2501 12.0575 29.306 12.1229C29.3159 12.1327 29.3257 12.1425 29.3356 12.1523C29.4014 12.2145 29.4835 12.257 29.5723 12.2766C29.5723 12.2832 29.5789 12.2897 29.5822 12.293L26.3835 15.7997L24.2597 12.2668C24.3912 11.4098 23.9277 10.1111 23.9113 10.0588C23.9409 9.94428 23.954 9.82652 23.9474 9.70549C24.0428 9.67605 24.1184 9.60081 24.148 9.50595V9.49613C24.0724 9.39473 23.9902 9.30641 23.9014 9.21809C23.9409 9.2279 23.977 9.23117 24.0165 9.23117H24.0296C24.1217 9.23771 24.2006 9.16902 24.2071 9.07743C24.2006 8.98583 24.1217 8.91714 24.0329 8.92368C23.9704 8.92041 23.9113 8.92368 23.8521 8.94331L24.0263 8.73068L23.6976 8.14187L23.3721 8.73068L23.5464 8.94331C23.4905 8.92695 23.428 8.91714 23.3688 8.92368C23.3195 8.92368 23.2702 8.94331 23.2341 8.97602C23.2078 9.00219 23.1913 9.03817 23.1913 9.07743C23.1913 9.11668 23.2078 9.15266 23.2341 9.17883C23.2702 9.21154 23.3162 9.23117 23.3688 9.23117H23.3853C23.4182 9.23117 23.4477 9.2279 23.4773 9.22136C23.4247 9.27042 23.3524 9.34893 23.3064 9.40454C23.2867 9.4209 23.2735 9.43725 23.2604 9.45688L23.2505 9.46996C23.2505 9.46996 23.2538 9.48632 23.2571 9.49286V9.50595C23.2801 9.55174 23.313 9.591 23.3557 9.62371C23.1124 10.0719 22.5141 11.3771 22.8593 12.7379L21.0249 15.7931L17.813 12.2733C17.9083 12.257 17.9971 12.2145 18.0694 12.149C18.1056 12.1163 18.1286 12.0673 18.1319 12.0182C18.1385 11.9397 18.0793 11.8743 18.0004 11.8677C18.0004 11.8677 17.9971 11.8677 17.9938 11.8677C17.9445 11.8677 17.8985 11.8841 17.859 11.9168C17.813 11.9528 17.7703 12.0018 17.7407 12.0542L17.7275 11.7794L17.0865 11.5635L17.241 12.2177L17.5138 12.257C17.458 12.2832 17.4119 12.3159 17.3692 12.3584C17.333 12.3911 17.3067 12.4369 17.3034 12.4892C17.3034 12.5285 17.3133 12.5645 17.3396 12.5939C17.3659 12.6234 17.4021 12.6397 17.4415 12.6397H17.4481C17.4744 12.6397 17.5007 12.6332 17.5237 12.6234L17.4349 12.8491C17.4349 12.8491 17.3725 12.9538 17.6026 13.0388C17.3856 14.6613 17.3232 16.3001 17.4152 17.9325L15.5085 16.5978C15.5972 16.5618 15.6729 16.4997 15.7287 16.4179C15.755 16.3819 15.7682 16.3361 15.7649 16.2936C15.7616 16.2609 15.7452 16.2282 15.7222 16.2053C15.8339 16.0286 15.9063 15.8324 15.926 15.623C15.926 15.623 15.5315 15.7146 15.4197 15.7375C15.4197 15.6034 15.4 15.4693 15.3671 15.3417C15.4526 15.1912 15.5381 15.0408 15.6236 14.8935C15.6959 14.9001 15.7682 14.8805 15.8274 14.8445C16.0312 14.8641 16.235 14.8249 16.4158 14.73C16.521 14.6286 16.6361 14.5435 16.7643 14.4716C16.8892 14.3865 16.9879 14.2655 17.0437 14.1248C17.0635 14.0332 17.2311 13.8533 17.2969 13.8533C17.1161 13.8402 16.9385 13.8533 16.7643 13.8991C16.7446 13.9057 16.7216 13.9089 16.6986 13.9155C16.8366 13.6636 16.8038 13.2089 16.7446 13.2482C16.7117 13.2678 16.6394 13.3103 16.5638 13.3528C16.6525 13.2122 16.715 13.1173 16.7347 13.0846C16.7577 13.101 16.7873 13.1108 16.8169 13.1108C16.9024 13.1108 16.9714 13.0421 16.9714 12.957C16.9714 12.872 16.9024 12.8033 16.8169 12.8033C16.7314 12.8033 16.6624 12.872 16.6624 12.957C16.6624 13.0094 16.6887 13.0552 16.7314 13.0813C16.6591 13.1696 16.5802 13.2743 16.5013 13.3855C16.4356 13.4215 16.3764 13.451 16.3501 13.4608C16.3106 13.4706 16.2679 13.487 16.2317 13.5066C16.189 13.3397 16.143 13.1337 16.143 13.1337C16.143 13.1337 15.9753 13.294 15.8635 13.4117C15.7682 13.5066 15.7024 13.6276 15.6761 13.7585C15.6301 13.8991 15.5348 13.9907 15.4888 14.1052C15.4625 14.2655 15.469 14.4323 15.5151 14.5893C15.5282 14.6907 15.5381 14.7856 15.5447 14.8314C15.4526 14.9851 15.3606 15.1356 15.2751 15.2861C15.0614 15.4104 14.8641 15.5576 14.6866 15.731C14.6209 15.5772 14.4466 15.1847 14.4466 15.1847C14.4729 15.3253 14.1179 15.8095 14.0982 15.9207C14.0587 16.0646 14.0357 16.2118 14.0324 16.359C14.0094 16.5291 14.0686 16.7025 14.1935 16.8235C14.2888 16.902 14.3283 17.1376 14.3644 17.2422C14.2855 17.5792 14.2198 17.9521 14.1672 18.3643C14.1573 18.3119 14.1442 18.2596 14.131 18.2105C14.0784 18.0175 13.9305 17.9586 13.9174 17.8572C13.8976 17.7656 13.776 17.7427 13.6576 17.5039C13.582 17.3764 13.4472 17.1703 13.4472 17.1703C13.4472 17.1703 13.2927 17.4941 13.1941 17.7395C13.1711 17.8049 13.1579 17.8703 13.1612 17.939C13.1316 17.9161 13.1053 17.8899 13.0823 17.8572C13.0001 17.7624 12.9015 17.6871 12.7897 17.6315C12.7437 17.867 12.7174 18.1026 12.7108 18.3414C12.7141 18.518 12.7536 18.6946 12.8259 18.8582C12.8719 18.9367 12.9245 19.0708 13.0264 19.2573C13.1251 19.4503 13.8417 19.6923 13.9009 19.7905C13.9502 19.8461 14.0061 19.8952 14.062 19.9442C14.062 20.0064 14.062 20.0685 14.062 20.1339C14.0719 20.5461 14.1245 20.955 14.2165 21.3574C14.1935 21.3279 14.1738 21.2952 14.1573 21.2625C14.0982 21.1546 14.062 21.0368 14.0423 20.919C13.97 20.641 13.7826 20.641 13.7365 20.5461C13.6905 20.4513 13.4341 20.3597 13.296 20.2942C13.1612 20.2288 13.0692 19.9475 13.0692 19.9475C13.0692 19.9475 13.0692 20.4055 13.0429 20.6835C13.033 20.7849 13.0527 20.8863 13.0988 20.9779C13.0199 20.9648 12.9475 20.9321 12.8818 20.8896C12.7667 20.8209 12.6418 20.7718 12.507 20.7489C12.5366 20.9975 12.5859 21.2429 12.6484 21.4849C12.7076 21.6649 12.8029 21.8284 12.9278 21.9691C12.9936 22.041 13.0889 22.1555 13.2467 22.3158C13.4144 22.4826 13.8319 22.5154 14.2954 22.6691C14.4302 22.7116 14.5453 22.7967 14.6209 22.9144C14.6373 22.9733 14.6505 23.0257 14.6603 23.0649C14.7129 23.2677 14.782 23.5131 14.8609 23.7748C14.6965 23.6145 14.4762 23.5229 14.2461 23.5196C14.085 23.4934 13.4571 23.3331 13.4571 23.3331C13.6248 23.5327 13.7365 23.7715 13.7924 24.0234C13.5524 23.9808 13.3059 23.9808 13.0626 24.0234C13.3125 24.2131 13.5261 24.4486 13.6839 24.7201C13.776 24.9687 13.9108 25.2043 14.0784 25.4103C14.1508 25.4561 14.3579 25.7113 14.4992 25.8487C14.6406 25.9861 15.1929 25.9141 15.3803 25.9141C15.5282 25.9403 15.6696 25.9861 15.8044 26.0482C15.9819 26.2706 16.1791 26.4735 16.3928 26.6599C16.2021 26.5814 16.0279 26.4702 15.88 26.3263C15.7912 26.2052 15.8931 26.7352 15.9983 26.9053C15.857 26.902 15.7156 26.8627 15.594 26.7908C15.4395 26.6697 15.5742 27.2095 15.7419 27.3599C16.1002 27.6772 16.0674 27.7296 16.1265 27.7492C15.8241 27.8081 15.4033 27.9128 15.2751 27.8375C15.1074 27.7459 15.4625 28.0698 15.6761 28.1483C15.9819 28.2628 15.9424 28.4591 16.2778 28.567C16.5736 28.6946 16.8892 28.7665 17.2114 28.7796C17.3758 28.724 17.5467 28.6815 17.7177 28.6521C17.9215 28.6292 18.2634 28.3609 18.6546 28.3119C19.0228 28.5376 19.3976 28.7436 19.7855 28.9334C19.8019 28.9399 19.8249 28.9497 19.8447 28.9595C19.8019 28.9628 19.7559 28.9694 19.7132 28.9792C19.437 29.0609 19.1477 29.0904 18.8584 29.0708C18.7302 29.0053 19.0031 29.3783 19.174 29.5189C18.9176 29.5745 18.6546 29.5941 18.3916 29.5778C18.2042 29.5385 18.7664 30.075 18.9866 30.1339L19.0129 30.1404C18.8749 30.1928 18.7335 30.2255 18.5856 30.2386C18.3916 30.2255 19.2003 30.7489 19.4206 30.7162C20.1274 30.618 20.7947 30.8568 21.1235 30.7227C21.4161 30.6082 21.5903 30.5297 21.7383 30.4839C21.8862 30.4316 21.9651 30.2974 22.0571 30.232C22.1459 30.1175 22.2642 30.0227 22.3957 29.9605C22.4089 29.9671 22.422 29.9703 22.4352 29.9671C22.685 29.9801 22.9316 29.9801 23.1815 29.9671C23.0697 30.0129 22.9678 30.075 22.8757 30.1502C22.6193 30.2222 22.3694 30.3105 22.1229 30.4087C21.6955 30.6867 21.2977 31.0138 20.9394 31.3769C20.9394 31.3769 21.541 31.3311 21.6331 31.3311C21.7251 31.3311 21.9355 30.919 22.0276 30.847C22.0539 30.8274 22.2084 30.7489 22.4319 30.6475C22.2018 31.04 22.2807 31.5372 22.6193 31.8414C22.4582 31.655 22.639 31.3311 22.639 31.3311L22.9678 31.5372C22.5568 30.8372 23.1913 30.3727 23.4017 30.2418C23.4247 30.232 23.4445 30.2255 23.4675 30.2157C23.5266 30.3007 23.622 30.3531 23.7272 30.3563C23.8258 30.3531 23.9178 30.304 23.977 30.2255C24.0198 30.2418 24.0625 30.2582 24.1019 30.2746C24.3485 30.4381 24.8679 30.8895 24.4866 31.5372L24.812 31.3311C24.812 31.3311 24.9929 31.655 24.8318 31.8414C25.1638 31.5438 25.246 31.0596 25.0323 30.6704C25.2296 30.762 25.3643 30.8307 25.3874 30.847C25.4794 30.919 25.6898 31.3311 25.7818 31.3311C25.8739 31.3311 26.4755 31.3769 26.4755 31.3769C26.1172 31.0106 25.7227 30.6867 25.292 30.4087C25.0652 30.3171 24.8318 30.2353 24.5951 30.1666C24.4997 30.0848 24.388 30.0161 24.2696 29.9671C24.5195 29.9801 24.766 29.9801 25.0159 29.9671C25.0192 29.9671 25.0257 29.9671 25.029 29.9671C25.1539 30.0358 25.2657 30.1241 25.3578 30.232C25.4498 30.2974 25.532 30.4316 25.6766 30.4839C25.8246 30.5297 25.9955 30.6082 26.2914 30.7227C26.6169 30.8568 27.2842 30.618 27.9943 30.7162C28.2146 30.7489 29.0233 30.2255 28.8293 30.2386C28.6847 30.2255 28.54 30.1928 28.402 30.1404L28.4283 30.1339C28.6485 30.075 29.2107 29.5353 29.0233 29.5778C28.7603 29.5941 28.4973 29.5778 28.2409 29.5189C28.4118 29.3783 28.6847 29.0053 28.5565 29.0708C28.2672 29.0904 27.9779 29.0577 27.7017 28.9792C27.659 28.9694 27.613 28.9628 27.5702 28.9595C27.5932 28.9497 27.613 28.9399 27.6294 28.9334C28.0173 28.7469 28.3954 28.5376 28.7636 28.3119C29.1548 28.3609 29.4967 28.6292 29.7005 28.6521C29.8715 28.6815 30.0424 28.7207 30.2068 28.7796C30.529 28.7665 30.8446 28.6946 31.1404 28.567C31.4725 28.4623 31.433 28.2628 31.742 28.1483C31.9557 28.0698 32.3108 27.7427 32.1431 27.8375C32.0149 27.9128 31.5941 27.8114 31.2917 27.7492C31.3475 27.7263 31.3147 27.6772 31.6763 27.3599C31.8439 27.2062 31.9787 26.6697 31.8242 26.7908C31.7026 26.8627 31.5612 26.902 31.4199 26.9053C31.5251 26.7319 31.627 26.202 31.5382 26.3263C31.3903 26.4702 31.216 26.5814 31.0254 26.6599C31.2391 26.4767 31.4363 26.2706 31.6138 26.0482C31.7486 25.9861 31.89 25.9403 32.0379 25.9141C32.2253 25.9141 32.7776 25.9861 32.919 25.8487C33.0603 25.7113 33.2674 25.4561 33.3398 25.4103C33.5074 25.201 33.6389 24.9687 33.7342 24.7201C33.892 24.4486 34.1024 24.2131 34.3556 24.0234C34.1156 23.9808 33.869 23.9808 33.6258 24.0234C33.6784 23.7715 33.7901 23.5327 33.9545 23.3331C33.9545 23.3331 33.3266 23.4934 33.1655 23.5196C32.9354 23.5196 32.7151 23.6112 32.5508 23.7748C32.6297 23.5098 32.6987 23.2645 32.7513 23.0649C32.7612 23.0257 32.7743 22.9766 32.7907 22.9144C32.8696 22.7999 32.9847 22.7116 33.1162 22.6691C33.5797 22.5154 33.9972 22.4826 34.1649 22.3158C34.326 22.1555 34.418 22.0443 34.4838 21.9691C34.6087 21.8284 34.7041 21.6649 34.7632 21.4849C34.8257 21.2429 34.8717 20.9975 34.9013 20.7489L34.898 20.7522ZM33.2313 20.3073C33.205 20.6246 33.1589 20.9387 33.0866 21.2461C33.0768 21.1153 33.0406 20.9877 32.9814 20.87C32.9157 20.7293 32.8203 20.7293 32.7743 20.5919C32.7283 20.4545 32.5672 20.4055 32.4719 20.291C32.3864 20.1994 32.291 20.1143 32.1924 20.0391C32.1267 20.3269 32.1102 20.6214 32.1464 20.9158C32.1628 20.9616 32.176 21.0074 32.1793 21.0531C32.1102 21.027 32.0511 21.0074 32.0511 21.0074C31.9294 21.2789 32.0708 21.5569 32.1168 21.8088C32.1595 21.9233 32.2121 22.0312 32.2779 22.1359C32.3239 22.2275 32.3042 22.3158 32.3502 22.3878C32.393 22.4467 32.4949 22.4565 32.6001 22.5546C32.6001 22.6756 32.6198 22.7999 32.656 22.9177C32.5672 23.2154 32.4686 23.5163 32.3634 23.8173C32.3535 23.7028 32.3141 23.5948 32.2516 23.4967C32.1595 23.3855 32.0905 23.2612 32.0445 23.1238C31.9524 22.8719 31.7651 22.8719 31.7388 22.62C31.6993 22.8032 31.6697 22.9864 31.6533 23.1696C31.6368 23.3331 31.6533 23.4967 31.6927 23.6537C31.6993 23.7584 31.6862 23.8631 31.65 23.9645C31.65 23.8238 31.6204 23.6864 31.5579 23.5621C31.5119 23.4771 31.4955 23.3789 31.5119 23.2841C31.4133 23.4542 31.2917 23.6112 31.1569 23.7519L31.0714 23.6079C32.2878 21.4882 32.005 17.8638 31.959 17.3665C32.1563 17.324 32.1201 17.2259 32.1201 17.2259L32.0806 16.9904C32.0971 17.0034 32.1201 17.0133 32.1398 17.0198C32.153 17.0231 32.1694 17.0263 32.1826 17.0263C32.2121 17.0263 32.2384 17.0165 32.2647 17.0002C32.3009 16.974 32.3239 16.9348 32.3239 16.8922V16.8857C32.3897 16.9707 32.4751 17.0394 32.5738 17.0852C32.7414 17.131 32.8795 17.2063 32.8992 17.2717C33.0044 17.7067 33.0833 18.1451 33.1359 18.59C32.9485 18.3806 32.9025 17.9881 32.4883 17.7787C32.4982 17.8703 32.4982 17.9652 32.4883 18.0568C32.462 18.1745 32.4488 18.2988 32.4488 18.4199C32.3239 18.3381 32.2154 18.2334 32.13 18.1091C32.0938 18.4035 32.1234 18.7045 32.222 18.9858C32.3897 19.2867 32.3897 19.4437 32.5705 19.5092C32.6724 19.5451 32.7677 19.604 32.8499 19.676C32.9321 19.7381 33.0274 19.7741 33.1294 19.7905C33.1524 19.7905 33.1754 19.8068 33.1885 19.8265C33.1984 19.8723 33.2115 19.9213 33.2247 19.9671C33.228 20.0914 33.228 20.2059 33.2247 20.3106L33.2313 20.3073ZM17.0503 17.8114L18.2831 18.675C18.2667 19.1362 18.3259 19.5942 18.4574 20.0358L17.4317 21.7434C17.264 21.377 16.8301 20.1797 17.047 17.8114H17.0503ZM15.1469 16.8105C15.1929 16.7319 15.2718 16.6731 15.3606 16.6502C15.3671 16.7418 15.3375 16.8333 15.2784 16.9086C15.2619 16.9315 15.2389 16.9478 15.2126 16.9577C15.1929 16.9642 15.1699 16.9609 15.1502 16.9478C15.1337 16.9348 15.1206 16.9151 15.1206 16.8922C15.1206 16.8628 15.1271 16.8333 15.1469 16.8105ZM19.2003 13.9678L20.1833 15.044C20.1636 15.3417 20.1208 16.2674 20.3772 16.8497L19.483 18.3348C19.2694 17.903 18.8288 16.6305 19.2003 13.9645V13.9678ZM23.0302 13.2711C23.4642 13.1958 23.9113 13.1958 24.3452 13.2678L24.4866 13.5C23.9606 13.3855 23.4149 13.3888 22.8922 13.5066L23.0335 13.2711H23.0302ZM23.142 13.0846L23.6877 12.1752L24.2302 13.0813C23.8685 13.0323 23.5003 13.0355 23.1387 13.0846H23.142ZM22.7672 13.7094C23.3688 13.5426 24.0033 13.5393 24.6082 13.7028L24.7594 13.9547C24.0658 13.7159 23.3097 13.7192 22.616 13.9645L22.7672 13.7127V13.7094ZM22.4681 14.2033C23.2439 13.8664 24.1217 13.8631 24.9008 14.1903L28.6748 20.4643H27.2908C27.2283 20.4251 27.1659 20.3826 27.11 20.3368C27.0903 20.3204 27.0673 20.3041 27.0442 20.2877C26.9522 20.2288 26.8437 20.2059 26.7352 20.2288C26.6793 20.2419 26.6234 20.2615 26.5741 20.2877C26.5215 20.3139 26.4755 20.3466 26.4295 20.3793C26.4262 20.3826 26.4196 20.3891 26.413 20.3891C26.39 20.3793 26.367 20.3695 26.344 20.3597C26.2224 20.3008 26.1073 20.2255 26.0054 20.1405C25.9725 20.1111 25.9364 20.0882 25.8969 20.0653C25.8344 20.0325 25.7621 20.0162 25.6898 20.0162C25.6405 20.0162 25.5912 20.0227 25.5419 20.0391C25.4728 20.0587 25.4104 20.0914 25.3512 20.1274C25.3117 20.1536 25.2723 20.1797 25.2361 20.2092C25.2328 20.2125 25.2296 20.219 25.2197 20.219H25.2098C25.1408 20.1699 25.0652 20.1339 24.9896 20.1012C24.9205 20.0718 24.8548 20.0391 24.789 19.9998C24.697 19.9442 24.6115 19.8853 24.5326 19.8166C24.503 19.7938 24.4734 19.7709 24.4406 19.7512C24.3748 19.712 24.2992 19.6891 24.2203 19.6825C24.1677 19.6793 24.1151 19.6825 24.0625 19.6923C23.9935 19.7087 23.9244 19.7316 23.862 19.7676C23.8291 19.7872 23.7962 19.8068 23.7633 19.8297V17.6577C23.9935 17.6446 24.171 17.5628 24.171 17.468C24.171 17.3731 24.0033 16.7189 23.7831 16.5586C23.6483 16.4604 23.4642 16.4572 23.3261 16.5455C23.3261 16.5455 23.0401 16.7123 23.1847 16.9446C23.1847 16.9446 23.2143 17.0165 23.3425 16.9642C23.3951 16.9413 23.4346 16.8955 23.4445 16.8399V16.8955C23.4412 16.9773 23.3294 17.0198 23.3228 17.0231C23.2669 17.167 23.2275 17.3142 23.2078 17.468C23.2078 17.5661 23.3886 17.6446 23.6187 17.6577V19.8624L23.599 19.8494C23.5036 19.7905 23.4116 19.7283 23.3261 19.6564C23.2932 19.6302 23.2604 19.6073 23.2242 19.5844C23.1552 19.5451 23.0795 19.519 23.0039 19.5124C22.9415 19.5059 22.879 19.5124 22.8165 19.5222C22.7442 19.5386 22.6719 19.5648 22.6061 19.6007C22.5371 19.6367 22.4714 19.6793 22.4089 19.7283C22.4056 19.7316 22.399 19.7349 22.3925 19.7381L22.376 19.7283C22.3464 19.712 22.3201 19.6956 22.2906 19.6793C22.2511 19.6564 22.2084 19.6367 22.1656 19.6204C22.1097 19.6008 22.0539 19.5746 22.0013 19.5451C21.8467 19.4634 21.7021 19.3652 21.5673 19.254C21.5542 19.2442 21.541 19.2344 21.5279 19.2246C21.4259 19.1461 21.301 19.097 21.1728 19.0839C21.1695 19.0839 21.1629 19.0839 21.1597 19.0806H21.0873C21.0873 19.0806 21.0775 19.0806 21.0709 19.0839C20.9854 19.0905 20.9032 19.1101 20.8243 19.1428C20.7356 19.1788 20.6501 19.2278 20.5679 19.2834C20.4791 19.3456 20.3937 19.4176 20.3115 19.4928C20.2096 19.5909 20.1142 19.6956 20.0255 19.8068C19.94 19.9148 19.8578 20.026 19.7822 20.1438C19.7789 20.1503 19.7756 20.1536 19.7691 20.1601C19.7132 20.2255 19.6573 20.291 19.5948 20.3498C19.5587 20.3891 19.5159 20.4218 19.4765 20.4545H18.7072L22.4714 14.1903L22.4681 14.2033ZM27.8957 18.3348L27.0015 16.8497C27.2579 16.2674 27.2152 15.3417 27.1955 15.044L28.1784 13.9678C28.5499 16.6305 28.1094 17.903 27.8957 18.3381V18.3348ZM32.0149 16.6469C32.1069 16.6698 32.1826 16.7287 32.2319 16.8105C32.2483 16.8333 32.2549 16.8595 32.2549 16.889C32.2549 16.9119 32.2417 16.9315 32.2253 16.9446C32.2056 16.9577 32.1826 16.9609 32.1628 16.9544C32.1365 16.9446 32.1102 16.9282 32.0971 16.9053C32.0412 16.8333 32.0116 16.7418 32.0182 16.6502L32.0149 16.6469ZM29.9405 21.7368L28.9148 20.0325C29.0496 19.5942 29.1088 19.133 29.089 18.675L30.3218 17.8114C30.5388 20.1732 30.1082 21.3704 29.9372 21.7368H29.9405ZM16.7051 23.7911L17.6684 22.1915H29.3553C29.3553 22.1915 29.3455 22.185 29.3422 22.1817C29.3225 22.1719 29.3027 22.1621 29.283 22.149C29.214 22.1065 29.1482 22.0607 29.0858 22.0083C28.9707 21.92 28.8622 21.8219 28.7537 21.7237C28.5992 21.5798 28.4513 21.4326 28.3033 21.2789C28.208 21.1807 28.1127 21.0793 28.0206 20.9746C27.9812 20.9288 27.9384 20.8863 27.8957 20.8438C27.8168 20.7686 27.7313 20.7031 27.6393 20.6443C27.5998 20.6181 27.5571 20.5952 27.5143 20.5756H28.7439L30.6769 23.7878H16.7051V23.7911ZM18.6349 20.5788H19.3483C19.2102 20.6999 19.0655 20.8111 18.9176 20.9125C18.9045 20.9223 18.8913 20.9321 18.8749 20.9387C18.796 20.9877 18.7171 21.0401 18.6447 21.0957C18.5231 21.1873 18.408 21.2854 18.293 21.3868C18.1779 21.4882 18.0694 21.5929 17.9609 21.6976L18.6349 20.5756V20.5788ZM23.6581 20.1438C23.6844 20.1569 23.7107 20.1667 23.7403 20.1797C23.7732 20.1928 23.8028 20.2059 23.8324 20.2223C23.9146 20.2681 23.9935 20.3204 24.0691 20.376C24.1907 20.4709 24.3058 20.5788 24.4077 20.6966C24.5655 20.8732 24.7299 21.0466 24.8942 21.2167C24.9633 21.2854 25.0323 21.3574 25.1013 21.4261C25.2756 21.5994 25.4564 21.7695 25.6438 21.9298L25.6799 21.9593L25.6865 21.9658L24.7726 21.9691C24.7627 21.9691 24.7529 21.9691 24.7463 21.9593L24.6871 21.9135C24.5589 21.8153 24.4373 21.7106 24.3189 21.6027C24.1808 21.4784 24.0461 21.3541 23.9146 21.2232C23.6253 20.9419 23.3458 20.6508 23.073 20.3531C23.0269 20.3008 22.9809 20.2484 22.9316 20.1961C22.8264 20.0849 22.7146 19.9835 22.593 19.8886C22.5897 19.8853 22.5831 19.8821 22.5798 19.8788L22.5864 19.8723C22.6456 19.8297 22.7081 19.797 22.7738 19.7709C22.81 19.7578 22.8494 19.748 22.8889 19.7414C22.9579 19.7316 23.0302 19.7414 23.0927 19.7774C23.1223 19.7937 23.1519 19.8134 23.1782 19.833C23.2472 19.8919 23.3195 19.9442 23.3951 19.9933C23.4806 20.0489 23.5694 20.098 23.6614 20.1405L23.6581 20.1438ZM27.3401 20.7489C27.3401 20.7489 27.3697 20.762 27.3828 20.7686C27.419 20.7816 27.4519 20.798 27.4848 20.8176C27.5702 20.87 27.6491 20.9288 27.7247 20.9975C27.7708 21.0401 27.8168 21.0859 27.8595 21.1349C27.945 21.2298 28.0338 21.3247 28.1225 21.4195C28.2014 21.5013 28.2836 21.5863 28.3658 21.6681C28.4644 21.7695 28.5663 21.8644 28.6715 21.956C28.6781 21.9593 28.6814 21.9658 28.6847 21.9723H28.1718C28.1587 21.9723 28.1488 21.9723 28.139 21.9625C28.0436 21.884 27.9516 21.8022 27.8595 21.7205C27.7675 21.6387 27.682 21.5569 27.5965 21.4719C27.4059 21.2854 27.225 21.0957 27.0442 20.8994C27.0048 20.8569 26.9686 20.8176 26.9292 20.7751C26.8404 20.6835 26.7451 20.6017 26.6432 20.5298L26.63 20.5199C26.63 20.5199 26.63 20.5167 26.6333 20.5134C26.676 20.484 26.7221 20.4643 26.7714 20.4545C26.8207 20.4447 26.87 20.4545 26.9127 20.4774C26.9292 20.4872 26.9456 20.5003 26.9621 20.5134C27.0771 20.6083 27.202 20.6868 27.3368 20.7489H27.3401ZM26.6497 20.8144C26.7188 20.8732 26.7845 20.9387 26.8437 21.0074C26.9752 21.1546 27.11 21.2985 27.2481 21.4391C27.373 21.5667 27.4979 21.691 27.6294 21.8121C27.682 21.8611 27.7346 21.9069 27.7872 21.956L27.8004 21.9691C27.8004 21.9691 27.7971 21.9691 27.7938 21.9691H27.0804C27.0804 21.9691 27.0738 21.9691 27.0705 21.9691C27.0607 21.9691 27.0541 21.9691 27.0475 21.9625C27.0015 21.9233 26.9522 21.8873 26.9062 21.8448C26.7714 21.7335 26.6432 21.6125 26.515 21.4915C26.4426 21.4195 26.367 21.3508 26.2947 21.2789C26.104 21.0891 25.9199 20.8961 25.7424 20.6999C25.7029 20.6573 25.6635 20.6115 25.6208 20.569C25.555 20.5003 25.4827 20.4349 25.4104 20.376L25.4005 20.3662L25.4071 20.3597C25.4531 20.3237 25.5057 20.2942 25.5583 20.2713C25.5945 20.2583 25.6306 20.2484 25.6668 20.2452C25.7062 20.2452 25.7457 20.2517 25.7818 20.2713C25.8049 20.2844 25.8279 20.3008 25.8476 20.3171C25.9594 20.4087 26.0777 20.4872 26.2059 20.5527C26.2421 20.5723 26.2783 20.5854 26.3144 20.6017C26.3506 20.6148 26.3835 20.6312 26.4163 20.6508C26.4985 20.6966 26.5741 20.7522 26.6465 20.8144H26.6497ZM25.5419 20.8078C25.6438 20.9223 25.749 21.0335 25.8542 21.1447C25.9495 21.2461 26.0448 21.3443 26.1435 21.4424C26.3111 21.6092 26.4821 21.7728 26.6596 21.9265C26.6728 21.9396 26.6859 21.9494 26.6991 21.9625L26.7056 21.9691H26.058C26.0481 21.9691 26.0383 21.9691 26.0284 21.9593C25.9824 21.92 25.9331 21.884 25.887 21.8448C25.7325 21.7172 25.5846 21.5831 25.4432 21.4457C25.3676 21.3704 25.2887 21.2952 25.2131 21.22C25.0093 21.0172 24.812 20.8078 24.6181 20.5952C24.5721 20.5461 24.5293 20.497 24.4833 20.448C24.3682 20.3269 24.2433 20.219 24.1085 20.1241C24.0428 20.0783 23.977 20.0391 23.908 20.0031L23.8981 19.9966C23.8981 19.9966 23.8981 19.9933 23.9014 19.99C23.9606 19.954 24.023 19.9246 24.0921 19.9082C24.125 19.9017 24.1611 19.8984 24.1973 19.9017C24.24 19.905 24.2795 19.9181 24.3156 19.9377C24.3452 19.954 24.3715 19.9704 24.3945 19.9933C24.5326 20.1078 24.6871 20.2059 24.8482 20.2812C24.8712 20.291 24.8942 20.3008 24.9172 20.3106C24.9567 20.3269 24.9961 20.3466 25.0356 20.3662C25.1211 20.4153 25.2033 20.4741 25.2789 20.5363C25.3742 20.6148 25.463 20.7031 25.5451 20.7947L25.5419 20.8078ZM22.6883 20.2779C22.7508 20.34 22.81 20.4055 22.8691 20.4709C22.9349 20.5428 23.0006 20.6148 23.0664 20.6868C23.188 20.8144 23.3064 20.9419 23.4313 21.0662C23.6516 21.2887 23.8751 21.5078 24.1085 21.7205C24.1973 21.8022 24.2893 21.8808 24.3814 21.956L24.3978 21.9691H18.0103C18.0103 21.9691 18.0103 21.9593 18.0135 21.9593C18.0431 21.9298 18.0727 21.9004 18.1023 21.8709C18.1976 21.7761 18.2963 21.6845 18.3949 21.5962C18.5165 21.4882 18.6382 21.3835 18.7664 21.2854C18.842 21.2265 18.9242 21.1709 19.0064 21.1218C19.0294 21.1088 19.0524 21.0924 19.0754 21.076C19.2792 20.9354 19.4699 20.7816 19.6507 20.6115C19.7526 20.5167 19.8512 20.412 19.94 20.3041C19.9466 20.2975 19.9532 20.291 19.9564 20.2812C20.0321 20.1634 20.1142 20.0489 20.203 19.9377C20.2753 19.8494 20.3509 19.7676 20.4298 19.6858C20.512 19.604 20.6041 19.5288 20.6994 19.4601C20.7619 19.4176 20.8309 19.3816 20.9032 19.3521C20.9525 19.3325 21.0019 19.3194 21.0545 19.3129C21.1432 19.3031 21.232 19.3194 21.3109 19.362C21.3438 19.3816 21.3766 19.4045 21.4095 19.4274C21.4818 19.4863 21.5542 19.5419 21.6331 19.5942C21.7218 19.6564 21.8172 19.7087 21.9125 19.7578C21.9651 19.7839 22.0177 19.8068 22.0703 19.8265C22.1064 19.8395 22.1393 19.8559 22.1722 19.8755C22.261 19.9246 22.3464 19.9802 22.4286 20.0424C22.5207 20.1143 22.6094 20.1896 22.6916 20.2713L22.6883 20.2779ZM21.2484 24.2131C21.5574 24.4421 21.9059 24.6089 22.2774 24.707C22.0308 24.7823 20.4233 25.2042 19.0491 24.2131H21.2484ZM23.4412 25.5117C23.4412 25.5117 23.5957 24.7168 23.6812 24.2131C23.7699 24.7136 23.9211 25.5117 23.9211 25.5117C23.9573 25.7832 23.8685 26.0548 23.6812 26.2543C23.4938 26.0548 23.405 25.7832 23.4412 25.5117ZM26.1205 24.2131H28.3198C26.9456 25.2042 25.338 24.7823 25.0915 24.707C25.463 24.6089 25.8114 24.4388 26.1205 24.2098V24.2131ZM31.7157 16.3721C31.696 16.3459 31.6894 16.3165 31.6927 16.2871C31.6927 16.2707 31.7026 16.2576 31.7157 16.2445C31.7223 16.2511 31.7289 16.2544 31.7355 16.2609C31.8144 16.31 31.8801 16.3754 31.9294 16.4539C31.936 16.4801 31.936 16.5095 31.9294 16.5357C31.8407 16.5095 31.7618 16.4506 31.7125 16.3721H31.7157ZM29.9865 12.5416C29.9471 12.5743 29.8846 12.571 29.8517 12.5285C29.786 12.4729 29.74 12.3944 29.7202 12.3093C29.7202 12.3061 29.7268 12.2995 29.7268 12.2962C29.8156 12.3028 29.9011 12.342 29.9602 12.4075C29.9997 12.4369 30.0095 12.4958 29.9832 12.5383L29.9865 12.5416ZM29.8024 11.9135L30.049 11.8285L29.9898 12.0804L29.7926 12.1098L29.8024 11.9103V11.9135ZM29.3422 11.9626C29.3422 11.9626 29.3751 11.9397 29.3948 11.9397C29.4244 11.9397 29.454 11.9528 29.477 11.9757C29.5427 12.028 29.5887 12.1032 29.6052 12.1883C29.5887 12.1883 29.5756 12.1883 29.5624 12.2014C29.4868 12.185 29.4178 12.149 29.3619 12.0967C29.3192 12.0673 29.306 12.0084 29.3356 11.9626H29.3422ZM23.9869 8.99238C23.9869 8.99238 24.0033 8.99238 24.0132 8.99238C24.0592 8.97929 24.1052 9.00873 24.1151 9.05453C24.125 9.10032 24.0987 9.14612 24.0526 9.15593C24.0395 9.1592 24.023 9.1592 24.0099 9.15593C23.9178 9.1592 23.8258 9.12976 23.7535 9.07415C23.8159 9.01854 23.8981 8.98583 23.9836 8.9891L23.9869 8.99238ZM23.6844 8.50497L23.8127 8.73395L23.6877 8.8877L23.5595 8.73395L23.6844 8.50497ZM23.3557 9.1592C23.3261 9.1592 23.2932 9.14939 23.2735 9.12649C23.2472 9.10359 23.2439 9.06107 23.2669 9.03163C23.2669 9.03163 23.2702 9.02836 23.2735 9.02509C23.2965 9.00219 23.3294 8.99238 23.3623 8.99238C23.4543 8.98256 23.5464 9.012 23.6154 9.07415C23.5431 9.13303 23.4477 9.1592 23.3557 9.15593V9.1592ZM23.6253 10.677C23.7403 10.484 23.8291 10.2747 23.8817 10.0588C23.9672 10.5527 23.9376 11.0597 23.7962 11.5406L23.6779 11.3443L23.2899 11.9888C23.2538 11.5275 23.3688 11.0663 23.622 10.677H23.6253ZM17.8886 11.9724C17.9116 11.9495 17.9412 11.9397 17.9708 11.9397C17.9905 11.9397 18.007 11.9495 18.0201 11.9626C18.0333 11.9757 18.0398 11.9953 18.0366 12.0149C18.0366 12.0476 18.0201 12.0771 17.9938 12.0967C17.9314 12.1589 17.8492 12.1981 17.7604 12.2079H17.7473C17.7571 12.1131 17.8064 12.028 17.882 11.9724H17.8886ZM17.3133 11.8317L17.5599 11.9168L17.5697 12.1163L17.3725 12.0869L17.3133 11.835V11.8317ZM17.4284 12.5678C17.4086 12.5678 17.3922 12.5612 17.3791 12.5449C17.3659 12.5318 17.3593 12.5121 17.3626 12.4925C17.3626 12.4598 17.3791 12.4304 17.4054 12.4107C17.4645 12.3486 17.5467 12.3093 17.6322 12.2995H17.6486C17.6322 12.3911 17.5862 12.4729 17.5138 12.5318C17.4908 12.5547 17.4612 12.5645 17.4284 12.5612V12.5678ZM15.6498 16.3754C15.6005 16.4539 15.5249 16.5095 15.4362 16.5357C15.4329 16.5095 15.4329 16.4833 15.4362 16.4572C15.4888 16.3787 15.5545 16.31 15.6334 16.2609C15.64 16.2576 15.6466 16.2511 15.6498 16.2478C15.663 16.2609 15.6696 16.2773 15.6729 16.2969C15.6729 16.3263 15.6663 16.3525 15.6498 16.3754ZM14.1442 19.9671C14.1606 19.9213 14.1705 19.8755 14.1803 19.8265C14.1935 19.8068 14.2165 19.7938 14.2395 19.7905C14.3414 19.7774 14.4368 19.7381 14.519 19.676C14.6011 19.604 14.6965 19.5484 14.7984 19.5092C14.9792 19.4437 14.9792 19.2834 15.1469 18.9858C15.2455 18.7045 15.2784 18.4035 15.2389 18.1091C15.1534 18.2334 15.0482 18.3381 14.9233 18.4199C14.9233 18.2988 14.9102 18.1778 14.8839 18.0568C14.874 17.9652 14.874 17.8703 14.8839 17.7787C14.4696 17.9913 14.4236 18.3839 14.2362 18.59C14.2888 18.1484 14.3677 17.71 14.4729 17.275C14.4927 17.2095 14.634 17.1343 14.7984 17.0885C14.8937 17.0427 14.9759 16.9773 15.0417 16.8955C15.0417 16.9413 15.0647 16.9806 15.1008 17.0067C15.1239 17.0231 15.1534 17.0329 15.183 17.0329C15.1962 17.0329 15.2126 17.0329 15.2258 17.0263C15.2488 17.0198 15.2685 17.01 15.2849 16.9969L15.2455 17.2324C15.2455 17.2324 15.2126 17.3338 15.4066 17.3731C15.3606 17.8703 15.0745 21.498 16.2975 23.6177L16.212 23.7584C16.0739 23.6177 15.9556 23.4607 15.857 23.2906C15.8734 23.3855 15.857 23.4836 15.8109 23.5687C15.7485 23.693 15.7189 23.8304 15.7189 23.971C15.686 23.8729 15.6729 23.7649 15.6761 23.6603C15.7189 23.5032 15.732 23.3397 15.7156 23.1761C15.6992 22.9897 15.6696 22.8065 15.6301 22.6266C15.6038 22.8785 15.4164 22.8785 15.3244 23.1303C15.2784 23.2677 15.2093 23.392 15.1173 23.5032C15.0548 23.5981 15.0154 23.7093 15.0055 23.8238C14.9003 23.5229 14.8017 23.2187 14.7129 22.9243C14.7491 22.8065 14.7688 22.6855 14.7688 22.5612C14.874 22.4663 14.9759 22.4565 15.0187 22.3943C15.0647 22.3224 15.045 22.234 15.091 22.1424C15.1567 22.041 15.2093 21.9298 15.2521 21.8153C15.2981 21.5634 15.4395 21.2854 15.3178 21.0139C15.3178 21.0139 15.2586 21.0335 15.1896 21.0597C15.1962 21.0139 15.206 20.9648 15.2225 20.9223C15.2586 20.6312 15.2422 20.3335 15.1765 20.0456C15.0745 20.1209 14.9825 20.2059 14.897 20.2975C14.805 20.412 14.6439 20.4578 14.5946 20.5985C14.5453 20.7391 14.4532 20.7391 14.3875 20.8765C14.3283 20.9943 14.2921 21.1218 14.2823 21.2527C14.2099 20.9419 14.1639 20.6279 14.1376 20.3139C14.1376 20.2092 14.1376 20.0914 14.1376 19.9704L14.1442 19.9671ZM24.6214 29.5353C24.4143 29.5353 24.2071 29.5876 24.023 29.6857C24.023 29.6792 24.0165 29.6727 24.0165 29.6661C24.2597 29.2539 24.5326 28.8614 24.8285 28.4852C24.9666 28.8451 24.8844 29.2539 24.6214 29.5353ZM23.3787 29.6857C23.1946 29.5876 22.9908 29.5385 22.7804 29.5353C22.5174 29.2539 22.4352 28.8451 22.5733 28.4852C22.8691 28.8614 23.142 29.2572 23.3853 29.6661C23.3853 29.6727 23.382 29.6792 23.3787 29.6857ZM30.5257 26.7711C30.5388 26.7515 30.5487 26.7286 30.5553 26.7024C30.6079 26.5618 30.6407 26.4146 30.6473 26.2641C30.621 26.0777 30.575 25.8912 30.5059 25.7146C30.4402 25.5477 30.2791 25.165 30.1115 25.0898C30.1115 25.0898 29.9767 25.5281 29.9306 25.6884C29.9011 25.8421 29.8452 25.9926 29.763 26.1267C29.7268 26.1823 29.6907 26.2412 29.6611 26.3034C29.6512 26.202 29.6545 26.0973 29.6709 25.9959C29.6972 25.6917 29.2107 25.2141 29.2107 25.2141C29.2008 25.4921 29.1186 25.7603 28.9773 25.9959C28.8458 26.1954 28.7603 26.4211 28.7241 26.6599C28.7077 26.8202 28.642 26.9739 28.5368 27.0983C28.3987 27.2847 28.5532 28.0731 28.5696 28.1646C28.2606 28.3544 27.9351 28.5408 27.636 28.6913C27.5472 28.7371 27.442 28.7796 27.3335 28.8287C27.3533 28.8091 27.3763 28.7927 27.396 28.7731C27.613 28.5834 27.7708 28.338 27.8562 28.0632C28.0009 28.0371 27.6623 28.0011 27.465 28.0207C27.5801 27.8473 27.7379 27.6086 27.8497 27.4057C27.9351 27.2389 27.1034 27.4581 27.1034 27.4581C27.0147 27.4941 26.9423 27.5202 26.8799 27.5431C26.9423 27.3534 26.9851 27.1571 27.0146 26.9609C27.0081 26.8954 26.6596 27.0067 26.3802 27.1277C26.1731 27.252 25.9758 27.3894 25.7917 27.5464C25.5451 27.7067 25.5123 28.1025 25.3972 28.289C25.338 28.3871 25.2887 28.4918 25.2526 28.5997C25.2526 28.4754 25.1934 28.3576 25.0882 28.2922H25.0783C25.0783 28.2922 25.0718 28.2824 25.0652 28.2824C25.0487 28.2759 25.0356 28.2726 25.0192 28.2693C24.9666 28.2562 24.8811 28.2432 24.743 28.2301C24.4997 28.181 24.2532 28.2824 24.1151 28.4885C23.9902 28.8058 23.8883 29.1329 23.8094 29.4633C23.7765 29.4502 23.737 29.4404 23.7009 29.4404C23.6647 29.4404 23.6286 29.4502 23.5924 29.4633C23.5135 29.1329 23.4116 28.8058 23.2867 28.4885C23.1519 28.2824 22.902 28.181 22.6587 28.2301C22.5207 28.2464 22.4352 28.2595 22.3826 28.2693C22.3662 28.2693 22.3497 28.2759 22.3366 28.2824H22.3234L22.3136 28.2922C22.2281 28.3348 22.1459 28.4492 22.1426 28.7208C22.1163 28.567 22.0571 28.4198 21.9684 28.2922C21.8533 28.1058 21.8204 27.7067 21.5739 27.5497C21.3898 27.3927 21.1958 27.252 20.9854 27.131C20.706 27.0099 20.3575 26.8987 20.3509 26.9641C20.3805 27.1604 20.4233 27.3567 20.4857 27.5464C20.4265 27.5235 20.3542 27.4973 20.2622 27.4614C20.2622 27.4614 19.4272 27.2422 19.5159 27.409C19.6277 27.6118 19.7855 27.8506 19.9006 28.024C19.7033 28.0076 19.3647 28.0436 19.5093 28.0665C19.5948 28.3413 19.7559 28.5866 19.9696 28.7764C19.9893 28.796 20.0123 28.8123 20.0321 28.832C19.9203 28.7862 19.8184 28.7404 19.7296 28.6946C19.4272 28.5441 19.105 28.3577 18.796 28.1679C18.8157 28.0796 18.9702 27.2913 18.8321 27.1015C18.7269 26.9772 18.6612 26.8235 18.6447 26.6632C18.6086 26.4277 18.5231 26.1987 18.3916 25.9991C18.2502 25.7603 18.1681 25.4921 18.1582 25.2173C18.1582 25.2173 17.6716 25.6949 17.6979 25.9991C17.7144 26.1005 17.7177 26.2052 17.7078 26.3066C17.6782 26.2478 17.6421 26.1889 17.6059 26.13C17.527 25.9959 17.4678 25.8454 17.4382 25.6917C17.3922 25.5314 17.2574 25.093 17.2574 25.093C17.0898 25.165 16.9287 25.551 16.8629 25.7178C16.7972 25.8945 16.7512 26.0809 16.7216 26.2674C16.7281 26.4179 16.761 26.5651 16.8136 26.7057C16.8202 26.7286 16.8301 26.7515 16.8432 26.7744C16.4849 26.5225 16.1758 26.2085 15.9293 25.8454C15.9391 25.7571 15.972 25.672 16.0279 25.6033C16.1758 25.4496 16.2909 25.2697 16.3764 25.0734C16.3994 24.936 16.3994 24.7921 16.3764 24.6547C16.3895 24.5173 16.4125 24.3799 16.4421 24.2425L16.4356 24.2164H16.8235C17.5171 24.7267 20.0058 26.287 22.9349 25.0145C22.925 25.0505 22.9086 25.0865 22.8889 25.1192C22.8889 25.1192 22.261 25.9697 23.6812 26.2576C25.1046 25.9697 24.4734 25.1192 24.4734 25.1192C24.4537 25.0865 24.4373 25.0505 24.4274 25.0145C27.3565 26.2903 29.8485 24.7234 30.5421 24.2164H30.9366L30.93 24.2425C30.9596 24.3799 30.9826 24.5173 30.9958 24.6547C30.9728 24.7921 30.9728 24.936 30.9958 25.0734C31.078 25.2697 31.1963 25.4496 31.3443 25.6033C31.4001 25.672 31.433 25.7571 31.4429 25.8454C31.193 26.2052 30.884 26.5193 30.5257 26.7711Z" fill="white"/>
  <path d="M28.2634 27.5627C28.1878 27.5627 28.1253 27.6183 28.1221 27.6936C28.1221 27.7688 28.1812 27.831 28.2568 27.8342C28.2568 27.8342 28.2601 27.8342 28.2634 27.8342C28.339 27.8342 28.4015 27.7721 28.4048 27.6936C28.4048 27.6183 28.339 27.5595 28.2634 27.5595V27.5627Z" fill="white"/>
  <path d="M29.0525 28.5244C28.9769 28.5244 28.9144 28.5866 28.9111 28.6651C28.9111 28.7403 28.9703 28.8025 29.0459 28.8058C29.0459 28.8058 29.0492 28.8058 29.0525 28.8058C29.1281 28.8058 29.1938 28.7436 29.1938 28.6651C29.1938 28.5899 29.1314 28.5277 29.0525 28.5244Z" fill="white"/>
  <path d="M30.8801 25.4856C30.8045 25.4856 30.742 25.5477 30.7387 25.6263C30.7387 25.7015 30.8012 25.7636 30.8801 25.7669C30.9557 25.7669 31.0214 25.7048 31.0214 25.6263C31.0214 25.551 30.9622 25.4889 30.8866 25.4856C30.8866 25.4856 30.8834 25.4856 30.8801 25.4856Z" fill="white"/>
  <path d="M31.8627 26.1758C31.8627 26.2609 31.9318 26.3263 32.0173 26.3295C32.0995 26.3295 32.1685 26.2641 32.1718 26.1823C32.1718 26.1823 32.1718 26.1791 32.1718 26.1758C32.1718 26.0908 32.1027 26.0253 32.0173 26.0221C31.9351 26.0253 31.866 26.0908 31.8627 26.1758Z" fill="white"/>
  <path d="M32.2219 22.9144C32.3041 22.9144 32.3731 22.849 32.3764 22.7672C32.3764 22.7672 32.3764 22.7639 32.3764 22.7607C32.3764 22.6756 32.3074 22.6102 32.2219 22.6069C32.1397 22.6069 32.0707 22.6756 32.0674 22.7607C32.0674 22.8457 32.1365 22.9111 32.2219 22.9144Z" fill="white"/>
  <path d="M32.688 19.8494C32.6058 19.8494 32.5368 19.9115 32.5335 19.9966C32.5335 19.9966 32.5335 19.9998 32.5335 20.0031C32.5368 20.0882 32.6091 20.1536 32.6946 20.1503C32.7735 20.147 32.8392 20.0849 32.8425 20.0031C32.8425 19.9213 32.7768 19.8526 32.6946 19.8494C32.6946 19.8494 32.6913 19.8494 32.688 19.8494Z" fill="white"/>
  <path d="M33.5434 17.36C33.6255 17.36 33.6946 17.2946 33.6946 17.2096C33.6946 17.1245 33.6288 17.0591 33.5434 17.0591C33.4579 17.0591 33.3921 17.1245 33.3921 17.2096C33.3921 17.2946 33.4579 17.36 33.5434 17.36Z" fill="white"/>
  <path d="M32.4546 17.638C32.5368 17.638 32.6058 17.5726 32.6091 17.4908C32.6091 17.4908 32.6091 17.4875 32.6091 17.4843C32.6091 17.3992 32.54 17.3305 32.4546 17.3305C32.3691 17.3305 32.3001 17.3992 32.3001 17.4843C32.3001 17.566 32.3658 17.6347 32.448 17.638C32.448 17.638 32.4513 17.638 32.4546 17.638Z" fill="white"/>
  <path d="M31.5409 15.1552C31.5409 15.0734 31.4719 15.008 31.3864 15.008C31.3042 15.008 31.2352 15.0734 31.2352 15.1585C31.2352 15.2435 31.3009 15.309 31.3864 15.309C31.4686 15.309 31.5376 15.2435 31.5409 15.1618C31.5409 15.1618 31.5409 15.1585 31.5409 15.1552Z" fill="white"/>
  <path d="M32.2019 14.6646C32.2841 14.6646 32.3532 14.6024 32.3564 14.5174C32.3564 14.5174 32.3564 14.5141 32.3564 14.5108C32.3532 14.4258 32.2808 14.3604 32.1954 14.3636C32.1165 14.3669 32.0507 14.4291 32.0474 14.5108C32.0474 14.5926 32.1099 14.6613 32.1954 14.6646C32.1954 14.6646 32.1987 14.6646 32.2019 14.6646Z" fill="white"/>
  <path d="M33.7375 20.0293C33.7375 20.1111 33.8098 20.1765 33.892 20.1765C33.9742 20.1765 34.0399 20.1111 34.0399 20.0293C34.0399 19.9475 33.9742 19.8821 33.892 19.8821C33.8098 19.8821 33.7408 19.9475 33.7375 20.0293Z" fill="white"/>
  <path d="M19.1215 27.5628C19.0459 27.5628 18.9835 27.6216 18.9802 27.6969C18.9802 27.7721 19.0426 27.8343 19.1215 27.8375C19.1971 27.8375 19.2596 27.7787 19.2629 27.7034C19.2629 27.7034 19.2629 27.7002 19.2629 27.6969C19.2629 27.6216 19.2004 27.5628 19.1248 27.5628H19.1215Z" fill="white"/>
  <path d="M18.4738 28.6651C18.4738 28.5899 18.4114 28.5244 18.3325 28.5244C18.2568 28.5244 18.1944 28.5866 18.1911 28.6651C18.1911 28.7403 18.2536 28.8025 18.3325 28.8058C18.4081 28.8058 18.4705 28.7469 18.4738 28.6717C18.4738 28.6717 18.4738 28.6684 18.4738 28.6651Z" fill="white"/>
  <path d="M16.5049 25.4856C16.4293 25.4856 16.3668 25.5445 16.3635 25.6197C16.3635 25.6197 16.3635 25.623 16.3635 25.6263C16.3635 25.7015 16.426 25.7636 16.5049 25.7669C16.5805 25.7669 16.643 25.7048 16.6462 25.6263C16.6462 25.551 16.5838 25.4889 16.5049 25.4856Z" fill="white"/>
  <path d="M15.3668 26.3262C15.4523 26.3262 15.518 26.2575 15.5213 26.1725C15.518 26.0907 15.4523 26.022 15.3668 26.0188C15.2813 26.0188 15.2156 26.0874 15.2123 26.1725C15.2123 26.2543 15.2748 26.323 15.3602 26.3262C15.3602 26.3262 15.3635 26.3262 15.3668 26.3262Z" fill="white"/>
  <path d="M15.1629 22.6102C15.0775 22.6102 15.0117 22.6789 15.0084 22.7639C15.0084 22.8457 15.0742 22.9144 15.1564 22.9177C15.1564 22.9177 15.1597 22.9177 15.1629 22.9177C15.2484 22.9177 15.3142 22.849 15.3175 22.7639C15.3175 22.6822 15.2484 22.6135 15.1629 22.6102Z" fill="white"/>
  <path d="M14.3613 23.042C14.3613 22.9602 14.2955 22.8915 14.2134 22.8882C14.2134 22.8882 14.2101 22.8882 14.2068 22.8882C14.1213 22.8882 14.0523 22.9569 14.0523 23.042C14.0523 23.127 14.1213 23.1957 14.2068 23.1957C14.289 23.1957 14.358 23.1303 14.3613 23.0485C14.3613 23.0485 14.3613 23.0453 14.3613 23.042Z" fill="white"/>
  <path d="M14.6929 20.1536C14.7783 20.1536 14.8441 20.0849 14.8474 19.9998C14.8441 19.9148 14.7718 19.8494 14.6863 19.8526C14.6074 19.8559 14.5416 19.9181 14.5383 19.9998C14.5383 20.0849 14.6074 20.1503 14.6929 20.1536Z" fill="white"/>
  <path d="M13.8413 17.36C13.9235 17.36 13.9926 17.2946 13.9926 17.2096C13.9926 17.1245 13.9268 17.0591 13.8413 17.0591C13.7559 17.0591 13.6901 17.1245 13.6901 17.2096C13.6901 17.2946 13.7559 17.36 13.8413 17.36Z" fill="white"/>
  <path d="M14.9303 17.3338C14.8448 17.3338 14.7791 17.4025 14.7758 17.4875C14.7758 17.5726 14.8448 17.6413 14.9303 17.6413C15.0158 17.6413 15.0815 17.5726 15.0848 17.4875C15.0848 17.4025 15.0158 17.3371 14.9303 17.3338Z" fill="white"/>
  <path d="M15.8431 15.1552C15.8431 15.237 15.9088 15.3057 15.991 15.309C15.991 15.309 15.9943 15.309 15.9976 15.309C16.0798 15.309 16.1488 15.2435 16.1488 15.1585C16.1488 15.0734 16.0831 15.008 15.9976 15.008C15.9154 15.008 15.8464 15.0734 15.8431 15.1552Z" fill="white"/>
  <path d="M15.1829 14.6646C15.2651 14.6646 15.3341 14.6024 15.3374 14.5174C15.3374 14.5174 15.3374 14.5141 15.3374 14.5108C15.3341 14.4258 15.2618 14.3604 15.1764 14.3636C15.0975 14.3669 15.0317 14.4291 15.0284 14.5108C15.0284 14.5926 15.0909 14.6613 15.1764 14.6646C15.1764 14.6646 15.1796 14.6646 15.1829 14.6646Z" fill="white"/>
  <path d="M13.6472 20.0293C13.6472 19.9475 13.5782 19.8821 13.4927 19.8821C13.4105 19.8821 13.3447 19.9475 13.3447 20.0293C13.3447 20.1111 13.4105 20.1765 13.4927 20.1765C13.5749 20.1765 13.6439 20.1143 13.6472 20.0293Z" fill="white"/>
  <path d="M21.886 17.8899C21.9517 17.8768 21.9714 17.8965 22.001 17.9554L22.0405 17.9423L22.001 17.8507L22.2673 17.7362L22.241 17.6838L21.8662 17.8507L21.886 17.8899Z" fill="white"/>
  <path d="M21.8005 17.4124L21.7479 17.4189L21.7939 17.625L22.0208 17.6054L22.0142 17.5661C21.9846 17.5563 21.9616 17.5301 21.955 17.5007C21.9452 17.4516 21.9748 17.4058 22.0208 17.396C22.0635 17.3796 22.1128 17.4025 22.1293 17.4451C22.1293 17.4483 22.1293 17.4516 22.1326 17.4549C22.149 17.4909 22.1326 17.5334 22.0964 17.5497C22.0931 17.5497 22.0898 17.5497 22.0832 17.553L22.0964 17.6054C22.1589 17.5857 22.195 17.5203 22.1786 17.4582C22.1786 17.4582 22.1786 17.4582 22.1786 17.4549C22.1687 17.3797 22.0997 17.3273 22.0274 17.3371C22.0208 17.3371 22.0142 17.3371 22.0043 17.3404C21.9353 17.3535 21.8893 17.4189 21.9024 17.4909C21.9024 17.4941 21.9024 17.4974 21.9024 17.5007C21.909 17.5301 21.9254 17.5563 21.9485 17.5726L21.8334 17.5792L21.7939 17.4124H21.8005Z" fill="white"/>
  <path d="M21.8199 17.082C21.8922 17.0885 21.912 17.0296 21.9251 17.0034L21.9514 16.9184C21.9711 16.853 21.9843 16.8333 22.0303 16.8399C22.0895 16.8464 22.0961 16.9119 22.0895 16.9544C22.0829 17.0067 22.0566 17.0689 21.9843 17.0591L21.9777 17.1114C22.0172 17.1179 22.0599 17.1081 22.0928 17.0787C22.1224 17.046 22.1388 17.0034 22.1388 16.9576C22.1454 16.8857 22.1257 16.7908 22.0237 16.7843C21.9711 16.7745 21.9185 16.8104 21.9087 16.8628L21.8692 16.9838C21.8627 17.01 21.8364 17.0296 21.8101 17.0296C21.7509 17.0231 21.7443 16.9642 21.7509 16.9249C21.7476 16.8759 21.7838 16.8366 21.8298 16.8333C21.8331 16.8333 21.8396 16.8333 21.8429 16.8333V16.781C21.7969 16.781 21.7081 16.7875 21.695 16.9348C21.6818 17.0034 21.7279 17.0721 21.8002 17.0852C21.8068 17.0852 21.8101 17.0852 21.8166 17.0852L21.8199 17.082Z" fill="white"/>
  <path d="M22.2538 16.4441L22.2078 16.431L22.1289 16.6698L21.9941 16.624L22.0664 16.4114L22.0204 16.3917L21.9481 16.6109L21.8265 16.5716L21.9054 16.3394L21.8528 16.3198L21.7607 16.6109L22.1618 16.7385L22.2571 16.4441H22.2538Z" fill="white"/>
  <path d="M22.3131 16.3524L22.1586 16.2576L22.2244 16.1464C22.2638 16.0908 22.2507 16.0155 22.1981 15.9763C22.1948 15.9763 22.1915 15.9697 22.1882 15.9697C22.1619 15.9534 22.1323 15.9468 22.1027 15.9566C22.0699 15.9664 22.0403 15.9893 22.0206 16.0188L21.9318 16.1758L22.2836 16.395L22.3164 16.3524H22.3131ZM22.0008 16.1529L22.0633 16.058C22.0732 16.0351 22.0995 16.0188 22.1258 16.0188C22.1356 16.0188 22.1455 16.0253 22.1553 16.0319C22.1948 16.058 22.1981 16.0908 22.1685 16.1333L22.1159 16.2183L22.0008 16.1529Z" fill="white"/>
  <path d="M22.2872 15.767L22.5535 16.0188L22.5864 15.9796L22.3267 15.7277L22.4253 15.623L22.3859 15.5903L22.1524 15.8357L22.1853 15.8684L22.2872 15.767Z" fill="white"/>
  <path d="M22.7736 15.8258L22.5205 15.4922L22.481 15.5249L22.7276 15.8585L22.7736 15.8258Z" fill="white"/>
  <path d="M23.1156 15.6263L23.0959 15.587L22.8691 15.7015L22.8099 15.5805L23.0104 15.4758L22.9907 15.43L22.7836 15.5347L22.7244 15.4235L22.9447 15.309L22.925 15.2632L22.6521 15.4039L22.8461 15.7768L23.1189 15.6296L23.1156 15.6263Z" fill="white"/>
  <path d="M23.2141 15.6001L23.1615 15.3548C23.1483 15.322 23.1385 15.2893 23.1352 15.2566L23.3291 15.5739L23.3817 15.5608L23.4212 15.1977C23.4311 15.2304 23.4376 15.2632 23.4409 15.2959L23.4935 15.5347L23.5461 15.5281L23.4606 15.116L23.3817 15.1356L23.3423 15.5085L23.1483 15.1912L23.0694 15.2043L23.1615 15.6099L23.2141 15.6034V15.6001Z" fill="white"/>
  <path d="M23.793 15.5314C23.885 15.5379 23.9442 15.4889 23.9442 15.4202C23.9508 15.3711 23.9179 15.3286 23.8719 15.3155C23.9081 15.3024 23.9311 15.2664 23.9311 15.2304C23.9376 15.1716 23.9015 15.1225 23.8193 15.116H23.6352L23.6155 15.5281L23.793 15.5347V15.5314ZM23.6977 15.1683L23.7864 15.1781C23.8456 15.1781 23.8686 15.1945 23.8686 15.2337C23.862 15.2795 23.8357 15.2926 23.7831 15.2861H23.6878L23.6977 15.1683ZM23.7864 15.3515C23.8259 15.3515 23.8719 15.3646 23.8719 15.4169C23.8719 15.4562 23.839 15.4856 23.7864 15.4856L23.6812 15.4758V15.3417L23.7864 15.3515Z" fill="white"/>
  <path d="M24.089 15.3973L24.2237 15.4366C24.2895 15.4562 24.2829 15.4954 24.2763 15.5249C24.2632 15.5576 24.2566 15.5903 24.2566 15.6263L24.3257 15.6459C24.3125 15.6296 24.3125 15.6197 24.3224 15.5936L24.3322 15.5216C24.352 15.4693 24.3322 15.4496 24.3125 15.4366C24.3388 15.4235 24.3815 15.4137 24.3947 15.3548C24.421 15.2697 24.3618 15.2305 24.2928 15.2108L24.1054 15.1487L23.9936 15.5543L24.0462 15.5674L24.089 15.394V15.3973ZM24.1547 15.2207L24.2763 15.2632C24.3026 15.2697 24.3454 15.2795 24.3257 15.3384C24.3125 15.3908 24.2731 15.3875 24.2369 15.3809L24.1218 15.3482L24.158 15.2174L24.1547 15.2207Z" fill="white"/>
  <path d="M24.6309 15.8259L24.6507 15.7866L24.437 15.659L24.5027 15.538L24.7033 15.6525L24.7296 15.6132L24.529 15.4922L24.5948 15.3875L24.8085 15.5151L24.8348 15.4693L24.5685 15.3156L24.3614 15.6754L24.6277 15.8291L24.6309 15.8259Z" fill="white"/>
  <path d="M24.8911 16.0875C24.9634 16.1627 25.085 16.166 25.1607 16.0908C25.1607 16.0908 25.1672 16.0842 25.1705 16.081C25.256 16.0286 25.2823 15.9174 25.2297 15.8323C25.2264 15.8258 25.2198 15.8193 25.2165 15.8127L25.1048 15.6884L24.7859 15.9501L24.8911 16.0842V16.0875ZM25.1607 15.8585C25.2067 15.9109 25.2001 15.9697 25.1278 16.0352C25.0555 16.094 24.9864 16.094 24.9404 16.0384L24.8779 15.9665L25.0982 15.78L25.1607 15.8552V15.8585Z" fill="white"/>
  <path d="M25.1704 16.5422L25.2164 16.5226L25.1013 16.2969L25.2295 16.238L25.3282 16.4441L25.3742 16.4179L25.269 16.2184L25.3906 16.1595L25.4958 16.3787L25.5419 16.359L25.4005 16.0875L25.0257 16.274L25.1671 16.5455L25.1704 16.5422Z" fill="white"/>
  <path d="M25.5252 16.8105L25.2392 16.8497L25.2458 16.902L25.6534 16.8432L25.6468 16.8039C25.5811 16.7974 25.5745 16.7777 25.5548 16.7123L25.5153 16.7189L25.5285 16.8105H25.5252Z" fill="white"/>
  <path d="M25.5585 17.0526C25.5223 17.0526 25.4862 17.0722 25.4763 17.1082C25.4632 17.0624 25.4237 17.0297 25.3744 17.0264C25.3382 17.0264 25.3021 17.0395 25.2791 17.0656C25.2561 17.0951 25.2462 17.1311 25.2462 17.1671C25.2363 17.2325 25.2791 17.2946 25.3448 17.3044C25.3514 17.3044 25.358 17.3044 25.3645 17.3044C25.4073 17.311 25.4533 17.2881 25.4697 17.2488C25.4829 17.2815 25.5158 17.3044 25.5519 17.3012C25.6045 17.3077 25.6637 17.275 25.6637 17.1801C25.6736 17.1213 25.6341 17.0624 25.5749 17.0526C25.5684 17.0526 25.5651 17.0526 25.5585 17.0526ZM25.3678 17.2488C25.3087 17.2488 25.2988 17.1998 25.2988 17.1671C25.2988 17.1311 25.3251 17.0984 25.3613 17.0951C25.3645 17.0951 25.3711 17.0951 25.3744 17.0951C25.4106 17.0951 25.4402 17.1278 25.4402 17.1638C25.4402 17.1671 25.4402 17.1736 25.4402 17.1769C25.4434 17.2128 25.4204 17.2456 25.3843 17.2488C25.3777 17.2488 25.3744 17.2488 25.3678 17.2488ZM25.5585 17.2488C25.5223 17.2423 25.496 17.2096 25.496 17.1736C25.496 17.1409 25.5256 17.1147 25.5585 17.118C25.5848 17.118 25.6177 17.1311 25.6111 17.1834C25.6111 17.2357 25.5782 17.2521 25.5585 17.2521V17.2488Z" fill="white"/>
  <path d="M25.4989 17.3927L25.4923 17.445C25.5186 17.4516 25.5844 17.4712 25.5647 17.5432C25.5515 17.6021 25.5055 17.6151 25.4792 17.6021C25.4266 17.5955 25.4134 17.5563 25.4003 17.5105L25.3871 17.4516C25.3674 17.3862 25.3148 17.3338 25.2458 17.3175L25.18 17.589L25.226 17.6021L25.2786 17.3829C25.2984 17.3894 25.3247 17.4091 25.3378 17.4679L25.351 17.5137C25.3707 17.5857 25.3904 17.6413 25.4562 17.6544C25.5219 17.6708 25.591 17.6315 25.6074 17.5661C25.6074 17.5661 25.6074 17.5661 25.6074 17.5628C25.6304 17.4908 25.5877 17.4156 25.5153 17.396C25.5088 17.396 25.4989 17.3927 25.4923 17.3927H25.4989Z" fill="white"/>
  <path d="M25.4167 17.7787L25.3773 17.8637L25.1176 17.7362L25.0913 17.7885L25.4661 17.9619L25.4792 17.9226C25.4266 17.8834 25.4332 17.8572 25.4595 17.7885L25.42 17.7754L25.4167 17.7787Z" fill="white"/>
  <path d="M23.1814 19.2442L23.2274 19.254L23.5331 17.9979C23.5331 17.9979 23.5035 17.9979 23.4871 17.9946L23.1846 19.2376V19.2474L23.1814 19.2442Z" fill="white"/>
  <path d="M23.1382 18.7044L23.1809 18.7208L23.4373 17.975C23.4373 17.975 23.4078 17.9651 23.3946 17.9619L23.1415 18.6946V18.7044H23.1382Z" fill="white"/>
  <path d="M22.7018 19.1657L22.7412 19.1853L23.333 17.9455L23.2902 17.9292L22.7051 19.1559L22.6985 19.1657H22.7018Z" fill="white"/>
  <path d="M22.6091 18.9563L23.2535 17.903C23.2535 17.903 23.2272 17.8899 23.214 17.8801L22.573 18.9334L22.6124 18.9563H22.6091Z" fill="white"/>
  <path d="M22.211 18.9759L22.2044 18.9858L22.2406 19.0119L23.1545 17.8507C23.1545 17.8507 23.1315 17.831 23.1183 17.8212L22.211 18.9759Z" fill="white"/>
  <path d="M22.271 18.6881L23.0797 17.795C23.0797 17.795 23.0567 17.7754 23.0435 17.7623L22.2348 18.6586L22.2677 18.6881H22.271Z" fill="white"/>
  <path d="M23.0101 17.7296C23.0101 17.7296 22.9904 17.7067 22.9805 17.6936L21.7839 18.7437L21.8135 18.7764L23.0068 17.7296H23.0101Z" fill="white"/>
  <path d="M22.9446 17.6478C22.9446 17.6478 22.9249 17.6249 22.915 17.6119L22.2838 18.0567L22.274 18.0633L22.3003 18.0993L22.9446 17.6478Z" fill="white"/>
  <path d="M22.8887 17.5693C22.8887 17.5693 22.8755 17.5432 22.8657 17.5301L22.4219 17.7754L22.4416 17.8147L22.8854 17.5693H22.8887Z" fill="white"/>
  <path d="M22.3587 17.6511L22.3784 17.6936L22.8453 17.4908C22.8453 17.4908 22.8288 17.4646 22.8222 17.4515L22.3587 17.6544V17.6511Z" fill="white"/>
  <path d="M22.3068 17.5105L22.32 17.553L22.7934 17.4025H22.8032L22.7901 17.3567L22.3035 17.5137L22.3068 17.5105Z" fill="white"/>
  <path d="M22.7762 17.3076C22.7762 17.3076 22.7664 17.2782 22.7664 17.2651L22.27 17.3731L22.2798 17.4189L22.7795 17.3109L22.7762 17.3076Z" fill="white"/>
  <path d="M22.2444 17.2226L22.251 17.2684L22.7638 17.2127C22.7638 17.2127 22.7605 17.1833 22.7605 17.1669L22.2477 17.2226H22.2444Z" fill="white"/>
  <path d="M22.2348 17.1179L22.7509 17.1114C22.7509 17.1114 22.7509 17.095 22.7509 17.0885C22.7509 17.0819 22.7509 17.0721 22.7509 17.0656L22.2348 17.0721V17.1179Z" fill="white"/>
  <path d="M22.2444 16.9773L22.7474 17.0198H22.7572C22.7572 17.0198 22.7572 16.9904 22.7605 16.974L22.2608 16.9315H22.251V16.9773H22.2444Z" fill="white"/>
  <path d="M22.2612 16.817L22.7674 16.925C22.7674 16.925 22.774 16.8955 22.7773 16.8824L22.271 16.7712L22.2612 16.817Z" fill="white"/>
  <path d="M22.3004 16.6828L22.7804 16.8399H22.787C22.787 16.8399 22.7968 16.8104 22.8001 16.7973L22.3136 16.637L22.2972 16.6796L22.3004 16.6828Z" fill="white"/>
  <path d="M22.3632 16.503L22.3435 16.5455L22.8202 16.7483C22.8202 16.7483 22.8334 16.7221 22.8399 16.7058L22.3731 16.5095H22.3632V16.503Z" fill="white"/>
  <path d="M22.4052 16.4081L22.8556 16.6534H22.8588C22.8588 16.6534 22.872 16.6272 22.8819 16.6174L22.4249 16.3721L22.4019 16.4114L22.4052 16.4081Z" fill="white"/>
  <path d="M22.4938 16.2838L22.9048 16.5749C22.9048 16.5749 22.9245 16.552 22.9343 16.5389L22.5201 16.2445L22.4938 16.2838Z" fill="white"/>
  <path d="M22.6217 16.1301L22.5922 16.166L22.9702 16.4899H22.9735C22.9735 16.4899 22.9932 16.4703 23.0031 16.4572L22.6316 16.1366L22.6217 16.1301Z" fill="white"/>
  <path d="M22.7314 16.0286L22.6985 16.0581L23.0437 16.4212C23.0437 16.4212 23.0667 16.4015 23.0798 16.3917L22.7379 16.0352L22.7314 16.0286Z" fill="white"/>
  <path d="M22.8458 15.937L22.8096 15.9664L23.1219 16.3557C23.1219 16.3557 23.1449 16.3361 23.1581 16.3263L22.8523 15.9436L22.8458 15.937Z" fill="white"/>
  <path d="M22.9906 15.852L22.9511 15.8749L23.1977 16.3001C23.1977 16.3001 23.224 16.2903 23.2371 16.2805L22.9939 15.8618L22.9873 15.852H22.9906Z" fill="white"/>
  <path d="M23.1186 15.7964L23.0758 15.816L23.2829 16.2609C23.2829 16.2609 23.3092 16.2478 23.3257 16.2413L23.1251 15.8095V15.7996L23.1186 15.7964Z" fill="white"/>
  <path d="M23.2633 15.744L23.2205 15.7571L23.3816 16.2183C23.3816 16.2183 23.4112 16.2085 23.4244 16.2053L23.2666 15.7538V15.744H23.2633Z" fill="white"/>
  <path d="M23.4153 15.6983L23.3692 15.7081L23.4711 16.1922C23.4711 16.1922 23.5007 16.1857 23.5172 16.1857L23.4185 15.7081V15.6983H23.4153Z" fill="white"/>
  <path d="M23.5752 16.1791C23.5752 16.1791 23.6048 16.1758 23.6213 16.1758L23.572 15.6819H23.5259L23.5752 16.1824V16.1791Z" fill="white"/>
  <path d="M23.7071 15.6754H23.661L23.6676 16.1693H23.6742C23.6742 16.1693 23.7005 16.1726 23.7136 16.1726L23.7071 15.6852V15.6754Z" fill="white"/>
  <path d="M23.7562 16.1791C23.7562 16.1791 23.7858 16.1791 23.8022 16.1824L23.8515 15.6819H23.8055L23.7562 16.1693V16.1791Z" fill="white"/>
  <path d="M23.8907 16.1988H23.9005L23.9992 15.7081L23.9531 15.6983L23.8545 16.189C23.8545 16.189 23.8775 16.1955 23.8907 16.1988Z" fill="white"/>
  <path d="M24.1446 15.7571L24.1018 15.744L23.944 16.2053V16.2151C23.944 16.2151 23.9703 16.2249 23.9835 16.2282L24.138 15.7702V15.7604L24.1446 15.7571Z" fill="white"/>
  <path d="M24.2825 15.8127L24.2397 15.7931L24.0392 16.238V16.2445C24.0392 16.2445 24.0622 16.2609 24.0753 16.2674L24.2759 15.8225V15.8127H24.2825Z" fill="white"/>
  <path d="M24.3648 15.852L24.1281 16.274L24.1215 16.2838L24.161 16.3067L24.4043 15.8749L24.3648 15.852Z" fill="white"/>
  <path d="M24.1967 16.3263C24.1967 16.3263 24.2197 16.3492 24.2328 16.359L24.5353 15.9697L24.5419 15.9599L24.5057 15.9338L24.2 16.3263H24.1967Z" fill="white"/>
  <path d="M24.2758 16.3917L24.3087 16.4211L24.6407 16.0613L24.6473 16.0515L24.6144 16.0221L24.2758 16.3884V16.3917Z" fill="white"/>
  <path d="M24.7161 16.1285L24.3438 16.4601L24.3745 16.4943L24.7468 16.1626L24.7161 16.1285Z" fill="white"/>
  <path d="M24.4167 16.5357L24.4101 16.5422C24.4101 16.5422 24.4299 16.5651 24.4397 16.5782L24.8342 16.287L24.8441 16.2805L24.8178 16.2445L24.42 16.5357H24.4167Z" fill="white"/>
  <path d="M24.4704 16.6076H24.4605C24.4671 16.624 24.4737 16.6403 24.4835 16.6534L24.9175 16.4113L24.9273 16.4048L24.9043 16.3655L24.4704 16.6076Z" fill="white"/>
  <path d="M24.5126 16.696H24.5061C24.5061 16.696 24.5192 16.7254 24.5258 16.7385L24.9762 16.5422H24.986L24.9663 16.4964L24.5094 16.696H24.5126Z" fill="white"/>
  <path d="M24.5421 16.7908C24.5421 16.7908 24.552 16.8202 24.5553 16.8333L25.0155 16.6763H25.0254L25.009 16.6305L24.5389 16.7908H24.5421Z" fill="white"/>
  <path d="M24.5684 16.8759C24.5684 16.8759 24.575 16.9053 24.5783 16.9184L25.0681 16.8105L25.0583 16.7679L24.5684 16.8759Z" fill="white"/>
  <path d="M24.5844 16.9708C24.5844 16.9708 24.5877 17.0002 24.5877 17.0165L25.0677 16.974H25.0808V16.9282L24.5844 16.9708Z" fill="white"/>
  <path d="M24.598 17.0885C24.598 17.0885 24.598 17.0983 24.598 17.1048L25.0944 17.1114V17.0656L24.598 17.059C24.598 17.059 24.6013 17.0787 24.6013 17.0885H24.598Z" fill="white"/>
  <path d="M24.5815 17.2553C24.5815 17.2553 24.5749 17.2847 24.5716 17.3011L25.0483 17.409L25.0582 17.3632L24.5815 17.2553Z" fill="white"/>
  <path d="M25.0775 17.2586V17.2128L24.5877 17.1605V17.1703C24.5877 17.1703 24.5877 17.1932 24.5844 17.2063L25.0644 17.2586H25.0775Z" fill="white"/>
  <path d="M25.0097 17.5464L25.0228 17.5039L24.5659 17.3534H24.556C24.5527 17.3665 24.5494 17.3796 24.5428 17.3927L24.9998 17.5432H25.0097V17.5464Z" fill="white"/>
  <path d="M24.5258 17.4418C24.5258 17.4418 24.5126 17.468 24.5061 17.481L24.9433 17.6773H24.9532L24.9729 17.6413L24.5258 17.4418Z" fill="white"/>
  <path d="M24.4637 17.5596L24.8779 17.7983L24.8878 17.8049L24.9108 17.7656L24.4867 17.5203C24.4867 17.5203 24.4736 17.5465 24.4637 17.5596Z" fill="white"/>
  <path d="M24.4101 17.638L25.0282 18.0862L25.0545 18.0502L24.4397 17.602C24.4397 17.602 24.42 17.6249 24.4101 17.638Z" fill="white"/>
  <path d="M24.3718 17.6839C24.3718 17.6839 24.352 17.7068 24.3422 17.7199L25.4862 18.7568L25.4928 18.7634L25.5224 18.7306L24.3751 17.6904H24.3718V17.6839Z" fill="white"/>
  <path d="M24.2758 17.782L25.055 18.675L25.0911 18.6456L24.3153 17.7558C24.3153 17.7558 24.2988 17.7689 24.289 17.7755L24.2791 17.7853L24.2758 17.782Z" fill="white"/>
  <path d="M24.2031 17.8409L25.0841 18.9956L25.1203 18.9694L24.2392 17.8115C24.2392 17.8115 24.2162 17.8311 24.2031 17.8409Z" fill="white"/>
  <path d="M24.1151 17.8932L24.7266 18.9334L24.7332 18.9432L24.7726 18.9203L24.1546 17.8736C24.1546 17.8736 24.1283 17.8867 24.1151 17.8965V17.8932Z" fill="white"/>
  <path d="M24.0328 17.9357L24.5949 19.1559V19.1657L24.641 19.146L24.0722 17.9095C24.0722 17.9095 24.0459 17.9259 24.0328 17.9324V17.9357Z" fill="white"/>
  <path d="M23.9369 17.9684L24.1769 18.6946V18.7044L24.223 18.6913L23.9764 17.9521C23.9764 17.9521 23.9468 17.9619 23.9337 17.9651L23.9369 17.9684Z" fill="white"/>
  <path d="M23.8417 17.9913L24.1343 19.2376L24.1803 19.2278L23.8877 17.9815C23.8877 17.9815 23.8582 17.9881 23.8417 17.9913Z" fill="white"/>
  <path d="M19.4399 26.2707C19.4399 26.2707 19.2986 26.4342 19.3775 26.5716C19.4597 26.6697 19.6076 26.6795 19.7062 26.5978C19.7161 26.5912 19.7227 26.5814 19.7325 26.5716C19.7325 26.5716 19.3906 26.5781 19.4399 26.2707Z" fill="white"/>
  <path d="M27.6488 26.5716C27.731 26.6698 27.8789 26.6796 27.9775 26.5978C27.9874 26.5913 27.994 26.5814 28.0038 26.5716C28.0827 26.4342 27.9414 26.2707 27.9414 26.2707C27.994 26.5782 27.6488 26.5716 27.6488 26.5716Z" fill="white"/>
  <path d="M20.7285 26.0973L20.6529 26.0548L20.4688 26.3623L20.5444 26.4048C20.6331 26.4473 20.7416 26.4081 20.7844 26.3197C20.8205 26.2412 20.7975 26.1496 20.7285 26.0973Z" fill="white"/>
  <path d="M21.3298 26.408C21.2411 26.3655 21.1359 26.408 21.0964 26.4931C21.0964 26.4931 21.0964 26.4931 21.0964 26.4963C21.0504 26.5814 21.0833 26.6893 21.1687 26.7351C21.2542 26.7809 21.3627 26.7482 21.4087 26.6632C21.4087 26.6566 21.4153 26.6533 21.4153 26.6468C21.4613 26.5617 21.4252 26.4538 21.3397 26.4113C21.3397 26.4113 21.3397 26.4113 21.3364 26.4113L21.3298 26.408Z" fill="white"/>
  <path d="M23.4112 26.9412C23.3125 26.9379 23.2304 27.0132 23.2271 27.108C23.2271 27.108 23.2271 27.108 23.2271 27.1113C23.2172 27.2062 23.2862 27.2945 23.3816 27.3043C23.4769 27.3141 23.5657 27.2454 23.5755 27.1506C23.5755 27.144 23.5755 27.1342 23.5755 27.1277C23.5821 27.0328 23.5131 26.9477 23.4145 26.9379C23.4145 26.9379 23.4112 26.9379 23.4079 26.9379L23.4112 26.9412Z" fill="white"/>
  <path d="M25.1045 26.9674L25.0025 26.9936L25.0453 27.1506L25.1472 27.1244C25.1899 27.1179 25.2162 27.0786 25.2097 27.0361C25.2097 27.0329 25.2097 27.0296 25.2097 27.0263C25.1998 26.9838 25.1603 26.9576 25.1176 26.9674C25.1176 26.9674 25.111 26.9674 25.1077 26.9674H25.1045Z" fill="white"/>
  <path d="M25.1338 26.83C25.1272 26.794 25.091 26.7711 25.0582 26.7777C25.0549 26.7777 25.0516 26.7777 25.0483 26.7777L24.953 26.8038L24.9891 26.9412L25.0845 26.915C25.1206 26.9085 25.1436 26.8725 25.1371 26.8365C25.1371 26.8365 25.1371 26.8333 25.1371 26.83H25.1338Z" fill="white"/>
  <path d="M25.789 26.5421C25.766 26.5421 25.743 26.5454 25.7232 26.5552L25.6509 26.5846L25.7134 26.7416L25.8021 26.7057C25.8449 26.6926 25.8646 26.6468 25.8514 26.6075C25.8514 26.6042 25.8514 26.5977 25.8449 26.5944C25.835 26.565 25.812 26.5454 25.7824 26.5421H25.789Z" fill="white"/>
  <path d="M26.4068 26.3197L26.4331 26.4767L26.5613 26.408L26.4429 26.3001C26.4232 26.2837 26.3936 26.2478 26.3936 26.2478C26.3936 26.2478 26.4035 26.2903 26.4068 26.3165V26.3197Z" fill="white"/>
  <path d="M27.7605 26.3557L27.6092 26.3001C27.7144 26.2576 27.8295 26.2478 27.938 26.2707L27.7539 26.1071C27.3791 25.7702 26.8334 25.7015 26.3863 25.9337C24.7327 26.9543 22.6419 26.9543 20.9915 25.9337C20.5445 25.7015 19.9987 25.7702 19.624 26.1071L19.4399 26.2707C19.5517 26.2478 19.6634 26.2576 19.7686 26.3001L19.6174 26.3557C19.8081 26.4309 19.7292 26.5716 19.7292 26.5716L19.9626 26.3655C20.3143 26.5127 20.6595 26.6828 20.9883 26.8758C21.8101 27.3371 22.7405 27.5726 23.6873 27.5562C24.6308 27.5726 25.5611 27.3371 26.3863 26.8758C26.715 26.6828 27.0602 26.5127 27.412 26.3655L27.6454 26.5716C27.6454 26.5716 27.5665 26.4309 27.7605 26.3557ZM20.5182 26.4571L20.3834 26.3786L20.6266 25.973L20.7614 26.0515C20.8732 26.1169 20.9126 26.2641 20.8436 26.3753C20.7779 26.4866 20.6299 26.5258 20.5182 26.4571ZM20.8568 26.6468L20.7976 26.6174L21.0211 26.202L21.0803 26.2347L20.8568 26.6501V26.6468ZM21.1428 26.7973C21.0211 26.7417 20.9685 26.5945 21.0244 26.4735C21.0244 26.4735 21.0244 26.4702 21.0244 26.4669C21.0836 26.3459 21.2315 26.2968 21.3532 26.359C21.4715 26.4179 21.5208 26.5552 21.4682 26.6763C21.4156 26.8006 21.271 26.8562 21.1461 26.8006C21.1461 26.8006 21.1428 26.8006 21.1395 26.8006L21.1428 26.7973ZM21.8036 26.6567C21.7871 26.6239 21.7575 26.5945 21.7214 26.5814C21.6852 26.5618 21.6359 26.5749 21.6162 26.6141C21.58 26.7024 21.8036 26.7646 21.7477 26.9053C21.7181 26.974 21.6392 27.0099 21.5701 26.9805C21.5669 26.9805 21.5636 26.9805 21.5603 26.974C21.5044 26.9543 21.4617 26.9118 21.4354 26.8595L21.488 26.8268C21.5077 26.866 21.5406 26.8987 21.5833 26.9151C21.6195 26.9347 21.6622 26.9216 21.6819 26.8856C21.6819 26.8856 21.6819 26.8824 21.6819 26.8791C21.7181 26.7842 21.4978 26.7221 21.5504 26.5847C21.5833 26.5127 21.6655 26.4833 21.7378 26.516C21.7378 26.516 21.7378 26.516 21.7411 26.516C21.7871 26.5323 21.8266 26.5651 21.8496 26.6076L21.8003 26.6501L21.8036 26.6567ZM22.1981 27.1866C22.1027 27.1702 22.0403 27.0819 22.06 26.987C22.06 26.9805 22.06 26.974 22.0633 26.9674L22.1422 26.673L22.2079 26.6894L22.129 26.9838C22.1126 27.0492 22.152 27.1146 22.2145 27.131C22.277 27.1473 22.346 27.1081 22.3624 27.0459L22.4413 26.7515L22.5071 26.7679L22.4282 27.0623C22.4052 27.1539 22.3131 27.2128 22.2211 27.1899C22.2145 27.1899 22.2079 27.1866 22.2013 27.1833L22.1981 27.1866ZM22.8753 27.3207L22.8095 27.3076L22.655 26.9674C22.6419 26.938 22.6287 26.8922 22.6287 26.8922C22.6287 26.8922 22.6254 26.9347 22.6221 26.9609L22.5662 27.2651L22.5005 27.252L22.586 26.7842L22.6517 26.7973L22.8062 27.1375C22.8194 27.167 22.8325 27.2128 22.8325 27.2128C22.8325 27.2128 22.8325 27.1702 22.8391 27.1441L22.895 26.8398L22.9607 26.8529L22.8753 27.3207ZM23.0561 27.3403L22.9903 27.3338L23.0462 26.8627L23.112 26.8693L23.0561 27.3403ZM23.3881 27.3763C23.2533 27.3698 23.1514 27.2553 23.158 27.1212C23.158 27.1212 23.158 27.1179 23.158 27.1146C23.1679 26.9805 23.2862 26.8824 23.421 26.8922C23.5492 26.902 23.6478 27.0099 23.6445 27.1375C23.6413 27.2716 23.5295 27.3763 23.3947 27.373C23.3947 27.373 23.3914 27.373 23.3881 27.373V27.3763ZM24.039 27.3665L23.8155 27.0688C23.7958 27.0427 23.7728 27.0001 23.7728 27.0001C23.7728 27.0001 23.7793 27.0427 23.7793 27.0688L23.7925 27.3763H23.7267L23.707 26.9053H23.7728L23.9963 27.2029C24.016 27.2291 24.039 27.2684 24.039 27.2684C24.039 27.2684 24.0325 27.2258 24.0325 27.1997L24.0193 26.8922H24.0851L24.1048 27.3632H24.039V27.3665ZM24.4828 27.3207L24.4072 26.8529L24.473 26.8431L24.5387 27.252L24.7491 27.2193L24.759 27.2749L24.4828 27.3174V27.3207ZM24.8149 27.2618L24.7195 26.7973L24.7853 26.7842L24.8806 27.2487L24.8149 27.2618ZM25.1568 27.18L24.9924 27.2226L24.8708 26.7646L25.0319 26.7221C25.0943 26.6959 25.1666 26.7253 25.1929 26.7908C25.1929 26.794 25.1962 26.8006 25.1962 26.8039C25.2094 26.8431 25.1962 26.8889 25.1666 26.9183C25.2192 26.9183 25.262 26.9576 25.2718 27.0067C25.2916 27.0786 25.2521 27.1539 25.1798 27.1735C25.1732 27.1735 25.1666 27.1768 25.1601 27.1768L25.1568 27.18ZM25.3968 27.1146L25.2455 26.6632L25.5085 26.5781L25.5283 26.6338L25.3277 26.6992L25.3738 26.8398L25.5348 26.7875L25.5546 26.8431L25.3935 26.8954L25.4428 27.0394L25.6532 26.9707L25.6729 27.0263L25.4001 27.1179L25.3968 27.1146ZM25.9951 26.8954L25.8307 26.7581L25.7354 26.7973L25.8077 26.9707L25.7452 26.9969L25.5677 26.5585L25.7025 26.5062C25.7288 26.4931 25.7584 26.4866 25.788 26.4833C25.8669 26.4898 25.926 26.5552 25.9195 26.6338C25.9195 26.6665 25.903 26.6992 25.88 26.7221C25.88 26.7221 25.8932 26.7319 25.8997 26.7384L26.0608 26.8726L25.9918 26.902L25.9951 26.8954ZM26.2285 26.7908L26.051 26.4146L25.903 26.4833L25.8767 26.4309L26.2318 26.2641L26.2581 26.3165L26.1101 26.3851L26.2877 26.7613L26.2285 26.7908ZM26.7052 26.5454L26.5967 26.4473L26.4389 26.5323L26.4619 26.673L26.4027 26.7057L26.3271 26.2085L26.3863 26.1758L26.7644 26.5095L26.7052 26.5422V26.5454ZM26.9485 26.4015L26.8137 26.4833L26.5605 26.0809L26.6953 25.9992C26.8071 25.9305 26.955 25.9632 27.0241 26.0744C27.0931 26.1856 27.0602 26.3328 26.9485 26.4015Z" fill="white"/>
  <path d="M26.725 26.0515L26.6526 26.0973L26.8433 26.4015L26.9156 26.3557C26.9978 26.2968 27.0143 26.1856 26.9551 26.1038C26.9025 26.0319 26.8039 26.009 26.725 26.0515Z" fill="white"/>
  <path d="M54.9844 2.38147H53.6859V54.7004H54.9844V2.38147Z" fill="white"/>
  <path d="M72.2532 24.2884L68.8276 17.1605H68.8013L68.4397 23.1795C68.4002 23.8599 68.9098 24.0071 69.5147 24.0365V24.2917H66.7204V24.0365C67.7 24.0365 67.8217 23.8239 67.8907 22.607L68.2129 17.4059C68.2655 16.5226 68.2392 16.2839 67.4074 16.2282V15.9862H69.4358L72.674 22.7248L75.899 15.9862H77.8748V16.2282C77.2173 16.2806 76.9608 16.2937 76.9871 16.7484L77.4178 22.8065C77.5 24.0365 77.6052 24.0365 78.5881 24.0365V24.2917H75.133V24.0365C75.7642 24.0365 76.3822 23.8631 76.3296 23.1533L75.9384 17.1638H75.9121L72.5655 24.2917H72.2565L72.2532 24.2884Z" fill="white"/>
  <path d="M82.4677 24.2884H79.2032V24.0333C80.0349 23.994 80.2125 23.7781 80.2125 22.8818V17.1867C80.2125 16.4638 79.956 16.2642 79.2032 16.225V15.9698H82.4677V16.225C81.6195 16.225 81.3236 16.4114 81.3236 17.3077V22.9767C81.3236 23.765 81.5373 24.0333 82.4677 24.0333V24.2884Z" fill="white"/>
  <path d="M91.4813 23.6603C90.1499 24.3407 88.4437 24.5043 87.8783 24.5043C84.936 24.5043 83.5651 22.2439 83.5651 20.291C83.5651 18.3382 84.9754 15.7703 88.2563 15.7703C89.6929 15.7703 90.6496 16.225 90.929 16.225C91.0507 16.225 91.1592 16.1988 91.2381 16.1301H91.4254V18.2956H91.1559C90.7943 16.6241 89.6502 16.104 88.401 16.104C86.0373 16.104 84.8275 18.0568 84.8275 20.2093C84.8275 22.9505 86.7638 24.1674 88.3089 24.1674C88.927 24.1674 89.614 24.0333 90.3636 23.6603V21.9757C90.3636 21.2135 90.094 20.9584 89.2886 20.9584H88.7922V20.7163H92.4215V20.9584C91.7509 20.9976 91.4813 21.2266 91.4813 21.8023V23.6603Z" fill="white"/>
  <path d="M95.1505 23.0323C95.1505 23.8337 95.4727 24.0366 96.2255 24.0366H96.5346V24.2917H92.7309V24.0366H92.9611C93.7534 24.0366 94.0361 23.8239 94.0361 22.9276V17.298C94.0361 16.4704 93.806 16.2283 93.0268 16.2283H92.7309V15.9731C93.0531 15.9731 93.8717 15.9208 94.424 15.8914C94.9763 15.8652 95.2426 15.8521 96.1171 15.8521C98.6024 15.8521 99.7201 16.8694 99.7201 18.2335C99.7201 19.2378 99.0363 20.0784 97.9317 20.399C98.4281 20.7883 98.8325 21.1612 99.4637 21.7893L100.526 22.8459C101.318 23.6342 102.14 24.1281 103.172 24.1968V24.4389C100.821 24.5469 100.217 24.0366 99.0199 22.8491L98.1323 21.9659C97.5405 21.3771 97.0704 20.9911 96.7482 20.7752C96.4129 20.7883 96.1959 20.8014 95.8343 20.8014C95.5385 20.8014 95.3642 20.7883 95.1505 20.7752V23.0356V23.0323ZM95.1505 20.5168C95.4727 20.556 95.6732 20.543 95.9823 20.543C97.4748 20.543 98.4544 19.9149 98.4544 18.3088C98.4544 17.0657 97.889 16.1007 95.8212 16.1007C95.5648 16.1007 95.3905 16.1007 95.1505 16.1269V20.5168Z" fill="white"/>
  <path d="M105.884 20.5985L105.105 22.6986C105.009 22.9537 104.835 23.3528 104.835 23.5426C104.835 23.9024 105.184 24.0365 105.923 24.0365H106.137V24.2916H103.034V24.0365C103.908 24.0234 104.056 23.8762 104.487 22.7117L106.933 16.0647L106.811 15.7703H107.981L110.789 23.1925C111.058 23.9024 111.341 24.0365 112.012 24.0365V24.2916H108.317V24.0365H108.665C109.431 24.0365 109.714 23.9547 109.714 23.5818C109.714 23.3692 109.618 23.1664 109.566 23.0323L108.665 20.5985H105.884ZM107.255 16.8956L106.114 20.0097H108.438L107.255 16.8956Z" fill="white"/>
  <path d="M119.941 18.1648C119.497 16.9217 118.343 16.1039 116.877 16.1039C114.631 16.1039 113.234 17.7232 113.234 19.9672C113.234 22.3878 114.98 24.1673 117.025 24.1673C118.086 24.1673 119.388 23.8075 120.302 22.1883H120.559C120.384 22.7902 120.02 23.6178 119.697 24.1412C118.836 24.0201 118.244 24.501 116.66 24.501C113.931 24.501 111.968 22.7084 111.968 20.2354C111.968 17.7624 113.984 15.7703 116.791 15.7703C118.484 15.7703 119.211 16.3067 119.628 16.3067C119.776 16.3067 119.842 16.2675 119.872 16.225H120.072L120.194 18.1648H119.937H119.941Z" fill="white"/>
  <path d="M124.669 24.2884H121.405V24.0332C122.236 23.994 122.414 23.7781 122.414 22.8818V17.1867C122.414 16.4638 122.157 16.2642 121.405 16.225V15.9698H124.669V16.225C123.821 16.225 123.525 16.4114 123.525 17.3077V22.9766C123.525 23.765 123.739 24.0332 124.669 24.0332V24.2884Z" fill="white"/>
  <path d="M130.569 24.501C127.936 24.501 125.717 22.8164 125.717 20.3172C125.717 17.6578 127.772 15.7703 130.635 15.7703C133.176 15.7703 135.352 17.4942 135.352 19.9018C135.352 22.6038 133.176 24.501 130.569 24.501ZM130.286 16.104C127.92 16.104 126.979 18.2956 126.979 19.9018C126.979 22.4009 128.685 24.1674 130.849 24.1674C133.012 24.1674 134.087 22.2407 134.087 20.3434C134.087 17.8573 132.502 16.104 130.283 16.104H130.286ZM129.238 14.9133L130.474 13.2155C130.743 12.8557 131.066 12.6267 131.335 12.6267C131.578 12.6267 131.753 12.787 131.753 13.016C131.753 13.2711 131.483 13.5361 130.839 13.9646L129.415 14.9133H129.238Z" fill="white"/>
  <path d="M144.92 24.3833L137.957 17.1344V22.872C137.957 23.8337 138.17 24.0365 139.314 24.0365V24.2917H136.198V24.0365H136.25C137.082 24.0365 137.352 23.7552 137.352 23.1402V16.5619C137.043 16.3493 136.694 16.2414 136.224 16.2283V15.9731H138.335L144.663 22.5383V17.2162C144.663 16.4016 144.42 16.2544 143.345 16.2283V15.9731H146.491V16.2283C145.482 16.2283 145.268 16.4016 145.268 16.925V24.3866H144.92V24.3833Z" fill="white"/>
  <path d="M154.447 17.1867C154.878 16.4507 154.621 16.225 153.763 16.225V15.9698H156.801V16.225C155.887 16.2904 155.499 16.6535 155.121 17.2816L152.889 21.0401V23.0454C152.889 23.7552 153.145 24.0333 153.964 24.0333H154.138V24.2884H150.443V24.0333H150.699C151.534 24.0333 151.774 23.7258 151.774 23.0715V21.1873L149.381 17.4713C148.723 16.4409 148.414 16.2544 147.54 16.2283V15.9731H151.113V16.2283C150.065 16.2283 149.999 16.4834 150.4 17.0984L152.55 20.4023L154.444 17.1933L154.447 17.1867Z" fill="white"/>
  <path d="M72.7796 36.6698H72.5232C72.4147 35.7211 72.1616 35.6132 71.6093 35.6132H69.3377V38.4624C69.3377 39.0773 69.5645 39.1984 70.0642 39.1984H72.1353C73.0755 39.1984 73.3582 38.8385 73.6936 37.6871H73.9368L73.7232 39.6792H66.586V39.4241H66.9608C68.0358 39.4241 68.2232 39.1297 68.2232 38.3282V32.6855C68.2232 31.9364 68.049 31.6158 67.1482 31.6158H66.8523V31.3607H73.3024L73.4108 33.2187H73.1676C72.9933 32.0836 72.658 31.8415 72.1715 31.8415H69.3377V35.1323H71.7441C72.2273 35.1323 72.4575 34.9033 72.5232 34.1281H72.7796V36.6698Z" fill="white"/>
  <path d="M76.9016 38.4493C76.3789 39.0773 76.4184 39.4241 77.306 39.4241H77.5755V39.6792H74.3768V39.4241C75.317 39.3423 75.6787 39.1166 76.6222 37.9946L78.7064 35.4954L76.6222 32.8883C75.7904 31.8448 75.4387 31.6453 74.3768 31.6191V31.3639H78.381V31.6191C77.1975 31.606 77.1449 31.9004 77.5624 32.4205L79.3902 34.6678L80.8433 32.9439C81.6487 31.9953 81.6224 31.6191 80.8959 31.6191H80.5047V31.3639H83.7297V31.6191C82.8421 31.6191 82.224 32.0345 81.4449 32.9832L79.7255 35.0833L82.2503 38.2138C83.0295 39.1886 83.2727 39.3358 84.2919 39.4306V39.6858H80.5836V39.4306C81.5238 39.4306 81.7408 39.2016 81.0537 38.374L79.0385 35.9011L76.9016 38.4558V38.4493Z" fill="white"/>
  <path d="M89.1705 38.4493C89.1705 39.1722 89.4138 39.4241 90.2324 39.4241H90.7288V39.6792H86.4945V39.4241H86.9909C87.8095 39.4241 88.0528 39.1689 88.0528 38.4493V31.8448H85.7154C85.1763 31.8448 84.9363 32.1523 84.7357 33.3299H84.4925L84.7061 31.1644H84.9626C84.9757 31.2462 85.0283 31.2985 85.1105 31.3247C85.1927 31.3509 85.2848 31.3639 85.3801 31.3639H91.8433C92.0306 31.3639 92.2345 31.3247 92.2608 31.1644H92.5172L92.7309 33.3299H92.4876C92.2871 32.1523 92.0438 31.8448 91.5079 31.8448H89.1705V38.4493Z" fill="white"/>
  <path d="M95.5647 38.4198C95.5647 39.2213 95.8868 39.4241 96.6397 39.4241H96.9487V39.6792H93.1451V39.4241H93.3752C94.1675 39.4241 94.4502 39.2115 94.4502 38.3152V32.6855C94.4502 31.8546 94.2201 31.6158 93.4409 31.6158H93.1451V31.3607C93.4672 31.3607 94.2858 31.3083 94.8381 31.2789C95.3904 31.2527 95.6567 31.2397 96.5312 31.2397C99.0165 31.2397 100.134 32.257 100.134 33.6211C100.134 34.6253 99.4505 35.466 98.3459 35.7866C98.8423 36.1758 99.2466 36.5487 99.8778 37.1768L100.94 38.2334C101.732 39.0217 102.554 39.5157 103.586 39.5844V39.8265C101.236 39.9344 100.631 39.4241 99.434 38.2367L98.5464 37.3535C97.9546 36.7646 97.4845 36.3786 97.1624 36.1628C96.827 36.1758 96.6101 36.1889 96.2485 36.1889C95.9526 36.1889 95.7783 36.1758 95.5647 36.1628V38.4231V38.4198ZM95.5647 35.9076C95.8868 35.9469 96.0874 35.9338 96.3964 35.9338C97.8889 35.9338 98.8686 35.3057 98.8686 33.6996C98.8686 32.4565 98.3031 31.4915 96.2353 31.4915C95.9789 31.4915 95.8046 31.4915 95.5647 31.5177V35.9076Z" fill="white"/>
  <path d="M106.301 35.986L105.522 38.0861C105.427 38.3413 105.253 38.7404 105.253 38.9301C105.253 39.2899 105.601 39.424 106.341 39.424H106.554V39.6792H103.451V39.424C104.325 39.411 104.473 39.2638 104.904 38.0992L107.35 31.4522L107.228 31.1578H108.399L111.206 38.5801C111.476 39.2899 111.758 39.424 112.429 39.424V39.6792H108.734V39.424H109.082C109.848 39.424 110.131 39.3423 110.131 38.9693C110.131 38.7567 110.036 38.5539 109.983 38.4198L109.082 35.986H106.301ZM107.672 32.2831L106.531 35.3972H108.856L107.672 32.2831Z" fill="white"/>
  <path d="M121.351 39.7708L114.388 32.5219V38.2595C114.388 39.2213 114.602 39.4241 115.746 39.4241V39.6792H112.63V39.4241H112.682C113.514 39.4241 113.784 39.1428 113.784 38.5278V31.9495C113.475 31.7368 113.126 31.6289 112.656 31.6158V31.3607H114.767L121.095 37.9259V32.6037C121.095 31.7892 120.852 31.642 119.777 31.6158V31.3607H122.923V31.6158C121.913 31.6158 121.7 31.7892 121.7 32.3093V39.7708H121.351Z" fill="white"/>
  <path d="M125.504 38.3021C125.504 40.991 124.402 42.7967 122.722 42.7967C121.983 42.7967 121.417 42.4892 121.417 42.0737C121.417 41.7924 121.631 41.5373 121.901 41.5373C122.358 41.5373 122.719 42.1653 123.285 42.1653C123.929 42.1653 124.386 41.6845 124.386 40.1994V33.0584C124.386 31.8808 124.264 31.6126 123.298 31.6126H123.15V31.3574H126.549V31.6126C125.688 31.6387 125.5 31.8808 125.5 32.5874V38.2955L125.504 38.3021Z" fill="white"/>
  <path d="M132.907 36.6698H132.65C132.542 35.7211 132.289 35.6132 131.736 35.6132H129.465V38.4624C129.465 39.0773 129.692 39.1984 130.191 39.1984H132.259C133.199 39.1984 133.482 38.8385 133.817 37.6871H134.061L133.847 39.6792H126.71V39.4241H127.085C128.16 39.4241 128.347 39.1297 128.347 38.3282V32.6855C128.347 31.9364 128.173 31.6158 127.272 31.6158H126.976V31.3607H133.426L133.535 33.2187H133.291C133.117 32.0836 132.782 31.8415 132.295 31.8415H129.461V35.1323H131.868C132.351 35.1323 132.581 34.9033 132.647 34.1281H132.903V36.6698H132.907Z" fill="white"/>
  <path d="M137.059 38.4198C137.059 39.2213 137.381 39.4241 138.134 39.4241H138.443V39.6792H134.64V39.4241H134.87C135.662 39.4241 135.945 39.2114 135.945 38.3151V32.6855C135.945 31.8546 135.715 31.6158 134.936 31.6158H134.64V31.3607C134.962 31.3607 135.78 31.3083 136.333 31.2789C136.885 31.2527 137.151 31.2396 138.026 31.2396C140.511 31.2396 141.629 32.257 141.629 33.621C141.629 34.6253 140.945 35.466 139.841 35.7865C140.337 36.1758 140.741 36.5487 141.372 37.1768L142.434 38.2334C143.227 39.0217 144.048 39.5157 145.081 39.5844V39.8264C142.73 39.9344 142.125 39.4241 140.929 38.2366L140.041 37.3534C139.449 36.7646 138.979 36.3786 138.657 36.1627C138.322 36.1758 138.105 36.1889 137.743 36.1889C137.447 36.1889 137.273 36.1758 137.059 36.1627V38.4231V38.4198ZM137.059 35.9076C137.381 35.9468 137.582 35.9337 137.891 35.9337C139.384 35.9337 140.363 35.3057 140.363 33.6995C140.363 32.4565 139.798 31.4915 137.73 31.4915C137.474 31.4915 137.299 31.4915 137.059 31.5177V35.9076Z" fill="white"/>
  <path d="M148.762 39.6793H145.498V39.4241C146.33 39.3848 146.507 39.1689 146.507 38.2727V32.5776C146.507 31.8546 146.251 31.6551 145.498 31.6158V31.3607H148.762V31.6158C147.914 31.6158 147.622 31.8023 147.622 32.6986V38.3675C147.622 39.1559 147.835 39.4241 148.762 39.4241V39.6793ZM145.833 30.3041L147.069 28.6064C147.339 28.2465 147.661 28.0176 147.931 28.0176C148.174 28.0176 148.348 28.1778 148.348 28.4068C148.348 28.662 148.079 28.9269 147.434 29.3555L146.011 30.3041H145.833Z" fill="white"/>
  <path d="M152.001 35.986L151.222 38.0861C151.127 38.3413 150.952 38.7404 150.952 38.9301C150.952 39.2899 151.301 39.424 152.04 39.424H152.254V39.6792H149.151V39.424C150.025 39.411 150.173 39.2638 150.604 38.0992L153.05 31.4522L152.928 31.1578H154.098L156.906 38.5801C157.176 39.2899 157.458 39.424 158.129 39.424V39.6792H154.434V39.424H154.782C155.548 39.424 155.831 39.3423 155.831 38.9693C155.831 38.7567 155.736 38.5539 155.683 38.4198L154.782 35.986H152.001ZM153.372 32.2831L152.231 35.3972H154.555L153.372 32.2831Z" fill="white"/>
</svg>