<svg width="230" height="73" viewBox="0 0 230 73" fill="none" xmlns="http://www.w3.org/2000/svg">
<path d="M55.7959 18.5255C55.7066 18.4622 55.6014 18.4253 55.491 18.4253C55.4385 18.4253 55.3807 18.4358 55.3281 18.4517L39.5324 23.7487C39.5324 23.7487 39.4904 23.7592 39.4641 23.7645L37.3615 24.4715V20.9313C37.3615 20.0555 36.6519 19.3433 35.7793 19.3433C35.6111 19.3433 35.4377 19.3697 35.2747 19.4277L12.9821 26.8984C12.7718 26.967 12.6299 27.1674 12.6299 27.389V54.4438C12.6299 54.6126 12.7087 54.7656 12.8454 54.8659C12.9348 54.9292 13.0399 54.9661 13.1503 54.9661C13.2028 54.9661 13.2607 54.9556 13.3132 54.9397L13.4657 54.887L13.5235 54.8659L13.7968 54.7762L13.8441 54.7604L16.0729 54.0165L32.6517 48.4609C32.6517 49.2471 32.6517 50.4711 32.6412 51.1147C32.636 51.5843 32.6412 51.9061 32.657 52.096C32.6622 52.1594 32.6675 52.1857 32.6675 52.2174C32.7621 53.0035 33.4297 53.5997 34.2234 53.5997C34.3916 53.5997 34.5598 53.5733 34.7228 53.5153L55.6487 46.4983C55.859 46.4297 56.0009 46.2292 56.0009 46.0077V18.9476C56.0009 18.7788 55.9221 18.6258 55.7854 18.5255H55.7959ZM55.491 27.9641V36.9806V45.9971L34.5651 53.014C34.5651 53.014 34.5493 53.014 34.5388 53.014C34.4494 53.0404 34.3601 53.0563 34.2707 53.0563C34.2707 53.0563 34.2655 53.0563 34.2602 53.0563C34.2287 53.0563 34.2024 53.0563 34.1708 53.0563C34.1393 53.0563 34.113 53.0563 34.0815 53.0563C34.071 53.0563 34.0605 53.0563 34.05 53.0563C34.0026 53.0457 33.9606 53.0299 33.9185 53.0193C33.8975 53.014 33.8765 53.0088 33.8607 53.0035C33.8502 53.0035 33.8397 53.0035 33.8292 52.9929C33.8239 52.9929 33.8134 52.9877 33.8082 52.9824C33.7661 52.9613 33.7241 52.9402 33.6873 52.9138C33.6767 52.9085 33.6715 52.9033 33.661 52.898C33.6505 52.8927 33.6399 52.8874 33.6294 52.8821C33.6189 52.8769 33.6084 52.8663 33.5979 52.861C33.5611 52.8294 33.5243 52.7977 33.4928 52.7608C33.4928 52.7608 33.456 52.7291 33.4455 52.7133C33.4455 52.7133 33.4402 52.708 33.4402 52.7028C33.3351 52.5867 33.2615 52.439 33.2194 52.2807C33.2194 52.2701 33.2194 52.2596 33.2142 52.249C33.2037 52.2121 33.2037 52.1752 33.1984 52.1382C33.1984 52.1594 33.1984 52.1805 33.1984 52.2068C33.1984 52.2121 33.1984 52.2174 33.1984 52.2227C33.1984 52.2227 33.1826 52.1963 33.1721 52.0433C33.1616 51.8903 33.1511 51.6159 33.1564 51.1147C33.1564 50.9881 33.1564 50.8457 33.1564 50.6874V50.6821C33.1564 50.5238 33.1564 50.3497 33.1564 50.1703C33.1564 50.1598 33.1564 50.1545 33.1564 50.144C33.1564 50.0701 33.1564 49.9962 33.1564 49.9224C33.1564 49.8643 33.1564 49.801 33.1564 49.743C33.1564 49.7113 33.1564 49.6744 33.1564 49.6428C33.1564 49.6164 33.1564 49.59 33.1564 49.5583C33.1564 48.7247 33.1564 47.907 33.1564 47.7487V47.7382C33.1564 47.7382 33.1196 47.7487 33.1038 47.754C33.0092 47.7856 32.9198 47.8173 32.8252 47.8489C32.3101 48.0231 31.7319 48.213 31.1116 48.424C30.9486 48.4768 30.7857 48.5348 30.6175 48.5928C29.9131 48.8303 29.1562 49.0835 28.373 49.3473C28.3677 49.3473 28.3572 49.3473 28.3519 49.3526C22.2755 51.3891 14.3593 54.0428 13.2764 54.4016C13.1923 54.428 13.1398 54.4491 13.1398 54.4491V45.4326V27.3943L35.4324 19.9236C35.5375 19.8867 35.6374 19.8762 35.7373 19.8709C35.7898 19.8709 35.8371 19.8709 35.8845 19.8762C35.9107 19.8762 35.9318 19.8762 35.958 19.8814C36.0316 19.8973 36.1052 19.9131 36.1788 19.9448C36.1788 19.9448 36.1893 19.95 36.1946 19.95C36.2577 19.9764 36.3207 20.0133 36.3786 20.0555C36.3996 20.0714 36.4154 20.0872 36.4364 20.103C36.4784 20.1347 36.5152 20.1663 36.552 20.2085C36.573 20.2296 36.5888 20.2508 36.6046 20.2719C36.6361 20.3088 36.6624 20.351 36.6887 20.3932C36.7045 20.4196 36.715 20.4407 36.7307 20.4671C36.7518 20.5145 36.7728 20.5673 36.7886 20.6148C36.7938 20.6412 36.8043 20.6623 36.8096 20.6887C36.8254 20.7678 36.8411 20.8469 36.8411 20.9313V25.1943L37.556 24.9516L39.6218 24.2552L55.4858 18.9371V27.9536L55.491 27.9641Z" fill="#0036C1"/>
<path d="M39.627 24.2711V33.2876L55.4909 27.9695V18.9478L39.627 24.2711Z" fill="#0036C1"/>
<path d="M39.627 42.3038L55.4909 36.9857V27.9692L39.627 33.2873V42.3038Z" fill="white"/>
<path d="M33.8133 52.9876C33.8133 52.9876 33.8291 52.9929 33.8343 52.9982C33.8448 52.9982 33.8553 52.9982 33.8658 53.0087C33.808 52.9876 33.7502 52.956 33.6924 52.9243C33.7344 52.9507 33.7712 52.9718 33.8133 52.9929V52.9876Z" fill="#0036C1"/>
<path d="M34.0552 53.0613C34.0552 53.0613 34.0763 53.0613 34.0868 53.0613C34.029 53.0507 33.9764 53.0349 33.9238 53.019C33.9659 53.0349 34.0132 53.0507 34.0552 53.056V53.0613Z" fill="#0036C1"/>
<path d="M33.6032 52.8664C33.6032 52.8664 33.6242 52.8822 33.6347 52.8875C33.6452 52.8927 33.6557 52.898 33.6663 52.9033C33.6032 52.8611 33.5506 52.8189 33.498 52.7661C33.5348 52.7978 33.5664 52.8347 33.6032 52.8664Z" fill="#0036C1"/>
<path d="M33.1932 52.1489C33.1932 52.1859 33.1985 52.2228 33.209 52.2597C33.209 52.2703 33.209 52.2808 33.2143 52.2914C33.2563 52.4496 33.3299 52.5921 33.435 52.7134C33.435 52.7134 33.4403 52.7187 33.4403 52.724C33.4561 52.7398 33.4718 52.7557 33.4876 52.7715C33.3299 52.6079 33.2195 52.3969 33.188 52.1489H33.1932Z" fill="#0036C1"/>
<path d="M34.5649 53.0193C34.5649 53.0193 34.5491 53.0193 34.5386 53.0193C34.5491 53.0193 34.5543 53.0193 34.5649 53.0193L55.4908 46.0023V36.9858L39.6268 42.3039V51.3152L34.5649 53.0193Z" fill="#0036C1"/>
<path d="M39.6269 24.2709V24.2656L37.5611 24.962L36.8462 25.1995V25.2047L39.6269 24.2709Z" fill="white"/>
<g style="mix-blend-mode:multiply" opacity="0.36">
<path d="M39.6269 24.2709V24.2656L37.5611 24.962L36.8462 25.1995V25.2047L39.6269 24.2709Z" fill="#0036C1"/>
</g>
<path d="M36.8462 29.9584V30.0323V30.3699V34.2213L39.6269 33.2875V24.271L36.8462 25.2048V29.9584Z" fill="#0036C1"/>
<g style="mix-blend-mode:multiply" opacity="0.36">
<path d="M36.8462 29.9584V30.0323V30.3699V34.2213L39.6269 33.2875V24.271L36.8462 25.2048V29.9584Z" fill="#0036C1"/>
</g>
<path d="M36.8462 34.2214V37.4872V38.9486V38.975V39.4868V43.2379L39.6269 42.3041V33.2876L36.8462 34.2214Z" fill="white"/>
<g style="mix-blend-mode:multiply" opacity="0.36">
<path d="M36.8462 34.2214V37.4872V38.9486V38.975V39.4868V43.2379L39.6269 42.3041V33.2876L36.8462 34.2214Z" fill="#0036C1"/>
</g>
<path d="M35.6743 46.915C36.2052 46.8042 36.7677 46.9414 36.8465 47.8172C36.8465 47.8172 36.8675 46.6565 35.6743 46.915Z" fill="#0036C1"/>
<g style="mix-blend-mode:multiply" opacity="0.36">
<path d="M35.6743 46.915C36.2052 46.8042 36.7677 46.9414 36.8465 47.8172C36.8465 47.8172 36.8675 46.6565 35.6743 46.915Z" fill="#0036C1"/>
</g>
<path d="M36.8466 46.5087V47.8171C36.8466 47.8171 36.9202 48.4291 36.4051 48.8459C35.8847 49.2574 34.3708 50.7663 33.9871 51.1251C33.6297 51.4628 33.1829 51.7635 33.1986 52.1486C33.2302 52.3913 33.3406 52.6076 33.4983 52.7712C33.5508 52.8239 33.6087 52.8714 33.6665 52.9083C33.677 52.9136 33.6822 52.9189 33.6928 52.9242C33.7453 52.9558 33.8031 52.9875 33.8662 53.0086C33.8872 53.0139 33.9083 53.0191 33.924 53.0244C33.9766 53.0402 34.0292 53.0561 34.087 53.0666C34.1185 53.0666 34.1448 53.0666 34.1763 53.0666C34.2079 53.0666 34.2447 53.0666 34.2762 53.0666C34.3656 53.0666 34.4549 53.0508 34.5443 53.0244C34.5548 53.0244 34.5601 53.0244 34.5706 53.0244L39.6326 51.3203V42.3091L36.8466 43.2429V46.5087Z" fill="#0036C1"/>
<g style="mix-blend-mode:multiply" opacity="0.36">
<path d="M36.8466 46.5087V47.8171C36.8466 47.8171 36.9202 48.4291 36.4051 48.8459C35.8847 49.2574 34.3708 50.7663 33.9871 51.1251C33.6297 51.4628 33.1829 51.7635 33.1986 52.1486C33.2302 52.3913 33.3406 52.6076 33.4983 52.7712C33.5508 52.8239 33.6087 52.8714 33.6665 52.9083C33.677 52.9136 33.6822 52.9189 33.6928 52.9242C33.7453 52.9558 33.8031 52.9875 33.8662 53.0086C33.8872 53.0139 33.9083 53.0191 33.924 53.0244C33.9766 53.0402 34.0292 53.0561 34.087 53.0666C34.1185 53.0666 34.1448 53.0666 34.1763 53.0666C34.2079 53.0666 34.2447 53.0666 34.2762 53.0666C34.3656 53.0666 34.4549 53.0508 34.5443 53.0244C34.5548 53.0244 34.5601 53.0244 34.5706 53.0244L39.6326 51.3203V42.3091L36.8466 43.2429V46.5087Z" fill="#0036C1"/>
</g>
<path d="M34.9276 47.1527C35.1536 47.0789 35.3324 47.0155 35.4217 46.9839H35.4007C35.3166 47.0208 35.1536 47.0736 34.9224 47.1527H34.9276Z" fill="#0036C1"/>
<g style="mix-blend-mode:multiply" opacity="0.36">
<path d="M34.9276 47.1527C35.1536 47.0789 35.3324 47.0155 35.4217 46.9839H35.4007C35.3166 47.0208 35.1536 47.0736 34.9224 47.1527H34.9276Z" fill="#0036C1"/>
</g>
<path d="M36.8465 29.9585V25.205V20.942C36.8465 20.8576 36.836 20.7785 36.815 20.6993C36.8097 20.673 36.7992 20.6519 36.7939 20.6255C36.7782 20.5727 36.7624 20.5252 36.7361 20.4778C36.7256 20.4514 36.7098 20.425 36.6941 20.4039C36.6678 20.3617 36.6415 20.3195 36.61 20.2825C36.5942 20.2614 36.5732 20.2403 36.5574 20.2192C36.5206 20.1823 36.4838 20.1454 36.4418 20.1137C36.4207 20.0979 36.405 20.0821 36.3839 20.0662C36.3261 20.024 36.263 19.9924 36.2 19.9607C36.2 19.9607 36.1894 19.9554 36.1842 19.9554C36.1159 19.9238 36.0423 19.908 35.9634 19.8921C35.9424 19.8921 35.9161 19.8921 35.8898 19.8869C35.8425 19.8816 35.79 19.8763 35.7426 19.8816C35.6428 19.8816 35.5376 19.8974 35.4378 19.9343L13.1504 27.3945V36.411L35.443 28.9403C36.1316 28.7082 36.8465 29.2252 36.8465 29.9533V29.9585Z" fill="#0036C1"/>
<path d="M36.8465 38.9748V29.9583C36.8465 29.2302 36.1316 28.7132 35.443 28.9453L13.1504 36.4107V45.4272H13.1609L35.443 37.9565C36.1316 37.7244 36.8465 38.2414 36.8465 38.9695V38.9748Z" fill="white"/>
<path d="M34.9278 47.1527C35.1591 47.0736 35.322 47.0208 35.4061 46.9944H35.4271V46.9891C35.506 46.9628 35.5901 46.9364 35.6742 46.9206C36.8674 46.662 36.8464 47.8227 36.8464 47.8227V43.2485V38.9856C36.8464 38.2575 36.1315 37.7405 35.4429 37.9726L13.1555 45.4275H13.145V54.4493C13.145 54.4493 13.2028 54.4282 13.2817 54.4018C14.3645 54.0377 22.2807 51.3892 28.3572 49.3527C28.3625 49.3527 28.373 49.3527 28.3782 49.3475C29.1614 49.0837 29.9184 48.8304 30.6227 48.593C30.791 48.535 30.9539 48.4822 31.1168 48.4242C31.7371 48.2184 32.3153 48.0232 32.8305 47.8491C32.9251 47.8175 33.0197 47.7858 33.109 47.7541C33.1248 47.7489 33.1458 47.7436 33.1616 47.7383V47.7225C33.1616 47.7225 34.2339 47.3743 34.9173 47.1527H34.9278Z" fill="#0036C1"/>
<path d="M33.9814 51.1254C34.3651 50.7667 35.879 49.2578 36.3994 48.8462C36.9197 48.4347 36.8409 47.8174 36.8409 47.8174C36.7673 46.9416 36.1996 46.8045 35.6687 46.9153C35.5846 46.9311 35.5005 46.9575 35.4217 46.9838C35.3323 47.0155 35.1483 47.0735 34.9275 47.1527C34.2442 47.3795 33.1719 47.7225 33.1719 47.7225V47.7489C33.1719 47.9071 33.1719 48.7249 33.1719 49.5585C33.1719 49.5849 33.1719 49.6112 33.1719 49.6429C33.1719 49.6746 33.1719 49.7115 33.1719 49.7431C33.1719 49.8012 33.1719 49.8645 33.1719 49.9225C33.1719 49.9964 33.1719 50.0702 33.1719 50.1441C33.1719 50.1547 33.1719 50.1599 33.1719 50.1705C33.1719 50.3499 33.1719 50.524 33.1719 50.6822V50.6875C33.1719 50.8458 33.1719 50.9935 33.1719 51.1149C33.1666 51.6161 33.1719 51.8904 33.1877 52.0434C33.1982 52.1964 33.2139 52.2228 33.2139 52.2228C33.2139 52.2175 33.2139 52.2123 33.2139 52.207C33.2139 52.1859 33.2139 52.1648 33.2139 52.1384C33.1982 51.7533 33.645 51.4525 34.0024 51.1149L33.9814 51.1254Z" fill="#4565AD"/>
<path d="M92.0101 25.8157H86.8591L85.8576 29.2769H81.7764L87.0704 13.5244H91.9692L97.2632 29.2769H93.0048L92.0101 25.8157ZM87.6359 22.9337H91.2265L89.4823 16.863H89.3937L87.6359 22.9337Z" fill="#0036C1"/>
<path d="M105.16 13.5244C109.923 13.5244 112.716 16.2838 112.716 21.3053C112.716 26.3267 109.909 29.2769 105.16 29.2769H98.7622V13.5244H105.16ZM102.768 26.0474H104.635C107.245 26.0474 108.642 24.4667 108.642 21.3189C108.642 18.3619 107.17 16.754 104.635 16.754H102.768V26.0406V26.0474Z" fill="#0036C1"/>
<path d="M129.777 21.4076C129.777 26.429 126.772 29.5495 122.003 29.5495C117.233 29.5495 114.222 26.429 114.222 21.4076C114.222 16.3861 117.233 13.252 122.003 13.252C126.772 13.252 129.777 16.3861 129.777 21.4076ZM118.303 21.4076C118.303 24.3986 119.754 26.2996 122.003 26.2996C124.251 26.2996 125.702 24.3986 125.702 21.4076C125.702 18.4165 124.237 16.5087 122.003 16.5087C119.768 16.5087 118.303 18.4097 118.303 21.4076Z" fill="#0036C1"/>
<path d="M138.552 13.5244C141.938 13.5244 144.228 15.7183 144.228 19.1046C144.228 22.4908 141.816 24.6643 138.314 24.6643H135.738V29.2837H131.732V13.5312H138.552V13.5244ZM135.738 21.646H137.476C139.179 21.646 140.181 20.7602 140.181 19.1114C140.181 17.4625 139.179 16.5904 137.496 16.5904H135.738V21.646Z" fill="#0036C1"/>
<path d="M149.658 29.2769V16.754H145.311V13.5244H157.998V16.754H153.651V29.2769H149.658Z" fill="#0036C1"/>
<path d="M159.694 29.2769V13.5244H163.7V29.2769H159.694Z" fill="#0036C1"/>
<path d="M166.079 29.2769V13.5244H169.274L175.951 22.6816H176.04V13.5244H179.842V29.2769H176.673L169.962 20.0312H169.874V29.2769H166.072H166.079Z" fill="#0036C1"/>
<path d="M189.571 29.5495C184.713 29.5495 181.79 26.5448 181.79 21.3735C181.79 16.2021 184.713 13.252 189.476 13.252C193.298 13.252 196.159 15.514 196.561 18.7231H192.596C192.201 17.3263 191.022 16.4747 189.482 16.4747C187.213 16.4747 185.871 18.253 185.871 21.319C185.871 24.385 187.357 26.3268 189.659 26.3268C191.472 26.3268 192.739 25.2571 192.848 23.6764L192.862 23.4379H189.98V20.6853H196.725V22.6203C196.725 26.9196 194.061 29.5495 189.578 29.5495H189.571Z" fill="#0036C1"/>
<path d="M93.4344 49.2882H82.6353V33.5356H93.4344V36.7652H86.6483V39.8993H93.0325V42.8495H86.6483V46.0586H93.4344V49.2882Z" fill="#0036C1"/>
<path d="M106.216 49.2882H95.6895V33.5356H99.6957V46.0586H106.209V49.2882H106.216Z" fill="#0036C1"/>
<path d="M115.693 44.7296C115.837 45.8129 117.049 46.5284 118.535 46.5284C120.095 46.5284 121.11 45.8266 121.11 44.8795C121.11 44.0074 120.442 43.5782 118.65 43.2102L116.586 42.8083C113.684 42.2496 112.185 40.6825 112.185 38.291C112.185 35.2318 114.808 33.2695 118.453 33.2695C122.391 33.2695 124.721 35.1773 124.762 38.1411H121.069C120.994 36.9964 119.931 36.3083 118.494 36.3083C117.056 36.3083 116.17 36.9419 116.17 37.9026C116.17 38.7543 116.872 39.2244 118.521 39.5651L120.565 39.9466C123.679 40.5462 125.075 41.9566 125.075 44.4435C125.075 47.5776 122.486 49.5739 118.426 49.5739C114.365 49.5739 111.932 47.7956 111.885 44.7364H115.693V44.7296Z" fill="#0036C1"/>
<path d="M135.813 45.8338H130.662L129.661 49.295H125.58L130.874 33.5425H135.772L141.066 49.295H136.808L135.813 45.8338ZM131.432 42.9517H135.023L133.279 36.881H133.19L131.432 42.9517Z" fill="#0036C1"/>
<path d="M153.092 49.2882H142.572V33.5356H146.579V46.0586H153.092V49.2882Z" fill="#0036C1"/>
<path d="M157.759 49.2882L152.738 33.5356H157.289L160.321 45.3705H160.41L163.435 33.5356H167.823L162.801 49.2882H157.759Z" fill="#0036C1"/>
<path d="M176.864 45.8338H171.713L170.712 49.295H166.63L171.924 33.5425H176.823L182.117 49.295H177.859L176.864 45.8338ZM172.49 42.9517H176.081L174.336 36.881H174.248L172.49 42.9517Z" fill="#0036C1"/>
<path d="M190.013 33.5425C194.776 33.5425 197.57 36.3019 197.57 41.3234C197.57 46.3448 194.762 49.295 190.013 49.295H183.616V33.5425H190.013ZM187.622 46.0655H189.489C192.098 46.0655 193.495 44.4848 193.495 41.337C193.495 38.38 192.023 36.772 189.489 36.772H187.622V46.0586V46.0655Z" fill="#0036C1"/>
<path d="M214.63 41.4183C214.63 46.4398 211.625 49.5603 206.856 49.5603C202.087 49.5603 199.075 46.4398 199.075 41.4183C199.075 36.3968 202.087 33.2627 206.856 33.2627C211.625 33.2627 214.63 36.3968 214.63 41.4183ZM203.156 41.4183C203.156 44.4094 204.608 46.3103 206.856 46.3103C209.104 46.3103 210.556 44.4094 210.556 41.4183C210.556 38.4272 209.091 36.5195 206.856 36.5195C204.621 36.5195 203.156 38.4204 203.156 41.4183Z" fill="#0036C1"/>
<path d="M220.592 49.2882H216.586V33.5356H223.331C227.262 33.5356 229.381 35.4775 229.381 38.7342C229.381 40.6692 228.407 42.4339 226.683 43.1902L229.838 49.295H225.341L222.636 43.783H220.592V49.295V49.2882ZM220.592 41.0372H222.943C224.414 41.0372 225.287 40.1719 225.287 38.8092C225.287 37.4465 224.36 36.5608 222.929 36.5608H220.592V41.0372Z" fill="#0036C1"/>
<path d="M226.92 61.2711C227.674 61.2711 228.297 60.7786 228.297 60.0902V59.6273L226.956 59.7104C226.309 59.7579 225.941 60.0486 225.941 60.4997C225.941 60.9744 226.333 61.2711 226.92 61.2711ZM226.351 62.5232C225.14 62.5232 224.22 61.7399 224.22 60.5946C224.22 59.4374 225.11 58.7668 226.695 58.6719L228.297 58.5769V58.1556C228.297 57.5622 227.882 57.218 227.229 57.218C226.582 57.218 226.173 57.5384 226.09 58.0073H224.505C224.57 56.7729 225.621 55.9243 227.306 55.9243C228.938 55.9243 230 56.767 230 58.0488V62.4224H228.327V61.4491H228.291C227.935 62.1256 227.146 62.5232 226.351 62.5232Z" fill="#0036C1"/>
<path d="M218.09 57.9301C218.09 56.7195 219.14 55.9243 220.772 55.9243C222.369 55.9243 223.407 56.7314 223.431 57.9657H221.834C221.799 57.4554 221.389 57.1408 220.748 57.1408C220.149 57.1408 219.757 57.4138 219.757 57.8233C219.757 58.1378 220.03 58.3514 220.588 58.482L221.805 58.7431C223.081 59.0279 223.597 59.5324 223.597 60.4819C223.597 61.734 222.446 62.5589 220.766 62.5589C219.069 62.5589 218.025 61.7399 217.93 60.4997H219.621C219.704 61.0337 220.125 61.3423 220.814 61.3423C221.472 61.3423 221.87 61.0812 221.87 60.6658C221.87 60.3454 221.656 60.1673 221.087 60.0308L219.912 59.7697C218.707 59.4968 218.09 58.8677 218.09 57.9301Z" fill="#0036C1"/>
<path d="M215.306 62.4228V56.0612H217.039V62.4228H215.306ZM216.173 55.361C215.651 55.361 215.247 54.9634 215.247 54.4649C215.247 53.9605 215.651 53.5688 216.173 53.5688C216.695 53.5688 217.099 53.9605 217.099 54.4649C217.099 54.9634 216.695 55.361 216.173 55.361Z" fill="#0036C1"/>
<path d="M211.764 62.4226H209.604L206.726 53.8594H208.732L210.69 60.577H210.732L212.69 53.8594H214.642L211.764 62.4226Z" fill="#0036C1"/>
<path d="M194.222 62.4226V56.0611H195.896V57.2123H195.931C196.198 56.4468 196.881 55.9424 197.747 55.9424C198.667 55.9424 199.308 56.4171 199.521 57.2479H199.557C199.842 56.4468 200.602 55.9424 201.533 55.9424C202.779 55.9424 203.616 56.7969 203.616 58.0787V62.4226H201.883V58.5119C201.883 57.7761 201.515 57.3725 200.845 57.3725C200.186 57.3725 199.753 57.8532 199.753 58.5594V62.4226H198.085V58.4585C198.085 57.7761 197.7 57.3725 197.059 57.3725C196.4 57.3725 195.955 57.871 195.955 58.5831V62.4226H194.222Z" fill="#0036C1"/>
<path d="M190.175 62.5589C188.252 62.5589 187.024 61.3245 187.024 59.2356C187.024 57.1765 188.27 55.9243 190.175 55.9243C192.08 55.9243 193.326 57.1705 193.326 59.2356C193.326 61.3305 192.098 62.5589 190.175 62.5589ZM190.175 61.2355C191.024 61.2355 191.564 60.5175 191.564 59.2416C191.564 57.9776 191.018 57.2477 190.175 57.2477C189.332 57.2477 188.78 57.9776 188.78 59.2416C188.78 60.5175 189.32 61.2355 190.175 61.2355Z" fill="#0036C1"/>
<path d="M182.377 62.5234C180.787 62.5234 179.784 61.2654 179.784 59.2299C179.784 57.2122 180.793 55.9601 182.389 55.9601C183.309 55.9601 184.021 56.4467 184.33 57.1529H184.365V53.8594H186.098V62.4226H184.389V61.3306H184.36C184.051 62.0309 183.315 62.5234 182.377 62.5234ZM182.965 57.3487C182.093 57.3487 181.559 58.0787 181.559 59.2418C181.559 60.4108 182.093 61.1289 182.965 61.1289C183.825 61.1289 184.377 60.4049 184.377 59.2418C184.377 58.0846 183.825 57.3487 182.965 57.3487Z" fill="#0036C1"/>
<path d="M176.117 57.2061C175.357 57.2061 174.811 57.7817 174.752 58.5769H177.452C177.416 57.7639 176.888 57.2061 176.117 57.2061ZM177.476 60.4759H179.066C178.876 61.7221 177.737 62.5589 176.164 62.5589C174.206 62.5589 173.031 61.3067 173.031 59.2713C173.031 57.2417 174.218 55.9243 176.099 55.9243C177.95 55.9243 179.119 57.1765 179.119 59.111V59.6392H174.734V59.746C174.734 60.6539 175.31 61.277 176.194 61.277C176.829 61.277 177.315 60.9625 177.476 60.4759Z" fill="#0036C1"/>
<path d="M169.363 57.2061C168.604 57.2061 168.058 57.7817 167.998 58.5769H170.698C170.663 57.7639 170.135 57.2061 169.363 57.2061ZM170.722 60.4759H172.313C172.123 61.7221 170.983 62.5589 169.411 62.5589C167.452 62.5589 166.277 61.3067 166.277 59.2713C166.277 57.2417 167.464 55.9243 169.345 55.9243C171.197 55.9243 172.366 57.1765 172.366 59.111V59.6392H167.98V59.746C167.98 60.6539 168.556 61.277 169.44 61.277C170.075 61.277 170.562 60.9625 170.722 60.4759Z" fill="#0036C1"/>
<path d="M162.296 62.4229V56.0613H163.969V57.2066H164.005C164.23 56.3996 164.77 55.9604 165.518 55.9604C165.72 55.9604 165.892 55.9901 166.011 56.0257V57.5508C165.868 57.4915 165.631 57.45 165.382 57.45C164.527 57.45 164.029 57.9722 164.029 58.8683V62.4229H162.296Z" fill="#0036C1"/>
<path d="M157.566 62.4226H155.774V53.8594H161.382V55.337H157.566V57.6336H161.05V59.0519H157.566V62.4226Z" fill="#0036C1"/>
<path d="M149.318 57.2061C148.558 57.2061 148.012 57.7817 147.953 58.5769H150.653C150.617 57.7639 150.089 57.2061 149.318 57.2061ZM150.677 60.4759H152.267C152.077 61.7221 150.938 62.5589 149.365 62.5589C147.407 62.5589 146.232 61.3067 146.232 59.2713C146.232 57.2417 147.419 55.9243 149.3 55.9243C151.151 55.9243 152.321 57.1765 152.321 59.111V59.6392H147.935V59.746C147.935 60.6539 148.511 61.277 149.395 61.277C150.03 61.277 150.516 60.9625 150.677 60.4759Z" fill="#0036C1"/>
<path d="M139.396 62.4226V53.8594H141.099V57.1944H141.134C141.473 56.3933 142.167 55.9423 143.134 55.9423C144.546 55.9423 145.354 56.8562 145.354 58.3279V62.4226H143.621V58.6958C143.621 57.8769 143.217 57.3784 142.428 57.3784C141.609 57.3784 141.128 57.954 141.128 58.7908V62.4226H139.396Z" fill="#0036C1"/>
<path d="M135.496 54.5952H137.229V56.061H138.404V57.3665H137.229V60.4108C137.229 60.8974 137.466 61.1289 137.977 61.1289C138.131 61.1289 138.291 61.117 138.398 61.0992V62.3751C138.22 62.4166 137.923 62.4463 137.573 62.4463C136.078 62.4463 135.496 61.9478 135.496 60.7075V57.3665H134.6V56.061H135.496V54.5952Z" fill="#0036C1"/>
<path d="M128.197 62.4229V56.0613H129.871V57.2066H129.906C130.132 56.3996 130.672 55.9604 131.42 55.9604C131.621 55.9604 131.793 55.9901 131.912 56.0257V57.5508C131.77 57.4915 131.532 57.45 131.283 57.45C130.429 57.45 129.93 57.9722 129.93 58.8683V62.4229H128.197Z" fill="#0036C1"/>
<path d="M124.15 62.5589C122.227 62.5589 120.999 61.3245 120.999 59.2356C120.999 57.1765 122.245 55.9243 124.15 55.9243C126.055 55.9243 127.301 57.1705 127.301 59.2356C127.301 61.3305 126.073 62.5589 124.15 62.5589ZM124.15 61.2355C124.999 61.2355 125.539 60.5175 125.539 59.2416C125.539 57.9776 124.993 57.2477 124.15 57.2477C123.307 57.2477 122.756 57.9776 122.756 59.2416C122.756 60.5175 123.296 61.2355 124.15 61.2355Z" fill="#0036C1"/>
<path d="M117.54 62.4226V57.3665H116.673V56.0907H117.54V55.61C117.54 54.3638 118.127 53.7822 119.635 53.7822C119.955 53.7822 120.317 53.8178 120.519 53.8594V55.0047C120.394 54.981 120.222 54.9691 120.05 54.9691C119.48 54.9691 119.231 55.2183 119.231 55.6693V56.0907H120.495V57.3665H119.273V62.4226H117.54Z" fill="#0036C1"/>
<path d="M108.881 64.7785C108.821 64.7785 108.281 64.7726 108.228 64.7607V63.4255C108.281 63.4374 108.596 63.4374 108.661 63.4374C109.296 63.4374 109.611 63.2356 109.729 62.7312C109.729 62.7074 109.795 62.4523 109.783 62.4285L107.569 56.061H109.474L110.827 61.034H110.857L112.21 56.061H114.038L111.848 62.565C111.302 64.1969 110.507 64.7785 108.881 64.7785Z" fill="#0036C1"/>
<path d="M105.166 62.4226V53.8594H106.899V62.4226H105.166Z" fill="#0036C1"/>
<path d="M101.624 55.9604C103.238 55.9604 104.229 57.1888 104.229 59.2421C104.229 61.2894 103.244 62.5238 101.653 62.5238C100.727 62.5238 100.015 62.0728 99.6771 61.3547H99.6415V64.4999H97.9087V56.0613H99.6178V57.171H99.6534C99.9976 56.4233 100.704 55.9604 101.624 55.9604ZM101.042 61.1292C101.908 61.1292 102.454 60.3993 102.454 59.2421C102.454 58.0909 101.908 57.3491 101.042 57.3491C100.193 57.3491 99.6356 58.1027 99.6356 59.2421C99.6356 60.3934 100.193 61.1292 101.042 61.1292Z" fill="#0036C1"/>
<path d="M94.4077 55.9604C96.0219 55.9604 97.0129 57.1888 97.0129 59.2421C97.0129 61.2894 96.0278 62.5238 94.4374 62.5238C93.5117 62.5238 92.7995 62.0728 92.4613 61.3547H92.4257V64.4999H90.6929V56.0613H92.4019V57.171H92.4376C92.7817 56.4233 93.4879 55.9604 94.4077 55.9604ZM93.8262 61.1292C94.6926 61.1292 95.2385 60.3993 95.2385 59.2421C95.2385 58.0909 94.6926 57.3491 93.8262 57.3491C92.9776 57.3491 92.4197 58.1027 92.4197 59.2421C92.4197 60.3934 92.9776 61.1292 93.8262 61.1292Z" fill="#0036C1"/>
<path d="M88.0577 62.4226L87.4049 60.3456H84.3962L83.7434 62.4226H81.9038L84.8769 53.8594H86.9836L89.9626 62.4226H88.0577ZM85.8798 55.4972L84.7819 59.0044H87.0192L85.9213 55.4972H85.8798Z" fill="#0036C1"/>
<path d="M48.9783 64.2959L49.8702 66.0461L51.8714 66.3024L50.4474 67.6938L50.7621 69.5978L48.9708 68.6678L47.1796 69.5978L47.4943 67.6938L46.0703 66.3024L48.0715 66.0461L48.9634 64.2959H48.9783Z" fill="#0036C1"/>
<path d="M34.595 67.5083L35.4869 69.2585L37.4881 69.5148L36.064 70.9062L36.3788 72.8102L34.5875 71.8802L32.7963 72.8102L33.111 70.9062L31.687 69.5148L33.6882 69.2585L34.5801 67.5083H34.595Z" fill="#0036C1"/>
<path d="M20.431 64.2959L21.3229 66.0461L23.324 66.3024L21.9 67.6938L22.2148 69.5978L20.4235 68.6678L18.6322 69.5978L18.947 67.6938L17.5229 66.3024L19.5241 66.0461L20.416 64.2959H20.431Z" fill="#0036C1"/>
<path d="M34.5726 0.702637L35.4645 2.44553L37.4581 2.70184L36.0416 4.0859L36.3563 5.98257L34.5726 5.05987L32.7888 5.98257L33.1036 4.0859L31.687 2.70184L33.6807 2.44553L34.5726 0.702637Z" fill="#0036C1"/>
<path d="M49.0291 4.49951L49.921 6.2424L51.9146 6.49871L50.4981 7.88277L50.8129 9.77945L49.0291 8.85674L47.2453 9.77945L47.5601 7.88277L46.1436 6.49871L48.1372 6.2424L49.0291 4.49951Z" fill="#0036C1"/>
<path d="M9.23759 13.5532L10.1295 15.2961L12.1231 15.5524L10.7066 16.9365L11.0214 18.8332L9.23759 17.9617L7.4538 18.8844L7.76859 16.9877L6.35205 15.6037L8.3457 15.3474L9.23759 13.5532Z" fill="#0036C1"/>
<path d="M59.9808 13.5532L60.8727 15.2961L62.8663 15.5524L61.4498 16.9365L61.7646 18.8332L59.9808 17.9617L58.197 18.8844L58.5118 16.9877L57.0952 15.6037L59.0889 15.3474L59.9808 13.5532Z" fill="#0036C1"/>
<path d="M66.1863 26.7681L67.0782 28.511L69.0719 28.7673L67.6553 30.1513L67.9701 32.048L66.1863 31.1766L64.4025 32.0993L64.7173 30.2026L63.3008 28.8185L65.2944 28.5622L66.1863 26.7681Z" fill="#0036C1"/>
<path d="M2.88554 26.6948L3.77744 28.4377L5.77109 28.694L4.35455 30.0781L4.66934 31.9748L2.88554 31.1033L1.10175 32.026L1.41654 30.1293L0 28.7453L1.99365 28.489L2.88554 26.6948Z" fill="#0036C1"/>
<path d="M2.88554 42.0273L3.77744 43.7702L5.77109 44.0265L4.35455 45.4106L4.66934 47.3073L2.88554 46.4358L1.10175 47.3585L1.41654 45.4619L0 44.0778L1.99365 43.8215L2.88554 42.0273Z" fill="#0036C1"/>
<path d="M66.4783 42.0273L67.3702 43.7702L69.3639 44.0265L67.9473 45.4106L68.2621 47.3073L66.4783 46.4358L64.6945 47.3585L65.0093 45.4619L63.5928 44.0778L65.5864 43.8215L66.4783 42.0273Z" fill="#0036C1"/>
<path d="M9.23759 55.0962L10.1295 56.8391L12.1231 57.0954L10.7066 58.4795L11.0214 60.3761L9.23759 59.5047L7.4538 60.4274L7.76859 58.5307L6.35205 57.1467L8.3457 56.8903L9.23759 55.0962Z" fill="#0036C1"/>
<path d="M59.9808 55.0962L60.8727 56.8391L62.8663 57.0954L61.4498 58.4795L61.7646 60.3761L59.9808 59.5047L58.197 60.4274L58.5118 58.5307L57.0952 57.1467L59.0889 56.8903L59.9808 55.0962Z" fill="#0036C1"/>
<path d="M20.4085 4.49951L21.3004 6.2424L23.294 6.49871L21.8775 7.88277L22.1923 9.77945L20.4085 8.85674L18.6247 9.77945L18.9395 7.88277L17.5229 6.49871L19.5166 6.2424L20.4085 4.49951Z" fill="#0036C1"/>
</svg>
