<svg width="58" height="58" viewBox="0 0 58 58" fill="none" xmlns="http://www.w3.org/2000/svg">
<circle cx="29" cy="29" r="29" fill="#0042A8"/>
<path d="M50 29.5C50 40.8222 40.8222 50 29.5 50C18.1783 50 9 40.8222 9 29.5C9 18.1781 18.1783 9 29.5 9C40.8222 9 50 18.1781 50 29.5Z" fill="#1BA27A"/>
<path d="M39.1214 19.3373H19.71V24.0236H27.0725V30.9116H31.7588V24.0236H39.1214V19.3373Z" fill="white"/>
<path d="M29.4604 31.6453C23.3698 31.6453 18.432 30.6814 18.432 29.4922C18.432 28.3032 23.3696 27.3391 29.4604 27.3391C35.5509 27.3391 40.4886 28.3032 40.4886 29.4922C40.4886 30.6814 35.5509 31.6453 29.4604 31.6453ZM41.8434 29.8511C41.8434 28.3177 36.2994 27.0748 29.4604 27.0748C22.6216 27.0748 17.0771 28.3177 17.0771 29.8511C17.0771 31.2015 21.3762 32.3265 27.0729 32.5758V42.4638H31.7588V32.5797C37.4995 32.3382 41.8434 31.2085 41.8434 29.8511Z" fill="white"/>
</svg>
