<svg width="1626" height="1446" viewBox="0 0 1626 1446" fill="none" xmlns="http://www.w3.org/2000/svg">
<g opacity="0.08">
<path d="M647.028 1349.08C636.412 1287.86 574.686 1155.62 412.713 1116.43C250.739 1077.25 158.173 922.826 132.137 850.514" stroke="#1A63F1" stroke-opacity="0.3" stroke-width="5.05476"/>
<path d="M663.874 1344.79C655.977 1283.16 600.161 1148.32 440.08 1102.01C279.998 1055.69 194.353 897.328 171.541 823.935" stroke="#1A63F1" stroke-opacity="0.3" stroke-width="5.05476"/>
<path d="M680.017 1340.65C674.854 1278.73 625.057 1141.56 467.181 1088.21C309.304 1034.86 230.748 872.862 211.205 798.531" stroke="#1A63F1" stroke-opacity="0.3" stroke-width="5.05476"/>
<path d="M695.448 1336.64C693.028 1274.56 649.348 1135.31 493.986 1075.03C338.624 1014.75 267.311 849.437 251.074 774.314" stroke="#1A63F1" stroke-opacity="0.3" stroke-width="5.05476"/>
<path d="M710.166 1332.72C710.495 1270.59 673.017 1129.55 520.473 1062.46C367.929 995.362 303.998 827.055 291.1 751.288" stroke="#1A63F1" stroke-opacity="0.3" stroke-width="5.05476"/>
<path d="M724.163 1328.86C727.24 1266.81 696.037 1124.25 546.611 1050.47C397.184 976.697 340.76 805.726 331.227 729.463" stroke="#1A63F1" stroke-opacity="0.3" stroke-width="5.05476"/>
<path d="M737.442 1325.04C743.261 1263.17 718.395 1119.37 572.378 1039.06C426.361 958.748 377.555 785.45 371.404 708.839" stroke="#1A63F1" stroke-opacity="0.3" stroke-width="5.05476"/>
<path d="M750 1321.2C758.55 1259.66 740.069 1114.9 597.747 1028.21C455.425 941.516 414.333 766.228 411.577 689.42" stroke="#1A63F1" stroke-opacity="0.3" stroke-width="5.05476"/>
<path d="M761.836 1317.34C773.099 1256.23 761.04 1110.8 622.692 1017.89C484.344 924.992 451.046 748.058 451.69 671.203" stroke="#1A63F1" stroke-opacity="0.3" stroke-width="5.05476"/>
<path d="M772.956 1313.41C786.911 1252.86 781.296 1107.03 647.194 1008.1C513.091 909.17 487.651 730.936 491.694 654.185" stroke="#1A63F1" stroke-opacity="0.3" stroke-width="5.05476"/>
<path d="M783.359 1309.38C799.979 1249.51 800.82 1103.57 671.225 998.807C541.629 894.04 524.098 714.856 531.532 638.359" stroke="#1A63F1" stroke-opacity="0.3" stroke-width="5.05476"/>
<path d="M793.056 1305.22C812.308 1246.14 819.603 1100.39 694.769 989.99C569.934 879.594 560.346 699.809 571.156 623.716" stroke="#1A63F1" stroke-opacity="0.3" stroke-width="5.05476"/>
<path d="M802.049 1300.9C823.896 1242.73 837.631 1097.44 717.802 981.632C597.973 865.822 596.347 685.789 610.512 610.248" stroke="#1A63F1" stroke-opacity="0.3" stroke-width="5.05476"/>
<path d="M810.346 1296.38C834.744 1239.24 854.892 1094.7 740.303 973.704C625.714 852.706 632.053 672.778 649.546 597.938" stroke="#1A63F1" stroke-opacity="0.3" stroke-width="5.05476"/>
<path d="M817.959 1291.65C844.86 1235.64 871.382 1092.14 762.257 966.188C653.132 840.24 667.424 660.768 688.21 586.776" stroke="#1A63F1" stroke-opacity="0.3" stroke-width="5.05476"/>
<path d="M824.896 1286.66C854.249 1231.9 887.092 1089.71 783.645 959.055C680.198 828.404 702.415 649.739 726.454 576.738" stroke="#1A63F1" stroke-opacity="0.3" stroke-width="5.05476"/>
<path d="M831.168 1281.39C862.914 1227.98 902.015 1087.38 804.449 952.281C706.882 817.182 736.98 639.675 764.224 567.809" stroke="#1A63F1" stroke-opacity="0.3" stroke-width="5.05476"/>
<path d="M836.793 1275.81C870.871 1223.86 916.153 1085.12 824.658 945.841C733.163 806.559 771.082 630.557 801.479 559.966" stroke="#1A63F1" stroke-opacity="0.3" stroke-width="5.05476"/>
<path d="M841.778 1269.89C878.121 1219.5 929.496 1082.9 844.251 939.709C759.006 796.515 804.674 622.363 838.163 553.186" stroke="#1A63F1" stroke-opacity="0.3" stroke-width="5.05476"/>
<path d="M846.146 1263.61C884.682 1214.86 942.048 1080.68 863.221 933.854C784.393 787.03 837.72 615.068 874.236 547.44" stroke="#1A63F1" stroke-opacity="0.3" stroke-width="5.05476"/>
<path d="M849.907 1256.92C890.562 1209.94 953.807 1078.42 881.552 928.25C809.296 778.083 870.177 608.649 909.649 542.702" stroke="#1A63F1" stroke-opacity="0.3" stroke-width="5.05476"/>
<path d="M853.083 1249.82C895.777 1204.68 964.778 1076.09 899.235 922.87C833.692 769.653 902.008 603.078 944.359 538.942" stroke="#1A63F1" stroke-opacity="0.3" stroke-width="5.05476"/>
<path d="M855.695 1242.27C900.343 1199.06 974.965 1073.65 916.264 917.682C857.563 761.717 933.18 598.326 978.326 536.126" stroke="#1A63F1" stroke-opacity="0.3" stroke-width="5.05476"/>
<path d="M857.759 1234.25C904.275 1193.06 984.371 1071.07 932.626 912.659C880.881 754.25 963.652 594.363 1011.5 534.221" stroke="#1A63F1" stroke-opacity="0.3" stroke-width="5.05476"/>
<path d="M859.302 1225.74C907.595 1186.64 993.008 1068.32 948.321 907.773C903.634 747.23 993.396 591.162 1043.86 533.195" stroke="#1A63F1" stroke-opacity="0.3" stroke-width="5.05476"/>
<path d="M860.339 1216.71C910.314 1179.79 1000.88 1065.35 963.336 902.991C925.794 740.628 1022.37 588.683 1075.35 533.006" stroke="#1A63F1" stroke-opacity="0.3" stroke-width="5.05476"/>
<path d="M860.901 1207.14C912.46 1172.46 1008 1062.15 977.674 898.282C947.35 734.418 1050.55 586.893 1105.95 533.614" stroke="#1A63F1" stroke-opacity="0.3" stroke-width="5.05476"/>
<path d="M861.002 1197.01C914.045 1164.65 1014.37 1058.67 991.323 893.62C968.277 728.575 1077.91 585.76 1135.6 534.983" stroke="#1A63F1" stroke-opacity="0.3" stroke-width="5.05476"/>
<path d="M860.681 1186.3C915.102 1156.32 1020.02 1054.87 1004.29 888.972C988.571 723.069 1104.41 585.242 1164.29 537.067" stroke="#1A63F1" stroke-opacity="0.3" stroke-width="5.05476"/>
<path d="M859.951 1174.99C915.646 1147.45 1024.94 1050.74 1016.58 884.309C1008.21 717.872 1130.03 585.305 1191.98 539.826" stroke="#1A63F1" stroke-opacity="0.3" stroke-width="5.05476"/>
<path d="M858.848 1163.07C915.707 1138.01 1029.17 1046.24 1028.18 879.599C1027.18 712.956 1154.74 585.907 1218.65 543.213" stroke="#1A63F1" stroke-opacity="0.3" stroke-width="5.05476"/>
<path d="M857.393 1150.52C915.305 1128 1032.72 1041.34 1039.09 874.815C1045.47 708.29 1178.53 587.008 1244.26 547.183" stroke="#1A63F1" stroke-opacity="0.3" stroke-width="5.05476"/>
<path d="M855.622 1137.32C914.473 1117.39 1035.61 1036 1049.34 869.924C1063.07 703.845 1201.37 588.567 1268.8 551.688" stroke="#1A63F1" stroke-opacity="0.3" stroke-width="5.05476"/>
<path d="M853.555 1123.46C913.23 1106.15 1037.85 1030.21 1058.91 864.897C1079.98 699.587 1223.24 590.54 1292.23 556.68" stroke="#1A63F1" stroke-opacity="0.3" stroke-width="5.05476"/>
<path d="M851.226 1108.93C911.608 1094.28 1039.46 1023.92 1067.82 859.704C1096.18 695.488 1244.12 592.884 1314.55 562.109" stroke="#1A63F1" stroke-opacity="0.3" stroke-width="5.05476"/>
<path d="M848.666 1093.72C909.637 1081.75 1040.48 1017.12 1076.07 854.318C1111.67 691.517 1264 595.557 1335.72 567.928" stroke="#1A63F1" stroke-opacity="0.3" stroke-width="5.05476"/>
<path d="M845.902 1077.82C907.343 1068.56 1040.91 1009.77 1083.67 848.706C1126.44 687.639 1282.87 598.512 1355.74 574.082" stroke="#1A63F1" stroke-opacity="0.3" stroke-width="5.05476"/>
<path d="M842.971 1061.21C904.762 1054.68 1040.8 1001.86 1090.65 842.844C1140.49 683.826 1300.71 601.706 1374.59 580.523" stroke="#1A63F1" stroke-opacity="0.3" stroke-width="5.05476"/>
<path d="M839.897 1043.9C901.915 1040.11 1040.16 993.361 1096.99 836.703C1153.82 680.046 1317.51 605.093 1392.26 587.198" stroke="#1A63F1" stroke-opacity="0.3" stroke-width="5.05476"/>
<path d="M836.715 1025.88C898.841 1024.83 1039.02 984.243 1102.72 830.252C1166.42 676.262 1333.27 608.623 1408.74 594.052" stroke="#1A63F1" stroke-opacity="0.3" stroke-width="5.05476"/>
<path d="M833.455 1007.14C895.566 1008.84 1037.4 974.491 1107.85 823.469C1178.3 672.447 1347.98 612.255 1424.02 601.036" stroke="#1A63F1" stroke-opacity="0.3" stroke-width="5.05476"/>
<path d="M830.153 987.677C892.128 992.126 1035.34 964.085 1112.41 816.327C1189.47 668.569 1361.65 615.941 1438.1 608.097" stroke="#1A63F1" stroke-opacity="0.3" stroke-width="5.05476"/>
<path d="M826.834 967.494C888.552 974.68 1032.87 953.001 1116.39 808.797C1199.91 664.592 1374.25 619.632 1450.98 615.177" stroke="#1A63F1" stroke-opacity="0.3" stroke-width="5.05476"/>
<path d="M823.534 946.591C884.874 956.5 1030.01 941.226 1119.83 800.857C1209.65 660.488 1385.8 623.283 1462.65 622.227" stroke="#1A63F1" stroke-opacity="0.3" stroke-width="5.05476"/>
<path d="M820.286 924.971C881.127 937.583 1026.79 928.744 1122.74 792.485C1218.68 656.227 1396.3 626.85 1473.12 629.194" stroke="#1A63F1" stroke-opacity="0.3" stroke-width="5.05476"/>
<path d="M817.121 902.633C877.344 917.925 1023.26 915.537 1125.13 783.656C1227.01 651.774 1405.76 630.284 1482.4 636.023" stroke="#1A63F1" stroke-opacity="0.3" stroke-width="5.05476"/>
<path d="M814.067 879.583C873.555 897.523 1019.43 901.592 1127.04 774.346C1234.65 647.1 1414.18 633.537 1490.49 642.662" stroke="#1A63F1" stroke-opacity="0.3" stroke-width="5.05476"/>
<path d="M811.161 855.829C869.797 876.384 1015.35 886.901 1128.48 764.54C1241.61 642.178 1421.57 636.57 1497.4 649.061" stroke="#1A63F1" stroke-opacity="0.3" stroke-width="5.05476"/>
<path d="M808.431 831.373C866.1 854.501 1011.05 871.446 1129.48 754.209C1247.91 636.971 1427.94 639.328 1503.15 655.161" stroke="#1A63F1" stroke-opacity="0.3" stroke-width="5.05476"/>
<path d="M805.905 806.227C862.496 831.883 1006.55 855.223 1130.05 743.339C1253.56 631.455 1433.3 641.772 1507.74 660.917" stroke="#1A63F1" stroke-opacity="0.3" stroke-width="5.05476"/>
<path d="M803.62 780.4C859.02 808.534 1001.9 838.224 1130.23 731.912C1258.56 625.6 1437.68 643.859 1511.19 666.277" stroke="#1A63F1" stroke-opacity="0.3" stroke-width="5.05476"/>
<path d="M801.599 753.905C855.701 784.462 997.131 820.443 1130.04 719.912C1262.95 619.381 1441.08 645.544 1513.53 671.192" stroke="#1A63F1" stroke-opacity="0.3" stroke-width="5.05476"/>
<path d="M799.878 726.752C852.574 759.672 992.274 801.874 1129.5 707.32C1266.72 612.766 1443.52 646.783 1514.77 675.611" stroke="#1A63F1" stroke-opacity="0.3" stroke-width="5.05476"/>
<path d="M798.481 698.957C849.67 734.176 987.367 782.516 1128.64 694.125C1269.91 605.733 1445.03 647.537 1514.93 679.488" stroke="#1A63F1" stroke-opacity="0.3" stroke-width="5.05476"/>
<path d="M797.439 670.531C847.02 707.979 982.443 762.363 1127.49 680.307C1272.53 598.251 1445.63 647.76 1514.05 682.772" stroke="#1A63F1" stroke-opacity="0.3" stroke-width="5.05476"/>
<path d="M796.775 641.494C844.651 681.099 977.536 741.42 1126.07 665.86C1274.6 590.3 1445.34 647.417 1512.14 685.421" stroke="#1A63F1" stroke-opacity="0.3" stroke-width="5.05476"/>
<path d="M796.521 611.863C842.598 653.547 972.685 719.687 1124.41 650.771C1276.14 581.855 1444.19 646.469 1509.25 687.39" stroke="#1A63F1" stroke-opacity="0.3" stroke-width="5.05476"/>
<path d="M796.698 581.655C840.887 625.336 967.921 697.165 1122.55 635.028C1277.18 572.891 1442.2 644.875 1505.39 688.634" stroke="#1A63F1" stroke-opacity="0.3" stroke-width="5.05476"/>
<path d="M797.336 550.89C839.55 596.484 963.282 673.862 1120.51 618.625C1277.73 563.389 1439.41 642.602 1500.6 689.113" stroke="#1A63F1" stroke-opacity="0.3" stroke-width="5.05476"/>
<path d="M798.458 519.594C838.612 567.01 958.801 649.785 1118.32 601.557C1277.83 553.33 1435.85 639.617 1494.92 688.789" stroke="#1A63F1" stroke-opacity="0.3" stroke-width="5.05476"/>
<path d="M800.085 487.78C838.103 536.926 954.512 624.936 1116 583.812C1277.5 542.687 1431.54 635.879 1488.38 687.616" stroke="#1A63F1" stroke-opacity="0.3" stroke-width="5.05476"/>
<path d="M802.238 455.477C838.045 506.256 950.448 599.33 1113.6 565.389C1276.75 531.448 1426.53 631.363 1481.02 685.563" stroke="#1A63F1" stroke-opacity="0.3" stroke-width="5.05476"/>
<path d="M804.943 422.706C838.469 475.019 946.644 572.973 1111.14 546.282C1275.63 519.591 1420.84 626.033 1472.88 682.591" stroke="#1A63F1" stroke-opacity="0.3" stroke-width="5.05476"/>
<path d="M808.215 389.494C839.394 443.239 943.131 545.883 1108.65 526.494C1274.16 507.105 1414.52 619.866 1464 678.67" stroke="#1A63F1" stroke-opacity="0.3" stroke-width="5.05476"/>
<path d="M812.08 355.866C840.851 410.938 939.946 518.069 1106.16 506.021C1272.37 493.972 1407.6 612.831 1454.44 673.766" stroke="#1A63F1" stroke-opacity="0.3" stroke-width="5.05476"/>
<path d="M816.547 321.845C842.854 378.136 937.114 489.546 1103.69 484.861C1270.27 480.177 1400.11 604.901 1444.21 667.848" stroke="#1A63F1" stroke-opacity="0.3" stroke-width="5.05476"/>
<path d="M821.64 287.466C845.431 344.865 934.67 460.335 1101.29 463.023C1267.92 465.712 1392.12 596.057 1433.39 660.894" stroke="#1A63F1" stroke-opacity="0.3" stroke-width="5.05476"/>
<path d="M827.368 252.749C848.598 311.144 932.642 430.449 1098.98 440.505C1265.33 450.561 1383.64 586.272 1422 652.871" stroke="#1A63F1" stroke-opacity="0.3" stroke-width="5.05476"/>
<path d="M833.75 217.725C852.375 277.002 931.06 399.908 1096.8 417.312C1262.53 434.716 1374.72 575.528 1410.1 643.758" stroke="#1A63F1" stroke-opacity="0.3" stroke-width="5.05476"/>
<path d="M840.799 182.426C856.784 242.469 929.955 368.735 1094.76 393.453C1259.56 418.171 1365.41 563.807 1397.74 633.536" stroke="#1A63F1" stroke-opacity="0.3" stroke-width="5.05476"/>
<path d="M848.525 146.878C861.839 207.57 929.353 336.948 1092.9 368.932C1256.45 400.916 1355.76 551.092 1384.97 622.182" stroke="#1A63F1" stroke-opacity="0.3" stroke-width="5.05476"/>
<g opacity="0.3" filter="url(#filter0_f_1117_809)">
<path d="M1157.79 444.07L1143 449.673V429.277L1157.79 423.001V444.07Z" fill="#3577F5"/>
<path d="M1174.6 429.949L1157.79 423.001V444.07L1174.6 451.018V429.949Z" fill="#145ADE"/>
<path d="M1157.79 444.07L1143 449.673L1158.24 455.501L1174.6 451.018L1157.79 444.07Z" fill="#2F95F9"/>
</g>
</g>
<defs>
<filter id="filter0_f_1117_809" x="1139" y="419.001" width="39.6035" height="40.5" filterUnits="userSpaceOnUse" color-interpolation-filters="sRGB">
<feFlood flood-opacity="0" result="BackgroundImageFix"/>
<feBlend mode="normal" in="SourceGraphic" in2="BackgroundImageFix" result="shape"/>
<feGaussianBlur stdDeviation="2" result="effect1_foregroundBlur_1117_809"/>
</filter>
</defs>
</svg>
